<svg xmlns="http://www.w3.org/2000/svg">
<defs>
<font id="GrundfosTheSans-Italic" horiz-adv-x="550" >
  <font-face 
    font-family="Grundfos TheSans"
    font-weight="400"
    font-style="italic"
    font-stretch="normal"
    units-per-em="1000"
    panose-1="2 11 5 3 4 3 2 13 2 4"
    ascent="740"
    descent="-260"
    x-height="497"
    cap-height="675"
    bbox="-179.001 -259.998 1000 848.001"
    underline-thickness="20"
    underline-position="-140"
    slope="-11"
    unicode-range="U+0020-U+F739"
  />
<missing-glyph horiz-adv-x="829" 
d="M509 133l-202 -52l21 -52h173l12 28l-5 12l-63 -16l-10 26l87 22zM508 201l-202 -51l14 -35l202 52zM519 263h-209v-47l12 -32l197 50v29zM451 414c-11.333 2 -23.333 3 -36 3s-25.667 -1 -39 -3l12 -120h52zM574 416c0 22 -4.16602 42.6631 -12.499 61.9961
s-19.833 36.333 -34.5 51s-31.5 26.167 -50.5 34.5s-39.5 12.5 -61.5 12.5s-42.833 -4.16699 -62.5 -12.5s-36.667 -19.833 -51 -34.5s-25.833 -31.667 -34.5 -51s-13 -40 -13 -62c0 -23.333 4.83301 -45.5 14.5 -66.5s23.5 -39.5 41.5 -55.5h51l-13 115
c-7.33301 -1.33301 -13.333 -3 -18 -5s-9 -3.5 -13 -4.5s-7 0.166992 -9 3.5s-3.16699 7.33301 -3.5 12s0 9.16699 1 13.5s2.83301 6.5 5.5 6.5c15.333 5.33301 32 9.33301 50 12s36 4 54 4s35.833 -1.5 53.5 -4.5s34.5 -6.83301 50.5 -11.5
c2 -0.666992 3.66699 -3.16699 5 -7.5s1.66602 -8.66602 0.999023 -12.999s-2 -8.16602 -4 -11.499s-5 -4.66602 -9 -3.99902c-8 4 -18.667 7.33301 -32 10l-13 -115h51c14.667 13.333 27.667 30.333 39 51s17 44.334 17 71.001zM613.001 415.996
c0 -29.333 -5.49902 -55.833 -16.499 -79.5s-24.5 -43.5 -40.5 -59.5v-64l-13 -3l26 -62l-25 -7l25 -58l-25 -6l9 -22l-25 -55h-41c-2 -10 -9.83301 -18.5 -23.5 -25.5s-29.834 -10.5 -48.501 -10.5c-20 0 -36.833 3.5 -50.5 10.5s-21.167 15.5 -22.5 25.5h-41l-42 99l25 8
l-25 61l28 7l-16 38v64c-16 17.333 -29.333 37.833 -40 61.5s-16 49.5 -16 77.5c0 27.333 5.33301 53 16 77s25 45 43 63s39 32.333 63 43s50 16 78 16c26.667 0 52 -5.33301 76 -16s45 -25 63 -43s32.333 -39 43 -63s16 -49.667 16 -77zM726.002 398.996v33.999l100 6

<glyph glyph-name=".notdef" horiz-adv-x="829" 
d="M509 133l-202 -52l21 -52h173l12 28l-5 12l-63 -16l-10 26l87 22zM508 201l-202 -51l14 -35l202 52zM519 263h-209v-47l12 -32l197 50v29zM451 414c-11.333 2 -23.333 3 -36 3s-25.667 -1 -39 -3l12 -120h52zM574 416c0 22 -4.16602 42.6631 -12.499 61.9961
s-19.833 36.333 -34.5 51s-31.5 26.167 -50.5 34.5s-39.5 12.5 -61.5 12.5s-42.833 -4.16699 -62.5 -12.5s-36.667 -19.833 -51 -34.5s-25.833 -31.667 -34.5 -51s-13 -40 -13 -62c0 -23.333 4.83301 -45.5 14.5 -66.5s23.5 -39.5 41.5 -55.5h51l-13 115
c-7.33301 -1.33301 -13.333 -3 -18 -5s-9 -3.5 -13 -4.5s-7 0.166992 -9 3.5s-3.16699 7.33301 -3.5 12s0 9.16699 1 13.5s2.83301 6.5 5.5 6.5c15.333 5.33301 32 9.33301 50 12s36 4 54 4s35.833 -1.5 53.5 -4.5s34.5 -6.83301 50.5 -11.5
c2 -0.666992 3.66699 -3.16699 5 -7.5s1.66602 -8.66602 0.999023 -12.999s-2 -8.16602 -4 -11.499s-5 -4.66602 -9 -3.99902c-8 4 -18.667 7.33301 -32 10l-13 -115h51c14.667 13.333 27.667 30.333 39 51s17 44.334 17 71.001zM613.001 415.996
c0 -29.333 -5.49902 -55.833 -16.499 -79.5s-24.5 -43.5 -40.5 -59.5v-64l-13 -3l26 -62l-25 -7l25 -58l-25 -6l9 -22l-25 -55h-41c-2 -10 -9.83301 -18.5 -23.5 -25.5s-29.834 -10.5 -48.501 -10.5c-20 0 -36.833 3.5 -50.5 10.5s-21.167 15.5 -22.5 25.5h-41l-42 99l25 8
l-25 61l28 7l-16 38v64c-16 17.333 -29.333 37.833 -40 61.5s-16 49.5 -16 77.5c0 27.333 5.33301 53 16 77s25 45 43 63s39 32.333 63 43s50 16 78 16c26.667 0 52 -5.33301 76 -16s45 -25 63 -43s32.333 -39 43 -63s16 -49.667 16 -77zM726.002 398.996v33.999l100 6
c2 -15.333 2 -30.666 0 -45.999zM642.002 620.995c-3.33301 4 -7 8 -11 12s-8 7.66699 -12 11l66 76l33 -33zM431.002 713.995h-17h-17l-6 101c16 1.33301 31.333 1.33301 46 0zM211.002 642.995l-12.502 -10.5c-4.33301 -3.66699 -8.16602 -7.5 -11.499 -11.5l-76 66
c10.667 12 21.334 23 32.001 33zM2 392.995c-0.666992 6.66699 -1 14.332 -1 22.999s0.333008 16.334 1 23.001l102 -6c-0.666992 -10.667 -0.666992 -22 0 -34zM420 430.993l-0.999023 0.000976562v1c-0.666992 -1.33301 -1.33398 -2 -2.00098 -2s-1 0.666992 -1 2s1 2 3 2
c0 1.33301 -1 1.66602 -3 0.999023v1c2.66699 1.33301 4 1 4 -1v-4zM404.001 435.994l1 0.000976562v-4c0 -1.33301 -0.666992 -2 -2 -2s-2 0.666992 -2 2v4h1v-4l0.5 -1c0.333008 -0.666992 0.833008 -0.333984 1.5 0.999023v4zM426.001 432.995
c0 -1.33301 -1.33301 -2 -4 -2v1c2 0 3 0.333008 3 1c-2 0 -3 0.666992 -3 2s1.33301 2 4 2v-1c-2 0 -3 -0.333008 -3 -1c2 0 3 -0.666992 3 -2zM410.001 431.995v-0.999023c-2 -2 -3 -1.33301 -3 2c0 4 1 5 3 3v-1c-1.33301 1.33301 -2 0.666016 -2 -2.00098
c0 -2 0.666992 -2.33301 2 -1zM429.001 428.996h-1c1.33301 2.66699 1.33301 6 0 10h1c1.33301 -4 1.33301 -7.33301 0 -10zM414.001 428.996h-1c-1.33301 4 -1.33301 7.33301 0 10h1c-1.33301 -2.66699 -1.33301 -6 0 -10zM397.001 431.996h2v-1
c-1.33301 -1.33301 -2.33301 -1.33301 -3 0v7h1v-6zM419.001 432.996h-2c0 -2 0.666992 -2 2 0z" />
    <glyph glyph-name="space" unicode=" " horiz-adv-x="225" 
 />
    <glyph glyph-name="exclam" unicode="!" horiz-adv-x="295" 
d="M169 50c0 -16.667 -5.66699 -30.667 -17 -42s-25.333 -17 -42 -17s-30 5.33301 -40 16s-15 23.667 -15 39c0 16.667 5.66699 30.667 17 42s25.333 17 42 17s30 -5.33301 40 -16s15 -23.667 15 -39zM169 168h-70l89 538h97z" />
    <glyph glyph-name="quotedbl" unicode="&#x22;" horiz-adv-x="358" 
d="M181 511h-62l17 227h89zM345 511h-62l17 227h89z" />
    <glyph glyph-name="numbersign" unicode="#" 
d="M250 446l-56 -195h131l55 195h-130zM556 446h-111l-54 -195h103l-11 -57h-109l-57 -194h-65l56 194h-131l-55 -194h-66l56 194h-105l10 57h112l56 195h-106l12 57h110l49 172h65l-48 -172h130l49 172h65l-48 -172h104z" />
    <glyph glyph-name="dollar" unicode="$" 
d="M376 195c0 24 -7.83301 43.166 -23.5 57.499s-34.5 27.5 -56.5 39.5l-47 -223c16.667 2.66699 32.667 7.33398 48 14.001s28.833 15.167 40.5 25.5s21 22.833 28 37.5s10.5 31 10.5 49zM303 594.999c-38 -5.33301 -67.167 -18.501 -87.5 -39.501s-30.5 -45.5 -30.5 -73.5
c0 -22 7 -40.167 21 -54.5s31.667 -27.166 53 -38.499l44 206v0zM473 574.998c-18 7.33301 -36.3311 12.665 -54.998 15.998s-36.667 5.66602 -54 6.99902l-50 -230c19.333 -8 37.833 -16.667 55.5 -26s33.167 -20.166 46.5 -32.499s24 -26.666 32 -42.999
s12 -35.5 12 -57.5c0 -27.333 -5.66699 -53 -17 -77s-27 -45.167 -47 -63.5s-43.833 -33.5 -71.5 -45.5s-57.834 -20 -90.501 -24l-28 -126h-60l27 123c-27.333 0.666992 -53.833 3.33398 -79.5 8.00098s-49.167 11 -70.5 19l27 79c39.333 -21.333 85.666 -33 138.999 -35
l52 244c-18 6.66699 -35.333 14.5 -52 23.5s-31.167 19.667 -43.5 32s-22.166 26.666 -29.499 42.999s-11 35.5 -11 57.5c0 23.333 4.5 46 13.5 68s22.5 41.833 40.5 59.5s40.167 32.5 66.5 44.5s57.166 19.667 92.499 23l22 101h60l-22 -99
c19.333 -0.666992 39.5 -2.66699 60.5 -6s40.5 -8.66602 58.5 -15.999z" />
    <glyph glyph-name="percent" unicode="%" horiz-adv-x="783" 
d="M654 171c0 28 -5.50098 49.001 -16.501 63.001s-29.167 21 -54.5 21c-14.667 0 -27.667 -3.66699 -39 -11s-21 -17 -29 -29s-14 -25.5 -18 -40.5s-6 -30.167 -6 -45.5c0 -28 5.5 -48.5 16.5 -61.5s28.5 -19.5 52.5 -19.5c16 0 29.833 4 41.5 12s21.334 18 29.001 30
s13.5 25.167 17.5 39.5s6 28.166 6 41.499zM729.999 181.001c0 -24 -4.16895 -47.6699 -12.502 -71.0029s-20.166 -44.166 -35.499 -62.499s-34.166 -33 -56.499 -44s-47.833 -16.5 -76.5 -16.5c-41.333 0 -74 10.667 -98 32s-36 56 -36 104
c0 28.667 4.66699 54.834 14 78.501s22 44 38 61s34.833 30.167 56.5 39.5s44.5 14 68.5 14c40 0 73 -10.667 99 -32s39 -55.666 39 -102.999zM158.997 -23.002l-55 45l541 676l55 -45zM319.997 543.998c0 28 -5.33398 48.833 -16.001 62.5s-29 20.5 -55 20.5
c-14.667 0 -27.667 -3.5 -39 -10.5s-21 -16.333 -29 -28s-14 -25 -18 -40s-6 -30.5 -6 -46.5c0 -54 23.333 -81 70 -81c15.333 0 28.833 3.83301 40.5 11.5s21.334 17.5 29.001 29.5s13.5 25.333 17.5 40s6 28.667 6 42zM396.996 553.998
c0 -24.667 -4.16602 -48.6699 -12.499 -72.0029s-20.333 -44.166 -36 -62.499s-34.667 -33 -57 -44s-47.833 -16.5 -76.5 -16.5c-40.667 0 -73.167 10.833 -97.5 32.5s-36.5 56.5 -36.5 104.5c0 28.667 4.66699 54.834 14 78.501s22.166 44 38.499 61s35.333 30.167 57 39.5
s44.5 14 68.5 14c40 0 73 -10.667 99 -32s39 -55.666 39 -102.999z" />
    <glyph glyph-name="ampersand" unicode="&#x26;" horiz-adv-x="779" 
d="M460 137l-98.501 105.499c-33.667 37.667 -63.5 74.5 -89.5 110.5c-18 -12.667 -35 -25.667 -51 -39s-30.333 -27.5 -43 -42.5s-22.667 -30.833 -30 -47.5s-11 -34.667 -11 -54c0 -14 2.16699 -27.5 6.5 -40.5s11.333 -24.5 21 -34.5s21.834 -18 36.501 -24
s32.667 -9 54 -9c32 0 65.667 5.83301 101 17.5s70 30.834 104 57.501zM421.999 610.999c0 19.333 -5.49902 34.667 -16.499 46s-27.5 17 -49.5 17c-30.667 0 -54.834 -9.33301 -72.501 -28s-26.5 -42 -26.5 -70c0 -16.667 4 -35 12 -55s18.667 -41.333 32 -64
c16 10.667 31.333 21.667 46 33s27.5 23.333 38.5 36s19.833 26 26.5 40s10 29 10 45zM721 449c-9.33301 -62.667 -26.8369 -119.832 -52.5039 -171.499s-56.5 -96.5 -92.5 -134.5c20.667 -20 41 -38.5 61 -55.5l58 -48.5l-58 -59l-63.5 52.5
c-19.667 17 -39.5 35.167 -59.5 54.5c-40.667 -32 -85 -56.167 -133 -72.5s-96.333 -24.5 -145 -24.5c-32.667 0 -60.834 4.33301 -84.501 13s-43.167 20.167 -58.5 34.5s-26.666 31.166 -33.999 50.499s-11 39.666 -11 60.999c0 30.667 5.33301 58.334 16 83.001
s24.834 47.5 42.501 68.5s37.5 40.333 59.5 58s44.333 34.5 67 50.5c-17.333 27.333 -31.833 54.5 -43.5 81.5s-17.5 51.833 -17.5 74.5c0 23.333 4.66699 45.666 14 66.999s22.333 40 39 56s36.834 28.667 60.501 38s50.167 14 79.5 14c50 0 86.167 -11 108.5 -33
s33.5 -49.667 33.5 -83c0 -23.333 -4.66699 -45.166 -14 -65.499s-21.666 -39.5 -36.999 -57.5s-33 -35.167 -53 -51.5s-41 -32.5 -63 -48.5c24 -34 51.667 -68.667 83 -104s64 -70 98 -104c26.667 28.667 50.834 65 72.501 109s36.167 93 43.5 147h84v0z" />
    <glyph glyph-name="quotesingle" unicode="'" horiz-adv-x="194" 
d="M181 511h-62l17 227h89z" />
    <glyph glyph-name="parenleft" unicode="(" horiz-adv-x="297" 
d="M373 750c-34 -43.333 -64.9971 -90.167 -92.9971 -140.5s-52.167 -102 -72.5 -155s-36 -106.5 -47 -160.5s-16.5 -106.333 -16.5 -157c0 -54 3.66699 -106.667 11 -158s20.666 -102.666 39.999 -153.999l-66 -30c-21.333 50.667 -37.833 103.5 -49.5 158.5
s-17.5 113.833 -17.5 176.5c0 58 6.16699 116.167 18.5 174.5s29.666 115.166 51.999 170.499s49.166 108.833 80.499 160.5s66 100.167 104 145.5l56 -31v0z" />
    <glyph glyph-name="parenright" unicode=")" horiz-adv-x="297" 
d="M256 446c0 -58 -6.16992 -116.166 -18.5029 -174.499s-29.666 -115.166 -51.999 -170.499s-49.166 -108.833 -80.499 -160.5s-66 -100.167 -104 -145.5l-56 31c34 43.333 65 90.166 93 140.499s52.167 102 72.5 155s36 106.333 47 160s16.5 106.167 16.5 157.5
c0 54 -3.66699 106.667 -11 158s-20.666 102.666 -39.999 153.999l66 30c21.333 -50.667 37.833 -103.5 49.5 -158.5s17.5 -113.833 17.5 -176.5z" />
    <glyph glyph-name="asterisk" unicode="*" horiz-adv-x="365" 
d="M286 582l90 -48l-36 -55l-81 68l-11 -115l-63 6l31 107l-93 -63l-27 55l109 45l-91 48l36 54l80 -67l12 115l63 -5l-32 -108l96 63l27 -55z" />
    <glyph glyph-name="plus" unicode="+" 
d="M499 224h-198l-42 -216h-77l43 216h-197l13 68h197l41 215h77l-42 -215h198z" />
    <glyph glyph-name="comma" unicode="," horiz-adv-x="220" 
d="M79 108c18 0 32.665 -7.33301 43.998 -22s15.333 -34 12 -58s-15.666 -51.5 -36.999 -82.5s-55 -62.833 -101 -95.5l-31 36c38 32 61.333 59.5 70 82.5s8 43.167 -2 60.5c-4.66699 8.66699 -7 17.667 -7 27s2.16699 17.833 6.5 25.5s10.333 14 18 19
s16.834 7.5 27.501 7.5z" />
    <glyph glyph-name="hyphen" unicode="-" horiz-adv-x="329" 
d="M47 217v67h235v-67h-235z" />
    <glyph glyph-name="hyphen" unicode="&#xad;" horiz-adv-x="329" 
d="M47 217v67h235v-67h-235z" />
    <glyph glyph-name="period" unicode="." horiz-adv-x="220" 
d="M139 51c0 -16.667 -5.83203 -30.834 -17.499 -42.501s-25.834 -17.5 -42.501 -17.5c-16 0 -29.667 5.83301 -41 17.5s-17 25.5 -17 41.5c0 16.667 6 30.834 18 42.501s26 17.5 42 17.5c16.667 0 30.5 -5.83301 41.5 -17.5s16.5 -25.5 16.5 -41.5z" />
    <glyph glyph-name="slash" unicode="/" horiz-adv-x="409" 
d="M85 0h-85l381 675h84z" />
    <glyph glyph-name="zero" unicode="0" 
d="M442 460c0 41.333 -7.16699 73 -21.5 95s-39.5 33 -75.5 33c-24.667 0 -47 -7.16699 -67 -21.5s-37.667 -33.166 -53 -56.499s-28.333 -49.5 -39 -78.5s-19.334 -58.167 -26.001 -87.5s-11.667 -57.5 -15 -84.5s-5 -49.833 -5 -68.5c0 -41.333 7.16699 -73 21.5 -95
s40.166 -33 77.499 -33c24.667 0 46.834 7.16699 66.501 21.5s37 33.166 52 56.499s27.833 49.5 38.5 78.5s19.334 58.167 26.001 87.5s11.667 57.5 15 84.5s5 49.833 5 68.5zM531 467c0 -29.333 -2.33301 -61.502 -7 -96.502s-12 -70.167 -22 -105.5s-23 -69.333 -39 -102
s-35.333 -61.834 -58 -87.501s-48.834 -46.167 -78.501 -61.5s-63.167 -23 -100.5 -23c-60.667 0 -105 16.333 -133 49s-42 80.334 -42 143.001c0 29.333 2.33301 61.5 7 96.5s12 70.167 22 105.5s23 69.333 39 102s35.333 61.834 58 87.501s48.834 46.167 78.501 61.5
s63.5 23 101.5 23c60 0 104 -16.667 132 -50s42 -80.666 42 -141.999z" />
    <glyph glyph-name="one" unicode="1" 
d="M448 0h-418l14 76h176l93 488l-174 -63v79l190 64l18 6h70l-109 -574h155z" />
    <glyph glyph-name="two" unicode="2" 
d="M505 505c0 -21.333 -2.66699 -42.666 -8 -63.999s-15.5 -44 -30.5 -68s-36.167 -50 -63.5 -78s-63 -59.667 -107 -95l-151 -120v-1c20 0.666992 48.333 1.16699 85 1.5s78 0.5 124 0.5h99l-16 -81h-424l13 69l190 157c40 32 72.5 60.167 97.5 84.5s44.833 46.5 59.5 66.5
s24.667 38.667 30 56s8 35.666 8 54.999c0 28 -8.83301 51 -26.5 69s-45.167 27 -82.5 27c-28.667 0 -57.334 -5.33301 -86.001 -16s-52.667 -22.667 -72 -36l-13 74c24.667 13.333 53.167 25.5 85.5 36.5s68.833 16.5 109.5 16.5c30 0 56.333 -4 79 -12
s41.334 -19 56.001 -33s25.667 -30.333 33 -49s11 -38.667 11 -60z" />
    <glyph glyph-name="three" unicode="3" 
d="M508 528c0 -42.667 -14.166 -79.499 -42.499 -110.499s-65.833 -52.833 -112.5 -65.5l-1 -2c37.333 -5.33301 65.666 -19.333 84.999 -42s29 -51.334 29 -86.001c0 -24.667 -5.66699 -50.667 -17 -78s-29.5 -52.333 -54.5 -75s-57.167 -41.334 -96.5 -56.001
s-87 -22 -143 -22c-23.333 0 -45.166 1.33301 -65.499 4s-38.166 6.33398 -53.499 11.001l20 77c15.333 -6 33 -10.833 53 -14.5s40.667 -5.5 62 -5.5c35.333 0 65.666 4.5 90.999 13.5s46.166 20.5 62.499 34.5s28.333 29.833 36 47.5s11.5 35.167 11.5 52.5
c0 29.333 -11.833 52.5 -35.5 69.5s-58.834 25.5 -105.501 25.5c-19.333 0 -36.833 -0.5 -52.5 -1.5s-32.167 -2.16699 -49.5 -3.5l13 68h22c48 0 88 4.33301 120 13s57.833 19.834 77.5 33.501s33.667 29 42 46s12.5 34.167 12.5 51.5c0 23.333 -9 41.833 -27 55.5
s-44 20.5 -78 20.5c-26.667 0 -52.5 -3.33301 -77.5 -10s-49.167 -15.667 -72.5 -27l-2 74c25.333 9.33301 52.333 17.166 81 23.499s58.334 9.5 89.001 9.5c60.667 0 105.667 -12 135 -36s44 -55.667 44 -95z" />
    <glyph glyph-name="four" unicode="4" 
d="M396 562l-284.999 -336c15.333 0 33.666 0.166992 54.999 0.5l64 1c21.333 0.333008 41.333 0.5 60 0.5h43l64 334h-1zM416.001 228h110l-16 -77h-109l-29 -151h-84l29 151h-304l7 69l361 430h31h60h24z" />
    <glyph glyph-name="five" unicode="5" 
d="M511 569l-260.998 0.00488281h-8l-34 -176c9.33301 0.666992 19.166 1.16699 29.499 1.5s19.166 0.5 26.499 0.5c35.333 0 66 -3.83301 92 -11.5s47.5 -18.334 64.5 -32.001s29.5 -29.834 37.5 -48.501s12 -38.667 12 -60c0 -34.667 -7.5 -67.334 -22.5 -98.001
s-36 -57.334 -63 -80.001s-59.333 -40.667 -97 -54s-79.5 -20 -125.5 -20c-25.333 0 -47.333 1 -66 3s-37 5 -55 9l15 79c17.333 -5.33301 36 -9.66602 56 -12.999s40 -5 60 -5c31.333 0 59.666 4.16699 84.999 12.5s46.833 19.666 64.5 33.999s31.334 31.666 41.001 51.999
s14.5 42.5 14.5 66.5c0 33.333 -13 58 -39 74s-64 24 -114 24c-20 0 -40 -0.833008 -60 -2.5s-36.333 -3.5 -49 -5.5l63 331h79h270z" />
    <glyph glyph-name="six" unicode="6" 
d="M414 238c0 30.667 -9.00293 55 -27.0029 73s-45.667 27 -83 27c-25.333 0 -48.166 -4.66699 -68.499 -14s-37.833 -21.833 -52.5 -37.5s-25.834 -33.167 -33.501 -52.5s-11.5 -39 -11.5 -59c0 -34.667 9.33301 -62.5 28 -83.5s47 -31.5 85 -31.5
c22.667 0 43.834 4.5 63.501 13.5s36.834 21.5 51.501 37.5s26.334 34.833 35.001 56.5s13 45.167 13 70.5zM506.997 582c-9.33301 1.33301 -19.002 2.33496 -29.002 3.00195s-21.333 1 -34 1c-68 0 -123.833 -18.5 -167.5 -55.5s-78.167 -89.167 -103.5 -156.5
c-3.33301 -6 -6.66602 -13.667 -9.99902 -23s-6.66602 -19.333 -9.99902 -30h1c19.333 28 44.833 49.5 76.5 64.5s64.5 22.5 98.5 22.5c58 0 101.333 -14.333 130 -43s43 -65.334 43 -110.001c0 -37.333 -6.83301 -72 -20.5 -104s-32.5 -59.833 -56.5 -83.5
s-52.5 -42.334 -85.5 -56.001s-68.833 -20.5 -107.5 -20.5c-59.333 0 -104.333 16.667 -135 50s-46 81.333 -46 144c0 22 2.5 49 7.5 81s13.5 65.667 25.5 101s28.167 70.333 48.5 105s45.666 65.834 75.999 93.501s66.333 50.167 108 67.5s89.834 26 144.501 26
c12 0 23.333 -0.333008 34 -1s19 -1.33398 25 -2.00098z" />
    <glyph glyph-name="seven" unicode="7" 
d="M558 576l-102 -146.001l-96 -149l-87.5 -145.5l-75.5 -135.5h-102l81 140.5l89 145l94.5 144.5c32.333 48 65.166 94.333 98.499 139c-5.33301 0 -16.666 -0.166992 -33.999 -0.5s-37.5 -0.666016 -60.5 -0.999023s-47.833 -0.5 -74.5 -0.5h-75h-96l16 83h438z" />
    <glyph glyph-name="eight" unicode="8" 
d="M241 60c18.667 0 36.999 2.5 54.999 7.5s34 12.5 48 22.5s25.333 22.667 34 38s13 33.333 13 54c0 14 -3 26.5 -9 37.5s-14 21 -24 30s-21.5 17.167 -34.5 24.5l-40.5 22c-32.667 -15.333 -59.167 -30 -79.5 -44s-36.166 -27.5 -47.499 -40.5s-19 -25.667 -23 -38
s-6 -24.166 -6 -35.499c0 -22.667 9.5 -41.334 28.5 -56.001s47.5 -22 85.5 -22zM439.999 516c0 24 -8.83301 42.5039 -26.5 55.5039s-41.5 19.5 -71.5 19.5c-21.333 0 -40.5 -3.33301 -57.5 -10s-31.333 -15.334 -43 -26.001s-20.5 -22.834 -26.5 -36.501
s-9 -27.834 -9 -42.501c0 -12 2.5 -22.833 7.5 -32.5s11.833 -18.5 20.5 -26.5s18.667 -15.667 30 -23s23.333 -14.333 36 -21c26 12.667 48 24.667 66 36s32.5 22.666 43.5 33.999s18.833 22.833 23.5 34.5s7 24.5 7 38.5zM528.999 529.004
c0 -22 -3.49902 -41.8359 -10.499 -59.5029s-17.167 -34 -30.5 -49s-30.166 -29.333 -50.499 -43s-43.5 -27.167 -69.5 -40.5c14.667 -8 28.667 -16.667 42 -26s25.166 -19.666 35.499 -30.999s18.666 -24.333 24.999 -39s9.5 -31 9.5 -49c0 -31.333 -7 -59.333 -21 -84
s-32.833 -45.667 -56.5 -63s-50.667 -30.666 -81 -39.999s-61.5 -14 -93.5 -14c-60.667 0 -107.667 12 -141 36s-50 57.333 -50 100c0 45.333 15.667 84 47 116s74.666 61.333 129.999 88c-13.333 7.33301 -25.666 15.333 -36.999 24s-21.5 18.334 -30.5 29.001
s-16 22.5 -21 35.5s-7.5 27.5 -7.5 43.5c0 26 5.83301 50.833 17.5 74.5s28 44.5 49 62.5s45.833 32.333 74.5 43s60 16 94 16c57.333 0 101 -11.667 131 -35s45 -55 45 -95z" />
    <glyph glyph-name="nine" unicode="9" 
d="M440 477c0 32.667 -9.16602 59.668 -27.499 81.001s-45.833 32 -82.5 32c-24 0 -46 -5.16699 -66 -15.5s-37.167 -23.833 -51.5 -40.5s-25.333 -35.667 -33 -57s-11.5 -43 -11.5 -65c0 -32.667 8.83301 -57.667 26.5 -75s43.5 -26 77.5 -26
c22.667 0 44.167 4.16699 64.5 12.5s38.166 20 53.499 35s27.5 32.667 36.5 53s13.5 42.166 13.5 65.499zM528.001 471.001c0 -19.333 -2.16895 -44.835 -6.50195 -76.502s-12 -65.167 -23 -100.5s-26.167 -71 -45.5 -107s-44 -68.5 -74 -97.5s-66.333 -52.667 -109 -71
s-92.667 -27.5 -150 -27.5c-34 0 -62.333 2.33301 -85 7l14 77c12 -3.33301 25.667 -5.83301 41 -7.5s29.666 -2.5 42.999 -2.5c66.667 0 121.834 17.5 165.501 52.5s77.5 84.833 101.5 149.5c3.33301 9.33301 6 17.333 8 24s4.66699 13 8 19h-1
c-20 -21.333 -44.167 -38.5 -72.5 -51.5s-59.5 -19.5 -93.5 -19.5c-54 0 -95.667 13.667 -125 41s-44 66 -44 116c0 32.667 6.16699 64.834 18.5 96.501s29.833 59.834 52.5 84.501s50.334 44.5 83.001 59.5s69.334 22.5 110.001 22.5c28 0 53.333 -3.66699 76 -11
s42 -18.5 58 -33.5s28.333 -34.5 37 -58.5s13 -52.333 13 -85z" />
    <glyph glyph-name="colon" unicode=":" horiz-adv-x="250" 
d="M148 51c0 -16.667 -6.00098 -30.833 -18.001 -42.5s-26 -17.5 -42 -17.5c-16.667 0 -30.5 5.83301 -41.5 17.5s-16.5 25.167 -16.5 40.5c0 17.333 5.83301 31.833 17.5 43.5s25.834 17.5 42.501 17.5s30.5 -5.83301 41.5 -17.5s16.5 -25.5 16.5 -41.5zM203.999 346.001
c0 -17.333 -5.83301 -31.832 -17.5 -43.499s-25.834 -17.5 -42.501 -17.5s-30.5 5.66699 -41.5 17s-16.5 25 -16.5 41c0 17.333 5.83301 31.666 17.5 42.999s25.834 17 42.501 17c16 0 29.667 -5.5 41 -16.5s17 -24.5 17 -40.5z" />
    <glyph glyph-name="semicolon" unicode=";" horiz-adv-x="250" 
d="M90 108c18 0 32.667 -7.33301 44 -22s15.333 -34 12 -58s-15.666 -51.5 -36.999 -82.5s-55 -62.833 -101 -95.5l-33 36c38 32 61.5 59.5 70.5 82.5s8.5 43.167 -1.5 60.5c-5.33301 8 -7.83301 16.667 -7.5 26s2.66602 18 6.99902 26s10.5 14.5 18.5 19.5
s17.333 7.5 28 7.5zM204 346c0 -17.333 -5.83301 -31.832 -17.5 -43.499s-25.834 -17.5 -42.501 -17.5s-30.5 5.66699 -41.5 17s-16.5 25 -16.5 41c0 17.333 5.83301 31.666 17.5 42.999s25.834 17 42.501 17c16 0 29.667 -5.5 41 -16.5s17 -24.5 17 -40.5z" />
    <glyph glyph-name="semicolon" unicode="&#x37e;" horiz-adv-x="250" 
d="M90 108c18 0 32.667 -7.33301 44 -22s15.333 -34 12 -58s-15.666 -51.5 -36.999 -82.5s-55 -62.833 -101 -95.5l-33 36c38 32 61.5 59.5 70.5 82.5s8.5 43.167 -1.5 60.5c-5.33301 8 -7.83301 16.667 -7.5 26s2.66602 18 6.99902 26s10.5 14.5 18.5 19.5
s17.333 7.5 28 7.5zM204 346c0 -17.333 -5.83301 -31.832 -17.5 -43.499s-25.834 -17.5 -42.501 -17.5s-30.5 5.66699 -41.5 17s-16.5 25 -16.5 41c0 17.333 5.83301 31.666 17.5 42.999s25.834 17 42.501 17c16 0 29.667 -5.5 41 -16.5s17 -24.5 17 -40.5z" />
    <glyph glyph-name="less" unicode="&#x3c;" 
d="M162 247l243 -224l-59 -52l-292 281l389 284l46 -56z" />
    <glyph glyph-name="equal" unicode="=" 
d="M455 138h-409l14 66h408zM487 304h-408l13 66h408z" />
    <glyph glyph-name="greater" unicode="&#x3e;" 
d="M80 -29l-47 56l321 234l-235 224l56 52l287 -282z" />
    <glyph glyph-name="question" unicode="?" horiz-adv-x="435" 
d="M189 50c0 -16.667 -5.5 -30.667 -16.5 -42s-24.833 -17 -41.5 -17s-30.167 5.33301 -40.5 16s-15.5 23.667 -15.5 39c0 16.667 5.66699 30.667 17 42s25.333 17 42 17s30 -5.33301 40 -16s15 -23.667 15 -39zM414 540c0 -28.667 -6.33496 -53.165 -19.002 -73.498
s-28.167 -39 -46.5 -56s-38 -33 -59 -48s-40 -31.5 -57 -49.5s-30.333 -38.667 -40 -62s-12.5 -51 -8.5 -83h-79c-4.66699 36 -2.5 67 6.5 93s21.5 48.667 37.5 68s34.167 36.666 54.5 51.999l57.5 45c18 14.667 33 29.834 45 45.501s18 34.167 18 55.5
c0 29.333 -16 54.166 -48 74.499s-80.333 31.833 -145 34.5l22 74c44.667 -1.33301 83.334 -7 116.001 -17s59.834 -22.833 81.501 -38.5s37.667 -33.334 48 -53.001s15.5 -40.167 15.5 -61.5z" />
    <glyph glyph-name="at" unicode="@" horiz-adv-x="836" 
d="M482 445c-9.33301 1.33301 -18.666 2.5 -27.999 3.5s-19 1.5 -29 1.5c-16.667 0 -31.334 -4.33301 -44.001 -13s-23.167 -20.5 -31.5 -35.5s-14.666 -32.167 -18.999 -51.5s-6.5 -39.333 -6.5 -60c0 -44.667 12.333 -67 37 -67c10.667 0 21.667 4.5 33 13.5
s22 21.5 32 37.5s19.167 35 27.5 57s15.166 46 20.499 72l8 42v0zM764 396c0 -33.333 -5.16602 -64.332 -15.499 -92.999s-24.666 -53.667 -42.999 -75s-40 -38.166 -65 -50.499s-52.5 -18.5 -82.5 -18.5c-16 0 -29.667 2.83301 -41 8.5s-20.666 13 -27.999 22
s-12.5 19.167 -15.5 30.5s-3.83301 23 -2.5 35h-2c-2.66699 -10 -8.16699 -20.5 -16.5 -31.5s-18.333 -21.333 -30 -31s-24.5 -17.667 -38.5 -24s-27.667 -9.5 -41 -9.5c-30 0 -52.5 10 -67.5 30s-22.5 49 -22.5 87c0 32.667 4 63 12 91s19.833 52.333 35.5 73
s35.167 36.834 58.5 48.501s50 17.5 80 17.5c21.333 0 42.333 -0.833008 63 -2.5s39.667 -4.16699 57 -7.5l-27 -168c-6.66699 -39.333 -6.16699 -67.166 1.5 -83.499s20.834 -24.5 39.501 -24.5c16.667 0 32.167 4.33301 46.5 13s26.666 20.667 36.999 36
s18.5 33.5 24.5 54.5s9 43.833 9 68.5c0 28 -4.83301 55.833 -14.5 83.5s-24.5 52.667 -44.5 75s-45.5 40.333 -76.5 54s-67.833 20.5 -110.5 20.5c-41.333 0 -80 -7.83301 -116 -23.5s-67.5 -37.5 -94.5 -65.5s-48.333 -61.167 -64 -99.5s-23.5 -80.166 -23.5 -125.499
c0 -39.333 5.83301 -76 17.5 -110s28.834 -63.833 51.501 -89.5s50.667 -45.834 84 -60.501s71.333 -22 114 -22c50 0 96.667 7.33301 140 22l12 -64c-24 -8 -50.833 -13.833 -80.5 -17.5s-56.834 -5.5 -81.501 -5.5c-52 0 -98.5 8.66699 -139.5 26
s-75.833 41.166 -104.5 71.499s-50.5 66.333 -65.5 108s-22.5 86.5 -22.5 134.5c0 55.333 10 106.5 30 153.5s47.167 87.667 81.5 122s74.166 61.166 119.499 80.499s93.666 29 144.999 29s96.666 -7.83301 135.999 -23.5s72.5 -36.834 99.5 -63.501
s47.333 -57.834 61 -93.501s20.5 -73.167 20.5 -112.5z" />
    <glyph glyph-name="A" unicode="A" horiz-adv-x="604" 
d="M377 480c-2.66699 16 -5.16797 32.332 -7.50098 48.999s-4.16602 33.334 -5.49902 50.001h-1c-6.66699 -15.333 -14.167 -31.5 -22.5 -48.5l-26.5 -51.5l-136 -249h241zM453.999 -0.000976562l-25 161h-286l-87 -161h-91l371 675h94l115 -675h-91z" />
    <glyph glyph-name="B" unicode="B" horiz-adv-x="557" 
d="M409 223c1.33301 31.333 -9.83203 54.667 -33.499 70s-61.5 23 -113.5 23c-22.667 0 -48.334 -0.333008 -77.001 -1l-46 -242c8.66699 -1.33301 20 -2.66602 34 -3.99902s30.667 -2 50 -2c30.667 0 57.667 4.16699 81 12.5s43 19.666 59 33.999s28 31 36 50
s11.333 38.833 10 59.5zM456.002 530.001c0 11.333 -1.83301 21.833 -5.5 31.5s-10.167 18 -19.5 25s-21.666 12.333 -36.999 16s-35 5.5 -59 5.5c-17.333 0 -32.833 -0.166992 -46.5 -0.5s-29.834 -0.833008 -48.501 -1.5l-43 -224c20.667 0 40.667 -0.333008 60 -1
c28 0 54.167 3.33301 78.5 10s45.5 16.167 63.5 28.5s32 27.833 42 46.5s15 40 15 64zM546.002 549.001c0 -26 -4.16699 -49.335 -12.5 -70.002s-19.5 -39 -33.5 -55s-29.833 -29.667 -47.5 -41s-35.834 -20.333 -54.501 -27v-1c32.667 -6.66699 58 -21.667 76 -45
s27 -50 27 -80c0 -31.333 -6.33301 -61.166 -19 -89.499s-31.5 -53.166 -56.5 -74.499s-55.833 -38.166 -92.5 -50.499s-78.667 -18.5 -126 -18.5c-22 0 -41.167 0.166992 -57.5 0.5s-52.5 1.16602 -108.5 2.49902l128 675c56 1.33301 93 2.16602 111 2.49902
s44.833 0.5 80.5 0.5s67.334 -4.16699 95.001 -12.5s49.667 -22.666 66 -42.999s24.5 -44.833 24.5 -73.5z" />
    <glyph glyph-name="C" unicode="C" horiz-adv-x="564" 
d="M563 573c-21.333 10.667 -43.334 18.833 -66.001 24.5s-45.667 8.5 -69 8.5c-50 0 -92.667 -11 -128 -33s-64.166 -50.667 -86.499 -86s-38.833 -74.833 -49.5 -118.5s-16 -87.5 -16 -131.5c0 -24.667 2.83301 -47.334 8.5 -68.001s15.167 -38.334 28.5 -53.001
s31 -26.167 53 -34.5s49.667 -12.5 83 -12.5c28.667 0 56.667 3.16699 84 9.5s52.666 15.166 75.999 26.499l10 -74c-27.333 -13.333 -58.666 -23.166 -93.999 -29.499s-69 -9.5 -101 -9.5c-48 0 -87.5 6.33301 -118.5 19s-55.667 29.834 -74 51.501
s-31.166 46.334 -38.499 74.001s-11 56.5 -11 86.5c0 59.333 8.16699 116.5 24.5 171.5s40.833 103.833 73.5 146.5s73.167 76.667 121.5 102s104.166 38 167.499 38c25.333 0 52 -3 80 -9s53.667 -14 77 -24z" />
    <glyph glyph-name="D" unicode="D" horiz-adv-x="666" 
d="M559 424c0 26 -3.33691 50.335 -10.0039 73.002s-18.167 42.167 -34.5 58.5s-38.166 29.166 -65.499 38.499s-59.666 14 -96.999 14s-75 -1 -113 -3l-100 -530c13.333 -2 27.833 -3.5 43.5 -4.5s28.834 -1.5 39.501 -1.5c60.667 0 112.334 10.667 155.001 32
s77.5 49 104.5 83s46.667 72.167 59 114.5s18.5 84.166 18.5 125.499zM648.996 433.002c0 -55.333 -8.83203 -109.332 -26.499 -161.999s-44.5 -99.334 -80.5 -140.001s-81.5 -73.334 -136.5 -98.001s-120.167 -37 -195.5 -37c-6 0 -21.667 0.166992 -47 0.5
s-46.833 1 -64.5 2s-36.834 1.5 -57.501 1.5l128 674c56 2.66699 118.333 4 187 4s124.167 -9.66699 166.5 -29s74 -47.166 95 -83.499s31.5 -80.5 31.5 -132.5z" />
    <glyph glyph-name="E" unicode="E" horiz-adv-x="492" 
d="M492 604h-253l-42 -221h242l-14 -70h-241l-45 -241h253l-14 -72h-253h-84l128 675h84h253z" />
    <glyph glyph-name="F" unicode="F" horiz-adv-x="459" 
d="M489 604h-250l-42 -225h237l-13 -70h-238l-58 -309h-84l128 675h84h250z" />
    <glyph glyph-name="G" unicode="G" horiz-adv-x="667" 
d="M631 572c-25.333 12.667 -52.5 22.168 -81.5 28.501s-57.167 9.5 -84.5 9.5c-47.333 0 -90.666 -9.33301 -129.999 -28s-73.166 -44 -101.499 -76s-50.5 -69.333 -66.5 -112s-24 -88.334 -24 -137.001c0 -23.333 3.5 -46.5 10.5 -69.5s18.333 -43.5 34 -61.5
s36.167 -32.5 61.5 -43.5s56 -16.5 92 -16.5c26 0 49.833 2 71.5 6s42.5 9 62.5 15l48 256h85l-60 -314c-36 -13.333 -73.333 -23 -112 -29s-75 -9 -109 -9c-46.667 0 -87.334 6.33301 -122.001 19s-63.334 30.5 -86.001 53.5s-39.5 50.333 -50.5 82
s-16.5 66.167 -16.5 103.5c0 64 11 122.5 33 175.5s52 98.833 90 137.5s82.833 68.667 134.5 90s107.167 32 166.5 32c33.333 0 65.333 -2.5 96 -7.5s59.667 -12.833 87 -23.5z" />
    <glyph glyph-name="H" unicode="H" horiz-adv-x="686" 
d="M555 0h-84l59 314h-346l-59 -314h-84l128 675h84l-55 -288h346l55 288h84z" />
    <glyph glyph-name="I" unicode="I" horiz-adv-x="256" 
d="M125 0h-84l128 675h84z" />
    <glyph glyph-name="J" unicode="J" horiz-adv-x="320" 
d="M223 170c-10.667 -55.333 -30.834 -98.667 -60.501 -130s-74.5 -47 -134.5 -47c-27.333 0 -51.666 2.66699 -72.999 8l15 76c8 -3.33301 17.5 -6 28.5 -8s22.167 -3 33.5 -3c30 0 53.667 8.66699 71 26s29.333 42 36 74l96 509h85z" />
    <glyph glyph-name="K" unicode="K" horiz-adv-x="548" 
d="M278 341l201 -341h-107l-184 336l-64 -336h-84l128 675h84l-61 -320l302 320h111z" />
    <glyph glyph-name="L" unicode="L" horiz-adv-x="417" 
d="M365 0h-240h-84l128 675h84l-114 -601h240z" />
    <glyph glyph-name="M" unicode="M" horiz-adv-x="870" 
d="M775 0l-89.001 -0.000976562l20 394c2 40 4 73.833 6 101.5s4 51.167 6 70.5h-2c-6 -15.333 -13.667 -33 -23 -53s-20 -41.667 -32 -65l-231 -448h-5h-79h-8l-58 418c-3.33301 25.333 -6.33301 51 -9 77s-4 49.667 -4 71h-1l-23 -82.5l-28 -92.5l-121 -391h-90l224 675
h16h74h14l60 -436c3.33301 -26 6 -50.667 8 -74s3 -43 3 -59h2l27 61c8.66699 18.667 19.334 40.334 32.001 65.001l231 443h21h62h27z" />
    <glyph glyph-name="N" unicode="N" horiz-adv-x="679" 
d="M549 0h-84.001h-15l-172 424l-29 73c-9.33301 24 -17.666 47 -24.999 69l-20 -128c-7.33301 -45.333 -15 -89 -23 -131l-57 -307h-84l128 675h84h17l169 -416l29.5 -74c9.66699 -24.667 18.5 -49 26.5 -73l20 120.5l22 126.5l58 316h84z" />
    <glyph glyph-name="O" unicode="O" horiz-adv-x="691" 
d="M586 430c0 55.333 -13.334 99 -40.001 131s-68 48 -124 48c-40.667 0 -78.167 -9.66699 -112.5 -29s-63.833 -45.5 -88.5 -78.5s-44 -71.333 -58 -115s-21 -89.834 -21 -138.501c0 -56 13.667 -100.167 41 -132.5s67.333 -48.5 120 -48.5
c38.667 0 75.334 9.33301 110.001 28s64.667 44.334 90 77.001s45.5 71 60.5 115s22.5 91.667 22.5 143zM677.999 439c0 -64 -10.168 -123.5 -30.501 -178.5s-48 -102.5 -83 -142.5s-76 -71.333 -123 -94s-97.167 -34 -150.5 -34c-81.333 0 -141.666 21.667 -180.999 65
s-59 103.666 -59 180.999c0 60.667 9.83301 118.334 29.5 173.001s46.667 102.334 81 143.001s75 73 122 97s97.833 36 152.5 36c78.667 0 138.667 -21.333 180 -64s62 -103.334 62 -182.001z" />
    <glyph glyph-name="P" unicode="P" horiz-adv-x="511" 
d="M439 505c0 32 -9.33301 57.166 -28 75.499s-51.667 27.5 -99 27.5c-16 0 -29.5 -0.166992 -40.5 -0.5s-21.833 -0.833008 -32.5 -1.5l-51 -270c8 -1.33301 16.5 -2.5 25.5 -3.5s19.167 -1.5 30.5 -1.5c26 0 50.667 4.33301 74 13s44 20.834 62 36.501s32.333 34 43 55
s16 44.167 16 69.5zM528 516.999c0 -38 -8.16699 -72.8311 -24.5 -104.498s-38.333 -58.834 -66 -81.501s-59.5 -40.334 -95.5 -53.001s-73.333 -19 -112 -19c-8.66699 0 -18 0.166992 -28 0.5s-19.333 1.16602 -28 2.49902l-50 -262h-84l128 675
c56 2.66699 108.5 4 157.5 4s87.833 -7 116.5 -21s50.167 -33.167 64.5 -57.5s21.5 -52.166 21.5 -83.499z" />
    <glyph glyph-name="Q" unicode="Q" horiz-adv-x="691" 
d="M609 -179c-42.667 -6 -79.1631 -6.83301 -109.496 -2.5s-58.5 10 -84.5 17s-52.333 13 -79 18s-57.334 5.16699 -92.001 0.5l13 73c26.667 3.33301 50.667 4.33301 72 3s41.166 -3.66602 59.499 -6.99902s36.166 -7.33301 53.499 -12s35.166 -8.83398 53.499 -12.501
s37.833 -6 58.5 -7s44 0.166992 70 3.5zM586.004 430c0 55.333 -13.334 99 -40.001 131s-68 48 -124 48c-40.667 0 -78.167 -9.66699 -112.5 -29s-63.833 -45.5 -88.5 -78.5s-44 -71.333 -58 -115s-21 -89.834 -21 -138.501c0 -56 13.667 -100.167 41 -132.5
s67.333 -48.5 120 -48.5c38.667 0 75.334 9.33301 110.001 28s64.667 44.334 90 77.001s45.5 71 60.5 115s22.5 91.667 22.5 143zM678.003 439c0 -64 -10.1689 -123.497 -30.502 -178.497s-48 -102.5 -83 -142.5s-76 -71.333 -123 -94s-97.167 -34 -150.5 -34
c-81.333 0 -141.666 21.667 -180.999 65s-59 103.666 -59 180.999c0 61.333 9.66699 119.166 29 173.499s46.333 102 81 143s75.334 73.333 122.001 97s97.667 35.5 153 35.5c78.667 0 138.667 -21.333 180 -64s62 -103.334 62 -182.001z" />
    <glyph glyph-name="R" unicode="R" horiz-adv-x="540" 
d="M435 519c0 30.667 -9.49707 53.333 -28.4971 68s-50.167 22 -93.5 22c-15.333 0 -29 -0.333008 -41 -1s-22.667 -1.33398 -32 -2.00098l-45 -234c5.33301 -0.666992 12.666 -1.16699 21.999 -1.5s20.666 -0.5 33.999 -0.5c26 0 50.167 3.16699 72.5 9.5
s41.666 15.833 57.999 28.5s29.333 28.334 39 47.001s14.5 40 14.5 64zM524.003 531.999c0 -32 -6.33496 -60.6699 -19.002 -86.0029s-29.5 -47.166 -50.5 -65.499s-44.667 -33.166 -71 -44.499s-53.166 -18.666 -80.499 -21.999c7.33301 -12.667 14.333 -25.5 21 -38.5
l18 -36.5l119 -239h-102l-141 304h-36l-57 -304h-84l128 675c56 2.66699 108.333 4 157 4c68.667 0 118.834 -13 150.501 -39s47.5 -62 47.5 -108z" />
    <glyph glyph-name="S" unicode="S" horiz-adv-x="453" 
d="M426 598c-30 10 -60.333 15 -91 15c-25.333 0 -47.333 -3.33301 -66 -10s-34.167 -15.5 -46.5 -26.5s-21.5 -23.167 -27.5 -36.5s-9 -27 -9 -41c0 -20.667 5.16699 -38.5 15.5 -53.5s23.166 -28.833 38.499 -41.5s32 -24.834 50 -36.501s34.667 -24.667 50 -39
s28.166 -31 38.499 -50s15.5 -41.833 15.5 -68.5c0 -31.333 -6.5 -60.333 -19.5 -87s-31.167 -49.834 -54.5 -69.501s-51.166 -35 -83.499 -46s-68.166 -16.5 -107.499 -16.5c-19.333 0 -40.5 1.5 -63.5 4.5s-43.5 7.83301 -61.5 14.5l25 82c17.333 -8 35 -14.167 53 -18.5
s37.667 -6.5 59 -6.5c51.333 0 91.333 12 120 36s43 55.333 43 94c0 20 -5.16699 37 -15.5 51s-23.166 27 -38.499 39s-31.833 23.667 -49.5 35s-34.167 24.166 -49.5 38.499s-28.166 30.833 -38.499 49.5s-15.5 41.667 -15.5 69c0 28.667 5.16699 55.334 15.5 80.001
s25.833 46.334 46.5 65.001s46.167 33.334 76.5 44.001s65.166 16 104.499 16c16.667 0 34.667 -0.833008 54 -2.5s37.666 -4.5 54.999 -8.5z" />
    <glyph glyph-name="T" unicode="T" horiz-adv-x="507" 
d="M558 603h-193l-116 -603h-83l115 603h-194l13 72h471z" />
    <glyph glyph-name="U" unicode="U" horiz-adv-x="679" 
d="M676 675l-82.9971 -0.000976562l-80 -418c-7.33301 -36 -17 -66.5 -29 -91.5s-26.667 -45.167 -44 -60.5s-37.5 -26.333 -60.5 -33s-49.167 -10 -78.5 -10c-50 0 -86 9.33301 -108 28s-33 46.667 -33 84c0 18 2 37.667 6 59l85 442h-84l-84 -439
c-5.33301 -28 -8 -53 -8 -75c0 -24.667 3.66699 -47.5 11 -68.5s19.166 -39.167 35.499 -54.5s38.166 -27.166 65.499 -35.499s61 -12.5 101 -12.5c85.333 0 153.666 20.667 204.999 62s85.333 106.333 102 195z" />
    <glyph glyph-name="V" unicode="V" horiz-adv-x="604" 
d="M301 0h-95l-111 675h90l68 -440c3.33301 -19.333 6.5 -41.333 9.5 -66s5.5 -49.667 7.5 -75h1c10.667 24 22 48 34 72s25.333 49.333 40 76l237 433h92z" />
    <glyph glyph-name="W" unicode="W" horiz-adv-x="935" 
d="M680 0h-105.999l-41 466c-3.33301 38.667 -4.33301 76.334 -3 113.001h-1c-13.333 -38 -28.666 -75.667 -45.999 -113l-215 -466h-103l-47 675h87l29 -451c1.33301 -22.667 2.16602 -44.334 2.49902 -65.001s-0.166992 -41.667 -1.5 -63h1l24.5 63.5
c8.33301 21 17.166 41.5 26.499 61.5l212 454h98l44 -459c2 -19.333 3.33301 -39 4 -59s0.666992 -40 0 -60h1l19.5 54c6.33301 16.667 13.833 34.667 22.5 54l207 470h89z" />
    <glyph glyph-name="X" unicode="X" horiz-adv-x="582" 
d="M358 350v2l268 323h-100l-207 -255h-1l-109 255h-95l145 -326v-1l-289 -348h103l223 277h2l117 -277h102z" />
    <glyph glyph-name="Y" unicode="Y" horiz-adv-x="522" 
d="M301 244l-45.999 -244h-84l46 244l-124 431h88l64 -233c5.33301 -20 10.333 -39.833 15 -59.5s9 -39.167 13 -58.5h1c11.333 20.667 24.166 42 38.499 64l43.5 67l143 220h95z" />
    <glyph glyph-name="Z" unicode="Z" horiz-adv-x="518" 
d="M540 610l-374 -471.999l-24 -30.5l-26 -30.5c10.667 1.33301 30.334 2 59.001 2h109h159l-15 -79h-429l12 63l355 453c12 15.333 23.833 29.666 35.5 42.999l36.5 41c-16 -0.666992 -35.333 -1.16699 -58 -1.5s-51.334 -0.5 -86.001 -0.5h-171l15 77h415z" />
    <glyph glyph-name="bracketleft" unicode="[" horiz-adv-x="314" 
d="M365 706h-108h-4l-160 -838h3h111l-13 -66h-114h-77l185 968h78h112z" />
    <glyph glyph-name="backslash" unicode="\" horiz-adv-x="400" 
d="M242 0l-125 675h74l127 -675h-76z" />
    <glyph glyph-name="bracketright" unicode="]" horiz-adv-x="314" 
d="M145 -198h-78h-113l13 66h108h5l159 838h-5h-107l12 64h112h79z" />
    <glyph glyph-name="asciicircum" unicode="^" 
d="M429 344l-91 269l-192 -269l-51 29l221 302h64l111 -301z" />
    <glyph glyph-name="underscore" unicode="_" 
d="M-91 -248l13 67h550l-13 -67h-550z" />
    <glyph glyph-name="grave" unicode="`" horiz-adv-x="361" 
d="M285 576l-138 99l47 60l129 -111z" />
    <glyph glyph-name="a" unicode="a" horiz-adv-x="537" 
d="M406 429c-10.667 2.66699 -21.832 4.83203 -33.499 6.49902s-24.834 2.5 -39.501 2.5c-38 0 -70.5 -8.83301 -97.5 -26.5s-49 -40.167 -66 -67.5s-29.333 -57.666 -37 -90.999s-11.5 -65.666 -11.5 -96.999c0 -34 4.83301 -58.167 14.5 -72.5s22.5 -21.5 38.5 -21.5
s32.333 5.16699 49 15.5s32.667 24.333 48 42s30 37.667 44 60s26.667 45.666 38 69.999s21 48.5 29 72.5s13.667 46 17 66l7 41v0zM500.002 489.998l-34.002 -180.001l-24.5 -127.5l-18 -96.5l-15.5 -86h-84c4.66699 22 11.834 50.167 21.501 84.5s22.167 75.5 37.5 123.5
l-2 1c-8.66699 -19.333 -20 -41.666 -34 -66.999s-30.667 -49.166 -50 -71.499s-41.666 -41.333 -66.999 -57s-53.333 -23.5 -84 -23.5c-36 0 -63.333 12 -82 36s-28 62.333 -28 115c0 45.333 6 89.833 18 133.5s30.667 82.5 56 116.5s57.666 61.5 96.999 82.5
s86 31.5 140 31.5c22.667 0 39.834 -0.5 51.501 -1.5s25.5 -2.33301 41.5 -4s36 -4.83398 60 -9.50098z" />
    <glyph glyph-name="b" unicode="b" horiz-adv-x="537" 
d="M420 341c0 34 -4.66699 58.166 -14 72.499s-22 21.5 -38 21.5s-32.167 -5.16699 -48.5 -15.5s-32.166 -24.166 -47.499 -41.499s-30 -37.166 -44 -59.499s-26.667 -45.5 -38 -69.5s-21 -47.833 -29 -71.5s-13.667 -45.5 -17 -65.5l-8 -44
c11.333 -3.33301 22.666 -5.66602 33.999 -6.99902s24.333 -2 39 -2c38 0 70.333 8.83301 97 26.5s48.5 40.167 65.5 67.5s29.333 57.666 37 90.999s11.5 65.666 11.5 96.999zM506 355.999c0 -45.333 -5.99902 -89.8311 -17.999 -133.498s-30.667 -82.5 -56 -116.5
s-57.666 -61.5 -96.999 -82.5s-86.333 -31.5 -141 -31.5c-17.333 0 -33.333 0.5 -48 1.5s-28.834 2.33301 -42.501 4s-34.167 5.5 -61.5 11.5l137 721h83l-47 -246l-6.5 -28.5c-2.33301 -10.333 -5.5 -22.833 -9.5 -37.5s-9.16699 -32.334 -15.5 -53.001l-23.5 -74l2 -1
c12.667 30 27.167 58.333 43.5 85s34.166 49.667 53.499 69s40.5 34.666 63.5 45.999s47.5 17 73.5 17c36 0 63.333 -12 82 -36s28 -62.333 28 -115z" />
    <glyph glyph-name="c" unicode="c" horiz-adv-x="432" 
d="M416 407c-29.333 19.333 -64.332 29 -104.999 29c-30 0 -56.5 -8 -79.5 -24s-42.333 -36.833 -58 -62.5s-27.667 -54 -36 -85s-12.5 -61.5 -12.5 -91.5c0 -34 7.83301 -60.333 23.5 -79s42.5 -28 80.5 -28c26 0 50.5 3 73.5 9s43.167 13.667 60.5 23l6 -71
c-23.333 -11.333 -48.5 -19.833 -75.5 -25.5s-54.167 -8.5 -81.5 -8.5c-62 0 -106.833 14.5 -134.5 43.5s-41.5 68.833 -41.5 119.5c0 42 5.66699 83.833 17 125.5s28.666 79 51.999 112s53 59.833 89 80.5s78.667 31 128 31c21.333 0 42.5 -2 63.5 -6
s41.833 -11.667 62.5 -23z" />
    <glyph glyph-name="d" unicode="d" horiz-adv-x="537" 
d="M406 429c-10.667 2.66699 -21.832 4.83203 -33.499 6.49902s-24.834 2.5 -39.501 2.5c-38 0 -70.5 -8.83301 -97.5 -26.5s-49 -40.167 -66 -67.5s-29.333 -57.666 -37 -90.999s-11.5 -65.666 -11.5 -96.999c0 -34 4.83301 -58.167 14.5 -72.5s22.5 -21.5 38.5 -21.5
s32.333 5.16699 49 15.5s32.667 24.333 48 42s30 37.667 44 60s26.667 45.666 38 69.999s21 48.5 29 72.5s13.667 46 17 66l7 41v0zM444.002 195.998c-7.33301 -36 -14.167 -71.834 -20.5 -107.501l-15.5 -88.5h-83c8 43.333 27.333 112.666 58 207.999l-2 1
c-8.66699 -19.333 -20 -41.666 -34 -66.999s-30.667 -49.166 -50 -71.499s-41.666 -41.333 -66.999 -57s-53.333 -23.5 -84 -23.5c-36 0 -63.333 12 -82 36s-28 62.333 -28 115c0 45.333 6 89.833 18 133.5s30.667 82.5 56 116.5s57.666 61.5 96.999 82.5s86 31.5 140 31.5
c13.333 0 25.5 -0.5 36.5 -1.5s22.833 -2.5 35.5 -4.5l43 231h84z" />
    <glyph glyph-name="e" unicode="e" horiz-adv-x="476" 
d="M369 384c0 18.667 -6.33203 33 -18.999 43s-29.334 15 -50.001 15c-20 0 -38.5 -4.16699 -55.5 -12.5s-32.167 -19.5 -45.5 -33.5s-24.833 -30.5 -34.5 -49.5s-17.5 -39.5 -23.5 -61.5c80 3.33301 138 13 174 29s54 39.333 54 70zM454.001 394
c0 -52.667 -26.834 -93.666 -80.501 -122.999s-134.834 -46 -243.501 -50c-1.33301 -7.33301 -2.5 -16.833 -3.5 -28.5s-1.5 -22.167 -1.5 -31.5c0 -40 7.66699 -66.833 23 -80.5s42 -20.5 80 -20.5c24.667 0 49.834 2.66699 75.501 8s48.834 12.666 69.501 21.999l7 -67
c-23.333 -9.33301 -50.166 -17 -80.499 -23s-61.833 -9 -94.5 -9c-56.667 0 -98.5 12.5 -125.5 37.5s-40.5 65.833 -40.5 122.5c0 48 6.33301 93.333 19 136s30.667 80.334 54 113.001s51.666 58.5 84.999 77.5s71 28.5 113 28.5c26 0 48 -3 66 -9
s32.833 -14.167 44.5 -24.5s20.167 -22.333 25.5 -36s8 -27.834 8 -42.501z" />
    <glyph glyph-name="f" unicode="f" horiz-adv-x="338" 
d="M447 657c-11.333 3.33301 -23.166 5.83203 -35.499 7.49902s-24.166 2.5 -35.499 2.5c-37.333 0 -66.5 -10.667 -87.5 -32s-35.833 -56 -44.5 -104l-6 -34h138l-14 -66h-137l-87 -457c-15.333 -81.333 -41.833 -139.833 -79.5 -175.5s-86.834 -53.5 -147.501 -53.5
c-30.667 0 -59.334 3 -86.001 9l21 72c12 -3.33301 24.167 -5.83301 36.5 -7.5s23.833 -2.5 34.5 -2.5c18 0 34.333 2.5 49 7.5s27.5 13.5 38.5 25.5s20.5 28 28.5 48s15 45 21 75l88 459h-103l14 66h101l7 35c13.333 68.667 38 119.834 74 153.501s86 50.5 150 50.5
c27.333 0 55 -3 83 -9z" />
    <glyph glyph-name="g" unicode="g" horiz-adv-x="536" 
d="M406 429c-10.667 2.66699 -21.832 4.83203 -33.499 6.49902s-24.834 2.5 -39.501 2.5c-38 0 -70.5 -8.83301 -97.5 -26.5s-49 -40.167 -66 -67.5s-29.333 -57.666 -37 -90.999s-11.5 -65.666 -11.5 -96.999c0 -34 4.83301 -58.167 14.5 -72.5s22.5 -21.5 38.5 -21.5
s32.333 5.16699 49 15.5s32.667 24.333 48 42s30 37.667 44 60s26.667 45.666 38 69.999s21 48.5 29 72.5s13.667 46 17 66l7 41v0zM397.002 -48.002c-5.33301 -29.333 -14.5 -56.665 -27.5 -81.998s-30.667 -47.333 -53 -66s-50.333 -33.334 -84 -44.001
s-74.167 -16 -121.5 -16c-28 0 -52.5 1.66699 -73.5 5s-40.5 8 -58.5 14l19 83c19.333 -9.33301 40.5 -16.333 63.5 -21s46.167 -7 69.5 -7c52 0 93.667 11.667 125 35s52.666 64 63.999 122l11 53.5c3.33301 15.667 7.33301 32 12 49s10 35.333 16 55l22 71.5h-2
c-8 -18 -18.833 -39.333 -32.5 -64s-30.167 -48 -49.5 -70s-41.666 -40.833 -66.999 -56.5s-53.333 -23.5 -84 -23.5c-36 0 -63.333 12 -82 36s-28 62.333 -28 115c0 45.333 6 89.833 18 133.5s30.833 82.5 56.5 116.5s58 61.5 97 82.5s85.5 31.5 139.5 31.5
c20 0 36.833 -0.5 50.5 -1.5s28.167 -2.33301 43.5 -4s35 -4.83398 59 -9.50098z" />
    <glyph glyph-name="h" unicode="h" horiz-adv-x="564" 
d="M433 0l-83.001 -0.00195312l61 319c7.33301 40 7.5 69.333 0.5 88s-22.167 28 -45.5 28c-16 0 -32 -5.16699 -48 -15.5s-31.5 -24 -46.5 -41s-29.5 -36.833 -43.5 -59.5s-26.5 -46 -37.5 -70s-20.667 -48 -29 -72s-14.5 -46.333 -18.5 -67l-21 -110h-82l139 730h82
l-45 -236l-6.5 -31.5c-2.33301 -11.667 -5.66602 -25.167 -9.99902 -40.5l-16 -54c-6.33301 -20.667 -14.166 -45 -23.499 -73h2c12 26.667 25.833 52.834 41.5 78.501s33.167 48.334 52.5 68.001s40.666 35.5 63.999 47.5s48 18 74 18c46 0 77.333 -15.167 94 -45.5
s20 -71.833 10 -124.5z" />
    <glyph glyph-name="i" unicode="i" horiz-adv-x="253" 
d="M122 0h-82l95 497h82zM261 660c0 -18 -6.16699 -32.8311 -18.5 -44.498s-26.166 -17.5 -41.499 -17.5s-27.833 5.16699 -37.5 15.5s-14.5 22.166 -14.5 35.499c0 17.333 6.16699 31.666 18.5 42.999s26.166 17 41.499 17s27.833 -4.83301 37.5 -14.5
s14.5 -21.167 14.5 -34.5z" />
    <glyph glyph-name="j" unicode="j" horiz-adv-x="257" 
d="M114 -65c-12 -62.667 -33 -110 -63 -142s-76 -48 -138 -48c-24 0 -45 2.66699 -63 8l17 74c9.33301 -3.33301 19 -6 29 -8s19 -3 27 -3c17.333 0 31.833 2.33301 43.5 7s21.667 12.5 30 23.5s15.333 25.167 21 42.5s11.167 39 16.5 65l105 543h83zM263 660
c0 -18 -6.16699 -32.8311 -18.5 -44.498s-26.166 -17.5 -41.499 -17.5s-27.833 5.16699 -37.5 15.5s-14.5 22.166 -14.5 35.499c0 17.333 6.16699 31.666 18.5 42.999s26.166 17 41.499 17s27.833 -4.83301 37.5 -14.5s14.5 -21.167 14.5 -34.5z" />
    <glyph glyph-name="k" unicode="k" horiz-adv-x="471" 
d="M258 272l152 -272h-101l-136 265l-51 -265h-82l139 730h82l-85 -446l236 237l60 -49z" />
    <glyph glyph-name="l" unicode="l" horiz-adv-x="253" 
d="M122 0h-82l139 730h82z" />
    <glyph glyph-name="m" unicode="m" horiz-adv-x="862" 
d="M732 0l-83.998 -0.00195312l62 319c8 40.667 8.33301 70.334 1 89.001s-21.666 28 -42.999 28c-14.667 0 -29.834 -5 -45.501 -15s-31 -23.333 -46 -40s-29.333 -36 -43 -58s-26.334 -45.167 -38.001 -69.5s-21.667 -49 -30 -74s-14.5 -48.5 -18.5 -70.5l-20 -109h-83
l61 319c7.33301 40.667 7.66602 70.334 0.999023 89.001s-21.334 28 -44.001 28c-22 0 -44.5 -10.833 -67.5 -32.5s-44.667 -48.667 -65 -81s-38.166 -67.666 -53.499 -105.999s-26.333 -74.166 -33 -107.499l-21 -109h-82l50 261l22.5 117.5l21.5 118.5h82
c-3.33301 -16.667 -9 -40.834 -17 -72.501s-21 -74.834 -39 -129.501h2c11.333 26.667 24.833 52.667 40.5 78s33 48 52 68s39.833 36 62.5 48s47 18 73 18c32 0 56.667 -8.33301 74 -25s26 -40.667 26 -72c0 -16.667 -2 -33.5 -6 -50.5s-10.333 -38.833 -19 -65.5l2 -1
c11.333 27.333 24.833 53.833 40.5 79.5s33.167 48.5 52.5 68.5s40.333 36 63 48s47 18 73 18c44.667 0 75 -15.167 91 -45.5s19 -71.833 9 -124.5z" />
    <glyph glyph-name="n" unicode="n" horiz-adv-x="564" 
d="M433 0l-82.998 -0.00292969l61 319c7.33301 40 7.5 69.333 0.5 88s-22.167 28 -45.5 28c-16 0 -32 -5.16699 -48 -15.5s-31.5 -24 -46.5 -41s-29.5 -36.833 -43.5 -59.5s-26.5 -46 -37.5 -70s-20.667 -48 -29 -72s-14.5 -46.333 -18.5 -67l-21 -110h-82l51 264
c7.33301 35.333 14.666 73.5 21.999 114.5l21 118.5h82c-3.33301 -16.667 -9 -40.667 -17 -72s-21 -74.666 -39 -129.999h2c12 26.667 25.833 52.834 41.5 78.501s33.167 48.334 52.5 68.001s40.666 35.5 63.999 47.5s48 18 74 18c46 0 77.333 -15.167 94 -45.5
s20 -71.833 10 -124.5z" />
    <glyph glyph-name="o" unicode="o" horiz-adv-x="538" 
d="M421 318c0 38 -8.83398 67.001 -26.501 87.001s-45.167 30 -82.5 30c-28 -2.66699 -53.5 -10.5 -76.5 -23.5s-42.667 -31.167 -59 -54.5s-29 -50.333 -38 -81s-13.5 -62 -13.5 -94c0 -38.667 8.5 -68.167 25.5 -88.5s44.833 -30.5 83.5 -30.5
c24.667 0 48.334 6.16699 71.001 18.5s42.5 29.833 59.5 52.5s30.667 49.667 41 81s15.5 65.666 15.5 102.999zM507.999 327.001c0 -51.333 -8.16992 -97.666 -24.5029 -138.999s-38 -76.666 -65 -105.999s-57.833 -51.833 -92.5 -67.5s-70.667 -23.5 -108 -23.5
c-62 0 -107.5 15.167 -136.5 45.5s-43.5 74.166 -43.5 131.499c0 49.333 7.33301 94.666 22 135.999s34.834 77 60.501 107s55.834 53.333 90.501 70s72.334 25 113.001 25c32 0 59.667 -4.33301 83 -13s42.5 -21 57.5 -37s26 -35 33 -57s10.5 -46 10.5 -72z" />
    <glyph glyph-name="p" unicode="p" horiz-adv-x="537" 
d="M420 341c0 34 -4.66895 58.167 -14.002 72.5s-22 21.5 -38 21.5s-32.167 -5.16699 -48.5 -15.5s-32.166 -24.166 -47.499 -41.499s-29.833 -37.166 -43.5 -59.499s-26.167 -45.5 -37.5 -69.5s-21 -47.833 -29 -71.5s-14 -45.5 -18 -65.5l-8 -40
c11.333 -3.33301 23.833 -6.16602 37.5 -8.49902s25.834 -3.5 36.501 -3.5c37.333 0 69.333 8.66699 96 26s48.5 39.666 65.5 66.999s29.333 57.666 37 90.999s11.5 65.666 11.5 96.999zM505.998 356c0 -45.333 -6.00195 -89.8311 -18.002 -133.498
s-30.667 -82.5 -56 -116.5s-57.666 -61.333 -96.999 -82s-86.333 -31 -141 -31c-13.333 0 -25.666 0.5 -36.999 1.5s-23 2.5 -35 4.5l-47 -247h-82l141 745h83c-2 -11.333 -4.5 -23 -7.5 -35l-11 -42c-4.33301 -16 -9.66602 -34.333 -15.999 -55l-22.5 -73l2 -1
c12.667 30 27.167 58.167 43.5 84.5s34.166 49.166 53.499 68.499s40.5 34.666 63.5 45.999s47.5 17 73.5 17c36 0 63.333 -12 82 -36s28 -62.333 28 -115z" />
    <glyph glyph-name="q" unicode="q" horiz-adv-x="537" 
d="M406 429c-10.667 2.66699 -21.832 4.83203 -33.499 6.49902s-24.834 2.5 -39.501 2.5c-38 0 -70.5 -8.83301 -97.5 -26.5s-49 -40.167 -66 -67.5s-29.333 -57.666 -37 -90.999s-11.5 -65.666 -11.5 -96.999c0 -34 4.83301 -58.167 14.5 -72.5s22.5 -21.5 38.5 -21.5
s32.333 5.16699 49 15.5s32.667 24.333 48 42s30 37.667 44 60s26.667 45.666 38 69.999s21 48.5 29 72.5s13.667 46 17 66l7 41v0zM360.002 -248.002l-83 -0.000976562l45 233c2.66699 16 5.66699 31.333 9 46s7.33301 30.5 12 47.5s10.167 36 16.5 57
s14.166 45.167 23.499 72.5l-2 1c-8.66699 -19.333 -20 -41.666 -34 -66.999s-30.667 -49.166 -50 -71.499s-41.666 -41.333 -66.999 -57s-53.333 -23.5 -84 -23.5c-36 0 -63.333 12 -82 36s-28 62.333 -28 115c0 45.333 6 89.833 18 133.5s30.667 82.5 56 116.5
s57.666 61.5 96.999 82.5s86 31.5 140 31.5c22 0 39.333 -0.5 52 -1.5s26.834 -2.33301 42.501 -4s35.167 -4.83398 58.5 -9.50098z" />
    <glyph glyph-name="r" unicode="r" horiz-adv-x="350" 
d="M367 423c-17.333 4.66699 -34.165 3.33398 -50.498 -3.99902s-32 -18.666 -47 -33.999s-29.167 -34 -42.5 -56s-25.5 -45.333 -36.5 -70s-20.5 -49.667 -28.5 -75s-14 -49 -18 -71l-22 -113h-82l94 497h81c-4 -22 -9.83301 -47.5 -17.5 -76.5
s-19.167 -66.167 -34.5 -111.5l2 -1c14 30.667 28.667 59.167 44 85.5s31.666 48.666 48.999 66.999s36.666 31.666 57.999 39.999s45 9.83301 71 4.5z" />
    <glyph glyph-name="s" unicode="s" horiz-adv-x="382" 
d="M336 428c-11.333 3.33301 -23.5 6.33496 -36.5 9.00195s-25.833 4 -38.5 4c-34 0 -59.5 -7.16699 -76.5 -21.5s-25.5 -32.166 -25.5 -53.499c0 -13.333 3.83301 -25.333 11.5 -36s17.167 -20.834 28.5 -30.501s23.666 -19.334 36.999 -29.001
s25.666 -20.167 36.999 -31.5s20.833 -24 28.5 -38s11.5 -30.333 11.5 -49c0 -20.667 -4.5 -40.667 -13.5 -60s-22.5 -36.5 -40.5 -51.5s-40.167 -27 -66.5 -36s-56.833 -13.5 -91.5 -13.5c-16.667 0 -33.667 1 -51 3s-33 5 -47 9l23 76
c14.667 -5.33301 29.334 -9.66602 44.001 -12.999s29 -5 43 -5c34 0 61.5 6.66699 82.5 20s31.5 33.666 31.5 60.999c0 13.333 -3.83301 25.166 -11.5 35.499s-17.167 20 -28.5 29s-23.666 18.167 -36.999 27.5s-25.666 19.666 -36.999 30.999s-20.833 24.333 -28.5 39
s-11.5 32 -11.5 52c0 20.667 4.16699 40.167 12.5 58.5s20.833 34.333 37.5 48s37 24.334 61 32.001s52 11.5 84 11.5c31.333 0 60.666 -3 87.999 -9z" />
    <glyph glyph-name="t" unicode="t" horiz-adv-x="364" 
d="M362 431l-138 -0.000976562l-50 -265c-4 -20.667 -6 -37.667 -6 -51c0 -12.667 2.33301 -24.167 7 -34.5s19.667 -15.5 45 -15.5c14.667 0 27.5 0.666992 38.5 2s21.5 3.33301 31.5 6l-5 -71c-14.667 -3.33301 -30 -5.83301 -46 -7.5s-31.333 -2.5 -46 -2.5
c-50.667 0 -82.167 9.83301 -94.5 29.5s-18.5 41.834 -18.5 66.501c0 18.667 2.33301 40 7 64l54 279h-103l13 66h103l31 162l87 20l-35 -182h138z" />
    <glyph glyph-name="u" unicode="u" horiz-adv-x="564" 
d="M434 0h-82.998c3.33301 16.667 9 40.667 17 72s21 74.666 39 129.999h-2c-12 -27.333 -25.833 -53.666 -41.5 -78.999s-33.334 -47.833 -53.001 -67.5s-41 -35.5 -64 -47.5s-47.5 -18 -73.5 -18c-46 0 -77.167 15.167 -93.5 45.5s-19.5 71.833 -9.5 124.5l64 337h83
l-61 -319c-7.33301 -40 -7.5 -69.333 -0.5 -88s22.167 -28 45.5 -28c16 0 32.167 5.16699 48.5 15.5s32.166 24 47.499 41s29.833 36.833 43.5 59.5s26.167 46 37.5 70s21 48 29 72s14 46.333 18 67l20 110h83z" />
    <glyph glyph-name="v" unicode="v" horiz-adv-x="469" 
d="M234 0h-86l-89 497h90l48 -303c5.33301 -31.333 9 -62.333 11 -93h1l215 417l77 -28z" />
    <glyph glyph-name="w" unicode="w" horiz-adv-x="773" 
d="M554 0l-95 0.00195312l-41 292c-2 15.333 -3.66699 31.166 -5 47.499s-2.33301 33.166 -3 50.499h-1l-192 -390h-93l-55 497h88l25 -276l5.5 -66.5c1.66699 -21 2.5 -39.167 2.5 -54.5h1l195 397h89l38 -275c2.66699 -19.333 5 -40.833 7 -64.5s3.33301 -43.167 4 -58.5
h1l198 418l78 -26z" />
    <glyph glyph-name="x" unicode="x" horiz-adv-x="511" 
d="M306 249l224 227l-62 45l-200 -209l-89 185h-96l125 -246l-228 -229l65 -47l201 212l94 -187h99z" />
    <glyph glyph-name="y" unicode="y" horiz-adv-x="483" 
d="M505 493c-65.333 -152.667 -129.5 -284.669 -192.5 -396.002s-125.833 -198.666 -188.5 -261.999c-29.333 -30 -59 -52.5 -89 -67.5s-59.667 -22.5 -89 -22.5c-12.667 0 -24.834 0.5 -36.501 1.5s-22.5 2.83301 -32.5 5.5l14 77c19.333 -6.66699 40.333 -10 63 -10
c18 0 36.833 5.16699 56.5 15.5s38.167 24.833 55.5 43.5c20 22 34.667 45.5 44 70.5s14 56.167 14 93.5c0 62 -5.66699 129.333 -17 202s-26.666 145.667 -45.999 219l-9 34h94c8.66699 -33.333 16.5 -67.666 23.5 -102.999s13 -70.166 18 -104.499
s8.83301 -67.5 11.5 -99.5s4 -61.333 4 -88c0 -9.33301 -0.833008 -19.833 -2.5 -31.5s-3.5 -22.834 -5.5 -33.501h1l58.5 107l56.5 112.5l56.5 123l58.5 137.5l79 -24v0z" />
    <glyph glyph-name="z" unicode="z" horiz-adv-x="429" 
d="M412 438l-291.999 -362c14 0.666992 33.5 1.16699 58.5 1.5s48.833 0.5 71.5 0.5h98l-15 -78h-332l11 59l295 365c-15.333 -0.666992 -33.333 -1.16699 -54 -1.5s-44.334 -0.5 -71.001 -0.5h-95l15 75h322z" />
    <glyph glyph-name="braceleft" unicode="{" horiz-adv-x="332" 
d="M391 706c-17.333 0 -32.1641 -2 -44.4971 -6s-23 -10.833 -32 -20.5s-16.333 -22.334 -22 -38.001s-10.834 -35.167 -15.501 -58.5l-23 -120c-9.33301 -47.333 -24 -82.666 -44 -105.999s-45.333 -37 -76 -41v-2c28 -4 47.667 -18 59 -42s12.666 -58 3.99902 -102
l-35 -179c-9.33301 -46.667 -9.16602 -78.834 0.500977 -96.501s31.5 -26.5 65.5 -26.5l-12 -66h-18c-27.333 0 -49.833 4.33301 -67.5 13s-30.834 21.334 -39.501 38.001s-13.334 36.667 -14.001 60s2 50 8 80l36 181c8 39.333 5.16699 66.833 -8.5 82.5
s-38.834 24.5 -75.501 26.5l14 68c20 0.666992 37 3 51 7s25.833 10 35.5 18s17.5 18.833 23.5 32.5s11 30.5 15 50.5l23 121c5.33301 28 12.666 53.5 21.999 76.5s21.333 43 36 60s32.334 30.167 53.001 39.5s45.334 14 74.001 14h19z" />
    <glyph glyph-name="bar" unicode="|" horiz-adv-x="279" 
d="M75 -250h-67l195 1000h67z" />
    <glyph glyph-name="braceright" unicode="}" horiz-adv-x="332" 
d="M317 283c-20 -1.33301 -37.001 -3.83398 -51.001 -7.50098s-25.833 -9.66699 -35.5 -18s-17.5 -19.333 -23.5 -33s-11 -30.5 -15 -50.5l-35 -180c-12.667 -65.333 -32.834 -113.5 -60.501 -144.5s-68.834 -46.5 -123.501 -46.5h-19l12 66c17.333 0 32.166 2 44.499 6
s23 10.667 32 20s16.333 21.833 22 37.5s10.834 35.167 15.501 58.5l34 179c9.33301 46.667 23.833 82 43.5 106s45.167 38 76.5 42v2c-28 4 -47.667 17.833 -59 41.5s-12.666 57.5 -3.99902 101.5l24 121c9.33301 46.667 9.16602 78.667 -0.500977 96s-31.5 26 -65.5 26
l12 65h15c28 0 50.833 -4.66699 68.5 -14s30.834 -22.333 39.501 -39s13.334 -36.667 14.001 -60s-1.66602 -49 -6.99902 -77l-24 -122c-8 -39.333 -5.5 -66.666 7.5 -81.999s38.167 -24 75.5 -26z" />
    <glyph glyph-name="asciitilde" unicode="~" 
d="M544 570c-5.33301 -44.667 -21.832 -80.832 -49.499 -108.499s-61.5 -41.5 -101.5 -41.5c-18.667 0 -34 2.83301 -46 8.5s-22.333 12.667 -31 21s-16 17.333 -22 27s-12.167 18.667 -18.5 27s-13.333 15.333 -21 21s-17.167 8.5 -28.5 8.5
c-20.667 0 -37.5 -8.83301 -50.5 -26.5s-21.5 -39.834 -25.5 -66.501h-64v3c5.33301 44.667 21.333 81 48 109s60 42 100 42c28 0 49.333 -5.83301 64 -17.5s27 -24.667 37 -39s19.667 -27.333 29 -39s22.666 -17.5 39.999 -17.5c20.667 0 37.667 8.66699 51 26
s22 39.333 26 66h64z" />
    <glyph glyph-name="nonbreakingspace" unicode="&#xa0;" horiz-adv-x="225" 
 />
    <glyph glyph-name="exclamdown" unicode="&#xa1;" horiz-adv-x="295" 
d="M106 -208h-93l115 541h69zM242 452c0 -16.667 -5.66699 -30.501 -17 -41.501s-25.333 -16.5 -42 -16.5c-16 0 -29.167 5.33301 -39.5 16s-15.5 23.334 -15.5 38.001c0 17.333 5.83301 31.5 17.5 42.5s25.5 16.5 41.5 16.5s29.167 -5.33301 39.5 -16
s15.5 -23.667 15.5 -39z" />
    <glyph glyph-name="cent" unicode="&#xa2;" 
d="M337 533c-22 -3.33301 -43.668 -11.168 -65.001 -23.501s-40.166 -29 -56.499 -50s-29.5 -46.333 -39.5 -76s-15 -63.167 -15 -100.5c0 -36 8.83301 -64.167 26.5 -84.5s43.167 -32.166 76.5 -35.499l73 370v0zM496.999 510.998c-15.333 7.33301 -31 13.001 -47 17.001
s-33.667 6.33301 -53 7l-72 -373c19.333 1.33301 38.5 4.5 57.5 9.5s37.5 11.167 55.5 18.5l5 -68c-18 -7.33301 -38.5 -13.833 -61.5 -19.5s-46.167 -9.16699 -69.5 -10.5l-19 -95h-61l19 95c-24.667 0.666992 -47.667 5 -69 13s-39.833 19.5 -55.5 34.5s-28 33.5 -37 55.5
s-13.5 48 -13.5 78c0 38.667 5.83301 76.667 17.5 114s29 71.166 52 101.499s51.5 55.666 85.5 75.999s73.667 32.833 119 37.5l14 75h61l-14 -74c21.333 -1.33301 42 -4.16602 62 -8.49902s36.333 -9.83301 49 -16.5z" />
    <glyph glyph-name="sterling" unicode="&#xa3;" 
d="M516 631c-28.667 6.66699 -56.3291 9.99902 -82.9961 9.99902c-34 0 -62.333 -9.5 -85 -28.5s-37.334 -45.5 -44.001 -79.5c-2.66699 -13.333 -4.66699 -32.333 -6 -57s-3.33301 -50.667 -6 -78h168l-14 -62h-160c-2.66699 -30.667 -6.33398 -58 -11.001 -82
s-11.834 -46.333 -21.501 -67s-22.834 -40.5 -39.501 -59.5s-38.667 -38.5 -66 -58.5c20 2 43.333 3 70 3h218l-14 -72h-395l11 60c34.667 24 62.5 45.5 83.5 64.5s37.333 38.5 49 58.5s20 42 25 66s8.83301 53 11.5 87h-115l12 62h108l4.5 68
c1.66699 25.333 4.5 48.333 8.5 69c11.333 58 36.5 101.167 75.5 129.5s86.167 42.5 141.5 42.5c15.333 0 30.833 -0.666992 46.5 -2s31.167 -3.66602 46.5 -6.99902z" />
    <glyph glyph-name="currency" unicode="&#xa4;" horiz-adv-x="536" 
d="M531 472l-49.0039 45.999l-94 -101c-11.333 7.33301 -23.666 12.166 -36.999 14.499s-26.333 3.5 -39 3.5c-15.333 0 -30.166 -1.5 -44.499 -4.5s-27.833 -7.5 -40.5 -13.5l-54 101l-69 -45l58 -97c-35.333 -32 -58 -74 -68 -126
c-5.33301 -29.333 -6.66602 -54.666 -3.99902 -75.999s8.66699 -39.666 18 -54.999l-89 -90l52 -46l90 97c17.333 -8.66699 39 -13 65 -13c34 0 65 8 93 24l59 -108l69 47l-64 104c32 32 53 72.667 63 122c5.33301 27.333 6.83301 50.5 4.5 69.5
s-7.16602 35.167 -14.499 48.5zM370.996 254.999c-4 -20 -10.1641 -37.6689 -18.4971 -53.002s-18 -28.166 -29 -38.499s-23 -18.333 -36 -24s-25.833 -8.5 -38.5 -8.5c-19.333 0 -34.833 3.16699 -46.5 9.5s-20.5 15 -26.5 26s-9.33301 23.833 -10 38.5
s0.666016 30.667 3.99902 48c7.33301 37.333 22.166 66.5 44.499 87.5s47.166 31.5 74.499 31.5c18.667 0 34.167 -3 46.5 -9s21.5 -14.167 27.5 -24.5s9.5 -22.666 10.5 -36.999s0.166992 -29.833 -2.5 -46.5z" />
    <glyph glyph-name="yen" unicode="&#xa5;" 
d="M338 300h139l-11 -58h-159l-16 -83h159l-11 -57h-158l-21 -102h-81l20 102h-159l11 57h158l17 83h-159l11 58h139l-110 375h84l64 -233c2 -8 4.5 -17.333 7.5 -28s5.83301 -21.334 8.5 -32.001s5 -20.667 7 -30s3.66699 -16.666 5 -21.999l15 24l21 33.5l21.5 33.5
l16.5 25l152 229h90z" />
    <glyph glyph-name="brokenbar" unicode="&#xa6;" horiz-adv-x="279" 
d="M75 -250h-67l74 378h67zM198 382h-67l72 368h67z" />
    <glyph glyph-name="section" unicode="&#xa7;" horiz-adv-x="482" 
d="M324 231c0 16.667 -2.99805 32.999 -8.99805 48.999s-13.833 32.333 -23.5 49s-20.667 34.334 -33 53.001s-24.5 38.667 -36.5 60c-14.667 -9.33301 -26.334 -22.833 -35.001 -40.5s-13 -35.5 -13 -53.5c0 -28.667 9.5 -59.167 28.5 -91.5s44.5 -72.5 76.5 -120.5
c11.333 8 21.666 21 30.999 39s14 36.667 14 56zM428.002 665.999c-8 2 -17.3311 3.83105 -27.998 5.49805s-21.334 2.5 -32.001 2.5c-19.333 0 -35.833 -2.83301 -49.5 -8.5s-24.667 -13.167 -33 -22.5s-14.333 -20 -18 -32s-5.5 -24.667 -5.5 -38
c0 -24 7.33301 -48 22 -72s31 -49 49 -75s34.333 -53.333 49 -82s22 -60 22 -94c0 -33.333 -8 -64.666 -24 -93.999s-38 -53.666 -66 -72.999c4 -8.66699 7.33301 -19 10 -31s4 -24.333 4 -37c0 -24 -4.83301 -47.167 -14.5 -69.5s-23.5 -42 -41.5 -59s-40 -30.667 -66 -41
s-55.333 -15.5 -88 -15.5c-14 0 -27.667 0.833008 -41 2.5s-24 4.16699 -32 7.5l17 77c8.66699 -4 19 -7.33301 31 -10s23.667 -4 35 -4c36.667 0 64.334 10.167 83.001 30.5s28 44.166 28 71.499c0 15.333 -3.5 31 -10.5 47s-15.833 32.333 -26.5 49
s-22.167 33.667 -34.5 51s-23.833 35.333 -34.5 54s-19.667 37.834 -27 57.501s-11 40.5 -11 62.5c0 32.667 7.66699 64 23 94s38 55.667 68 77c-4.66699 9.33301 -8 19.333 -10 30s-3 23.667 -3 39c0 20.667 3.83301 41.667 11.5 63s19.667 40.5 36 57.5s37 30.833 62 41.5
s54.833 16 89.5 16c13.333 0 26.166 -0.5 38.499 -1.5s23.166 -2.16699 32.499 -3.5z" />
    <glyph glyph-name="dieresis" unicode="&#xa8;" horiz-adv-x="535" 
d="M257 658c0 -16 -4.99902 -28.999 -14.999 -38.999s-22.333 -15 -37 -15s-26.834 4.83301 -36.501 14.5s-14.5 21.167 -14.5 34.5c0 15.333 5.16699 28.166 15.5 38.499s22.833 15.5 37.5 15.5s26.667 -4.83301 36 -14.5s14 -21.167 14 -34.5zM448.001 658.001
c0 -16 -5.16699 -29 -15.5 -39s-22.833 -15 -37.5 -15s-26.834 4.83301 -36.501 14.5s-14.5 21.5 -14.5 35.5c0 15.333 5.33301 28 16 38s23.334 15 38.001 15s26.667 -4.83301 36 -14.5s14 -21.167 14 -34.5z" />
    <glyph glyph-name="copyright" unicode="&#xa9;" horiz-adv-x="740" 
d="M483 175c-8.66699 -3.33301 -20.833 -7 -36.5 -11s-36.167 -6 -61.5 -6c-28 0 -51.833 4.33301 -71.5 13s-35.834 20.5 -48.501 35.5s-21.834 33 -27.501 54s-8.5 43.5 -8.5 67.5s3.16699 47.167 9.5 69.5s16.5 42 30.5 59s32 30.667 54 41s49 15.5 81 15.5
c15.333 0 29.5 -1.16699 42.5 -3.5s25.167 -5.5 36.5 -9.5l-8 -61c-9.33301 4.66699 -20.666 8.5 -33.999 11.5s-26.666 4.5 -39.999 4.5c-18 0 -33.333 -3.16699 -46 -9.5s-22.834 -15 -30.501 -26s-13.167 -23.833 -16.5 -38.5s-5 -30.667 -5 -48
c0 -36.667 7.5 -64.834 22.5 -84.501s38.5 -29.5 70.5 -29.5c14.667 0 28.834 1.33301 42.501 4s26.5 6.33398 38.5 11.001l6 -59v0zM654.001 334c0.666992 36.667 -5.5 71.3311 -18.5 103.998s-31.333 61.334 -55 86.001s-51.667 44.167 -84 58.5s-66.833 21.5 -103.5 21.5
c-37.333 0 -72.333 -7 -105 -21s-61.334 -33 -86.001 -57s-44.5 -52.333 -59.5 -85s-22.833 -67.667 -23.5 -105c-1.33301 -37.333 4.66699 -72.5 18 -105.5s31.833 -61.667 55.5 -86s51.5 -43.666 83.5 -57.999s66.667 -21.5 104 -21.5c36.667 0 71.5 7 104.5 21
s61.833 33.167 86.5 57.5s44.334 52.833 59.001 85.5s22.667 67.667 24 105zM721.001 335.997c-1.33301 -46 -11.334 -89.332 -30.001 -129.999s-43.5 -76.167 -74.5 -106.5s-67 -54.333 -108 -72s-84.5 -26.5 -130.5 -26.5c-47.333 0 -91.166 8.66699 -131.499 26
s-75.166 41 -104.499 71s-52 65.167 -68 105.5s-23.333 83.833 -22 130.5c1.33301 46 11.333 89.333 30 130s43.5 76.167 74.5 106.5s67 54.166 108 71.499s84.833 26 131.5 26s90 -8.66699 130 -26s74.667 -41 104 -71s52.166 -65.167 68.499 -105.5
s23.833 -83.5 22.5 -129.5z" />
    <glyph glyph-name="ordfeminine" unicode="&#xaa;" horiz-adv-x="379" 
d="M326 619c-8.66699 2 -16.999 3.33008 -24.999 3.99707s-15.667 1 -23 1c-20 0 -38 -4.83301 -54 -14.5s-29.333 -22.5 -40 -38.5s-18.834 -34 -24.501 -54s-8.5 -40 -8.5 -60c0 -20.667 3 -35.167 9 -43.5s14.667 -12.5 26 -12.5c14.667 0 29.167 5.33301 43.5 16
s27.5 24.834 39.5 42.501s22.5 37.834 31.5 60.501s15.833 46.334 20.5 71.001zM404.001 671.997l-16.998 -88l-17.5 -92l-15.5 -84l-11 -62h-69c2.66699 12 6.5 26.5 11.5 43.5s11.167 36.167 18.5 57.5h-1c-16.667 -34 -36.834 -60.333 -60.501 -79s-50.167 -28 -79.5 -28
c-55.333 0 -83 33.667 -83 101c0 31.333 4.5 61.5 13.5 90.5s22.333 54.5 40 76.5s39.667 39.667 66 53s57.166 20 92.499 20c13.333 0 24 -0.166992 32 -0.5s18 -1 30 -2s28.667 -3.16699 50 -6.5zM333.003 215.997h-272l12 67h273z" />
    <glyph glyph-name="guillemotleft" unicode="&#xab;" horiz-adv-x="492" 
d="M143 253l80 -156l-68 -37l-95 194l135 197l60 -37zM332 253l88 -154l-67 -37l-104 192l144 195l58 -38z" />
    <glyph glyph-name="logicalnot" unicode="&#xac;" 
d="M428 71h-69l30 159h-339l13 66h410z" />
    <glyph glyph-name="registered" unicode="&#xae;" horiz-adv-x="551" 
d="M359 581c0 10 -2.5 17.166 -7.5 21.499s-14.167 6.5 -27.5 6.5h-23v-64h14c16 0 27.333 3.83301 34 11.5s10 15.834 10 24.501zM361 417.999l-56.002 96h-4v-96h-47v228h78c28 0 47.833 -5.33301 59.5 -16s17.5 -25 17.5 -43c0 -18.667 -5.16699 -33.5 -15.5 -44.5
s-24.166 -18.167 -41.499 -21.5c10.667 -10.667 20.334 -23.667 29.001 -39l37 -64h-57zM487.998 528.999c0.666992 22 -2.99805 43 -10.998 63s-19.167 37.5 -33.5 52.5s-31.333 27 -51 36s-40.5 13.5 -62.5 13.5s-42.833 -4.33301 -62.5 -13s-37 -20.334 -52 -35.001
s-26.833 -31.834 -35.5 -51.501s-13.334 -40.5 -14.001 -62.5s3 -43 11 -63s19.167 -37.5 33.5 -52.5s31.166 -27 50.499 -36s40 -13.5 62 -13.5s43 4.33301 63 13s37.5 20.334 52.5 35.001s27 31.834 36 51.501s13.5 40.5 13.5 62.5zM545 532.999
c-0.666992 -30 -7.00098 -58.333 -19.001 -85s-28 -50 -48 -70s-43.333 -35.667 -70 -47s-55 -17 -85 -17c-31.333 0 -60.166 5.5 -86.499 16.5s-49 26.167 -68 45.5s-33.833 41.833 -44.5 67.5s-16 53.5 -16 83.5c0.666992 30.667 7 59.5 19 86.5s28.167 50.5 48.5 70.5
s44 35.667 71 47s55.5 17 85.5 17c30.667 0 59 -5.5 85 -16.5s48.667 -26.333 68 -46s34.333 -42.5 45 -68.5s15.667 -54 15 -84z" />
    <glyph glyph-name="macron" unicode="&#xaf;" horiz-adv-x="383" 
d="M162 619v64h218v-64h-218z" />
    <glyph glyph-name="macron" unicode="&#x2c9;" horiz-adv-x="383" 
d="M162 619v64h218v-64h-218z" />
    <glyph glyph-name="degree" unicode="&#xb0;" horiz-adv-x="366" 
d="M322 613c0 7.33301 -0.833008 15 -2.5 23s-4.83398 15.333 -9.50098 22s-11.167 12.167 -19.5 16.5s-18.5 6.5 -30.5 6.5c-17.333 0 -32.5 -6.5 -45.5 -19.5s-19.833 -30.167 -20.5 -51.5s4.33301 -38 15 -50s25.667 -18 45 -18s35.333 6.5 48 19.5
s19.334 30.167 20.001 51.5zM389 615c-0.666992 -20.667 -5.16504 -39 -13.498 -55s-19 -29.5 -32 -40.5s-27.833 -19.333 -44.5 -25s-33.334 -8.5 -50.001 -8.5c-39.333 0 -69.833 11 -91.5 33s-31.834 51 -30.501 87c0.666992 20.667 5.16699 39.167 13.5 55.5
s19 30 32 41s27.667 19.333 44 25s32.833 8.5 49.5 8.5c22 0 40.833 -3.33301 56.5 -10s28.5 -15.5 38.5 -26.5s17.333 -23.833 22 -38.5s6.66699 -30 6 -46z" />
    <glyph glyph-name="plusminus" unicode="&#xb1;" 
d="M430 -58h-440l13 69h440zM501 275h-188l-39 -199h-76l39 199h-188l13 67h188l38 198h76l-38 -198h188z" />
    <glyph glyph-name="twosuperior" unicode="&#xb2;" horiz-adv-x="335" 
d="M340 575c0 -28.667 -9.16797 -56.3301 -27.501 -82.9971s-45.5 -55 -81.5 -85l-81 -67c20.667 1.33301 44.834 2.16602 72.501 2.49902s58.167 0.166016 91.5 -0.500977l-13 -72h-271l13 62l113 94c33.333 28 57.833 51.667 73.5 71s23.5 38.666 23.5 57.999
c0 38 -19.667 57 -59 57c-15.333 0 -30.833 -2.16699 -46.5 -6.5s-29.834 -10.166 -42.501 -17.499v69c15.333 7.33301 32.833 13.166 52.5 17.499s39.834 6.5 60.501 6.5c41.333 0 72 -9.66699 92 -29s30 -45 30 -77z" />
    <glyph glyph-name="threesuperior" unicode="&#xb3;" horiz-adv-x="311" 
d="M325 595c0 -25.333 -7.66895 -47.502 -23.002 -66.502s-37.666 -33.5 -66.999 -43.5c19.333 -4 34.333 -13 45 -27s16 -30.667 16 -50s-4.33301 -38 -13 -56s-21 -33.667 -37 -47s-35.333 -24 -58 -32s-48 -12 -76 -12c-15.333 0 -29.166 0.833008 -41.499 2.5
s-24.5 3.83398 -36.5 6.50098l20 63c20 -7.33301 41 -11 63 -11c30 0 53.5 7.66699 70.5 23s25.5 34 25.5 56c0 18 -10 31.833 -30 41.5s-52.667 11.167 -98 4.5l12 56c48.667 0 85 7.16699 109 21.5s36 32.5 36 54.5c0 28.667 -16.333 43 -49 43
c-13.333 0 -26.833 -1.66699 -40.5 -5s-27.167 -7.66602 -40.5 -12.999v61c18 5.33301 35.5 9.33301 52.5 12s32.167 4 45.5 4c40.667 0 70 -7.83301 88 -23.5s27 -36.5 27 -62.5z" />
    <glyph glyph-name="acute" unicode="&#xb4;" horiz-adv-x="380" 
d="M176 577l-33 47l146 111l41 -59z" />
    <glyph glyph-name="mu" unicode="&#xb5;" horiz-adv-x="595" 
d="M462 0l-81.998 0.00195312c2.66699 16 8.16699 39.5 16.5 70.5s21.833 74.5 40.5 130.5l-2 1c-11.333 -27.333 -24.666 -53.5 -39.999 -78.5s-32.333 -47.333 -51 -67s-38.834 -35.334 -60.501 -47.001s-44.834 -17.5 -69.501 -17.5c-25.333 0 -45 4.33301 -59 13
s-23.333 18 -28 28l-2 -1c-0.666992 -9.33301 -2.5 -23 -5.5 -41s-7.16699 -41 -12.5 -69l-32 -170h-82l141 745h83l-61 -315c-8 -42 -5.83301 -72.5 6.5 -91.5s34.5 -28.5 66.5 -28.5c16.667 0 33.167 5.16699 49.5 15.5s32.166 24.166 47.499 41.499
s29.833 37.333 43.5 60s26 46 37 70s20.5 47.833 28.5 71.5s14 45.5 18 65.5l21 111h83z" />
    <glyph glyph-name="mu" unicode="&#x3bc;" horiz-adv-x="595" 
d="M462 0l-81.998 0.00195312c2.66699 16 8.16699 39.5 16.5 70.5s21.833 74.5 40.5 130.5l-2 1c-11.333 -27.333 -24.666 -53.5 -39.999 -78.5s-32.333 -47.333 -51 -67s-38.834 -35.334 -60.501 -47.001s-44.834 -17.5 -69.501 -17.5c-25.333 0 -45 4.33301 -59 13
s-23.333 18 -28 28l-2 -1c-0.666992 -9.33301 -2.5 -23 -5.5 -41s-7.16699 -41 -12.5 -69l-32 -170h-82l141 745h83l-61 -315c-8 -42 -5.83301 -72.5 6.5 -91.5s34.5 -28.5 66.5 -28.5c16.667 0 33.167 5.16699 49.5 15.5s32.166 24.166 47.499 41.499
s29.833 37.333 43.5 60s26 46 37 70s20.5 47.833 28.5 71.5s14 45.5 18 65.5l21 111h83z" />
    <glyph glyph-name="paragraph" unicode="&#xb6;" horiz-adv-x="562" 
d="M573 610h-71l-134 -706h-75h-73l13 65h72l134 706h75h70zM285 250c-62 0 -107.665 15.501 -136.998 46.501s-44 71.167 -44 120.5c0 30.667 5.66699 61.5 17 92.5s28.166 58.667 50.499 83s49.666 44.166 81.999 59.499s69.5 23 111.5 23z" />
    <glyph glyph-name="periodcentered" unicode="&#xb7;" horiz-adv-x="225" 
d="M181 290c-1.33301 -18 -8.17188 -32.999 -20.5049 -44.999s-27.166 -18 -44.499 -18s-31.166 5.66699 -41.499 17s-15.166 25.333 -14.499 42c0.666992 18 7.33398 33.167 20.001 45.5s27.667 18.5 45 18.5s31.333 -5.83301 42 -17.5s15.334 -25.834 14.001 -42.501z" />
    <glyph glyph-name="periodcentered" unicode="&#x22c5;" horiz-adv-x="225" 
d="M181 290c-1.33301 -18 -8.17188 -32.999 -20.5049 -44.999s-27.166 -18 -44.499 -18s-31.166 5.66699 -41.499 17s-15.166 25.333 -14.499 42c0.666992 18 7.33398 33.167 20.001 45.5s27.667 18.5 45 18.5s31.333 -5.83301 42 -17.5s15.334 -25.834 14.001 -42.501z" />
    <glyph glyph-name="cedilla" unicode="&#xb8;" horiz-adv-x="392" 
d="M226 -51c4.66699 -16 6.5 -32 5.5 -48s-6 -32 -15 -48s-22.333 -31.833 -40 -47.5s-41.167 -31.167 -70.5 -46.5l-32 38c36 23.333 59.167 47.5 69.5 72.5s10.833 51.5 1.5 79.5h81v0z" />
    <glyph glyph-name="onesuperior" unicode="&#xb9;" horiz-adv-x="261" 
d="M189 270h-83l64 328l-96 -35v70l124 42h70z" />
    <glyph glyph-name="ordmasculine" unicode="&#xba;" horiz-adv-x="414" 
d="M342 553c0 18 -4.33398 33.8359 -13.001 47.5029s-24.667 20.5 -48 20.5c-20 0 -37 -5.16699 -51 -15.5s-25.333 -23 -34 -38s-15 -31.333 -19 -49s-6 -33.834 -6 -48.501c0 -20.667 4.66699 -36.834 14 -48.501s24.333 -17.5 45 -17.5c17.333 0 32.833 4 46.5 12
s25.334 18.667 35.001 32s17.167 29.166 22.5 47.499s8 37.5 8 57.5zM420.999 564.003c0 -37.333 -5.83301 -70 -17.5 -98s-27 -51.333 -46 -70s-40.5 -32.667 -64.5 -42s-48.333 -14 -73 -14c-42.667 0 -74.5 9.5 -95.5 28.5s-31.5 48.5 -31.5 88.5
c0 30 4.5 58.667 13.5 86s22 51.333 39 72s37.5 37.167 61.5 49.5s51 18.5 81 18.5c47.333 0 81.333 -10.667 102 -32s31 -50.333 31 -87zM350.999 216.003h-290l12 67h291z" />
    <glyph glyph-name="guillemotright" unicode="&#xbb;" horiz-adv-x="492" 
d="M115 61l-59 38l120 158l-89 154l68 37l104 -192zM312 59l-59 37l112 161l-80 156l68 37l95 -194z" />
    <glyph glyph-name="onequarter" unicode="&#xbc;" horiz-adv-x="896" 
d="M189 270h-83l64 328l-96 -35v70l124 42h70zM129 -128l-59 40l588 847l59 -41zM578 148c8 0 17.5 0.166992 28.5 0.5s22.167 0.5 33.5 0.5h56l38 195zM825 85h-63l-18 -85h-76l16 85h-191l6 56l208 264h39h40h36l-49 -255h64z" />
    <glyph glyph-name="onehalf" unicode="&#xbd;" horiz-adv-x="911" 
d="M189 270h-83l64 328l-96 -35v70l124 42h70zM129 -128l-59 40l588 847l59 -41zM835 305c0 -28.667 -9.16797 -55.998 -27.501 -81.998s-46.166 -54.667 -83.499 -86l-81 -67c21.333 1.33301 46 2.16602 74 2.49902s58.667 0.166016 92 -0.500977l-14 -72h-267l11 61
l112 94c33.333 28 57.833 52 73.5 72s23.5 40 23.5 60c0 36.667 -19.667 55 -59 55c-15.333 0 -30.833 -2.16699 -46.5 -6.5s-29.834 -10.166 -42.501 -17.499v69c15.333 7.33301 32.833 13.166 52.5 17.499s39.834 6.5 60.501 6.5c41.333 0 72 -9.66699 92 -29
s30 -45 30 -77z" />
    <glyph glyph-name="threequarters" unicode="&#xbe;" horiz-adv-x="942" 
d="M326 595c0 -25.333 -7.50293 -47.502 -22.5029 -66.502s-37.167 -33.5 -66.5 -43.5c19.333 -4 34.333 -13 45 -27s16 -30.667 16 -50s-4.33301 -38 -13 -56s-21.167 -33.667 -37.5 -47s-35.833 -24 -58.5 -32s-48 -12 -76 -12c-15.333 0 -29.166 0.833008 -41.499 2.5
s-24.5 3.83398 -36.5 6.50098l21 63c20 -7.33301 40.667 -11 62 -11c30 0 53.5 7.66699 70.5 23s25.5 34 25.5 56c0 18 -10 31.833 -30 41.5s-52.333 11.167 -97 4.5l12 56c48 0 84 7.16699 108 21.5s36 32.5 36 54.5c0 28.667 -16.333 43 -49 43
c-14 0 -27.5 -1.66699 -40.5 -5s-26.167 -7.66602 -39.5 -12.999v61c18.667 5.33301 36.334 9.33301 53.001 12s31.667 4 45 4c40.667 0 69.834 -7.83301 87.501 -23.5s26.5 -36.5 26.5 -62.5zM184.997 -128.002l-59 40l588 847l59 -41zM648.997 147.998
c8 0 17.5 0.166992 28.5 0.5s22.167 0.5 33.5 0.5h56l38 193v2zM895.997 84.998h-64l-17 -85h-76l16 85h-191l6 55l209 265h38h41h35l-49 -255h64z" />
    <glyph glyph-name="questiondown" unicode="&#xbf;" horiz-adv-x="435" 
d="M324 330c4.66699 -36 2.5 -67.0029 -6.5 -93.0029s-21.5 -48.667 -37.5 -68s-34.167 -36.666 -54.5 -51.999l-57.5 -45c-18 -14.667 -33 -30 -45 -46s-18 -34.333 -18 -55c0 -29.333 16 -54.166 48 -74.499s80.333 -31.833 145 -34.5l-21 -74
c-44.667 1.33301 -83.5 7 -116.5 17s-60.167 22.833 -81.5 38.5s-37.333 33.334 -48 53.001s-16 40.167 -16 61.5c0 28.667 6.33301 53.167 19 73.5s28.167 38.833 46.5 55.5s38 32.667 59 48s40 32 57 50s30.333 38.5 40 61.5s12.5 50.833 8.5 83.5h79v0zM354 451.997
c0 -16.667 -5.66699 -30.667 -17 -42s-25.333 -17 -42 -17s-30 5.33301 -40 16s-15 23.667 -15 39c0 16.667 5.5 30.667 16.5 42s24.833 17 41.5 17s30.167 -5.33301 40.5 -16s15.5 -23.667 15.5 -39z" />
    <glyph glyph-name="Agrave" unicode="&#xc0;" horiz-adv-x="604" 
d="M377 480c-2.66699 16 -5.16797 32.332 -7.50098 48.999s-4.16602 33.334 -5.49902 50.001h-1c-6.66699 -15.333 -14.167 -31.5 -22.5 -48.5l-26.5 -51.5l-136 -249h241zM453.999 -0.000976562l-25 161h-286l-87 -161h-91l371 675h94l115 -675h-91zM399.999 719.999
l-171 72l33 56l160 -86z" />
    <glyph glyph-name="Aacute" unicode="&#xc1;" horiz-adv-x="604" 
d="M377 480c-2.66699 16 -5.16797 32.332 -7.50098 48.999s-4.16602 33.334 -5.49902 50.001h-1c-6.66699 -15.333 -14.167 -31.5 -22.5 -48.5l-26.5 -51.5l-136 -249h241zM453.999 -0.000976562l-25 161h-286l-87 -161h-91l371 675h94l115 -675h-91zM364.999 719.999
l-14 41l186 87l20 -56z" />
    <glyph glyph-name="Acircumflex" unicode="&#xc2;" horiz-adv-x="604" 
d="M377 480c-2.66699 16 -5.16797 32.332 -7.50098 48.999s-4.16602 33.334 -5.49902 50.001h-1c-6.66699 -15.333 -14.167 -31.5 -22.5 -48.5l-26.5 -51.5l-136 -249h241zM453.999 -0.000976562l-25 161h-286l-87 -161h-91l371 675h94l115 -675h-91zM510.999 720.999
l-114 65l-133 -65l-19 43l162 84l134 -83z" />
    <glyph glyph-name="Atilde" unicode="&#xc3;" horiz-adv-x="604" 
d="M377 480c-2.66699 16 -5.16797 32.332 -7.50098 48.999s-4.16602 33.334 -5.49902 50.001h-1c-6.66699 -15.333 -14.167 -31.5 -22.5 -48.5l-26.5 -51.5l-136 -249h241zM453.999 -0.000976562l-25 161h-286l-87 -161h-91l371 675h94l115 -675h-91zM555.999 788.999
c-14 -16 -29.5 -29.332 -46.5 -39.999s-36.167 -16 -57.5 -16c-14.667 0 -27 2 -37 6s-19.333 8.5 -28 13.5s-17.167 9.5 -25.5 13.5s-18.166 6 -29.499 6c-12 0 -23.333 -3.33301 -34 -10s-20.667 -15 -30 -25l-32 35c14 17.333 29.333 31.166 46 41.499
s36.667 15.5 60 15.5c14 0 25.833 -2 35.5 -6s18.667 -8.33301 27 -13s16.666 -9 24.999 -13s18.166 -6 29.499 -6c12.667 0 24.334 3.16699 35.001 9.5s20.667 14.5 30 24.5l32 -36v0z" />
    <glyph glyph-name="Adieresis" unicode="&#xc4;" horiz-adv-x="604" 
d="M377 480c-2.66699 16 -5.16797 32.332 -7.50098 48.999s-4.16602 33.334 -5.49902 50.001h-1c-6.66699 -15.333 -14.167 -31.5 -22.5 -48.5l-26.5 -51.5l-136 -249h241zM453.999 -0.000976562l-25 161h-286l-87 -161h-91l371 675h94l115 -675h-91zM336.999 782.999
c0 -15.333 -4.99902 -27.833 -14.999 -37.5s-21.667 -14.5 -35 -14.5c-14 0 -25.667 4.5 -35 13.5s-14 20.167 -14 33.5c0 15.333 5.16699 27.833 15.5 37.5s22.166 14.5 35.499 14.5c14 0 25.5 -4.66699 34.5 -14s13.5 -20.333 13.5 -33zM550 782.999
c0 -15.333 -4.99902 -27.833 -14.999 -37.5s-21.667 -14.5 -35 -14.5c-14 0 -25.667 4.66699 -35 14s-14 20.666 -14 33.999c0 14.667 5.16699 26.834 15.5 36.501s22.166 14.5 35.499 14.5c14 0 25.5 -4.66699 34.5 -14s13.5 -20.333 13.5 -33z" />
    <glyph glyph-name="Aring" unicode="&#xc5;" horiz-adv-x="604" 
d="M496 742c0.666992 14.667 -1.5 28.501 -6.5 41.501s-12.333 24.333 -22 34s-21 17.167 -34 22.5s-27.167 8 -42.5 8s-29.666 -2.66699 -42.999 -8s-25.333 -12.833 -36 -22.5s-19.167 -21.167 -25.5 -34.5s-9.5 -28 -9.5 -44c-0.666992 -30.667 8.66602 -56 27.999 -76
c5.33301 -5.33301 11 -10 17 -14l-357 -649h91l87 161h286l25 -161h91l-110 646c10 4.66699 18.667 10.667 26 18c10.667 10 19 21.667 25 35s9.33301 27.666 10 42.999zM377 480.001l42.001 -249.999h-241l136 249l26.5 51.5c8.33301 17 15.833 33.167 22.5 48.5h1
c1.33301 -16.667 3.16602 -33.334 5.49902 -50.001s4.83301 -33 7.5 -49zM442.001 741.002c-0.666992 -16 -6.66699 -29.665 -18 -40.998s-24.666 -17 -39.999 -17s-28 5.66699 -38 17s-14.667 24.666 -14 39.999s6.33398 28.666 17.001 39.999s24 17 40 17
c15.333 0 28.166 -5.5 38.499 -16.5s15.166 -24.167 14.499 -39.5z" />
    <glyph glyph-name="AE" unicode="&#xc6;" horiz-adv-x="756" 
d="M423 603l-37 -59.5c-13.333 -21 -31.333 -47.167 -54 -78.5l-164 -233h188l70 371h-3zM757 604h-249l-42 -221h239l-14 -70h-238l-46 -241h257l-13 -72h-258h-82l31 163h-222l-115 -163h-94l479 675h49h40h42h249z" />
    <glyph glyph-name="Ccedilla" unicode="&#xc7;" horiz-adv-x="564" 
d="M563 573c-21.333 10.667 -43.334 18.833 -66.001 24.5s-45.667 8.5 -69 8.5c-50 0 -92.667 -11 -128 -33s-64.166 -50.667 -86.499 -86s-38.833 -74.833 -49.5 -118.5s-16 -87.5 -16 -131.5c0 -24.667 2.83301 -47.334 8.5 -68.001s15.167 -38.334 28.5 -53.001
s31 -26.167 53 -34.5s49.667 -12.5 83 -12.5c28.667 0 56.667 3.16699 84 9.5s52.666 15.166 75.999 26.499l10 -74c-27.333 -13.333 -58.666 -23.166 -93.999 -29.499s-69 -9.5 -101 -9.5c-48 0 -87.5 6.33301 -118.5 19s-55.667 29.834 -74 51.501
s-31.166 46.334 -38.499 74.001s-11 56.5 -11 86.5c0 59.333 8.16699 116.5 24.5 171.5s40.833 103.833 73.5 146.5s73.167 76.667 121.5 102s104.166 38 167.499 38c25.333 0 52 -3 80 -9s53.667 -14 77 -24zM305.999 -51.001c4.66699 -16 6.5 -32 5.5 -48s-6 -32 -15 -48
s-22.333 -31.833 -40 -47.5s-41.167 -31.167 -70.5 -46.5l-32 38c36 23.333 59.167 47.5 69.5 72.5s10.833 51.5 1.5 79.5h81v0z" />
    <glyph glyph-name="Egrave" unicode="&#xc8;" horiz-adv-x="492" 
d="M492 604h-253l-42 -221h242l-14 -70h-241l-45 -241h253l-14 -72h-253h-84l128 675h84h253zM371 720l-171 72l33 56l160 -86z" />
    <glyph glyph-name="Eacute" unicode="&#xc9;" horiz-adv-x="492" 
d="M492 604h-253l-42 -221h242l-14 -70h-241l-45 -241h253l-14 -72h-253h-84l128 675h84h253zM316 720l-14 41l186 87l20 -56z" />
    <glyph glyph-name="Ecircumflex" unicode="&#xca;" horiz-adv-x="492" 
d="M492 604h-253l-42 -221h242l-14 -70h-241l-45 -241h253l-14 -72h-253h-84l128 675h84h253zM472 721l-114 65l-133 -65l-19 43l162 84l134 -83z" />
    <glyph glyph-name="Edieresis" unicode="&#xcb;" horiz-adv-x="492" 
d="M492 604h-253l-42 -221h242l-14 -70h-241l-45 -241h253l-14 -72h-253h-84l128 675h84h253zM297 783c0 -15.333 -4.99902 -27.833 -14.999 -37.5s-21.667 -14.5 -35 -14.5c-14 0 -25.667 4.5 -35 13.5s-14 20.167 -14 33.5c0 15.333 5.16699 27.833 15.5 37.5
s22.166 14.5 35.499 14.5c14 0 25.5 -4.66699 34.5 -14s13.5 -20.333 13.5 -33zM510.001 783c0 -15.333 -4.99902 -27.833 -14.999 -37.5s-21.667 -14.5 -35 -14.5c-14 0 -25.667 4.66699 -35 14s-14 20.666 -14 33.999c0 14.667 5.16699 26.834 15.5 36.501
s22.166 14.5 35.499 14.5c14 0 25.5 -4.66699 34.5 -14s13.5 -20.333 13.5 -33z" />
    <glyph glyph-name="Igrave" unicode="&#xcc;" horiz-adv-x="256" 
d="M125 0h-84l128 675h84zM241 720l-171 72l33 56l160 -86z" />
    <glyph glyph-name="Iacute" unicode="&#xcd;" horiz-adv-x="256" 
d="M125 0h-84l128 675h84zM196 720l-14 41l186 87l20 -56z" />
    <glyph glyph-name="Icircumflex" unicode="&#xce;" horiz-adv-x="256" 
d="M125 0h-84l128 675h84zM352 721l-114 65l-133 -65l-19 43l162 84l134 -83z" />
    <glyph glyph-name="Idieresis" unicode="&#xcf;" horiz-adv-x="256" 
d="M125 0h-84l128 675h84zM185 786c0 -16 -4.99902 -28.999 -14.999 -38.999s-22.333 -15 -37 -15s-26.834 4.83301 -36.501 14.5s-14.5 21.167 -14.5 34.5c0 15.333 5.16699 28.166 15.5 38.499s22.833 15.5 37.5 15.5s26.667 -4.83301 36 -14.5s14 -21.167 14 -34.5z
M376.001 786.001c0 -16 -5.16699 -29 -15.5 -39s-22.833 -15 -37.5 -15s-26.834 4.83301 -36.501 14.5s-14.5 21.5 -14.5 35.5c0 15.333 5.33301 28 16 38s23.334 15 38.001 15s26.667 -4.83301 36 -14.5s14 -21.167 14 -34.5z" />
    <glyph glyph-name="Eth" unicode="&#xd0;" horiz-adv-x="678" 
d="M569 424c0 26 -3.50293 50.3359 -10.5029 73.0029s-18.667 42.167 -35 58.5s-38.166 29.166 -65.499 38.499s-61.333 14 -102 14c-20 0 -39.5 -0.333008 -58.5 -1s-35.167 -1.33398 -48.5 -2.00098l-43 -225h138l-6 -66h-144l-45 -239c13.333 -2 27.833 -3.5 43.5 -4.5
s28.834 -1.5 39.501 -1.5c60.667 0 112.334 10.667 155.001 32s77.5 49 104.5 83s46.667 72.167 59 114.5s18.5 84.166 18.5 125.499zM658.997 433.003c0 -55.333 -8.83496 -109.331 -26.502 -161.998s-44.5 -99.334 -80.5 -140.001s-81.667 -73.334 -137 -98.001
s-120.666 -37 -195.999 -37c-36.667 0 -68 0.666992 -94 2s-51 2 -75 2l59 314h-96l7 66h102l56 294c26 0.666992 56.167 1.5 90.5 2.5s67.833 1.5 100.5 1.5c52.667 0 97.334 -6 134.001 -18s66.5 -28.833 89.5 -50.5s39.833 -47.5 50.5 -77.5s16 -63 16 -99z" />
    <glyph glyph-name="Ntilde" unicode="&#xd1;" horiz-adv-x="679" 
d="M549 0h-84.001h-15l-172 424l-29 73c-9.33301 24 -17.666 47 -24.999 69l-20 -128c-7.33301 -45.333 -15 -89 -23 -131l-57 -307h-84l128 675h84h17l169 -416l29.5 -74c9.66699 -24.667 18.5 -49 26.5 -73l20 120.5l22 126.5l58 316h84zM599.999 789
c-14 -16 -29.5 -29.332 -46.5 -39.999s-36.167 -16 -57.5 -16c-14.667 0 -27 2 -37 6s-19.333 8.5 -28 13.5s-17.167 9.5 -25.5 13.5s-18.166 6 -29.499 6c-12 0 -23.333 -3.33301 -34 -10s-20.667 -15 -30 -25l-32 35c14 17.333 29.333 31.166 46 41.499
s36.667 15.5 60 15.5c14 0 25.833 -2 35.5 -6s18.667 -8.33301 27 -13s16.666 -9 24.999 -13s18.166 -6 29.499 -6c12.667 0 24.334 3.16699 35.001 9.5s20.667 14.5 30 24.5l32 -36v0z" />
    <glyph glyph-name="Ograve" unicode="&#xd2;" horiz-adv-x="691" 
d="M586 430c0 55.333 -13.334 99 -40.001 131s-68 48 -124 48c-40.667 0 -78.167 -9.66699 -112.5 -29s-63.833 -45.5 -88.5 -78.5s-44 -71.333 -58 -115s-21 -89.834 -21 -138.501c0 -56 13.667 -100.167 41 -132.5s67.333 -48.5 120 -48.5
c38.667 0 75.334 9.33301 110.001 28s64.667 44.334 90 77.001s45.5 71 60.5 115s22.5 91.667 22.5 143zM677.999 439c0 -64 -10.168 -123.5 -30.501 -178.5s-48 -102.5 -83 -142.5s-76 -71.333 -123 -94s-97.167 -34 -150.5 -34c-81.333 0 -141.666 21.667 -180.999 65
s-59 103.666 -59 180.999c0 60.667 9.83301 118.334 29.5 173.001s46.667 102.334 81 143.001s75 73 122 97s97.833 36 152.5 36c78.667 0 138.667 -21.333 180 -64s62 -103.334 62 -182.001zM479.998 720l-171 72l33 56l160 -86z" />
    <glyph glyph-name="Oacute" unicode="&#xd3;" horiz-adv-x="691" 
d="M586 430c0 55.333 -13.334 99 -40.001 131s-68 48 -124 48c-40.667 0 -78.167 -9.66699 -112.5 -29s-63.833 -45.5 -88.5 -78.5s-44 -71.333 -58 -115s-21 -89.834 -21 -138.501c0 -56 13.667 -100.167 41 -132.5s67.333 -48.5 120 -48.5
c38.667 0 75.334 9.33301 110.001 28s64.667 44.334 90 77.001s45.5 71 60.5 115s22.5 91.667 22.5 143zM677.999 439c0 -64 -10.168 -123.5 -30.501 -178.5s-48 -102.5 -83 -142.5s-76 -71.333 -123 -94s-97.167 -34 -150.5 -34c-81.333 0 -141.666 21.667 -180.999 65
s-59 103.666 -59 180.999c0 60.667 9.83301 118.334 29.5 173.001s46.667 102.334 81 143.001s75 73 122 97s97.833 36 152.5 36c78.667 0 138.667 -21.333 180 -64s62 -103.334 62 -182.001zM444.998 720l-14 41l186 87l20 -56z" />
    <glyph glyph-name="Ocircumflex" unicode="&#xd4;" horiz-adv-x="691" 
d="M586 430c0 55.333 -13.334 99 -40.001 131s-68 48 -124 48c-40.667 0 -78.167 -9.66699 -112.5 -29s-63.833 -45.5 -88.5 -78.5s-44 -71.333 -58 -115s-21 -89.834 -21 -138.501c0 -56 13.667 -100.167 41 -132.5s67.333 -48.5 120 -48.5
c38.667 0 75.334 9.33301 110.001 28s64.667 44.334 90 77.001s45.5 71 60.5 115s22.5 91.667 22.5 143zM677.999 439c0 -64 -10.168 -123.5 -30.501 -178.5s-48 -102.5 -83 -142.5s-76 -71.333 -123 -94s-97.167 -34 -150.5 -34c-81.333 0 -141.666 21.667 -180.999 65
s-59 103.666 -59 180.999c0 60.667 9.83301 118.334 29.5 173.001s46.667 102.334 81 143.001s75 73 122 97s97.833 36 152.5 36c78.667 0 138.667 -21.333 180 -64s62 -103.334 62 -182.001zM580.998 721l-114 65l-133 -65l-19 43l162 84l134 -83z" />
    <glyph glyph-name="Otilde" unicode="&#xd5;" horiz-adv-x="691" 
d="M586 430c0 55.333 -13.334 99 -40.001 131s-68 48 -124 48c-40.667 0 -78.167 -9.66699 -112.5 -29s-63.833 -45.5 -88.5 -78.5s-44 -71.333 -58 -115s-21 -89.834 -21 -138.501c0 -56 13.667 -100.167 41 -132.5s67.333 -48.5 120 -48.5
c38.667 0 75.334 9.33301 110.001 28s64.667 44.334 90 77.001s45.5 71 60.5 115s22.5 91.667 22.5 143zM677.999 439c0 -64 -10.168 -123.5 -30.501 -178.5s-48 -102.5 -83 -142.5s-76 -71.333 -123 -94s-97.167 -34 -150.5 -34c-81.333 0 -141.666 21.667 -180.999 65
s-59 103.666 -59 180.999c0 60.667 9.83301 118.334 29.5 173.001s46.667 102.334 81 143.001s75 73 122 97s97.833 36 152.5 36c78.667 0 138.667 -21.333 180 -64s62 -103.334 62 -182.001zM625.998 789c-14 -16 -29.5 -29.332 -46.5 -39.999s-36.167 -16 -57.5 -16
c-14.667 0 -27 2 -37 6s-19.333 8.5 -28 13.5s-17.167 9.5 -25.5 13.5s-18.166 6 -29.499 6c-12 0 -23.333 -3.33301 -34 -10s-20.667 -15 -30 -25l-32 35c14 17.333 29.333 31.166 46 41.499s36.667 15.5 60 15.5c14 0 25.833 -2 35.5 -6s18.667 -8.33301 27 -13
s16.666 -9 24.999 -13s18.166 -6 29.499 -6c12.667 0 24.334 3.16699 35.001 9.5s20.667 14.5 30 24.5l32 -36v0z" />
    <glyph glyph-name="Odieresis" unicode="&#xd6;" horiz-adv-x="691" 
d="M586 430c0 55.333 -13.334 99 -40.001 131s-68 48 -124 48c-40.667 0 -78.167 -9.66699 -112.5 -29s-63.833 -45.5 -88.5 -78.5s-44 -71.333 -58 -115s-21 -89.834 -21 -138.501c0 -56 13.667 -100.167 41 -132.5s67.333 -48.5 120 -48.5
c38.667 0 75.334 9.33301 110.001 28s64.667 44.334 90 77.001s45.5 71 60.5 115s22.5 91.667 22.5 143zM677.999 439c0 -64 -10.168 -123.5 -30.501 -178.5s-48 -102.5 -83 -142.5s-76 -71.333 -123 -94s-97.167 -34 -150.5 -34c-81.333 0 -141.666 21.667 -180.999 65
s-59 103.666 -59 180.999c0 60.667 9.83301 118.334 29.5 173.001s46.667 102.334 81 143.001s75 73 122 97s97.833 36 152.5 36c78.667 0 138.667 -21.333 180 -64s62 -103.334 62 -182.001zM402.998 783c0 -15.333 -4.99902 -27.833 -14.999 -37.5
s-21.667 -14.5 -35 -14.5c-14 0 -25.667 4.5 -35 13.5s-14 20.167 -14 33.5c0 15.333 5.16699 27.833 15.5 37.5s22.166 14.5 35.499 14.5c14 0 25.5 -4.66699 34.5 -14s13.5 -20.333 13.5 -33zM615.999 783c0 -15.333 -4.99902 -27.833 -14.999 -37.5
s-21.667 -14.5 -35 -14.5c-14 0 -25.667 4.66699 -35 14s-14 20.666 -14 33.999c0 14.667 5.16699 26.834 15.5 36.501s22.166 14.5 35.499 14.5c14 0 25.5 -4.66699 34.5 -14s13.5 -20.333 13.5 -33z" />
    <glyph glyph-name="multiply" unicode="&#xd7;" 
d="M312 248l131 -173l-54 -45l-129 172l-195 -172l-40 48l197 173l-130 173l54 44l129 -170l196 172l39 -48z" />
    <glyph glyph-name="Oslash" unicode="&#xd8;" horiz-adv-x="691" 
d="M468 604l-28.002 3.99902c-9.33301 1.33301 -19.666 1.66602 -30.999 0.999023c-39.333 -2 -75.333 -13 -108 -33s-61 -46.5 -85 -79.5s-42.667 -70.833 -56 -113.5s-20 -88 -20 -136c0 -31.333 4.33301 -58.666 13 -81.999s22.334 -42.666 41.001 -57.999l274 497v0z
M587.998 430.999c0 66.667 -19.999 115.001 -59.999 145.001l-277 -502c9.33301 -3.33301 19.666 -5.33301 30.999 -6s23 -0.333984 35 0.999023c36.667 2.66699 71.5 13.667 104.5 33s61.833 45 86.5 77s44.167 69.5 58.5 112.5s21.5 89.5 21.5 139.5zM677.999 439
c0 -64 -10.168 -123.497 -30.501 -178.497s-48 -102.5 -83 -142.5s-76 -71.333 -123 -94s-97.167 -34 -150.5 -34c-15.333 0 -29.5 1 -42.5 3s-25.5 4.66699 -37.5 8l-55 -101l-61 26l54 98c-33.333 20 -58 47.833 -74 83.5s-24 78.5 -24 128.5
c0 61.333 9.66699 119.166 29 173.499s46.333 102 81 143s75.334 73.333 122.001 97s97.667 35.5 153 35.5c13.333 0 25.833 -0.833008 37.5 -2.5s23.167 -3.83398 34.5 -6.50098l51 94l61 -26l-51 -90c72.667 -38.667 109 -110.334 109 -215.001z" />
    <glyph glyph-name="Ugrave" unicode="&#xd9;" horiz-adv-x="679" 
d="M676 675l-82.9971 -0.000976562l-80 -418c-7.33301 -36 -17 -66.5 -29 -91.5s-26.667 -45.167 -44 -60.5s-37.5 -26.333 -60.5 -33s-49.167 -10 -78.5 -10c-50 0 -86 9.33301 -108 28s-33 46.667 -33 84c0 18 2 37.667 6 59l85 442h-84l-84 -439
c-5.33301 -28 -8 -53 -8 -75c0 -24.667 3.66699 -47.5 11 -68.5s19.166 -39.167 35.499 -54.5s38.166 -27.166 65.499 -35.499s61 -12.5 101 -12.5c85.333 0 153.666 20.667 204.999 62s85.333 106.333 102 195zM460.003 719.999l-171 72l33 56l160 -86z" />
    <glyph glyph-name="Uacute" unicode="&#xda;" horiz-adv-x="679" 
d="M676 675l-82.9971 -0.000976562l-80 -418c-7.33301 -36 -17 -66.5 -29 -91.5s-26.667 -45.167 -44 -60.5s-37.5 -26.333 -60.5 -33s-49.167 -10 -78.5 -10c-50 0 -86 9.33301 -108 28s-33 46.667 -33 84c0 18 2 37.667 6 59l85 442h-84l-84 -439
c-5.33301 -28 -8 -53 -8 -75c0 -24.667 3.66699 -47.5 11 -68.5s19.166 -39.167 35.499 -54.5s38.166 -27.166 65.499 -35.499s61 -12.5 101 -12.5c85.333 0 153.666 20.667 204.999 62s85.333 106.333 102 195zM416.003 719.999l-14 41l186 87l20 -56z" />
    <glyph glyph-name="Ucircumflex" unicode="&#xdb;" horiz-adv-x="679" 
d="M676 675l-82.9971 -0.000976562l-80 -418c-7.33301 -36 -17 -66.5 -29 -91.5s-26.667 -45.167 -44 -60.5s-37.5 -26.333 -60.5 -33s-49.167 -10 -78.5 -10c-50 0 -86 9.33301 -108 28s-33 46.667 -33 84c0 18 2 37.667 6 59l85 442h-84l-84 -439
c-5.33301 -28 -8 -53 -8 -75c0 -24.667 3.66699 -47.5 11 -68.5s19.166 -39.167 35.499 -54.5s38.166 -27.166 65.499 -35.499s61 -12.5 101 -12.5c85.333 0 153.666 20.667 204.999 62s85.333 106.333 102 195zM569.003 720.999l-114 65l-133 -65l-19 43l162 84l134 -83z
" />
    <glyph glyph-name="Udieresis" unicode="&#xdc;" horiz-adv-x="679" 
d="M676 675l-82.9971 -0.000976562l-80 -418c-7.33301 -36 -17 -66.5 -29 -91.5s-26.667 -45.167 -44 -60.5s-37.5 -26.333 -60.5 -33s-49.167 -10 -78.5 -10c-50 0 -86 9.33301 -108 28s-33 46.667 -33 84c0 18 2 37.667 6 59l85 442h-84l-84 -439
c-5.33301 -28 -8 -53 -8 -75c0 -24.667 3.66699 -47.5 11 -68.5s19.166 -39.167 35.499 -54.5s38.166 -27.166 65.499 -35.499s61 -12.5 101 -12.5c85.333 0 153.666 20.667 204.999 62s85.333 106.333 102 195zM378.003 782.999c0 -15.333 -4.99902 -27.833 -14.999 -37.5
s-21.667 -14.5 -35 -14.5c-14 0 -25.667 4.5 -35 13.5s-14 20.167 -14 33.5c0 15.333 5.16699 27.833 15.5 37.5s22.166 14.5 35.499 14.5c14 0 25.5 -4.66699 34.5 -14s13.5 -20.333 13.5 -33zM591.004 782.999c0 -15.333 -4.99902 -27.833 -14.999 -37.5
s-21.667 -14.5 -35 -14.5c-14 0 -25.667 4.66699 -35 14s-14 20.666 -14 33.999c0 14.667 5.16699 26.834 15.5 36.501s22.166 14.5 35.499 14.5c14 0 25.5 -4.66699 34.5 -14s13.5 -20.333 13.5 -33z" />
    <glyph glyph-name="Yacute" unicode="&#xdd;" horiz-adv-x="516" 
d="M301 244l-45.999 -244h-84l46 244l-124 431h88l64 -233c5.33301 -20 10.333 -39.833 15 -59.5s9 -39.167 13 -58.5h1c11.333 20.667 24.166 42 38.499 64l43.5 67l143 220h95zM326.001 720l-14 41l186 87l20 -56z" />
    <glyph glyph-name="Thorn" unicode="&#xde;" horiz-adv-x="511" 
d="M418 388c0 32 -9.33301 57.166 -28 75.499s-51.667 27.5 -99 27.5c-22.667 0 -47.334 -0.666992 -74.001 -2l-51 -270c10 -1.33301 19.833 -2.5 29.5 -3.5s18.834 -1.5 27.501 -1.5c26 0 50.667 4.33301 74 13s44 20.834 62 36.501s32.333 34 43 55s16 44.167 16 69.5z
M253 674.999l-21.999 -113.998c27.333 0.666992 52.666 1 75.999 1c66.667 0 116.667 -14.667 150 -44s50 -68.666 50 -117.999c0 -38 -8.16699 -72.833 -24.5 -104.5s-38.333 -58.834 -66 -81.501s-59.5 -40.334 -95.5 -53.001s-73.333 -19 -112 -19
c-8.66699 0 -18.167 0.166992 -28.5 0.5s-19.833 1.16602 -28.5 2.49902l-28 -145h-84l129 675h84z" />
    <glyph glyph-name="germandbls" unicode="&#xdf;" horiz-adv-x="564" 
d="M540 622c0 -24.667 -4.16699 -45.3311 -12.5 -61.998s-18.833 -31.167 -31.5 -43.5s-26.334 -23.333 -41.001 -33s-28.334 -19.334 -41.001 -29.001s-23.167 -20.5 -31.5 -32.5s-12.5 -26.667 -12.5 -44c0 -21.333 6.5 -39.833 19.5 -55.5s27.167 -31.5 42.5 -47.5
s29.5 -33.333 42.5 -52s19.5 -42 19.5 -70c0 -22 -4.66699 -42.833 -14 -62.5s-23 -36.834 -41 -51.501s-39.667 -26.334 -65 -35.001s-54 -13 -86 -13c-18 0 -33.167 0.5 -45.5 1.5s-24.833 2.83301 -37.5 5.5l15 76c13.333 -4.66699 26 -8.16699 38 -10.5
s25.333 -3.5 40 -3.5c34 0 60.5 7.5 79.5 22.5s28.5 35.167 28.5 60.5c0 21.333 -6.33301 39.833 -19 55.5s-26.667 31.334 -42 47.001s-29.333 32.834 -42 51.501s-19 41.667 -19 69c0 23.333 4.16699 43.166 12.5 59.499s18.833 30.5 31.5 42.5s26.334 22.833 41.001 32.5
s28.334 19.667 41.001 30s23.167 21.833 31.5 34.5s12.5 28 12.5 46c0 18.667 -6.66699 33.5 -20 44.5s-32.333 16.5 -57 16.5c-39.333 0 -72.5 -13 -99.5 -39s-46.167 -68.333 -57.5 -127l-102 -534c-8 -43.333 -18.667 -79.5 -32 -108.5s-29.333 -52.333 -48 -70
s-40.167 -30.334 -64.5 -38.001s-51.5 -11.5 -81.5 -11.5c-11.333 0 -23.333 0.833008 -36 2.5s-24.334 3.5 -35.001 5.5l19 71c10 -2.66699 20.167 -4.66699 30.5 -6s21.5 -2 33.5 -2c18 0 33.833 2.33301 47.5 7s25.834 13 36.501 25s19.667 28 27 48s14 45.667 20 77
l100 529c15.333 82.667 45 142.834 89 180.501s99 56.5 165 56.5c48 0 85.167 -10.833 111.5 -32.5s39.5 -49.5 39.5 -83.5z" />
    <glyph glyph-name="agrave" unicode="&#xe0;" horiz-adv-x="537" 
d="M406 429c-10.667 2.66699 -21.832 4.83203 -33.499 6.49902s-24.834 2.5 -39.501 2.5c-38 0 -70.5 -8.83301 -97.5 -26.5s-49 -40.167 -66 -67.5s-29.333 -57.666 -37 -90.999s-11.5 -65.666 -11.5 -96.999c0 -34 4.83301 -58.167 14.5 -72.5s22.5 -21.5 38.5 -21.5
s32.333 5.16699 49 15.5s32.667 24.333 48 42s30 37.667 44 60s26.667 45.666 38 69.999s21 48.5 29 72.5s13.667 46 17 66l7 41v0zM500.002 489.998l-34.002 -180.001l-24.5 -127.5l-18 -96.5l-15.5 -86h-84c4.66699 22 11.834 50.167 21.501 84.5s22.167 75.5 37.5 123.5
l-2 1c-8.66699 -19.333 -20 -41.666 -34 -66.999s-30.667 -49.166 -50 -71.499s-41.666 -41.333 -66.999 -57s-53.333 -23.5 -84 -23.5c-36 0 -63.333 12 -82 36s-28 62.333 -28 115c0 45.333 6 89.833 18 133.5s30.667 82.5 56 116.5s57.666 61.5 96.999 82.5
s86 31.5 140 31.5c22.667 0 39.834 -0.5 51.501 -1.5s25.5 -2.33301 41.5 -4s36 -4.83398 60 -9.50098zM391 575.997l-138 99l47 60l129 -111z" />
    <glyph glyph-name="aacute" unicode="&#xe1;" horiz-adv-x="537" 
d="M406 429c-10.667 2.66699 -21.832 4.83203 -33.499 6.49902s-24.834 2.5 -39.501 2.5c-38 0 -70.5 -8.83301 -97.5 -26.5s-49 -40.167 -66 -67.5s-29.333 -57.666 -37 -90.999s-11.5 -65.666 -11.5 -96.999c0 -34 4.83301 -58.167 14.5 -72.5s22.5 -21.5 38.5 -21.5
s32.333 5.16699 49 15.5s32.667 24.333 48 42s30 37.667 44 60s26.667 45.666 38 69.999s21 48.5 29 72.5s13.667 46 17 66l7 41v0zM500.002 489.998l-34.002 -180.001l-24.5 -127.5l-18 -96.5l-15.5 -86h-84c4.66699 22 11.834 50.167 21.501 84.5s22.167 75.5 37.5 123.5
l-2 1c-8.66699 -19.333 -20 -41.666 -34 -66.999s-30.667 -49.166 -50 -71.499s-41.666 -41.333 -66.999 -57s-53.333 -23.5 -84 -23.5c-36 0 -63.333 12 -82 36s-28 62.333 -28 115c0 45.333 6 89.833 18 133.5s30.667 82.5 56 116.5s57.666 61.5 96.999 82.5
s86 31.5 140 31.5c22.667 0 39.834 -0.5 51.501 -1.5s25.5 -2.33301 41.5 -4s36 -4.83398 60 -9.50098zM356 576.997l-33 47l146 111l41 -59z" />
    <glyph glyph-name="acircumflex" unicode="&#xe2;" horiz-adv-x="537" 
d="M406 429c-10.667 2.66699 -21.832 4.83203 -33.499 6.49902s-24.834 2.5 -39.501 2.5c-38 0 -70.5 -8.83301 -97.5 -26.5s-49 -40.167 -66 -67.5s-29.333 -57.666 -37 -90.999s-11.5 -65.666 -11.5 -96.999c0 -34 4.83301 -58.167 14.5 -72.5s22.5 -21.5 38.5 -21.5
s32.333 5.16699 49 15.5s32.667 24.333 48 42s30 37.667 44 60s26.667 45.666 38 69.999s21 48.5 29 72.5s13.667 46 17 66l7 41v0zM500.002 489.998l-34.002 -180.001l-24.5 -127.5l-18 -96.5l-15.5 -86h-84c4.66699 22 11.834 50.167 21.501 84.5s22.167 75.5 37.5 123.5
l-2 1c-8.66699 -19.333 -20 -41.666 -34 -66.999s-30.667 -49.166 -50 -71.499s-41.666 -41.333 -66.999 -57s-53.333 -23.5 -84 -23.5c-36 0 -63.333 12 -82 36s-28 62.333 -28 115c0 45.333 6 89.833 18 133.5s30.667 82.5 56 116.5s57.666 61.5 96.999 82.5
s86 31.5 140 31.5c22.667 0 39.834 -0.5 51.501 -1.5s25.5 -2.33301 41.5 -4s36 -4.83398 60 -9.50098zM469 581.997l-99 68l-107 -68l-30 47l143 94l131 -92z" />
    <glyph glyph-name="atilde" unicode="&#xe3;" horiz-adv-x="537" 
d="M406 429c-10.667 2.66699 -21.832 4.83203 -33.499 6.49902s-24.834 2.5 -39.501 2.5c-38 0 -70.5 -8.83301 -97.5 -26.5s-49 -40.167 -66 -67.5s-29.333 -57.666 -37 -90.999s-11.5 -65.666 -11.5 -96.999c0 -34 4.83301 -58.167 14.5 -72.5s22.5 -21.5 38.5 -21.5
s32.333 5.16699 49 15.5s32.667 24.333 48 42s30 37.667 44 60s26.667 45.666 38 69.999s21 48.5 29 72.5s13.667 46 17 66l7 41v0zM500.002 489.998l-34.002 -180.001l-24.5 -127.5l-18 -96.5l-15.5 -86h-84c4.66699 22 11.834 50.167 21.501 84.5s22.167 75.5 37.5 123.5
l-2 1c-8.66699 -19.333 -20 -41.666 -34 -66.999s-30.667 -49.166 -50 -71.499s-41.666 -41.333 -66.999 -57s-53.333 -23.5 -84 -23.5c-36 0 -63.333 12 -82 36s-28 62.333 -28 115c0 45.333 6 89.833 18 133.5s30.667 82.5 56 116.5s57.666 61.5 96.999 82.5
s86 31.5 140 31.5c22.667 0 39.834 -0.5 51.501 -1.5s25.5 -2.33301 41.5 -4s36 -4.83398 60 -9.50098zM534 632.997c-12 -9.33301 -26.333 -17.666 -43 -24.999s-33.667 -11 -51 -11s-32 2.5 -44 7.5s-23.333 10.333 -34 16l-31.5 16c-10.333 5 -22.833 7.5 -37.5 7.5
c-13.333 0 -25.833 -2.83301 -37.5 -8.5s-22.167 -12.834 -31.5 -21.501l-12 57c12 11.333 26.167 20.5 42.5 27.5s33.166 10.5 50.499 10.5c16.667 0 31 -2.5 43 -7.5s23.333 -10.333 34 -16s21.334 -11 32.001 -16s23 -7.5 37 -7.5c27.333 0 51 9.66699 71 29l12 -58v0z
" />
    <glyph glyph-name="adieresis" unicode="&#xe4;" horiz-adv-x="537" 
d="M406 429c-10.667 2.66699 -21.832 4.83203 -33.499 6.49902s-24.834 2.5 -39.501 2.5c-38 0 -70.5 -8.83301 -97.5 -26.5s-49 -40.167 -66 -67.5s-29.333 -57.666 -37 -90.999s-11.5 -65.666 -11.5 -96.999c0 -34 4.83301 -58.167 14.5 -72.5s22.5 -21.5 38.5 -21.5
s32.333 5.16699 49 15.5s32.667 24.333 48 42s30 37.667 44 60s26.667 45.666 38 69.999s21 48.5 29 72.5s13.667 46 17 66l7 41v0zM500.002 489.998l-34.002 -180.001l-24.5 -127.5l-18 -96.5l-15.5 -86h-84c4.66699 22 11.834 50.167 21.501 84.5s22.167 75.5 37.5 123.5
l-2 1c-8.66699 -19.333 -20 -41.666 -34 -66.999s-30.667 -49.166 -50 -71.499s-41.666 -41.333 -66.999 -57s-53.333 -23.5 -84 -23.5c-36 0 -63.333 12 -82 36s-28 62.333 -28 115c0 45.333 6 89.833 18 133.5s30.667 82.5 56 116.5s57.666 61.5 96.999 82.5
s86 31.5 140 31.5c22.667 0 39.834 -0.5 51.501 -1.5s25.5 -2.33301 41.5 -4s36 -4.83398 60 -9.50098zM317 657.997c0 -16 -4.99902 -28.999 -14.999 -38.999s-22.333 -15 -37 -15s-26.834 4.83301 -36.501 14.5s-14.5 21.167 -14.5 34.5
c0 15.333 5.16699 28.166 15.5 38.499s22.833 15.5 37.5 15.5s26.667 -4.83301 36 -14.5s14 -21.167 14 -34.5zM508.001 657.998c0 -16 -5.16699 -29 -15.5 -39s-22.833 -15 -37.5 -15s-26.834 4.83301 -36.501 14.5s-14.5 21.5 -14.5 35.5c0 15.333 5.33301 28 16 38
s23.334 15 38.001 15s26.667 -4.83301 36 -14.5s14 -21.167 14 -34.5z" />
    <glyph glyph-name="aring" unicode="&#xe5;" horiz-adv-x="537" 
d="M406 429c-10.667 2.66699 -21.832 4.83203 -33.499 6.49902s-24.834 2.5 -39.501 2.5c-38 0 -70.5 -8.83301 -97.5 -26.5s-49 -40.167 -66 -67.5s-29.333 -57.666 -37 -90.999s-11.5 -65.666 -11.5 -96.999c0 -34 4.83301 -58.167 14.5 -72.5s22.5 -21.5 38.5 -21.5
s32.333 5.16699 49 15.5s32.667 24.333 48 42s30 37.667 44 60s26.667 45.666 38 69.999s21 48.5 29 72.5s13.667 46 17 66l7 41v0zM500.002 489.998l-34.002 -180.001l-24.5 -127.5l-18 -96.5l-15.5 -86h-84c4.66699 22 11.834 50.167 21.501 84.5s22.167 75.5 37.5 123.5
l-2 1c-8.66699 -19.333 -20 -41.666 -34 -66.999s-30.667 -49.166 -50 -71.499s-41.666 -41.333 -66.999 -57s-53.333 -23.5 -84 -23.5c-36 0 -63.333 12 -82 36s-28 62.333 -28 115c0 45.333 6 89.833 18 133.5s30.667 82.5 56 116.5s57.666 61.5 96.999 82.5
s86 31.5 140 31.5c22.667 0 39.834 -0.5 51.501 -1.5s25.5 -2.33301 41.5 -4s36 -4.83398 60 -9.50098zM441 672.997c0.666992 15.333 -4.16602 28.498 -14.499 39.498s-23.166 16.5 -38.499 16.5c-16 0 -29.333 -5.66699 -40 -17s-16.334 -24.666 -17.001 -39.999
s4 -28.666 14 -39.999s22.667 -17 38 -17s28.666 5.66699 39.999 17s17.333 25 18 41zM495 673.995c-0.666992 -15.333 -3.99902 -29.666 -9.99902 -42.999s-14.167 -24.833 -24.5 -34.5s-22.333 -17.334 -36 -23.001s-28.167 -8.5 -43.5 -8.5
c-31.333 0 -56.833 10 -76.5 30s-29.167 45.333 -28.5 76c0 16 3.16699 30.667 9.5 44s14.833 24.833 25.5 34.5s22.667 17.167 36 22.5s27.666 8 42.999 8s29.5 -2.66699 42.5 -8s24.333 -12.833 34 -22.5s17 -21 22 -34s7.16699 -26.833 6.5 -41.5z" />
    <glyph glyph-name="ae" unicode="&#xe6;" horiz-adv-x="767" 
d="M336 222c-33.333 -2 -64.002 -5 -92.002 -9s-52.167 -10 -72.5 -18s-36.166 -18.667 -47.499 -32s-17 -30 -17 -50c0 -16.667 5.66699 -30 17 -40s26 -15 44 -15c20.667 0 40.334 4.5 59.001 13.5s35.5 21 50.5 36s27.5 32.333 37.5 52s17 40.5 21 62.5zM659.998 384
c0 18.667 -6.33203 33.001 -18.999 43.001s-29.334 15 -50.001 15c-20 0 -38.333 -4.16699 -55 -12.5s-31.667 -19.5 -45 -33.5s-24.833 -30.5 -34.5 -49.5s-17.5 -39.167 -23.5 -60.5c34 2 64.833 5 92.5 9s51.5 9.66699 71.5 17s35.5 16.666 46.5 27.999s16.5 26 16.5 44z
M744.999 394.001c0 -23.333 -4.83105 -44.666 -14.498 -63.999s-26.834 -36.333 -51.501 -51s-58 -26.834 -100 -36.501s-95 -16.167 -159 -19.5c-1.33301 -8 -2.33301 -17.833 -3 -29.5s-1 -22.5 -1 -32.5c0 -20 1.83301 -36.5 5.5 -49.5s9.83398 -23.333 18.501 -31
s20 -13 34 -16s31 -4.5 51 -4.5c24 0 48 2.5 72 7.5s46.667 12.167 68 21.5v-68c-23.333 -9.33301 -49.166 -16.666 -77.499 -21.999s-58.833 -8 -91.5 -8c-26.667 0 -49.167 2.83301 -67.5 8.5s-33.5 13.5 -45.5 23.5s-21.333 22 -28 36s-11.667 29 -15 45
c-8 -14 -18.667 -27.833 -32 -41.5s-28.5 -25.834 -45.5 -36.501s-35.667 -19.167 -56 -25.5s-41.5 -9.5 -63.5 -9.5c-42 0 -72.667 9.5 -92 28.5s-29 43.5 -29 73.5c0 34.667 8.5 63.667 25.5 87s40.167 42.333 69.5 57s63.833 25.5 103.5 32.5s82.167 11.833 127.5 14.5
l8 34c9.33301 40 7.83301 70.333 -4.5 91s-39.166 31 -80.499 31c-22.667 0 -47.834 -3.83301 -75.501 -11.5s-52.834 -18.167 -75.501 -31.5v74c25.333 10.667 52.333 19.334 81 26.001s57 10 85 10c24 0 44.333 -2.16699 61 -6.5s30.334 -10.166 41.001 -17.499
s19.167 -15.666 25.5 -24.999s11.166 -19.333 14.499 -30c8.66699 10 19 19.667 31 29s25.5 17.666 40.5 24.999s31 13.166 48 17.499s34.833 6.5 53.5 6.5c26 0 48.167 -3 66.5 -9s33.166 -14.167 44.499 -24.5s19.666 -22.333 24.999 -36s8 -27.834 8 -42.501z" />
    <glyph glyph-name="ccedilla" unicode="&#xe7;" horiz-adv-x="432" 
d="M416 407c-29.333 19.333 -64.332 29 -104.999 29c-30 0 -56.5 -8 -79.5 -24s-42.333 -36.833 -58 -62.5s-27.667 -54 -36 -85s-12.5 -61.5 -12.5 -91.5c0 -34 7.83301 -60.333 23.5 -79s42.5 -28 80.5 -28c26 0 50.5 3 73.5 9s43.167 13.667 60.5 23l6 -71
c-23.333 -11.333 -48.5 -19.833 -75.5 -25.5s-54.167 -8.5 -81.5 -8.5c-62 0 -106.833 14.5 -134.5 43.5s-41.5 68.833 -41.5 119.5c0 42 5.66699 83.833 17 125.5s28.666 79 51.999 112s53 59.833 89 80.5s78.667 31 128 31c21.333 0 42.5 -2 63.5 -6
s41.833 -11.667 62.5 -23zM226.001 -51c4.66699 -16 6.5 -32 5.5 -48s-6 -32 -15 -48s-22.333 -31.833 -40 -47.5s-41.167 -31.167 -70.5 -46.5l-32 38c36 23.333 59.167 47.5 69.5 72.5s10.833 51.5 1.5 79.5h81v0z" />
    <glyph glyph-name="egrave" unicode="&#xe8;" horiz-adv-x="476" 
d="M369 384c0 18.667 -6.33203 33 -18.999 43s-29.334 15 -50.001 15c-20 0 -38.5 -4.16699 -55.5 -12.5s-32.167 -19.5 -45.5 -33.5s-24.833 -30.5 -34.5 -49.5s-17.5 -39.5 -23.5 -61.5c80 3.33301 138 13 174 29s54 39.333 54 70zM454.001 394
c0 -52.667 -26.834 -93.666 -80.501 -122.999s-134.834 -46 -243.501 -50c-1.33301 -7.33301 -2.5 -16.833 -3.5 -28.5s-1.5 -22.167 -1.5 -31.5c0 -40 7.66699 -66.833 23 -80.5s42 -20.5 80 -20.5c24.667 0 49.834 2.66699 75.501 8s48.834 12.666 69.501 21.999l7 -67
c-23.333 -9.33301 -50.166 -17 -80.499 -23s-61.833 -9 -94.5 -9c-56.667 0 -98.5 12.5 -125.5 37.5s-40.5 65.833 -40.5 122.5c0 48 6.33301 93.333 19 136s30.667 80.334 54 113.001s51.666 58.5 84.999 77.5s71 28.5 113 28.5c26 0 48 -3 66 -9
s32.833 -14.167 44.5 -24.5s20.167 -22.333 25.5 -36s8 -27.834 8 -42.501zM355 576.001l-138 99l47 60l129 -111z" />
    <glyph glyph-name="eacute" unicode="&#xe9;" horiz-adv-x="476" 
d="M369 384c0 18.667 -6.33203 33 -18.999 43s-29.334 15 -50.001 15c-20 0 -38.5 -4.16699 -55.5 -12.5s-32.167 -19.5 -45.5 -33.5s-24.833 -30.5 -34.5 -49.5s-17.5 -39.5 -23.5 -61.5c80 3.33301 138 13 174 29s54 39.333 54 70zM454.001 394
c0 -52.667 -26.834 -93.666 -80.501 -122.999s-134.834 -46 -243.501 -50c-1.33301 -7.33301 -2.5 -16.833 -3.5 -28.5s-1.5 -22.167 -1.5 -31.5c0 -40 7.66699 -66.833 23 -80.5s42 -20.5 80 -20.5c24.667 0 49.834 2.66699 75.501 8s48.834 12.666 69.501 21.999l7 -67
c-23.333 -9.33301 -50.166 -17 -80.499 -23s-61.833 -9 -94.5 -9c-56.667 0 -98.5 12.5 -125.5 37.5s-40.5 65.833 -40.5 122.5c0 48 6.33301 93.333 19 136s30.667 80.334 54 113.001s51.666 58.5 84.999 77.5s71 28.5 113 28.5c26 0 48 -3 66 -9
s32.833 -14.167 44.5 -24.5s20.167 -22.333 25.5 -36s8 -27.834 8 -42.501zM306 577.001l-33 47l146 111l41 -59z" />
    <glyph glyph-name="ecircumflex" unicode="&#xea;" horiz-adv-x="476" 
d="M369 384c0 18.667 -6.33203 33 -18.999 43s-29.334 15 -50.001 15c-20 0 -38.5 -4.16699 -55.5 -12.5s-32.167 -19.5 -45.5 -33.5s-24.833 -30.5 -34.5 -49.5s-17.5 -39.5 -23.5 -61.5c80 3.33301 138 13 174 29s54 39.333 54 70zM454.001 394
c0 -52.667 -26.834 -93.666 -80.501 -122.999s-134.834 -46 -243.501 -50c-1.33301 -7.33301 -2.5 -16.833 -3.5 -28.5s-1.5 -22.167 -1.5 -31.5c0 -40 7.66699 -66.833 23 -80.5s42 -20.5 80 -20.5c24.667 0 49.834 2.66699 75.501 8s48.834 12.666 69.501 21.999l7 -67
c-23.333 -9.33301 -50.166 -17 -80.499 -23s-61.833 -9 -94.5 -9c-56.667 0 -98.5 12.5 -125.5 37.5s-40.5 65.833 -40.5 122.5c0 48 6.33301 93.333 19 136s30.667 80.334 54 113.001s51.666 58.5 84.999 77.5s71 28.5 113 28.5c26 0 48 -3 66 -9
s32.833 -14.167 44.5 -24.5s20.167 -22.333 25.5 -36s8 -27.834 8 -42.501zM421 582.001l-99 68l-107 -68l-30 47l143 94l131 -92z" />
    <glyph glyph-name="edieresis" unicode="&#xeb;" horiz-adv-x="476" 
d="M369 384c0 18.667 -6.33203 33 -18.999 43s-29.334 15 -50.001 15c-20 0 -38.5 -4.16699 -55.5 -12.5s-32.167 -19.5 -45.5 -33.5s-24.833 -30.5 -34.5 -49.5s-17.5 -39.5 -23.5 -61.5c80 3.33301 138 13 174 29s54 39.333 54 70zM454.001 394
c0 -52.667 -26.834 -93.666 -80.501 -122.999s-134.834 -46 -243.501 -50c-1.33301 -7.33301 -2.5 -16.833 -3.5 -28.5s-1.5 -22.167 -1.5 -31.5c0 -40 7.66699 -66.833 23 -80.5s42 -20.5 80 -20.5c24.667 0 49.834 2.66699 75.501 8s48.834 12.666 69.501 21.999l7 -67
c-23.333 -9.33301 -50.166 -17 -80.499 -23s-61.833 -9 -94.5 -9c-56.667 0 -98.5 12.5 -125.5 37.5s-40.5 65.833 -40.5 122.5c0 48 6.33301 93.333 19 136s30.667 80.334 54 113.001s51.666 58.5 84.999 77.5s71 28.5 113 28.5c26 0 48 -3 66 -9
s32.833 -14.167 44.5 -24.5s20.167 -22.333 25.5 -36s8 -27.834 8 -42.501zM292 658.001c0 -16 -4.99902 -28.999 -14.999 -38.999s-22.333 -15 -37 -15s-26.834 4.83301 -36.501 14.5s-14.5 21.167 -14.5 34.5c0 15.333 5.16699 28.166 15.5 38.499s22.833 15.5 37.5 15.5
s26.667 -4.83301 36 -14.5s14 -21.167 14 -34.5zM483.001 658.002c0 -16 -5.16699 -29 -15.5 -39s-22.833 -15 -37.5 -15s-26.834 4.83301 -36.501 14.5s-14.5 21.5 -14.5 35.5c0 15.333 5.33301 28 16 38s23.334 15 38.001 15s26.667 -4.83301 36 -14.5
s14 -21.167 14 -34.5z" />
    <glyph glyph-name="igrave" unicode="&#xec;" horiz-adv-x="253" 
d="M122 0h-82l95 497h82zM226 576l-138 99l47 60l129 -111z" />
    <glyph glyph-name="iacute" unicode="&#xed;" horiz-adv-x="253" 
d="M122 0h-82l95 497h82zM157 577l-33 47l146 111l41 -59z" />
    <glyph glyph-name="icircumflex" unicode="&#xee;" horiz-adv-x="253" 
d="M122 0h-82l95 497h82zM300 582l-99 68l-107 -68l-30 47l143 94l131 -92z" />
    <glyph glyph-name="idieresis" unicode="&#xef;" horiz-adv-x="253" 
d="M122 0h-82l95 497h82zM162 658c0 -16 -4.99902 -28.999 -14.999 -38.999s-22.333 -15 -37 -15s-26.834 4.83301 -36.501 14.5s-14.5 21.167 -14.5 34.5c0 15.333 5.16699 28.166 15.5 38.499s22.833 15.5 37.5 15.5s26.667 -4.83301 36 -14.5s14 -21.167 14 -34.5z
M353.001 658.001c0 -16 -5.16699 -29 -15.5 -39s-22.833 -15 -37.5 -15s-26.834 4.83301 -36.501 14.5s-14.5 21.5 -14.5 35.5c0 15.333 5.33301 28 16 38s23.334 15 38.001 15s26.667 -4.83301 36 -14.5s14 -21.167 14 -34.5z" />
    <glyph glyph-name="eth" unicode="&#xf0;" horiz-adv-x="556" 
d="M406 429c-10.667 2.66699 -21.832 4.83203 -33.499 6.49902s-24.834 2.5 -39.501 2.5c-38 0 -70.5 -8.83301 -97.5 -26.5s-49 -40.167 -66 -67.5s-29.333 -57.666 -37 -90.999s-11.5 -65.666 -11.5 -96.999c0 -34 4.83301 -58.167 14.5 -72.5s22.5 -21.5 38.5 -21.5
s32.333 5.16699 49 15.5s32.667 24.333 48 42s30 37.667 44 60s26.667 45.666 38 69.999s21 48.5 29 72.5s13.667 46 17 66l7 41v0zM522.002 607.998l-114 -608.001h-83c8 43.333 27.333 112.666 58 207.999l-2 1c-8.66699 -19.333 -20 -41.666 -34 -66.999
s-30.667 -49.166 -50 -71.499s-41.666 -41.333 -66.999 -57s-53.333 -23.5 -84 -23.5c-36 0 -63.333 12 -82 36s-28 62.333 -28 115c0 45.333 6 89.833 18 133.5s30.667 82.5 56 116.5s57.666 61.5 96.999 82.5s86 31.5 140 31.5c13.333 0 25.5 -0.5 36.5 -1.5
s22.833 -2.5 35.5 -4.5l17 89l-98 -25l-7 60l117 30l14 77h84l-11 -57l89 23l6 -60z" />
    <glyph glyph-name="ntilde" unicode="&#xf1;" horiz-adv-x="564" 
d="M433 0l-82.998 -0.00292969l61 319c7.33301 40 7.5 69.333 0.5 88s-22.167 28 -45.5 28c-16 0 -32 -5.16699 -48 -15.5s-31.5 -24 -46.5 -41s-29.5 -36.833 -43.5 -59.5s-26.5 -46 -37.5 -70s-20.667 -48 -29 -72s-14.5 -46.333 -18.5 -67l-21 -110h-82l51 264
c7.33301 35.333 14.666 73.5 21.999 114.5l21 118.5h82c-3.33301 -16.667 -9 -40.667 -17 -72s-21 -74.666 -39 -129.999h2c12 26.667 25.833 52.834 41.5 78.501s33.167 48.334 52.5 68.001s40.666 35.5 63.999 47.5s48 18 74 18c46 0 77.333 -15.167 94 -45.5
s20 -71.833 10 -124.5zM519.002 632.997c-12 -9.33301 -26.333 -17.666 -43 -24.999s-33.667 -11 -51 -11s-32 2.5 -44 7.5s-23.333 10.333 -34 16l-31.5 16c-10.333 5 -22.833 7.5 -37.5 7.5c-13.333 0 -25.833 -2.83301 -37.5 -8.5s-22.167 -12.834 -31.5 -21.501l-12 57
c12 11.333 26.167 20.5 42.5 27.5s33.166 10.5 50.499 10.5c16.667 0 31 -2.5 43 -7.5s23.333 -10.333 34 -16s21.334 -11 32.001 -16s23 -7.5 37 -7.5c27.333 0 51 9.66699 71 29l12 -58v0z" />
    <glyph glyph-name="ograve" unicode="&#xf2;" horiz-adv-x="538" 
d="M421 318c0 38 -8.83398 67.001 -26.501 87.001s-45.167 30 -82.5 30c-28 -2.66699 -53.5 -10.5 -76.5 -23.5s-42.667 -31.167 -59 -54.5s-29 -50.333 -38 -81s-13.5 -62 -13.5 -94c0 -38.667 8.5 -68.167 25.5 -88.5s44.833 -30.5 83.5 -30.5
c24.667 0 48.334 6.16699 71.001 18.5s42.5 29.833 59.5 52.5s30.667 49.667 41 81s15.5 65.666 15.5 102.999zM507.999 327.001c0 -51.333 -8.16992 -97.666 -24.5029 -138.999s-38 -76.666 -65 -105.999s-57.833 -51.833 -92.5 -67.5s-70.667 -23.5 -108 -23.5
c-62 0 -107.5 15.167 -136.5 45.5s-43.5 74.166 -43.5 131.499c0 49.333 7.33301 94.666 22 135.999s34.834 77 60.501 107s55.834 53.333 90.501 70s72.334 25 113.001 25c32 0 59.667 -4.33301 83 -13s42.5 -21 57.5 -37s26 -35 33 -57s10.5 -46 10.5 -72z
M369.996 576.001l-138 99l47 60l129 -111z" />
    <glyph glyph-name="oacute" unicode="&#xf3;" horiz-adv-x="538" 
d="M421 318c0 38 -8.83398 67.001 -26.501 87.001s-45.167 30 -82.5 30c-28 -2.66699 -53.5 -10.5 -76.5 -23.5s-42.667 -31.167 -59 -54.5s-29 -50.333 -38 -81s-13.5 -62 -13.5 -94c0 -38.667 8.5 -68.167 25.5 -88.5s44.833 -30.5 83.5 -30.5
c24.667 0 48.334 6.16699 71.001 18.5s42.5 29.833 59.5 52.5s30.667 49.667 41 81s15.5 65.666 15.5 102.999zM507.999 327.001c0 -51.333 -8.16992 -97.666 -24.5029 -138.999s-38 -76.666 -65 -105.999s-57.833 -51.833 -92.5 -67.5s-70.667 -23.5 -108 -23.5
c-62 0 -107.5 15.167 -136.5 45.5s-43.5 74.166 -43.5 131.499c0 49.333 7.33301 94.666 22 135.999s34.834 77 60.501 107s55.834 53.333 90.501 70s72.334 25 113.001 25c32 0 59.667 -4.33301 83 -13s42.5 -21 57.5 -37s26 -35 33 -57s10.5 -46 10.5 -72z
M325.996 577.001l-33 47l146 111l41 -59z" />
    <glyph glyph-name="ocircumflex" unicode="&#xf4;" horiz-adv-x="538" 
d="M421 318c0 38 -8.83398 67.001 -26.501 87.001s-45.167 30 -82.5 30c-28 -2.66699 -53.5 -10.5 -76.5 -23.5s-42.667 -31.167 -59 -54.5s-29 -50.333 -38 -81s-13.5 -62 -13.5 -94c0 -38.667 8.5 -68.167 25.5 -88.5s44.833 -30.5 83.5 -30.5
c24.667 0 48.334 6.16699 71.001 18.5s42.5 29.833 59.5 52.5s30.667 49.667 41 81s15.5 65.666 15.5 102.999zM507.999 327.001c0 -51.333 -8.16992 -97.666 -24.5029 -138.999s-38 -76.666 -65 -105.999s-57.833 -51.833 -92.5 -67.5s-70.667 -23.5 -108 -23.5
c-62 0 -107.5 15.167 -136.5 45.5s-43.5 74.166 -43.5 131.499c0 49.333 7.33301 94.666 22 135.999s34.834 77 60.501 107s55.834 53.333 90.501 70s72.334 25 113.001 25c32 0 59.667 -4.33301 83 -13s42.5 -21 57.5 -37s26 -35 33 -57s10.5 -46 10.5 -72z
M456.996 582.001l-99 68l-107 -68l-30 47l143 94l131 -92z" />
    <glyph glyph-name="otilde" unicode="&#xf5;" horiz-adv-x="538" 
d="M421 318c0 38 -8.83398 67.001 -26.501 87.001s-45.167 30 -82.5 30c-28 -2.66699 -53.5 -10.5 -76.5 -23.5s-42.667 -31.167 -59 -54.5s-29 -50.333 -38 -81s-13.5 -62 -13.5 -94c0 -38.667 8.5 -68.167 25.5 -88.5s44.833 -30.5 83.5 -30.5
c24.667 0 48.334 6.16699 71.001 18.5s42.5 29.833 59.5 52.5s30.667 49.667 41 81s15.5 65.666 15.5 102.999zM507.999 327.001c0 -51.333 -8.16992 -97.666 -24.5029 -138.999s-38 -76.666 -65 -105.999s-57.833 -51.833 -92.5 -67.5s-70.667 -23.5 -108 -23.5
c-62 0 -107.5 15.167 -136.5 45.5s-43.5 74.166 -43.5 131.499c0 49.333 7.33301 94.666 22 135.999s34.834 77 60.501 107s55.834 53.333 90.501 70s72.334 25 113.001 25c32 0 59.667 -4.33301 83 -13s42.5 -21 57.5 -37s26 -35 33 -57s10.5 -46 10.5 -72z
M513.996 633.001c-12 -9.33301 -26.333 -17.666 -43 -24.999s-33.667 -11 -51 -11s-32 2.5 -44 7.5s-23.333 10.333 -34 16l-31.5 16c-10.333 5 -22.833 7.5 -37.5 7.5c-13.333 0 -25.833 -2.83301 -37.5 -8.5s-22.167 -12.834 -31.5 -21.501l-12 57
c12 11.333 26.167 20.5 42.5 27.5s33.166 10.5 50.499 10.5c16.667 0 31 -2.5 43 -7.5s23.333 -10.333 34 -16s21.334 -11 32.001 -16s23 -7.5 37 -7.5c27.333 0 51 9.66699 71 29l12 -58v0z" />
    <glyph glyph-name="odieresis" unicode="&#xf6;" horiz-adv-x="538" 
d="M421 318c0 38 -8.83398 67.001 -26.501 87.001s-45.167 30 -82.5 30c-28 -2.66699 -53.5 -10.5 -76.5 -23.5s-42.667 -31.167 -59 -54.5s-29 -50.333 -38 -81s-13.5 -62 -13.5 -94c0 -38.667 8.5 -68.167 25.5 -88.5s44.833 -30.5 83.5 -30.5
c24.667 0 48.334 6.16699 71.001 18.5s42.5 29.833 59.5 52.5s30.667 49.667 41 81s15.5 65.666 15.5 102.999zM507.999 327.001c0 -51.333 -8.16992 -97.666 -24.5029 -138.999s-38 -76.666 -65 -105.999s-57.833 -51.833 -92.5 -67.5s-70.667 -23.5 -108 -23.5
c-62 0 -107.5 15.167 -136.5 45.5s-43.5 74.166 -43.5 131.499c0 49.333 7.33301 94.666 22 135.999s34.834 77 60.501 107s55.834 53.333 90.501 70s72.334 25 113.001 25c32 0 59.667 -4.33301 83 -13s42.5 -21 57.5 -37s26 -35 33 -57s10.5 -46 10.5 -72z
M312.996 658.001c0 -16 -4.99902 -28.999 -14.999 -38.999s-22.333 -15 -37 -15s-26.834 4.83301 -36.501 14.5s-14.5 21.167 -14.5 34.5c0 15.333 5.16699 28.166 15.5 38.499s22.833 15.5 37.5 15.5s26.667 -4.83301 36 -14.5s14 -21.167 14 -34.5zM503.997 658.002
c0 -16 -5.16699 -29 -15.5 -39s-22.833 -15 -37.5 -15s-26.834 4.83301 -36.501 14.5s-14.5 21.5 -14.5 35.5c0 15.333 5.33301 28 16 38s23.334 15 38.001 15s26.667 -4.83301 36 -14.5s14 -21.167 14 -34.5z" />
    <glyph glyph-name="divide" unicode="&#xf7;" 
d="M288 58c0 -16.667 -5.83301 -30.834 -17.5 -42.501s-25.167 -17.5 -40.5 -17.5c-16 0 -29.333 5.33301 -40 16s-16 23.667 -16 39c0 16.667 5.83301 30.667 17.5 42s25.167 17 40.5 17c16 0 29.333 -5.16699 40 -15.5s16 -23.166 16 -38.499zM490 224h-453l13 67h453z
M366 461c0 -16.667 -5.66699 -30.667 -17 -42s-25 -17 -41 -17s-29.167 5.33301 -39.5 16s-15.5 23.667 -15.5 39c0 16.667 5.66699 30.667 17 42s25 17 41 17s29.167 -5.33301 39.5 -16s15.5 -23.667 15.5 -39z" />
    <glyph glyph-name="oslash" unicode="&#xf8;" horiz-adv-x="538" 
d="M339 435c-10 1.33301 -21.002 1.99902 -33.002 1.99902c-26.667 -0.666992 -51.167 -8 -73.5 -22s-41.666 -32.5 -57.999 -55.5s-29.166 -49.667 -38.499 -80s-14 -61.833 -14 -94.5c0 -39.333 8.66699 -68.666 26 -87.999l191 338v0zM425.998 317.999
c0 43.333 -12.333 74.333 -37 93l-194 -345c14 -4 30 -5.66699 48 -5c24.667 0.666992 48 7.66699 70 21s41.333 31.5 58 54.5s30 50 40 81s15 64.5 15 100.5zM509.998 326.999c0 -51.333 -8.16992 -97.668 -24.5029 -139.001s-38 -76.666 -65 -105.999
s-57.833 -51.833 -92.5 -67.5s-70.667 -23.5 -108 -23.5c-11.333 0 -22.166 0.5 -32.499 1.5s-20.166 3.16699 -29.499 6.5l-58 -102l-51 27l55 97c-21.333 14 -37.333 33.5 -48 58.5s-16 54.5 -16 88.5c0 48 7 92.667 21 134s33.5 77 58.5 107s55.167 53.667 90.5 71
s74 26 116 26c16.667 0 33.334 -1.66699 50.001 -5l56 99l51 -25l-52 -92c27.333 -15.333 47.333 -36.333 60 -63s19 -57.667 19 -93z" />
    <glyph glyph-name="ugrave" unicode="&#xf9;" horiz-adv-x="564" 
d="M434 0h-82.998c3.33301 16.667 9 40.667 17 72s21 74.666 39 129.999h-2c-12 -27.333 -25.833 -53.666 -41.5 -78.999s-33.334 -47.833 -53.001 -67.5s-41 -35.5 -64 -47.5s-47.5 -18 -73.5 -18c-46 0 -77.167 15.167 -93.5 45.5s-19.5 71.833 -9.5 124.5l64 337h83
l-61 -319c-7.33301 -40 -7.5 -69.333 -0.5 -88s22.167 -28 45.5 -28c16 0 32.167 5.16699 48.5 15.5s32.166 24 47.499 41s29.833 36.833 43.5 59.5s26.167 46 37.5 70s21 48 29 72s14 46.333 18 67l20 110h83zM375.002 576l-138 99l47 60l129 -111z" />
    <glyph glyph-name="uacute" unicode="&#xfa;" horiz-adv-x="564" 
d="M434 0h-82.998c3.33301 16.667 9 40.667 17 72s21 74.666 39 129.999h-2c-12 -27.333 -25.833 -53.666 -41.5 -78.999s-33.334 -47.833 -53.001 -67.5s-41 -35.5 -64 -47.5s-47.5 -18 -73.5 -18c-46 0 -77.167 15.167 -93.5 45.5s-19.5 71.833 -9.5 124.5l64 337h83
l-61 -319c-7.33301 -40 -7.5 -69.333 -0.5 -88s22.167 -28 45.5 -28c16 0 32.167 5.16699 48.5 15.5s32.166 24 47.499 41s29.833 36.833 43.5 59.5s26.167 46 37.5 70s21 48 29 72s14 46.333 18 67l20 110h83zM320.002 577l-33 47l146 111l41 -59z" />
    <glyph glyph-name="ucircumflex" unicode="&#xfb;" horiz-adv-x="564" 
d="M434 0h-82.998c3.33301 16.667 9 40.667 17 72s21 74.666 39 129.999h-2c-12 -27.333 -25.833 -53.666 -41.5 -78.999s-33.334 -47.833 -53.001 -67.5s-41 -35.5 -64 -47.5s-47.5 -18 -73.5 -18c-46 0 -77.167 15.167 -93.5 45.5s-19.5 71.833 -9.5 124.5l64 337h83
l-61 -319c-7.33301 -40 -7.5 -69.333 -0.5 -88s22.167 -28 45.5 -28c16 0 32.167 5.16699 48.5 15.5s32.166 24 47.499 41s29.833 36.833 43.5 59.5s26.167 46 37.5 70s21 48 29 72s14 46.333 18 67l20 110h83zM450.002 582l-99 68l-107 -68l-30 47l143 94l131 -92z" />
    <glyph glyph-name="udieresis" unicode="&#xfc;" horiz-adv-x="564" 
d="M434 0h-82.998c3.33301 16.667 9 40.667 17 72s21 74.666 39 129.999h-2c-12 -27.333 -25.833 -53.666 -41.5 -78.999s-33.334 -47.833 -53.001 -67.5s-41 -35.5 -64 -47.5s-47.5 -18 -73.5 -18c-46 0 -77.167 15.167 -93.5 45.5s-19.5 71.833 -9.5 124.5l64 337h83
l-61 -319c-7.33301 -40 -7.5 -69.333 -0.5 -88s22.167 -28 45.5 -28c16 0 32.167 5.16699 48.5 15.5s32.166 24 47.499 41s29.833 36.833 43.5 59.5s26.167 46 37.5 70s21 48 29 72s14 46.333 18 67l20 110h83zM316.002 658c0 -16 -4.99902 -28.999 -14.999 -38.999
s-22.333 -15 -37 -15s-26.834 4.83301 -36.501 14.5s-14.5 21.167 -14.5 34.5c0 15.333 5.16699 28.166 15.5 38.499s22.833 15.5 37.5 15.5s26.667 -4.83301 36 -14.5s14 -21.167 14 -34.5zM507.003 658.001c0 -16 -5.16699 -29 -15.5 -39s-22.833 -15 -37.5 -15
s-26.834 4.83301 -36.501 14.5s-14.5 21.5 -14.5 35.5c0 15.333 5.33301 28 16 38s23.334 15 38.001 15s26.667 -4.83301 36 -14.5s14 -21.167 14 -34.5z" />
    <glyph glyph-name="yacute" unicode="&#xfd;" horiz-adv-x="483" 
d="M505 493c-65.333 -152.667 -129.5 -284.669 -192.5 -396.002s-125.833 -198.666 -188.5 -261.999c-29.333 -30 -59 -52.5 -89 -67.5s-59.667 -22.5 -89 -22.5c-12.667 0 -24.834 0.5 -36.501 1.5s-22.5 2.83301 -32.5 5.5l14 77c19.333 -6.66699 40.333 -10 63 -10
c18 0 36.833 5.16699 56.5 15.5s38.167 24.833 55.5 43.5c20 22 34.667 45.5 44 70.5s14 56.167 14 93.5c0 62 -5.66699 129.333 -17 202s-26.666 145.667 -45.999 219l-9 34h94c8.66699 -33.333 16.5 -67.666 23.5 -102.999s13 -70.166 18 -104.499
s8.83301 -67.5 11.5 -99.5s4 -61.333 4 -88c0 -9.33301 -0.833008 -19.833 -2.5 -31.5s-3.5 -22.834 -5.5 -33.501h1l58.5 107l56.5 112.5l56.5 123l58.5 137.5l79 -24v0zM261 576.998l-33 47l146 111l41 -59z" />
    <glyph glyph-name="thorn" unicode="&#xfe;" horiz-adv-x="539" 
d="M420 341c0 34 -4.66895 58.167 -14.002 72.5s-22 21.5 -38 21.5s-32.167 -5.16699 -48.5 -15.5s-32.166 -24.166 -47.499 -41.499s-29.833 -37.166 -43.5 -59.499s-26.167 -45.5 -37.5 -69.5s-21 -47.833 -29 -71.5s-14 -45.5 -18 -65.5l-8 -40
c11.333 -3.33301 23.833 -6.16602 37.5 -8.49902s25.834 -3.5 36.501 -3.5c37.333 0 69.333 8.66699 96 26s48.5 39.666 65.5 66.999s29.333 57.666 37 90.999s11.5 65.666 11.5 96.999zM505.998 356c0 -45.333 -6.00391 -89.832 -18.0039 -133.499
s-30.667 -82.5 -56 -116.5s-57.666 -61.333 -96.999 -82s-86.333 -31 -141 -31c-13.333 0 -25.666 0.5 -36.999 1.5s-23 2.5 -35 4.5l-47 -247h-82l186 978h84l-40 -204c-6 -30 -14.167 -64.667 -24.5 -104s-23.166 -82 -38.499 -128l3 -1c12.667 29.333 27 57 43 83
s33.833 48.667 53.5 68s40.834 34.666 63.501 45.999s47 17 73 17c36 0 63.333 -12 82 -36s28 -62.333 28 -115z" />
    <glyph glyph-name="ydieresis" unicode="&#xff;" horiz-adv-x="483" 
d="M505 493c-65.333 -152.667 -129.5 -284.669 -192.5 -396.002s-125.833 -198.666 -188.5 -261.999c-29.333 -30 -59 -52.5 -89 -67.5s-59.667 -22.5 -89 -22.5c-12.667 0 -24.834 0.5 -36.501 1.5s-22.5 2.83301 -32.5 5.5l14 77c19.333 -6.66699 40.333 -10 63 -10
c18 0 36.833 5.16699 56.5 15.5s38.167 24.833 55.5 43.5c20 22 34.667 45.5 44 70.5s14 56.167 14 93.5c0 62 -5.66699 129.333 -17 202s-26.666 145.667 -45.999 219l-9 34h94c8.66699 -33.333 16.5 -67.666 23.5 -102.999s13 -70.166 18 -104.499
s8.83301 -67.5 11.5 -99.5s4 -61.333 4 -88c0 -9.33301 -0.833008 -19.833 -2.5 -31.5s-3.5 -22.834 -5.5 -33.501h1l58.5 107l56.5 112.5l56.5 123l58.5 137.5l79 -24v0zM252 657.998c0 -16 -4.99902 -28.999 -14.999 -38.999s-22.333 -15 -37 -15
s-26.834 4.83301 -36.501 14.5s-14.5 21.167 -14.5 34.5c0 15.333 5.16699 28.166 15.5 38.499s22.833 15.5 37.5 15.5s26.667 -4.83301 36 -14.5s14 -21.167 14 -34.5zM443.001 657.999c0 -16 -5.16699 -29 -15.5 -39s-22.833 -15 -37.5 -15s-26.834 4.83301 -36.501 14.5
s-14.5 21.5 -14.5 35.5c0 15.333 5.33301 28 16 38s23.334 15 38.001 15s26.667 -4.83301 36 -14.5s14 -21.167 14 -34.5z" />
    <glyph glyph-name="dotlessi" unicode="&#x131;" horiz-adv-x="253" 
d="M122 0h-82l95 497h82z" />
    <glyph glyph-name="Lslash" unicode="&#x141;" horiz-adv-x="427" 
d="M374 0h-240h-85l54 285l-92 -32l-10 63l116 40l61 319h85l-56 -291l113 38l9 -65l-136 -45l-44 -238h4h236z" />
    <glyph glyph-name="lslash" unicode="&#x142;" horiz-adv-x="277" 
d="M194 313l-60 -313h-83l54 287l-95 -33l-5 63l113 40l72 373h83l-66 -346l87 30l7 -65z" />
    <glyph glyph-name="OE" unicode="&#x152;" horiz-adv-x="817" 
d="M481 601c-11.333 2 -22.334 3.50098 -33.001 4.50098s-20.667 1.5 -30 1.5c-39.333 0 -76 -9.66699 -110 -29s-63.333 -45.333 -88 -78s-44 -70.667 -58 -114s-21 -89 -21 -137c0 -56.667 13.333 -100.834 40 -132.501s68.334 -47.5 125.001 -47.5c30 0 54.667 2 74 6
l101 526v0zM815.999 604.001h-252.006l-42 -221h240l-12 -70h-242l-45 -241h253l-14 -72h-270c-27.333 0 -52.166 -1 -74.499 -3s-44.166 -3 -65.499 -3c-43.333 0 -80.166 5.66699 -110.499 17s-55.166 27.5 -74.499 48.5s-33.5 46.333 -42.5 76s-13.5 62.5 -13.5 98.5
c0 61.333 9.33301 119 28 173s44.834 101.333 78.501 142s73.834 72.667 120.501 96s98.334 35 155.001 35c24 0 46.167 -0.833008 66.5 -2.5s40.166 -2.5 59.499 -2.5h271z" />
    <glyph glyph-name="oe" unicode="&#x153;" horiz-adv-x="838" 
d="M419 318c0 38 -8.66895 67 -26.002 87s-44.666 30 -81.999 30c-28 0 -53.5 -7.16699 -76.5 -21.5s-42.667 -33.166 -59 -56.499s-29 -50.333 -38 -81s-13.5 -62 -13.5 -94c0 -38.667 8.5 -68.167 25.5 -88.5s44.833 -30.5 83.5 -30.5
c24.667 0 48.334 6.16699 71.001 18.5s42.5 29.833 59.5 52.5s30.5 49.667 40.5 81s15 65.666 15 102.999zM732.998 384c0 18.667 -6.49805 33 -19.498 43s-29.833 15 -50.5 15c-20 0 -38.333 -4.16699 -55 -12.5s-31.834 -19.5 -45.501 -33.5s-25.334 -30.5 -35.001 -49.5
s-17.5 -39.5 -23.5 -61.5c79.333 3.33301 137.333 13 174 29s55 39.333 55 70zM817 394c0 -52.667 -26.998 -93.666 -80.998 -122.999s-135.333 -46 -244 -50c-1.33301 -7.33301 -2.5 -16.833 -3.5 -28.5s-1.5 -22.167 -1.5 -31.5c0 -20 2 -36.5 6 -49.5
s10.333 -23.333 19 -31s20 -13 34 -16s31 -4.5 51 -4.5c23.333 0 47.166 2.5 71.499 7.5s47.166 12.167 68.499 21.5v-68c-23.333 -9.33301 -49.166 -16.666 -77.499 -21.999s-58.833 -8 -91.5 -8c-44 0 -77.833 8 -101.5 24s-40.167 40.667 -49.5 74
c-25.333 -32 -55.333 -56.333 -90 -73s-71 -25 -109 -25c-61.333 0 -106.666 15.167 -135.999 45.5s-44 74.166 -44 131.499c0 48 7 92.667 21 134s33.5 77 58.5 107s55 53.667 90 71s73.833 26 116.5 26c43.333 0 78.166 -8.66699 104.499 -26s45.166 -41.333 56.499 -72
c21.333 30 48 53.833 80 71.5s67.667 26.5 107 26.5c26 0 48.167 -3 66.5 -9s33.333 -14.167 45 -24.5s20.167 -22.333 25.5 -36s8 -27.834 8 -42.501z" />
    <glyph glyph-name="Scaron" unicode="&#x160;" horiz-adv-x="453" 
d="M426 598c-30 10 -60.333 15 -91 15c-25.333 0 -47.333 -3.33301 -66 -10s-34.167 -15.5 -46.5 -26.5s-21.5 -23.167 -27.5 -36.5s-9 -27 -9 -41c0 -20.667 5.16699 -38.5 15.5 -53.5s23.166 -28.833 38.499 -41.5s32 -24.834 50 -36.501s34.667 -24.667 50 -39
s28.166 -31 38.499 -50s15.5 -41.833 15.5 -68.5c0 -31.333 -6.5 -60.333 -19.5 -87s-31.167 -49.834 -54.5 -69.501s-51.166 -35 -83.499 -46s-68.166 -16.5 -107.499 -16.5c-19.333 0 -40.5 1.5 -63.5 4.5s-43.5 7.83301 -61.5 14.5l25 82c17.333 -8 35 -14.167 53 -18.5
s37.667 -6.5 59 -6.5c51.333 0 91.333 12 120 36s43 55.333 43 94c0 20 -5.16699 37 -15.5 51s-23.166 27 -38.499 39s-31.833 23.667 -49.5 35s-34.167 24.166 -49.5 38.499s-28.166 30.833 -38.499 49.5s-15.5 41.667 -15.5 69c0 28.667 5.16699 55.334 15.5 80.001
s25.833 46.334 46.5 65.001s46.167 33.334 76.5 44.001s65.166 16 104.499 16c16.667 0 34.667 -0.833008 54 -2.5s37.666 -4.5 54.999 -8.5zM346 721l-134 82l30 44l114 -65l134 65l18 -42z" />
    <glyph glyph-name="scaron" unicode="&#x161;" horiz-adv-x="382" 
d="M336 428c-11.333 3.33301 -23.5 6.33496 -36.5 9.00195s-25.833 4 -38.5 4c-34 0 -59.5 -7.16699 -76.5 -21.5s-25.5 -32.166 -25.5 -53.499c0 -13.333 3.83301 -25.333 11.5 -36s17.167 -20.834 28.5 -30.501s23.666 -19.334 36.999 -29.001
s25.666 -20.167 36.999 -31.5s20.833 -24 28.5 -38s11.5 -30.333 11.5 -49c0 -20.667 -4.5 -40.667 -13.5 -60s-22.5 -36.5 -40.5 -51.5s-40.167 -27 -66.5 -36s-56.833 -13.5 -91.5 -13.5c-16.667 0 -33.667 1 -51 3s-33 5 -47 9l23 76
c14.667 -5.33301 29.334 -9.66602 44.001 -12.999s29 -5 43 -5c34 0 61.5 6.66699 82.5 20s31.5 33.666 31.5 60.999c0 13.333 -3.83301 25.166 -11.5 35.499s-17.167 20 -28.5 29s-23.666 18.167 -36.999 27.5s-25.666 19.666 -36.999 30.999s-20.833 24.333 -28.5 39
s-11.5 32 -11.5 52c0 20.667 4.16699 40.167 12.5 58.5s20.833 34.333 37.5 48s37 24.334 61 32.001s52 11.5 84 11.5c31.333 0 60.666 -3 87.999 -9zM272 582.002l-131 91l39 50l98 -69l107 69l31 -48z" />
    <glyph glyph-name="Ydieresis" unicode="&#x178;" horiz-adv-x="522" 
d="M301 244l-45.999 -244h-84l46 244l-124 431h88l64 -233c5.33301 -20 10.333 -39.833 15 -59.5s9 -39.167 13 -58.5h1c11.333 20.667 24.166 42 38.499 64l43.5 67l143 220h95zM317.001 783c0 -15.333 -4.99902 -27.833 -14.999 -37.5s-21.667 -14.5 -35 -14.5
c-14 0 -25.667 4.5 -35 13.5s-14 20.167 -14 33.5c0 15.333 5.16699 27.833 15.5 37.5s22.166 14.5 35.499 14.5c14 0 25.5 -4.66699 34.5 -14s13.5 -20.333 13.5 -33zM530.002 783c0 -15.333 -4.99902 -27.833 -14.999 -37.5s-21.667 -14.5 -35 -14.5
c-14 0 -25.667 4.66699 -35 14s-14 20.666 -14 33.999c0 14.667 5.16699 26.834 15.5 36.501s22.166 14.5 35.499 14.5c14 0 25.5 -4.66699 34.5 -14s13.5 -20.333 13.5 -33z" />
    <glyph glyph-name="Zcaron" unicode="&#x17d;" horiz-adv-x="518" 
d="M540 610l-374 -471.999l-24 -30.5l-26 -30.5c10.667 1.33301 30.334 2 59.001 2h109h159l-15 -79h-429l12 63l355 453c12 15.333 23.833 29.666 35.5 42.999l36.5 41c-16 -0.666992 -35.333 -1.16699 -58 -1.5s-51.334 -0.5 -86.001 -0.5h-171l15 77h415zM362 721.001
l-134 82l30 44l114 -65l134 65l18 -42z" />
    <glyph glyph-name="zcaron" unicode="&#x17e;" horiz-adv-x="429" 
d="M412 438l-291.999 -362c14 0.666992 33.5 1.16699 58.5 1.5s48.833 0.5 71.5 0.5h98l-15 -78h-332l11 59l295 365c-15.333 -0.666992 -33.333 -1.16699 -54 -1.5s-44.334 -0.5 -71.001 -0.5h-95l15 75h322zM290.001 582l-131 91l39 50l98 -69l107 69l31 -48z" />
    <glyph glyph-name="florin" unicode="&#x192;" 
d="M554 647c-10.667 3.33301 -22.0029 5.83301 -34.0029 7.5s-23.667 2.5 -35 2.5c-30 0 -55.333 -10.5 -76 -31.5s-36.667 -50.833 -48 -89.5l-35 -125h172l-13 -62h-175l-77 -275c-12 -42 -25.333 -77 -40 -105s-31 -50.5 -49 -67.5s-37.833 -29 -59.5 -36
s-45.167 -10.5 -70.5 -10.5c-13.333 0 -27.166 0.833008 -41.499 2.5s-27.166 4.16699 -38.499 7.5l23 69c9.33301 -3.33301 20.333 -6 33 -8s23.667 -3 33 -3c28.667 0 53.5 10.5 74.5 31.5s38.5 56.833 52.5 107.5l80 287h-150l12 62h154l34 122
c18 65.333 44.833 113.333 80.5 144s80.5 46 134.5 46c28.667 0 56.334 -2.66699 83.001 -8z" />
    <glyph glyph-name="circumflex" unicode="&#x2c6;" horiz-adv-x="425" 
d="M359 582l-99 68l-107 -68l-30 47l143 94l131 -92z" />
    <glyph glyph-name="caron" unicode="&#x2c7;" horiz-adv-x="425" 
d="M249 582l-131 91l39 50l98 -69l107 69l31 -48z" />
    <glyph glyph-name="breve" unicode="&#x2d8;" horiz-adv-x="396" 
d="M416 718c-2.66699 -17.333 -7.49707 -33.833 -14.4971 -49.5s-16.5 -29.5 -28.5 -41.5s-26.333 -21.667 -43 -29s-35.667 -11 -57 -11s-39 3.66699 -53 11s-24.833 17 -32.5 29s-12.5 25.833 -14.5 41.5s-1.66699 32.167 1 49.5h55
c-2.66699 -18 0.166016 -33.667 8.49902 -47s22.833 -20 43.5 -20c19.333 0 35.666 5.83301 48.999 17.5s21.666 28.167 24.999 49.5h61v0z" />
    <glyph glyph-name="dotaccent" unicode="&#x2d9;" horiz-adv-x="277" 
d="M254 656c-1.33301 -15.333 -7.66895 -28.333 -19.002 -39s-24.666 -16 -39.999 -16s-28.166 5.16699 -38.499 15.5s-14.833 23.5 -13.5 39.5c0.666992 15.333 6.83398 28.5 18.501 39.5s25.167 16.5 40.5 16.5c14.667 0 27.167 -5.5 37.5 -16.5
s15.166 -24.167 14.499 -39.5z" />
    <glyph glyph-name="ring" unicode="&#x2da;" horiz-adv-x="377" 
d="M441 673c0.666992 15.333 -4.16602 28.498 -14.499 39.498s-23.166 16.5 -38.499 16.5c-16 0 -29.333 -5.66699 -40 -17s-16.334 -24.666 -17.001 -39.999s4 -28.666 14 -39.999s22.667 -17 38 -17s28.666 5.66699 39.999 17s17.333 25 18 41zM495 673.998
c-0.666992 -15.333 -3.99902 -29.666 -9.99902 -42.999s-14.167 -24.833 -24.5 -34.5s-22.333 -17.334 -36 -23.001s-28.167 -8.5 -43.5 -8.5c-31.333 0 -56.833 10 -76.5 30s-29.167 45.333 -28.5 76c0 16 3.16699 30.667 9.5 44s14.833 24.833 25.5 34.5
s22.667 17.167 36 22.5s27.666 8 42.999 8s29.5 -2.66699 42.5 -8s24.333 -12.833 34 -22.5s17 -21 22 -34s7.16699 -26.833 6.5 -41.5z" />
    <glyph glyph-name="ogonek" unicode="&#x2db;" horiz-adv-x="255" 
d="M139 -224c-11.333 -3.33301 -23.166 -5.66699 -35.499 -7s-23.5 -2 -33.5 -2c-32.667 0 -54.834 7 -66.501 21s-17.5 31.667 -17.5 53s6.83301 45.666 20.5 72.999s31.834 54.666 54.501 81.999h64c-15.333 -19.333 -29.5 -41.166 -42.5 -65.499
s-19.5 -47.166 -19.5 -68.499c0 -10.667 2.16699 -18.667 6.5 -24s10 -9 17 -11s15.167 -2.5 24.5 -1.5s18.666 2.5 27.999 4.5v-54v0z" />
    <glyph glyph-name="tilde" unicode="&#x2dc;" horiz-adv-x="490" 
d="M454 633c-12 -9.33301 -26.333 -17.666 -43 -24.999s-33.667 -11 -51 -11s-32 2.5 -44 7.5s-23.333 10.333 -34 16l-31.5 16c-10.333 5 -22.833 7.5 -37.5 7.5c-13.333 0 -25.833 -2.83301 -37.5 -8.5s-22.167 -12.834 -31.5 -21.501l-12 57
c12 11.333 26.167 20.5 42.5 27.5s33.166 10.5 50.499 10.5c16.667 0 31 -2.5 43 -7.5s23.333 -10.333 34 -16s21.334 -11 32.001 -16s23 -7.5 37 -7.5c27.333 0 51 9.66699 71 29l12 -58v0z" />
    <glyph glyph-name="hungarumlaut" unicode="&#x2dd;" horiz-adv-x="481" 
d="M193 576l-42 41l124 129l51 -50zM360 575l-37 46l147 118l45 -56z" />
    <glyph glyph-name="Delta" unicode="&#x394;" horiz-adv-x="727" 
d="M359 601l-1 1l-207 -526h418zM120 0h-86l283 700h2h79h9l287 -700h-94h-480z" />
    <glyph glyph-name="Delta" unicode="&#x2206;" horiz-adv-x="727" 
d="M359 601l-1 1l-207 -526h418zM120 0h-86l283 700h2h79h9l287 -700h-94h-480z" />
    <glyph glyph-name="Omega" unicode="&#x3a9;" horiz-adv-x="749" 
d="M448 0l0.00195312 65.9971c44 29.333 78.5 66.666 103.5 111.999s37.5 102.333 37.5 171c0 37.333 -4.5 72.333 -13.5 105s-22.333 61.167 -40 85.5s-39.834 43.5 -66.501 57.5s-57.667 21 -93 21c-34 0 -64.667 -6.5 -92 -19.5s-50.5 -31.167 -69.5 -54.5
s-33.667 -51.166 -44 -83.499s-15.5 -68.166 -15.5 -107.499c0 -66 11.167 -121.667 33.5 -167s59.166 -85 110.499 -119v-67h-233v64h147c-46 30 -81.167 69.5 -105.5 118.5s-36.5 104.833 -36.5 167.5c0 49.333 7.5 94.5 22.5 135.5s36 76.333 63 106
s59.5 52.834 97.5 69.501s80.333 25 127 25c43.333 0 83 -7.16699 119 -21.5s67 -35.166 93 -62.499s46.333 -61.5 61 -102.5s22 -87.833 22 -140.5c0 -66.667 -13.5 -125.5 -40.5 -176.5s-62.5 -90.5 -106.5 -118.5h150v-64h-231z" />
    <glyph glyph-name="Omega" unicode="&#x2126;" horiz-adv-x="749" 
d="M448 0l0.00195312 65.9971c44 29.333 78.5 66.666 103.5 111.999s37.5 102.333 37.5 171c0 37.333 -4.5 72.333 -13.5 105s-22.333 61.167 -40 85.5s-39.834 43.5 -66.501 57.5s-57.667 21 -93 21c-34 0 -64.667 -6.5 -92 -19.5s-50.5 -31.167 -69.5 -54.5
s-33.667 -51.166 -44 -83.499s-15.5 -68.166 -15.5 -107.499c0 -66 11.167 -121.667 33.5 -167s59.166 -85 110.499 -119v-67h-233v64h147c-46 30 -81.167 69.5 -105.5 118.5s-36.5 104.833 -36.5 167.5c0 49.333 7.5 94.5 22.5 135.5s36 76.333 63 106
s59.5 52.834 97.5 69.501s80.333 25 127 25c43.333 0 83 -7.16699 119 -21.5s67 -35.166 93 -62.499s46.333 -61.5 61 -102.5s22 -87.833 22 -140.5c0 -66.667 -13.5 -125.5 -40.5 -176.5s-62.5 -90.5 -106.5 -118.5h150v-64h-231z" />
    <glyph glyph-name="pi" unicode="&#x3c0;" horiz-adv-x="657" 
d="M619 429h-108.999l-44 -233c-6 -30.667 -10 -55.167 -12 -73.5s-2 -32.5 0 -42.5s6.5 -16.5 13.5 -19.5s16.833 -4.5 29.5 -4.5c8.66699 0 17.667 0.666992 27 2s17.666 3 24.999 5l-3 -62c-12.667 -3.33301 -27.167 -5.83301 -43.5 -7.5s-32.833 -2.5 -49.5 -2.5
c-42 0 -68 11.333 -78 34s-10.333 57.667 -1 105l57 299h-185l-81 -429h-80l82 429h-108l13 68h561z" />
    <glyph glyph-name="endash" unicode="&#x2013;" 
d="M50 252v74h450v-74h-450z" />
    <glyph glyph-name="emdash" unicode="&#x2014;" horiz-adv-x="1000" 
d="M0 252v74h1000v-74h-1000z" />
    <glyph glyph-name="quoteleft" unicode="&#x2018;" horiz-adv-x="236" 
d="M285 710c-38 -32 -61.499 -59.333 -70.499 -82s-8.5 -42.667 1.5 -60c4.66699 -8.66699 7 -17.667 7 -27s-2 -18 -6 -26s-10 -14.5 -18 -19.5s-17.333 -7.5 -28 -7.5c-18 0 -32.667 7.33301 -44 22s-15.333 34 -12 58s15.666 51.5 36.999 82.5s55 63.167 101 96.5l32 -37
v0z" />
    <glyph glyph-name="quoteright" unicode="&#x2019;" horiz-adv-x="236" 
d="M206 741c18 0 32.668 -7.33398 44.001 -22.001s15.333 -34.167 12 -58.5s-15.666 -52.166 -36.999 -83.499s-55.333 -63.333 -102 -96l-32 37c38 32 61.333 59.333 70 82s8 42.667 -2 60c-4.66699 8 -6.83398 16.833 -6.50098 26.5s2.66602 18.5 6.99902 26.5
s10.5 14.667 18.5 20s17.333 8 28 8z" />
    <glyph glyph-name="quotesinglbase" unicode="&#x201a;" horiz-adv-x="236" 
d="M80 108c18 0 32.666 -7.33301 43.999 -22s15.333 -34 12 -58s-15.666 -51.5 -36.999 -82.5s-55 -62.833 -101 -95.5l-32 36c38 32 61.5 59.5 70.5 82.5s8.5 43.167 -1.5 60.5c-4.66699 8.66699 -7 17.667 -7 27s2 17.833 6 25.5s10 14 18 19s17.333 7.5 28 7.5z" />
    <glyph glyph-name="quotedblleft" unicode="&#x201c;" horiz-adv-x="418" 
d="M285 710c-38 -32 -61.499 -59.333 -70.499 -82s-8.5 -42.667 1.5 -60c4.66699 -8.66699 7 -17.667 7 -27s-2 -18 -6 -26s-10 -14.5 -18 -19.5s-17.333 -7.5 -28 -7.5c-18 0 -32.667 7.33301 -44 22s-15.333 34 -12 58s15.666 51.5 36.999 82.5s55 63.167 101 96.5l32 -37
v0zM470.001 710c-37.333 -31.333 -60.5 -58.667 -69.5 -82s-8.5 -43.333 1.5 -60c4.66699 -8.66699 6.83398 -17.667 6.50098 -27s-2.66602 -18 -6.99902 -26s-10.333 -14.5 -18 -19.5s-16.834 -7.5 -27.501 -7.5c-18 0 -32.5 7.33301 -43.5 22s-14.833 34 -11.5 58
s15.666 51.5 36.999 82.5s55 63.167 101 96.5l31 -37v0z" />
    <glyph glyph-name="quotedblright" unicode="&#x201d;" horiz-adv-x="418" 
d="M206 741c18 0 32.668 -7.33398 44.001 -22.001s15.333 -34.167 12 -58.5s-15.666 -52.166 -36.999 -83.499s-55.333 -63.333 -102 -96l-32 37c38 32 61.333 59.333 70 82s8 42.667 -2 60c-4.66699 8 -6.83398 16.833 -6.50098 26.5s2.66602 18.5 6.99902 26.5
s10.5 14.667 18.5 20s17.333 8 28 8zM390.001 740.999c18 0 32.666 -7.33398 43.999 -22.001s15.333 -34.167 12 -58.5s-15.666 -52.166 -36.999 -83.499s-55.333 -63.333 -102 -96l-31 37c38 32 61.333 59.333 70 82s8 42.667 -2 60c-4.66699 8 -7 16.667 -7 26
c0 10 2.16699 19 6.5 27s10.5 14.667 18.5 20s17.333 8 28 8z" />
    <glyph glyph-name="quotedblbase" unicode="&#x201e;" horiz-adv-x="418" 
d="M80 108c18 0 32.666 -7.33301 43.999 -22s15.333 -34 12 -58s-15.666 -51.5 -36.999 -82.5s-55 -62.833 -101 -95.5l-32 36c38 32 61.5 59.5 70.5 82.5s8.5 43.167 -1.5 60.5c-4.66699 8.66699 -7 17.667 -7 27s2 17.833 6 25.5s10 14 18 19s17.333 7.5 28 7.5z
M265.999 108c18 0 32.668 -7.33301 44.001 -22s15.333 -34 12 -58s-15.666 -51.5 -36.999 -82.5s-55.333 -62.833 -102 -95.5l-32 36c38 32 61.333 59.5 70 82.5s8 43.167 -2 60.5c-4.66699 8 -6.83398 16.667 -6.50098 26s2.66602 18 6.99902 26s10.5 14.5 18.5 19.5
s17.333 7.5 28 7.5z" />
    <glyph glyph-name="dagger" unicode="&#x2020;" horiz-adv-x="458" 
d="M465 486h-156l-10 -147l-88 -342h-56l42 342l47 147h-156l13 66h154l17 178h101l-52 -178h155z" />
    <glyph glyph-name="daggerdbl" unicode="&#x2021;" horiz-adv-x="458" 
d="M466 491h-156l-5 -120l-41 -120h156l-13 -66h-155l-17 -185h-102l54 185h-156l13 66h155l5 120l41 120h-156l13 66h154l16 173h101l-50 -173h154z" />
    <glyph glyph-name="bullet" unicode="&#x2022;" 
d="M364 292c-0.666992 -16 -4.33398 -31.167 -11.001 -45.5s-15.5 -26.833 -26.5 -37.5s-23.5 -19 -37.5 -25s-29 -9 -45 -9s-31 3 -45 9s-26 14.333 -36 25s-17.667 23.167 -23 37.5s-7.66602 29.5 -6.99902 45.5s4.33398 31.167 11.001 45.5s15.5 26.666 26.5 36.999
s23.667 18.666 38 24.999s29.5 9.5 45.5 9.5s30.833 -3.16699 44.5 -9.5s25.5 -14.666 35.5 -24.999s17.667 -22.666 23 -36.999s7.66602 -29.5 6.99902 -45.5z" />
    <glyph glyph-name="ellipsis" unicode="&#x2026;" horiz-adv-x="658" 
d="M140 51c-1.33301 -16.667 -8 -30.834 -20 -42.501s-25.667 -17.5 -41 -17.5c-16.667 0 -30.5 5.83301 -41.5 17.5s-15.833 25.834 -14.5 42.501c0.666992 16 7 29.833 19 41.5s26.333 17.5 43 17.5c16 0 29.5 -5.83301 40.5 -17.5s15.833 -25.5 14.5 -41.5zM354 51
c-1.33301 -16.667 -7.66895 -30.834 -19.002 -42.501s-25.333 -17.5 -42 -17.5s-30.5 5.83301 -41.5 17.5s-15.833 25.834 -14.5 42.501c1.33301 16 8 29.833 20 41.5s26 17.5 42 17.5c16.667 0 30.334 -5.83301 41.001 -17.5s15.334 -25.5 14.001 -41.5zM567.997 51
c-1.33301 -16.667 -7.83398 -30.834 -19.501 -42.501s-25.834 -17.5 -42.501 -17.5c-16 0 -29.5 5.83301 -40.5 17.5s-15.833 25.834 -14.5 42.501c1.33301 16 8 29.833 20 41.5s26 17.5 42 17.5c16.667 0 30.334 -5.83301 41.001 -17.5s15.334 -25.5 14.001 -41.5z" />
    <glyph glyph-name="perthousand" unicode="&#x2030;" horiz-adv-x="1024" 
d="M583 188c0 19.333 -3.66992 35.334 -11.0029 48.001s-22 19 -44 19c-14.667 0 -27.667 -4 -39 -12s-20.666 -18.667 -27.999 -32s-13 -28.333 -17 -45s-6 -33.334 -6 -50.001c0 -19.333 3.5 -35.5 10.5 -48.5s21.167 -19.5 42.5 -19.5c14.667 0 27.834 4 39.501 12
s21.334 18.5 29.001 31.5s13.5 28 17.5 45s6 34.167 6 51.5zM655.997 197.001c0 -30.667 -4.33203 -58.8301 -12.999 -84.4971s-20.667 -47.834 -36 -66.501s-34 -33.167 -56 -43.5s-46 -15.5 -72 -15.5c-33.333 0 -60.666 9.33301 -81.999 28s-32 49.667 -32 93
c0 30.667 4.16699 58.667 12.5 84s20.166 47.166 35.499 65.499s33.666 32.666 54.999 42.999s45.333 15.5 72 15.5c36 0 64.333 -9.83301 85 -29.5s31 -49.5 31 -89.5zM112.998 -23.9951l-51 46l578 676l52 -46zM316.998 561.005c0 19.333 -3.50391 35.168 -10.5039 47.501
s-21.5 18.5 -43.5 18.5c-15.333 0 -28.666 -4 -39.999 -12s-20.666 -18.5 -27.999 -31.5s-13 -27.833 -17 -44.5s-6 -33.334 -6 -50.001c0 -20 3.5 -36.333 10.5 -49s21.167 -19 42.5 -19c14.667 0 27.834 4 39.501 12s21.334 18.5 29.001 31.5s13.5 27.833 17.5 44.5
s6 34 6 52zM389.994 570.007c0 -30.667 -4.16699 -58.998 -12.5 -84.998s-20.333 -48.333 -36 -67s-34.334 -33.167 -56.001 -43.5s-45.5 -15.5 -71.5 -15.5c-33.333 0 -60.833 9.5 -82.5 28.5s-32.5 50.167 -32.5 93.5c0 30.667 4.16699 58.667 12.5 84
s20.333 47.166 36 65.499s34.334 32.666 56.001 42.999s45.5 15.5 71.5 15.5c36 0 64.167 -10 84.5 -30s30.5 -49.667 30.5 -89zM906.994 188.009c0 19.333 -3.50098 35.334 -10.501 48.001s-21.833 19 -44.5 19c-14.667 0 -27.667 -4 -39 -12s-20.666 -18.667 -27.999 -32
s-13 -28.333 -17 -45s-6 -33.334 -6 -50.001c0 -19.333 3.33301 -35.5 10 -48.5s21 -19.5 43 -19.5c14.667 0 27.667 4 39 12s21 18.5 29 31.5s14 28 18 45s6 34.167 6 51.5zM978.993 197.01c0 -30.667 -4.16797 -58.8301 -12.501 -84.4971s-20.166 -47.834 -35.499 -66.501
s-33.833 -33.167 -55.5 -43.5s-45.834 -15.5 -72.501 -15.5c-33.333 0 -60.666 9.33301 -81.999 28s-32 49.667 -32 93c0 30.667 4.16699 58.667 12.5 84s20.166 47.166 35.499 65.499s33.833 32.666 55.5 42.999s45.834 15.5 72.501 15.5c36 0 64 -9.83301 84 -29.5
s30 -49.5 30 -89.5z" />
    <glyph glyph-name="guilsinglleft" unicode="&#x2039;" horiz-adv-x="312" 
d="M142 252l85 -155l-69 -37l-99 193l140 196l59 -37z" />
    <glyph glyph-name="guilsinglright" unicode="&#x203a;" horiz-adv-x="312" 
d="M118 59l-59 38l117 159l-85 156l68 36l100 -193z" />
    <glyph glyph-name="fraction" unicode="&#x2044;" horiz-adv-x="408" 
d="M-5 -123l-65 36l586 843l64 -37z" />
    <glyph glyph-name="fraction" unicode="&#x2215;" horiz-adv-x="408" 
d="M-5 -123l-65 36l586 843l64 -37z" />
    <glyph glyph-name="Euro" unicode="&#x20a0;" 
d="M519 587c-13.333 7.33301 -28.502 12.665 -45.502 15.998s-34.167 5 -51.5 5c-26.667 0 -50.667 -4.16699 -72 -12.5s-40.5 -19.666 -57.5 -33.999s-32 -31 -45 -50s-24.167 -39.167 -33.5 -60.5h195l-12 -62h-206c-5.33301 -17.333 -9.83301 -34.666 -13.5 -51.999
s-6.5 -34 -8.5 -50h208l-12 -62h-200v-17c0 -46 12.333 -81 37 -105s62.667 -36 114 -36c36.667 0 70.667 6 102 18l3 -71c-21.333 -7.33301 -42.833 -12.833 -64.5 -16.5s-43.167 -5.5 -64.5 -5.5c-39.333 0 -72.833 5.33301 -100.5 16s-50.334 25.5 -68.001 44.5
s-30.667 42 -39 69s-12.5 56.833 -12.5 89.5c0 2 0.166992 4.16699 0.5 6.5s0.5 4.83301 0.5 7.5h-75l12 62h68c2 16 4.83301 32.667 8.5 50s8.16699 34.666 13.5 51.999h-70l12 62h77c12.667 30 28.334 58.833 47.001 86.5s41.334 52.167 68.001 73.5s57.5 38.333 92.5 51
s74.833 19 119.5 19c17.333 0 35.333 -1.66699 54 -5s35.334 -8.66602 50.001 -15.999z" />
    <glyph glyph-name="Euro" unicode="&#x20ac;" 
d="M519 587c-13.333 7.33301 -28.502 12.665 -45.502 15.998s-34.167 5 -51.5 5c-26.667 0 -50.667 -4.16699 -72 -12.5s-40.5 -19.666 -57.5 -33.999s-32 -31 -45 -50s-24.167 -39.167 -33.5 -60.5h195l-12 -62h-206c-5.33301 -17.333 -9.83301 -34.666 -13.5 -51.999
s-6.5 -34 -8.5 -50h208l-12 -62h-200v-17c0 -46 12.333 -81 37 -105s62.667 -36 114 -36c36.667 0 70.667 6 102 18l3 -71c-21.333 -7.33301 -42.833 -12.833 -64.5 -16.5s-43.167 -5.5 -64.5 -5.5c-39.333 0 -72.833 5.33301 -100.5 16s-50.334 25.5 -68.001 44.5
s-30.667 42 -39 69s-12.5 56.833 -12.5 89.5c0 2 0.166992 4.16699 0.5 6.5s0.5 4.83301 0.5 7.5h-75l12 62h68c2 16 4.83301 32.667 8.5 50s8.16699 34.666 13.5 51.999h-70l12 62h77c12.667 30 28.334 58.833 47.001 86.5s41.334 52.167 68.001 73.5s57.5 38.333 92.5 51
s74.833 19 119.5 19c17.333 0 35.333 -1.66699 54 -5s35.334 -8.66602 50.001 -15.999z" />
    <glyph glyph-name="trademark" unicode="&#x2122;" horiz-adv-x="686" 
d="M328 623h-72l-43 -229h-65l44 229h-74l10 52h210zM663 394h-65l6 151l4 55l-20 -47l-77 -159h-64l-15 161l-3 45l-11 -37l-55 -169h-60l96 281h82l14 -158l2 -47l17 42l78 163h81z" />
    <glyph glyph-name="partialdiff" unicode="&#x2202;" horiz-adv-x="624" 
d="M431 258c0 13.333 -2.16797 26.5029 -6.50098 39.5029s-11.166 24.667 -20.499 35s-21.333 18.666 -36 24.999s-32 9.5 -52 9.5c-25.333 0 -48.5 -5.33301 -69.5 -16s-39 -24.834 -54 -42.501s-26.5 -37.834 -34.5 -60.501s-12 -46 -12 -70c0 -35.333 9 -63 27 -83
s44 -30 78 -30c28 0 53.167 6 75.5 18s41.333 27.167 57 45.5s27.5 39 35.5 62s12 45.5 12 67.5zM570.999 468.003c0 -34 -3.33301 -68.834 -10 -104.501s-15.834 -70.334 -27.501 -104.001s-25.667 -65.334 -42 -95.001s-34.5 -55.5 -54.5 -77.5
c-24.667 -28 -54 -50.833 -88 -68.5s-71 -26.5 -111 -26.5c-30.667 0 -57 4.5 -79 13.5s-40.167 21.167 -54.5 36.5s-25 33.5 -32 54.5s-10.5 43.5 -10.5 67.5c0 36.667 6.83301 71.667 20.5 105s32.334 62.5 56.001 87.5s51.5 44.833 83.5 59.5s66.667 22 104 22
c38.667 0 70.5 -8.66699 95.5 -26s41.833 -39.666 50.5 -66.999c0.666992 12.667 3.33398 29.334 8.00098 50.001s6.66699 47 6 79c-0.666992 28.667 -5.33398 54.834 -14.001 78.501s-21.167 44 -37.5 61s-36.333 30.167 -60 39.5s-50.5 14 -80.5 14l23 70
c42 -2 78.833 -10 110.5 -24s58.167 -33 79.5 -57s37.333 -52 48 -84s16 -66.667 16 -104z" />
    <glyph glyph-name="product" unicode="&#x220f;" horiz-adv-x="843" 
d="M807 657h-105l-176 -909h-81l176 909h-309l-176 -909h-81l177 909h-105l14 73h680z" />
    <glyph glyph-name="summation" unicode="&#x2211;" horiz-adv-x="672" 
d="M612 657h-378l210 -415l-375 -419h397l-15 -75h-505l13 66l387 436l-207 415l12 65h474z" />
    <glyph glyph-name="minus" unicode="&#x2212;" 
d="M449 225h-367l12 69h368z" />
    <glyph glyph-name="periodcentered" unicode="&#x2219;" horiz-adv-x="225" 
d="M181 290c-1.33301 -18 -8.17188 -32.999 -20.5049 -44.999s-27.166 -18 -44.499 -18s-31.166 5.66699 -41.499 17s-15.166 25.333 -14.499 42c0.666992 18 7.33398 33.167 20.001 45.5s27.667 18.5 45 18.5s31.333 -5.83301 42 -17.5s15.334 -25.834 14.001 -42.501z" />
    <glyph glyph-name="radical" unicode="&#x221a;" 
d="M274 0h-103.001l-49 436h-85l13 61h146l30 -301c0.666992 -4.66699 1.33398 -12.5 2.00098 -23.5s1.5 -22.5 2.5 -34.5l3 -34.5c1 -11 1.5 -18.833 1.5 -23.5l1 1l10 22.5l14.5 32.5l14.5 32l10 21l255 569h89z" />
    <glyph glyph-name="infinity" unicode="&#x221e;" horiz-adv-x="982" 
d="M418 273c-28.667 24 -56.333 45 -83 63s-53 27 -79 27c-16 0 -30.833 -2.83301 -44.5 -8.5s-25.5 -13.5 -35.5 -23.5s-17.667 -21.5 -23 -34.5s-8 -26.833 -8 -41.5c0 -21.333 6.5 -39 19.5 -53s33.167 -21 60.5 -21c26 0 55.5 9 88.5 27s67.833 39.667 104.5 65z
M826.001 290c0 20.667 -6.66797 38 -20.001 52s-34 21 -62 21c-26 0 -55.333 -9 -88 -27s-67 -39.667 -103 -65c28 -24 55.167 -45 81.5 -63s52.833 -27 79.5 -27c16.667 0 31.834 2.83301 45.501 8.5s25.5 13.5 35.5 23.5s17.667 21.5 23 34.5s8 27.167 8 42.5zM910 301
c0 -24 -4.50098 -47.5029 -13.501 -70.5029s-22.167 -43.833 -39.5 -62.5s-38.666 -33.667 -63.999 -45s-54.333 -17 -87 -17c-20.667 0 -40.667 3.16699 -60 9.5s-38.5 14.666 -57.5 24.999s-37.5 22.5 -55.5 36.5s-35.667 28.667 -53 44l-66.5 -43
c-22.333 -14 -44.5 -26.333 -66.5 -37s-43.833 -19.167 -65.5 -25.5s-42.834 -9.5 -63.501 -9.5c-27.333 0 -50.833 3.5 -70.5 10.5s-36 16.5 -49 28.5s-22.5 26.333 -28.5 43s-9 34.667 -9 54c0 28 5.33301 53.833 16 77.5s25.334 44.334 44.001 62.001
s40 31.334 64 41.001s49.667 14.5 77 14.5c20.667 0 41.167 -3.16699 61.5 -9.5s40 -14.833 59 -25.5s37.667 -23 56 -37l54.5 -43l66.5 43c22.333 14 44.5 26.333 66.5 37s43.667 19.167 65 25.5s42 9.5 62 9.5c27.333 0 51 -3.66699 71 -11s36.333 -17.166 49 -29.499
s22 -26.666 28 -42.999s9 -33.833 9 -52.5z" />
    <glyph glyph-name="integral" unicode="&#x222b;" horiz-adv-x="338" 
d="M392 659c-6.66699 2 -13.999 3.83496 -21.999 5.50195s-16.333 2.5 -25 2.5c-12 0 -23 -2.5 -33 -7.5s-19.167 -13.833 -27.5 -26.5s-16 -30 -23 -52s-13.833 -50 -20.5 -84c-8 -40 -15 -78.333 -21 -115l-18 -113.5l-20 -124c-7.33301 -43.667 -16 -92.167 -26 -145.5
c-9.33301 -48 -20 -88.5 -32 -121.5s-26 -59.667 -42 -80s-34 -35 -54 -44s-43 -13.5 -69 -13.5c-18.667 0 -35 2 -49 6l14 75c6 -2.66699 13.333 -4.66699 22 -6s16.667 -2 24 -2c12.667 0 24 2.5 34 7.5s19 13.667 27 26s15.5 29.166 22.5 50.499s13.5 48.333 19.5 81
c7.33301 37.333 14 74.333 20 111l18.5 115l21 127c7.66699 44.667 16.5 93.667 26.5 147c9.33301 48.667 20.166 89.667 32.499 123s26.5 60.166 42.5 80.499s34.333 34.833 55 43.5s44 13 70 13c16 0 31.667 -2 47 -6z" />
    <glyph glyph-name="approxequal" unicode="&#x2248;" 
d="M464 156c-17.333 -15.333 -36.999 -27.8301 -58.999 -37.4971s-45.667 -14.5 -71 -14.5c-22 0 -40 3.16699 -54 9.5s-26.833 13.166 -38.5 20.499s-23.667 14.166 -36 20.499s-27.833 9.5 -46.5 9.5c-20.667 0 -39 -4.66699 -55 -14s-30 -19 -42 -29l-23 57
c16.667 14.667 36 27.5 58 38.5s44.667 16.5 68 16.5c20.667 0 38.167 -3.16699 52.5 -9.5s27.666 -13.5 39.999 -21.5s25 -15.167 38 -21.5s28.5 -9.5 46.5 -9.5c19.333 0 37 3.66699 53 11s31.667 17.666 47 30.999l22 -57v0zM496.001 324.003
c-17.333 -15.333 -36.8301 -27.668 -58.4971 -37.001s-45.167 -14 -70.5 -14c-22.667 0 -40.834 3 -54.501 9s-26.334 12.833 -38.001 20.5s-23.5 14.5 -35.5 20.5s-27.667 9 -47 9c-20 0 -38.333 -4.66699 -55 -14s-30.667 -18.666 -42 -27.999l-23 57
c17.333 14 37 26.5 59 37.5s44.333 16.5 67 16.5c21.333 0 39.166 -3.16699 53.499 -9.5s27.5 -13.333 39.5 -21s24.333 -14.667 37 -21s28 -9.5 46 -9.5c19.333 0 37 3.5 53 10.5s32 17.167 48 30.5l21 -57v0z" />
    <glyph glyph-name="notequal" unicode="&#x2260;" 
d="M501 304h-168l-57 -100h206l-13 -67h-230l-80 -143h-74l81 143h-142l13 67h167l55 100h-202l13 66h227l82 147h74l-82 -147h143z" />
    <glyph glyph-name="lessequal" unicode="&#x2264;" 
d="M402 -58h-387l14 69h386zM192 307l232 -187l-54 -55l-290 247l380 246l38 -60z" />
    <glyph glyph-name="greaterequal" unicode="&#x2265;" 
d="M402 -58h-385l12 69h386zM101 65l-42 58l309 193l-231 186l54 56l290 -248z" />
    <glyph glyph-name="lozenge" unicode="&#x25ca;" horiz-adv-x="618" 
d="M305 590h-2l-174 -247l185 -257h2l175 244zM339 -9h-54l-249 350l245 343h51l250 -349z" />
    <glyph glyph-name="Circumflex" unicode="&#xe00b;" horiz-adv-x="500" 
d="M511 721l-114 65l-133 -65l-19 43l162 84l134 -83z" />
    <glyph glyph-name="Tilde" unicode="&#xe00c;" horiz-adv-x="500" 
d="M556 789c-14 -16 -29.5 -29.332 -46.5 -39.999s-36.167 -16 -57.5 -16c-14.667 0 -27 2 -37 6s-19.333 8.5 -28 13.5s-17.167 9.5 -25.5 13.5s-18.166 6 -29.499 6c-12 0 -23.333 -3.33301 -34 -10s-20.667 -15 -30 -25l-32 35c14 17.333 29.333 31.166 46 41.499
s36.667 15.5 60 15.5c14 0 25.833 -2 35.5 -6s18.667 -8.33301 27 -13s16.666 -9 24.999 -13s18.166 -6 29.499 -6c12.667 0 24.334 3.16699 35.001 9.5s20.667 14.5 30 24.5l32 -36v0z" />
    <glyph glyph-name="apple" unicode="&#xf000;" horiz-adv-x="1000" 
d="M255 60c-1.33301 7.33301 -6.00195 11.666 -14.002 12.999s-15 0.666016 -21 -2.00098c-7.33301 -6 -14.666 -12.333 -21.999 -19s-14 -13.667 -20 -21c-4 -10 -8.66699 -20 -14 -30s-10.166 -20 -14.499 -30s-8 -20.167 -11 -30.5s-4.16699 -21.166 -3.5 -32.499
c2 -0.666992 3.16699 -0.5 3.5 0.5s1.16602 2.16699 2.49902 3.5c10 12 20.333 23.667 31 35l32 35c10.667 12 20.334 24.333 29.001 37s16 26.334 22 41.001zM291.998 74c-4 -3.33301 -4.83301 -6.16895 -2.5 -8.50195s2.83301 -5.16602 1.5 -8.49902
c-1.33301 -25.333 -1.83301 -50.666 -1.5 -75.999s-1 -50.166 -4 -74.499s-8.83301 -47.5 -17.5 -69.5s-23 -42.333 -43 -61c-22 -13.333 -46 -21.5 -72 -24.5s-50.667 -1.16699 -74 5.5c-2.66699 1.33301 -5.33398 3.16602 -8.00098 5.49902s-3.66699 5.16602 -3 8.49902
c1.33301 6.66699 3.5 13.334 6.5 20.001s8.83301 11.334 17.5 14.001l-8 -16c-2.66699 -5.33301 -4.66699 -11 -6 -17c8 -5.33301 17.333 -9 28 -11s21.834 -2.66699 33.501 -2s23 2.66699 34 6s21.167 7.33301 30.5 12c9.33301 3.33301 16.833 8 22.5 14
s10.5 12.667 14.5 20s7.5 14.833 10.5 22.5s6.5 15.167 10.5 22.5c5.33301 23.333 9 48.5 11 75.5s3 50.5 3 70.5c3.33301 7.33301 4.16602 15.333 2.49902 24s-1.5 16.667 0.5 24c-1.33301 3.33301 -3.33301 4.5 -6 3.5s-4.66699 -1.83301 -6 -2.5
c-5.33301 -5.33301 -9.33301 -11.166 -12 -17.499s-6.66699 -11.5 -12 -15.5c0.666992 -5.33301 -0.166016 -9.33301 -2.49902 -12s-5 -5.16699 -8 -7.5s-6 -4.83301 -9 -7.5s-4.5 -6.33398 -4.5 -11.001c-14.667 -15.333 -28.334 -30.833 -41.001 -46.5
s-24.667 -31.5 -36 -47.5c-3.33301 -4 -6 -8 -8 -12s-5.66699 -5.66699 -11 -5c-3.33301 4.66699 -5 9.66699 -5 15c0 4.66699 0.333008 9.5 1 14.5s1.5 10.167 2.5 15.5s1.16699 10.666 0.5 15.999c4.66699 11.333 8.5 23 11.5 35s9.16699 23.667 18.5 35
c7.33301 16 16.833 31.833 28.5 47.5s25.834 28.5 42.501 38.5c9.33301 2.66699 17.333 1.83398 24 -2.49902l21 -13.5c6.66699 8 11 16 13 24c7.33301 -2.66699 11 -9.33398 11 -20.001zM420.998 11.9971c-2.66699 -2 -5.33398 -2.50098 -8.00098 -1.50098
s-5.33398 2.16699 -8.00098 3.5s-5.33398 2.5 -8.00098 3.5s-5.66699 0.5 -9 -1.5c-4.66699 -3.33301 -8 -7 -10 -11s-3.66699 -8.16699 -5 -12.5l-4 -13c-1.33301 -4.33301 -3.66602 -8.16602 -6.99902 -11.499c-1.33301 -9.33301 -3.33301 -18.166 -6 -26.499
s-4.33398 -16.833 -5.00098 -25.5l-6 -4c-2 -1.33301 -4.66699 -1.33301 -8 0c-4 5.33301 -4.83301 11.333 -2.5 18s3.5 12.667 3.5 18c5.33301 6 7.5 13.167 6.5 21.5s0.5 15.833 4.5 22.5c-2 3.33301 -2.66699 7.5 -2 12.5s0.666992 9.16699 0 12.5
c-3.33301 1.33301 -6 0.666016 -8 -2.00098s-4.33301 -2.33398 -7 0.999023c1.33301 6.66699 6 12.667 14 18c5.33301 0 9.33301 -2 12 -6s4.66699 -8 6 -12c2.66699 0.666992 5.33398 2.5 8.00098 5.5s5.33398 5.66699 8.00098 8s5.33398 3.83301 8.00098 4.5
s5.66699 -0.666016 9 -3.99902l24 -18v0zM470.998 -49.0039c0.666992 2.66699 1.50098 6.33398 2.50098 11.001s1.66699 9.16699 2 13.5s-0.333984 8.16602 -2.00098 11.499s-4.5 5.33301 -8.5 6l-15 -19c-2 -7.33301 -3.66699 -15 -5 -23s-1 -15.667 1 -23
c2 -2 4.83301 -2.83301 8.5 -2.5s7 1.5 10 3.5s5.33301 4.83301 7 8.5s1.5 8.16699 -0.5 13.5zM579.999 -88.0039c4.66699 8.66699 5.83398 18.001 3.50098 28.001s-5.83301 18.667 -10.5 26c-3.33301 -4 -5.5 -8.33301 -6.5 -13s-1.83301 -9.33398 -2.5 -14.001
c0.666992 -5.33301 1.66699 -10.833 3 -16.5s5.66602 -9.16699 12.999 -10.5zM826.999 31.9971c-3.33301 -4 -7.16992 -6.66406 -11.5029 -7.99707s-8.83301 -2.33301 -13.5 -3l-14 -2c-4.66699 -0.666992 -9 -2.33398 -13 -5.00098c-11.333 -1.33301 -22 -3.5 -32 -6.5
s-17.667 -10.167 -23 -21.5c-3.33301 -6.66699 -7 -13.167 -11 -19.5s-7.83301 -12.833 -11.5 -19.5s-6.66699 -13.5 -9 -20.5s-2.83301 -14.5 -1.5 -22.5c1.33301 -6 5 -8.83301 11 -8.5s11 1.16602 15 2.49902c2.66699 0 4.83398 1.5 6.50098 4.5s4.16699 3.5 7.5 1.5
s3.5 -4 0.5 -6s-5.16699 -4.33301 -6.5 -7c-5.33301 -3.33301 -11.333 -5.83301 -18 -7.5s-13.334 -0.833984 -20.001 2.49902c-4.66699 5.33301 -8.16699 10.833 -10.5 16.5s-2.5 12.167 -0.5 19.5c1.33301 5.33301 4.66602 13.333 9.99902 24s15 27.334 29 50.001
c-5.33301 2.66699 -10.5 3.66699 -15.5 3s-10.167 -1.5 -15.5 -2.5s-10.666 -1.83301 -15.999 -2.5s-10.333 0 -15 2c3.33301 4 7.5 7 12.5 9s9.83301 3.66699 14.5 5c4 0.666992 8.33301 1 13 1c5.33301 0 10.333 0.333008 15 1s9 1.83398 13 3.50098s7.33301 4.5 10 8.5
c4.66699 7.33301 6.66699 14.833 6 22.5s-0.333984 15.5 0.999023 23.5c-3.33301 1.33301 -4.83301 3.33301 -4.5 6s0.5 4.66699 0.5 6c-3.33301 7.33301 -7.83301 13 -13.5 17s-12 6.83301 -19 8.5s-14.167 2.66699 -21.5 3s-14.333 0.5 -21 0.5
c-15.333 -1.33301 -29.666 -7 -42.999 -17s-23.333 -21.667 -30 -35c-5.33301 -10.667 -7.66602 -21.334 -6.99902 -32.001s3 -21.667 7 -33c-2 -8 -1.5 -15.667 1.5 -23l9 -21.5c3 -7 5.16699 -14.5 6.5 -22.5s-0.333984 -16.333 -5.00098 -25
c-4 -3.33301 -8.5 -4.66602 -13.5 -3.99902s-9.16699 1.66699 -12.5 3c-9.33301 4.66699 -14.166 12 -14.499 22s-2.16602 19.333 -5.49902 28c6 4 8.83301 9.5 8.5 16.5s1.5 13.167 5.5 18.5c1.33301 3.33301 1.83301 7.66602 1.5 12.999s-2.83301 9 -7.5 11
c-11.333 -1.33301 -23.666 -2 -36.999 -2s-25 -4 -35 -12l2 -22c0.666992 -7.33301 0.5 -14.666 -0.5 -21.999s-3 -14.333 -6 -21s-7.83301 -12.334 -14.5 -17.001c-7.33301 -1.33301 -15.333 0 -24 4c-6.66699 6 -9.5 13.167 -8.5 21.5s2.16699 16.5 3.5 24.5l16.5 31.5
c5.66699 11 14.167 18.5 25.5 22.5c5.33301 -3.33301 10.833 -4.33301 16.5 -3l16.5 4l49 1c3.33301 3.33301 5 7.33301 5 12c0 5.33301 0.666992 10 2 14c7.33301 19.333 18.833 36.5 34.5 51.5s34.167 23.167 55.5 24.5c11.333 1.33301 22.333 1.66602 33 0.999023
s21 -3.66699 31 -9c0 -3.33301 1 -6 3 -8s4.33301 -3.66699 7 -5s5 -3 7 -5s3.33301 -4.66699 4 -8c5.33301 -9.33301 7 -20.333 5 -33s-4.66699 -24.334 -8 -35.001c15.333 0 30.5 1.33301 45.5 4s29.167 5.33398 42.5 8.00098zM356.995 296
c-4.66699 1.33301 -8.99805 0.333008 -12.998 -3s-7.66699 -7 -11 -11c-7.33301 -9.33301 -14.166 -19.333 -20.499 -30s-7.5 -21.667 -3.5 -33c3.33301 -1.33301 5.66602 -1 6.99902 1l4 6c7.33301 7.33301 14.166 15 20.499 23s12.166 17 17.499 27zM495.997 274
c3.33301 3.33301 5 7.66602 5 12.999c0 6 -2.66699 9.66699 -8 11l-7 -29c3.33301 0.666992 5.5 1.33398 6.5 2.00098s2.16699 1.66699 3.5 3zM624.997 275c-12 -2 -23.667 -4.66602 -35 -7.99902l-34 -10c-11.333 -3.33301 -22.833 -6.16602 -34.5 -8.49902
s-23.5 -2.83301 -35.5 -1.5c-2 -2 -3.83301 -5.66699 -5.5 -11s-2.16699 -10.666 -1.5 -15.999s2.33398 -9.66602 5.00098 -12.999s7 -4 13 -2c2 2.66699 3.5 6.5 4.5 11.5s3.83301 8.16699 8.5 9.5c2.66699 -6 2.66699 -11.833 0 -17.5s-6 -10.834 -10 -15.501
c-2 -1.33301 -5.5 -2.16602 -10.5 -2.49902s-9.66699 1 -14 4s-7.83301 8.16699 -10.5 15.5s-2.66699 18 0 32c-1.33301 2 -2.83301 4 -4.5 6s-1.83398 4.66699 -0.500977 8c8 5.33301 12.5 12.166 13.5 20.499s2.5 16.833 4.5 25.5
c-1.33301 0.666992 -2 1.33398 -2 2.00098s-0.666992 1.33398 -2 2.00098c-12 -7.33301 -21.167 -17 -27.5 -29s-14.166 -22.667 -23.499 -32c0 -4.66699 -1.5 -8.83398 -4.5 -12.501s-6.16699 -7.33398 -9.5 -11.001s-6.16602 -7.5 -8.49902 -11.5
s-3.16602 -8.66699 -2.49902 -14c-2 -2 -3.16699 -4.66699 -3.5 -8s-0.833008 -6.5 -1.5 -9.5s-1.66699 -5.66699 -3 -8s-4.33301 -3.83301 -9 -4.5c-6 1.33301 -9.83301 3.83301 -11.5 7.5s-2.5 7.5 -2.5 11.5c0 4.66699 0.5 9.33398 1.5 14.001s1.16699 9 0.5 13
c-1.33301 12.667 -0.333008 24.334 3 35.001s4.33301 21.667 3 33c-6 -3.33301 -10 -8 -12 -14s-5.66699 -11.667 -11 -17c-3.33301 -4 -6.66602 -8.66699 -9.99902 -14s-6.83301 -10.333 -10.5 -15s-8 -8.16699 -13 -10.5s-10.833 -2.83301 -17.5 -1.5
c-6.66699 11.333 -7.33398 23.333 -2.00098 36s11.666 24.667 18.999 36c3.33301 3.33301 6.66602 7.16602 9.99902 11.499s7 8.16602 11 11.499s8.33301 5.83301 13 7.5s9.66699 1.5 15 -0.5c3.33301 -2 6.66602 -2 9.99902 0c6.66699 14 12 28.667 16 44
s7 30.666 9 45.999l10 8c4 -1.33301 6.33301 -3 7 -5s0.5 -4.33301 -0.5 -7s-2.16699 -5.33398 -3.5 -8.00098s-1.66602 -5.33398 -0.999023 -8.00098c-3.33301 -18.667 -7.5 -37.167 -12.5 -55.5s-8.5 -36.5 -10.5 -54.5c-1.33301 -10 -3.33301 -19.667 -6 -29
s-2.66699 -19 0 -29c11.333 14 22.166 29.333 32.499 46s23.166 32 38.499 46c4.66699 5.33301 9.66699 10.666 15 15.999s11.666 10 18.999 14c4.66699 -4 9.33398 -8.83301 14.001 -14.5s9.33398 -10.167 14.001 -13.5c-0.666992 -6 -1.16699 -12.833 -1.5 -20.5
s-1.83301 -14.167 -4.5 -19.5c18 4 36 7.33301 54 10s35.667 6.66699 53 12c5.33301 -3.33301 7.33301 -7.66602 6 -12.999zM249.997 506.001c-0.666992 -1.33301 -1.49414 -2.66699 -2.49414 -4s-4 -2.66602 -9 -3.99902s-13 -2.83301 -24 -4.5s-26.5 -3.16699 -46.5 -4.5
c-22.667 -2 -44.334 -4.83301 -65.001 -8.5s-41.667 -9.16699 -63 -16.5c-4 -7.33301 -8.66699 -10 -14 -8s-10 4 -14 6c-0.666992 6 1.66602 10.167 6.99902 12.5s8.66602 6.16602 9.99902 11.499c4.66699 8 8.66699 16 12 24l10 24c-0.666992 4 0.5 8.33301 3.5 13
s5.5 9 7.5 13c16.667 34 32.5 68.167 47.5 102.5s27.5 69.5 37.5 105.5c-2 9.33301 -0.666992 16.333 4 21c4 1.33301 6.66699 0.666016 8 -2.00098s2.66602 -5 3.99902 -7c-6 -26 -14 -51 -24 -75s-20.5 -47.833 -31.5 -71.5l-33 -71.5c-11 -24 -20.5 -48.667 -28.5 -74
l1 -2c25.333 4 49.666 8.33301 72.999 13s47.666 7.33398 72.999 8.00098c8 -1.33301 17 -2 27 -2s19 1.66699 27 5l3 -4v0zM407.003 536c-4 -8 -7.49707 -16.168 -10.4971 -24.501s-7.5 -16.166 -13.5 -23.499c-4.66699 -2 -9 -1.83301 -13 0.5s-6.66699 5.5 -8 9.5
c-9.33301 24 -11.333 49 -6 75c-0.666992 0.666992 -0.666992 3.33398 0 8.00098s1.5 10 2.5 16s1.5 12 1.5 18s-1 10.333 -3 13c-4.66699 -10 -7.5 -20.333 -8.5 -31s-1.83301 -21.167 -2.5 -31.5s-2.33398 -20.333 -5.00098 -30s-8.33398 -18.834 -17.001 -27.501
c-1.33301 -1.33301 -3.83301 -2.5 -7.5 -3.5s-7.66699 -0.5 -12 1.5s-8.33301 5.83301 -12 11.5s-6.16699 15.167 -7.5 28.5c2.66699 12.667 4.5 24.834 5.5 36.501s3.16699 23.5 6.5 35.5c1.33301 4.66699 1 9.5 -1 14.5s-0.333008 9.5 5 13.5
c5.33301 2.66699 9.33301 1.33398 12 -3.99902c0 -10 -0.833008 -20.5 -2.5 -31.5s-3.16699 -21.667 -4.5 -32s-2 -20.166 -2 -29.499c0 -8.66699 1.66699 -16.334 5 -23.001c4.66699 -3.33301 8.16699 -4 10.5 -2s4.16602 5 5.49902 9s2.33301 8.16699 3 12.5
s2 7.16602 4 8.49902c3.33301 13.333 5 27.333 5 42s2.33301 28.667 7 42c2 2 3.66699 4.5 5 7.5s2.83301 5.66699 4.5 8s3.66699 4 6 5s5.5 0.166992 9.5 -2.5c4 -13.333 5.83301 -26.166 5.5 -38.499s-1.16602 -24.833 -2.49902 -37.5s-2.33301 -25.334 -3 -38.001
s0.666016 -25.334 3.99902 -38.001c0.666992 -2 2.16699 -3.33301 4.5 -4s4.5 0.333008 6.5 3l2 5.5c1.33301 3.66699 3 7.5 5 11.5s4.33301 7.66699 7 11s5.66699 5 9 5zM562.006 563.999c-5.33301 -11.333 -13.167 -21.166 -23.5 -29.499s-22.166 -12.5 -35.499 -12.5
s-25.5 2.5 -36.5 7.5s-19.5 13.167 -25.5 24.5c-4 7.33301 -5.83301 15.166 -5.5 23.499s1.5 17.166 3.5 26.499c1.33301 6 4 11 8 15s6.33301 9 7 15c20 16 41.667 20 65 12c2.66699 -2 5.33398 -3.5 8.00098 -4.5s3.33398 -3.5 2.00098 -7.5
c-2 -2.66699 -4.33301 -2.66699 -7 0s-5.66699 4 -9 4c-8.66699 2.66699 -17.334 2.5 -26.001 -0.5s-16.667 -8.16699 -24 -15.5c-5.33301 -8 -9.66602 -16.833 -12.999 -26.5s-3.33301 -19.167 0 -28.5c13.333 -20 30.666 -31.333 51.999 -34c6 2.66699 12.333 4 19 4
c7.33301 0 13.666 3.33301 18.999 10c4.66699 2.66699 8.16699 6.83398 10.5 12.501s6.16602 7.16699 11.499 4.5zM755.005 741.999c-2.66699 -3.33301 -6.16016 -6.66895 -10.4932 -10.002s-9.16602 -4.66602 -14.499 -3.99902c-1.33301 2 -2.66602 4.33301 -3.99902 7
s-4 2.33398 -8 -0.999023c-19.333 -15.333 -38.333 -31.5 -57 -48.5s-32.334 -36.833 -41.001 -59.5c-3.33301 -13.333 -6 -27.333 -8 -42s-2.5 -29 -1.5 -43s4 -27.167 9 -39.5s13.167 -22.833 24.5 -31.5c6 -5.33301 13.167 -7.5 21.5 -6.5s16.166 1.16699 23.499 0.5
c4.66699 2.66699 8.5 5.5 11.5 8.5s6.5 5.83301 10.5 8.5c1.33301 -6 -0.833984 -10.333 -6.50098 -13s-10.834 -6 -15.501 -10c-10 -4 -20.833 -4.83301 -32.5 -2.5s-21.167 7.16602 -28.5 14.499c-14 12.667 -22.333 28 -25 46c-3.33301 1.33301 -4.83301 3 -4.5 5
s1 4 2 6s1.66699 4 2 6s-0.833984 3.66699 -3.50098 5c2.66699 4.66699 2.5 9.33398 -0.5 14.001s-2.5 10 1.5 16c0.666992 20 4.66699 38.5 12 55.5s16.666 33 27.999 48s24.166 29 38.499 42s29.166 25.167 44.499 36.5c2.66699 0 5.66699 0.5 9 1.5
s6.66602 1.5 9.99902 1.5s6.33301 -0.666992 9 -2s4 -4.33301 4 -9zM739.012 640.996c-3.33301 2.66699 -5.66797 2.49805 -7.00098 -0.501953s-3 -3.83301 -5 -2.5c-15.333 -7.33301 -26 -18.666 -32 -33.999s-9 -30.666 -9 -45.999c4 -1.33301 7.83301 0 11.5 4
s7.83398 5.33301 12.501 4c2 4.66699 5 9.5 9 14.5s7.66699 10 11 15s5.5 10.333 6.5 16s-0.5 11.167 -4.5 16.5c4 0 6.16699 1.83301 6.5 5.5s0.5 6.16699 0.5 7.5zM880.01 545.994c-2.66699 -5.33301 -6.16895 -10.5068 -10.502 -15.5068s-9.5 -8.16699 -15.5 -9.5
c-5.33301 1.33301 -9 3.5 -11 6.5s-4.66699 6.5 -8 10.5l3 14c3.33301 -1.33301 4.66602 -4 3.99902 -8s1.33301 -6.66699 6 -8c3.33301 -1.33301 6.5 -0.333008 9.5 3s5.5 6 7.5 8c3.33301 15.333 4.16602 30.333 2.49902 45s-6.16699 28.667 -13.5 42l-6 -3l-23 -20.5
c-7.33301 -6.33301 -13.666 -14.5 -18.999 -24.5l-8 -4c-9.33301 -9.33301 -17.666 -19.166 -24.999 -29.499s-15.333 -19.166 -24 -26.499c-4 -0.666992 -6.83301 -0.166992 -8.5 1.5s-2.83398 3.83398 -3.50098 6.50098s-1.16699 5.66699 -1.5 9s-1.16602 6 -2.49902 8
c1.33301 2.66699 1.83301 5.66699 1.5 9s-1.5 6 -3.5 8c-4 0.666992 -6.16699 -0.5 -6.5 -3.5s-1.83301 -5.16699 -4.5 -6.5c-5.33301 -5.33301 -10.166 -9.16602 -14.499 -11.499s-10.166 -3.83301 -17.499 -4.5c-7.33301 2 -11.833 5 -13.5 9s-2 8.5 -1 13.5
s2.66699 10.5 5 16.5s3.5 11.667 3.5 17c3.33301 10 8.16602 18.833 14.499 26.5s13.166 15.5 20.499 23.5c7.33301 1.33301 14.833 3.33301 22.5 6s14.167 0 19.5 -8l4 -6c-4.66699 -11.333 -7.83398 -23.166 -9.50098 -35.499s-3.5 -24.5 -5.5 -36.5
c0.666992 -2 1.33398 -4.16699 2.00098 -6.5s2.33398 -3.5 5.00098 -3.5c4 0 7 0.833008 9 2.5s3.83301 3.83398 5.5 6.50098s3.16699 5.33398 4.5 8.00098s3.33301 5 6 7c15.333 12.667 29.5 25.5 42.5 38.5l39.5 39.5c4 -1.33301 6.66699 -3.83301 8 -7.5s2 -7.5 2 -11.5
s0.166992 -8.16699 0.5 -12.5s1.5 -7.83301 3.5 -10.5c2.66699 -2 3.33398 -4.66699 2.00098 -8c4.66699 -10 6.66699 -20.333 6 -31s-2 -21.667 -4 -33zM975.008 646.987c-1.33301 19.333 -5.83203 38.668 -13.499 58.001s-21.167 33.666 -40.5 42.999
c4 6 8.16699 8.66699 12.5 8s8.33301 -2.66699 12 -6s7.16699 -7.5 10.5 -12.5s6 -8.83301 8 -11.5c10 -12.667 17 -26.5 21 -41.5s5.66699 -30.5 5 -46.5s-3.33398 -32 -8.00098 -48s-10.334 -31.333 -17.001 -46c-10.667 -22.667 -25.5 -43.834 -44.5 -63.501
s-40.833 -34.5 -65.5 -44.5c9.33301 6.66699 18.5 13.834 27.5 21.501s16.833 16.5 23.5 26.5c11.333 10 22 21.5 32 34.5s16.667 28.167 20 45.5c8.66699 13.333 13.834 27 15.501 41s2.16699 28 1.5 42z" />
    <glyph glyph-name="apple" unicode="&#xf8ff;" horiz-adv-x="1000" 
d="M255 60c-1.33301 7.33301 -6.00195 11.666 -14.002 12.999s-15 0.666016 -21 -2.00098c-7.33301 -6 -14.666 -12.333 -21.999 -19s-14 -13.667 -20 -21c-4 -10 -8.66699 -20 -14 -30s-10.166 -20 -14.499 -30s-8 -20.167 -11 -30.5s-4.16699 -21.166 -3.5 -32.499
c2 -0.666992 3.16699 -0.5 3.5 0.5s1.16602 2.16699 2.49902 3.5c10 12 20.333 23.667 31 35l32 35c10.667 12 20.334 24.333 29.001 37s16 26.334 22 41.001zM291.998 74c-4 -3.33301 -4.83301 -6.16895 -2.5 -8.50195s2.83301 -5.16602 1.5 -8.49902
c-1.33301 -25.333 -1.83301 -50.666 -1.5 -75.999s-1 -50.166 -4 -74.499s-8.83301 -47.5 -17.5 -69.5s-23 -42.333 -43 -61c-22 -13.333 -46 -21.5 -72 -24.5s-50.667 -1.16699 -74 5.5c-2.66699 1.33301 -5.33398 3.16602 -8.00098 5.49902s-3.66699 5.16602 -3 8.49902
c1.33301 6.66699 3.5 13.334 6.5 20.001s8.83301 11.334 17.5 14.001l-8 -16c-2.66699 -5.33301 -4.66699 -11 -6 -17c8 -5.33301 17.333 -9 28 -11s21.834 -2.66699 33.501 -2s23 2.66699 34 6s21.167 7.33301 30.5 12c9.33301 3.33301 16.833 8 22.5 14
s10.5 12.667 14.5 20s7.5 14.833 10.5 22.5s6.5 15.167 10.5 22.5c5.33301 23.333 9 48.5 11 75.5s3 50.5 3 70.5c3.33301 7.33301 4.16602 15.333 2.49902 24s-1.5 16.667 0.5 24c-1.33301 3.33301 -3.33301 4.5 -6 3.5s-4.66699 -1.83301 -6 -2.5
c-5.33301 -5.33301 -9.33301 -11.166 -12 -17.499s-6.66699 -11.5 -12 -15.5c0.666992 -5.33301 -0.166016 -9.33301 -2.49902 -12s-5 -5.16699 -8 -7.5s-6 -4.83301 -9 -7.5s-4.5 -6.33398 -4.5 -11.001c-14.667 -15.333 -28.334 -30.833 -41.001 -46.5
s-24.667 -31.5 -36 -47.5c-3.33301 -4 -6 -8 -8 -12s-5.66699 -5.66699 -11 -5c-3.33301 4.66699 -5 9.66699 -5 15c0 4.66699 0.333008 9.5 1 14.5s1.5 10.167 2.5 15.5s1.16699 10.666 0.5 15.999c4.66699 11.333 8.5 23 11.5 35s9.16699 23.667 18.5 35
c7.33301 16 16.833 31.833 28.5 47.5s25.834 28.5 42.501 38.5c9.33301 2.66699 17.333 1.83398 24 -2.49902l21 -13.5c6.66699 8 11 16 13 24c7.33301 -2.66699 11 -9.33398 11 -20.001zM420.998 11.9971c-2.66699 -2 -5.33398 -2.50098 -8.00098 -1.50098
s-5.33398 2.16699 -8.00098 3.5s-5.33398 2.5 -8.00098 3.5s-5.66699 0.5 -9 -1.5c-4.66699 -3.33301 -8 -7 -10 -11s-3.66699 -8.16699 -5 -12.5l-4 -13c-1.33301 -4.33301 -3.66602 -8.16602 -6.99902 -11.499c-1.33301 -9.33301 -3.33301 -18.166 -6 -26.499
s-4.33398 -16.833 -5.00098 -25.5l-6 -4c-2 -1.33301 -4.66699 -1.33301 -8 0c-4 5.33301 -4.83301 11.333 -2.5 18s3.5 12.667 3.5 18c5.33301 6 7.5 13.167 6.5 21.5s0.5 15.833 4.5 22.5c-2 3.33301 -2.66699 7.5 -2 12.5s0.666992 9.16699 0 12.5
c-3.33301 1.33301 -6 0.666016 -8 -2.00098s-4.33301 -2.33398 -7 0.999023c1.33301 6.66699 6 12.667 14 18c5.33301 0 9.33301 -2 12 -6s4.66699 -8 6 -12c2.66699 0.666992 5.33398 2.5 8.00098 5.5s5.33398 5.66699 8.00098 8s5.33398 3.83301 8.00098 4.5
s5.66699 -0.666016 9 -3.99902l24 -18v0zM470.998 -49.0039c0.666992 2.66699 1.50098 6.33398 2.50098 11.001s1.66699 9.16699 2 13.5s-0.333984 8.16602 -2.00098 11.499s-4.5 5.33301 -8.5 6l-15 -19c-2 -7.33301 -3.66699 -15 -5 -23s-1 -15.667 1 -23
c2 -2 4.83301 -2.83301 8.5 -2.5s7 1.5 10 3.5s5.33301 4.83301 7 8.5s1.5 8.16699 -0.5 13.5zM579.999 -88.0039c4.66699 8.66699 5.83398 18.001 3.50098 28.001s-5.83301 18.667 -10.5 26c-3.33301 -4 -5.5 -8.33301 -6.5 -13s-1.83301 -9.33398 -2.5 -14.001
c0.666992 -5.33301 1.66699 -10.833 3 -16.5s5.66602 -9.16699 12.999 -10.5zM826.999 31.9971c-3.33301 -4 -7.16992 -6.66406 -11.5029 -7.99707s-8.83301 -2.33301 -13.5 -3l-14 -2c-4.66699 -0.666992 -9 -2.33398 -13 -5.00098c-11.333 -1.33301 -22 -3.5 -32 -6.5
s-17.667 -10.167 -23 -21.5c-3.33301 -6.66699 -7 -13.167 -11 -19.5s-7.83301 -12.833 -11.5 -19.5s-6.66699 -13.5 -9 -20.5s-2.83301 -14.5 -1.5 -22.5c1.33301 -6 5 -8.83301 11 -8.5s11 1.16602 15 2.49902c2.66699 0 4.83398 1.5 6.50098 4.5s4.16699 3.5 7.5 1.5
s3.5 -4 0.5 -6s-5.16699 -4.33301 -6.5 -7c-5.33301 -3.33301 -11.333 -5.83301 -18 -7.5s-13.334 -0.833984 -20.001 2.49902c-4.66699 5.33301 -8.16699 10.833 -10.5 16.5s-2.5 12.167 -0.5 19.5c1.33301 5.33301 4.66602 13.333 9.99902 24s15 27.334 29 50.001
c-5.33301 2.66699 -10.5 3.66699 -15.5 3s-10.167 -1.5 -15.5 -2.5s-10.666 -1.83301 -15.999 -2.5s-10.333 0 -15 2c3.33301 4 7.5 7 12.5 9s9.83301 3.66699 14.5 5c4 0.666992 8.33301 1 13 1c5.33301 0 10.333 0.333008 15 1s9 1.83398 13 3.50098s7.33301 4.5 10 8.5
c4.66699 7.33301 6.66699 14.833 6 22.5s-0.333984 15.5 0.999023 23.5c-3.33301 1.33301 -4.83301 3.33301 -4.5 6s0.5 4.66699 0.5 6c-3.33301 7.33301 -7.83301 13 -13.5 17s-12 6.83301 -19 8.5s-14.167 2.66699 -21.5 3s-14.333 0.5 -21 0.5
c-15.333 -1.33301 -29.666 -7 -42.999 -17s-23.333 -21.667 -30 -35c-5.33301 -10.667 -7.66602 -21.334 -6.99902 -32.001s3 -21.667 7 -33c-2 -8 -1.5 -15.667 1.5 -23l9 -21.5c3 -7 5.16699 -14.5 6.5 -22.5s-0.333984 -16.333 -5.00098 -25
c-4 -3.33301 -8.5 -4.66602 -13.5 -3.99902s-9.16699 1.66699 -12.5 3c-9.33301 4.66699 -14.166 12 -14.499 22s-2.16602 19.333 -5.49902 28c6 4 8.83301 9.5 8.5 16.5s1.5 13.167 5.5 18.5c1.33301 3.33301 1.83301 7.66602 1.5 12.999s-2.83301 9 -7.5 11
c-11.333 -1.33301 -23.666 -2 -36.999 -2s-25 -4 -35 -12l2 -22c0.666992 -7.33301 0.5 -14.666 -0.5 -21.999s-3 -14.333 -6 -21s-7.83301 -12.334 -14.5 -17.001c-7.33301 -1.33301 -15.333 0 -24 4c-6.66699 6 -9.5 13.167 -8.5 21.5s2.16699 16.5 3.5 24.5l16.5 31.5
c5.66699 11 14.167 18.5 25.5 22.5c5.33301 -3.33301 10.833 -4.33301 16.5 -3l16.5 4l49 1c3.33301 3.33301 5 7.33301 5 12c0 5.33301 0.666992 10 2 14c7.33301 19.333 18.833 36.5 34.5 51.5s34.167 23.167 55.5 24.5c11.333 1.33301 22.333 1.66602 33 0.999023
s21 -3.66699 31 -9c0 -3.33301 1 -6 3 -8s4.33301 -3.66699 7 -5s5 -3 7 -5s3.33301 -4.66699 4 -8c5.33301 -9.33301 7 -20.333 5 -33s-4.66699 -24.334 -8 -35.001c15.333 0 30.5 1.33301 45.5 4s29.167 5.33398 42.5 8.00098zM356.995 296
c-4.66699 1.33301 -8.99805 0.333008 -12.998 -3s-7.66699 -7 -11 -11c-7.33301 -9.33301 -14.166 -19.333 -20.499 -30s-7.5 -21.667 -3.5 -33c3.33301 -1.33301 5.66602 -1 6.99902 1l4 6c7.33301 7.33301 14.166 15 20.499 23s12.166 17 17.499 27zM495.997 274
c3.33301 3.33301 5 7.66602 5 12.999c0 6 -2.66699 9.66699 -8 11l-7 -29c3.33301 0.666992 5.5 1.33398 6.5 2.00098s2.16699 1.66699 3.5 3zM624.997 275c-12 -2 -23.667 -4.66602 -35 -7.99902l-34 -10c-11.333 -3.33301 -22.833 -6.16602 -34.5 -8.49902
s-23.5 -2.83301 -35.5 -1.5c-2 -2 -3.83301 -5.66699 -5.5 -11s-2.16699 -10.666 -1.5 -15.999s2.33398 -9.66602 5.00098 -12.999s7 -4 13 -2c2 2.66699 3.5 6.5 4.5 11.5s3.83301 8.16699 8.5 9.5c2.66699 -6 2.66699 -11.833 0 -17.5s-6 -10.834 -10 -15.501
c-2 -1.33301 -5.5 -2.16602 -10.5 -2.49902s-9.66699 1 -14 4s-7.83301 8.16699 -10.5 15.5s-2.66699 18 0 32c-1.33301 2 -2.83301 4 -4.5 6s-1.83398 4.66699 -0.500977 8c8 5.33301 12.5 12.166 13.5 20.499s2.5 16.833 4.5 25.5
c-1.33301 0.666992 -2 1.33398 -2 2.00098s-0.666992 1.33398 -2 2.00098c-12 -7.33301 -21.167 -17 -27.5 -29s-14.166 -22.667 -23.499 -32c0 -4.66699 -1.5 -8.83398 -4.5 -12.501s-6.16699 -7.33398 -9.5 -11.001s-6.16602 -7.5 -8.49902 -11.5
s-3.16602 -8.66699 -2.49902 -14c-2 -2 -3.16699 -4.66699 -3.5 -8s-0.833008 -6.5 -1.5 -9.5s-1.66699 -5.66699 -3 -8s-4.33301 -3.83301 -9 -4.5c-6 1.33301 -9.83301 3.83301 -11.5 7.5s-2.5 7.5 -2.5 11.5c0 4.66699 0.5 9.33398 1.5 14.001s1.16699 9 0.5 13
c-1.33301 12.667 -0.333008 24.334 3 35.001s4.33301 21.667 3 33c-6 -3.33301 -10 -8 -12 -14s-5.66699 -11.667 -11 -17c-3.33301 -4 -6.66602 -8.66699 -9.99902 -14s-6.83301 -10.333 -10.5 -15s-8 -8.16699 -13 -10.5s-10.833 -2.83301 -17.5 -1.5
c-6.66699 11.333 -7.33398 23.333 -2.00098 36s11.666 24.667 18.999 36c3.33301 3.33301 6.66602 7.16602 9.99902 11.499s7 8.16602 11 11.499s8.33301 5.83301 13 7.5s9.66699 1.5 15 -0.5c3.33301 -2 6.66602 -2 9.99902 0c6.66699 14 12 28.667 16 44
s7 30.666 9 45.999l10 8c4 -1.33301 6.33301 -3 7 -5s0.5 -4.33301 -0.5 -7s-2.16699 -5.33398 -3.5 -8.00098s-1.66602 -5.33398 -0.999023 -8.00098c-3.33301 -18.667 -7.5 -37.167 -12.5 -55.5s-8.5 -36.5 -10.5 -54.5c-1.33301 -10 -3.33301 -19.667 -6 -29
s-2.66699 -19 0 -29c11.333 14 22.166 29.333 32.499 46s23.166 32 38.499 46c4.66699 5.33301 9.66699 10.666 15 15.999s11.666 10 18.999 14c4.66699 -4 9.33398 -8.83301 14.001 -14.5s9.33398 -10.167 14.001 -13.5c-0.666992 -6 -1.16699 -12.833 -1.5 -20.5
s-1.83301 -14.167 -4.5 -19.5c18 4 36 7.33301 54 10s35.667 6.66699 53 12c5.33301 -3.33301 7.33301 -7.66602 6 -12.999zM249.997 506.001c-0.666992 -1.33301 -1.49414 -2.66699 -2.49414 -4s-4 -2.66602 -9 -3.99902s-13 -2.83301 -24 -4.5s-26.5 -3.16699 -46.5 -4.5
c-22.667 -2 -44.334 -4.83301 -65.001 -8.5s-41.667 -9.16699 -63 -16.5c-4 -7.33301 -8.66699 -10 -14 -8s-10 4 -14 6c-0.666992 6 1.66602 10.167 6.99902 12.5s8.66602 6.16602 9.99902 11.499c4.66699 8 8.66699 16 12 24l10 24c-0.666992 4 0.5 8.33301 3.5 13
s5.5 9 7.5 13c16.667 34 32.5 68.167 47.5 102.5s27.5 69.5 37.5 105.5c-2 9.33301 -0.666992 16.333 4 21c4 1.33301 6.66699 0.666016 8 -2.00098s2.66602 -5 3.99902 -7c-6 -26 -14 -51 -24 -75s-20.5 -47.833 -31.5 -71.5l-33 -71.5c-11 -24 -20.5 -48.667 -28.5 -74
l1 -2c25.333 4 49.666 8.33301 72.999 13s47.666 7.33398 72.999 8.00098c8 -1.33301 17 -2 27 -2s19 1.66699 27 5l3 -4v0zM407.003 536c-4 -8 -7.49707 -16.168 -10.4971 -24.501s-7.5 -16.166 -13.5 -23.499c-4.66699 -2 -9 -1.83301 -13 0.5s-6.66699 5.5 -8 9.5
c-9.33301 24 -11.333 49 -6 75c-0.666992 0.666992 -0.666992 3.33398 0 8.00098s1.5 10 2.5 16s1.5 12 1.5 18s-1 10.333 -3 13c-4.66699 -10 -7.5 -20.333 -8.5 -31s-1.83301 -21.167 -2.5 -31.5s-2.33398 -20.333 -5.00098 -30s-8.33398 -18.834 -17.001 -27.501
c-1.33301 -1.33301 -3.83301 -2.5 -7.5 -3.5s-7.66699 -0.5 -12 1.5s-8.33301 5.83301 -12 11.5s-6.16699 15.167 -7.5 28.5c2.66699 12.667 4.5 24.834 5.5 36.501s3.16699 23.5 6.5 35.5c1.33301 4.66699 1 9.5 -1 14.5s-0.333008 9.5 5 13.5
c5.33301 2.66699 9.33301 1.33398 12 -3.99902c0 -10 -0.833008 -20.5 -2.5 -31.5s-3.16699 -21.667 -4.5 -32s-2 -20.166 -2 -29.499c0 -8.66699 1.66699 -16.334 5 -23.001c4.66699 -3.33301 8.16699 -4 10.5 -2s4.16602 5 5.49902 9s2.33301 8.16699 3 12.5
s2 7.16602 4 8.49902c3.33301 13.333 5 27.333 5 42s2.33301 28.667 7 42c2 2 3.66699 4.5 5 7.5s2.83301 5.66699 4.5 8s3.66699 4 6 5s5.5 0.166992 9.5 -2.5c4 -13.333 5.83301 -26.166 5.5 -38.499s-1.16602 -24.833 -2.49902 -37.5s-2.33301 -25.334 -3 -38.001
s0.666016 -25.334 3.99902 -38.001c0.666992 -2 2.16699 -3.33301 4.5 -4s4.5 0.333008 6.5 3l2 5.5c1.33301 3.66699 3 7.5 5 11.5s4.33301 7.66699 7 11s5.66699 5 9 5zM562.006 563.999c-5.33301 -11.333 -13.167 -21.166 -23.5 -29.499s-22.166 -12.5 -35.499 -12.5
s-25.5 2.5 -36.5 7.5s-19.5 13.167 -25.5 24.5c-4 7.33301 -5.83301 15.166 -5.5 23.499s1.5 17.166 3.5 26.499c1.33301 6 4 11 8 15s6.33301 9 7 15c20 16 41.667 20 65 12c2.66699 -2 5.33398 -3.5 8.00098 -4.5s3.33398 -3.5 2.00098 -7.5
c-2 -2.66699 -4.33301 -2.66699 -7 0s-5.66699 4 -9 4c-8.66699 2.66699 -17.334 2.5 -26.001 -0.5s-16.667 -8.16699 -24 -15.5c-5.33301 -8 -9.66602 -16.833 -12.999 -26.5s-3.33301 -19.167 0 -28.5c13.333 -20 30.666 -31.333 51.999 -34c6 2.66699 12.333 4 19 4
c7.33301 0 13.666 3.33301 18.999 10c4.66699 2.66699 8.16699 6.83398 10.5 12.501s6.16602 7.16699 11.499 4.5zM755.005 741.999c-2.66699 -3.33301 -6.16016 -6.66895 -10.4932 -10.002s-9.16602 -4.66602 -14.499 -3.99902c-1.33301 2 -2.66602 4.33301 -3.99902 7
s-4 2.33398 -8 -0.999023c-19.333 -15.333 -38.333 -31.5 -57 -48.5s-32.334 -36.833 -41.001 -59.5c-3.33301 -13.333 -6 -27.333 -8 -42s-2.5 -29 -1.5 -43s4 -27.167 9 -39.5s13.167 -22.833 24.5 -31.5c6 -5.33301 13.167 -7.5 21.5 -6.5s16.166 1.16699 23.499 0.5
c4.66699 2.66699 8.5 5.5 11.5 8.5s6.5 5.83301 10.5 8.5c1.33301 -6 -0.833984 -10.333 -6.50098 -13s-10.834 -6 -15.501 -10c-10 -4 -20.833 -4.83301 -32.5 -2.5s-21.167 7.16602 -28.5 14.499c-14 12.667 -22.333 28 -25 46c-3.33301 1.33301 -4.83301 3 -4.5 5
s1 4 2 6s1.66699 4 2 6s-0.833984 3.66699 -3.50098 5c2.66699 4.66699 2.5 9.33398 -0.5 14.001s-2.5 10 1.5 16c0.666992 20 4.66699 38.5 12 55.5s16.666 33 27.999 48s24.166 29 38.499 42s29.166 25.167 44.499 36.5c2.66699 0 5.66699 0.5 9 1.5
s6.66602 1.5 9.99902 1.5s6.33301 -0.666992 9 -2s4 -4.33301 4 -9zM739.012 640.996c-3.33301 2.66699 -5.66797 2.49805 -7.00098 -0.501953s-3 -3.83301 -5 -2.5c-15.333 -7.33301 -26 -18.666 -32 -33.999s-9 -30.666 -9 -45.999c4 -1.33301 7.83301 0 11.5 4
s7.83398 5.33301 12.501 4c2 4.66699 5 9.5 9 14.5s7.66699 10 11 15s5.5 10.333 6.5 16s-0.5 11.167 -4.5 16.5c4 0 6.16699 1.83301 6.5 5.5s0.5 6.16699 0.5 7.5zM880.01 545.994c-2.66699 -5.33301 -6.16895 -10.5068 -10.502 -15.5068s-9.5 -8.16699 -15.5 -9.5
c-5.33301 1.33301 -9 3.5 -11 6.5s-4.66699 6.5 -8 10.5l3 14c3.33301 -1.33301 4.66602 -4 3.99902 -8s1.33301 -6.66699 6 -8c3.33301 -1.33301 6.5 -0.333008 9.5 3s5.5 6 7.5 8c3.33301 15.333 4.16602 30.333 2.49902 45s-6.16699 28.667 -13.5 42l-6 -3l-23 -20.5
c-7.33301 -6.33301 -13.666 -14.5 -18.999 -24.5l-8 -4c-9.33301 -9.33301 -17.666 -19.166 -24.999 -29.499s-15.333 -19.166 -24 -26.499c-4 -0.666992 -6.83301 -0.166992 -8.5 1.5s-2.83398 3.83398 -3.50098 6.50098s-1.16699 5.66699 -1.5 9s-1.16602 6 -2.49902 8
c1.33301 2.66699 1.83301 5.66699 1.5 9s-1.5 6 -3.5 8c-4 0.666992 -6.16699 -0.5 -6.5 -3.5s-1.83301 -5.16699 -4.5 -6.5c-5.33301 -5.33301 -10.166 -9.16602 -14.499 -11.499s-10.166 -3.83301 -17.499 -4.5c-7.33301 2 -11.833 5 -13.5 9s-2 8.5 -1 13.5
s2.66699 10.5 5 16.5s3.5 11.667 3.5 17c3.33301 10 8.16602 18.833 14.499 26.5s13.166 15.5 20.499 23.5c7.33301 1.33301 14.833 3.33301 22.5 6s14.167 0 19.5 -8l4 -6c-4.66699 -11.333 -7.83398 -23.166 -9.50098 -35.499s-3.5 -24.5 -5.5 -36.5
c0.666992 -2 1.33398 -4.16699 2.00098 -6.5s2.33398 -3.5 5.00098 -3.5c4 0 7 0.833008 9 2.5s3.83301 3.83398 5.5 6.50098s3.16699 5.33398 4.5 8.00098s3.33301 5 6 7c15.333 12.667 29.5 25.5 42.5 38.5l39.5 39.5c4 -1.33301 6.66699 -3.83301 8 -7.5s2 -7.5 2 -11.5
s0.166992 -8.16699 0.5 -12.5s1.5 -7.83301 3.5 -10.5c2.66699 -2 3.33398 -4.66699 2.00098 -8c4.66699 -10 6.66699 -20.333 6 -31s-2 -21.667 -4 -33zM975.008 646.987c-1.33301 19.333 -5.83203 38.668 -13.499 58.001s-21.167 33.666 -40.5 42.999
c4 6 8.16699 8.66699 12.5 8s8.33301 -2.66699 12 -6s7.16699 -7.5 10.5 -12.5s6 -8.83301 8 -11.5c10 -12.667 17 -26.5 21 -41.5s5.66699 -30.5 5 -46.5s-3.33398 -32 -8.00098 -48s-10.334 -31.333 -17.001 -46c-10.667 -22.667 -25.5 -43.834 -44.5 -63.501
s-40.833 -34.5 -65.5 -44.5c9.33301 6.66699 18.5 13.834 27.5 21.501s16.833 16.5 23.5 26.5c11.333 10 22 21.5 32 34.5s16.667 28.167 20 45.5c8.66699 13.333 13.834 27 15.501 41s2.16699 28 1.5 42z" />
    <glyph glyph-name="fi" unicode="&#xf001;" horiz-adv-x="573" 
d="M528 648c-17.333 6 -36.166 10.667 -56.499 14s-39.166 5 -56.499 5c-51.333 0 -90.666 -11.833 -117.999 -35.5s-45 -57.5 -53 -101.5l-6 -33h299l-95 -497h-81l81 431h-217l-86 -457c-15.333 -81.333 -41.833 -139.833 -79.5 -175.5s-86.834 -53.5 -147.501 -53.5
c-30.667 0 -59.334 3 -86.001 9l21 72c12 -3.33301 24.167 -5.83301 36.5 -7.5s23.833 -2.5 34.5 -2.5c18 0 34.333 2.5 49 7.5s27.5 13.5 38.5 25.5s20.5 28 28.5 48s15 45 21 75l87 459h-102l13 66h103l3 23c19.333 144.667 106.666 217 261.999 217
c26 0 50.167 -1.83301 72.5 -5.5s43.5 -8.16699 63.5 -13.5z" />
    <glyph glyph-name="fi" unicode="&#xfb01;" horiz-adv-x="573" 
d="M528 648c-17.333 6 -36.166 10.667 -56.499 14s-39.166 5 -56.499 5c-51.333 0 -90.666 -11.833 -117.999 -35.5s-45 -57.5 -53 -101.5l-6 -33h299l-95 -497h-81l81 431h-217l-86 -457c-15.333 -81.333 -41.833 -139.833 -79.5 -175.5s-86.834 -53.5 -147.501 -53.5
c-30.667 0 -59.334 3 -86.001 9l21 72c12 -3.33301 24.167 -5.83301 36.5 -7.5s23.833 -2.5 34.5 -2.5c18 0 34.333 2.5 49 7.5s27.5 13.5 38.5 25.5s20.5 28 28.5 48s15 45 21 75l87 459h-102l13 66h103l3 23c19.333 144.667 106.666 217 261.999 217
c26 0 50.167 -1.83301 72.5 -5.5s43.5 -8.16699 63.5 -13.5z" />
    <glyph glyph-name="fl" unicode="&#xf002;" horiz-adv-x="573" 
d="M443 0l-81.9971 -0.000976562l125 660c-30.667 5.33301 -58.334 8 -83.001 8c-45.333 0 -80.5 -9.5 -105.5 -28.5s-41.5 -49.5 -49.5 -91.5l-10 -51h136l-15 -66h-134l-86 -457c-15.333 -81.333 -41.833 -139.833 -79.5 -175.5s-86.834 -53.5 -147.501 -53.5
c-30.667 0 -59.334 3 -86.001 9l21 72c12 -3.33301 24.167 -5.83301 36.5 -7.5s23.833 -2.5 34.5 -2.5c18 0 34.333 2.5 49 7.5s27.5 13.5 38.5 25.5s20.5 28 28.5 48s15 45 21 75l87 459h-102l13 66h102l10 54c11.333 60.667 37.5 106.834 78.5 138.501
s96.833 47.5 167.5 47.5c22 0 42 -0.666992 60 -2s34.333 -2.83301 49 -4.5s34.667 -4.5 60 -8.5z" />
    <glyph glyph-name="fl" unicode="&#xfb02;" horiz-adv-x="573" 
d="M443 0l-81.9971 -0.000976562l125 660c-30.667 5.33301 -58.334 8 -83.001 8c-45.333 0 -80.5 -9.5 -105.5 -28.5s-41.5 -49.5 -49.5 -91.5l-10 -51h136l-15 -66h-134l-86 -457c-15.333 -81.333 -41.833 -139.833 -79.5 -175.5s-86.834 -53.5 -147.501 -53.5
c-30.667 0 -59.334 3 -86.001 9l21 72c12 -3.33301 24.167 -5.83301 36.5 -7.5s23.833 -2.5 34.5 -2.5c18 0 34.333 2.5 49 7.5s27.5 13.5 38.5 25.5s20.5 28 28.5 48s15 45 21 75l87 459h-102l13 66h102l10 54c11.333 60.667 37.5 106.834 78.5 138.501
s96.833 47.5 167.5 47.5c22 0 42 -0.666992 60 -2s34.333 -2.83301 49 -4.5s34.667 -4.5 60 -8.5z" />
    <glyph glyph-name="Acute" unicode="&#xf6c9;" horiz-adv-x="500" 
d="M365 720l-14 41l186 87l20 -56z" />
    <glyph glyph-name="Caron" unicode="&#xf6ca;" horiz-adv-x="500" 
d="M346 721l-134 82l30 44l114 -65l134 65l18 -42z" />
    <glyph glyph-name="Dieresis" unicode="&#xf6cb;" horiz-adv-x="500" 
d="M277 783c0 -15.333 -4.99902 -27.833 -14.999 -37.5s-21.667 -14.5 -35 -14.5c-14 0 -25.667 4.5 -35 13.5s-14 20.167 -14 33.5c0 15.333 5.16699 27.833 15.5 37.5s22.166 14.5 35.499 14.5c14 0 25.5 -4.66699 34.5 -14s13.5 -20.333 13.5 -33zM490.001 783
c0 -15.333 -4.99902 -27.833 -14.999 -37.5s-21.667 -14.5 -35 -14.5c-14 0 -25.667 4.66699 -35 14s-14 20.666 -14 33.999c0 14.667 5.16699 26.834 15.5 36.501s22.166 14.5 35.499 14.5c14 0 25.5 -4.66699 34.5 -14s13.5 -20.333 13.5 -33z" />
    <glyph glyph-name="Grave" unicode="&#xf6ce;" horiz-adv-x="500" 
d="M400 720l-171 72l33 56l160 -86z" />
    <glyph glyph-name="zerooldstyle" unicode="&#xf730;" 
d="M436 396c0 52 -10.002 89.333 -30.002 112s-46 34 -78 34c-34.667 0 -65 -10.833 -91 -32.5s-47.667 -49 -65 -82s-30.333 -69 -39 -108s-13 -76.167 -13 -111.5c0 -52 9.83301 -89.833 29.5 -113.5s46.167 -35.5 79.5 -35.5c32 0 60.833 10 86.5 30
s47.334 46.167 65.001 78.5s31.334 68.5 41.001 108.5s14.5 80 14.5 120zM522.998 404c0 -52 -7.16699 -102.666 -21.5 -151.999s-34.666 -93.5 -60.999 -132.5s-58.5 -70.333 -96.5 -94s-80.667 -35.5 -128 -35.5c-56.667 0 -101.334 17.167 -134.001 51.5
s-49 86.833 -49 157.5c0 48.667 6.83301 97.5 20.5 146.5s33.667 93.167 60 132.5s58.5 71.166 96.5 95.499s81 36.5 129 36.5c27.333 0 52.333 -4.16699 75 -12.5s42 -21 58 -38s28.5 -38.333 37.5 -64s13.5 -56.167 13.5 -91.5z" />
    <glyph glyph-name="oneoldstyle" unicode="&#xf731;" 
d="M435 0h-394l15 72h168l84 436l-181 -116l-20 69l233 139h69l-103 -528h144z" />
    <glyph glyph-name="twooldstyle" unicode="&#xf732;" 
d="M477 465c0 -18.667 -3.16699 -38.0029 -9.5 -58.0029s-16.666 -41.167 -30.999 -63.5s-33.5 -46.166 -57.5 -71.499s-54 -52.666 -90 -81.999l-141 -116l-2 -2c23.333 1.33301 59.333 2.16602 108 2.49902s106.334 0.5 173.001 0.5l-16 -75h-391l13 65l169 143
c38.667 32.667 70.167 61 94.5 85s43.166 45.167 56.499 63.5s22.333 34.833 27 49.5s7 29.334 7 44.001c0 26 -7.5 47.167 -22.5 63.5s-38.833 24.5 -71.5 24.5c-28 0 -54.667 -4.83301 -80 -14.5s-47 -21.167 -65 -34.5l-12 70c24 14.667 50.667 26.834 80 36.501
s60.333 14.5 93 14.5c30.667 0 56.667 -4 78 -12s38.666 -18.833 51.999 -32.5s23 -29.167 29 -46.5s9 -35.333 9 -54z" />
    <glyph glyph-name="threeoldstyle" unicode="&#xf733;" 
d="M474 471c0 -17.333 -3.00293 -34.834 -9.00293 -52.501s-15.167 -34.5 -27.5 -50.5s-27.833 -30.667 -46.5 -44s-40.667 -24 -66 -32l-1 -1c32 -5.33301 57.5 -20.833 76.5 -46.5s28.5 -55.5 28.5 -89.5c0 -31.333 -7.16699 -62 -21.5 -92s-34.833 -56.5 -61.5 -79.5
s-58.5 -41.5 -95.5 -55.5s-78.167 -21 -123.5 -21c-21.333 0 -42.166 1.5 -62.499 4.5s-38.166 7.16699 -53.499 12.5l28 74c15.333 -6 32 -10.833 50 -14.5s36.667 -5.5 56 -5.5c27.333 0 52.833 4.5 76.5 13.5s44.167 21 61.5 36s31 32.667 41 53s15 41.5 15 63.5
c0 31.333 -10.833 56.5 -32.5 75.5s-53.5 28.5 -95.5 28.5c-16 0 -30.667 -0.333008 -44 -1s-26.666 -2 -39.999 -4l13 67h19c37.333 0 70.166 3.83301 98.499 11.5s52.166 18.334 71.499 32.001s33.833 29.5 43.5 47.5s14.5 37 14.5 57c0 26 -8.66699 46.5 -26 61.5
s-42.333 22.5 -75 22.5c-22 0 -44 -3 -66 -9s-43 -15 -63 -27l-6 69c22.667 10.667 47.334 19.167 74.001 25.5s53.334 9.5 80.001 9.5c58.667 0 101.5 -12.667 128.5 -38s40.5 -59 40.5 -101z" />
    <glyph glyph-name="fouroldstyle" unicode="&#xf734;" 
d="M369 517l-273 -360.001c13.333 0.666992 33 1.33398 59 2.00098s53 1 81 1h65l69 356zM472 87.999h-106l-33 -171h-80l33 171h-280l4 65l341 447h35h51h29l-86 -440h107z" />
    <glyph glyph-name="fiveoldstyle" unicode="&#xf735;" 
d="M482 523l-240.001 -0.000976562l-42 -184c12.667 0.666992 27 1 43 1c31.333 0 60 -4.16699 86 -12.5s47 -19.833 63 -34.5s27.833 -31.667 35.5 -51s11.5 -40.333 11.5 -63c0 -37.333 -8.16699 -72.333 -24.5 -105s-38.333 -61.5 -66 -86.5s-60 -44.667 -97 -59
s-76.5 -21.5 -118.5 -21.5c-17.333 0 -36 1.16699 -56 3.5s-39 5.83301 -57 10.5l24 75c16 -6 33 -10.5 51 -13.5s35.667 -4.5 53 -4.5c30.667 0 58.334 5.33301 83.001 16s45.667 24.667 63 42s30.833 37 40.5 59s14.5 44.667 14.5 68c0 34.667 -10.5 61.834 -31.5 81.501
s-57.167 29.5 -108.5 29.5c-17.333 0 -36 -0.666992 -56 -2s-35.667 -3 -47 -5l78 333h78h236z" />
    <glyph glyph-name="sixoldstyle" unicode="&#xf736;" 
d="M395 252c0 28.667 -8.16699 53.168 -24.5 73.501s-40.5 30.5 -72.5 30.5c-21.333 0 -41.666 -5.33301 -60.999 -16s-36.333 -24.334 -51 -41.001s-26.334 -35.5 -35.001 -56.5s-13 -41.833 -13 -62.5c0 -37.333 7.66699 -66.833 23 -88.5s38 -32.5 68 -32.5
c23.333 0 45 5.5 65 16.5s37.5 25.5 52.5 43.5s26.833 38.5 35.5 61.5s13 46.833 13 71.5zM490 609.001c-10 2 -19.5039 3.33008 -28.5039 3.99707s-18.833 1 -29.5 1c-62 0 -113.833 -20 -155.5 -60s-75.167 -95 -100.5 -165l-9.50098 -25s-7.16699 -19 -10.5 -27h1
c20 26 43.833 47 71.5 63s58.5 24 92.5 24c24.667 0 46.834 -4 66.501 -12s36.334 -19 50.001 -33s24 -30.5 31 -49.5s10.5 -39.833 10.5 -62.5c0 -34.667 -6.66699 -68.667 -20 -102s-31.666 -63 -54.999 -89s-50.833 -46.833 -82.5 -62.5s-65.5 -23.5 -101.5 -23.5
c-53.333 0 -94.166 16.667 -122.499 50s-42.5 79.333 -42.5 138c0 35.333 3.5 72.333 10.5 111s17.667 76.834 32 114.501s32.333 73.334 54 107.001s47 63.334 76 89.001s61.833 46 98.5 61s77.334 22.5 122.001 22.5c21.333 0 40 -1 56 -3z" />
    <glyph glyph-name="sevenoldstyle" unicode="&#xf737;" 
d="M526 530c-66 -96.667 -129.168 -197.168 -189.501 -301.501s-112.166 -208.166 -155.499 -311.499h-94c49.333 108.667 103 213.5 161 314.5s119 198.5 183 292.5c-28.667 -0.666992 -51.167 -1.16699 -67.5 -1.5s-37.833 -0.5 -64.5 -0.5h-179l16 78h404z" />
    <glyph glyph-name="eightoldstyle" unicode="&#xf738;" 
d="M375 179c0 24 -7.66797 46.002 -23.001 66.002s-40.666 41.333 -75.999 64c-45.333 -26 -81.833 -52.5 -109.5 -79.5s-41.5 -58.5 -41.5 -94.5c0 -23.333 9 -43 27 -59s43 -24 75 -24c20.667 0 40 3.5 58 10.5s33.667 16.167 47 27.5s23.833 24.666 31.5 39.999
s11.5 31.666 11.5 48.999zM430.999 546.002c0 24 -7.99902 43.332 -23.999 57.999s-39 22 -69 22c-17.333 0 -33.833 -3.16699 -49.5 -9.5s-29.334 -15 -41.001 -26s-21 -24 -28 -39s-10.5 -31.167 -10.5 -48.5c0 -23.333 7.66699 -43.666 23 -60.999
s35.333 -34.666 60 -51.999c42.667 25.333 76.5 50.166 101.5 74.499s37.5 51.5 37.5 81.5zM513 555.001c0 -24.667 -4.66895 -46.8301 -14.002 -66.4971s-21.666 -37.834 -36.999 -54.501s-32.666 -31.667 -51.999 -45s-38.666 -26 -57.999 -38
c33.333 -23.333 59.833 -47.5 79.5 -72.5s29.5 -54.5 29.5 -88.5c0 -29.333 -6.66699 -56.5 -20 -81.5s-31.5 -46.5 -54.5 -64.5s-49.5 -32.167 -79.5 -42.5s-61.667 -15.5 -95 -15.5c-58 0 -101.167 13 -129.5 39s-42.5 59.667 -42.5 101c0 44 15 83.333 45 118
s73.667 69 131 103c-32.667 23.333 -55.834 46.5 -69.501 69.5s-20.5 47.833 -20.5 74.5c0 29.333 6 56.166 18 80.499s28.167 45.166 48.5 62.499s44 30.833 71 40.5s55.833 14.5 86.5 14.5c54 0 94.667 -12.667 122 -38s41 -57.333 41 -96z" />
    <glyph glyph-name="nineoldstyle" unicode="&#xf739;" 
d="M412 429c0 34 -7.33301 61.332 -22 81.999s-38.667 31 -72 31c-22 0 -42.833 -5.33301 -62.5 -16s-36.667 -25.167 -51 -43.5s-25.666 -39.5 -33.999 -63.5s-12.5 -49.333 -12.5 -76c0 -28.667 7.5 -52.167 22.5 -70.5s38.5 -27.5 70.5 -27.5
c20 0 39.5 4.16699 58.5 12.5s36.167 20.5 51.5 36.5s27.666 35.333 36.999 58s14 48.334 14 77.001zM498 419.999c0 -19.333 -2.50098 -45.333 -7.50098 -78s-13.333 -68 -25 -106s-27.5 -76.5 -47.5 -115.5s-45 -74.167 -75 -105.5s-65.5 -57 -106.5 -77
s-88.833 -30 -143.5 -30c-13.333 0 -27.666 0.666992 -42.999 2s-29.333 3.33301 -42 6l22 75c12 -4.66699 25.167 -7.83398 39.5 -9.50098s27.833 -2.5 40.5 -2.5c30.667 0 59.667 5.83301 87 17.5s52.166 27.5 74.499 47.5s41.833 43.5 58.5 70.5
s30.334 56.167 41.001 87.5c3.33301 8.66699 6.16602 16.834 8.49902 24.501s4.16602 14.167 5.49902 19.5h-1c-19.333 -22.667 -42.5 -40.167 -69.5 -52.5s-54.833 -18.5 -83.5 -18.5c-27.333 0 -50.833 4 -70.5 12s-36 19 -49 33s-22.5 30.333 -28.5 49s-9 38.667 -9 60
c0 37.333 6.5 73 19.5 107s30.833 63.833 53.5 89.5s49.5 46.167 80.5 61.5s64.5 23 100.5 23c30.667 0 56.834 -5 78.501 -15s39.334 -23.667 53.001 -41s23.5 -37.5 29.5 -60.5s9 -47.5 9 -73.5z" />
    <glyph glyph-name=".null" horiz-adv-x="0" 
 />
    <glyph glyph-name="nonmarkingreturn" horiz-adv-x="500" 
 />
    <glyph glyph-name="uni20AC" 
d="M519 587c-13.333 7.33301 -28.502 12.665 -45.502 15.998s-34.167 5 -51.5 5c-26.667 0 -50.667 -4.16699 -72 -12.5s-40.5 -19.666 -57.5 -33.999s-32 -31 -45 -50s-24.167 -39.167 -33.5 -60.5h195l-12 -62h-206c-5.33301 -17.333 -9.83301 -34.666 -13.5 -51.999
s-6.5 -34 -8.5 -50h208l-12 -62h-200v-17c0 -46 12.333 -81 37 -105s62.667 -36 114 -36c36.667 0 70.667 6 102 18l3 -71c-21.333 -7.33301 -42.833 -12.833 -64.5 -16.5s-43.167 -5.5 -64.5 -5.5c-39.333 0 -72.833 5.33301 -100.5 16s-50.334 25.5 -68.001 44.5
s-30.667 42 -39 69s-12.5 56.833 -12.5 89.5c0 2 0.166992 4.16699 0.5 6.5s0.5 4.83301 0.5 7.5h-75l12 62h68c2 16 4.83301 32.667 8.5 50s8.16699 34.666 13.5 51.999h-70l12 62h77c12.667 30 28.334 58.833 47.001 86.5s41.334 52.167 68.001 73.5s57.5 38.333 92.5 51
s74.833 19 119.5 19c17.333 0 35.333 -1.66699 54 -5s35.334 -8.66602 50.001 -15.999z" />
    </font>
</defs>
</svg>
