<svg xmlns="http://www.w3.org/2000/svg">
<defs>
<font id="GrundfosTheSans-Bold" horiz-adv-x="550" >
  <font-face 
    font-family="Grundfos TheSans"
    font-weight="700"
    font-stretch="normal"
    units-per-em="1000"
    panose-1="2 11 8 3 4 3 2 6 2 4"
    ascent="740"
    descent="-260"
    x-height="497"
    cap-height="675"
    bbox="-62.998 -252.001 1075 868.571"
    underline-thickness="20"
    underline-position="-140"
    unicode-range="U+0020-U+F739"
  />
<missing-glyph horiz-adv-x="829" 
d="M509 133l-202 -52l21 -52h173l12 28l-5 12l-63 -16l-10 26l87 22zM508 201l-202 -51l14 -35l202 52zM519 263h-209v-47l12 -32l197 50v29zM451 414c-11.333 2 -23.333 3 -36 3c-13.333 0 -26.333 -1 -39 -3l12 -120h52l11 120v0zM574 416
c0 22 -4.16602 42.6631 -12.499 61.9961s-19.833 36.333 -34.5 51s-31.5 26.167 -50.5 34.5s-39.5 12.5 -61.5 12.5s-42.833 -4.16699 -62.5 -12.5s-36.667 -19.833 -51 -34.5s-25.833 -31.667 -34.5 -51s-13 -40 -13 -62c0 -23.333 4.83301 -45.5 14.5 -66.5
s23.5 -39.5 41.5 -55.5h51l-13 115c-7.33301 -1.33301 -13.333 -3 -18 -5s-9 -3.5 -13 -4.5s-7 0.166992 -9 3.5s-3.16699 7.33301 -3.5 12s0 9.16699 1 13.5s2.83301 6.5 5.5 6.5c15.333 5.33301 32 9.33301 50 12s36 4 54 4s35.833 -1.5 53.5 -4.5
s34.5 -6.83301 50.5 -11.5c2 -0.666992 3.66699 -3.16699 5 -7.5s1.66602 -8.66602 0.999023 -12.999s-2 -8.16602 -4 -11.499s-5 -4.66602 -9 -3.99902c-8 4 -18.667 7.33301 -32 10l-13 -115h51c14.667 13.333 27.667 30.333 39 51s17 44.334 17 71.001zM613.001 415.996
c0 -29.333 -5.49902 -55.833 -16.499 -79.5s-24.5 -43.5 -40.5 -59.5v-64l-13 -3l26 -62l-25 -7l25 -58l-25 -6l9 -22l-25 -55h-41c-2 -10 -9.83301 -18.5 -23.5 -25.5s-29.834 -10.5 -48.501 -10.5c-20 0 -36.833 3.5 -50.5 10.5s-21.167 15.5 -22.5 25.5h-41l-42 99l25 8
l-25 61l28 7l-16 38v64c-16 17.333 -29.333 37.833 -40 61.5s-16 49.5 -16 77.5c0 27.333 5.33301 53 16 77s25 45 43 63s39 32.333 63 43s50 16 78 16c26.667 0 52 -5.33301 76 -16s45 -25 63 -43s32.333 -39 43 -63s16 -49.667 16 -77zM726.002 398.996v33.999l100 6

<glyph glyph-name=".notdef" horiz-adv-x="829" 
d="M509 133l-202 -52l21 -52h173l12 28l-5 12l-63 -16l-10 26l87 22zM508 201l-202 -51l14 -35l202 52zM519 263h-209v-47l12 -32l197 50v29zM451 414c-11.333 2 -23.333 3 -36 3c-13.333 0 -26.333 -1 -39 -3l12 -120h52l11 120v0zM574 416
c0 22 -4.16602 42.6631 -12.499 61.9961s-19.833 36.333 -34.5 51s-31.5 26.167 -50.5 34.5s-39.5 12.5 -61.5 12.5s-42.833 -4.16699 -62.5 -12.5s-36.667 -19.833 -51 -34.5s-25.833 -31.667 -34.5 -51s-13 -40 -13 -62c0 -23.333 4.83301 -45.5 14.5 -66.5
s23.5 -39.5 41.5 -55.5h51l-13 115c-7.33301 -1.33301 -13.333 -3 -18 -5s-9 -3.5 -13 -4.5s-7 0.166992 -9 3.5s-3.16699 7.33301 -3.5 12s0 9.16699 1 13.5s2.83301 6.5 5.5 6.5c15.333 5.33301 32 9.33301 50 12s36 4 54 4s35.833 -1.5 53.5 -4.5
s34.5 -6.83301 50.5 -11.5c2 -0.666992 3.66699 -3.16699 5 -7.5s1.66602 -8.66602 0.999023 -12.999s-2 -8.16602 -4 -11.499s-5 -4.66602 -9 -3.99902c-8 4 -18.667 7.33301 -32 10l-13 -115h51c14.667 13.333 27.667 30.333 39 51s17 44.334 17 71.001zM613.001 415.996
c0 -29.333 -5.49902 -55.833 -16.499 -79.5s-24.5 -43.5 -40.5 -59.5v-64l-13 -3l26 -62l-25 -7l25 -58l-25 -6l9 -22l-25 -55h-41c-2 -10 -9.83301 -18.5 -23.5 -25.5s-29.834 -10.5 -48.501 -10.5c-20 0 -36.833 3.5 -50.5 10.5s-21.167 15.5 -22.5 25.5h-41l-42 99l25 8
l-25 61l28 7l-16 38v64c-16 17.333 -29.333 37.833 -40 61.5s-16 49.5 -16 77.5c0 27.333 5.33301 53 16 77s25 45 43 63s39 32.333 63 43s50 16 78 16c26.667 0 52 -5.33301 76 -16s45 -25 63 -43s32.333 -39 43 -63s16 -49.667 16 -77zM726.002 398.996v33.999l100 6
c2 -15.333 2 -30.666 0 -45.999zM642.002 620.995c-3.33301 4 -7 8 -11 12s-8 7.66699 -12 11l66 76l33 -33zM431.002 713.995h-17h-17l-6 101c16 1.33301 31.333 1.33301 46 0zM211.002 642.995l-12.502 -10.5c-4.33301 -3.66699 -8.16602 -7.5 -11.499 -11.5l-76 66
c10.667 12 21.334 23 32.001 33l68 -77v0zM2 392.995c-0.666992 6.66699 -1 14.332 -1 22.999s0.333008 16.334 1 23.001l102 -6c-0.666992 -10.667 -0.666992 -22 0 -34zM420 430.993l-0.999023 0.000976562v1c-0.666992 -1.33301 -1.33398 -2 -2.00098 -2
s-1 0.666992 -1 2s1 2 3 2c0 1.33301 -1 1.66602 -3 0.999023v1c2.66699 1.33301 4 1 4 -1v-4zM404.001 435.994l1 0.000976562v-4c0 -1.33301 -0.666992 -2 -2 -2s-2 0.666992 -2 2v4h1v-4l0.5 -1c0.333008 -0.666992 0.833008 -0.333984 1.5 0.999023v4zM426.001 432.995
c0 -1.33301 -1.33301 -2 -4 -2v1c2 0 3 0.333008 3 1c-2 0 -3 0.666992 -3 2s1.33301 2 4 2v-1c-2 0 -3 -0.333008 -3 -1c2 0 3 -0.666992 3 -2zM410.001 431.995v-0.999023c-2 -2 -3 -1.33301 -3 2c0 4 1 5 3 3v-1c-1.33301 1.33301 -2 0.666016 -2 -2.00098
c0 -2 0.666992 -2.33301 2 -1zM429.001 428.996h-1c1.33301 2.66699 1.33301 6 0 10h1c1.33301 -4 1.33301 -7.33301 0 -10zM414.001 428.996h-1c-1.33301 4 -1.33301 7.33301 0 10h1c-1.33301 -2.66699 -1.33301 -6 0 -10zM397.001 431.996h2v-1
c-1.33301 -1.33301 -2.33301 -1.33301 -3 0v7h1v-6zM419.001 432.996h-2c0 -2 0.666992 -2 2 0z" />
    <glyph glyph-name="space" unicode=" " horiz-adv-x="225" 
 />
    <glyph glyph-name="exclam" unicode="!" horiz-adv-x="305" 
d="M234 69c0 -22.667 -8 -41.667 -24 -57s-35.667 -23 -59 -23s-42.833 7.66699 -58.5 23s-23.5 34.333 -23.5 57c0 22 7.83301 40.833 23.5 56.5s35.167 23.5 58.5 23.5s43 -7.83301 59 -23.5s24 -34.5 24 -56.5zM213 193h-119l-22 526h161z" />
    <glyph glyph-name="quotedbl" unicode="&#x22;" horiz-adv-x="415" 
d="M162 491h-103l-17 260h137zM356 491h-103l-17 260h137z" />
    <glyph glyph-name="numbersign" unicode="#" 
d="M230 418l-14 -147h102l14 147h-102zM438 418l-14 -147h79v-96h-89l-17 -175h-106l17 175h-102l-17 -175h-106l17 175h-82v96h92l14 147h-79v96h89l15 161h106l-15 -161h102l16 161h106l-16 -161h82v-96h-92z" />
    <glyph glyph-name="dollar" unicode="$" 
d="M381 190c0 19.333 -5.66699 35.168 -17 47.501s-28 22.166 -50 29.499l-4 -154c22.667 4.66699 40.167 13.5 52.5 26.5s18.5 29.833 18.5 50.5zM237 563.002c-22 -3.33301 -39.167 -11.666 -51.5 -24.999s-18.5 -30 -18.5 -50c0 -18.667 5.66699 -33.334 17 -44.001
s28 -19.667 50 -27l3 146v0zM514 210.002c0 -56.667 -18.332 -103.333 -54.999 -140s-87.667 -60 -153 -70l-4 -129h-91l5 125c-28 0.666992 -55.5 3.33398 -82.5 8.00098s-51.833 10.667 -74.5 18l19 128c21.333 -10 44 -18.333 68 -25s49.333 -11 76 -13l4 174
c-28.667 6.66699 -54.5 15 -77.5 25s-42.667 22.333 -59 37s-28.833 32.334 -37.5 53.001s-13 45.334 -13 74.001c0 51.333 17.333 94.666 52 129.999s84.667 57 150 65l3 101h91l-4 -99c20.667 -1.33301 41 -3.5 61 -6.5s39.667 -7.16699 59 -12.5l-19 -109
c-16.667 6.66699 -33.834 11.834 -51.501 15.501s-35.834 6.16699 -54.501 7.5l-5 -170c26.667 -6.66699 51.834 -14.834 75.501 -24.501s44.167 -21.834 61.5 -36.501s31 -32.334 41 -53.001s15 -45 15 -73z" />
    <glyph glyph-name="percent" unicode="%" horiz-adv-x="817" 
d="M256 525c0 30 -4.5 50.666 -13.5 61.999s-22.5 17 -40.5 17c-14.667 0 -27.167 -7 -37.5 -21s-15.5 -33.667 -15.5 -59c0 -30 4.5 -50.833 13.5 -62.5s21.5 -17.5 37.5 -17.5s29.333 6.83301 40 20.5s16 33.834 16 60.501zM371 531.999
c0 -28.667 -4.83496 -54.167 -14.502 -76.5s-22.5 -41.333 -38.5 -57s-34.5 -27.667 -55.5 -36s-42.833 -12.5 -65.5 -12.5c-49.333 0 -88.833 14.167 -118.5 42.5s-44.5 70.5 -44.5 126.5c0 28 4.66699 53.167 14 75.5s22 41.166 38 56.499s34.333 27 55 35
s42.334 12 65.001 12s44.167 -3.16699 64.5 -9.5s37.833 -16.166 52.5 -29.499s26.334 -30.5 35.001 -51.5s13 -46.167 13 -75.5zM210.998 -27.001l-99 71l487 658l100 -71zM663.998 151.999c0 30 -4.50098 50.666 -13.501 61.999s-22.167 17 -39.5 17
c-15.333 0 -28.166 -7 -38.499 -21s-15.5 -33.667 -15.5 -59c0 -30 4.5 -50.833 13.5 -62.5s21.833 -17.5 38.5 -17.5c16 0 29.167 6.83301 39.5 20.5s15.5 33.834 15.5 60.501zM778.997 158.998c0 -28.667 -5.00098 -54.167 -15.001 -76.5s-23 -41.333 -39 -57
s-34.5 -27.667 -55.5 -36s-42.833 -12.5 -65.5 -12.5c-48.667 0 -87.834 14.167 -117.501 42.5s-44.5 70.5 -44.5 126.5c0 28 4.66699 53.167 14 75.5s21.833 41.166 37.5 56.499s33.834 27 54.501 35s42.334 12 65.001 12s44.167 -3.16699 64.5 -9.5
s37.833 -16.166 52.5 -29.499s26.5 -30.5 35.5 -51.5s13.5 -46.167 13.5 -75.5z" />
    <glyph glyph-name="ampersand" unicode="&#x26;" horiz-adv-x="797" 
d="M431 150l-49.4961 40.498l-49.5 43l-45 41.5c-14 13.333 -26.333 25.666 -37 36.999c-22 -19.333 -37.833 -37.666 -47.5 -54.999s-14.5 -34.666 -14.5 -51.999c0 -12.667 2.5 -25 7.5 -37s12.167 -22.667 21.5 -32s20.666 -16.833 33.999 -22.5s28.666 -8.5 45.999 -8.5
c27.333 0 52.166 4.33301 74.499 13s42.166 19.334 59.499 32.001zM337.004 579.998c0 15.333 -4.66699 28.499 -14 39.499s-23.666 16.5 -42.999 16.5c-17.333 0 -31.5 -5.5 -42.5 -16.5s-16.5 -25.167 -16.5 -42.5c0 -13.333 4 -28 12 -44s21.667 -35.333 41 -58
c19.333 16.667 34.666 33.334 45.999 50.001s17 35 17 55zM668.004 -25.0029l-34.9951 24.998l-36 26l-35 25.5l-30 22.5c-32 -24.667 -69.5 -45.167 -112.5 -61.5s-91.5 -24.5 -145.5 -24.5c-40 0 -74.333 5.33301 -103 16s-52.334 25.167 -71.001 43.5
s-32.5 39.666 -41.5 63.999s-13.5 49.833 -13.5 76.5c0 42.667 11.167 80.334 33.5 113.001s52.166 63.667 89.499 93c-29.333 34.667 -50.5 65.334 -63.5 92.001s-19.5 54.667 -19.5 84c0 22.667 4.5 44.334 13.5 65.001s22.167 38.667 39.5 54
s38.666 27.666 63.999 36.999s54.666 14 87.999 14c59.333 0 104.666 -13.667 135.999 -41s47 -64 47 -110c0 -35.333 -9.66699 -68.166 -29 -98.499s-49 -61.5 -89 -93.5l80 -73.5c30 -27 60.333 -52.167 91 -75.5v-1c19.333 30.667 34.166 64.667 44.499 102
s14.833 75 13.5 113h137c0.666992 -52 -6.66602 -103 -21.999 -153s-38.333 -95.667 -69 -137l67.5 -48.5l61.5 -43.5z" />
    <glyph glyph-name="quotesingle" unicode="'" horiz-adv-x="220" 
d="M162 491h-103l-17 260h137z" />
    <glyph glyph-name="parenleft" unicode="(" horiz-adv-x="307" 
d="M196 -215c-52 77.333 -89.832 158.501 -113.499 243.501s-35.5 170.5 -35.5 256.5c0 80.667 11.667 164.167 35 250.5s61.666 171.166 114.999 254.499l99 -50c-35.333 -66.667 -63 -136.5 -83 -209.5s-30 -153.167 -30 -240.5c0 -84 9.5 -163.167 28.5 -237.5
s47.833 -146.5 86.5 -216.5z" />
    <glyph glyph-name="parenright" unicode=")" horiz-adv-x="307" 
d="M261 289c0 -80.667 -11.668 -164.168 -35.001 -250.501s-61.666 -171.166 -114.999 -254.499l-99 50c35.333 66.667 63 136.5 83 209.5s30 153.167 30 240.5c0 84 -9.5 163.167 -28.5 237.5s-47.833 146.5 -86.5 216.5l102 51c52 -77.333 89.833 -158.5 113.5 -243.5
s35.5 -170.5 35.5 -256.5z" />
    <glyph glyph-name="asterisk" unicode="*" horiz-adv-x="387" 
d="M307 447l-83 68l17 -107h-98l18 107l-85 -68l-47 83l101 39l-101 38l48 84l84 -68l-18 107h98l-17 -107l83 68l49 -83l-101 -39l101 -38z" />
    <glyph glyph-name="plus" unicode="+" 
d="M336 203v-197h-123v197h-180v110h180v195h123v-195h181v-110h-181z" />
    <glyph glyph-name="comma" unicode="," horiz-adv-x="266" 
d="M132 158c24.667 0 45.334 -9.66895 62.001 -29.002s25 -44.666 25 -75.999s-10.333 -67.166 -31 -107.499s-55.334 -81.5 -104.001 -123.5l-56 50c34.667 37.333 54.167 67.833 58.5 91.5s-1.83398 45.167 -18.501 64.5c-10 12 -15.833 25.5 -17.5 40.5
s0.333008 29.167 6 42.5s14.834 24.5 27.501 33.5s28.667 13.5 48 13.5z" />
    <glyph glyph-name="hyphen" unicode="-" horiz-adv-x="335" 
d="M43 200v110h249v-110h-249z" />
    <glyph glyph-name="hyphen" unicode="&#xad;" horiz-adv-x="335" 
d="M43 200v110h249v-110h-249z" />
    <glyph glyph-name="period" unicode="." horiz-adv-x="266" 
d="M219 74c0 -12 -2.33105 -23.167 -6.99805 -33.5s-10.834 -19.333 -18.501 -27s-16.667 -13.834 -27 -18.501s-21.5 -7 -33.5 -7s-23.333 2.33301 -34 7s-19.834 10.834 -27.501 18.501s-13.834 16.667 -18.501 27s-7 21.5 -7 33.5c0 24 8.5 44.667 25.5 62
s37.5 26 61.5 26c12 0 23.167 -2.33301 33.5 -7s19.333 -11 27 -19s13.834 -17.333 18.501 -28s7 -22 7 -34z" />
    <glyph glyph-name="slash" unicode="/" horiz-adv-x="426" 
d="M156 0h-137l258 675h136z" />
    <glyph glyph-name="zero" unicode="0" 
d="M369 326c0 44.667 -2.00195 81.333 -6.00195 110s-9.83301 51 -17.5 67s-17.5 27 -29.5 33s-26 9 -42 9c-14 0 -26.667 -3.16699 -38 -9.5s-21.166 -17.666 -29.499 -33.999s-14.833 -38.333 -19.5 -66s-7 -62.5 -7 -104.5c0 -44.667 1.83301 -81.5 5.5 -110.5
s9.16699 -51.833 16.5 -68.5s17 -28.334 29 -35.001s26.667 -10 44 -10c14.667 0 27.834 3.5 39.501 10.5s21.5 19 29.5 36s14.167 39.5 18.5 67.5s6.5 63 6.5 105zM516.998 329.999c0 -60 -6.66797 -111.503 -20.001 -154.503s-31.333 -78.333 -54 -106
s-49 -48.167 -79 -61.5s-61.667 -20 -95 -20c-36.667 0 -69.667 5.33301 -99 16s-54.166 29 -74.499 55s-36 60.833 -47 104.5s-16.5 98.5 -16.5 164.5c0 56.667 6 105.834 18 147.501s29 76.334 51 104.001s48.167 48.334 78.5 62.001s63.833 20.5 100.5 20.5
c38 0 71.833 -6 101.5 -18s54.5 -31.167 74.5 -57.5s35.167 -60.5 45.5 -102.5s15.5 -93.333 15.5 -154z" />
    <glyph glyph-name="one" unicode="1" 
d="M63 0v124h161v383l-141 -55l-22 130l201 68h105v-526h140v-124h-444z" />
    <glyph glyph-name="two" unicode="2" 
d="M49 0l0.000976562 113.001l86 83c40 38 72 70 96 96s42.5 48.167 55.5 66.5s21.667 34 26 47s6.5 25.833 6.5 38.5c0 26 -8.66699 47.5 -26 64.5s-43 25.5 -77 25.5c-26.667 0 -51.667 -4.33301 -75 -13s-43.666 -19 -60.999 -31l-26 124c25.333 14 54.5 25.333 87.5 34
s68.167 13 105.5 13c39.333 0 73.166 -5.33301 101.499 -16s51.666 -25 69.999 -43s31.833 -38.5 40.5 -61.5s13 -46.833 13 -71.5c0 -22 -2.33301 -43 -7 -63s-13.167 -40.833 -25.5 -62.5s-29 -44.5 -50 -68.5s-47.833 -50.667 -80.5 -80l-67 -63v-2
c23.333 1.33301 50.333 2.16602 81 2.49902s63 0.5 97 0.5h75v-133h-446z" />
    <glyph glyph-name="three" unicode="3" 
d="M487 209c0 -35.333 -7.16797 -66.6699 -21.501 -94.0029s-34.5 -50.333 -60.5 -69s-57 -33 -93 -43s-75.667 -15 -119 -15c-25.333 0 -49.5 1.5 -72.5 4.5s-42.5 6.83301 -58.5 11.5l13 118c38 -12.667 80 -19 126 -19c48 0 82.833 8.83301 104.5 26.5
s32.5 39.5 32.5 65.5c0 25.333 -10.833 45.833 -32.5 61.5s-56.5 23.5 -104.5 23.5c-18.667 0 -36 -0.5 -52 -1.5s-33 -2.5 -51 -4.5v106h31c29.333 0 56 1.83301 80 5.5s44.667 9.33398 62 17.001s30.833 17.334 40.5 29.001s14.5 25.834 14.5 42.501
c0 22.667 -8.5 40.5 -25.5 53.5s-42.833 19.5 -77.5 19.5c-28 0 -53.5 -3 -76.5 -9s-43.833 -13.667 -62.5 -23l-12 116c25.333 9.33301 52.833 16.833 82.5 22.5s61.834 8.5 96.501 8.5c37.333 0 69.833 -4 97.5 -12s50.5 -19.167 68.5 -33.5s31.5 -31.333 40.5 -51
s13.5 -41.5 13.5 -65.5c0 -37.333 -9.83301 -68 -29.5 -92s-46.5 -41.667 -80.5 -53l-2 -2c18.667 -2.66699 36 -8.16699 52 -16.5s29.5 -19 40.5 -32s19.667 -27.667 26 -44s9.5 -33.5 9.5 -51.5z" />
    <glyph glyph-name="four" unicode="4" 
d="M311 512h-1l-155 -251c10 0 22.333 0.166992 37 0.5s29.667 0.5 45 0.5h43h31v250zM444 139v-139h-136v139h-278l-13 115l239 396h188v-388h86v-123h-86z" />
    <glyph glyph-name="five" unicode="5" 
d="M492 218c0 -35.333 -7 -67.001 -21 -95.001s-33.667 -52 -59 -72s-55.833 -35.333 -91.5 -46s-74.834 -16 -117.501 -16c-46.667 0 -88.667 4.33301 -126 13v124c20 -6 40.5 -10.667 61.5 -14s45.5 -5 73.5 -5c40.667 0 72.167 8.83301 94.5 26.5s33.5 41.5 33.5 71.5
s-12.667 52.833 -38 68.5s-60.333 23.5 -105 23.5c-21.333 0 -41.666 -0.666992 -60.999 -2s-36.666 -3.33301 -51.999 -6v361h380v-129h-248v-117c5.33301 0.666992 11 1 17 1h17c38.667 0 73.167 -4.66699 103.5 -14s55.666 -22.166 75.999 -38.499s35.833 -36 46.5 -59
s16 -48.167 16 -75.5z" />
    <glyph glyph-name="six" unicode="6" 
d="M379 203c0 31.333 -8.33301 55.833 -25 73.5s-41.334 26.5 -74.001 26.5c-16 0 -30 -2.66699 -42 -8s-22.167 -12.5 -30.5 -21.5s-14.666 -19 -18.999 -30s-6.5 -22.167 -6.5 -33.5c0 -31.333 8.5 -57.5 25.5 -78.5s42.833 -31.5 77.5 -31.5c30 0 53.167 9.66699 69.5 29
s24.5 44 24.5 74zM518 224c0 -37.333 -5.8291 -70.5 -17.4961 -99.5s-28 -53.667 -49 -74s-46.167 -35.833 -75.5 -46.5s-62 -16 -98 -16c-74 0 -132.833 23.5 -176.5 70.5s-65.5 119.167 -65.5 216.5c0 64 8.16699 120 24.5 168s39.333 88 69 120s65.667 56.167 108 72.5
s89.5 24.5 141.5 24.5c13.333 0 27.166 -0.333008 41.499 -1s27.166 -1.66699 38.499 -3v-119c-14 2.66699 -27.833 4.5 -41.5 5.5s-28.167 1.5 -43.5 1.5c-53.333 0 -95 -12.833 -125 -38.5s-51.667 -62.167 -65 -109.5c-3.33301 -10 -6.33301 -22.667 -9 -38h1
c32 38 78 57 138 57c33.333 0 62.666 -5 87.999 -15s46.666 -23.667 63.999 -41s30.333 -37.5 39 -60.5s13 -47.833 13 -74.5z" />
    <glyph glyph-name="seven" unicode="7" 
d="M500 531c-22 -42.667 -43.334 -87.002 -64.001 -133.002s-40.167 -92 -58.5 -138s-35.166 -91.167 -50.499 -135.5s-29 -85.833 -41 -124.5h-158c13.333 43.333 28.5 88.333 45.5 135s34.833 92.667 53.5 138s37.667 89 57 131s38 80 56 114
c-7.33301 0 -18.833 -0.166992 -34.5 -0.5s-33 -0.666016 -52 -0.999023s-39 -0.666016 -60 -0.999023s-40.833 -0.5 -59.5 -0.5h-85v135h451v-119v0z" />
    <glyph glyph-name="eight" unicode="8" 
d="M279 98c26.667 0 48.5029 6.49805 65.5029 19.498s25.5 30.5 25.5 52.5c0 12.667 -2.83301 23.834 -8.5 33.501s-13.334 18.5 -23.001 26.5s-20.834 15.333 -33.501 22s-26.334 13 -41.001 19c-23.333 -13.333 -43.166 -27.666 -59.499 -42.999s-24.5 -34 -24.5 -56
c0 -21.333 8.16699 -39 24.5 -53s41.166 -21 74.499 -21zM359.003 485.998c0 19.333 -7 35.668 -21 49.001s-35.667 20 -65 20c-28 0 -48.667 -6.83301 -62 -20.5s-20 -29.5 -20 -47.5c0 -20 7.66699 -36.833 23 -50.5s38 -27.5 68 -41.5
c21.333 12.667 39.5 26.167 54.5 40.5s22.5 31.166 22.5 50.499zM268.003 -12c-72.667 0 -129.329 15.498 -169.996 46.498s-61 73.167 -61 126.5c0 18.667 3 36 9 52s14.167 30.5 24.5 43.5s22.5 25 36.5 36s28.667 21.5 44 31.5c-30 17.333 -54 37.833 -72 61.5
s-27 53.5 -27 89.5c0 28 5.66699 53.5 17 76.5s27.166 42.667 47.499 59s44.666 29 72.999 38s59.166 13.5 92.499 13.5c34 0 64.333 -4.16699 91 -12.5s49.334 -19.833 68.001 -34.5s32.834 -32 42.501 -52s14.5 -41.667 14.5 -65c0 -35.333 -10 -65.166 -30 -89.499
s-44 -45.5 -72 -63.5c15.333 -8.66699 30.166 -18.167 44.499 -28.5s26.833 -22 37.5 -35s19.167 -27.667 25.5 -44s9.5 -34.833 9.5 -55.5c0 -32 -6.5 -60 -19.5 -84s-30.833 -44.167 -53.5 -60.5s-48.834 -28.666 -78.501 -36.999s-60.834 -12.5 -93.501 -12.5z" />
    <glyph glyph-name="nine" unicode="9" 
d="M364 440c0 32 -8.50098 58.335 -25.501 79.002s-42.5 31 -76.5 31c-29.333 0 -52.166 -9.83301 -68.499 -29.5s-24.5 -43.834 -24.5 -72.501c0 -32 8.16699 -56.833 24.5 -74.5s40.5 -26.5 72.5 -26.5s56.333 9.16699 73 27.5s25 40.166 25 65.499zM511.999 375.002
c0 -64.667 -8 -121 -24 -169s-39 -88 -69 -120s-66 -56 -108 -72s-89 -24 -141 -24c-14.667 0 -30.334 0.333008 -47.001 1s-32.667 2.66699 -48 6v121c17.333 -4.66699 34.5 -7.83398 51.5 -9.50098s33.833 -2.5 50.5 -2.5c52 0 92.667 12 122 36s50 59.333 62 106l5.5 18
c1.66699 5.33301 3.16699 11.666 4.5 18.999h-1c-15.333 -16 -34.333 -28.667 -57 -38s-48.667 -14 -78 -14c-33.333 0 -62.666 5 -87.999 15s-46.5 23.833 -63.5 41.5s-30 38.334 -39 62.001s-13.5 49.167 -13.5 76.5c0 36.667 6 69.5 18 98.5s28.667 53.5 50 73.5
s46.666 35.333 75.999 46s61.333 16 96 16c36.667 0 69.834 -5.83301 99.501 -17.5s55 -29.167 76 -52.5s37.167 -53.166 48.5 -89.499s17 -78.833 17 -127.5z" />
    <glyph glyph-name="colon" unicode=":" horiz-adv-x="279" 
d="M227 74c0 -12 -2.33301 -23.167 -7 -33.5s-11 -19.333 -19 -27s-17.333 -13.834 -28 -18.501s-22 -7 -34 -7s-23.167 2.33301 -33.5 7s-19.333 10.834 -27 18.501s-13.834 16.667 -18.501 27s-7 21.5 -7 33.5s2.33301 23.333 7 34s10.834 20 18.501 28
s16.667 14.333 27 19s21.5 7 33.5 7c24 0 44.667 -8.66699 62 -26s26 -38 26 -62zM227 355c0 -24 -8.66699 -44.5039 -26 -61.5039s-38 -25.5 -62 -25.5c-12 0 -23.167 2.33301 -33.5 7s-19.333 10.834 -27 18.501s-13.834 16.834 -18.501 27.501s-7 22 -7 34
s2.33301 23.333 7 34s10.834 19.834 18.501 27.501s16.667 13.834 27 18.501s21.5 7 33.5 7c24 0 44.667 -8.5 62 -25.5s26 -37.5 26 -61.5z" />
    <glyph glyph-name="semicolon" unicode=";" horiz-adv-x="279" 
d="M139 158c24.667 0 45.332 -9.66895 61.999 -29.002s25 -44.666 25 -75.999s-10.167 -67.166 -30.5 -107.499s-54.833 -81.5 -103.5 -123.5l-56 50c34.667 37.333 54.167 67.833 58.5 91.5s-1.83398 45.167 -18.501 64.5c-10 12 -15.833 25.5 -17.5 40.5
s0.333008 29.167 6 42.5s14.834 24.5 27.501 33.5s28.334 13.5 47.001 13.5zM226.998 354.998c0 -24 -8.66699 -44.5039 -26 -61.5039s-38 -25.5 -62 -25.5c-12 0 -23.167 2.33301 -33.5 7s-19.333 10.834 -27 18.501s-13.834 16.834 -18.501 27.501s-7 22 -7 34
s2.33301 23.333 7 34s10.834 19.834 18.501 27.501s16.667 13.834 27 18.501s21.5 7 33.5 7c24 0 44.667 -8.5 62 -25.5s26 -37.5 26 -61.5z" />
    <glyph glyph-name="semicolon" unicode="&#x37e;" horiz-adv-x="279" 
d="M139 158c24.667 0 45.332 -9.66895 61.999 -29.002s25 -44.666 25 -75.999s-10.167 -67.166 -30.5 -107.499s-54.833 -81.5 -103.5 -123.5l-56 50c34.667 37.333 54.167 67.833 58.5 91.5s-1.83398 45.167 -18.501 64.5c-10 12 -15.833 25.5 -17.5 40.5
s0.333008 29.167 6 42.5s14.834 24.5 27.501 33.5s28.334 13.5 47.001 13.5zM226.998 354.998c0 -24 -8.66699 -44.5039 -26 -61.5039s-38 -25.5 -62 -25.5c-12 0 -23.167 2.33301 -33.5 7s-19.333 10.834 -27 18.501s-13.834 16.834 -18.501 27.501s-7 22 -7 34
s2.33301 23.333 7 34s10.834 19.834 18.501 27.501s16.667 13.834 27 18.501s21.5 7 33.5 7c24 0 44.667 -8.5 62 -25.5s26 -37.5 26 -61.5z" />
    <glyph glyph-name="less" unicode="&#x3c;" 
d="M387 -46l-340 296l339 298l86 -86l-249 -211l249 -207z" />
    <glyph glyph-name="equal" unicode="=" 
d="M66 105v104h418v-104h-418zM66 296v106h418v-106h-418z" />
    <glyph glyph-name="greater" unicode="&#x3e;" 
d="M144 -46l-85 87l247 211l-248 207l85 89l340 -295z" />
    <glyph glyph-name="question" unicode="?" horiz-adv-x="437" 
d="M261 69c0 -22.667 -8 -41.667 -24 -57s-35.667 -23 -59 -23s-42.833 7.66699 -58.5 23s-23.5 34.333 -23.5 57c0 22 7.83301 40.833 23.5 56.5s35.167 23.5 58.5 23.5s43 -7.83301 59 -23.5s24 -34.5 24 -56.5zM394 516c0 -27.333 -5.00195 -50.665 -15.002 -69.998
s-22 -36.666 -36 -51.999s-28.833 -29.666 -44.5 -42.999s-29.167 -27.333 -40.5 -42s-19.166 -31.167 -23.499 -49.5s-2.5 -40.5 5.5 -66.5h-132c-10.667 31.333 -14.667 58.666 -12 81.999s9 43.833 19 61.5s22.5 33.334 37.5 47.001l43.5 39
c14 12.333 25.833 24.666 35.5 36.999s14.5 26.166 14.5 41.499c0 32 -17 56.667 -51 74s-83.333 26.333 -148 27l15 121c58.667 -0.666992 108.834 -6.83398 150.501 -18.501s76 -27 103 -46s46.833 -40.833 59.5 -65.5s19 -50.334 19 -77.001z" />
    <glyph glyph-name="at" unicode="@" horiz-adv-x="805" 
d="M444 424c-9.33301 3.33301 -21.001 5 -35.001 5s-26.167 -4.33301 -36.5 -13s-19 -19.5 -26 -32.5s-12.333 -27.167 -16 -42.5s-5.5 -30 -5.5 -44c0 -18 1.83301 -31 5.5 -39s10.167 -12 19.5 -12c16.667 0 32.834 12 48.501 36s28.5 60 38.5 108l7 34v0zM756.999 406
c0 -38.667 -5.33301 -73.6611 -16 -104.994s-25.667 -58 -45 -80s-42.5 -38.833 -69.5 -50.5s-56.5 -17.5 -88.5 -17.5c-28.667 0 -51.334 7.33301 -68.001 22s-24.667 34 -24 58h-3c-5.33301 -9.33301 -12 -18.833 -20 -28.5s-17.333 -18.334 -28 -26.001
s-22.334 -13.834 -35.001 -18.501s-26 -7 -40 -7c-30 0 -53 10.333 -69 31s-24 52.334 -24 95.001c0 31.333 4 60.833 12 88.5s20.5 52 37.5 73s38.667 37.667 65 50s57.833 18.5 94.5 18.5c19.333 0 39.5 -1.33301 60.5 -4s39.167 -6.33398 54.5 -11.001l-30 -166
c-5.33301 -30.667 -5.33301 -51.834 0 -63.501s16 -17.5 32 -17.5c24.667 0 45.834 12.5 63.501 37.5s26.5 62.5 26.5 112.5c0 24.667 -4 48.667 -12 72s-20.5 43.666 -37.5 60.999s-39 31.333 -66 42s-59.5 16 -97.5 16c-37.333 0 -72.5 -7.16699 -105.5 -21.5
s-61.667 -34.166 -86 -59.499s-43.5 -55.5 -57.5 -90.5s-21 -73.167 -21 -114.5c0 -35.333 4.83301 -68.333 14.5 -99s24.5 -57.334 44.5 -80.001s45.167 -40.667 75.5 -54s66.5 -20 108.5 -20c26.667 0 53.167 2 79.5 6s50.5 10 72.5 18l16 -98
c-25.333 -8.66699 -54.833 -15.334 -88.5 -20.001s-65.5 -7 -95.5 -7c-56 0 -105.5 9 -148.5 27s-79 42.5 -108 73.5s-50.833 67.333 -65.5 109s-22 86.167 -22 133.5c0 57.333 10.167 110.333 30.5 159s48.333 90.667 84 126s77.334 63 125.001 83s98.834 30 153.501 30
c50.667 0 96 -7.5 136 -22.5s73.667 -35.167 101 -60.5s48.166 -55.333 62.499 -90s21.5 -71.334 21.5 -110.001z" />
    <glyph glyph-name="A" unicode="A" horiz-adv-x="629" 
d="M338 410c-6.66699 19.333 -12.334 36.667 -17.001 52s-9 33.333 -13 54h-2c-4 -16.667 -8.66699 -34 -14 -52s-10.666 -34.667 -15.999 -50l-57 -170h175zM475 0.000976562l-45 133h-246l-44 -133h-141l233 675h22h98h39l239 -675h-155z" />
    <glyph glyph-name="B" unicode="B" horiz-adv-x="582" 
d="M393 207c0 30 -11.832 52 -35.499 66s-55.834 21 -96.501 21c-18.667 0 -37 -0.333008 -55 -1v-177c7.33301 -1.33301 16.833 -2.33301 28.5 -3s24.5 -1 38.5 -1c40 0 70 8.5 90 25.5s30 40.167 30 69.5zM383.001 489c0 23.333 -8 42 -24 56s-43 21 -81 21
c-13.333 0 -25.833 -0.166992 -37.5 -0.5s-23.167 -0.833008 -34.5 -1.5v-165c17.333 -0.666992 34.333 -1 51 -1c42 0 73.5 8 94.5 24s31.5 38.333 31.5 67zM543.001 209c0 -25.333 -4.83008 -50.668 -14.4971 -76.001s-25.334 -48 -47.001 -68
s-49.834 -36.167 -84.501 -48.5s-77.334 -18.5 -128.001 -18.5c-20 0 -47.5 0.333008 -82.5 1s-75.167 1 -120.5 1v674c30 1.33301 66.167 2.5 108.5 3.5s84.5 1.5 126.5 1.5c74 0 130.833 -14.167 170.5 -42.5s59.5 -70.166 59.5 -125.499
c0 -33.333 -9.5 -63.333 -28.5 -90s-43.833 -46.334 -74.5 -59.001v-3c18.667 -4 35.167 -11 49.5 -21s26.333 -21.667 36 -35s17 -28.166 22 -44.499s7.5 -32.833 7.5 -49.5z" />
    <glyph glyph-name="C" unicode="C" horiz-adv-x="562" 
d="M526 22c-25.333 -9.33301 -53.3301 -16.8311 -83.9971 -22.498s-61.667 -8.5 -93 -8.5c-57.333 0 -105.833 8.66699 -145.5 26s-71.834 40.833 -96.501 70.5s-42.667 64 -54 103s-17 80.5 -17 124.5c0 54 7.16699 103.333 21.5 148s35.666 83.167 63.999 115.5
s63.833 57.333 106.5 75s92 26.5 148 26.5c23.333 0 48 -1.83301 74 -5.5s50.333 -9.16699 73 -16.5l-29 -125c-20.667 7.33301 -40.834 12.666 -60.501 15.999s-40.834 5 -63.501 5c-30 0 -56.167 -5.33301 -78.5 -16s-41 -25.5 -56 -44.5s-26.333 -41.667 -34 -68
s-11.5 -55.5 -11.5 -87.5c0 -70.667 14.833 -124.834 44.5 -162.501s75.834 -56.5 138.501 -56.5c22 0 44.167 2.33301 66.5 7s41.833 11 58.5 19l28 -123v0z" />
    <glyph glyph-name="D" unicode="D" horiz-adv-x="664" 
d="M478 339c0 34.667 -3.33301 65.667 -10 93s-17.834 50.5 -33.501 69.5s-36.167 33.667 -61.5 44s-56.666 15.5 -93.999 15.5c-24 0 -48.333 -0.666992 -73 -2v-439c8 -1.33301 17.833 -2.33301 29.5 -3s23.834 -1 36.501 -1c30 0 57.5 4.33301 82.5 13
s46.667 22.167 65 40.5s32.666 41.5 42.999 69.5s15.5 61.333 15.5 100zM629 350c0 -58 -8.99805 -109 -26.998 -153s-43.167 -81 -75.5 -111s-71.333 -52.5 -117 -67.5s-95.834 -22.5 -150.501 -22.5c-36 0 -69.667 0.5 -101 1.5s-62 2.16699 -92 3.5v673
c26.667 1.33301 59.667 2.5 99 3.5s80.666 1.5 123.999 1.5c51.333 0 98 -6 140 -18s77.833 -31.167 107.5 -57.5s52.5 -60.333 68.5 -102s24 -92.167 24 -151.5z" />
    <glyph glyph-name="E" unicode="E" horiz-adv-x="491" 
d="M66 0v675h372v-118h-232v-153h220v-114h-220v-170h232v-120h-372z" />
    <glyph glyph-name="F" unicode="F" horiz-adv-x="464" 
d="M206 556v-162h213v-116h-213v-278h-140v675h365v-119h-225z" />
    <glyph glyph-name="G" unicode="G" horiz-adv-x="673" 
d="M587 526c-27.333 10.667 -56.0039 19 -86.0039 25s-61 9 -93 9c-32.667 0 -62.667 -5 -90 -15s-50.666 -24.667 -69.999 -44s-34.5 -43 -45.5 -71s-16.5 -60 -16.5 -96c0 -68.667 17.667 -122.167 53 -160.5s86.333 -57.5 153 -57.5c27.333 0 53 3.66699 77 11v229h141
v-324c-34 -13.333 -71 -23.666 -111 -30.999s-81 -11 -123 -11c-54 0 -102.167 7.66699 -144.5 23s-78.166 37.333 -107.499 66s-51.666 63.5 -66.999 104.5s-23 87.167 -23 138.5c0 53.333 8.83301 102.166 26.5 146.499s43 82.5 76 114.5s73 57 120 75
s100.167 27 159.5 27c34 0 67.333 -2.66699 100 -8s63.334 -12.333 92.001 -21z" />
    <glyph glyph-name="H" unicode="H" horiz-adv-x="684" 
d="M477 0v288h-271v-288h-140v675h140v-266h271v266h140v-675h-140z" />
    <glyph glyph-name="I" unicode="I" horiz-adv-x="272" 
d="M66 0v675h140v-675h-140z" />
    <glyph glyph-name="J" unicode="J" horiz-adv-x="337" 
d="M272 192c0 -27.333 -3 -53.168 -9 -77.501s-16.333 -45.666 -31 -63.999s-33.834 -32.833 -57.501 -43.5s-53.167 -16 -88.5 -16c-19.333 0 -35.5 0.666992 -48.5 2s-25.5 3.33301 -37.5 6v120c16.667 -6.66699 36.667 -10 60 -10c22.667 0 40.334 6.16699 53.001 18.5
s19 35.5 19 69.5v478h140v-483v0z" />
    <glyph glyph-name="K" unicode="K" horiz-adv-x="600" 
d="M410 0l-204 321v-321h-140v675h140v-303l206 303h170l-237 -326l248 -349h-183z" />
    <glyph glyph-name="L" unicode="L" horiz-adv-x="429" 
d="M66 0v675h140v-551h213v-124h-353z" />
    <glyph glyph-name="M" unicode="M" horiz-adv-x="879" 
d="M705 0l-45.999 303.997c-4.66699 30.667 -8.66699 58.834 -12 84.501s-6.33301 50.834 -9 75.501h-2c-4.66699 -23.333 -9.83398 -47.166 -15.501 -71.499s-12.834 -50.5 -21.501 -78.5l-98 -314h-137l-94 289c-9.33301 28 -17.833 57 -25.5 87s-13.5 59.333 -17.5 88h-2
c-2.66699 -30.667 -5.66699 -59.667 -9 -87l-10 -85l-37 -292h-142l106 675h163l105 -327c14.667 -46 27 -94 37 -144h2c5.33301 26.667 10.833 51 16.5 73s12.834 45.667 21.501 71l108 327h161l106 -675h-148z" />
    <glyph glyph-name="N" unicode="N" horiz-adv-x="697" 
d="M450 0l-182 320.999c-14.667 26 -28 51.333 -40 76s-22.667 48 -32 70c2 -28 3.5 -62.167 4.5 -102.5s1.5 -79.5 1.5 -117.5v-247h-136v675h181l172 -300c15.333 -27.333 29.833 -54.666 43.5 -81.999l39.5 -80c-1.33301 16 -2.5 34.333 -3.5 55s-1.66699 42.167 -2 64.5
l-1 66.5c-0.333008 22 -0.5 42.333 -0.5 61v215h136v-675h-181z" />
    <glyph glyph-name="O" unicode="O" horiz-adv-x="703" 
d="M522 337c0 72.667 -14.498 128 -43.498 166s-71.5 57 -127.5 57c-22 0 -43.333 -4.33301 -64 -13s-38.834 -22 -54.501 -40s-28.334 -40.667 -38.001 -68s-14.5 -59.333 -14.5 -96c0 -69.333 13.667 -124.5 41 -165.5s70 -61.5 128 -61.5
c20.667 0 41.167 4.16699 61.5 12.5s38.833 21.333 55.5 39s30.167 40.5 40.5 68.5s15.5 61.667 15.5 101zM672.002 347c0 -55.333 -8.66602 -105.166 -25.999 -149.499s-41 -82 -71 -113s-65.167 -54.833 -105.5 -71.5s-83.5 -25 -129.5 -25
c-52 0 -97.333 7.83301 -136 23.5s-70.834 38.334 -96.501 68.001s-44.834 65.5 -57.501 107.5s-19 89.333 -19 142c0 55.333 8.83301 105.166 26.5 149.499s41.5 82 71.5 113s65.167 54.667 105.5 71s83.166 24.5 128.499 24.5c44.667 0 85.834 -6.66699 123.501 -20
s70.334 -34 98.001 -62s49.167 -63.333 64.5 -106s23 -93.334 23 -152.001z" />
    <glyph glyph-name="P" unicode="P" horiz-adv-x="533" 
d="M367 460c0 32 -9.5 57.5 -28.5 76.5s-49.5 28.5 -91.5 28.5c-13.333 0 -27 -0.333008 -41 -1v-214c12 -2 23.333 -3 34 -3c37.333 0.666992 67.833 10.667 91.5 30s35.5 47 35.5 83zM512 467c0 -32.667 -5.99707 -63.334 -17.9971 -92.001s-29.333 -53.667 -52 -75
s-50.334 -38.166 -83.001 -50.499s-70 -18.5 -112 -18.5c-12.667 0 -26.334 0.333008 -41.001 1v-232h-140v675c28 1.33301 57.333 2.33301 88 3s63 1 97 1c85.333 0 150.166 -18.333 194.499 -55s66.5 -89 66.5 -157z" />
    <glyph glyph-name="Q" unicode="Q" horiz-adv-x="703" 
d="M701 -208c-31.333 -4.66699 -59.6689 -7 -85.002 -7c-24.667 0 -47.667 1.5 -69 4.5s-41.5 6.66699 -60.5 11s-38.167 8.33301 -57.5 12s-39.666 6.16699 -60.999 7.5s-45 0.333008 -71 -3v123c44.667 5.33301 83 5.83301 115 1.5s62.167 -9.5 90.5 -15.5
s57.833 -10.833 88.5 -14.5s67.334 -2.5 110.001 3.5v-123v0zM521.997 337c0 72.667 -14.498 128 -43.498 166s-71.5 57 -127.5 57c-22 0 -43.333 -4.33301 -64 -13s-38.834 -22 -54.501 -40s-28.334 -40.667 -38.001 -68s-14.5 -59.333 -14.5 -96
c0 -69.333 13.667 -124.5 41 -165.5s70 -61.5 128 -61.5c20.667 0 41.167 4.16699 61.5 12.5s38.833 21.333 55.5 39s30.167 40.5 40.5 68.5s15.5 61.667 15.5 101zM671.999 347c0 -55.333 -8.66602 -105.166 -25.999 -149.499s-41 -82 -71 -113
s-65.167 -54.833 -105.5 -71.5s-83.5 -25 -129.5 -25c-52 0 -97.333 7.83301 -136 23.5s-70.834 38.334 -96.501 68.001s-44.834 65.5 -57.501 107.5s-19 89.333 -19 142c0 55.333 8.83301 105.166 26.5 149.499s41.5 82 71.5 113s65.167 54.667 105.5 71
s83.166 24.5 128.499 24.5c44.667 0 85.834 -6.66699 123.501 -20s70.334 -34 98.001 -62s49.167 -63.333 64.5 -106s23 -93.334 23 -152.001z" />
    <glyph glyph-name="R" unicode="R" horiz-adv-x="570" 
d="M369 472c0 30.667 -9.16895 53.832 -27.502 69.499s-47.5 23.5 -87.5 23.5c-9.33301 0 -18.166 -0.166992 -26.499 -0.5s-15.5 -1.16602 -21.5 -2.49902v-186c4.66699 -0.666992 10.834 -1.16699 18.501 -1.5s16.167 -0.5 25.5 -0.5c36.667 0 65.667 8.83301 87 26.5
s32 41.5 32 71.5zM386.998 -0.00195312l-166.999 273.002h-14v-273h-140v675c28 1.33301 58.5 2.33301 91.5 3s69.5 1 109.5 1c38 0 72.5 -3.5 103.5 -10.5s57.167 -18.333 78.5 -34s37.833 -35.834 49.5 -60.501s17.5 -54.334 17.5 -89.001c0 -48 -14.333 -88.5 -43 -121.5
s-65.334 -55.167 -110.001 -66.5l27 -38.5c8.66699 -12.333 17 -24.833 25 -37.5l144 -221h-172z" />
    <glyph glyph-name="S" unicode="S" horiz-adv-x="503" 
d="M465 212c0 -32 -6.16504 -61.6738 -18.498 -89.0068s-30.333 -51 -54 -71s-52.167 -35.5 -85.5 -46.5s-71 -16.5 -113 -16.5c-24 0 -48.333 1.33301 -73 4s-48.334 6.66699 -71.001 12l16 130c19.333 -7.33301 41.166 -13.166 65.499 -17.499s48.833 -6.5 73.5 -6.5
c32 0 58.333 6.5 79 19.5s31 33.5 31 61.5c0 20.667 -6.83301 37 -20.5 49s-30.834 22.5 -51.501 31.5s-43 17.833 -67 26.5s-46.333 20.167 -67 34.5s-37.834 33 -51.501 56s-20.5 53.167 -20.5 90.5c0 30.667 5.83301 58.667 17.5 84s28.834 47 51.501 65
s50.167 32 82.5 42s69.166 15 110.499 15c18.667 0 39.167 -1 61.5 -3s43.833 -5 64.5 -9l-16 -121c-37.333 11.333 -76 17 -116 17c-36 0 -62.667 -7.16699 -80 -21.5s-26 -32.5 -26 -54.5c0 -19.333 6.83301 -34.666 20.5 -45.999s30.834 -21.666 51.501 -30.999
s43 -18.666 67 -27.999s46.333 -21.166 67 -35.499s37.834 -32.666 51.501 -54.999s20.5 -51.166 20.5 -86.499z" />
    <glyph glyph-name="T" unicode="T" horiz-adv-x="509" 
d="M324 555v-555h-140v555h-169v120h479v-120h-170z" />
    <glyph glyph-name="U" unicode="U" horiz-adv-x="678" 
d="M612 263c0 -93.333 -24.833 -162.499 -74.5 -207.499s-119.167 -67.5 -208.5 -67.5c-53.333 0 -97 6.66699 -131 20s-60.833 31.5 -80.5 54.5s-33.167 49.333 -40.5 79s-11 61.167 -11 94.5v439h140v-431c0 -20.667 2 -39.5 6 -56.5s11 -31.667 21 -44
s23.5 -21.833 40.5 -28.5s38.833 -10 65.5 -10c48 0 82.333 11.167 103 33.5s31 61.166 31 116.499v420h139v-412v0z" />
    <glyph glyph-name="V" unicode="V" horiz-adv-x="631" 
d="M396 0h-161.999l-233 675h152l127 -385l19 -60.5c6.66699 -21.667 13 -44.5 19 -68.5h2c5.33301 22.667 10.666 44 15.999 64s13 44.667 23 74l127 376h143z" />
    <glyph glyph-name="W" unicode="W" horiz-adv-x="951" 
d="M759 0l-172.001 0.000976562l-91 350c-5.33301 22 -10 45.333 -14 70s-7.66699 49.667 -11 75h-1c-5.33301 -49.333 -13.666 -96.333 -24.999 -141l-92 -354h-161l-170 675h149l87 -355c5.33301 -22 9.83301 -44.833 13.5 -68.5l10.5 -70.5h1
c3.33301 23.333 7 46.166 11 68.499s9 44.5 15 66.5l97 359h147l97 -356c5.33301 -18.667 10.333 -39.5 15 -62.5s8.66699 -46.833 12 -71.5h1c3.33301 24.667 7 48 11 70s8.66699 43.333 14 64l86 356h140z" />
    <glyph glyph-name="X" unicode="X" horiz-adv-x="636" 
d="M451 0l-138 240l-139 -240h-166l214 345l-201 330h163l131 -228l130 228h160l-198 -330l221 -345h-177z" />
    <glyph glyph-name="Y" unicode="Y" horiz-adv-x="568" 
d="M352 238l0.000976562 -238.001h-140v237l-211 438h153l84 -185c9.33301 -20 17.666 -39.167 24.999 -57.5s14 -36.166 20 -53.499h2c7.33301 19.333 15.5 39.5 24.5 60.5l28.5 63.5l81 172h148z" />
    <glyph glyph-name="Z" unicode="Z" horiz-adv-x="537" 
d="M45 0l-0.00292969 109l232 383c6.66699 10.667 13.334 20.667 20.001 30l21 29c-11.333 -0.666992 -25.166 -1.16699 -41.499 -1.5s-41.166 -0.5 -74.499 -0.5h-150v126h437v-113l-246 -391l-14 -21.5l-15 -21.5c7.33301 1.33301 22 2 44 2h96h139v-130h-448z" />
    <glyph glyph-name="bracketleft" unicode="[" horiz-adv-x="329" 
d="M67 -206v985h227v-110h-97v-764h97v-111h-227z" />
    <glyph glyph-name="backslash" unicode="\" horiz-adv-x="415" 
d="M273 0l-262 675h131l264 -675h-133z" />
    <glyph glyph-name="bracketright" unicode="]" horiz-adv-x="329" 
d="M36 -206v111h96v764h-96v110h226v-985h-226z" />
    <glyph glyph-name="asciicircum" unicode="^" 
d="M398 333l-129 247l-123 -247l-87 46l163 296h99l169 -294z" />
    <glyph glyph-name="underscore" unicode="_" 
d="M0 -252v111h550v-111h-550z" />
    <glyph glyph-name="grave" unicode="`" horiz-adv-x="375" 
d="M273 559l-193 94l57 96l183 -110z" />
    <glyph glyph-name="a" unicode="a" horiz-adv-x="525" 
d="M320 218c-31.333 0 -57.002 -2 -77.002 -6s-35.667 -9.5 -47 -16.5s-19.166 -15 -23.499 -24s-6.5 -18.167 -6.5 -27.5c0 -14.667 5 -26.5 15 -35.5s23.667 -13.5 41 -13.5c14.667 0 28 3.16699 40 9.5s22.333 14.5 31 24.5s15.334 21.667 20.001 35s7 27 7 41v13z
M330.998 0c0 13.333 0.333984 26.8311 1.00098 40.498s2 26.834 4 39.501l-1 1c-12 -27.333 -32 -49.333 -60 -66s-60 -25 -96 -25c-46 0 -81.333 12.167 -106 36.5s-37 56.5 -37 96.5c0 30 7 56.5 21 79.5s33.667 42.167 59 57.5s55.333 26.833 90 34.5
s72.667 11.5 114 11.5v24c0 24 -6.83301 42 -20.5 54s-38.167 18 -73.5 18c-22.667 0 -47.5 -3.5 -74.5 -10.5s-50.833 -16.167 -71.5 -27.5l-12 115c25.333 8.66699 53.5 15.834 84.5 21.501s62.5 8.5 94.5 8.5c41.333 0 75.5 -4 102.5 -12s48.5 -19.5 64.5 -34.5
s27.333 -33.333 34 -55s10 -46.167 10 -73.5v-210c0 -19.333 0.166992 -39.833 0.5 -61.5s1.16602 -42.5 2.49902 -62.5h-130z" />
    <glyph glyph-name="b" unicode="b" horiz-adv-x="559" 
d="M380 261c0 88 -26.001 131.999 -78.001 131.999c-15.333 0 -29.166 -4 -41.499 -12s-22.666 -19 -30.999 -33s-14.833 -30.167 -19.5 -48.5s-7 -37.833 -7 -58.5v-134c14.667 -4.66699 35 -7 61 -7c16.667 0 32.167 2.83301 46.5 8.5s26.666 14.834 36.999 27.501
s18.333 29.167 24 49.5s8.5 45.5 8.5 75.5zM524.999 273.999c0 -41.333 -6 -79.502 -18 -114.502s-29.5 -65 -52.5 -90s-51.333 -44.5 -85 -58.5s-72.167 -21 -115.5 -21c-36.667 0 -70 2 -100 6s-59.667 10 -89 18v716h138v-207c0 -15.333 -0.666992 -32.166 -2 -50.499
s-3.33301 -34.166 -6 -47.499h1c12.667 25.333 31.667 45.333 57 60s55 22 89 22c60 0 105.5 -20.5 136.5 -61.5s46.5 -98.167 46.5 -171.5z" />
    <glyph glyph-name="c" unicode="c" horiz-adv-x="431" 
d="M406 21c-19.333 -8.66699 -42.498 -15.833 -69.498 -21.5s-53.167 -8.5 -78.5 -8.5c-71.333 0 -126.833 19.5 -166.5 58.5s-59.5 99.833 -59.5 182.5c0 38 5.16699 73.833 15.5 107.5s26.166 62.834 47.499 87.501s48.166 44.167 80.499 58.5s70.833 21.5 115.5 21.5
c17.333 0 36 -1.5 56 -4.5s38 -7.16699 54 -12.5l-27 -117c-24.667 11.333 -52 17 -82 17c-38.667 0 -67.667 -13 -87 -39s-29 -61.333 -29 -106c0 -40.667 8.83301 -73.334 26.5 -98.001s46.167 -37 85.5 -37c16 0 32.167 1.66699 48.5 5s30.833 8.33301 43.5 15l26 -109v0
z" />
    <glyph glyph-name="d" unicode="d" horiz-adv-x="558" 
d="M355 390c-18.667 4.66699 -38.999 7.00098 -60.999 7.00098c-16.667 0 -32.167 -2.83301 -46.5 -8.5s-26.666 -14.834 -36.999 -27.501s-18.333 -29.167 -24 -49.5s-8.5 -45.5 -8.5 -75.5c0 -88.667 26 -133 78 -133c15.333 0 29.166 4.16699 41.499 12.5
s22.666 19.5 30.999 33.5s14.833 30.333 19.5 49s7 38.667 7 60v132zM365.001 0.000976562c0 11.333 0.499023 23.833 1.49902 37.5s2.5 27.167 4.5 40.5h-2c-13.333 -26 -33 -47.333 -59 -64s-58 -25 -96 -25c-60.667 0 -106 21 -136 63s-45 98.667 -45 170
c0 41.333 6 79.5 18 114.5s29.333 65 52 90s50.334 44.5 83.001 58.5s70 21 112 21c18.667 0 37.667 -1 57 -3v227h137v-730h-127z" />
    <glyph glyph-name="e" unicode="e" horiz-adv-x="516" 
d="M343 314c1.33301 30 -5.16797 53.167 -19.501 69.5s-34.166 24.5 -59.499 24.5s-46 -8.66699 -62 -26s-25.333 -40 -28 -68h169v0zM479.999 283c0 -9.33301 -0.499023 -19.168 -1.49902 -29.501s-2.16699 -21.166 -3.5 -32.499h-303c0 -82.667 43.667 -124 131 -124
c24.667 0 49.667 2.5 75 7.5s49 12.833 71 23.5l13 -106c-28 -10.667 -57.333 -18.667 -88 -24s-61.667 -8 -93 -8c-80.667 0 -142.334 20.333 -185.001 61s-64 105 -64 193c0 38 5.16699 73.167 15.5 105.5s25.5 60.166 45.5 83.499s44.667 41.666 74 54.999s63 20 101 20
c36.667 0 68.334 -5.83301 95.001 -17.5s48.667 -27.667 66 -48s30.166 -44.166 38.499 -71.499s12.5 -56.666 12.5 -87.999z" />
    <glyph glyph-name="f" unicode="f" horiz-adv-x="355" 
d="M363 618c-20 6 -40 9.00098 -60 9.00098c-26 0 -45 -6.83301 -57 -20.5s-18 -35.834 -18 -66.501v-43h110v-106h-110v-391h-137v391h-83v106h83v41c0 67.333 15.833 117.5 47.5 150.5s82.5 49.5 152.5 49.5c13.333 0 26.833 -0.5 40.5 -1.5s27.167 -3.16699 40.5 -6.5z
" />
    <glyph glyph-name="g" unicode="g" horiz-adv-x="555" 
d="M388 -71c0 16.667 -5.83398 30.167 -17.501 40.5s-30.5 15.833 -56.5 16.5l-83 2c-3.33301 0 -7 0.166992 -11 0.5s-7.66699 0.833008 -11 1.5c-13.333 -8 -23.333 -18.167 -30 -30.5s-10 -24.833 -10 -37.5c0 -21.333 8.83301 -38.333 26.5 -51s41.834 -19 72.501 -19
c40 0 70 7.5 90 22.5s30 33.167 30 54.5zM354.999 327c0 25.333 -7.83301 45.501 -23.5 60.501s-37.5 22.5 -65.5 22.5s-50 -7.66699 -66 -23s-24 -35 -24 -59c0 -25.333 8 -45.333 24 -60s38.333 -22 67 -22c26.667 0 48 7.16699 64 21.5s24 34.166 24 59.499z
M468.999 389.001c5.33301 -7.33301 9.50293 -15.6689 12.5029 -25.002s4.5 -19.666 4.5 -30.999c0 -54 -19.5 -97.333 -58.5 -130s-95.5 -49 -169.5 -49c-12.667 0 -23.334 1 -32.001 3c-14 -9.33301 -21 -20.333 -21 -33c0 -11.333 5.16699 -18.666 15.5 -21.999
s29.833 -5.66602 58.5 -6.99902l74 -2c54 -1.33301 95.833 -13.5 125.5 -36.5s44.5 -59.167 44.5 -108.5c0 -27.333 -6.5 -53 -19.5 -77s-31.333 -45 -55 -63s-52.5 -32.333 -86.5 -43s-72 -16 -114 -16c-67.333 0 -120 12.167 -158 36.5s-57 61.166 -57 110.499
c0 25.333 7.5 48.666 22.5 69.999s32.167 37.333 51.5 48c-14.667 7.33301 -26.334 17.5 -35.001 30.5s-13 28.167 -13 45.5c0 18.667 6 36.5 18 53.5s27 29.5 45 37.5c-22 11.333 -40 28.833 -54 52.5s-21 51.5 -21 83.5c0 26 4.83301 50.5 14.5 73.5s24 43.333 43 61
s42.667 31.667 71 42s61.166 15.5 98.499 15.5c16 0 31.167 -1.16699 45.5 -3.5s27.833 -5.16602 40.5 -8.49902h168v-108h-59z" />
    <glyph glyph-name="h" unicode="h" horiz-adv-x="570" 
d="M367 0l-0.000976562 316.997c0 23.333 -3.83301 41.833 -11.5 55.5s-22.167 20.5 -43.5 20.5c-15.333 0 -29.666 -4.16699 -42.999 -12.5s-24.833 -19.5 -34.5 -33.5s-17.334 -30.167 -23.001 -48.5s-8.5 -37.833 -8.5 -58.5v-240h-138v730h138v-207
c0 -15.333 -0.666992 -32.333 -2 -51s-3.66602 -35.667 -6.99902 -51h2c14.667 26 35.5 47 62.5 63s59.5 24 97.5 24c28 0 51.5 -4.16699 70.5 -12.5s34.167 -19.666 45.5 -33.999s19.5 -31.166 24.5 -50.499s7.5 -39.666 7.5 -60.999v-350h-137z" />
    <glyph glyph-name="i" unicode="i" horiz-adv-x="268" 
d="M65 0v476v21h138v-497h-138zM219 647c0 -11.333 -2.16699 -22.166 -6.5 -32.499s-10.333 -19.166 -18 -26.499s-16.667 -13.166 -27 -17.499s-21.5 -6.5 -33.5 -6.5s-23.167 2.16699 -33.5 6.5s-19.333 10.166 -27 17.499s-13.667 16.166 -18 26.499
s-6.5 21.166 -6.5 32.499s2.16699 22 6.5 32s10.333 18.667 18 26s16.667 13.166 27 17.499s21.5 6.5 33.5 6.5s23.167 -2.16699 33.5 -6.5s19.333 -10.166 27 -17.499s13.667 -16 18 -26s6.5 -20.667 6.5 -32z" />
    <glyph glyph-name="j" unicode="j" horiz-adv-x="271" 
d="M206 -32c0 -34 -3.33301 -64.168 -10 -90.501s-17.667 -48.666 -33 -66.999s-35.666 -32.333 -60.999 -42s-56.666 -14.5 -93.999 -14.5c-11.333 0 -23.5 0.833008 -36.5 2.5s-24.5 4.16699 -34.5 7.5l8 117c9.33301 -3.33301 19.166 -6.16602 29.499 -8.49902
s19.833 -3.5 28.5 -3.5c25.333 0 42.666 6.16699 51.999 18.5s14 34.166 14 65.499v523v21h137v-529v0zM223 646.999c0 -11.333 -2.33301 -22.166 -7 -32.499s-10.834 -19.166 -18.501 -26.499s-16.667 -13.166 -27 -17.499s-21.5 -6.5 -33.5 -6.5
s-23.167 2.16699 -33.5 6.5s-19.333 10.166 -27 17.499s-13.667 16.166 -18 26.499s-6.5 21.166 -6.5 32.499s2.16699 22 6.5 32s10.333 18.667 18 26s16.667 13.166 27 17.499s21.5 6.5 33.5 6.5s23.167 -2.16699 33.5 -6.5s19.333 -10.166 27 -17.499
s13.834 -16 18.501 -26s7 -20.667 7 -32z" />
    <glyph glyph-name="k" unicode="k" horiz-adv-x="531" 
d="M349 0l-146 243v-243h-138v730h138v-437l123 183l14 21h168l-170 -227l183 -270h-172z" />
    <glyph glyph-name="l" unicode="l" horiz-adv-x="268" 
d="M65 0v730h138v-730h-138z" />
    <glyph glyph-name="m" unicode="m" horiz-adv-x="863" 
d="M660 0l-0.00390625 314.001c0 24 -3.66699 43.167 -11 57.5s-21.666 21.5 -42.999 21.5c-13.333 0 -26.333 -3.83301 -39 -11.5s-24 -18.334 -34 -32.001s-18.167 -30 -24.5 -49s-9.5 -39.833 -9.5 -62.5v-238h-135v314c0 22.667 -3.5 41.5 -10.5 56.5
s-21.5 22.5 -43.5 22.5c-14 0 -27.333 -4 -40 -12s-24 -18.833 -34 -32.5s-18 -30 -24 -49s-9 -39.5 -9 -61.5v-238h-138v497h130c0 -10.667 -0.5 -24 -1.5 -40s-2.83301 -31 -5.5 -45h2c15.333 30 37 53.5 65 70.5s60.333 25.5 97 25.5c20.667 0 38.834 -2.66699 54.501 -8
s29 -12.5 40 -21.5s19.833 -19.167 26.5 -30.5s11.667 -23.333 15 -36c6 12 14 23.833 24 35.5s21.833 22 35.5 31s28.834 16.167 45.501 21.5s35 8 55 8c48.667 0 85.834 -13.5 111.501 -40.5s38.5 -68.833 38.5 -125.5v-342h-138z" />
    <glyph glyph-name="n" unicode="n" horiz-adv-x="570" 
d="M367 0l0.000976562 316.997c0 23.333 -3.83301 41.833 -11.5 55.5s-22.167 20.5 -43.5 20.5c-15.333 0 -29.666 -4.16699 -42.999 -12.5s-24.833 -19.5 -34.5 -33.5s-17.334 -30.167 -23.001 -48.5s-8.5 -37.833 -8.5 -58.5v-240h-138v497h129
c0 -10.667 -0.333008 -24.167 -1 -40.5s-2.33398 -30.833 -5.00098 -43.5l1 -1c15.333 28 37 51 65 69s62 27 102 27c28 0 51.5 -4.16699 70.5 -12.5s34.167 -19.666 45.5 -33.999s19.5 -31.166 24.5 -50.499s7.5 -39.666 7.5 -60.999v-350h-137z" />
    <glyph glyph-name="o" unicode="o" horiz-adv-x="555" 
d="M381 251c0 46 -8.16797 80.8311 -24.501 104.498s-42.166 35.5 -77.499 35.5c-13.333 0 -26.333 -2.66699 -39 -8s-24 -13.666 -34 -24.999s-18 -25.666 -24 -42.999s-9 -38 -9 -62c0 -96.667 34.667 -145 104 -145c30 0 54.833 12 74.5 36s29.5 59.667 29.5 107z
M522.999 257.998c0 -39.333 -6.33691 -75.499 -19.0039 -108.499s-30.5 -61.333 -53.5 -85s-50.167 -42 -81.5 -55s-65.666 -19.5 -102.999 -19.5c-35.333 0 -67.5 4.66699 -96.5 14s-53.833 24 -74.5 44s-36.5 45.833 -47.5 77.5s-16.5 69.5 -16.5 113.5
c0 39.333 6.33301 75.5 19 108.5s30.334 61.333 53.001 85s49.834 42 81.501 55s66.5 19.5 104.5 19.5c72.667 0 129.834 -20.333 171.501 -61s62.5 -103.334 62.5 -188.001z" />
    <glyph glyph-name="p" unicode="p" horiz-adv-x="559" 
d="M380 261c0 88.667 -26.001 132.999 -78.001 132.999c-15.333 0 -29.166 -4.16699 -41.499 -12.5s-22.666 -19.5 -30.999 -33.5s-14.833 -30.5 -19.5 -49.5s-7 -38.833 -7 -59.5v-132c16.667 -4.66699 37 -7 61 -7c16.667 0 32.167 2.83301 46.5 8.5
s26.666 14.834 36.999 27.501s18.333 29.167 24 49.5s8.5 45.5 8.5 75.5zM524.999 274.999c0 -42.667 -5.49902 -81.332 -16.499 -115.999s-27.5 -64.334 -49.5 -89.001s-49.5 -43.667 -82.5 -57s-71.5 -20 -115.5 -20c-11.333 0 -21.5 0.333008 -30.5 1
s-18.167 1.66699 -27.5 3v-236h-138v736h127c0 -11.333 -0.333008 -24 -1 -38s-1.66699 -27.333 -3 -40h2c14 28 33.667 49.667 59 65s56.666 23 93.999 23c59.333 0 104.5 -20.333 135.5 -61s46.5 -97.667 46.5 -171z" />
    <glyph glyph-name="q" unicode="q" horiz-adv-x="559" 
d="M356 391c-19.333 4 -39.668 6.00195 -61.001 6.00195c-16.667 0 -32.167 -2.83301 -46.5 -8.5s-26.666 -14.834 -36.999 -27.501s-18.5 -29.167 -24.5 -49.5s-9 -45.5 -9 -75.5c0 -88.667 26 -133 78 -133c15.333 0 29.166 4.16699 41.499 12.5
s22.833 19.666 31.5 33.999s15.334 31 20.001 50s7 39.167 7 60.5v131zM355.998 -238.998v216c0 14 0.333008 29.667 1 47s2.66699 34.333 6 51l-2 1c-13.333 -27.333 -32.5 -48.666 -57.5 -63.999s-53.5 -23 -85.5 -23c-60 0 -105.667 19.5 -137 58.5s-47 96.833 -47 173.5
c0 41.333 5.83301 79.5 17.5 114.5s29 65.167 52 90.5s51.5 45.166 85.5 59.499s73.333 21.5 118 21.5c36.667 0 70 -1.5 100 -4.5s58.667 -6.83301 86 -11.5v-730h-137z" />
    <glyph glyph-name="r" unicode="r" horiz-adv-x="361" 
d="M342 372c-92.667 18.667 -139.001 -37.333 -139.001 -168v-204h-138v497h129c0 -11.333 -0.5 -25.833 -1.5 -43.5s-3.16699 -34.834 -6.5 -51.501h2c6 15.333 13.667 29.833 23 43.5s20.5 25.334 33.5 35.001s28.333 17.167 46 22.5s37.834 7 60.501 5z" />
    <glyph glyph-name="s" unicode="s" horiz-adv-x="415" 
d="M378 155c0 -25.333 -5.33594 -47.999 -16.0029 -67.999s-25.667 -37.333 -45 -52s-42.833 -25.834 -70.5 -33.501s-58.834 -11.5 -93.501 -11.5c-17.333 0 -36.333 1.16699 -57 3.5s-39 5.5 -55 9.5l15 111c15.333 -6 31.5 -10.667 48.5 -14s35.167 -5 54.5 -5
c22.667 0 40.5 4.33301 53.5 13s19.5 20.334 19.5 35.001c0 13.333 -4.83301 23.833 -14.5 31.5s-21.667 14.5 -36 20.5s-29.833 12 -46.5 18s-32.167 14.167 -46.5 24.5s-26.333 24.166 -36 41.499s-14.5 40 -14.5 68c0 22 4.5 42.833 13.5 62.5s22.5 36.667 40.5 51
s40.333 25.833 67 34.5s57.667 13 93 13c14.667 0 30.5 -0.833008 47.5 -2.5s32.833 -3.83398 47.5 -6.50098l-13 -108c-13.333 4 -27.166 7.16699 -41.499 9.5s-29.166 3.5 -44.499 3.5c-23.333 0 -40.333 -4.16699 -51 -12.5s-16 -19.5 -16 -33.5
c0 -12 4.83301 -21.667 14.5 -29s21.834 -14.166 36.501 -20.499s30.5 -12.833 47.5 -19.5s32.833 -15.5 47.5 -26.5s26.834 -25 36.501 -42s14.5 -38.833 14.5 -65.5z" />
    <glyph glyph-name="t" unicode="t" horiz-adv-x="376" 
d="M347 3c-16.667 -4 -35 -7.16602 -55 -9.49902s-38.667 -3.5 -56 -3.5c-28 0 -51.5 2.66699 -70.5 8s-34.167 14.166 -45.5 26.499s-19.5 28.5 -24.5 48.5s-7.5 44.667 -7.5 74v244h-81v106h81v151l137 36v-187h116v-106h-115v-209c0 -30 4 -50.333 12 -61
s22.667 -16 44 -16c9.33301 0 18.333 0.666992 27 2s17.667 3.33301 27 6l11 -110v0z" />
    <glyph glyph-name="u" unicode="u" horiz-adv-x="568" 
d="M375 0c0 10.667 0.331055 24.1699 0.998047 40.5029s2.33398 30.833 5.00098 43.5l-1 1c-15.333 -28 -37 -51 -65 -69s-62 -27 -102 -27c-28 0 -51.5 4.16699 -70.5 12.5s-34.167 19.666 -45.5 33.999s-19.5 31.166 -24.5 50.499s-7.5 39.666 -7.5 60.999v350h137v-317
c0 -23.333 4 -41.833 12 -55.5s22.667 -20.5 44 -20.5c14.667 0 28.667 4.16699 42 12.5s24.833 19.5 34.5 33.5s17.334 30.167 23.001 48.5s8.5 37.833 8.5 58.5v240h138v-497h-129z" />
    <glyph glyph-name="v" unicode="v" horiz-adv-x="511" 
d="M325 0l-140 0.00195312l-184 497h151l72 -205c6 -17.333 12 -36 18 -56s11.333 -39.333 16 -58h2c4 17.333 8.66699 35.666 14 54.999s11 37.666 17 54.999l72 209h147z" />
    <glyph glyph-name="w" unicode="w" horiz-adv-x="797" 
d="M633 0l-147.995 0.00292969l-65 202c-5.33301 17.333 -10.166 35.166 -14.499 53.499l-14.5 60.5h-1c-4.66699 -23.333 -9.83398 -44.833 -15.501 -64.5l-17.5 -60.5l-58 -191h-140l-152 497h151l47 -168c7.33301 -24.667 14.166 -49.834 20.499 -75.501l19.5 -79.5h1
c5.33301 29.333 10.833 55.833 16.5 79.5s12.167 46.834 19.5 69.501l54 174h130l54 -168c9.33301 -28 17.166 -54.333 23.499 -79s12.166 -50 17.499 -76h2c5.33301 27.333 10.666 52.666 15.999 75.999s11.666 47.666 18.999 72.999l50 174h141z" />
    <glyph glyph-name="x" unicode="x" horiz-adv-x="530" 
d="M350 0l-89 161l-88 -161h-164l168 251l-158 246h164l89 -158l89 158h152l-151 -245l160 -252h-172z" />
    <glyph glyph-name="y" unicode="y" horiz-adv-x="508" 
d="M306 -36c-14.667 -38.667 -29.498 -71.334 -44.498 -98.001s-31.833 -48.334 -50.5 -65.001s-39.834 -28.667 -63.501 -36s-51.167 -11 -82.5 -11c-20 0 -41.667 2.66699 -65 8l15 117c19.333 -6.66699 40.333 -10 63 -10c21.333 0 39.166 6.5 53.499 19.5
s28.166 37.5 41.499 73.5l14 38l-182 497h152l60 -172c7.33301 -21.333 14.5 -44.166 21.5 -68.499s13.167 -48.166 18.5 -71.499h1c2.66699 12 5.83398 24.833 9.50098 38.5s7.66699 27.5 12 41.5l13 41.5c4.33301 13.667 8.5 26.167 12.5 37.5l54 153h147z" />
    <glyph glyph-name="z" unicode="z" horiz-adv-x="451" 
d="M43 0v98l191 278c-8.66699 -0.666992 -21.5 -1.16699 -38.5 -1.5s-37.167 -0.5 -60.5 -0.5h-84v123h350v-98l-187 -274c4.66699 0 11.167 0.166992 19.5 0.5s17.5 0.5 27.5 0.5h145v-126h-363z" />
    <glyph glyph-name="braceleft" unicode="{" horiz-adv-x="368" 
d="M314 -206c-34 0 -62.833 4.33008 -86.5 12.9971s-43.167 22.334 -58.5 41.001s-26.5 42.5 -33.5 71.5s-10.5 63.833 -10.5 104.5v124c0 21.333 -2.16699 39 -6.5 53s-10.5 25.333 -18.5 34s-18.167 14.834 -30.5 18.501s-26.5 6.16699 -42.5 7.5v103
c16 0.666992 30.167 2.66699 42.5 6s22.5 9 30.5 17s14.167 18.833 18.5 32.5s6.5 31.167 6.5 52.5v78c0 76.667 14.5 134 43.5 172s77.5 57 145.5 57h22v-110c-16 0 -29.333 -1.5 -40 -4.5s-19.167 -8.83301 -25.5 -17.5s-10.833 -20.667 -13.5 -36s-4 -35 -4 -59v-78
c0 -27.333 -2.16699 -50.666 -6.5 -69.999s-10.5 -35.333 -18.5 -48s-17.667 -22.5 -29 -29.5s-24 -11.5 -38 -13.5v-1c27.333 -4.66699 49.5 -19.5 66.5 -44.5s25.5 -65.167 25.5 -120.5v-124c0 -24 1.33301 -43.667 4 -59s7.16699 -27.333 13.5 -36
s14.833 -14.667 25.5 -18s24 -5 40 -5v-111h-22z" />
    <glyph glyph-name="bar" unicode="|" horiz-adv-x="275" 
d="M81 -250v1000h109v-1000h-109z" />
    <glyph glyph-name="braceright" unicode="}" horiz-adv-x="366" 
d="M344 261c-16 -1.33301 -30.168 -3.83203 -42.501 -7.49902s-22.666 -9.83398 -30.999 -18.501s-14.666 -20 -18.999 -34s-6.5 -31.667 -6.5 -53v-124c0 -81.333 -14.667 -140 -44 -176s-77.333 -54 -144 -54h-23v111c16 0 29.333 1.66699 40 5s19.167 9.33301 25.5 18
s10.833 20.667 13.5 36s4 35 4 59v124c0 55.333 8.33301 95.5 25 120.5s39 39.833 67 44.5v1c-28 4 -50.333 18 -67 42s-25 63 -25 117v80c0 24 -1.33301 43.667 -4 59s-7.16699 27.333 -13.5 36s-14.833 14.5 -25.5 17.5s-24 4.5 -40 4.5v110h23c68 0 116.333 -19 145 -57
s43 -95.333 43 -172v-76c0 -22 2 -40 6 -54s10.167 -25 18.5 -33s18.666 -13.667 30.999 -17s26.833 -5.33301 43.5 -6v-103v0z" />
    <glyph glyph-name="asciitilde" unicode="~" 
d="M505 566c0 -49.333 -12.667 -88.833 -38 -118.5s-62 -44.5 -110 -44.5c-30 0 -53.667 5.66699 -71 17s-31.5 23.833 -42.5 37.5s-20.5 26.167 -28.5 37.5s-17.667 17 -29 17c-13.333 0 -22.833 -7.5 -28.5 -22.5s-8.83398 -35.833 -9.50098 -62.5h-101v21
c0 49.333 12.667 88.833 38 118.5s62 44.5 110 44.5c30 0 53.667 -5.66699 71 -17s31.5 -24 42.5 -38s20.5 -26.667 28.5 -38s17.667 -17 29 -17c13.333 0 22.833 7.66699 28.5 23s8.83398 36 9.50098 62h101v-20v0z" />
    <glyph glyph-name="nonbreakingspace" unicode="&#xa0;" horiz-adv-x="225" 
 />
    <glyph glyph-name="exclamdown" unicode="&#xa1;" horiz-adv-x="305" 
d="M71 -222l15 526h119l17 -526h-151zM230 428c0 -22 -7.83301 -40.833 -23.5 -56.5s-35.167 -23.5 -58.5 -23.5s-43 7.83301 -59 23.5s-24 34.5 -24 56.5c0 22.667 8 41.667 24 57s35.667 23 59 23s42.833 -7.66699 58.5 -23s23.5 -34.333 23.5 -57z" />
    <glyph glyph-name="cent" unicode="&#xa2;" 
d="M290 491c-28 -6 -51.667 -21.501 -71 -46.501s-29 -57.5 -29 -97.5c0 -43.333 9.16699 -76.666 27.5 -99.999s42.5 -38 72.5 -44v288zM488 117.999c-15.333 -6.66699 -32.333 -12.498 -51 -17.498s-36.667 -8.16699 -54 -9.5v-99h-93v94
c-72 2.66699 -128.833 24.667 -170.5 66s-62.5 102.666 -62.5 183.999c0 36.667 5.5 70.5 16.5 101.5s26.833 58.333 47.5 82s45.167 42.667 73.5 57s60.166 23.5 95.499 27.5v76h93v-76c16 -1.33301 33 -3.83301 51 -7.5s34.667 -8.83398 50 -15.501l-22 -109
c-12.667 6 -25.667 10.833 -39 14.5s-26.666 6.16699 -39.999 7.5v-293c30 3.33301 58.333 11 85 23l20 -106v0z" />
    <glyph glyph-name="sterling" unicode="&#xa3;" 
d="M69 0l0.000976562 101.001c34.667 18.667 62 39.334 82 62.001s30 51.667 30 87c0 6 -0.333008 14.667 -1 26s-2 23.666 -4 36.999h-107v100h96c-2 16 -4.33301 33.167 -7 51.5s-4 35.166 -4 50.499c0 66.667 18.833 115.5 56.5 146.5s88.5 46.5 152.5 46.5
c15.333 0 32.333 -0.833008 51 -2.5s36 -4.16699 52 -7.5l-13 -107c-13.333 2.66699 -26.833 4.83398 -40.5 6.50098s-27.167 2.5 -40.5 2.5c-26 0 -46.667 -7 -62 -21s-23 -34.333 -23 -61c0 -14 1.16699 -30 3.5 -48s4.16602 -37 5.49902 -57h151v-100h-140l2 -27.5
c0.666992 -9 1 -17.5 1 -25.5c0 -32 -6 -59.667 -18 -83s-30.667 -45.333 -56 -66c9.33301 1.33301 19.5 2.16602 30.5 2.49902s22.167 0.5 33.5 0.5h189v-114h-420z" />
    <glyph glyph-name="currency" unicode="&#xa4;" horiz-adv-x="543" 
d="M511 44l-76.001 97c11.333 16 20 34 26 54s9 41.667 9 65c0 24.667 -2.33301 46.334 -7 65.001s-11.334 35 -20.001 49l68 87l-104 77l-69 -95c-9.33301 3.33301 -19.166 5.66602 -29.499 6.99902s-20.5 2 -30.5 2c-25.333 0 -48.333 -4 -69 -12l-71 97l-106 -75l72 -91
c-12 -16 -21.333 -34.333 -28 -55s-10 -43 -10 -67c0 -26 2.83301 -49 8.5 -69s13.834 -37.333 24.501 -52l-67 -84l107 -76l68 94c8 -2 16.333 -3.66699 25 -5s17.667 -2 27 -2c26 0 49.333 4.66699 70 14l76 -102zM349.999 257c0 -36 -8.33301 -62.167 -25 -78.5
s-35.667 -24.5 -57 -24.5c-28.667 0 -49.5 9.5 -62.5 28.5s-19.5 42.833 -19.5 71.5c0 32.667 8.33301 57.167 25 73.5s35.667 24.5 57 24.5c29.333 0 50.333 -8.16699 63 -24.5s19 -39.833 19 -70.5z" />
    <glyph glyph-name="yen" unicode="&#xa5;" 
d="M369 322l117 0.00195312v-82h-145v-69h145v-84h-145v-87h-133v87h-145v84h145v69h-145v82h118l-166 353h144l83 -192c6 -14 12 -29.333 18 -46l17 -48h1c6 15.333 12 31.666 18 48.999s12 32.666 18 45.999l82 191h141z" />
    <glyph glyph-name="brokenbar" unicode="&#xa6;" horiz-adv-x="275" 
d="M81 -250v378h109v-378h-109zM81 382v368h109v-368h-109z" />
    <glyph glyph-name="section" unicode="&#xa7;" horiz-adv-x="514" 
d="M334 228c0 15.333 -3.5 29.668 -10.5 43.001s-16.333 26.833 -28 40.5s-25.5 28 -41.5 43s-33 32.167 -51 51.5c-15.333 -12 -23 -31 -23 -57c0 -12 2.33301 -23.833 7 -35.5s12.167 -24.167 22.5 -37.5s23.833 -28.333 40.5 -45s37 -36 61 -58
c6.66699 5.33301 12.167 13.166 16.5 23.499s6.5 20.833 6.5 31.5zM457 246.002c0 -30 -6.83398 -57.5059 -20.501 -82.5059s-30.167 -45.167 -49.5 -60.5c9.33301 -12 17.333 -26.833 24 -44.5s10 -37.167 10 -58.5c0 -19.333 -4.16699 -39.166 -12.5 -59.499
s-21.833 -38.666 -40.5 -54.999s-43 -29.666 -73 -39.999s-66.667 -15.5 -110 -15.5c-12 0 -25.833 0.833008 -41.5 2.5s-29.167 3.5 -40.5 5.5l9 119c11.333 -3.33301 23.5 -6.16602 36.5 -8.49902s26.167 -3.5 39.5 -3.5c30.667 0 52.334 5.83301 65.001 17.5
s19 25.5 19 41.5c0 14.667 -5.33301 28.834 -16 42.501s-24 27.667 -40 42l-52 45.5c-18.667 16 -36 33.667 -52 53s-29.333 40.833 -40 64.5s-16 50.5 -16 80.5c0 30.667 6.5 58.667 19.5 84s29.833 45.666 50.5 60.999c-21.333 26.667 -32 59.334 -32 98.001
c0 22 4 43.333 12 64s21 39 39 55s41.167 28.833 69.5 38.5s62.833 14.5 103.5 14.5c13.333 0 26.5 -0.5 39.5 -1.5s24.5 -2.83301 34.5 -5.5l-7 -116c-20.667 6.66699 -44 10 -70 10s-44.833 -4.66699 -56.5 -14s-17.5 -23 -17.5 -41c0 -14 5.33301 -27.667 16 -41
s24 -27.333 40 -42l52 -47.5c18.667 -17 36 -35.5 52 -55.5s29.333 -42.167 40 -66.5s16 -51.166 16 -80.499z" />
    <glyph glyph-name="dieresis" unicode="&#xa8;" horiz-adv-x="546" 
d="M232 647c0 -20.667 -7 -38 -21 -52s-31.333 -21 -52 -21c-20 0 -37.167 7 -51.5 21s-21.5 31.333 -21.5 52c0 20 7.16699 37.167 21.5 51.5s31.5 21.5 51.5 21.5c20.667 0 38 -7.16699 52 -21.5s21 -31.5 21 -51.5zM441 647c0 -20.667 -7 -38 -21 -52
s-31.333 -21 -52 -21c-20 0 -37.167 7 -51.5 21s-21.5 31.333 -21.5 52c0 20 7.16699 37.167 21.5 51.5s31.5 21.5 51.5 21.5c20.667 0 38 -7.16699 52 -21.5s21 -31.5 21 -51.5z" />
    <glyph glyph-name="copyright" unicode="&#xa9;" horiz-adv-x="763" 
d="M481 177c-28.667 -13.333 -62.998 -20.001 -102.998 -20.001c-50 0 -89.333 15.5 -118 46.5s-43 73.167 -43 126.5c0 24.667 3.5 48 10.5 70s17.667 41.333 32 58s32.5 29.834 54.5 39.501s48.333 14.5 79 14.5c17.333 0 32.666 -1.33301 45.999 -4
s25.666 -6.66699 36.999 -12l-15 -90c-7.33301 5.33301 -16.333 9.5 -27 12.5s-22 4.5 -34 4.5c-24.667 0 -42.5 -8.16699 -53.5 -24.5s-16.5 -38.5 -16.5 -66.5c0 -54 21.667 -81 65 -81c12 0 23.667 1 35 3s22.333 5.66699 33 11l18 -88v0zM621.002 332.999
c0 33.333 -6.33301 64.666 -19 93.999s-29.834 54.833 -51.501 76.5s-47 38.834 -76 51.501s-60.167 19 -93.5 19s-64.666 -6.33301 -93.999 -19s-54.833 -29.834 -76.5 -51.501s-38.834 -47 -51.501 -76s-19 -60.167 -19 -93.5s6.33301 -64.666 19 -93.999
s29.834 -55 51.501 -77s47.167 -39.333 76.5 -52s60.666 -19 93.999 -19s64.5 6.33301 93.5 19s54.333 29.834 76 51.501s38.834 47.167 51.501 76.5s19 60.666 19 93.999zM724.002 333.999c0 -47.333 -9 -92 -27 -134s-42.5 -78.5 -73.5 -109.5s-67.333 -55.5 -109 -73.5
s-86.167 -27 -133.5 -27c-48 0 -93 9 -135 27s-78.5 42.5 -109.5 73.5s-55.333 67.333 -73 109s-26.5 86.167 -26.5 133.5s9 92 27 134s42.5 78.5 73.5 109.5s67.5 55.5 109.5 73.5s86.667 27 134 27s91.833 -9 133.5 -27s78 -42.5 109 -73.5s55.5 -67.333 73.5 -109
s27 -86.167 27 -133.5z" />
    <glyph glyph-name="ordfeminine" unicode="&#xaa;" horiz-adv-x="401" 
d="M237 473c-33.333 0 -57.833 -3.66797 -73.5 -11.001s-23.5 -19.666 -23.5 -36.999c0 -8.66699 3 -15.834 9 -21.501s14.667 -8.5 26 -8.5c10 0 19 2.33301 27 7s14.5 10.334 19.5 17.001s8.83301 14 11.5 22s4 15.333 4 22v10zM244 319.999
c0 7.33301 0.332031 15.165 0.999023 23.498s1.66699 16.5 3 24.5l-1 1c-7.33301 -16.667 -20.666 -30.5 -39.999 -41.5s-39.666 -16.5 -60.999 -16.5c-38 0 -65.5 9.33301 -82.5 28s-25.5 42.334 -25.5 71.001c0 23.333 5.16699 43.333 15.5 60s24.5 30.334 42.5 41.001
s39.167 18.5 63.5 23.5s50.166 7.5 77.499 7.5v14c0 4.66699 -0.5 9.66699 -1.5 15s-3.5 10 -7.5 14s-9.66699 7.33301 -17 10s-17.333 4 -30 4c-20 0 -39.167 -2.5 -57.5 -7.5s-36.166 -11.5 -53.499 -19.5l-10 91c18.667 6.66699 39.667 12 63 16s48.666 6 75.999 6
c28 0 51.5 -3.16699 70.5 -9.5s34.167 -15 45.5 -26s19.333 -23.5 24 -37.5s7 -28.667 7 -44v-163v-44c0 -14 0.333008 -27.667 1 -41h-103zM56.999 162.998v110h296v-110h-296z" />
    <glyph glyph-name="guillemotleft" unicode="&#xab;" horiz-adv-x="540" 
d="M145 51l-106 199l109 202l107 -48l-85 -153l86 -150zM379 56l-116 194l119 198l104 -51l-92 -146l93 -144z" />
    <glyph glyph-name="logicalnot" unicode="&#xac;" 
d="M374 60v149h-331v106h447v-255h-116z" />
    <glyph glyph-name="registered" unicode="&#xae;" horiz-adv-x="564" 
d="M304 573c0 15.333 -9.33301 23 -28 23h-15v-49h11c10.667 0 18.667 2.5 24 7.5s8 11.167 8 18.5zM303 422l-33.999 82.002h-8v-82h-63v222h97c28 0 48.167 -5.83301 60.5 -17.5s18.5 -26.834 18.5 -45.501c0 -17.333 -3.83301 -31 -11.5 -41s-17.834 -17 -30.501 -21
c2.66699 -2.66699 5.16699 -6.33398 7.5 -11.001l7.5 -15l31 -71h-75zM437.001 531.002c0 21.333 -4 41.668 -12 61.001s-19 36.166 -33 50.499s-30.5 25.666 -49.5 33.999s-39.167 12.5 -60.5 12.5s-41.5 -4.16699 -60.5 -12.5s-35.5 -19.5 -49.5 -33.5
s-25.167 -30.5 -33.5 -49.5s-12.5 -39.167 -12.5 -60.5s4.16699 -41.5 12.5 -60.5s19.5 -35.667 33.5 -50s30.5 -25.666 49.5 -33.999s39.167 -12.5 60.5 -12.5s41.5 4 60.5 12s35.5 19 49.5 33s25 30.5 33 49.5s12 39.167 12 60.5zM520.001 532.004
c0 -32.667 -6.33105 -63.166 -18.998 -91.499s-29.834 -53 -51.501 -74s-46.834 -37.667 -75.501 -50s-59.334 -18.5 -92.001 -18.5c-33.333 0 -64.5 6 -93.5 18s-54.167 28.5 -75.5 49.5s-38.166 45.667 -50.499 74s-18.5 59.166 -18.5 92.499
c0 32.667 6.33301 63.334 19 92.001s29.667 53.5 51 74.5s46.5 37.5 75.5 49.5s59.833 18 92.5 18s63.5 -6 92.5 -18s54.333 -28.5 76 -49.5s38.667 -45.833 51 -74.5s18.5 -59.334 18.5 -92.001z" />
    <glyph glyph-name="macron" unicode="&#xaf;" horiz-adv-x="333" 
d="M52 596v99h216v-99h-216z" />
    <glyph glyph-name="macron" unicode="&#x2c9;" horiz-adv-x="333" 
d="M52 596v99h216v-99h-216z" />
    <glyph glyph-name="degree" unicode="&#xb0;" horiz-adv-x="391" 
d="M244 601c0 13.333 -3.99902 26 -11.999 38s-20.667 18 -38 18c-15.333 0 -28 -5.33301 -38 -16s-15 -24.667 -15 -42c0 -18 4.66699 -32 14 -42s22 -15 38 -15c15.333 0 27.666 5.5 36.999 16.5s14 25.167 14 42.5zM346.001 602c0 -24 -4.49902 -44.999 -13.499 -62.999
s-20.833 -33.167 -35.5 -45.5s-31.667 -21.666 -51 -27.999s-39 -9.5 -59 -9.5c-46 0 -82.167 12.833 -108.5 38.5s-39.5 60.5 -39.5 104.5c0 22.667 4.5 43 13.5 61s21 33.167 36 45.5s31.667 21.666 50 27.999s37.166 9.5 56.499 9.5c26.667 0 49.5 -3.83301 68.5 -11.5
s34.667 -17.834 47 -30.501s21.333 -27.667 27 -45s8.5 -35.333 8.5 -54z" />
    <glyph glyph-name="plusminus" unicode="&#xb1;" 
d="M54 -80v109h449v-109h-449zM341 265v-180h-125v180h-168v108h168v179h125v-179h168v-108h-168z" />
    <glyph glyph-name="twosuperior" unicode="&#xb2;" horiz-adv-x="348" 
d="M26 270v101l67 59c27.333 23.333 45.833 42.5 55.5 57.5s14.5 28.5 14.5 40.5c0 28 -15 42 -45 42c-12.667 0 -25.167 -1.66699 -37.5 -5s-23.833 -7.66602 -34.5 -12.999l-15 107c17.333 6.66699 36.833 12.167 58.5 16.5s43.167 6.5 64.5 6.5
c53.333 0 91.5 -11.333 114.5 -34s34.5 -51.334 34.5 -86.001c0 -24 -6.16699 -47.167 -18.5 -69.5s-32.5 -47.5 -60.5 -75.5l-38 -37c18.667 1.33301 38 2 58 2h69v-112h-287z" />
    <glyph glyph-name="threesuperior" unicode="&#xb3;" horiz-adv-x="327" 
d="M297 396c0 -40 -15.332 -72.502 -45.999 -97.502s-76.334 -37.5 -137.001 -37.5c-13.333 0 -28.333 0.833008 -45 2.5s-31.667 3.83398 -45 6.50098l11 90c20 -6.66699 42.667 -10 68 -10c18 0 32.667 4 44 12s17 18.667 17 32c0 6 -1.83301 12 -5.5 18s-10 11 -19 15
s-21.333 6.5 -37 7.5s-35.5 -0.5 -59.5 -4.5v81c43.333 0 73.666 4.83301 90.999 14.5s26 21.834 26 36.501c0 9.33301 -3.33301 17 -10 23s-17.667 9 -33 9c-25.333 0 -51.333 -5.66699 -78 -17l-11 86c17.333 6 36.833 10.667 58.5 14s43.167 5 64.5 5
c49.333 0 84.833 -9.83301 106.5 -29.5s32.5 -44.167 32.5 -73.5c0 -22.667 -5.66699 -41.5 -17 -56.5s-26.333 -27.167 -45 -36.5c20.667 -5.33301 37.334 -16.5 50.001 -33.5s19 -35.833 19 -56.5z" />
    <glyph glyph-name="acute" unicode="&#xb4;" horiz-adv-x="394" 
d="M134 560l-46 79l183 109l55 -94z" />
    <glyph glyph-name="mu" unicode="&#xb5;" horiz-adv-x="610" 
d="M409 0c0 9.33301 0.334961 21.167 1.00195 35.5s1.66699 28.166 3 41.499h-1c-4 -10 -9.5 -20 -16.5 -30s-15.833 -19 -26.5 -27s-23.334 -14.5 -38.001 -19.5s-31.334 -7.5 -50.001 -7.5c-16.667 0 -31.334 2.16699 -44.001 6.5s-22.667 9.83301 -30 16.5l-1 -1
c0.666992 -10 1.16699 -23.167 1.5 -39.5s0.5 -35.166 0.5 -56.499v-158h-138v736h138v-300c0 -36 7.33301 -60.833 22 -74.5s35 -20.5 61 -20.5c32.667 0 59.334 14.333 80.001 43s31 66 31 112v240h137v-497h-130z" />
    <glyph glyph-name="mu" unicode="&#x3bc;" horiz-adv-x="610" 
d="M409 0c0 9.33301 0.334961 21.167 1.00195 35.5s1.66699 28.166 3 41.499h-1c-4 -10 -9.5 -20 -16.5 -30s-15.833 -19 -26.5 -27s-23.334 -14.5 -38.001 -19.5s-31.334 -7.5 -50.001 -7.5c-16.667 0 -31.334 2.16699 -44.001 6.5s-22.667 9.83301 -30 16.5l-1 -1
c0.666992 -10 1.16699 -23.167 1.5 -39.5s0.5 -35.166 0.5 -56.499v-158h-138v736h138v-300c0 -36 7.33301 -60.833 22 -74.5s35 -20.5 61 -20.5c32.667 0 59.334 14.333 80.001 43s31 66 31 112v240h137v-497h-130z" />
    <glyph glyph-name="paragraph" unicode="&#xb6;" horiz-adv-x="600" 
d="M293 226c-42 0 -78.334 5.99902 -109.001 17.999s-55.667 28.333 -75 49s-33.666 44.667 -42.999 72s-14 56 -14 86c0 34 5.83301 64.833 17.5 92.5s28.167 51.334 49.5 71.001s46.833 34.667 76.5 45s62.167 15.5 97.5 15.5v-449v0zM487.999 564.999v-661h-185v110h69
v661h180v-110h-64z" />
    <glyph glyph-name="periodcentered" unicode="&#xb7;" horiz-adv-x="278" 
d="M227 287c0 -24.667 -8.66895 -45.5 -26.002 -62.5s-38 -25.5 -62 -25.5s-44.5 8.5 -61.5 25.5s-25.5 37.833 -25.5 62.5c0 12 2.33301 23.167 7 33.5s10.834 19.5 18.501 27.5s16.834 14.333 27.501 19s22 7 34 7s23.333 -2.33301 34 -7s20 -11 28 -19
s14.333 -17.167 19 -27.5s7 -21.5 7 -33.5z" />
    <glyph glyph-name="periodcentered" unicode="&#x22c5;" horiz-adv-x="278" 
d="M227 287c0 -24.667 -8.66895 -45.5 -26.002 -62.5s-38 -25.5 -62 -25.5s-44.5 8.5 -61.5 25.5s-25.5 37.833 -25.5 62.5c0 12 2.33301 23.167 7 33.5s10.834 19.5 18.501 27.5s16.834 14.333 27.501 19s22 7 34 7s23.333 -2.33301 34 -7s20 -11 28 -19
s14.333 -17.167 19 -27.5s7 -21.5 7 -33.5z" />
    <glyph glyph-name="cedilla" unicode="&#xb8;" horiz-adv-x="400" 
d="M281 -51c9.33301 -18 15.501 -36.167 18.501 -54.5s1.16699 -36 -5.5 -53s-19 -33.5 -37 -49.5s-43.333 -30.333 -76 -43l-65 53c30.667 19.333 49.167 41.5 55.5 66.5s1.16602 51.833 -15.501 80.5h125v0z" />
    <glyph glyph-name="onesuperior" unicode="&#xb9;" horiz-adv-x="294" 
d="M103 270v287l-77 -34l-20 110l116 42h114v-405h-133z" />
    <glyph glyph-name="ordmasculine" unicode="&#xba;" horiz-adv-x="428" 
d="M279 501c0 26.667 -4.83301 48.332 -14.5 64.999s-26.834 25 -51.501 25c-16.667 0 -32 -6.83301 -46 -20.5s-21 -37.167 -21 -70.5c0 -25.333 4.66699 -47.166 14 -65.499s26 -27.5 50 -27.5c18.667 0 34.834 6.83301 48.501 20.5s20.5 38.167 20.5 73.5zM389 502.998
c0 -29.333 -4.66699 -55.668 -14 -79.001s-22.333 -43.333 -39 -60s-36.334 -29.5 -59.001 -38.5s-47.334 -13.5 -74.001 -13.5c-23.333 0 -45.166 3.33301 -65.499 10s-38 17.167 -53 31.5s-26.833 33.166 -35.5 56.499s-13 52 -13 86c0 29.333 4.83301 55.833 14.5 79.5
s22.834 43.667 39.501 60s36.167 28.833 58.5 37.5s46.166 13 71.499 13c24.667 0 47.334 -3.33301 68.001 -10s38.5 -17.167 53.5 -31.5s26.667 -33.166 35 -56.499s12.5 -51.666 12.5 -84.999zM56 162.996v110h313v-110h-313z" />
    <glyph glyph-name="guillemotright" unicode="&#xbb;" horiz-adv-x="540" 
d="M158 53l-104 51l92 152l-93 150l108 51l117 -201zM393 48l-107 49l85 159l-86 156l111 50l106 -206z" />
    <glyph glyph-name="onequarter" unicode="&#xbc;" horiz-adv-x="943" 
d="M114 270v287l-77 -34l-19 110l116 42h113v-405h-133zM276 -106h-141l419 845h140zM724 317l-85 -152h85v152zM849 66v-66h-123v66h-196l-1 85l138 254h182v-238h54v-101h-54z" />
    <glyph glyph-name="onehalf" unicode="&#xbd;" horiz-adv-x="913" 
d="M114 270v287l-77 -34l-19 110l116 42h113v-405h-133zM276 -106h-141l419 845h140zM584 0l-0.00195312 101l65 59c26.667 24 45.167 43.333 55.5 58s15.5 28 15.5 40c0 28 -15.333 42 -46 42c-12 0 -24.333 -1.66699 -37 -5s-24.334 -7.66602 -35.001 -12.999l-15 107
c17.333 6.66699 36.833 12.167 58.5 16.5s43.834 6.5 66.501 6.5c52.667 0 90.334 -11.333 113.001 -34s34 -51.334 34 -86.001c0 -24 -5.66699 -47.5 -17 -70.5s-31.666 -47.833 -60.999 -74.5l-40 -37c19.333 1.33301 39 2 59 2h70v-112h-286z" />
    <glyph glyph-name="threequarters" unicode="&#xbe;" horiz-adv-x="958" 
d="M297 396c0 -40 -15.332 -72.502 -45.999 -97.502s-76.334 -37.5 -137.001 -37.5c-13.333 0 -28.333 0.833008 -45 2.5s-31.667 3.83398 -45 6.50098l11 90c20 -6.66699 42.667 -10 68 -10c18 0 32.667 4 44 12s17 18.667 17 32c0 6 -1.83301 12 -5.5 18s-10 11 -19 15
s-21.333 6.5 -37 7.5s-35.5 -0.5 -59.5 -4.5v81c43.333 0 73.666 4.83301 90.999 14.5s26 21.834 26 36.501c0 9.33301 -3.33301 17 -10 23s-17.667 9 -33 9c-25.333 0 -51.333 -5.66699 -78 -17l-11 86c17.333 6 36.833 10.667 58.5 14s43.167 5 64.5 5
c49.333 0 84.833 -9.83301 106.5 -29.5s32.5 -44.167 32.5 -73.5c0 -22.667 -5.66699 -41.5 -17 -56.5s-26.333 -27.167 -45 -36.5c20.667 -5.33301 37.334 -16.5 50.001 -33.5s19 -35.833 19 -56.5zM295.001 -107.002h-141l420 845h140zM756.001 316.998l-85 -152h85v152z
M881.001 65.998v-66h-124v66h-195l-1 85l138 254h182v-238h54v-101h-54z" />
    <glyph glyph-name="questiondown" unicode="&#xbf;" horiz-adv-x="437" 
d="M374 -226c-58.667 0.666992 -108.834 6.83301 -150.501 18.5s-76 27 -103 46s-46.833 40.833 -59.5 65.5s-19 50.334 -19 77.001c0 27.333 5 50.833 15 70.5s22 37.167 36 52.5s28.833 29.5 44.5 42.5s29.334 27 41.001 42s19.667 31.5 24 49.5s2.5 40 -5.5 66h131
c10.667 -31.333 14.667 -58.5 12 -81.5s-9 -43.333 -19 -61s-22.5 -33.334 -37.5 -47.001l-43.5 -39c-14 -12.333 -25.833 -24.833 -35.5 -37.5s-14.5 -26.667 -14.5 -42c0 -32 17 -56.5 51 -73.5s83.333 -25.833 148 -26.5zM341 428.999c0 -22.667 -8 -41.834 -24 -57.501
s-35.667 -23.5 -59 -23.5s-43 7.83301 -59 23.5s-24 34.834 -24 57.501s8 41.667 24 57s35.667 23 59 23s43 -7.66699 59 -23s24 -34.333 24 -57z" />
    <glyph glyph-name="Agrave" unicode="&#xc0;" horiz-adv-x="629" 
d="M338 410c-6.66699 19.333 -12.334 36.667 -17.001 52s-9 33.333 -13 54h-2c-4 -16.667 -8.66699 -34 -14 -52s-10.666 -34.667 -15.999 -50l-57 -170h175zM475 0.000976562l-45 133h-246l-44 -133h-141l233 675h22h98h39l239 -675h-155zM347 713.001l-212 60l38 88
l203 -80z" />
    <glyph glyph-name="Aacute" unicode="&#xc1;" horiz-adv-x="629" 
d="M338 410c-6.66699 19.333 -12.334 36.667 -17.001 52s-9 33.333 -13 54h-2c-4 -16.667 -8.66699 -34 -14 -52s-10.666 -34.667 -15.999 -50l-57 -170h175zM475 0.000976562l-45 133h-246l-44 -133h-141l233 675h22h98h39l239 -675h-155zM262 713.001l-29 67l203 81
l39 -87z" />
    <glyph glyph-name="Acircumflex" unicode="&#xc2;" horiz-adv-x="629" 
d="M338 410c-6.66699 19.333 -12.334 36.667 -17.001 52s-9 33.333 -13 54h-2c-4 -16.667 -8.66699 -34 -14 -52s-10.666 -34.667 -15.999 -50l-57 -170h175zM475 0.000976562l-45 133h-246l-44 -133h-141l233 675h22h98h39l239 -675h-155zM433 717.001l-124 57l-125 -57
l-30 63l157 81l157 -79z" />
    <glyph glyph-name="Atilde" unicode="&#xc3;" horiz-adv-x="629" 
d="M338 410c-6.66699 19.333 -12.334 36.667 -17.001 52s-9 33.333 -13 54h-2c-4 -16.667 -8.66699 -34 -14 -52s-10.666 -34.667 -15.999 -50l-57 -170h175zM475 0.000976562l-45 133h-246l-44 -133h-141l233 675h22h98h39l239 -675h-155zM502 779.001
c-13.333 -15.333 -29.166 -28.335 -47.499 -39.002s-41.5 -16 -69.5 -16c-16 0 -29.667 1.83301 -41 5.5s-22 7.83398 -32 12.501s-19.833 8.83398 -29.5 12.501s-20.834 5.5 -33.501 5.5c-17.333 0 -32.166 -3.83301 -44.499 -11.5s-22.833 -16.167 -31.5 -25.5l-43 68
c13.333 17.333 29.833 32 49.5 44s44.5 18 74.5 18c14.667 0 27.5 -2 38.5 -6s21.5 -8.16699 31.5 -12.5l30 -12.5c10 -4 21.333 -6 34 -6c16.667 0 31.167 3.5 43.5 10.5s22.166 14.833 29.499 23.5l41 -71v0z" />
    <glyph glyph-name="Adieresis" unicode="&#xc4;" horiz-adv-x="629" 
d="M338 410c-6.66699 19.333 -12.334 36.667 -17.001 52s-9 33.333 -13 54h-2c-4 -16.667 -8.66699 -34 -14 -52s-10.666 -34.667 -15.999 -50l-57 -170h175zM475 0.000976562l-45 133h-246l-44 -133h-141l233 675h22h98h39l239 -675h-155zM267 784.001
c0 -18.667 -6.66699 -34.334 -20 -47.001s-29 -19 -47 -19c-18.667 0 -34.5 6.33301 -47.5 19s-19.5 28.334 -19.5 47.001s6.5 34.334 19.5 47.001s28.833 19 47.5 19c18 0 33.667 -6.33301 47 -19s20 -28.334 20 -47.001zM491 784.001
c0 -18.667 -6.33301 -34.334 -19 -47.001s-28.334 -19 -47.001 -19c-18 0 -33.667 6.33301 -47 19s-20 28.334 -20 47.001s6.66699 34.334 20 47.001s29 19 47 19c18.667 0 34.334 -6.33301 47.001 -19s19 -28.334 19 -47.001z" />
    <glyph glyph-name="Aring" unicode="&#xc5;" horiz-adv-x="629" 
d="M338 404c-6.66699 19.333 -12.5 37.667 -17.5 55s-9.5 35.666 -13.5 54.999h-2c-4 -18 -8.5 -36.167 -13.5 -54.5s-10.167 -35.166 -15.5 -50.499l-57 -165h175zM362 736.001c0 14.667 -5 27 -15 37s-22 15 -36 15c-14.667 0 -27 -5 -37 -15s-15 -22.333 -15 -37
c0 -14 5 -26.167 15 -36.5s22.333 -15.5 37 -15.5c14 0 26 5.16699 36 15.5s15 22.5 15 36.5zM475 0.000976562l-45 133.001h-246l-44 -133h-141l222 644c-12.667 11.333 -22.667 24.666 -30 39.999s-11 32.666 -11 51.999c0 18 3.5 34.667 10.5 50s16.333 28.5 28 39.5
s25.5 19.667 41.5 26s33 9.5 51 9.5s34.833 -3.16699 50.5 -9.5s29.5 -15 41.5 -26s21.333 -24.167 28 -39.5s10 -32 10 -50s-3.5 -34.667 -10.5 -50s-16.833 -28.666 -29.5 -39.999l229 -646h-155z" />
    <glyph glyph-name="AE" unicode="&#xc6;" horiz-adv-x="786" 
d="M364 557h-2l-27.5 -69c-9 -22.667 -20.167 -47 -33.5 -73l-80 -160h143v302zM364 0v145h-190l-68 -145h-143l328 675h436v-118h-228v-153h220v-114h-220v-170h235v-120h-370z" />
    <glyph glyph-name="Ccedilla" unicode="&#xc7;" horiz-adv-x="562" 
d="M526 22c-25.333 -9.33301 -53.3301 -16.8311 -83.9971 -22.498s-61.667 -8.5 -93 -8.5c-57.333 0 -105.833 8.66699 -145.5 26s-71.834 40.833 -96.501 70.5s-42.667 64 -54 103s-17 80.5 -17 124.5c0 54 7.16699 103.333 21.5 148s35.666 83.167 63.999 115.5
s63.833 57.333 106.5 75s92 26.5 148 26.5c23.333 0 48 -1.83301 74 -5.5s50.333 -9.16699 73 -16.5l-29 -125c-20.667 7.33301 -40.834 12.666 -60.501 15.999s-40.834 5 -63.501 5c-30 0 -56.167 -5.33301 -78.5 -16s-41 -25.5 -56 -44.5s-26.333 -41.667 -34 -68
s-11.5 -55.5 -11.5 -87.5c0 -70.667 14.833 -124.834 44.5 -162.501s75.834 -56.5 138.501 -56.5c22 0 44.167 2.33301 66.5 7s41.833 11 58.5 19l28 -123v0zM389.003 -50.998c9.33301 -18 15.501 -36.167 18.501 -54.5s1.16699 -36 -5.5 -53s-19 -33.5 -37 -49.5
s-43.333 -30.333 -76 -43l-65 53c30.667 19.333 49.167 41.5 55.5 66.5s1.16602 51.833 -15.501 80.5h125v0z" />
    <glyph glyph-name="Egrave" unicode="&#xc8;" horiz-adv-x="491" 
d="M66 0v675h372v-118h-232v-153h220v-114h-220v-170h232v-120h-372zM296 713l-212 60l38 88l203 -80z" />
    <glyph glyph-name="Eacute" unicode="&#xc9;" horiz-adv-x="491" 
d="M66 0v675h372v-118h-232v-153h220v-114h-220v-170h232v-120h-372zM205 713l-29 67l203 81l39 -87z" />
    <glyph glyph-name="Ecircumflex" unicode="&#xca;" horiz-adv-x="491" 
d="M66 0v675h372v-118h-232v-153h220v-114h-220v-170h232v-120h-372zM372 717l-124 57l-125 -57l-30 63l157 81l157 -79z" />
    <glyph glyph-name="Edieresis" unicode="&#xcb;" horiz-adv-x="491" 
d="M66 0v675h372v-118h-232v-153h220v-114h-220v-170h232v-120h-372zM208 784c0 -18.667 -6.66699 -34.334 -20 -47.001s-29 -19 -47 -19c-18.667 0 -34.5 6.33301 -47.5 19s-19.5 28.334 -19.5 47.001s6.5 34.334 19.5 47.001s28.833 19 47.5 19
c18 0 33.667 -6.33301 47 -19s20 -28.334 20 -47.001zM432 784c0 -18.667 -6.33301 -34.334 -19 -47.001s-28.334 -19 -47.001 -19c-18 0 -33.667 6.33301 -47 19s-20 28.334 -20 47.001s6.66699 34.334 20 47.001s29 19 47 19c18.667 0 34.334 -6.33301 47.001 -19
s19 -28.334 19 -47.001z" />
    <glyph glyph-name="Igrave" unicode="&#xcc;" horiz-adv-x="272" 
d="M66 0v675h140v-675h-140zM201 713l-212 60l38 88l203 -80z" />
    <glyph glyph-name="Iacute" unicode="&#xcd;" horiz-adv-x="272" 
d="M66 0v675h140v-675h-140zM70 713l-29 67l203 81l39 -87z" />
    <glyph glyph-name="Icircumflex" unicode="&#xce;" horiz-adv-x="272" 
d="M66 0v675h140v-675h-140zM258 717l-124 57l-125 -57l-30 63l157 81l157 -79z" />
    <glyph glyph-name="Idieresis" unicode="&#xcf;" horiz-adv-x="272" 
d="M66 0v675h140v-675h-140zM92 784c0 -18.667 -6.66699 -34.334 -20 -47.001s-29 -19 -47 -19c-18.667 0 -34.5 6.33301 -47.5 19s-19.5 28.334 -19.5 47.001s6.5 34.334 19.5 47.001s28.833 19 47.5 19c18 0 33.667 -6.33301 47 -19s20 -28.334 20 -47.001zM316 784
c0 -18.667 -6.33301 -34.334 -19 -47.001s-28.334 -19 -47.001 -19c-18 0 -33.667 6.33301 -47 19s-20 28.334 -20 47.001s6.66699 34.334 20 47.001s29 19 47 19c18.667 0 34.334 -6.33301 47.001 -19s19 -28.334 19 -47.001z" />
    <glyph glyph-name="Eth" unicode="&#xd0;" horiz-adv-x="671" 
d="M486 339c0 34 -3.33398 64.833 -10.001 92.5s-17.834 51 -33.501 70s-36.167 33.667 -61.5 44s-56.666 15.5 -93.999 15.5c-23.333 0 -47.666 -0.666992 -72.999 -2v-164h114v-106h-114v-169c4 -1.33301 12.833 -2.33301 26.5 -3s26.834 -1 39.501 -1
c30 0 57.5 4.33301 82.5 13s46.667 22.167 65 40.5s32.666 41.5 42.999 69.5s15.5 61.333 15.5 100zM635.999 349c0 -58 -9.00098 -109 -27.001 -153s-43.167 -80.833 -75.5 -110.5s-71.333 -52 -117 -67s-96.167 -22.5 -151.5 -22.5c-34.667 0 -67.5 0.5 -98.5 1.5
s-61.5 2.16699 -91.5 3.5v288h-73v106h73v279c26.667 1.33301 59.5 2.5 98.5 3.5s80.167 1.5 123.5 1.5c51.333 0 97.833 -6 139.5 -18s77.334 -31.167 107.001 -57.5s52.5 -60.5 68.5 -102.5s24 -92.667 24 -152z" />
    <glyph glyph-name="Ntilde" unicode="&#xd1;" horiz-adv-x="697" 
d="M450 0l-182 320.999c-14.667 26 -28 51.333 -40 76s-22.667 48 -32 70c2 -28 3.5 -62.167 4.5 -102.5s1.5 -79.5 1.5 -117.5v-247h-136v675h181l172 -300c15.333 -27.333 29.833 -54.666 43.5 -81.999l39.5 -80c-1.33301 16 -2.5 34.333 -3.5 55s-1.66699 42.167 -2 64.5
l-1 66.5c-0.333008 22 -0.5 42.333 -0.5 61v215h136v-675h-181zM538 778.999c-13.333 -15.333 -29.166 -28.335 -47.499 -39.002s-41.5 -16 -69.5 -16c-16 0 -29.667 1.83301 -41 5.5s-22 7.83398 -32 12.501s-19.833 8.83398 -29.5 12.501s-20.834 5.5 -33.501 5.5
c-17.333 0 -32.166 -3.83301 -44.499 -11.5s-22.833 -16.167 -31.5 -25.5l-43 68c13.333 17.333 29.833 32 49.5 44s44.5 18 74.5 18c14.667 0 27.5 -2 38.5 -6s21.5 -8.16699 31.5 -12.5l30 -12.5c10 -4 21.333 -6 34 -6c16.667 0 31.167 3.5 43.5 10.5
s22.166 14.833 29.499 23.5l41 -71v0z" />
    <glyph glyph-name="Ograve" unicode="&#xd2;" horiz-adv-x="703" 
d="M522 337c0 72.667 -14.498 128 -43.498 166s-71.5 57 -127.5 57c-22 0 -43.333 -4.33301 -64 -13s-38.834 -22 -54.501 -40s-28.334 -40.667 -38.001 -68s-14.5 -59.333 -14.5 -96c0 -69.333 13.667 -124.5 41 -165.5s70 -61.5 128 -61.5
c20.667 0 41.167 4.16699 61.5 12.5s38.833 21.333 55.5 39s30.167 40.5 40.5 68.5s15.5 61.667 15.5 101zM672.002 347c0 -55.333 -8.66602 -105.166 -25.999 -149.499s-41 -82 -71 -113s-65.167 -54.833 -105.5 -71.5s-83.5 -25 -129.5 -25
c-52 0 -97.333 7.83301 -136 23.5s-70.834 38.334 -96.501 68.001s-44.834 65.5 -57.501 107.5s-19 89.333 -19 142c0 55.333 8.83301 105.166 26.5 149.499s41.5 82 71.5 113s65.167 54.667 105.5 71s83.166 24.5 128.499 24.5c44.667 0 85.834 -6.66699 123.501 -20
s70.334 -34 98.001 -62s49.167 -63.333 64.5 -106s23 -93.334 23 -152.001zM416.003 713l-212 60l38 88l203 -80z" />
    <glyph glyph-name="Oacute" unicode="&#xd3;" horiz-adv-x="703" 
d="M522 337c0 72.667 -14.498 128 -43.498 166s-71.5 57 -127.5 57c-22 0 -43.333 -4.33301 -64 -13s-38.834 -22 -54.501 -40s-28.334 -40.667 -38.001 -68s-14.5 -59.333 -14.5 -96c0 -69.333 13.667 -124.5 41 -165.5s70 -61.5 128 -61.5
c20.667 0 41.167 4.16699 61.5 12.5s38.833 21.333 55.5 39s30.167 40.5 40.5 68.5s15.5 61.667 15.5 101zM672.002 347c0 -55.333 -8.66602 -105.166 -25.999 -149.499s-41 -82 -71 -113s-65.167 -54.833 -105.5 -71.5s-83.5 -25 -129.5 -25
c-52 0 -97.333 7.83301 -136 23.5s-70.834 38.334 -96.501 68.001s-44.834 65.5 -57.501 107.5s-19 89.333 -19 142c0 55.333 8.83301 105.166 26.5 149.499s41.5 82 71.5 113s65.167 54.667 105.5 71s83.166 24.5 128.499 24.5c44.667 0 85.834 -6.66699 123.501 -20
s70.334 -34 98.001 -62s49.167 -63.333 64.5 -106s23 -93.334 23 -152.001zM314.003 713l-29 67l203 81l39 -87z" />
    <glyph glyph-name="Ocircumflex" unicode="&#xd4;" horiz-adv-x="703" 
d="M522 337c0 72.667 -14.498 128 -43.498 166s-71.5 57 -127.5 57c-22 0 -43.333 -4.33301 -64 -13s-38.834 -22 -54.501 -40s-28.334 -40.667 -38.001 -68s-14.5 -59.333 -14.5 -96c0 -69.333 13.667 -124.5 41 -165.5s70 -61.5 128 -61.5
c20.667 0 41.167 4.16699 61.5 12.5s38.833 21.333 55.5 39s30.167 40.5 40.5 68.5s15.5 61.667 15.5 101zM672.002 347c0 -55.333 -8.66602 -105.166 -25.999 -149.499s-41 -82 -71 -113s-65.167 -54.833 -105.5 -71.5s-83.5 -25 -129.5 -25
c-52 0 -97.333 7.83301 -136 23.5s-70.834 38.334 -96.501 68.001s-44.834 65.5 -57.501 107.5s-19 89.333 -19 142c0 55.333 8.83301 105.166 26.5 149.499s41.5 82 71.5 113s65.167 54.667 105.5 71s83.166 24.5 128.499 24.5c44.667 0 85.834 -6.66699 123.501 -20
s70.334 -34 98.001 -62s49.167 -63.333 64.5 -106s23 -93.334 23 -152.001zM482.003 717l-124 57l-125 -57l-30 63l157 81l157 -79z" />
    <glyph glyph-name="Otilde" unicode="&#xd5;" horiz-adv-x="703" 
d="M522 337c0 72.667 -14.498 128 -43.498 166s-71.5 57 -127.5 57c-22 0 -43.333 -4.33301 -64 -13s-38.834 -22 -54.501 -40s-28.334 -40.667 -38.001 -68s-14.5 -59.333 -14.5 -96c0 -69.333 13.667 -124.5 41 -165.5s70 -61.5 128 -61.5
c20.667 0 41.167 4.16699 61.5 12.5s38.833 21.333 55.5 39s30.167 40.5 40.5 68.5s15.5 61.667 15.5 101zM672.002 347c0 -55.333 -8.66602 -105.166 -25.999 -149.499s-41 -82 -71 -113s-65.167 -54.833 -105.5 -71.5s-83.5 -25 -129.5 -25
c-52 0 -97.333 7.83301 -136 23.5s-70.834 38.334 -96.501 68.001s-44.834 65.5 -57.501 107.5s-19 89.333 -19 142c0 55.333 8.83301 105.166 26.5 149.499s41.5 82 71.5 113s65.167 54.667 105.5 71s83.166 24.5 128.499 24.5c44.667 0 85.834 -6.66699 123.501 -20
s70.334 -34 98.001 -62s49.167 -63.333 64.5 -106s23 -93.334 23 -152.001zM552.003 779c-13.333 -15.333 -29.166 -28.335 -47.499 -39.002s-41.5 -16 -69.5 -16c-16 0 -29.667 1.83301 -41 5.5s-22 7.83398 -32 12.501s-19.833 8.83398 -29.5 12.501
s-20.834 5.5 -33.501 5.5c-17.333 0 -32.166 -3.83301 -44.499 -11.5s-22.833 -16.167 -31.5 -25.5l-43 68c13.333 17.333 29.833 32 49.5 44s44.5 18 74.5 18c14.667 0 27.5 -2 38.5 -6s21.5 -8.16699 31.5 -12.5l30 -12.5c10 -4 21.333 -6 34 -6
c16.667 0 31.167 3.5 43.5 10.5s22.166 14.833 29.499 23.5l41 -71v0z" />
    <glyph glyph-name="Odieresis" unicode="&#xd6;" horiz-adv-x="703" 
d="M522 337c0 72.667 -14.498 128 -43.498 166s-71.5 57 -127.5 57c-22 0 -43.333 -4.33301 -64 -13s-38.834 -22 -54.501 -40s-28.334 -40.667 -38.001 -68s-14.5 -59.333 -14.5 -96c0 -69.333 13.667 -124.5 41 -165.5s70 -61.5 128 -61.5
c20.667 0 41.167 4.16699 61.5 12.5s38.833 21.333 55.5 39s30.167 40.5 40.5 68.5s15.5 61.667 15.5 101zM672.002 347c0 -55.333 -8.66602 -105.166 -25.999 -149.499s-41 -82 -71 -113s-65.167 -54.833 -105.5 -71.5s-83.5 -25 -129.5 -25
c-52 0 -97.333 7.83301 -136 23.5s-70.834 38.334 -96.501 68.001s-44.834 65.5 -57.501 107.5s-19 89.333 -19 142c0 55.333 8.83301 105.166 26.5 149.499s41.5 82 71.5 113s65.167 54.667 105.5 71s83.166 24.5 128.499 24.5c44.667 0 85.834 -6.66699 123.501 -20
s70.334 -34 98.001 -62s49.167 -63.333 64.5 -106s23 -93.334 23 -152.001zM317.003 784c0 -18.667 -6.66699 -34.334 -20 -47.001s-29 -19 -47 -19c-18.667 0 -34.5 6.33301 -47.5 19s-19.5 28.334 -19.5 47.001s6.5 34.334 19.5 47.001s28.833 19 47.5 19
c18 0 33.667 -6.33301 47 -19s20 -28.334 20 -47.001zM541.003 784c0 -18.667 -6.33301 -34.334 -19 -47.001s-28.334 -19 -47.001 -19c-18 0 -33.667 6.33301 -47 19s-20 28.334 -20 47.001s6.66699 34.334 20 47.001s29 19 47 19c18.667 0 34.334 -6.33301 47.001 -19
s19 -28.334 19 -47.001z" />
    <glyph glyph-name="multiply" unicode="&#xd7;" 
d="M429 18l-157 157l-157 -157l-74 74l157 157l-157 157l80 80l157 -157l157 157l74 -74l-157 -157l157 -157z" />
    <glyph glyph-name="Oslash" unicode="&#xd8;" horiz-adv-x="703" 
d="M367 557c-8.66699 1.33301 -17.333 1.50098 -26 0.500977s-17.667 -2.16699 -27 -3.5c-19.333 -3.33301 -37.5 -10.333 -54.5 -21s-32 -24.834 -45 -42.501s-23.167 -39 -30.5 -64s-11 -53.833 -11 -86.5c0 -40 4 -75 12 -105s22.333 -54 43 -72l139 394v0z
M526.001 334.001c0 40.667 -4.83203 76.999 -14.499 108.999s-25.167 56.667 -46.5 74l-142 -402c7.33301 -2 14.666 -3 21.999 -3s14.666 0.333008 21.999 1c20.667 2 40.667 7.83301 60 17.5s36.333 23.5 51 41.5s26.334 40.333 35.001 67s13 58.334 13 95.001z
M668.002 342c0 -54 -8.50098 -102.828 -25.501 -146.495s-40.167 -80.834 -69.5 -111.501s-64 -54.334 -104 -71.001s-83 -25 -129 -25c-10.667 0 -20.667 0.333008 -30 1s-18.666 2 -27.999 4l-34 -98l-102 32l35 96c-52 26.667 -90 66.667 -114 120
s-36 115.666 -36 186.999c0 56 8.33301 106.167 25 150.5s39.667 81.666 69 111.999s64 53.666 104 69.999s83.333 24.5 130 24.5c8.66699 0 17.167 -0.333008 25.5 -1s16.5 -1.66699 24.5 -3l33 93l101 -31l-32 -90c48.667 -23.333 87 -60.5 115 -111.5
s42 -118.167 42 -201.5z" />
    <glyph glyph-name="Ugrave" unicode="&#xd9;" horiz-adv-x="678" 
d="M612 263c0 -93.333 -24.833 -162.499 -74.5 -207.499s-119.167 -67.5 -208.5 -67.5c-53.333 0 -97 6.66699 -131 20s-60.833 31.5 -80.5 54.5s-33.167 49.333 -40.5 79s-11 61.167 -11 94.5v439h140v-431c0 -20.667 2 -39.5 6 -56.5s11 -31.667 21 -44
s23.5 -21.833 40.5 -28.5s38.833 -10 65.5 -10c48 0 82.333 11.167 103 33.5s31 61.166 31 116.499v420h139v-412v0zM376 713.001l-212 60l38 88l203 -80z" />
    <glyph glyph-name="Uacute" unicode="&#xda;" horiz-adv-x="678" 
d="M612 263c0 -93.333 -24.833 -162.499 -74.5 -207.499s-119.167 -67.5 -208.5 -67.5c-53.333 0 -97 6.66699 -131 20s-60.833 31.5 -80.5 54.5s-33.167 49.333 -40.5 79s-11 61.167 -11 94.5v439h140v-431c0 -20.667 2 -39.5 6 -56.5s11 -31.667 21 -44
s23.5 -21.833 40.5 -28.5s38.833 -10 65.5 -10c48 0 82.333 11.167 103 33.5s31 61.166 31 116.499v420h139v-412v0zM314 713.001l-29 67l203 81l39 -87z" />
    <glyph glyph-name="Ucircumflex" unicode="&#xdb;" horiz-adv-x="678" 
d="M612 263c0 -93.333 -24.833 -162.499 -74.5 -207.499s-119.167 -67.5 -208.5 -67.5c-53.333 0 -97 6.66699 -131 20s-60.833 31.5 -80.5 54.5s-33.167 49.333 -40.5 79s-11 61.167 -11 94.5v439h140v-431c0 -20.667 2 -39.5 6 -56.5s11 -31.667 21 -44
s23.5 -21.833 40.5 -28.5s38.833 -10 65.5 -10c48 0 82.333 11.167 103 33.5s31 61.166 31 116.499v420h139v-412v0zM462 717.001l-124 57l-125 -57l-30 63l157 81l157 -79z" />
    <glyph glyph-name="Udieresis" unicode="&#xdc;" horiz-adv-x="678" 
d="M612 263c0 -93.333 -24.833 -162.499 -74.5 -207.499s-119.167 -67.5 -208.5 -67.5c-53.333 0 -97 6.66699 -131 20s-60.833 31.5 -80.5 54.5s-33.167 49.333 -40.5 79s-11 61.167 -11 94.5v439h140v-431c0 -20.667 2 -39.5 6 -56.5s11 -31.667 21 -44
s23.5 -21.833 40.5 -28.5s38.833 -10 65.5 -10c48 0 82.333 11.167 103 33.5s31 61.166 31 116.499v420h139v-412v0zM286 784.001c0 -18.667 -6.66699 -34.334 -20 -47.001s-29 -19 -47 -19c-18.667 0 -34.5 6.33301 -47.5 19s-19.5 28.334 -19.5 47.001
s6.5 34.334 19.5 47.001s28.833 19 47.5 19c18 0 33.667 -6.33301 47 -19s20 -28.334 20 -47.001zM510 784.001c0 -18.667 -6.33301 -34.334 -19 -47.001s-28.334 -19 -47.001 -19c-18 0 -33.667 6.33301 -47 19s-20 28.334 -20 47.001s6.66699 34.334 20 47.001
s29 19 47 19c18.667 0 34.334 -6.33301 47.001 -19s19 -28.334 19 -47.001z" />
    <glyph glyph-name="Yacute" unicode="&#xdd;" horiz-adv-x="568" 
d="M352 238l0.000976562 -238.001h-140v237l-211 438h153l84 -185c9.33301 -20 17.666 -39.167 24.999 -57.5s14 -36.166 20 -53.499h2c7.33301 19.333 15.5 39.5 24.5 60.5l28.5 63.5l81 172h148zM261.001 712.999l-29 67l203 81l39 -87z" />
    <glyph glyph-name="Thorn" unicode="&#xde;" horiz-adv-x="539" 
d="M373 359c0 14.667 -2.33301 28.333 -7 41s-12 23.834 -22 33.501s-23 17.167 -39 22.5s-35.667 8 -59 8c-12 0 -25.333 -0.666992 -40 -2v-218c12.667 -2 24.667 -3 36 -3c38 0.666992 69.333 11.167 94 31.5s37 49.166 37 86.499zM519 362.999
c0 -34 -6.16602 -65.501 -18.499 -94.501s-30.333 -54.167 -54 -75.5s-52.167 -38.166 -85.5 -50.499s-71 -18.5 -113 -18.5c-11.333 0 -25.333 1 -42 3v-127h-140v675h140v-98c18 0.666992 35.333 1 52 1c81.333 0 145.166 -18.167 191.499 -54.5s69.5 -89.833 69.5 -160.5
z" />
    <glyph glyph-name="germandbls" unicode="&#xdf;" horiz-adv-x="611" 
d="M582 159c0 -26 -5.16406 -49.501 -15.4971 -70.501s-24.666 -39 -42.999 -54s-40.333 -26.5 -66 -34.5s-53.834 -12 -84.501 -12c-22 0 -42.333 1.33301 -61 4s-34.334 6.33398 -47.001 11.001l6 113c13.333 -6.66699 28.166 -12 44.499 -16s32.5 -6 48.5 -6
c28 0 47.667 5.33301 59 16s17 22.667 17 36s-4.33301 24.666 -13 33.999s-19.334 18 -32.001 26l-41.5 25c-15 8.66699 -28.833 19 -41.5 31s-23.334 26.667 -32.001 44s-13 39 -13 65c0 29.333 5.66699 52.666 17 69.999s23.833 32.833 37.5 46.5s26.167 27 37.5 40
s17 29.833 17 50.5c0 18 -6.5 31.5 -19.5 40.5s-30.167 13.5 -51.5 13.5c-31.333 0 -56.166 -10.833 -74.499 -32.5s-27.5 -55.167 -27.5 -100.5v-499h-138v492c0 44.667 6.5 82.667 19.5 114s30.833 56.833 53.5 76.5s48.667 34 78 43s60.666 13.5 93.999 13.5
c31.333 0 59.833 -3.5 85.5 -10.5s47.834 -17 66.501 -30s33 -28.833 43 -47.5s15 -40 15 -64c0 -32 -5.83301 -56.833 -17.5 -74.5s-24.667 -32.5 -39 -44.5s-27.333 -23.5 -39 -34.5s-17.5 -26.167 -17.5 -45.5c0 -13.333 4.33301 -24.666 13 -33.999
s19.5 -18.333 32.5 -27s27 -17.5 42 -26.5s29 -19.833 42 -32.5s23.833 -27.667 32.5 -45s13 -38.666 13 -63.999z" />
    <glyph glyph-name="agrave" unicode="&#xe0;" horiz-adv-x="525" 
d="M320 218c-31.333 0 -57.002 -2 -77.002 -6s-35.667 -9.5 -47 -16.5s-19.166 -15 -23.499 -24s-6.5 -18.167 -6.5 -27.5c0 -14.667 5 -26.5 15 -35.5s23.667 -13.5 41 -13.5c14.667 0 28 3.16699 40 9.5s22.333 14.5 31 24.5s15.334 21.667 20.001 35s7 27 7 41v13z
M330.998 0c0 13.333 0.333984 26.8311 1.00098 40.498s2 26.834 4 39.501l-1 1c-12 -27.333 -32 -49.333 -60 -66s-60 -25 -96 -25c-46 0 -81.333 12.167 -106 36.5s-37 56.5 -37 96.5c0 30 7 56.5 21 79.5s33.667 42.167 59 57.5s55.333 26.833 90 34.5
s72.667 11.5 114 11.5v24c0 24 -6.83301 42 -20.5 54s-38.167 18 -73.5 18c-22.667 0 -47.5 -3.5 -74.5 -10.5s-50.833 -16.167 -71.5 -27.5l-12 115c25.333 8.66699 53.5 15.834 84.5 21.501s62.5 8.5 94.5 8.5c41.333 0 75.5 -4 102.5 -12s48.5 -19.5 64.5 -34.5
s27.333 -33.333 34 -55s10 -46.167 10 -73.5v-210c0 -19.333 0.166992 -39.833 0.5 -61.5s1.16602 -42.5 2.49902 -62.5h-130zM318.999 558.998l-193 94l57 96l183 -110z" />
    <glyph glyph-name="aacute" unicode="&#xe1;" horiz-adv-x="525" 
d="M320 218c-31.333 0 -57.002 -2 -77.002 -6s-35.667 -9.5 -47 -16.5s-19.166 -15 -23.499 -24s-6.5 -18.167 -6.5 -27.5c0 -14.667 5 -26.5 15 -35.5s23.667 -13.5 41 -13.5c14.667 0 28 3.16699 40 9.5s22.333 14.5 31 24.5s15.334 21.667 20.001 35s7 27 7 41v13z
M330.998 0c0 13.333 0.333984 26.8311 1.00098 40.498s2 26.834 4 39.501l-1 1c-12 -27.333 -32 -49.333 -60 -66s-60 -25 -96 -25c-46 0 -81.333 12.167 -106 36.5s-37 56.5 -37 96.5c0 30 7 56.5 21 79.5s33.667 42.167 59 57.5s55.333 26.833 90 34.5
s72.667 11.5 114 11.5v24c0 24 -6.83301 42 -20.5 54s-38.167 18 -73.5 18c-22.667 0 -47.5 -3.5 -74.5 -10.5s-50.833 -16.167 -71.5 -27.5l-12 115c25.333 8.66699 53.5 15.834 84.5 21.501s62.5 8.5 94.5 8.5c41.333 0 75.5 -4 102.5 -12s48.5 -19.5 64.5 -34.5
s27.333 -33.333 34 -55s10 -46.167 10 -73.5v-210c0 -19.333 0.166992 -39.833 0.5 -61.5s1.16602 -42.5 2.49902 -62.5h-130zM218.999 559.998l-46 79l183 109l55 -94z" />
    <glyph glyph-name="acircumflex" unicode="&#xe2;" horiz-adv-x="525" 
d="M320 218c-31.333 0 -57.002 -2 -77.002 -6s-35.667 -9.5 -47 -16.5s-19.166 -15 -23.499 -24s-6.5 -18.167 -6.5 -27.5c0 -14.667 5 -26.5 15 -35.5s23.667 -13.5 41 -13.5c14.667 0 28 3.16699 40 9.5s22.333 14.5 31 24.5s15.334 21.667 20.001 35s7 27 7 41v13z
M330.998 0c0 13.333 0.333984 26.8311 1.00098 40.498s2 26.834 4 39.501l-1 1c-12 -27.333 -32 -49.333 -60 -66s-60 -25 -96 -25c-46 0 -81.333 12.167 -106 36.5s-37 56.5 -37 96.5c0 30 7 56.5 21 79.5s33.667 42.167 59 57.5s55.333 26.833 90 34.5
s72.667 11.5 114 11.5v24c0 24 -6.83301 42 -20.5 54s-38.167 18 -73.5 18c-22.667 0 -47.5 -3.5 -74.5 -10.5s-50.833 -16.167 -71.5 -27.5l-12 115c25.333 8.66699 53.5 15.834 84.5 21.501s62.5 8.5 94.5 8.5c41.333 0 75.5 -4 102.5 -12s48.5 -19.5 64.5 -34.5
s27.333 -33.333 34 -55s10 -46.167 10 -73.5v-210c0 -19.333 0.166992 -39.833 0.5 -61.5s1.16602 -42.5 2.49902 -62.5h-130zM377.999 565.998l-115 62l-114 -62l-39 80l153 87l156 -86z" />
    <glyph glyph-name="atilde" unicode="&#xe3;" horiz-adv-x="525" 
d="M320 218c-31.333 0 -57.002 -2 -77.002 -6s-35.667 -9.5 -47 -16.5s-19.166 -15 -23.499 -24s-6.5 -18.167 -6.5 -27.5c0 -14.667 5 -26.5 15 -35.5s23.667 -13.5 41 -13.5c14.667 0 28 3.16699 40 9.5s22.333 14.5 31 24.5s15.334 21.667 20.001 35s7 27 7 41v13z
M330.998 0c0 13.333 0.333984 26.8311 1.00098 40.498s2 26.834 4 39.501l-1 1c-12 -27.333 -32 -49.333 -60 -66s-60 -25 -96 -25c-46 0 -81.333 12.167 -106 36.5s-37 56.5 -37 96.5c0 30 7 56.5 21 79.5s33.667 42.167 59 57.5s55.333 26.833 90 34.5
s72.667 11.5 114 11.5v24c0 24 -6.83301 42 -20.5 54s-38.167 18 -73.5 18c-22.667 0 -47.5 -3.5 -74.5 -10.5s-50.833 -16.167 -71.5 -27.5l-12 115c25.333 8.66699 53.5 15.834 84.5 21.501s62.5 8.5 94.5 8.5c41.333 0 75.5 -4 102.5 -12s48.5 -19.5 64.5 -34.5
s27.333 -33.333 34 -55s10 -46.167 10 -73.5v-210c0 -19.333 0.166992 -39.833 0.5 -61.5s1.16602 -42.5 2.49902 -62.5h-130zM436.999 613.998c-11.333 -10 -26.834 -19.667 -46.501 -29s-39.167 -14 -58.5 -14s-35.5 2.5 -48.5 7.5s-24.667 10.667 -35 17s-21 12 -32 17
s-24.167 7.5 -39.5 7.5c-12.667 0 -25 -3.16699 -37 -9.5s-22.667 -13.833 -32 -22.5l-25 91c14 13.333 29.833 24 47.5 32s36.5 12 56.5 12c18 0 33.333 -2.66699 46 -8s24.334 -11 35.001 -17s21.5 -11.667 32.5 -17s24.167 -8 39.5 -8c14 0 27.333 3.16699 40 9.5
s23 13.833 31 22.5l26 -91v0z" />
    <glyph glyph-name="adieresis" unicode="&#xe4;" horiz-adv-x="525" 
d="M320 218c-31.333 0 -57.002 -2 -77.002 -6s-35.667 -9.5 -47 -16.5s-19.166 -15 -23.499 -24s-6.5 -18.167 -6.5 -27.5c0 -14.667 5 -26.5 15 -35.5s23.667 -13.5 41 -13.5c14.667 0 28 3.16699 40 9.5s22.333 14.5 31 24.5s15.334 21.667 20.001 35s7 27 7 41v13z
M330.998 0c0 13.333 0.333984 26.8311 1.00098 40.498s2 26.834 4 39.501l-1 1c-12 -27.333 -32 -49.333 -60 -66s-60 -25 -96 -25c-46 0 -81.333 12.167 -106 36.5s-37 56.5 -37 96.5c0 30 7 56.5 21 79.5s33.667 42.167 59 57.5s55.333 26.833 90 34.5
s72.667 11.5 114 11.5v24c0 24 -6.83301 42 -20.5 54s-38.167 18 -73.5 18c-22.667 0 -47.5 -3.5 -74.5 -10.5s-50.833 -16.167 -71.5 -27.5l-12 115c25.333 8.66699 53.5 15.834 84.5 21.501s62.5 8.5 94.5 8.5c41.333 0 75.5 -4 102.5 -12s48.5 -19.5 64.5 -34.5
s27.333 -33.333 34 -55s10 -46.167 10 -73.5v-210c0 -19.333 0.166992 -39.833 0.5 -61.5s1.16602 -42.5 2.49902 -62.5h-130zM231.999 646.998c0 -20.667 -7 -38 -21 -52s-31.333 -21 -52 -21c-20 0 -37.167 7 -51.5 21s-21.5 31.333 -21.5 52
c0 20 7.16699 37.167 21.5 51.5s31.5 21.5 51.5 21.5c20.667 0 38 -7.16699 52 -21.5s21 -31.5 21 -51.5zM440.999 646.998c0 -20.667 -7 -38 -21 -52s-31.333 -21 -52 -21c-20 0 -37.167 7 -51.5 21s-21.5 31.333 -21.5 52c0 20 7.16699 37.167 21.5 51.5
s31.5 21.5 51.5 21.5c20.667 0 38 -7.16699 52 -21.5s21 -31.5 21 -51.5z" />
    <glyph glyph-name="aring" unicode="&#xe5;" horiz-adv-x="525" 
d="M320 218c-31.333 0 -57.002 -2 -77.002 -6s-35.667 -9.5 -47 -16.5s-19.166 -15 -23.499 -24s-6.5 -18.167 -6.5 -27.5c0 -14.667 5 -26.5 15 -35.5s23.667 -13.5 41 -13.5c14.667 0 28 3.16699 40 9.5s22.333 14.5 31 24.5s15.334 21.667 20.001 35s7 27 7 41v13z
M330.998 0c0 13.333 0.333984 26.8311 1.00098 40.498s2 26.834 4 39.501l-1 1c-12 -27.333 -32 -49.333 -60 -66s-60 -25 -96 -25c-46 0 -81.333 12.167 -106 36.5s-37 56.5 -37 96.5c0 30 7 56.5 21 79.5s33.667 42.167 59 57.5s55.333 26.833 90 34.5
s72.667 11.5 114 11.5v24c0 24 -6.83301 42 -20.5 54s-38.167 18 -73.5 18c-22.667 0 -47.5 -3.5 -74.5 -10.5s-50.833 -16.167 -71.5 -27.5l-12 115c25.333 8.66699 53.5 15.834 84.5 21.501s62.5 8.5 94.5 8.5c41.333 0 75.5 -4 102.5 -12s48.5 -19.5 64.5 -34.5
s27.333 -33.333 34 -55s10 -46.167 10 -73.5v-210c0 -19.333 0.166992 -39.833 0.5 -61.5s1.16602 -42.5 2.49902 -62.5h-130zM311.999 677.998c0 14.667 -5 27 -15 37s-22 15 -36 15c-14.667 0 -27 -5 -37 -15s-15 -22.333 -15 -37c0 -14 5 -26.167 15 -36.5
s22.333 -15.5 37 -15.5c14 0 26 5.16699 36 15.5s15 22.5 15 36.5zM390.999 677.998c0 -18 -3.33301 -34.501 -10 -49.501s-16 -28.167 -28 -39.5s-25.833 -20.166 -41.5 -26.499s-32.5 -9.5 -50.5 -9.5s-35 3.16699 -51 9.5s-30 15 -42 26s-21.333 24.167 -28 39.5
s-10 32 -10 50s3.5 34.667 10.5 50s16.333 28.5 28 39.5s25.5 19.667 41.5 26s33 9.5 51 9.5s34.833 -3.16699 50.5 -9.5s29.5 -15 41.5 -26s21.333 -24.167 28 -39.5s10 -32 10 -50z" />
    <glyph glyph-name="ae" unicode="&#xe6;" horiz-adv-x="798" 
d="M320 218c-31.333 0 -57.002 -2.16699 -77.002 -6.5s-35.667 -10 -47 -17s-19.166 -14.833 -23.499 -23.5s-6.5 -17.667 -6.5 -27c0 -15.333 5 -27.333 15 -36s23.667 -13 41 -13c14.667 0 28 3.16699 40 9.5s22.333 14.5 31 24.5s15.334 21.667 20.001 35s7 27 7 41v13z
M625.998 314c1.33301 30 -5.16797 53.167 -19.501 69.5s-34.166 24.5 -59.499 24.5s-46 -8.66699 -62 -26s-25.667 -40 -29 -68h170v0zM761.997 283c0 -9.33301 -0.328125 -19.1709 -0.995117 -29.5039s-1.66699 -21.166 -3 -32.499h-304c0 -82.667 43.667 -124 131 -124
c25.333 0 50.5 2.5 75.5 7.5s48.833 12.833 71.5 23.5l12 -106c-27.333 -10.667 -56.5 -18.667 -87.5 -24s-61.833 -8 -92.5 -8c-52.667 0 -96.334 8.83301 -131.001 26.5s-60.334 41.5 -77.001 71.5l-1 -2c-8 -12 -17.333 -23.833 -28 -35.5s-23.334 -22 -38.001 -31
s-31.334 -16.167 -50.001 -21.5s-39.667 -8 -63 -8c-46 0 -80.833 12.167 -104.5 36.5s-35.5 56.5 -35.5 96.5c0 30 7 56.5 21 79.5s33.667 42.167 59 57.5s55.333 26.833 90 34.5s72.667 11.5 114 11.5v23c0 24 -7 42.167 -21 54.5s-38.333 18.5 -73 18.5
c-22.667 0 -47.5 -3.5 -74.5 -10.5s-50.833 -16.167 -71.5 -27.5l-12 115c25.333 8.66699 53.5 15.834 84.5 21.501s62.167 8.5 93.5 8.5c32 0 62.167 -4 90.5 -12s51.833 -22.667 70.5 -44h1c14.667 15.333 34.334 28.333 59.001 39s52.667 16 84 16
c36.667 0 68.167 -5.83301 94.5 -17.5s48.166 -27.667 65.499 -48s30.166 -44.166 38.499 -71.499s12.5 -56.666 12.5 -87.999z" />
    <glyph glyph-name="ccedilla" unicode="&#xe7;" horiz-adv-x="431" 
d="M406 21c-19.333 -8.66699 -42.498 -15.833 -69.498 -21.5s-53.167 -8.5 -78.5 -8.5c-71.333 0 -126.833 19.5 -166.5 58.5s-59.5 99.833 -59.5 182.5c0 38 5.16699 73.833 15.5 107.5s26.166 62.834 47.499 87.501s48.166 44.167 80.499 58.5s70.833 21.5 115.5 21.5
c17.333 0 36 -1.5 56 -4.5s38 -7.16699 54 -12.5l-27 -117c-24.667 11.333 -52 17 -82 17c-38.667 0 -67.667 -13 -87 -39s-29 -61.333 -29 -106c0 -40.667 8.83301 -73.334 26.5 -98.001s46.167 -37 85.5 -37c16 0 32.167 1.66699 48.5 5s30.833 8.33301 43.5 15l26 -109v0
zM301.002 -50.999c9.33301 -18 15.501 -36.167 18.501 -54.5s1.16699 -36 -5.5 -53s-19 -33.5 -37 -49.5s-43.333 -30.333 -76 -43l-65 53c30.667 19.333 49.167 41.5 55.5 66.5s1.16602 51.833 -15.501 80.5h125v0z" />
    <glyph glyph-name="egrave" unicode="&#xe8;" horiz-adv-x="516" 
d="M343 314c1.33301 30 -5.16797 53.167 -19.501 69.5s-34.166 24.5 -59.499 24.5s-46 -8.66699 -62 -26s-25.333 -40 -28 -68h169v0zM479.999 283c0 -9.33301 -0.499023 -19.168 -1.49902 -29.501s-2.16699 -21.166 -3.5 -32.499h-303c0 -82.667 43.667 -124 131 -124
c24.667 0 49.667 2.5 75 7.5s49 12.833 71 23.5l13 -106c-28 -10.667 -57.333 -18.667 -88 -24s-61.667 -8 -93 -8c-80.667 0 -142.334 20.333 -185.001 61s-64 105 -64 193c0 38 5.16699 73.167 15.5 105.5s25.5 60.166 45.5 83.499s44.667 41.666 74 54.999s63 20 101 20
c36.667 0 68.334 -5.83301 95.001 -17.5s48.667 -27.667 66 -48s30.166 -44.166 38.499 -71.499s12.5 -56.666 12.5 -87.999zM320 558.998l-193 94l57 96l183 -110z" />
    <glyph glyph-name="eacute" unicode="&#xe9;" horiz-adv-x="516" 
d="M343 314c1.33301 30 -5.16797 53.167 -19.501 69.5s-34.166 24.5 -59.499 24.5s-46 -8.66699 -62 -26s-25.333 -40 -28 -68h169v0zM479.999 283c0 -9.33301 -0.499023 -19.168 -1.49902 -29.501s-2.16699 -21.166 -3.5 -32.499h-303c0 -82.667 43.667 -124 131 -124
c24.667 0 49.667 2.5 75 7.5s49 12.833 71 23.5l13 -106c-28 -10.667 -57.333 -18.667 -88 -24s-61.667 -8 -93 -8c-80.667 0 -142.334 20.333 -185.001 61s-64 105 -64 193c0 38 5.16699 73.167 15.5 105.5s25.5 60.166 45.5 83.499s44.667 41.666 74 54.999s63 20 101 20
c36.667 0 68.334 -5.83301 95.001 -17.5s48.667 -27.667 66 -48s30.166 -44.166 38.499 -71.499s12.5 -56.666 12.5 -87.999zM226 559.998l-46 79l183 109l55 -94z" />
    <glyph glyph-name="ecircumflex" unicode="&#xea;" horiz-adv-x="516" 
d="M343 314c1.33301 30 -5.16797 53.167 -19.501 69.5s-34.166 24.5 -59.499 24.5s-46 -8.66699 -62 -26s-25.333 -40 -28 -68h169v0zM479.999 283c0 -9.33301 -0.499023 -19.168 -1.49902 -29.501s-2.16699 -21.166 -3.5 -32.499h-303c0 -82.667 43.667 -124 131 -124
c24.667 0 49.667 2.5 75 7.5s49 12.833 71 23.5l13 -106c-28 -10.667 -57.333 -18.667 -88 -24s-61.667 -8 -93 -8c-80.667 0 -142.334 20.333 -185.001 61s-64 105 -64 193c0 38 5.16699 73.167 15.5 105.5s25.5 60.166 45.5 83.499s44.667 41.666 74 54.999s63 20 101 20
c36.667 0 68.334 -5.83301 95.001 -17.5s48.667 -27.667 66 -48s30.166 -44.166 38.499 -71.499s12.5 -56.666 12.5 -87.999zM379 565.998l-115 62l-114 -62l-39 80l153 87l156 -86z" />
    <glyph glyph-name="edieresis" unicode="&#xeb;" horiz-adv-x="516" 
d="M343 314c1.33301 30 -5.16797 53.167 -19.501 69.5s-34.166 24.5 -59.499 24.5s-46 -8.66699 -62 -26s-25.333 -40 -28 -68h169v0zM479.999 283c0 -9.33301 -0.499023 -19.168 -1.49902 -29.501s-2.16699 -21.166 -3.5 -32.499h-303c0 -82.667 43.667 -124 131 -124
c24.667 0 49.667 2.5 75 7.5s49 12.833 71 23.5l13 -106c-28 -10.667 -57.333 -18.667 -88 -24s-61.667 -8 -93 -8c-80.667 0 -142.334 20.333 -185.001 61s-64 105 -64 193c0 38 5.16699 73.167 15.5 105.5s25.5 60.166 45.5 83.499s44.667 41.666 74 54.999s63 20 101 20
c36.667 0 68.334 -5.83301 95.001 -17.5s48.667 -27.667 66 -48s30.166 -44.166 38.499 -71.499s12.5 -56.666 12.5 -87.999zM236 646.998c0 -20.667 -7 -38 -21 -52s-31.333 -21 -52 -21c-20 0 -37.167 7 -51.5 21s-21.5 31.333 -21.5 52c0 20 7.16699 37.167 21.5 51.5
s31.5 21.5 51.5 21.5c20.667 0 38 -7.16699 52 -21.5s21 -31.5 21 -51.5zM445 646.998c0 -20.667 -7 -38 -21 -52s-31.333 -21 -52 -21c-20 0 -37.167 7 -51.5 21s-21.5 31.333 -21.5 52c0 20 7.16699 37.167 21.5 51.5s31.5 21.5 51.5 21.5c20.667 0 38 -7.16699 52 -21.5
s21 -31.5 21 -51.5z" />
    <glyph glyph-name="igrave" unicode="&#xec;" horiz-adv-x="268" 
d="M66 0v497h137v-497h-137zM199 559l-193 94l57 96l183 -110z" />
    <glyph glyph-name="iacute" unicode="&#xed;" horiz-adv-x="268" 
d="M66 0v497h137v-497h-137zM71 560l-46 79l183 109l55 -94z" />
    <glyph glyph-name="icircumflex" unicode="&#xee;" horiz-adv-x="268" 
d="M66 0v497h137v-497h-137zM249 566l-115 62l-114 -62l-39 80l153 87l156 -86z" />
    <glyph glyph-name="idieresis" unicode="&#xef;" horiz-adv-x="268" 
d="M66 0v497h137v-497h-137zM106 647c0 -20.667 -7 -38 -21 -52s-31.333 -21 -52 -21c-20 0 -37.167 7 -51.5 21s-21.5 31.333 -21.5 52c0 20 7.16699 37.167 21.5 51.5s31.5 21.5 51.5 21.5c20.667 0 38 -7.16699 52 -21.5s21 -31.5 21 -51.5zM315 647
c0 -20.667 -7 -38 -21 -52s-31.333 -21 -52 -21c-20 0 -37.167 7 -51.5 21s-21.5 31.333 -21.5 52c0 20 7.16699 37.167 21.5 51.5s31.5 21.5 51.5 21.5c20.667 0 38 -7.16699 52 -21.5s21 -31.5 21 -51.5z" />
    <glyph glyph-name="eth" unicode="&#xf0;" horiz-adv-x="572" 
d="M355 390c-18.667 4.66699 -38.999 7.00098 -60.999 7.00098c-16.667 0 -32.167 -2.83301 -46.5 -8.5s-26.666 -14.834 -36.999 -27.501s-18.333 -29.167 -24 -49.5s-8.5 -45.5 -8.5 -75.5c0 -88.667 26 -133 78 -133c15.333 0 29.166 4.16699 41.499 12.5
s22.666 19.5 30.999 33.5s14.833 30.333 19.5 49s7 38.667 7 60v132zM492.001 586.001l-0.000976562 -586h-127c0 11.333 0.5 23.833 1.5 37.5s2.5 27.167 4.5 40.5h-2c-13.333 -26 -33 -47.333 -59 -64s-58 -25 -96 -25c-60.667 0 -106 21 -136 63s-45 98.667 -45 170
c0 41.333 6 79.5 18 114.5s29.333 65 52 90s50.334 44.5 83.001 58.5s70 21 112 21c18.667 0 37.667 -1 57 -3v59l-83 -20l-11 102l94 24v62h137v-38l69 18l10 -104z" />
    <glyph glyph-name="ntilde" unicode="&#xf1;" horiz-adv-x="570" 
d="M367 0l0.000976562 316.997c0 23.333 -3.83301 41.833 -11.5 55.5s-22.167 20.5 -43.5 20.5c-15.333 0 -29.666 -4.16699 -42.999 -12.5s-24.833 -19.5 -34.5 -33.5s-17.334 -30.167 -23.001 -48.5s-8.5 -37.833 -8.5 -58.5v-240h-138v497h129
c0 -10.667 -0.333008 -24.167 -1 -40.5s-2.33398 -30.833 -5.00098 -43.5l1 -1c15.333 28 37 51 65 69s62 27 102 27c28 0 51.5 -4.16699 70.5 -12.5s34.167 -19.666 45.5 -33.999s19.5 -31.166 24.5 -50.499s7.5 -39.666 7.5 -60.999v-350h-137zM453.001 613.997
c-11.333 -10 -26.834 -19.667 -46.501 -29s-39.167 -14 -58.5 -14s-35.5 2.5 -48.5 7.5s-24.667 10.667 -35 17s-21 12 -32 17s-24.167 7.5 -39.5 7.5c-12.667 0 -25 -3.16699 -37 -9.5s-22.667 -13.833 -32 -22.5l-25 91c14 13.333 29.833 24 47.5 32s36.5 12 56.5 12
c18 0 33.333 -2.66699 46 -8s24.334 -11 35.001 -17s21.5 -11.667 32.5 -17s24.167 -8 39.5 -8c14 0 27.333 3.16699 40 9.5s23 13.833 31 22.5l26 -91v0z" />
    <glyph glyph-name="ograve" unicode="&#xf2;" horiz-adv-x="555" 
d="M381 251c0 46 -8.16797 80.8311 -24.501 104.498s-42.166 35.5 -77.499 35.5c-13.333 0 -26.333 -2.66699 -39 -8s-24 -13.666 -34 -24.999s-18 -25.666 -24 -42.999s-9 -38 -9 -62c0 -96.667 34.667 -145 104 -145c30 0 54.833 12 74.5 36s29.5 59.667 29.5 107z
M522.999 257.998c0 -39.333 -6.33691 -75.499 -19.0039 -108.499s-30.5 -61.333 -53.5 -85s-50.167 -42 -81.5 -55s-65.666 -19.5 -102.999 -19.5c-35.333 0 -67.5 4.66699 -96.5 14s-53.833 24 -74.5 44s-36.5 45.833 -47.5 77.5s-16.5 69.5 -16.5 113.5
c0 39.333 6.33301 75.5 19 108.5s30.334 61.333 53.001 85s49.834 42 81.501 55s66.5 19.5 104.5 19.5c72.667 0 129.834 -20.333 171.501 -61s62.5 -103.334 62.5 -188.001zM334.995 558.999l-193 94l57 96l183 -110z" />
    <glyph glyph-name="oacute" unicode="&#xf3;" horiz-adv-x="555" 
d="M381 251c0 46 -8.16797 80.8311 -24.501 104.498s-42.166 35.5 -77.499 35.5c-13.333 0 -26.333 -2.66699 -39 -8s-24 -13.666 -34 -24.999s-18 -25.666 -24 -42.999s-9 -38 -9 -62c0 -96.667 34.667 -145 104 -145c30 0 54.833 12 74.5 36s29.5 59.667 29.5 107z
M522.999 257.998c0 -39.333 -6.33691 -75.499 -19.0039 -108.499s-30.5 -61.333 -53.5 -85s-50.167 -42 -81.5 -55s-65.666 -19.5 -102.999 -19.5c-35.333 0 -67.5 4.66699 -96.5 14s-53.833 24 -74.5 44s-36.5 45.833 -47.5 77.5s-16.5 69.5 -16.5 113.5
c0 39.333 6.33301 75.5 19 108.5s30.334 61.333 53.001 85s49.834 42 81.501 55s66.5 19.5 104.5 19.5c72.667 0 129.834 -20.333 171.501 -61s62.5 -103.334 62.5 -188.001zM238.995 559.999l-46 79l183 109l55 -94z" />
    <glyph glyph-name="ocircumflex" unicode="&#xf4;" horiz-adv-x="555" 
d="M381 251c0 46 -8.16797 80.8311 -24.501 104.498s-42.166 35.5 -77.499 35.5c-13.333 0 -26.333 -2.66699 -39 -8s-24 -13.666 -34 -24.999s-18 -25.666 -24 -42.999s-9 -38 -9 -62c0 -96.667 34.667 -145 104 -145c30 0 54.833 12 74.5 36s29.5 59.667 29.5 107z
M522.999 257.998c0 -39.333 -6.33691 -75.499 -19.0039 -108.499s-30.5 -61.333 -53.5 -85s-50.167 -42 -81.5 -55s-65.666 -19.5 -102.999 -19.5c-35.333 0 -67.5 4.66699 -96.5 14s-53.833 24 -74.5 44s-36.5 45.833 -47.5 77.5s-16.5 69.5 -16.5 113.5
c0 39.333 6.33301 75.5 19 108.5s30.334 61.333 53.001 85s49.834 42 81.501 55s66.5 19.5 104.5 19.5c72.667 0 129.834 -20.333 171.501 -61s62.5 -103.334 62.5 -188.001zM396.995 565.999l-115 62l-114 -62l-39 80l153 87l156 -86z" />
    <glyph glyph-name="otilde" unicode="&#xf5;" horiz-adv-x="555" 
d="M381 251c0 46 -8.16797 80.8311 -24.501 104.498s-42.166 35.5 -77.499 35.5c-13.333 0 -26.333 -2.66699 -39 -8s-24 -13.666 -34 -24.999s-18 -25.666 -24 -42.999s-9 -38 -9 -62c0 -96.667 34.667 -145 104 -145c30 0 54.833 12 74.5 36s29.5 59.667 29.5 107z
M522.999 257.998c0 -39.333 -6.33691 -75.499 -19.0039 -108.499s-30.5 -61.333 -53.5 -85s-50.167 -42 -81.5 -55s-65.666 -19.5 -102.999 -19.5c-35.333 0 -67.5 4.66699 -96.5 14s-53.833 24 -74.5 44s-36.5 45.833 -47.5 77.5s-16.5 69.5 -16.5 113.5
c0 39.333 6.33301 75.5 19 108.5s30.334 61.333 53.001 85s49.834 42 81.501 55s66.5 19.5 104.5 19.5c72.667 0 129.834 -20.333 171.501 -61s62.5 -103.334 62.5 -188.001zM460.995 613.999c-11.333 -10 -26.834 -19.667 -46.501 -29s-39.167 -14 -58.5 -14
s-35.5 2.5 -48.5 7.5s-24.667 10.667 -35 17s-21 12 -32 17s-24.167 7.5 -39.5 7.5c-12.667 0 -25 -3.16699 -37 -9.5s-22.667 -13.833 -32 -22.5l-25 91c14 13.333 29.833 24 47.5 32s36.5 12 56.5 12c18 0 33.333 -2.66699 46 -8s24.334 -11 35.001 -17
s21.5 -11.667 32.5 -17s24.167 -8 39.5 -8c14 0 27.333 3.16699 40 9.5s23 13.833 31 22.5l26 -91v0z" />
    <glyph glyph-name="odieresis" unicode="&#xf6;" horiz-adv-x="555" 
d="M381 251c0 46 -8.16797 80.8311 -24.501 104.498s-42.166 35.5 -77.499 35.5c-13.333 0 -26.333 -2.66699 -39 -8s-24 -13.666 -34 -24.999s-18 -25.666 -24 -42.999s-9 -38 -9 -62c0 -96.667 34.667 -145 104 -145c30 0 54.833 12 74.5 36s29.5 59.667 29.5 107z
M522.999 257.998c0 -39.333 -6.33691 -75.499 -19.0039 -108.499s-30.5 -61.333 -53.5 -85s-50.167 -42 -81.5 -55s-65.666 -19.5 -102.999 -19.5c-35.333 0 -67.5 4.66699 -96.5 14s-53.833 24 -74.5 44s-36.5 45.833 -47.5 77.5s-16.5 69.5 -16.5 113.5
c0 39.333 6.33301 75.5 19 108.5s30.334 61.333 53.001 85s49.834 42 81.501 55s66.5 19.5 104.5 19.5c72.667 0 129.834 -20.333 171.501 -61s62.5 -103.334 62.5 -188.001zM250.995 646.999c0 -20.667 -7 -38 -21 -52s-31.333 -21 -52 -21c-20 0 -37.167 7 -51.5 21
s-21.5 31.333 -21.5 52c0 20 7.16699 37.167 21.5 51.5s31.5 21.5 51.5 21.5c20.667 0 38 -7.16699 52 -21.5s21 -31.5 21 -51.5zM459.995 646.999c0 -20.667 -7 -38 -21 -52s-31.333 -21 -52 -21c-20 0 -37.167 7 -51.5 21s-21.5 31.333 -21.5 52
c0 20 7.16699 37.167 21.5 51.5s31.5 21.5 51.5 21.5c20.667 0 38 -7.16699 52 -21.5s21 -31.5 21 -51.5z" />
    <glyph glyph-name="divide" unicode="&#xf7;" 
d="M354 56c0 -21.333 -7.83301 -39.833 -23.5 -55.5s-34.167 -23.5 -55.5 -23.5c-22 0 -40.833 7.83301 -56.5 23.5s-23.5 34.167 -23.5 55.5c0 22 7.83301 40.667 23.5 56s34.167 23 55.5 23c22 0 40.833 -7.66699 56.5 -23s23.5 -34 23.5 -56zM41 202v111h467v-111h-467z
M354 459c0 -22 -7.83301 -40.833 -23.5 -56.5s-34.167 -23.5 -55.5 -23.5c-22 0 -40.833 7.83301 -56.5 23.5s-23.5 34.167 -23.5 55.5c0 22 7.83301 40.833 23.5 56.5s34.167 23.5 55.5 23.5c22 0 40.833 -7.83301 56.5 -23.5s23.5 -34.167 23.5 -55.5z" />
    <glyph glyph-name="oslash" unicode="&#xf8;" horiz-adv-x="555" 
d="M283 396c-8.66699 0.666992 -17.999 0.665039 -27.999 -0.00195312c-12.667 -2 -24.834 -6.16699 -36.501 -12.5s-22 -15.5 -31 -27.5s-16.333 -26.667 -22 -44s-8.5 -38 -8.5 -62c0 -21.333 2.5 -41.166 7.5 -59.499s12.5 -33.166 22.5 -44.499l96 250v0z
M389.001 252.998c0 23.333 -2.66699 44.333 -8 63s-13.666 33.667 -24.999 45l-99 -257c11.333 -2 22.666 -2.66699 33.999 -2c26.667 3.33301 49.667 17 69 41s29 60.667 29 110zM517.001 256.998c0 -40 -6.16895 -76.5 -18.502 -109.5s-29.833 -61.333 -52.5 -85
s-49.5 -42 -80.5 -55s-64.833 -19.5 -101.5 -19.5c-16.667 0 -33.334 1.66699 -50.001 5l-39 -100l-78 24l39 100c-34 19.333 -60.333 47.833 -79 85.5s-28 84.167 -28 139.5c0 40.667 6.16699 77.334 18.5 110.001s29.833 60.667 52.5 84s49.5 41.333 80.5 54
s65.167 19 102.5 19c6.66699 0 13.834 -0.333008 21.501 -1s14.834 -1.33398 21.501 -2.00098l35 92l79 -23l-36 -91c16.667 -8 31.834 -18.5 45.501 -31.5s25.5 -28.667 35.5 -47s17.833 -39.833 23.5 -64.5s8.5 -52.667 8.5 -84z" />
    <glyph glyph-name="ugrave" unicode="&#xf9;" horiz-adv-x="568" 
d="M375 0c0 10.667 0.331055 24.1699 0.998047 40.5029s2.33398 30.833 5.00098 43.5l-1 1c-15.333 -28 -37 -51 -65 -69s-62 -27 -102 -27c-28 0 -51.5 4.16699 -70.5 12.5s-34.167 19.666 -45.5 33.999s-19.5 31.166 -24.5 50.499s-7.5 39.666 -7.5 60.999v350h137v-317
c0 -23.333 4 -41.833 12 -55.5s22.667 -20.5 44 -20.5c14.667 0 28.667 4.16699 42 12.5s24.833 19.5 34.5 33.5s17.334 30.167 23.001 48.5s8.5 37.833 8.5 58.5v240h138v-497h-129zM330.998 559.003l-193 94l57 96l183 -110z" />
    <glyph glyph-name="uacute" unicode="&#xfa;" horiz-adv-x="568" 
d="M375 0c0 10.667 0.331055 24.1699 0.998047 40.5029s2.33398 30.833 5.00098 43.5l-1 1c-15.333 -28 -37 -51 -65 -69s-62 -27 -102 -27c-28 0 -51.5 4.16699 -70.5 12.5s-34.167 19.666 -45.5 33.999s-19.5 31.166 -24.5 50.499s-7.5 39.666 -7.5 60.999v350h137v-317
c0 -23.333 4 -41.833 12 -55.5s22.667 -20.5 44 -20.5c14.667 0 28.667 4.16699 42 12.5s24.833 19.5 34.5 33.5s17.334 30.167 23.001 48.5s8.5 37.833 8.5 58.5v240h138v-497h-129zM236.998 560.003l-46 79l183 109l55 -94z" />
    <glyph glyph-name="ucircumflex" unicode="&#xfb;" horiz-adv-x="568" 
d="M375 0c0 10.667 0.331055 24.1699 0.998047 40.5029s2.33398 30.833 5.00098 43.5l-1 1c-15.333 -28 -37 -51 -65 -69s-62 -27 -102 -27c-28 0 -51.5 4.16699 -70.5 12.5s-34.167 19.666 -45.5 33.999s-19.5 31.166 -24.5 50.499s-7.5 39.666 -7.5 60.999v350h137v-317
c0 -23.333 4 -41.833 12 -55.5s22.667 -20.5 44 -20.5c14.667 0 28.667 4.16699 42 12.5s24.833 19.5 34.5 33.5s17.334 30.167 23.001 48.5s8.5 37.833 8.5 58.5v240h138v-497h-129zM395.998 566.003l-115 62l-114 -62l-39 80l153 87l156 -86z" />
    <glyph glyph-name="udieresis" unicode="&#xfc;" horiz-adv-x="568" 
d="M375 0c0 10.667 0.331055 24.1699 0.998047 40.5029s2.33398 30.833 5.00098 43.5l-1 1c-15.333 -28 -37 -51 -65 -69s-62 -27 -102 -27c-28 0 -51.5 4.16699 -70.5 12.5s-34.167 19.666 -45.5 33.999s-19.5 31.166 -24.5 50.499s-7.5 39.666 -7.5 60.999v350h137v-317
c0 -23.333 4 -41.833 12 -55.5s22.667 -20.5 44 -20.5c14.667 0 28.667 4.16699 42 12.5s24.833 19.5 34.5 33.5s17.334 30.167 23.001 48.5s8.5 37.833 8.5 58.5v240h138v-497h-129zM245.998 647.003c0 -20.667 -7 -38 -21 -52s-31.333 -21 -52 -21
c-20 0 -37.167 7 -51.5 21s-21.5 31.333 -21.5 52c0 20 7.16699 37.167 21.5 51.5s31.5 21.5 51.5 21.5c20.667 0 38 -7.16699 52 -21.5s21 -31.5 21 -51.5zM454.998 647.003c0 -20.667 -7 -38 -21 -52s-31.333 -21 -52 -21c-20 0 -37.167 7 -51.5 21s-21.5 31.333 -21.5 52
c0 20 7.16699 37.167 21.5 51.5s31.5 21.5 51.5 21.5c20.667 0 38 -7.16699 52 -21.5s21 -31.5 21 -51.5z" />
    <glyph glyph-name="yacute" unicode="&#xfd;" horiz-adv-x="508" 
d="M306 -36c-14.667 -38.667 -29.498 -71.334 -44.498 -98.001s-31.833 -48.334 -50.5 -65.001s-39.834 -28.667 -63.501 -36s-51.167 -11 -82.5 -11c-20 0 -41.667 2.66699 -65 8l15 117c19.333 -6.66699 40.333 -10 63 -10c21.333 0 39.166 6.5 53.499 19.5
s28.166 37.5 41.499 73.5l14 38l-182 497h152l60 -172c7.33301 -21.333 14.5 -44.166 21.5 -68.499s13.167 -48.166 18.5 -71.499h1c2.66699 12 5.83398 24.833 9.50098 38.5s7.66699 27.5 12 41.5l13 41.5c4.33301 13.667 8.5 26.167 12.5 37.5l54 153h147zM232.002 560
l-46 79l183 109l55 -94z" />
    <glyph glyph-name="thorn" unicode="&#xfe;" horiz-adv-x="555" 
d="M377 261c0 88.667 -26.001 132.999 -78.001 132.999c-15.333 0 -29.166 -4.16699 -41.499 -12.5s-22.666 -19.5 -30.999 -33.5s-14.833 -30.5 -19.5 -49.5s-7 -38.833 -7 -59.5v-132c16.667 -4.66699 37 -7 61 -7c16.667 0 32.167 2.83301 46.5 8.5
s26.666 14.834 36.999 27.501s18.333 29.167 24 49.5s8.5 45.5 8.5 75.5zM522.999 274.999c0 -42.667 -5.50195 -81.332 -16.502 -115.999s-27.5 -64.334 -49.5 -89.001s-49.5 -43.667 -82.5 -57s-71.5 -20 -115.5 -20c-11.333 0 -21.666 0.333008 -30.999 1
s-18.666 1.66699 -27.999 3v-246h-137v979h137v-200c0 -15.333 -0.166992 -32 -0.5 -50s-1.83301 -34.667 -4.5 -50h2c12.667 22.667 30.667 41.167 54 55.5s53.333 21.5 90 21.5c59.333 0 104.5 -20.333 135.5 -61s46.5 -97.667 46.5 -171z" />
    <glyph glyph-name="ydieresis" unicode="&#xff;" horiz-adv-x="508" 
d="M306 -36c-14.667 -38.667 -29.498 -71.334 -44.498 -98.001s-31.833 -48.334 -50.5 -65.001s-39.834 -28.667 -63.501 -36s-51.167 -11 -82.5 -11c-20 0 -41.667 2.66699 -65 8l15 117c19.333 -6.66699 40.333 -10 63 -10c21.333 0 39.166 6.5 53.499 19.5
s28.166 37.5 41.499 73.5l14 38l-182 497h152l60 -172c7.33301 -21.333 14.5 -44.166 21.5 -68.499s13.167 -48.166 18.5 -71.499h1c2.66699 12 5.83398 24.833 9.50098 38.5s7.66699 27.5 12 41.5l13 41.5c4.33301 13.667 8.5 26.167 12.5 37.5l54 153h147zM221.002 647
c0 -20.667 -7 -38 -21 -52s-31.333 -21 -52 -21c-20 0 -37.167 7 -51.5 21s-21.5 31.333 -21.5 52c0 20 7.16699 37.167 21.5 51.5s31.5 21.5 51.5 21.5c20.667 0 38 -7.16699 52 -21.5s21 -31.5 21 -51.5zM430.002 647c0 -20.667 -7 -38 -21 -52s-31.333 -21 -52 -21
c-20 0 -37.167 7 -51.5 21s-21.5 31.333 -21.5 52c0 20 7.16699 37.167 21.5 51.5s31.5 21.5 51.5 21.5c20.667 0 38 -7.16699 52 -21.5s21 -31.5 21 -51.5z" />
    <glyph glyph-name="dotlessi" unicode="&#x131;" horiz-adv-x="268" 
d="M66 0v497h137v-497h-137z" />
    <glyph glyph-name="Lslash" unicode="&#x141;" horiz-adv-x="437" 
d="M76 0v257l-67 -21l-18 104l85 26v309h140v-271l98 30l18 -105l-116 -35v-170h213v-124h-353z" />
    <glyph glyph-name="lslash" unicode="&#x142;" horiz-adv-x="302" 
d="M219 300v-300h-137v263l-74 -22l-11 104l85 26v359h137v-322l75 23l9 -105z" />
    <glyph glyph-name="OE" unicode="&#x152;" horiz-adv-x="817" 
d="M398 553c-8 1.33301 -16.333 2.33301 -25 3s-17 1 -25 1c-24 0 -46.333 -5 -67 -15s-38.667 -24.167 -54 -42.5s-27.333 -40.833 -36 -67.5s-13 -57 -13 -91s3.33301 -64.833 10 -92.5s17 -51.167 31 -70.5s31.667 -34.333 53 -45s46.666 -16 75.999 -16
c18.667 0 35.334 1.66699 50.001 5v431zM490 0c-29.333 0 -55.666 -1.33105 -78.999 -3.99805s-49.333 -4 -78 -4c-51.333 0 -95.833 8.16699 -133.5 24.5s-68.834 39.166 -93.501 68.499s-43.167 64.833 -55.5 106.5s-18.5 87.834 -18.5 138.501
c0 54 8.33301 102.667 25 146s39.5 80.166 68.5 110.499s62.833 53.666 101.5 69.999s80 24.5 124 24.5c28.667 0 52.667 -1 72 -3s40 -3 62 -3h279v-118h-232v-153h220v-114h-220v-170h232v-120h-274z" />
    <glyph glyph-name="oe" unicode="&#x153;" horiz-adv-x="856" 
d="M378 251c0 48 -8.16797 83.8311 -24.501 107.498s-43.166 35.5 -80.499 35.5c-13.333 0 -26.333 -2.5 -39 -7.5s-24 -13.167 -34 -24.5s-18.167 -26.166 -24.5 -44.499s-9.5 -40.833 -9.5 -67.5c0 -46 7.83301 -81.833 23.5 -107.5s43.167 -38.5 82.5 -38.5
c31.333 0 56.833 12.333 76.5 37s29.5 61.334 29.5 110.001zM683.999 313.998c1.33301 30 -5.33301 53.167 -20 69.5s-34.667 24.5 -60 24.5s-46 -8.66699 -62 -26s-25.667 -40 -29 -68h171v0zM819 282.998c0 -9.33301 -0.334961 -19.1709 -1.00195 -29.5039
s-1.66699 -21.166 -3 -32.499h-303c0 -82.667 43.667 -124 131 -124c24.667 0 49.667 2.5 75 7.5s49.333 12.833 72 23.5l11 -106c-27.333 -10.667 -56.5 -18.667 -87.5 -24s-61.833 -8 -92.5 -8c-45.333 0 -83.166 6.5 -113.499 19.5s-55.166 31.5 -74.499 55.5
c-17.333 -21.333 -40.666 -39.166 -69.999 -53.499s-63 -21.5 -101 -21.5c-74.667 0 -131.834 20.833 -171.501 62.5s-59.5 105.5 -59.5 191.5c0 40 6.16699 76.167 18.5 108.5s29.666 60 51.999 83s49 40.667 80 53s64.833 18.5 101.5 18.5c34 0 65.5 -5.33301 94.5 -16
s52.833 -27.667 71.5 -51c18.667 21.333 41.167 38 67.5 50s56.833 18 91.5 18c36.667 0 68.334 -5.83301 95.001 -17.5s48.5 -27.667 65.5 -48s29.667 -44.166 38 -71.499s12.5 -56.666 12.5 -87.999z" />
    <glyph glyph-name="Scaron" unicode="&#x160;" horiz-adv-x="499" 
d="M465 212c0 -32 -6.16504 -61.6738 -18.498 -89.0068s-30.333 -51 -54 -71s-52.167 -35.5 -85.5 -46.5s-71 -16.5 -113 -16.5c-24 0 -48.333 1.33301 -73 4s-48.334 6.66699 -71.001 12l16 130c19.333 -7.33301 41.166 -13.166 65.499 -17.499s48.833 -6.5 73.5 -6.5
c32 0 58.333 6.5 79 19.5s31 33.5 31 61.5c0 20.667 -6.83301 37 -20.5 49s-30.834 22.5 -51.501 31.5s-43 17.833 -67 26.5s-46.333 20.167 -67 34.5s-37.834 33 -51.501 56s-20.5 53.167 -20.5 90.5c0 30.667 5.83301 58.667 17.5 84s28.834 47 51.501 65
s50.167 32 82.5 42s69.166 15 110.499 15c18.667 0 39.167 -1 61.5 -3s43.833 -5 64.5 -9l-16 -121c-37.333 11.333 -76 17 -116 17c-36 0 -62.667 -7.16699 -80 -21.5s-26 -32.5 -26 -54.5c0 -19.333 6.83301 -34.666 20.5 -45.999s30.834 -21.666 51.501 -30.999
s43 -18.666 67 -27.999s46.333 -21.166 67 -35.499s37.834 -32.666 51.501 -54.999s20.5 -51.166 20.5 -86.499zM260.002 716.993l-156 80l33 64l124 -57l122 57l31 -63z" />
    <glyph glyph-name="scaron" unicode="&#x161;" horiz-adv-x="415" 
d="M378 155c0 -25.333 -5.33594 -47.999 -16.0029 -67.999s-25.667 -37.333 -45 -52s-42.833 -25.834 -70.5 -33.501s-58.834 -11.5 -93.501 -11.5c-17.333 0 -36.333 1.16699 -57 3.5s-39 5.5 -55 9.5l15 111c15.333 -6 31.5 -10.667 48.5 -14s35.167 -5 54.5 -5
c22.667 0 40.5 4.33301 53.5 13s19.5 20.334 19.5 35.001c0 13.333 -4.83301 23.833 -14.5 31.5s-21.667 14.5 -36 20.5s-29.833 12 -46.5 18s-32.167 14.167 -46.5 24.5s-26.333 24.166 -36 41.499s-14.5 40 -14.5 68c0 22 4.5 42.833 13.5 62.5s22.5 36.667 40.5 51
s40.333 25.833 67 34.5s57.667 13 93 13c14.667 0 30.5 -0.833008 47.5 -2.5s32.833 -3.83398 47.5 -6.50098l-13 -108c-13.333 4 -27.166 7.16699 -41.499 9.5s-29.166 3.5 -44.499 3.5c-23.333 0 -40.333 -4.16699 -51 -12.5s-16 -19.5 -16 -33.5
c0 -12 4.83301 -21.667 14.5 -29s21.834 -14.166 36.501 -20.499s30.5 -12.833 47.5 -19.5s32.833 -15.5 47.5 -26.5s26.834 -25 36.501 -42s14.5 -38.833 14.5 -65.5zM215.997 562.001l-157 86l43 81l115 -62l113 62l39 -80z" />
    <glyph glyph-name="Ydieresis" unicode="&#x178;" horiz-adv-x="568" 
d="M352 238l0.000976562 -238.001h-140v237l-211 438h153l84 -185c9.33301 -20 17.666 -39.167 24.999 -57.5s14 -36.166 20 -53.499h2c7.33301 19.333 15.5 39.5 24.5 60.5l28.5 63.5l81 172h148zM233.001 783.999c0 -18.667 -6.66699 -34.334 -20 -47.001s-29 -19 -47 -19
c-18.667 0 -34.5 6.33301 -47.5 19s-19.5 28.334 -19.5 47.001s6.5 34.334 19.5 47.001s28.833 19 47.5 19c18 0 33.667 -6.33301 47 -19s20 -28.334 20 -47.001zM457.001 783.999c0 -18.667 -6.33301 -34.334 -19 -47.001s-28.334 -19 -47.001 -19
c-18 0 -33.667 6.33301 -47 19s-20 28.334 -20 47.001s6.66699 34.334 20 47.001s29 19 47 19c18.667 0 34.334 -6.33301 47.001 -19s19 -28.334 19 -47.001z" />
    <glyph glyph-name="Zcaron" unicode="&#x17d;" horiz-adv-x="537" 
d="M45 0l-0.00292969 109l232 383c6.66699 10.667 13.334 20.667 20.001 30l21 29c-11.333 -0.666992 -25.166 -1.16699 -41.499 -1.5s-41.166 -0.5 -74.499 -0.5h-150v126h437v-113l-246 -391l-14 -21.5l-15 -21.5c7.33301 1.33301 22 2 44 2h96h139v-130h-448z
M284.997 717l-156 80l33 64l124 -57l122 57l31 -63z" />
    <glyph glyph-name="zcaron" unicode="&#x17e;" horiz-adv-x="446" 
d="M43 0v98l191 278c-8.66699 -0.666992 -21.5 -1.16699 -38.5 -1.5s-37.167 -0.5 -60.5 -0.5h-84v123h350v-98l-187 -274c4.66699 0 11.167 0.166992 19.5 0.5s17.5 0.5 27.5 0.5h145v-126h-363zM228 562l-157 86l43 81l115 -62l113 62l39 -80z" />
    <glyph glyph-name="florin" unicode="&#x192;" 
d="M489 607c-22 6 -45.666 9.00195 -70.999 9.00195c-24 0 -43.167 -8 -57.5 -24s-23.166 -42.333 -26.499 -79l-7 -91h153v-101h-158l-16 -221c-3.33301 -48 -10.166 -88.167 -20.499 -120.5s-24.333 -58.333 -42 -78s-38.834 -33.5 -63.501 -41.5s-53 -12 -85 -12
c-11.333 0 -24 0.833008 -38 2.5s-26.667 3.83398 -38 6.50098l16 109c8 -2.66699 17.833 -4.83398 29.5 -6.50098s21.5 -2.5 29.5 -2.5c23.333 0 41.5 9.16699 54.5 27.5s21.167 48.166 24.5 89.499l18 247h-135v101h142l5 81c5.33301 78 25.666 134.333 60.999 169
s85.666 52 150.999 52c13.333 0 28.333 -0.833008 45 -2.5s31.667 -3.83398 45 -6.50098z" />
    <glyph glyph-name="circumflex" unicode="&#x2c6;" horiz-adv-x="424" 
d="M326 566l-115 62l-114 -62l-39 80l153 87l156 -86z" />
    <glyph glyph-name="caron" unicode="&#x2c7;" horiz-adv-x="424" 
d="M211 562l-157 86l43 81l115 -62l113 62l39 -80z" />
    <glyph glyph-name="breve" unicode="&#x2d8;" horiz-adv-x="366" 
d="M322 725c0 -21.333 -2.66602 -41.499 -7.99902 -60.499s-13.833 -35.667 -25.5 -50s-26.5 -25.833 -44.5 -34.5s-39.333 -13 -64 -13s-45.834 4.33301 -63.501 13s-32 20.334 -43 35.001s-19 31.5 -24 50.5s-7.5 38.833 -7.5 59.5h91c0 -16.667 4 -30.334 12 -41.001
s20 -16 36 -16c15.333 0 27.5 4.66699 36.5 14s13.5 23.666 13.5 42.999h91v0z" />
    <glyph glyph-name="dotaccent" unicode="&#x2d9;" horiz-adv-x="288" 
d="M227 655c0 -22.667 -8.16992 -41.834 -24.5029 -57.501s-36.166 -23.5 -59.499 -23.5c-22 0 -41.167 7.83301 -57.5 23.5s-24.5 34.834 -24.5 57.501c0 10.667 2.16699 20.834 6.5 30.501s10.333 18.167 18 25.5s16.334 13.166 26.001 17.499s20.167 6.5 31.5 6.5
c10.667 0 21.167 -2.16699 31.5 -6.5s19.333 -10 27 -17s13.834 -15.5 18.501 -25.5s7 -20.333 7 -31z" />
    <glyph glyph-name="ring" unicode="&#x2da;" horiz-adv-x="361" 
d="M232 652c0 14.667 -5 27 -15 37s-22 15 -36 15c-14.667 0 -27 -5 -37 -15s-15 -22.333 -15 -37c0 -14 5 -26.167 15 -36.5s22.333 -15.5 37 -15.5c14 0 26 5.16699 36 15.5s15 22.5 15 36.5zM311 652c0 -18 -3.33301 -34.501 -10 -49.501s-16 -28.167 -28 -39.5
s-25.833 -20.166 -41.5 -26.499s-32.5 -9.5 -50.5 -9.5s-35 3.16699 -51 9.5s-30 15 -42 26s-21.333 24.167 -28 39.5s-10 32 -10 50s3.5 34.667 10.5 50s16.333 28.5 28 39.5s25.5 19.667 41.5 26s33 9.5 51 9.5s34.833 -3.16699 50.5 -9.5s29.5 -15 41.5 -26
s21.333 -24.167 28 -39.5s10 -32 10 -50z" />
    <glyph glyph-name="ogonek" unicode="&#x2db;" horiz-adv-x="255" 
d="M229 -240c-13.333 -4.66699 -27.332 -7.83398 -41.999 -9.50098s-29.667 -2.5 -45 -2.5c-19.333 0 -36 2.66699 -50 8s-25.333 12.833 -34 22.5s-15 20.834 -19 33.501s-6 26 -6 40c0 24 5.33301 49 16 75s22.667 49 36 69h100
c-10.667 -19.333 -19.334 -39.5 -26.001 -60.5s-10 -40.833 -10 -59.5c0 -8 1.33301 -15 4 -21s7 -10.667 13 -14s14 -5 24 -5c10.667 0 23.667 1.66699 39 5v-81v0z" />
    <glyph glyph-name="tilde" unicode="&#x2dc;" horiz-adv-x="459" 
d="M414 614c-11.333 -10 -26.834 -19.667 -46.501 -29s-39.167 -14 -58.5 -14s-35.5 2.5 -48.5 7.5s-24.667 10.667 -35 17s-21 12 -32 17s-24.167 7.5 -39.5 7.5c-12.667 0 -25 -3.16699 -37 -9.5s-22.667 -13.833 -32 -22.5l-25 91c14 13.333 29.833 24 47.5 32
s36.5 12 56.5 12c18 0 33.333 -2.66699 46 -8s24.334 -11 35.001 -17s21.5 -11.667 32.5 -17s24.167 -8 39.5 -8c14 0 27.333 3.16699 40 9.5s23 13.833 31 22.5l26 -91v0z" />
    <glyph glyph-name="hungarumlaut" unicode="&#x2dd;" horiz-adv-x="507" 
d="M114 559l-70 60l141 160l83 -72zM312 555l-58 71l170 136l69 -86z" />
    <glyph glyph-name="Delta" unicode="&#x394;" horiz-adv-x="758" 
d="M373 520l-156 -394h312zM24 0l287 700h136l287 -700h-710z" />
    <glyph glyph-name="Delta" unicode="&#x2206;" horiz-adv-x="758" 
d="M373 520l-156 -394h312zM24 0l287 700h136l287 -700h-710z" />
    <glyph glyph-name="Omega" unicode="&#x3a9;" horiz-adv-x="749" 
d="M425 0l-0.000976562 96.999c38 23.333 67.667 56.5 89 99.5s32 94.5 32 154.5c0 32 -3.83301 61.667 -11.5 89s-18.667 51 -33 71s-32.166 35.667 -53.499 47s-45.666 17 -72.999 17c-26.667 0 -51 -5.5 -73 -16.5s-40.667 -26.167 -56 -45.5s-27.333 -42.5 -36 -69.5
s-13 -56.833 -13 -89.5c0 -62 9.83301 -113.167 29.5 -153.5s51.167 -74.5 94.5 -102.5v-98h-264v103h124c-38 26.667 -67.333 61.334 -88 104.001s-31 91.334 -31 146.001c0 47.333 7.5 91.333 22.5 132s36.5 76 64.5 106s61.833 53.5 101.5 70.5s83.834 25.5 132.501 25.5
c44 0 84.333 -7 121 -21s68.5 -34.833 95.5 -62.5s48 -61.5 63 -101.5s22.5 -86 22.5 -138c0 -27.333 -3 -54 -9 -80s-14.333 -50.167 -25 -72.5s-23.834 -42.833 -39.501 -61.5s-32.834 -34.334 -51.501 -47.001h128v-103h-263z" />
    <glyph glyph-name="Omega" unicode="&#x2126;" horiz-adv-x="749" 
d="M425 0l-0.000976562 96.999c38 23.333 67.667 56.5 89 99.5s32 94.5 32 154.5c0 32 -3.83301 61.667 -11.5 89s-18.667 51 -33 71s-32.166 35.667 -53.499 47s-45.666 17 -72.999 17c-26.667 0 -51 -5.5 -73 -16.5s-40.667 -26.167 -56 -45.5s-27.333 -42.5 -36 -69.5
s-13 -56.833 -13 -89.5c0 -62 9.83301 -113.167 29.5 -153.5s51.167 -74.5 94.5 -102.5v-98h-264v103h124c-38 26.667 -67.333 61.334 -88 104.001s-31 91.334 -31 146.001c0 47.333 7.5 91.333 22.5 132s36.5 76 64.5 106s61.833 53.5 101.5 70.5s83.834 25.5 132.501 25.5
c44 0 84.333 -7 121 -21s68.5 -34.833 95.5 -62.5s48 -61.5 63 -101.5s22.5 -86 22.5 -138c0 -27.333 -3 -54 -9 -80s-14.333 -50.167 -25 -72.5s-23.834 -42.833 -39.501 -61.5s-32.834 -34.334 -51.501 -47.001h128v-103h-263z" />
    <glyph glyph-name="pi" unicode="&#x3c0;" horiz-adv-x="668" 
d="M626 0c-15.333 -3.33301 -32.332 -6.00098 -50.999 -8.00098s-38.334 -3 -59.001 -3c-44.667 0 -76 10.833 -94 32.5s-27 54.5 -27 98.5v265h-133v-385h-128v385h-95v112h578v-112h-94v-191c0 -23.333 0.666992 -42 2 -56s3.83301 -24.667 7.5 -32
s8.66699 -12.166 15 -14.499s14.166 -3.5 23.499 -3.5s17.833 0.666992 25.5 2s14.834 3 21.501 5l8 -95v0z" />
    <glyph glyph-name="endash" unicode="&#x2013;" 
d="M50 229v120h450v-120h-450z" />
    <glyph glyph-name="emdash" unicode="&#x2014;" horiz-adv-x="1000" 
d="M0 229v120h1000v-120h-1000z" />
    <glyph glyph-name="quoteleft" unicode="&#x2018;" horiz-adv-x="273" 
d="M237 707c-17.333 -18.667 -30.666 -35.3301 -39.999 -49.9971s-15.5 -28.334 -18.5 -41.001s-2.83301 -24.167 0.5 -34.5s9.33301 -20.5 18 -30.5c10 -12 15.833 -25.5 17.5 -40.5s-0.333008 -29.167 -6 -42.5s-14.834 -24.5 -27.501 -33.5s-28.334 -13.5 -47.001 -13.5
c-25.333 0 -46.166 9.66699 -62.499 29s-24.5 44.666 -24.5 75.999s10.167 67.166 30.5 107.499s54.833 81.5 103.5 123.5l56 -50v0z" />
    <glyph glyph-name="quoteright" unicode="&#x2019;" horiz-adv-x="273" 
d="M138 748c24.667 0 45.332 -9.67188 61.999 -29.0049s25 -44.666 25 -75.999s-10.167 -67.166 -30.5 -107.499s-54.833 -81.5 -103.5 -123.5l-56 50c17.333 18.667 30.666 35.334 39.999 50.001s15.5 28.334 18.5 41.001s2.83301 24.334 -0.5 35.001s-9.33301 21 -18 31
c-10 11.333 -15.833 24.5 -17.5 39.5s0.333008 29.167 6 42.5s14.834 24.5 27.501 33.5s28.334 13.5 47.001 13.5z" />
    <glyph glyph-name="quotesinglbase" unicode="&#x201a;" horiz-adv-x="273" 
d="M138 158c24.667 0 45.332 -9.66895 61.999 -29.002s25 -44.666 25 -75.999s-10.167 -67.166 -30.5 -107.499s-54.833 -81.5 -103.5 -123.5l-56 50c34.667 37.333 54.167 67.833 58.5 91.5s-1.83398 45.167 -18.501 64.5c-10 12 -15.833 25.5 -17.5 40.5
s0.333008 29.167 6 42.5s14.834 24.5 27.501 33.5s28.334 13.5 47.001 13.5z" />
    <glyph glyph-name="quotedblleft" unicode="&#x201c;" horiz-adv-x="499" 
d="M237 707c-17.333 -18.667 -30.666 -35.3301 -39.999 -49.9971s-15.5 -28.334 -18.5 -41.001s-2.83301 -24.167 0.5 -34.5s9.33301 -20.5 18 -30.5c10 -12 15.833 -25.5 17.5 -40.5s-0.333008 -29.167 -6 -42.5s-14.834 -24.5 -27.501 -33.5s-28.334 -13.5 -47.001 -13.5
c-25.333 0 -46.166 9.66699 -62.499 29s-24.5 44.666 -24.5 75.999s10.167 67.166 30.5 107.499s54.833 81.5 103.5 123.5l56 -50v0zM464 707.004c-17.333 -18.667 -30.666 -35.3301 -39.999 -49.9971s-15.5 -28.334 -18.5 -41.001s-2.83301 -24.167 0.5 -34.5
s9 -20.5 17 -30.5c10 -12 15.833 -25.5 17.5 -40.5s-0.333008 -29.167 -6 -42.5s-14.834 -24.5 -27.501 -33.5s-28.334 -13.5 -47.001 -13.5c-25.333 0 -46.166 9.66699 -62.499 29s-24.5 44.666 -24.5 75.999s10.167 67.166 30.5 107.499s54.833 81.5 103.5 123.5l57 -50v0
z" />
    <glyph glyph-name="quotedblright" unicode="&#x201d;" horiz-adv-x="499" 
d="M138 748c24.667 0 45.332 -9.67188 61.999 -29.0049s25 -44.666 25 -75.999s-10.167 -67.166 -30.5 -107.499s-54.833 -81.5 -103.5 -123.5l-56 50c17.333 18.667 30.666 35.334 39.999 50.001s15.5 28.334 18.5 41.001s2.83301 24.334 -0.5 35.001s-9.33301 21 -18 31
c-10 11.333 -15.833 24.5 -17.5 39.5s0.333008 29.167 6 42.5s14.834 24.5 27.501 33.5s28.334 13.5 47.001 13.5zM363.998 747.995c25.333 0 46.1641 -9.66895 62.4971 -29.002s24.5 -44.666 24.5 -75.999s-10.167 -67.166 -30.5 -107.499s-54.833 -81.5 -103.5 -123.5
l-57 50c34.667 36.667 54.334 67 59.001 91s-1.33301 46 -18 66c-10 11.333 -15.833 24.5 -17.5 39.5s0.333008 29.167 6 42.5s14.834 24.5 27.501 33.5s28.334 13.5 47.001 13.5z" />
    <glyph glyph-name="quotedblbase" unicode="&#x201e;" horiz-adv-x="499" 
d="M138 158c24.667 0 45.332 -9.66895 61.999 -29.002s25 -44.666 25 -75.999s-10.167 -67.166 -30.5 -107.499s-54.833 -81.5 -103.5 -123.5l-56 50c34.667 37.333 54.167 67.833 58.5 91.5s-1.83398 45.167 -18.501 64.5c-10 12 -15.833 25.5 -17.5 40.5
s0.333008 29.167 6 42.5s14.834 24.5 27.501 33.5s28.334 13.5 47.001 13.5zM363.998 157.998c25.333 0 46.1641 -9.66895 62.4971 -29.002s24.5 -44.666 24.5 -75.999s-10.167 -67.166 -30.5 -107.499s-54.833 -81.5 -103.5 -123.5l-57 50
c34.667 37.333 54.334 67.833 59.001 91.5s-1.33301 45.167 -18 64.5c-10 12 -15.833 25.5 -17.5 40.5s0.333008 29.167 6 42.5s14.834 24.5 27.501 33.5s28.334 13.5 47.001 13.5z" />
    <glyph glyph-name="dagger" unicode="&#x2020;" horiz-adv-x="479" 
d="M295 446l26 -131l-28 -321h-106l-28 321l26 131h-148v106h148l-26 178h162l-26 -178h148v-106h-148z" />
    <glyph glyph-name="daggerdbl" unicode="&#x2021;" horiz-adv-x="479" 
d="M297 459l24 -91l-24 -91h145v-107h-145l25 -170h-164l25 170h-146v107h146l-24 91l24 91h-146v106h146l-24 165h162l-24 -165h146v-106h-146z" />
    <glyph glyph-name="bullet" unicode="&#x2022;" 
d="M404 296c0 -21.333 -4.16699 -41.5 -12.5 -60.5s-19.5 -35.5 -33.5 -49.5s-30.5 -25.167 -49.5 -33.5s-39.167 -12.5 -60.5 -12.5s-41.5 4.16699 -60.5 12.5s-35.5 19.5 -49.5 33.5s-25 30.5 -33 49.5s-12 39.167 -12 60.5s4 41.333 12 60s19 35 33 49
s30.5 25.167 49.5 33.5s39.167 12.5 60.5 12.5s41.5 -4.16699 60.5 -12.5s35.5 -19.5 49.5 -33.5s25.167 -30.333 33.5 -49s12.5 -38.667 12.5 -60z" />
    <glyph glyph-name="ellipsis" unicode="&#x2026;" horiz-adv-x="739" 
d="M212 71c0 -22.667 -8.16699 -42 -24.5 -58s-35.833 -24 -58.5 -24c-23.333 0 -43 8 -59 24s-24 35.333 -24 58c0 23.333 8 43 24 59s35.667 24 59 24c22.667 0 42.167 -8 58.5 -24s24.5 -35.667 24.5 -59zM450 71c0 -22.667 -8 -42 -24 -58s-35.667 -24 -59 -24
c-22.667 0 -42.167 8 -58.5 24s-24.5 35.333 -24.5 58c0 23.333 8.16699 43 24.5 59s35.833 24 58.5 24c23.333 0 43 -8 59 -24s24 -35.667 24 -59zM688 71c0 -22.667 -8 -42 -24 -58s-35.667 -24 -59 -24s-43 8 -59 24s-24 35.333 -24 58c0 23.333 8 43 24 59
s35.667 24 59 24s43 -8 59 -24s24 -35.667 24 -59z" />
    <glyph glyph-name="perthousand" unicode="&#x2030;" horiz-adv-x="1116" 
d="M187 -27l-100 71l486 658l99 -71zM242 526c0 30 -3.66797 50.5 -11.001 61.5s-19.666 16.5 -36.999 16.5c-14 0 -25.5 -6.83301 -34.5 -20.5s-13.5 -33.167 -13.5 -58.5c0 -29.333 3.83301 -49.833 11.5 -61.5s19.167 -17.5 34.5 -17.5s27.5 6.83301 36.5 20.5
s13.5 33.5 13.5 59.5zM352.999 533c0 -28 -4.5 -53.168 -13.5 -75.501s-21 -41.5 -36 -57.5s-32.5 -28.167 -52.5 -36.5s-41 -12.5 -63 -12.5c-47.333 0 -84.833 14.333 -112.5 43s-41.5 70.667 -41.5 126c0 28 4.5 53 13.5 75s21 40.667 36 56s32.333 27 52 35
s40.167 12 61.5 12c22 0 42.5 -3.16699 61.5 -9.5s35.5 -16.166 49.5 -29.499s25 -30.333 33 -51s12 -45.667 12 -75zM614.999 151.999c0 29.333 -3.66797 49.498 -11.001 60.498s-19.666 16.5 -36.999 16.5c-14 0 -25.5 -6.66699 -34.5 -20s-13.5 -32.666 -13.5 -57.999
c0 -29.333 3.83301 -50 11.5 -62s19.167 -18 34.5 -18s27.5 6.83301 36.5 20.5s13.5 33.834 13.5 60.501zM964.998 151.997c0 29.333 -3.83301 49.498 -11.5 60.498s-19.5 16.5 -35.5 16.5c-15.333 0 -27.333 -6.66699 -36 -20s-13 -32.666 -13 -57.999
c0 -29.333 4 -50 12 -62s19.667 -18 35 -18s27.333 6.83301 36 20.5s13 33.834 13 60.501zM725.998 157.995c0 -28 -4.5 -53.166 -13.5 -75.499s-21 -41.333 -36 -57s-32.5 -27.667 -52.5 -36s-41 -12.5 -63 -12.5c-48 0 -85.5 14.167 -112.5 42.5
s-40.5 70.166 -40.5 125.499c0 28 4.33301 53 13 75s20.5 40.667 35.5 56s32.167 27.166 51.5 35.499s40 12.5 62 12.5s42.5 -3.16699 61.5 -9.5s35.5 -16.166 49.5 -29.499s25 -30.5 33 -51.5s12 -46.167 12 -75.5zM1075 157.996c0 -28 -4.33398 -53.166 -13.001 -75.499
s-20.5 -41.333 -35.5 -57s-32.5 -27.667 -52.5 -36s-41 -12.5 -63 -12.5c-47.333 0 -84.666 14.167 -111.999 42.5s-41 70.166 -41 125.499c0 28 4.33301 53 13 75s20.5 40.667 35.5 56s32.167 27.166 51.5 35.499s40 12.5 62 12.5s42.5 -3.16699 61.5 -9.5
s35.333 -16.166 49 -29.499s24.5 -30.5 32.5 -51.5s12 -46.167 12 -75.5z" />
    <glyph glyph-name="guilsinglleft" unicode="&#x2039;" horiz-adv-x="312" 
d="M149 52l-112 198l115 202l106 -51l-89 -150l90 -149z" />
    <glyph glyph-name="guilsinglright" unicode="&#x203a;" horiz-adv-x="312" 
d="M160 52l-106 49l89 151l-90 148l110 52l112 -199z" />
    <glyph glyph-name="fraction" unicode="&#x2044;" horiz-adv-x="440" 
d="M90 -130l-115 51l420 843l114 -51z" />
    <glyph glyph-name="fraction" unicode="&#x2215;" horiz-adv-x="440" 
d="M90 -130l-115 51l420 843l114 -51z" />
    <glyph glyph-name="uni20AC" unicode="&#x20a0;" 
d="M74 293v21.999c0 22.667 1 44.667 3 66h-55v97h74c19.333 62 52 111.167 98 147.5s106 54.5 180 54.5c23.333 0 45.666 -2 66.999 -6s43.333 -9.66699 66 -17l-29 -110c-20.667 7.33301 -38.5 12.833 -53.5 16.5s-33.833 5.5 -56.5 5.5c-30 0 -55.5 -8.16699 -76.5 -24.5
s-38.167 -38.5 -51.5 -66.5h176v-97h-201c-0.666992 -7.33301 -1.16699 -14.5 -1.5 -21.5s-0.5 -14.167 -0.5 -21.5c0 -8 0.166992 -15.667 0.5 -23s0.833008 -14.666 1.5 -21.999h201v-97h-178c12.667 -29.333 30 -52 52 -68s49 -24 81 -24c22 0 40.833 2.33301 56.5 7
s31.834 11 48.501 19l28 -108c-25.333 -9.33301 -50 -16.833 -74 -22.5s-51.667 -8.5 -83 -8.5c-39.333 0 -73.833 5.16699 -103.5 15.5s-55 24.5 -76 42.5s-38.167 39.5 -51.5 64.5s-23.333 52.5 -30 82.5h-64v97h52z" />
    <glyph glyph-name="uni20AC" unicode="&#x20ac;" 
d="M74 293v21.999c0 22.667 1 44.667 3 66h-55v97h74c19.333 62 52 111.167 98 147.5s106 54.5 180 54.5c23.333 0 45.666 -2 66.999 -6s43.333 -9.66699 66 -17l-29 -110c-20.667 7.33301 -38.5 12.833 -53.5 16.5s-33.833 5.5 -56.5 5.5c-30 0 -55.5 -8.16699 -76.5 -24.5
s-38.167 -38.5 -51.5 -66.5h176v-97h-201c-0.666992 -7.33301 -1.16699 -14.5 -1.5 -21.5s-0.5 -14.167 -0.5 -21.5c0 -8 0.166992 -15.667 0.5 -23s0.833008 -14.666 1.5 -21.999h201v-97h-178c12.667 -29.333 30 -52 52 -68s49 -24 81 -24c22 0 40.833 2.33301 56.5 7
s31.834 11 48.501 19l28 -108c-25.333 -9.33301 -50 -16.833 -74 -22.5s-51.667 -8.5 -83 -8.5c-39.333 0 -73.833 5.16699 -103.5 15.5s-55 24.5 -76 42.5s-38.167 39.5 -51.5 64.5s-23.333 52.5 -30 82.5h-64v97h52z" />
    <glyph glyph-name="trademark" unicode="&#x2122;" horiz-adv-x="687" 
d="M188 592v-198h-97v198h-66v83h226v-83h-63zM554 394l-17 114l-5 46l-8 -43l-30 -117h-89l-29 120l-8 40l-2 -36l-17 -124h-92l45 281h115l31 -115l8 -39l6 37l31 117h115l48 -281h-102z" />
    <glyph glyph-name="partialdiff" unicode="&#x2202;" horiz-adv-x="633" 
d="M407 238c0 28.667 -8.33203 52.167 -24.999 70.5s-42.667 27.5 -78 27.5c-32.667 0 -59.167 -11.167 -79.5 -33.5s-30.5 -50.833 -30.5 -85.5c0 -34 8.66699 -60 26 -78s41 -27 71 -27c16 0 31.167 3.16699 45.5 9.5s26.666 15 36.999 26s18.5 24.167 24.5 39.5
s9 32.333 9 51zM574.001 397c0 -63.333 -8.1709 -122.665 -24.5039 -177.998s-43.166 -103 -80.499 -143c-24.667 -25.333 -54.167 -45.5 -88.5 -60.5s-70.833 -22.5 -109.5 -22.5c-34.667 0 -65.334 5.16699 -92.001 15.5s-49 24.666 -67 42.999s-31.5 40.5 -40.5 66.5
s-13.5 55 -13.5 87c0 35.333 6 68.166 18 98.499s28.833 56.5 50.5 78.5s48 39.333 79 52s65.5 19 103.5 19c27.333 0 51.5 -5.16699 72.5 -15.5s37.833 -24.166 50.5 -41.499c-1.33301 14 -2.66602 25.833 -3.99902 35.5s-2.66602 18.5 -3.99902 26.5
c-9.33301 54 -32 95 -68 123s-79.667 42 -131 42l20 115c49.333 -0.666992 94.333 -9 135 -25s75.334 -38.833 104.001 -68.5s50.834 -65.334 66.501 -107.001s23.5 -88.5 23.5 -140.5z" />
    <glyph glyph-name="product" unicode="&#x220f;" horiz-adv-x="784" 
d="M650 614v-865h-129v865h-257v-865h-129v865h-95v116h703v-116h-93z" />
    <glyph glyph-name="summation" unicode="&#x2211;" horiz-adv-x="607" 
d="M43 -251v107l279 393l-268 373v108h490v-116h-322l258 -361l-278 -384h357v-120h-516z" />
    <glyph glyph-name="minus" unicode="&#x2212;" 
d="M86 217v114h371v-114h-371z" />
    <glyph glyph-name="periodcentered" unicode="&#x2219;" horiz-adv-x="278" 
d="M227 287c0 -24.667 -8.66895 -45.5 -26.002 -62.5s-38 -25.5 -62 -25.5s-44.5 8.5 -61.5 25.5s-25.5 37.833 -25.5 62.5c0 12 2.33301 23.167 7 33.5s10.834 19.5 18.501 27.5s16.834 14.333 27.501 19s22 7 34 7s23.333 -2.33301 34 -7s20 -11 28 -19
s14.333 -17.167 19 -27.5s7 -21.5 7 -33.5z" />
    <glyph glyph-name="radical" unicode="&#x221a;" 
d="M371 0h-175l-112 398h-78v99h186l63 -240c10 -40.667 19.333 -84 28 -130l11 53l112 578h142z" />
    <glyph glyph-name="infinity" unicode="&#x221e;" horiz-adv-x="987" 
d="M386 270c-30.667 23.333 -57.167 41.001 -79.5 53.001s-42.5 18 -60.5 18c-24.667 0 -43.167 -6.83301 -55.5 -20.5s-18.5 -29.834 -18.5 -48.501c0 -19.333 6.5 -35.5 19.5 -48.5s31.167 -19.5 54.5 -19.5c19.333 0 40.5 6 63.5 18s48.5 28 76.5 48zM815 274.001
c0 19.333 -6.49902 35.333 -19.499 48s-31.167 19 -54.5 19c-20 0 -41.667 -6.16699 -65 -18.5s-49 -28.5 -77 -48.5c31.333 -23.333 58.166 -40.833 80.499 -52.5s42.833 -17.5 61.5 -17.5c24.667 0 43.167 6.83301 55.5 20.5s18.5 30.167 18.5 49.5zM946.001 278.001
c0 -26 -4.5 -50.833 -13.5 -74.5s-22.5 -44.334 -40.5 -62.001s-40.167 -31.667 -66.5 -42s-56.833 -15.5 -91.5 -15.5c-36.667 0 -75 9 -115 27s-83.333 44.333 -130 79c-18 -13.333 -36.833 -26.333 -56.5 -39s-40 -24 -61 -34s-42.667 -18 -65 -24s-45.166 -9 -68.499 -9
c-33.333 0 -62.333 4.83301 -87 14.5s-45.167 22.834 -61.5 39.501s-28.666 36.167 -36.999 58.5s-12.5 45.833 -12.5 70.5c0 28 5 54 15 78s24.167 44.5 42.5 61.5s40.166 30.333 65.499 40s53.333 14.5 84 14.5c40 0 80.167 -9.33301 120.5 -28
s83.166 -45.334 128.499 -80.001c17.333 12.667 35.833 25.5 55.5 38.5s40 24.667 61 35s42.667 18.666 65 24.999s44.833 9.5 67.5 9.5c32 0 60.333 -4.66699 85 -14s45.667 -22.166 63 -38.499s30.5 -35.666 39.5 -57.999s13.5 -46.5 13.5 -72.5z" />
    <glyph glyph-name="integral" unicode="&#x222b;" horiz-adv-x="346" 
d="M317 613c-12 4 -25.999 6.00098 -41.999 6.00098c-9.33301 0 -17.333 -1.66699 -24 -5s-12.167 -9.5 -16.5 -18.5s-7.5 -21.5 -9.5 -37.5s-3 -36.333 -3 -61c0 -40 0.666992 -78.833 2 -116.5s2.83301 -76 4.5 -115s3.16699 -79.333 4.5 -121s2 -82.834 2 -123.501
c0 -96 -13.667 -165 -41 -207s-69.333 -63 -126 -63c-9.33301 0 -18.833 0.666992 -28.5 2s-18.5 3 -26.5 5v118l19.5 -4c6.33301 -1.33301 12.833 -2 19.5 -2c10 0 18.667 1.66699 26 5s13.166 9.5 17.499 18.5s7.5 21.5 9.5 37.5s3 36.667 3 62
c0 38.667 -0.666992 74.667 -2 108l-4.5 108c-1.66699 38.667 -3.16699 79 -4.5 121s-2 87.667 -2 137c0 48.667 3.83301 90.167 11.5 124.5s18.834 62.333 33.501 84s32.667 37.5 54 47.5s45.666 15 72.999 15c8 0 16.5 -0.5 25.5 -1.5s17.167 -2.5 24.5 -4.5v-119v0z" />
    <glyph glyph-name="approxequal" unicode="&#x2248;" 
d="M496 127c-17.333 -17.333 -38.1709 -31.833 -62.5039 -43.5s-48.833 -17.5 -73.5 -17.5c-20.667 0 -38.5 3 -53.5 9s-29 12.667 -42 20s-25.667 14 -38 20s-26.166 9 -41.499 9c-16.667 0 -32.167 -4 -46.5 -12s-28.166 -18 -41.499 -30l-47 86
c15.333 16 34.5 30.833 57.5 44.5s47.833 20.5 74.5 20.5c20.667 0 38.334 -3 53.001 -9s28.5 -12.833 41.5 -20.5s26.333 -14.5 40 -20.5s29.5 -9 47.5 -9c30.667 0 59.334 13.333 86.001 40l46 -87v0zM494.995 330c-17.333 -18 -36.999 -33.501 -58.999 -46.501
s-47 -19.5 -75 -19.5c-19.333 0 -36 3 -50 9s-27.5 12.667 -40.5 20s-26.167 14 -39.5 20s-28.666 9 -45.999 9c-16.667 0 -32.5 -4 -47.5 -12s-29.167 -17.667 -42.5 -29l-45 86c17.333 17.333 38 32.5 62 45.5s49.333 19.5 76 19.5c20 0 37.833 -3.16699 53.5 -9.5
s30.167 -13.166 43.5 -20.499l38.5 -20.5c12.333 -6.33301 25.166 -9.5 38.499 -9.5c15.333 0 30.166 4 44.499 12s27.833 18.667 40.5 32l48 -86v0z" />
    <glyph glyph-name="notequal" unicode="&#x2260;" 
d="M279 104l-44 -120h-116l44 120h-114v105h152l32 87h-184v106h222l43 119h117l-44 -119h114v-106h-152l-32 -87h184v-105h-222z" />
    <glyph glyph-name="lessequal" unicode="&#x2264;" 
d="M74 -80v109h402v-109h-402zM371 66l-302 257l301 258l84 -88l-213 -169l213 -167z" />
    <glyph glyph-name="greaterequal" unicode="&#x2265;" 
d="M74 -80v109h402v-109h-402zM180 66l-85 88l214 169l-214 167l84 91l302 -257z" />
    <glyph glyph-name="lozenge" unicode="&#x25ca;" horiz-adv-x="628" 
d="M309 534l-138 -192l147 -203l140 192zM359 -9h-86l-254 348l252 345h85l253 -348z" />
    <glyph glyph-name="Circumflex" unicode="&#xe001;" horiz-adv-x="272" 
d="M257 717l-124 57l-125 -57l-30 63l157 81l157 -79z" />
    <glyph glyph-name="Tilde" unicode="&#xe002;" horiz-adv-x="272" 
d="M322 779c-13.333 -15.333 -29.166 -28.335 -47.499 -39.002s-41.5 -16 -69.5 -16c-16 0 -29.667 1.83301 -41 5.5s-22 7.83398 -32 12.501s-19.833 8.83398 -29.5 12.501s-20.834 5.5 -33.501 5.5c-17.333 0 -32.166 -3.83301 -44.499 -11.5s-22.833 -16.167 -31.5 -25.5
l-43 68c13.333 17.333 29.833 32 49.5 44s44.5 18 74.5 18c14.667 0 27.5 -2 38.5 -6s21.5 -8.16699 31.5 -12.5l30 -12.5c10 -4 21.333 -6 34 -6c16.667 0 31.167 3.5 43.5 10.5s22.166 14.833 29.499 23.5l41 -71v0z" />
    <glyph glyph-name="Euro" unicode="&#xe00d;" 
d="M74 293v21.999c0 22.667 1 44.667 3 66h-55v97h74c19.333 62 52 111.167 98 147.5s106 54.5 180 54.5c23.333 0 45.666 -2 66.999 -6s43.333 -9.66699 66 -17l-29 -110c-20.667 7.33301 -38.5 12.833 -53.5 16.5s-33.833 5.5 -56.5 5.5c-30 0 -55.5 -8.16699 -76.5 -24.5
s-38.167 -38.5 -51.5 -66.5h176v-97h-201c-0.666992 -7.33301 -1.16699 -14.5 -1.5 -21.5s-0.5 -14.167 -0.5 -21.5c0 -8 0.166992 -15.667 0.5 -23s0.833008 -14.666 1.5 -21.999h201v-97h-178c12.667 -29.333 30 -52 52 -68s49 -24 81 -24c22 0 40.833 2.33301 56.5 7
s31.834 11 48.501 19l28 -108c-25.333 -9.33301 -50 -16.833 -74 -22.5s-51.667 -8.5 -83 -8.5c-39.333 0 -73.833 5.16699 -103.5 15.5s-55 24.5 -76 42.5s-38.167 39.5 -51.5 64.5s-23.333 52.5 -30 82.5h-64v97h52z" />
    <glyph glyph-name="apple" unicode="&#xf000;" horiz-adv-x="1068" 
d="M649 -32l-243 -61l23 -57h209l12 27l-4 8l-72 -17l-16 44l103 27zM648 56l-243 -60l13 -31l242 61zM659 135h-252v-48l15 -34l237 62v20zM573 336c-7.33301 1.33301 -14.167 2.16602 -20.5 2.49902s-12.5 0.5 -18.5 0.5s-12.167 -0.166992 -18.5 -0.5
s-13.5 -1.16602 -21.5 -2.49902l15 -141h50zM729.999 344c0 26.667 -5.16699 51.999 -15.5 75.999s-24.333 44.833 -42 62.5s-38.5 31.667 -62.5 42s-49.333 15.5 -76 15.5c-27.333 0 -52.833 -5.16699 -76.5 -15.5s-44.5 -24.333 -62.5 -42s-32.167 -38.5 -42.5 -62.5
s-15.5 -49.333 -15.5 -76c0 -29.333 6.16699 -57 18.5 -83s28.833 -48 49.5 -66h50l-15 132c-10 -2 -18 -4.16699 -24 -6.5s-11.667 -4.16602 -17 -5.49902c-4.66699 -2 -8.66699 0.166992 -12 6.5s-5.33301 13.833 -6 22.5s-0.166992 16.834 1.5 24.501
s4.5 12.167 8.5 13.5c21.333 6.66699 44.333 12.167 69 16.5s49.334 6.5 74.001 6.5c26 0 51.167 -2.16699 75.5 -6.5s47.166 -9.83301 68.499 -16.5c4 -1.33301 6.83301 -5.83301 8.5 -13.5s2.16699 -15.834 1.5 -24.501s-2.5 -16.167 -5.5 -22.5s-7.5 -8.5 -13.5 -6.5
c-5.33301 2 -11.333 4 -18 6s-14.667 4 -24 6l-15 -132h50c18.667 16.667 34.667 37.667 48 63s20 54 20 86zM805.999 343.999c0 -36 -6.33105 -69.499 -18.998 -100.499s-29.334 -57.833 -50.001 -80.5v-84l-18 -5l34 -78l-32 -10l32 -77l-34 -9l10 -24l-32 -77h-61
c-3.33301 -14 -14.5 -25.833 -33.5 -35.5s-41.833 -14.5 -68.5 -14.5c-28 0 -51.5 4.83301 -70.5 14.5s-29.5 21.5 -31.5 35.5h-61l-58 140l33 8l-34 80l37 9l-19 47v81c-20.667 24 -37.167 51.167 -49.5 81.5s-18.5 63.166 -18.5 98.499c0 37.333 7.16699 72.333 21.5 105
s33.666 61.5 57.999 86.5s53 44.5 86 58.5s68.5 21 106.5 21c37.333 0 72.5 -7 105.5 -21s61.833 -33.5 86.5 -58.5s44.167 -53.833 58.5 -86.5s21.5 -67.667 21.5 -105zM906.001 311c1.33301 9.33301 2 20.001 2 32.001s-0.666992 23.333 -2 34l159 15
c3.33301 -32.667 3.33301 -65.334 0 -98.001zM817.001 582.001c-6 7.33301 -13.332 15.333 -21.999 24s-16.334 15.667 -23.001 21l99 123c25.333 -19.333 48.333 -42.333 69 -69zM568.002 706.001c-11.333 1.33301 -22.667 1.99902 -34 1.99902s-22 -0.666992 -32 -2
l-17 160c16 2 32.333 2.83301 49 2.5s33 -1.16602 49 -2.49902zM298.001 626c-7.33301 -6.66699 -15.167 -14.168 -23.5 -22.501s-15.833 -16.166 -22.5 -23.499l-125 102c21.333 26.667 44 49.667 68 69zM4 293.999c-5.33301 32 -5.33301 65 0 99l161 -16
c-2.66699 -22 -2.66699 -44.333 0 -67zM541 369.999l-0.999023 0.000976562v1c-0.666992 -1.33301 -1.33398 -2 -2.00098 -2s-1 0.666992 -1 2s1 2 3 2c0 1.33301 -1 1.66602 -3 0.999023v1c2.66699 1.33301 4 1 4 -1v-4zM525.001 375l1 0.000976562v-4
c0 -1.33301 -0.666992 -2 -2 -2s-2 0.666992 -2 2v4h1v-4l0.5 -1c0.333008 -0.666992 0.833008 -0.333984 1.5 0.999023v4zM547.001 372.001c0 -1.33301 -1.33301 -2 -4 -2v1c2 0 3 0.333008 3 1c-2 0 -3 0.666992 -3 2s1.33301 2 4 2v-1c-2 0 -3 -0.333008 -3 -1
c2 0 3 -0.666992 3 -2zM531.001 371.001v-0.999023c-2 -2 -3 -1.33301 -3 2c0 4 1 5 3 3v-1c-1.33301 1.33301 -2 0.666016 -2 -2.00098c0 -2 0.666992 -2.33301 2 -1zM550.001 368.002h-1c1.33301 2.66699 1.33301 6 0 10h1c1.33301 -4 1.33301 -7.33301 0 -10z
M535.001 368.002h-1c-1.33301 4 -1.33301 7.33301 0 10h1c-1.33301 -2.66699 -1.33301 -6 0 -10zM518.001 371.002h2v-1c-1.33301 -1.33301 -2.33301 -1.33301 -3 0v7h1v-6zM540.001 372.002h-2c0 -2 0.666992 -2 2 0z" />
    <glyph glyph-name="apple" unicode="&#xf8ff;" horiz-adv-x="1068" 
d="M649 -32l-243 -61l23 -57h209l12 27l-4 8l-72 -17l-16 44l103 27zM648 56l-243 -60l13 -31l242 61zM659 135h-252v-48l15 -34l237 62v20zM573 336c-7.33301 1.33301 -14.167 2.16602 -20.5 2.49902s-12.5 0.5 -18.5 0.5s-12.167 -0.166992 -18.5 -0.5
s-13.5 -1.16602 -21.5 -2.49902l15 -141h50zM729.999 344c0 26.667 -5.16699 51.999 -15.5 75.999s-24.333 44.833 -42 62.5s-38.5 31.667 -62.5 42s-49.333 15.5 -76 15.5c-27.333 0 -52.833 -5.16699 -76.5 -15.5s-44.5 -24.333 -62.5 -42s-32.167 -38.5 -42.5 -62.5
s-15.5 -49.333 -15.5 -76c0 -29.333 6.16699 -57 18.5 -83s28.833 -48 49.5 -66h50l-15 132c-10 -2 -18 -4.16699 -24 -6.5s-11.667 -4.16602 -17 -5.49902c-4.66699 -2 -8.66699 0.166992 -12 6.5s-5.33301 13.833 -6 22.5s-0.166992 16.834 1.5 24.501
s4.5 12.167 8.5 13.5c21.333 6.66699 44.333 12.167 69 16.5s49.334 6.5 74.001 6.5c26 0 51.167 -2.16699 75.5 -6.5s47.166 -9.83301 68.499 -16.5c4 -1.33301 6.83301 -5.83301 8.5 -13.5s2.16699 -15.834 1.5 -24.501s-2.5 -16.167 -5.5 -22.5s-7.5 -8.5 -13.5 -6.5
c-5.33301 2 -11.333 4 -18 6s-14.667 4 -24 6l-15 -132h50c18.667 16.667 34.667 37.667 48 63s20 54 20 86zM805.999 343.999c0 -36 -6.33105 -69.499 -18.998 -100.499s-29.334 -57.833 -50.001 -80.5v-84l-18 -5l34 -78l-32 -10l32 -77l-34 -9l10 -24l-32 -77h-61
c-3.33301 -14 -14.5 -25.833 -33.5 -35.5s-41.833 -14.5 -68.5 -14.5c-28 0 -51.5 4.83301 -70.5 14.5s-29.5 21.5 -31.5 35.5h-61l-58 140l33 8l-34 80l37 9l-19 47v81c-20.667 24 -37.167 51.167 -49.5 81.5s-18.5 63.166 -18.5 98.499c0 37.333 7.16699 72.333 21.5 105
s33.666 61.5 57.999 86.5s53 44.5 86 58.5s68.5 21 106.5 21c37.333 0 72.5 -7 105.5 -21s61.833 -33.5 86.5 -58.5s44.167 -53.833 58.5 -86.5s21.5 -67.667 21.5 -105zM906.001 311c1.33301 9.33301 2 20.001 2 32.001s-0.666992 23.333 -2 34l159 15
c3.33301 -32.667 3.33301 -65.334 0 -98.001zM817.001 582.001c-6 7.33301 -13.332 15.333 -21.999 24s-16.334 15.667 -23.001 21l99 123c25.333 -19.333 48.333 -42.333 69 -69zM568.002 706.001c-11.333 1.33301 -22.667 1.99902 -34 1.99902s-22 -0.666992 -32 -2
l-17 160c16 2 32.333 2.83301 49 2.5s33 -1.16602 49 -2.49902zM298.001 626c-7.33301 -6.66699 -15.167 -14.168 -23.5 -22.501s-15.833 -16.166 -22.5 -23.499l-125 102c21.333 26.667 44 49.667 68 69zM4 293.999c-5.33301 32 -5.33301 65 0 99l161 -16
c-2.66699 -22 -2.66699 -44.333 0 -67zM541 369.999l-0.999023 0.000976562v1c-0.666992 -1.33301 -1.33398 -2 -2.00098 -2s-1 0.666992 -1 2s1 2 3 2c0 1.33301 -1 1.66602 -3 0.999023v1c2.66699 1.33301 4 1 4 -1v-4zM525.001 375l1 0.000976562v-4
c0 -1.33301 -0.666992 -2 -2 -2s-2 0.666992 -2 2v4h1v-4l0.5 -1c0.333008 -0.666992 0.833008 -0.333984 1.5 0.999023v4zM547.001 372.001c0 -1.33301 -1.33301 -2 -4 -2v1c2 0 3 0.333008 3 1c-2 0 -3 0.666992 -3 2s1.33301 2 4 2v-1c-2 0 -3 -0.333008 -3 -1
c2 0 3 -0.666992 3 -2zM531.001 371.001v-0.999023c-2 -2 -3 -1.33301 -3 2c0 4 1 5 3 3v-1c-1.33301 1.33301 -2 0.666016 -2 -2.00098c0 -2 0.666992 -2.33301 2 -1zM550.001 368.002h-1c1.33301 2.66699 1.33301 6 0 10h1c1.33301 -4 1.33301 -7.33301 0 -10z
M535.001 368.002h-1c-1.33301 4 -1.33301 7.33301 0 10h1c-1.33301 -2.66699 -1.33301 -6 0 -10zM518.001 371.002h2v-1c-1.33301 -1.33301 -2.33301 -1.33301 -3 0v7h1v-6zM540.001 372.002h-2c0 -2 0.666992 -2 2 0z" />
    <glyph glyph-name="fi" unicode="&#xf001;" horiz-adv-x="597" 
d="M394 0l0.000976562 391.001h-166v-391h-137v391h-83v106h83v17c0 74.667 20 131 60 169s103 57 189 57c30 0 57.167 -1.66699 81.5 -5s49.833 -8 76.5 -14l-24 -114c-18.667 5.33301 -38.834 9.83301 -60.501 13.5s-42.167 5.5 -61.5 5.5
c-44 0 -75.667 -8.83301 -95 -26.5s-29 -43.834 -29 -78.501v-24h304v-497h-138z" />
    <glyph glyph-name="fi" unicode="&#xfb01;" horiz-adv-x="597" 
d="M394 0l0.000976562 391.001h-166v-391h-137v391h-83v106h83v17c0 74.667 20 131 60 169s103 57 189 57c30 0 57.167 -1.66699 81.5 -5s49.833 -8 76.5 -14l-24 -114c-18.667 5.33301 -38.834 9.83301 -60.501 13.5s-42.167 5.5 -61.5 5.5
c-44 0 -75.667 -8.83301 -95 -26.5s-29 -43.834 -29 -78.501v-24h304v-497h-138z" />
    <glyph glyph-name="fl" unicode="&#xf002;" horiz-adv-x="597" 
d="M394 0l-0.00195312 621.997c-11.333 1.33301 -22.166 2.5 -32.499 3.5s-21.166 1.5 -32.499 1.5c-34 0 -59.333 -7.16699 -76 -21.5s-25 -37.166 -25 -68.499v-40h103v-106h-103v-391h-137v391h-83v106h83v46c0 28.667 4.5 55 13.5 79s23.5 44.833 43.5 62.5
s45.833 31.334 77.5 41.001s69.834 14.5 114.501 14.5c26 0 55.667 -1.66699 89 -5s67.666 -7.66602 102.999 -12.999v-722h-138z" />
    <glyph glyph-name="fl" unicode="&#xfb02;" horiz-adv-x="597" 
d="M394 0l-0.00195312 621.997c-11.333 1.33301 -22.166 2.5 -32.499 3.5s-21.166 1.5 -32.499 1.5c-34 0 -59.333 -7.16699 -76 -21.5s-25 -37.166 -25 -68.499v-40h103v-106h-103v-391h-137v391h-83v106h83v46c0 28.667 4.5 55 13.5 79s23.5 44.833 43.5 62.5
s45.833 31.334 77.5 41.001s69.834 14.5 114.501 14.5c26 0 55.667 -1.66699 89 -5s67.666 -7.66602 102.999 -12.999v-722h-138z" />
    <glyph glyph-name="Acute" unicode="&#xf6c9;" horiz-adv-x="272" 
d="M44 713l-29 67l203 81l39 -87z" />
    <glyph glyph-name="Caron" unicode="&#xf6ca;" horiz-adv-x="272" 
d="M137 717l-156 80l33 64l124 -57l122 57l31 -63z" />
    <glyph glyph-name="Dieresis" unicode="&#xf6cb;" horiz-adv-x="272" 
d="M91 784c0 -18.667 -6.66699 -34.334 -20 -47.001s-29 -19 -47 -19c-18.667 0 -34.5 6.33301 -47.5 19s-19.5 28.334 -19.5 47.001s6.5 34.334 19.5 47.001s28.833 19 47.5 19c18 0 33.667 -6.33301 47 -19s20 -28.334 20 -47.001zM315 784
c0 -18.667 -6.33301 -34.334 -19 -47.001s-28.334 -19 -47.001 -19c-18 0 -33.667 6.33301 -47 19s-20 28.334 -20 47.001s6.66699 34.334 20 47.001s29 19 47 19c18.667 0 34.334 -6.33301 47.001 -19s19 -28.334 19 -47.001z" />
    <glyph glyph-name="Grave" unicode="&#xf6ce;" horiz-adv-x="272" 
d="M227 713l-212 60l38 88l203 -80z" />
    <glyph glyph-name="zerooldstyle" unicode="&#xf730;" 
d="M380 297c0 38.667 -2.66504 70.998 -7.99805 96.998s-12.666 46.833 -21.999 62.5s-20.5 26.834 -33.5 33.501s-27.167 10 -42.5 10c-14 0 -27.333 -3.5 -40 -10.5s-23.834 -18.333 -33.501 -34s-17.334 -36 -23.001 -61s-8.5 -55.5 -8.5 -91.5
c0 -39.333 2.66699 -72 8 -98s12.666 -46.667 21.999 -62s20.5 -26.166 33.5 -32.499s27.167 -9.5 42.5 -9.5c14 0 27.5 3.33301 40.5 10s24.167 17.667 33.5 33s16.833 35.5 22.5 60.5s8.5 55.833 8.5 92.5zM520.002 302.998c0 -50 -6.83398 -94.667 -20.501 -134
s-32.167 -72.333 -55.5 -99s-50.333 -47 -81 -61s-62.667 -21 -96 -21c-34.667 0 -66.5 5.5 -95.5 16.5s-54 29 -75 54s-37.5 57.167 -49.5 96.5s-18 87.666 -18 144.999c0 49.333 6.83301 93.333 20.5 132s32.167 71.334 55.5 98.001s50.333 47 81 61s62.667 21 96 21
c32 0 62.333 -5.16699 91 -15.5s53.834 -27.5 75.501 -51.5s39 -55.833 52 -95.5s19.5 -88.5 19.5 -146.5z" />
    <glyph glyph-name="oneoldstyle" unicode="&#xf731;" 
d="M79 0v117h160v344l-144 -97l-44 106l212 130h113v-483h131v-117h-428z" />
    <glyph glyph-name="twooldstyle" unicode="&#xf732;" 
d="M63 0l-0.00195312 107.002l83 81l80 78c21.333 21.333 38.5 40 51.5 56s22.167 30.5 27.5 43.5s8 26.833 8 41.5c0 25.333 -7.66699 45.666 -23 60.999s-38.666 23 -69.999 23c-23.333 0 -45.5 -4.33301 -66.5 -13s-39.167 -18.667 -54.5 -30l-32 114
c24 15.333 51.333 27.5 82 36.5s64 13.5 100 13.5c36.667 0 68.167 -5 94.5 -15s48 -23.333 65 -40s29.667 -36.167 38 -58.5s12.5 -45.5 12.5 -69.5c0 -44.667 -12.667 -85.834 -38 -123.501s-60.666 -77.5 -105.999 -119.5l-68 -64l-1 -2l54.5 2
c17.667 0.666992 35.667 1.16699 54 1.5s37.833 0.5 58.5 0.5h68v-124h-418z" />
    <glyph glyph-name="threeoldstyle" unicode="&#xf733;" 
d="M475 138c0 -34 -7.33105 -65.334 -21.998 -94.001s-35 -53.334 -61 -74.001s-56.833 -36.667 -92.5 -48s-74.834 -17 -117.501 -17c-19.333 0 -39.333 1.5 -60 4.5s-38.667 7.16699 -54 12.5l18 115c16 -6 33.167 -10.667 51.5 -14s37.166 -5 56.499 -5
c44 0 77.667 9.83301 101 29.5s35 44.5 35 74.5c0 29.333 -10.333 53 -31 71s-52.667 27 -96 27c-15.333 0 -29.5 -0.333008 -42.5 -1s-25.5 -1.66699 -37.5 -3v103h24c56.667 0 99.334 8.83301 128.001 26.5s43 42.834 43 75.501c0 26.667 -9 46.667 -27 60
s-41.333 20 -70 20c-24 0 -45.833 -3 -65.5 -9s-38.167 -14 -55.5 -24l-22 108c24 11.333 50.167 20.166 78.5 26.499s59.166 9.5 92.499 9.5c68 0 119.667 -15.333 155 -46s53 -71.667 53 -123c0 -37.333 -10 -68.666 -30 -93.999s-44.333 -43.666 -73 -54.999l-2 -3
c18 -3.33301 34.667 -9.5 50 -18.5s28.333 -20.333 39 -34s19 -29.167 25 -46.5s9 -35.333 9 -54z" />
    <glyph glyph-name="fouroldstyle" unicode="&#xf734;" 
d="M305 468h-1.00098l-147 -273c8.66699 0.666992 19.834 1.16699 33.501 1.5s27.5 0.5 41.5 0.5h73v271zM431.999 80v-163h-130v163h-263l-12 109l223 411h182v-403h88v-117h-88z" />
    <glyph glyph-name="fiveoldstyle" unicode="&#xf735;" 
d="M482 155c0 -36 -7.16699 -69.168 -21.5 -99.501s-34.5 -56.666 -60.5 -78.999s-57.167 -39.833 -93.5 -52.5s-76.5 -19 -120.5 -19c-16.667 0 -34.5 1 -53.5 3s-37.5 5.33301 -55.5 10l16 117c15.333 -5.33301 32.333 -9.16602 51 -11.499s35.667 -3.5 51 -3.5
c46 0 80.833 11.167 104.5 33.5s35.5 50.5 35.5 84.5c0 34.667 -13 61 -39 79s-62 27 -108 27c-20 0 -38.5 -0.666992 -55.5 -2s-31.167 -3 -42.5 -5l19 363h342v-125h-224l-7 -126c13.333 0.666992 21.333 1 24 1c37.333 0 70.666 -5 99.999 -15s54.333 -23.833 75 -41.5
s36.334 -38.334 47.001 -62.001s16 -49.167 16 -76.5z" />
    <glyph glyph-name="sixoldstyle" unicode="&#xf736;" 
d="M369 215c0 33.333 -7.83496 59.5 -23.502 78.5s-38.5 28.5 -68.5 28.5c-14.667 0 -27.667 -3 -39 -9s-20.833 -13.833 -28.5 -23.5s-13.5 -20.667 -17.5 -33s-6 -24.5 -6 -36.5c0 -16.667 2 -32.167 6 -46.5s9.83301 -26.833 17.5 -37.5s17.334 -19.167 29.001 -25.5
s25.167 -9.5 40.5 -9.5c28.667 0 50.834 10.5 66.501 31.5s23.5 48.5 23.5 82.5zM502.998 233c0 -37.333 -5.83203 -71.001 -17.499 -101.001s-27.667 -55.667 -48 -77s-44.5 -37.833 -72.5 -49.5s-58.333 -17.5 -91 -17.5c-70.667 0 -126 24.333 -166 73
s-60 123.334 -60 224.001c0 66.667 8.16699 125 24.5 175s39 91.5 68 124.5s63.167 57.667 102.5 74s81.666 24.5 126.999 24.5c12 0 24.833 -0.333008 38.5 -1s25.167 -1.66699 34.5 -3l-2 -115c-10.667 2 -22 3.66699 -34 5s-25.333 2 -40 2
c-44.667 0 -82 -13.167 -112 -39.5s-51.333 -65.5 -64 -117.5l-4.5 -18.5c-1.66699 -7 -3.16699 -14.167 -4.5 -21.5h1c13.333 18 31 32.167 53 42.5s45.333 15.5 70 15.5c32 0 60.333 -5.16699 85 -15.5s45.167 -24.5 61.5 -42.5s28.833 -39 37.5 -63s13 -50 13 -78z" />
    <glyph glyph-name="sevenoldstyle" unicode="&#xf737;" 
d="M489 488c-43.333 -88 -83.334 -181.168 -120.001 -279.501s-69 -195.5 -97 -291.5h-147c15.333 50.667 31.5 101.167 48.5 151.5s34.667 99.5 53 147.5s36.833 93.833 55.5 137.5s37 84.167 55 121.5c-9.33301 -0.666992 -23.166 -1.16699 -41.499 -1.5
s-39.5 -0.666016 -63.5 -0.999023s-50.333 -0.5 -79 -0.5h-88v128h424v-112v0z" />
    <glyph glyph-name="eightoldstyle" unicode="&#xf738;" 
d="M365 172c0 25.333 -8.83301 46.333 -26.5 63s-42.167 32.667 -73.5 48c-26 -16.667 -45.5 -33.667 -58.5 -51s-19.5 -36 -19.5 -56c0 -25.333 7.83301 -45.5 23.5 -60.5s37.5 -22.5 65.5 -22.5c25.333 0 46.5 7.33301 63.5 22s25.5 33.667 25.5 57zM351 514
c0 19.333 -5.83301 36 -17.5 50s-31.5 21 -59.5 21c-26 0 -45.5 -7.33301 -58.5 -22s-19.5 -32.334 -19.5 -53.001c0 -19.333 6.66699 -36.666 20 -51.999s34 -30.666 62 -45.999c25.333 17.333 43.833 34.166 55.5 50.499s17.5 33.5 17.5 51.5zM500 186
c0 -33.333 -6.33203 -62.3359 -18.999 -87.0029s-29.834 -45.167 -51.501 -61.5s-46.667 -28.666 -75 -36.999s-58.166 -12.5 -89.499 -12.5c-67.333 0 -119.833 16 -157.5 48s-56.5 75 -56.5 129c0 64.667 36.667 121.667 110 171c-64 41.333 -96 94.333 -96 159
c0 28.667 5.33301 54.834 16 78.501s25.5 43.834 44.5 60.501s41.833 29.667 68.5 39s56 14 88 14c30.667 0 58.5 -4 83.5 -12s46.333 -19.167 64 -33.5s31.167 -31.5 40.5 -51.5s14 -42 14 -66c0 -34 -8.16699 -64 -24.5 -90s-41.833 -51.333 -76.5 -76
c41.333 -22.667 71.166 -48 89.499 -76s27.5 -60 27.5 -96z" />
    <glyph glyph-name="nineoldstyle" unicode="&#xf739;" 
d="M355 381c0 35.333 -7.83203 63.833 -23.499 85.5s-37.834 32.5 -66.501 32.5c-28 0 -50.167 -10.5 -66.5 -31.5s-24.5 -47.833 -24.5 -80.5c0 -34 7.66699 -60.667 23 -80s37.333 -29 66 -29c14.667 0 27.667 3 39 9s21 13.833 29 23.5s14 20.667 18 33s6 24.833 6 37.5z
M501.001 320c0 -68.667 -8.33398 -128.67 -25.001 -180.003s-40 -94.166 -70 -128.499s-65.667 -60.166 -107 -77.499s-86.666 -26 -135.999 -26c-15.333 0 -31.333 0.666992 -48 2s-32.334 3.33301 -47.001 6l12 117c15.333 -4 30.666 -7.16699 45.999 -9.5
s30.666 -3.5 45.999 -3.5c22.667 0 43.834 3.66699 63.501 11s37.334 18 53.001 32s29 30.833 40 50.5s18.833 42.167 23.5 67.5c1.33301 7.33301 2.5 14.166 3.5 20.499s2.16699 12.5 3.5 18.5h-1c-13.333 -17.333 -30.833 -30.833 -52.5 -40.5
s-45.834 -14.5 -72.501 -14.5c-30 0 -57 5 -81 15s-44.167 24 -60.5 42s-28.833 39.5 -37.5 64.5s-13 52.5 -13 82.5c0 36 5.83301 68.833 17.5 98.5s27.834 55.334 48.501 77.001s45.334 38.334 74.001 50.001s59.667 17.5 93 17.5c34 0 64.833 -5.83301 92.5 -17.5
s51.5 -29.5 71.5 -53.5s35.5 -54.333 46.5 -91s16.5 -80 16.5 -130z" />
    <glyph glyph-name=".null" horiz-adv-x="0" 
 />
    <glyph glyph-name="nonmarkingreturn" horiz-adv-x="500" 
 />
    </font>
</defs>
</svg>
