<svg xmlns="http://www.w3.org/2000/svg">
<defs>
<font id="GrundfosTheSans" horiz-adv-x="550" >
  <font-face 
    font-family="Grundfos TheSans"
    font-weight="400"
    font-stretch="normal"
    units-per-em="1000"
    panose-1="2 11 5 3 4 3 2 6 2 4"
    ascent="740"
    descent="-260"
    x-height="497"
    cap-height="675"
    bbox="-61.998 -260 1000 849.002"
    underline-thickness="70"
    underline-position="-185"
    unicode-range="U+0020-U+F739"
  />
<missing-glyph horiz-adv-x="829" 
d="M509 133l-202 -52l21 -52h173l12 28l-5 12l-63 -16l-10 26l87 22zM508 201l-202 -51l14 -35l202 52zM519 263h-209v-47l12 -32l197 50v29zM451 414c-11.333 2 -23.333 3 -36 3s-25.667 -1 -39 -3l12 -120h52zM574 416c0 22 -4.16602 42.6631 -12.499 61.9961
s-19.833 36.333 -34.5 51s-31.5 26.167 -50.5 34.5s-39.5 12.5 -61.5 12.5s-42.833 -4.16699 -62.5 -12.5s-36.667 -19.833 -51 -34.5s-25.833 -31.667 -34.5 -51s-13 -40 -13 -62c0 -23.333 4.83301 -45.5 14.5 -66.5s23.5 -39.5 41.5 -55.5h51l-13 115
c-7.33301 -1.33301 -13.333 -3 -18 -5s-9 -3.5 -13 -4.5s-7 0.166992 -9 3.5s-3.16699 7.33301 -3.5 12s0 9.16699 1 13.5s2.83301 6.5 5.5 6.5c15.333 5.33301 32 9.33301 50 12s36 4 54 4s35.833 -1.5 53.5 -4.5s34.5 -6.83301 50.5 -11.5
c2 -0.666992 3.66699 -3.16699 5 -7.5s1.66602 -8.66602 0.999023 -12.999s-2 -8.16602 -4 -11.499s-5 -4.66602 -9 -3.99902c-8 4 -18.667 7.33301 -32 10l-13 -115h51c14.667 13.333 27.667 30.333 39 51s17 44.334 17 71.001zM613.001 415.996
c0 -29.333 -5.49902 -55.833 -16.499 -79.5s-24.5 -43.5 -40.5 -59.5v-64l-13 -3l26 -62l-25 -7l25 -58l-25 -6l9 -22l-25 -55h-41c-2 -10 -9.83301 -18.5 -23.5 -25.5s-29.834 -10.5 -48.501 -10.5c-20 0 -36.833 3.5 -50.5 10.5s-21.167 15.5 -22.5 25.5h-41l-42 99l25 8
l-25 61l28 7l-16 38v64c-16 17.333 -29.333 37.833 -40 61.5s-16 49.5 -16 77.5c0 27.333 5.33301 53 16 77s25 45 43 63s39 32.333 63 43s50 16 78 16c26.667 0 52 -5.33301 76 -16s45 -25 63 -43s32.333 -39 43 -63s16 -49.667 16 -77zM726.002 398.996v33.999l100 6

<glyph glyph-name=".notdef" horiz-adv-x="829" 
d="M509 133l-202 -52l21 -52h173l12 28l-5 12l-63 -16l-10 26l87 22zM508 201l-202 -51l14 -35l202 52zM519 263h-209v-47l12 -32l197 50v29zM451 414c-11.333 2 -23.333 3 -36 3s-25.667 -1 -39 -3l12 -120h52zM574 416c0 22 -4.16602 42.6631 -12.499 61.9961
s-19.833 36.333 -34.5 51s-31.5 26.167 -50.5 34.5s-39.5 12.5 -61.5 12.5s-42.833 -4.16699 -62.5 -12.5s-36.667 -19.833 -51 -34.5s-25.833 -31.667 -34.5 -51s-13 -40 -13 -62c0 -23.333 4.83301 -45.5 14.5 -66.5s23.5 -39.5 41.5 -55.5h51l-13 115
c-7.33301 -1.33301 -13.333 -3 -18 -5s-9 -3.5 -13 -4.5s-7 0.166992 -9 3.5s-3.16699 7.33301 -3.5 12s0 9.16699 1 13.5s2.83301 6.5 5.5 6.5c15.333 5.33301 32 9.33301 50 12s36 4 54 4s35.833 -1.5 53.5 -4.5s34.5 -6.83301 50.5 -11.5
c2 -0.666992 3.66699 -3.16699 5 -7.5s1.66602 -8.66602 0.999023 -12.999s-2 -8.16602 -4 -11.499s-5 -4.66602 -9 -3.99902c-8 4 -18.667 7.33301 -32 10l-13 -115h51c14.667 13.333 27.667 30.333 39 51s17 44.334 17 71.001zM613.001 415.996
c0 -29.333 -5.49902 -55.833 -16.499 -79.5s-24.5 -43.5 -40.5 -59.5v-64l-13 -3l26 -62l-25 -7l25 -58l-25 -6l9 -22l-25 -55h-41c-2 -10 -9.83301 -18.5 -23.5 -25.5s-29.834 -10.5 -48.501 -10.5c-20 0 -36.833 3.5 -50.5 10.5s-21.167 15.5 -22.5 25.5h-41l-42 99l25 8
l-25 61l28 7l-16 38v64c-16 17.333 -29.333 37.833 -40 61.5s-16 49.5 -16 77.5c0 27.333 5.33301 53 16 77s25 45 43 63s39 32.333 63 43s50 16 78 16c26.667 0 52 -5.33301 76 -16s45 -25 63 -43s32.333 -39 43 -63s16 -49.667 16 -77zM726.002 398.996v33.999l100 6
c2 -15.333 2 -30.666 0 -45.999zM642.002 620.995c-3.33301 4 -7 8 -11 12s-8 7.66699 -12 11l66 76l33 -33zM431.002 713.995h-17h-17l-6 101c16 1.33301 31.333 1.33301 46 0zM211.002 642.995l-12.502 -10.5c-4.33301 -3.66699 -8.16602 -7.5 -11.499 -11.5l-76 66
c10.667 12 21.334 23 32.001 33zM2 392.995c-0.666992 6.66699 -1 14.332 -1 22.999s0.333008 16.334 1 23.001l102 -6c-0.666992 -10.667 -0.666992 -22 0 -34zM420 430.993l-0.999023 0.000976562v1c-0.666992 -1.33301 -1.33398 -2 -2.00098 -2s-1 0.666992 -1 2s1 2 3 2
c0 1.33301 -1 1.66602 -3 0.999023v1c2.66699 1.33301 4 1 4 -1v-4zM404.001 435.994l1 0.000976562v-4c0 -1.33301 -0.666992 -2 -2 -2s-2 0.666992 -2 2v4h1v-4l0.5 -1c0.333008 -0.666992 0.833008 -0.333984 1.5 0.999023v4zM426.001 432.995
c0 -1.33301 -1.33301 -2 -4 -2v1c2 0 3 0.333008 3 1c-2 0 -3 0.666992 -3 2s1.33301 2 4 2v-1c-2 0 -3 -0.333008 -3 -1c2 0 3 -0.666992 3 -2zM410.001 431.995v-0.999023c-2 -2 -3 -1.33301 -3 2c0 4 1 5 3 3v-1c-1.33301 1.33301 -2 0.666016 -2 -2.00098
c0 -2 0.666992 -2.33301 2 -1zM429.001 428.996h-1c1.33301 2.66699 1.33301 6 0 10h1c1.33301 -4 1.33301 -7.33301 0 -10zM414.001 428.996h-1c-1.33301 4 -1.33301 7.33301 0 10h1c-1.33301 -2.66699 -1.33301 -6 0 -10zM397.001 431.996h2v-1
c-1.33301 -1.33301 -2.33301 -1.33301 -3 0v7h1v-6zM419.001 432.996h-2c0 -2 0.666992 -2 2 0z" />
    <glyph glyph-name="space" unicode=" " horiz-adv-x="225" 
 />
    <glyph glyph-name="exclam" unicode="!" horiz-adv-x="301" 
d="M207 48c0 -16 -5.5 -29.5 -16.5 -40.5s-24.5 -16.5 -40.5 -16.5c-16.667 0 -30.5 5.5 -41.5 16.5s-16.5 24.5 -16.5 40.5s5.5 29.5 16.5 40.5s24.833 16.5 41.5 16.5c16 0 29.5 -5.5 40.5 -16.5s16.5 -24.5 16.5 -40.5zM186 165h-71l-15 541h101z" />
    <glyph glyph-name="quotedbl" unicode="&#x22;" horiz-adv-x="360" 
d="M129 503h-62l-14 227h90zM294 503h-63l-14 227h90z" />
    <glyph glyph-name="numbersign" unicode="#" 
d="M220 446l-19 -195h130l19 195h-130zM416 446l-19 -195h104v-57h-110l-20 -194h-66l20 194h-130l-20 -194h-66l20 194h-106v57h112l19 195h-106v57h112l17 172h66l-17 -172h130l17 172h66l-17 -172h105v-57h-111z" />
    <glyph glyph-name="dollar" unicode="$" 
d="M401 178c0 28 -8.16699 50.001 -24.5 66.001s-40.833 30.667 -73.5 44l-5 -218c32 5.33301 57.167 17.166 75.5 35.499s27.5 42.5 27.5 72.5zM250 595.001c-31.333 -3.33301 -56 -14.001 -74 -32.001s-27 -41 -27 -69c0 -27.333 8.33301 -48.666 25 -63.999
s40.667 -29.333 72 -42l4 207v0zM483 189c0 -26 -4.66699 -49.6641 -14 -70.9971s-22.166 -40 -38.499 -56s-36 -29.333 -59 -40s-48.167 -18 -75.5 -22l-3 -127h-61l3 124c-27.333 0 -54.166 2.16699 -80.499 6.5s-51.5 11.166 -75.5 20.499l14 77
c20 -10 42.5 -18 67.5 -24s50.833 -9.33301 77.5 -10l5 239c-26.667 8.66699 -50.667 18.167 -72 28.5s-39.5 22.5 -54.5 36.5s-26.5 30.333 -34.5 49s-12 40.667 -12 66c0 48 16.333 87.833 49 119.5s77 50.167 133 55.5l2 102h61l-2 -99
c19.333 -0.666992 39.666 -2.83398 60.999 -6.50098s41 -8.16699 59 -13.5l-13 -69c-17.333 7.33301 -35.333 12.666 -54 15.999s-37.334 5.66602 -56.001 6.99902l-5 -228c28 -9.33301 53 -19.5 75 -30.5s40.667 -23.667 56 -38s27 -30.666 35 -48.999s12 -39.5 12 -63.5z
" />
    <glyph glyph-name="percent" unicode="%" horiz-adv-x="797" 
d="M183 -23l-60 44l475 677l60 -44zM283 526c0 35.333 -6.66699 60.998 -20 76.998s-34 24 -62 24c-23.333 0 -42.666 -9.16699 -57.999 -27.5s-23 -43.166 -23 -74.499c0 -69.333 26.333 -104 79 -104c25.333 0 45.666 9.33301 60.999 28s23 44.334 23 77.001zM359 531.998
c0 -27.333 -4.5 -51.8311 -13.5 -73.498s-21.167 -39.834 -36.5 -54.501s-32.833 -25.834 -52.5 -33.501s-40.167 -11.5 -61.5 -11.5s-41.333 3 -60 9s-34.667 15.5 -48 28.5s-23.833 29.5 -31.5 49.5s-11.5 44 -11.5 72s4.5 52.5 13.5 73.5s21 38.833 36 53.5
s32.167 25.667 51.5 33s39.333 11 60 11c21.333 0 41.333 -2.83301 60 -8.5s35 -14.667 49 -27s25 -28.5 33 -48.5s12 -44.333 12 -73zM665 153c0 35.333 -6.66504 60.998 -19.998 76.998s-34 24 -62 24c-22.667 0 -41.834 -9.16699 -57.501 -27.5
s-23.5 -43.166 -23.5 -74.499c0 -69.333 26.333 -104 79 -104c25.333 0 45.666 9.33301 60.999 28s23 44.334 23 77.001zM741.002 158.998c0 -27.333 -4.5 -51.8311 -13.5 -73.498s-21 -39.834 -36 -54.501s-32.5 -25.834 -52.5 -33.501s-40.667 -11.5 -62 -11.5
s-41.166 3 -59.499 9s-34.333 15.5 -48 28.5s-24.334 29.5 -32.001 49.5s-11.5 44 -11.5 72s4.5 52.5 13.5 73.5s21 38.833 36 53.5s32.167 25.667 51.5 33s39.333 11 60 11c21.333 0 41.333 -2.83301 60 -8.5s35 -14.667 49 -27s25 -28.5 33 -48.5s12 -44.333 12 -73z" />
    <glyph glyph-name="ampersand" unicode="&#x26;" horiz-adv-x="795" 
d="M481 134l-65 52.999l-64.5 56l-59.5 55c-18.667 18 -35.334 35 -50.001 51c-36 -29.333 -61.333 -56.166 -76 -80.499s-22 -48.5 -22 -72.5c0 -18 3.33301 -35.167 10 -51.5s16.334 -30.666 29.001 -42.999s28 -22 46 -29s38.333 -10.5 61 -10.5
c40 0 76.333 7.16699 109 21.5s60 31.166 82 50.499zM352 587.999c0 24 -7 43.835 -21 59.502s-34 23.5 -60 23.5c-24.667 0 -44.667 -7.33301 -60 -22s-23 -33.667 -23 -57c0 -34 24.333 -81 73 -141c30 23.333 52.667 46.166 68 68.499s23 45.166 23 68.499zM682 -19.999
l-74.5039 54.5039c-25.667 19 -48.167 36.5 -67.5 52.5c-33.333 -28.667 -72 -52 -116 -70s-93.667 -27 -149 -27c-35.333 0 -66.666 5 -93.999 15s-50.166 23.667 -68.499 41s-32.166 38 -41.499 62s-14 50 -14 78c0 21.333 3.16699 41.333 9.5 60s15.333 36.667 27 54
s26.167 34.166 43.5 50.499s37 33.166 59 50.499c-32 39.333 -55.333 74.166 -70 104.499s-22 57.166 -22 80.499c0 20.667 3.83301 40.167 11.5 58.5s18.834 34.333 33.501 48s33 24.5 55 32.5s47 12 75 12c51.333 0 90.333 -12.833 117 -38.5s40 -58.5 40 -98.5
c0 -32.667 -9.83301 -64.167 -29.5 -94.5s-53.167 -64.833 -100.5 -103.5c14.667 -16 31.167 -32.667 49.5 -50l57.5 -53l62 -53.5l62 -50.5c22.667 32 40.667 69.333 54 112s18.333 90 15 142h85c1.33301 -57.333 -6 -111.833 -22 -163.5s-39.667 -97.5 -71 -137.5
l74.5 -56l64.5 -46z" />
    <glyph glyph-name="quotesingle" unicode="'" horiz-adv-x="197" 
d="M129 503h-62l-14 227h90z" />
    <glyph glyph-name="parenleft" unicode="(" horiz-adv-x="303" 
d="M218 -206c-30 46.667 -54.332 91.5 -72.999 134.5s-33.334 84.667 -44.001 125s-18 79.666 -22 117.999s-6 75.833 -6 112.5c0 36 2.33301 73.667 7 113s12.667 79.833 24 121.5s26.333 84.334 45 128.001s42 87.834 70 132.501l60 -30
c-40.667 -70 -71.5 -143.667 -92.5 -221s-31.5 -157 -31.5 -239c0 -85.333 10.167 -166.333 30.5 -243s51.833 -150.334 94.5 -221.001z" />
    <glyph glyph-name="parenright" unicode=")" horiz-adv-x="303" 
d="M235 286c0 -36 -2.16699 -73.334 -6.5 -112.001s-12 -78.5 -23 -119.5s-25.833 -83.167 -44.5 -126.5s-42.667 -88 -72 -134l-61 31c42 70.667 73.333 144 94 220s31 156.667 31 242c0 82.667 -10.333 162.667 -31 240s-51.667 151.333 -93 222l61 31
c28 -45.333 51.333 -89.666 70 -132.999s33.5 -85.833 44.5 -127.5s18.833 -82 23.5 -121s7 -76.5 7 -112.5z" />
    <glyph glyph-name="asterisk" unicode="*" horiz-adv-x="372" 
d="M295 480l-91 66l10 -112h-63l10 112l-91 -66l-31 55l103 46l-103 47l32 55l91 -65l-10 112h63l-11 -112l92 65l31 -55l-103 -46l103 -46z" />
    <glyph glyph-name="plus" unicode="+" 
d="M313 224v-216h-77v216h-196v68h196v215h77v-215h197v-68h-197z" />
    <glyph glyph-name="comma" unicode="," horiz-adv-x="225" 
d="M110 108c18 0 32.499 -7.00488 43.499 -21.0049s16 -32.833 15 -56.5s-9.66699 -51.167 -26 -82.5s-43.166 -64.333 -80.499 -99l-36 32c16 16.667 28.167 32.334 36.5 47.001s14 27.834 17 39.501s3.33301 22.167 1 31.5s-6.16602 17.333 -11.499 24
c-6.66699 8.66699 -10.5 17.834 -11.5 27.501s0.5 18.834 4.5 27.501s10.167 15.834 18.5 21.501s18.166 8.5 29.499 8.5z" />
    <glyph glyph-name="hyphen" unicode="-" horiz-adv-x="329" 
d="M47 217v67h235v-67h-235z" />
    <glyph glyph-name="hyphen" unicode="&#xad;" horiz-adv-x="329" 
d="M47 217v67h235v-67h-235z" />
    <glyph glyph-name="period" unicode="." horiz-adv-x="225" 
d="M171 51c0 -16.667 -5.66699 -30.834 -17 -42.501s-25.333 -17.5 -42 -17.5s-30.667 5.83301 -42 17.5s-17 25.834 -17 42.501c0 16 5.66699 29.833 17 41.5s25.333 17.5 42 17.5s30.667 -5.83301 42 -17.5s17 -25.5 17 -41.5z" />
    <glyph glyph-name="slash" unicode="/" horiz-adv-x="418" 
d="M125 0h-82l258 675h81z" />
    <glyph glyph-name="zero" unicode="0" 
d="M409 326c0 48.667 -2.83398 89.666 -8.50098 122.999s-14 60.333 -25 81s-25 35.5 -42 44.5s-36.833 13.5 -59.5 13.5c-19.333 0 -37.166 -4.33301 -53.499 -13s-30.5 -23 -42.5 -43s-21.333 -46.167 -28 -78.5s-10 -72.166 -10 -119.499
c0 -92.667 9.83301 -161 29.5 -205s54.5 -66 104.5 -66c42 0 75 21.5 99 64.5s36 109.167 36 198.5zM499.999 331.999c0 -62.667 -6.66602 -115.669 -19.999 -159.002s-30.833 -78.5 -52.5 -105.5s-46.334 -46.5 -74.001 -58.5s-56.167 -18 -85.5 -18
c-35.333 0 -66.666 5.83301 -93.999 17.5s-50.333 30.834 -69 57.501s-32.667 61.5 -42 104.5s-14 95.833 -14 158.5c0 56.667 5.83301 105.834 17.5 147.501s27.667 76 48 103s44.666 47 72.999 60s59.5 19.5 93.5 19.5c32 0 61.333 -5.16699 88 -15.5s49.667 -28 69 -53
s34.5 -58.5 45.5 -100.5s16.5 -94.667 16.5 -158z" />
    <glyph glyph-name="one" unicode="1" 
d="M76 0v76h176v489l-162 -64l-15 79l196 70h68v-574h155v-76h-418z" />
    <glyph glyph-name="two" unicode="2" 
d="M59 0l0.00292969 68.002l150 148c34 32.667 61.333 60.5 82 83.5s36.667 43.5 48 61.5s18.833 34.667 22.5 50s5.5 31 5.5 47c0 36 -11.333 66 -34 90s-55.334 36 -98.001 36c-30 0 -58 -5.33301 -84 -16s-47.333 -22.667 -64 -36l-22 73
c24.667 15.333 52.5 28.166 83.5 38.499s64.5 15.5 100.5 15.5c34.667 0 65.167 -5.16699 91.5 -15.5s48.333 -24 66 -41s30.834 -36.833 39.501 -59.5s13 -46.334 13 -71.001c0 -21.333 -2.16699 -41.833 -6.5 -61.5s-12.5 -40 -24.5 -61s-28.333 -43.5 -49 -67.5
s-47.334 -51.333 -80.001 -82l-127 -120v-1c21.333 0.666992 49.666 1.16699 84.999 1.5s76.666 0.5 123.999 0.5h102v-81h-424z" />
    <glyph glyph-name="three" unicode="3" 
d="M472 198c0 -32 -6.33594 -60.6631 -19.0029 -85.9961s-30.667 -47 -54 -65s-51.666 -31.833 -84.999 -41.5s-70.666 -14.5 -111.999 -14.5c-22.667 0 -44.667 1.33301 -66 4s-40.333 6.66699 -57 12l9 76c18 -6 37.333 -10.833 58 -14.5s42.334 -5.5 65.001 -5.5
c56 0 98.333 11.333 127 34s43 52.334 43 89.001c0 37.333 -14.167 66.666 -42.5 87.999s-69.5 32 -123.5 32c-18 0 -34.333 -0.5 -49 -1.5s-30.667 -2.16699 -48 -3.5v68h22c72 0 127.833 10 167.5 30s59.5 51 59.5 93c0 30 -11.333 53.667 -34 71s-53 26 -91 26
c-28 0 -53.667 -3.33301 -77 -10s-45.666 -15.667 -66.999 -27l-8 74c23.333 9.33301 48.666 17.166 75.999 23.499s57.333 9.5 90 9.5c33.333 0 62.5 -4 87.5 -12s45.833 -18.833 62.5 -32.5s29.167 -29.834 37.5 -48.501s12.5 -39 12.5 -61
c0 -39.333 -10.833 -71.833 -32.5 -97.5s-52.5 -44.167 -92.5 -55.5l-1 -2c20 -1.33301 38.667 -6.33301 56 -15s32.333 -19.834 45 -33.501s22.667 -29.334 30 -47.001s11 -36.5 11 -56.5z" />
    <glyph glyph-name="four" unicode="4" 
d="M335 565h-0.998047l-223 -339c15.333 0.666992 33.666 1.16699 54.999 1.5s42.666 0.5 63.999 0.5h105v337zM418.002 151v-151h-84v151h-303l-7 68l279 431h115v-422h110v-77h-110z" />
    <glyph glyph-name="five" unicode="5" 
d="M473 212c0 -33.333 -6.33398 -63.5 -19.001 -90.5s-30.834 -50.167 -54.501 -69.5s-52 -34.333 -85 -45s-69.5 -16 -109.5 -16c-22 0 -42.5 1 -61.5 3s-38.167 5.33301 -57.5 10v79c18.667 -6 38.5 -10.667 59.5 -14s43.5 -5 67.5 -5c54.667 0 96.5 12.5 125.5 37.5
s43.5 58.5 43.5 100.5c0 41.333 -15.667 72.5 -47 93.5s-73 31.5 -125 31.5c-21.333 0 -41.666 -0.833008 -60.999 -2.5s-35.333 -3.5 -48 -5.5v331h348v-81h-270v-176c9.33301 0.666992 19.333 1.16699 30 1.5s19.667 0.5 27 0.5c38.667 0 72.834 -4.66699 102.501 -14
s54.5 -22.333 74.5 -39s35 -36 45 -58s15 -46 15 -72z" />
    <glyph glyph-name="six" unicode="6" 
d="M417 204c0 40 -11.167 72.332 -33.5 96.999s-55.5 37 -99.5 37c-21.333 0 -40.5 -4 -57.5 -12s-31.333 -18.167 -43 -30.5s-20.5 -26 -26.5 -41s-9 -29.5 -9 -43.5c0 -20.667 3 -40.167 9 -58.5s14.833 -34.333 26.5 -48s26.167 -24.5 43.5 -32.5s37.333 -12 60 -12
c42 0 74.167 13.333 96.5 40s33.5 61.334 33.5 104.001zM503 218.999c0 -34 -5.33008 -65.001 -15.9971 -93.001s-25.834 -52 -45.501 -72s-43.167 -35.5 -70.5 -46.5s-58 -16.5 -92 -16.5c-70.667 0 -125.834 23.667 -165.501 71s-59.5 114.333 -59.5 201
c0 70 8.16699 130 24.5 180s39.166 91 68.499 123s64.333 55.5 105 70.5s85 22.5 133 22.5c10 0 20.167 -0.166992 30.5 -0.5s18.833 -1.16602 25.5 -2.49902v-74c-9.33301 1.33301 -19 2.33301 -29 3s-21.667 1 -35 1c-68 0 -120.5 -18.833 -157.5 -56.5
s-61.833 -90.5 -74.5 -158.5c-2 -10.667 -4.66699 -27.667 -8 -51h1c16.667 28.667 39.167 50.5 67.5 65.5s60.5 22.5 96.5 22.5c32.667 0 61.5 -5 86.5 -15s46 -23.5 63 -40.5s29.833 -37 38.5 -60s13 -47.5 13 -73.5z" />
    <glyph glyph-name="seven" unicode="7" 
d="M494 577l-74.5 -145.997c-24.333 -50 -47.333 -99.833 -69 -149.5s-41.834 -98.334 -60.501 -146.001s-35.334 -92.834 -50.001 -135.501h-98c16.667 45.333 34.834 92.166 54.501 140.499s40.334 96.666 62.001 144.999l67.5 144.5c23.333 48 47 94.333 71 139
c-6 0 -18 -0.166992 -36 -0.5s-39 -0.666016 -63 -0.999023s-49.667 -0.5 -77 -0.5h-76h-89v83h438v-73v0z" />
    <glyph glyph-name="eight" unicode="8" 
d="M405 157c0 18 -3.83008 33.833 -11.4971 47.5s-17.667 26 -30 37s-26.833 20.833 -43.5 29.5s-34 17 -52 25l-46 -28c-14.667 -9.33301 -27.834 -19.5 -39.501 -30.5s-20.834 -22.833 -27.501 -35.5s-10 -27 -10 -43c0 -29.333 11.333 -53.166 34 -71.499
s55.667 -27.5 99 -27.5c18 0 34.667 2.16699 50 6.5s28.666 10.666 39.999 18.999s20.333 18.5 27 30.5s10 25.667 10 41zM390.003 495c0 31.333 -10.668 55.168 -32.001 71.501s-49.666 24.5 -84.999 24.5c-36 0 -64 -9.16699 -84 -27.5s-30 -40.5 -30 -66.5
c0 -28 9.66699 -50.667 29 -68s49.666 -36 90.999 -56c14.667 8 28.834 16.333 42.501 25s25.5 18 35.5 28s18 20.667 24 32s9 23.666 9 36.999zM493.002 165.002c0 -26.667 -5.66504 -50.832 -16.998 -72.499s-27 -40 -47 -55s-43.667 -26.5 -71 -34.5s-57 -12 -89 -12
s-61.167 3.83301 -87.5 11.5s-48.666 18.5 -66.999 32.5s-32.666 30.833 -42.999 50.5s-15.5 41.834 -15.5 66.501c0 20.667 4 39.667 12 57s18.5 33 31.5 47s28 26.833 45 38.5s34.833 22.834 53.5 33.501c-40 20 -71 42.5 -93 67.5s-33 56.5 -33 94.5c0 24 5 46.333 15 67
s24.167 38.5 42.5 53.5s40.166 26.833 65.499 35.5s53.666 13 84.999 13c62 0 110.333 -14.667 145 -44s52 -67 52 -113c0 -18.667 -3.5 -35.834 -10.5 -51.501s-16.167 -30 -27.5 -43s-24.833 -25 -40.5 -36s-31.834 -21.5 -48.501 -31.5
c18 -9.33301 35.667 -19.333 53 -30s32.666 -22.834 45.999 -36.501s24 -29.334 32 -47.001s12 -38.167 12 -61.5z" />
    <glyph glyph-name="nine" unicode="9" 
d="M398 439c0 22 -3.00098 42.168 -9.00098 60.501s-14.667 34.166 -26 47.499s-25.5 23.833 -42.5 31.5s-36.5 11.5 -58.5 11.5c-20 0 -38.167 -3.66699 -54.5 -11s-30 -17.333 -41 -30s-19.5 -27.667 -25.5 -45s-9 -35.666 -9 -54.999c0 -42 11.333 -75.5 34 -100.5
s54.334 -37.5 95.001 -37.5c22 0 41.5 3.5 58.5 10.5s31.333 16.333 43 28s20.5 25.167 26.5 40.5s9 31.666 9 48.999zM491.999 387.001c0 -72 -8.32715 -133.001 -24.9941 -183.001s-39.834 -90.833 -69.501 -122.5s-64.667 -54.667 -105 -69s-84.5 -21.5 -132.5 -21.5
c-12.667 0 -25.667 0.5 -39 1.5s-26.666 2.83301 -39.999 5.5v77c14 -3.33301 28.667 -5.83301 44 -7.5s30.666 -2.5 45.999 -2.5c65.333 0 116.166 16.667 152.499 50s60.166 83.666 71.499 150.999c1.33301 10 2.83301 18.5 4.5 25.5s3.16699 14.833 4.5 23.5h-1
c-16 -23.333 -37.5 -41.833 -64.5 -55.5s-58.167 -20.5 -93.5 -20.5c-32 0 -60.333 4.83301 -85 14.5s-45.334 23.334 -62.001 41.001s-29.334 38.5 -38.001 62.5s-13 50 -13 78c0 34 5.5 64.833 16.5 92.5s26.333 51.167 46 70.5s43 34.333 70 45s56.833 16 89.5 16
c34 0 64.667 -5.33301 92 -16s50.666 -27 69.999 -49s34.333 -50.167 45 -84.5s16 -75.166 16 -122.499z" />
    <glyph glyph-name="colon" unicode=":" horiz-adv-x="255" 
d="M187 51c0 -16.667 -5.83301 -30.834 -17.5 -42.501s-25.5 -17.5 -41.5 -17.5c-17.333 0 -31.666 5.83301 -42.999 17.5s-17 25.834 -17 42.501c0 16 5.66699 29.833 17 41.5s25.666 17.5 42.999 17.5c16 0 29.833 -5.83301 41.5 -17.5s17.5 -25.5 17.5 -41.5zM187 344
c0 -16.667 -5.83301 -30.667 -17.5 -42s-25.5 -17 -41.5 -17c-17.333 0 -31.666 5.66699 -42.999 17s-17 25.333 -17 42s5.66699 30.667 17 42s25.666 17 42.999 17c16 0 29.833 -5.66699 41.5 -17s17.5 -25.333 17.5 -42z" />
    <glyph glyph-name="semicolon" unicode=";" horiz-adv-x="255" 
d="M127 108c17.333 0 31.667 -7.00488 43 -21.0049s16.5 -32.833 15.5 -56.5s-9.66699 -51.167 -26 -82.5s-43.166 -64.333 -80.499 -99l-37 32c16 16.667 28.167 32.334 36.5 47.001s14 27.834 17 39.501s3.33301 22.167 1 31.5s-6.16602 17.333 -11.499 24
c-6.66699 8.66699 -10.334 17.834 -11.001 27.501s1 18.834 5 27.501s10.167 15.834 18.5 21.501s18.166 8.5 29.499 8.5zM187.001 343.995c0 -16.667 -5.83301 -30.667 -17.5 -42s-25.5 -17 -41.5 -17c-17.333 0 -31.666 5.66699 -42.999 17s-17 25.333 -17 42
s5.66699 30.667 17 42s25.666 17 42.999 17c16 0 29.833 -5.66699 41.5 -17s17.5 -25.333 17.5 -42z" />
    <glyph glyph-name="semicolon" unicode="&#x37e;" horiz-adv-x="255" 
d="M127 108c17.333 0 31.667 -7.00488 43 -21.0049s16.5 -32.833 15.5 -56.5s-9.66699 -51.167 -26 -82.5s-43.166 -64.333 -80.499 -99l-37 32c16 16.667 28.167 32.334 36.5 47.001s14 27.834 17 39.501s3.33301 22.167 1 31.5s-6.16602 17.333 -11.499 24
c-6.66699 8.66699 -10.334 17.834 -11.001 27.501s1 18.834 5 27.501s10.167 15.834 18.5 21.501s18.166 8.5 29.499 8.5zM187.001 343.995c0 -16.667 -5.83301 -30.667 -17.5 -42s-25.5 -17 -41.5 -17c-17.333 0 -31.666 5.66699 -42.999 17s-17 25.333 -17 42
s5.66699 30.667 17 42s25.666 17 42.999 17c16 0 29.833 -5.66699 41.5 -17s17.5 -25.333 17.5 -42z" />
    <glyph glyph-name="less" unicode="&#x3c;" 
d="M400 -29l-341 279l341 287l52 -54l-282 -232l282 -224z" />
    <glyph glyph-name="equal" unicode="=" 
d="M71 138v66h408v-66h-408zM71 304v66h408v-66h-408z" />
    <glyph glyph-name="greater" unicode="&#x3e;" 
d="M130 -29l-52 52l282 233l-282 224l52 57l342 -280z" />
    <glyph glyph-name="question" unicode="?" horiz-adv-x="438" 
d="M241 48c0 -16 -5.5 -29.5 -16.5 -40.5s-24.833 -16.5 -41.5 -16.5c-16 0 -29.5 5.5 -40.5 16.5s-16.5 24.5 -16.5 40.5s5.5 29.5 16.5 40.5s24.5 16.5 40.5 16.5c16.667 0 30.5 -5.5 41.5 -16.5s16.5 -24.5 16.5 -40.5zM383 525
c0 -27.333 -5.50098 -50.665 -16.501 -69.998s-24.333 -37 -40 -53s-32 -31.333 -49 -46s-31.667 -30.834 -44 -48.501s-20.666 -37.834 -24.999 -60.501s-1.16602 -50 9.50098 -82h-80c-11.333 34 -15.333 63.667 -12 89s10.666 47.833 21.999 67.5s25.333 37.167 42 52.5
l48 44.5c15.333 14.333 28.333 29 39 44s16 31.833 16 50.5c0 40 -19 70.333 -57 91s-92.667 31 -164 31l7 75c50.667 0 95 -4.83301 133 -14.5s69.667 -22.667 95 -39s44.333 -35.833 57 -58.5s19 -47 19 -73z" />
    <glyph glyph-name="at" unicode="@" horiz-adv-x="836" 
d="M482 441c-9.33301 2 -18.667 3.33301 -28 4s-19 1 -29 1c-17.333 0 -32.166 -4.33301 -44.499 -13s-22.833 -20.5 -31.5 -35.5s-15 -32.167 -19 -51.5s-6 -39.333 -6 -60c0 -44.667 12.333 -67 37 -67c10.667 0 21.667 4.5 33 13.5s22 21.5 32 37.5s19.167 35 27.5 57
s15.166 46 20.499 72l8 42v0zM763.999 392c0 -33.333 -5.16895 -64.332 -15.502 -92.999s-24.666 -53.667 -42.999 -75s-40 -38.166 -65 -50.499s-52.5 -18.5 -82.5 -18.5c-16 0 -29.667 2.66699 -41 8s-20.666 12.5 -27.999 21.5s-12.5 19.333 -15.5 31
s-3.83301 23.5 -2.5 35.5h-2c-2.66699 -10 -8.16699 -20.667 -16.5 -32s-18.333 -21.666 -30 -30.999s-24.334 -17.166 -38.001 -23.499s-27.5 -9.5 -41.5 -9.5c-30 0 -52.5 10 -67.5 30s-22.5 49 -22.5 87c0 32.667 4 63 12 91s19.833 52.333 35.5 73
s35.167 36.834 58.5 48.501s50 17.5 80 17.5c21.333 0 42.333 -0.833008 63 -2.5s39.667 -4.16699 57 -7.5l-27 -168c-6.66699 -40 -6.16699 -68 1.5 -84s20.834 -24 39.501 -24c16.667 0 32.167 4.33301 46.5 13s26.666 20.667 36.999 36s18.5 33.5 24.5 54.5
s9 43.833 9 68.5c0 28 -4.83301 55.833 -14.5 83.5s-24.5 52.667 -44.5 75s-45.5 40.333 -76.5 54s-67.833 20.5 -110.5 20.5c-41.333 0 -80 -8 -116 -24s-67.5 -38 -94.5 -66s-48.333 -61.167 -64 -99.5s-23.5 -79.833 -23.5 -124.5c0 -39.333 5.83301 -76 17.5 -110
s28.834 -63.833 51.501 -89.5s50.667 -45.834 84 -60.501s71.333 -22 114 -22c24.667 0 48.834 1.83301 72.501 5.5s46.167 9.16699 67.5 16.5l12 -64c-24 -7.33301 -50.833 -13 -80.5 -17s-56.834 -6 -81.501 -6c-52 0 -98.5 8.66699 -139.5 26
s-75.833 41.166 -104.5 71.499s-50.5 66.333 -65.5 108s-22.5 86.5 -22.5 134.5c0 55.333 10 106.5 30 153.5s47.167 87.667 81.5 122s74.166 61.166 119.499 80.499s93.666 29 144.999 29s96.833 -7.83301 136.5 -23.5s72.834 -36.834 99.501 -63.501
s46.834 -57.834 60.501 -93.501s20.5 -73.167 20.5 -112.5z" />
    <glyph glyph-name="A" unicode="A" horiz-adv-x="614" 
d="M334 480c-6 16.667 -11.5 33.1689 -16.5 49.502s-9.5 33.166 -13.5 50.499h-2c-4 -16.667 -8.66699 -33.334 -14 -50.001l-17 -51l-91 -249h245zM506 0.00195312l-57 161h-292l-57 -161h-89l248 675h95l249 -675h-97z" />
    <glyph glyph-name="B" unicode="B" horiz-adv-x="569" 
d="M425 198c0 22.667 -4.83203 41.499 -14.499 56.499s-22.834 27 -39.501 36s-36.334 15.5 -59.001 19.5s-47.334 6 -74.001 6c-22 0 -43.333 -0.333008 -64 -1v-242c8.66699 -1.33301 20.334 -2.66602 35.001 -3.99902s32.334 -2 53.001 -2c56.667 0 98 12.333 124 37
s39 56 39 94zM411.001 501.999c0 15.333 -2.16797 29.501 -6.50098 42.501s-12 24.167 -23 33.5s-25.833 16.666 -44.5 21.999s-42 8 -70 8c-16 0 -32.167 -0.166992 -48.5 -0.5s-31.166 -0.833008 -44.499 -1.5v-224c22 -0.666992 42.667 -1 62 -1
c57.333 0 100.833 10.667 130.5 32s44.5 51 44.5 89zM515 201c0 -19.333 -3.49805 -40.834 -10.498 -64.501s-20.167 -45.834 -39.5 -66.501s-45.833 -38 -79.5 -52s-76.834 -21 -129.501 -21c-20 0 -45.167 0.333008 -75.5 1l-93.5 2v675
c24 0.666992 52.333 1.33398 85 2.00098s69.334 1 110.001 1c74.667 0 129.667 -14.333 165 -43s53 -68 53 -118c0 -18 -3 -35.333 -9 -52s-14.333 -32 -25 -46s-23.5 -26.167 -38.5 -36.5s-31.833 -18.166 -50.5 -23.499v-2c24 -4 44.667 -11 62 -21s31.666 -22 42.999 -36
s19.666 -29.5 24.999 -46.5s8 -34.5 8 -52.5z" />
    <glyph glyph-name="C" unicode="C" horiz-adv-x="585" 
d="M540 33c-24.667 -13.333 -53.4961 -23.501 -86.4961 -30.501s-68.5 -10.5 -106.5 -10.5c-52 0 -96.833 8 -134.5 24s-68.834 38.5 -93.501 67.5s-42.834 63.667 -54.501 104s-17.5 84.833 -17.5 133.5c0 51.333 6.16699 99 18.5 143s31.333 82 57 114
s58.167 57.167 97.5 75.5s86 27.5 140 27.5c28.667 0 57.667 -2.66699 87 -8s58 -13.666 86 -24.999l-21 -78c-25.333 11.333 -50.833 20.166 -76.5 26.499s-53.834 9.5 -84.501 9.5c-36.667 0 -68.334 -7.16699 -95.001 -21.5s-48.5 -33.666 -65.5 -57.999
s-29.5 -53 -37.5 -86s-12 -68.167 -12 -105.5c0 -85.333 18.5 -151 55.5 -197s93.5 -69 169.5 -69c30 0 58 3.33301 84 10s49.667 15.667 71 27l19 -73v0z" />
    <glyph glyph-name="D" unicode="D" horiz-adv-x="675" 
d="M537 339c0 88.667 -21.332 155.668 -63.999 201.001s-107.667 68 -195 68c-18 0 -36.667 -0.333008 -56 -1s-35.333 -1.33398 -48 -2.00098v-530c13.333 -2 28.5 -3.5 45.5 -4.5s32.167 -1.5 45.5 -1.5c39.333 0 75.666 5.33301 108.999 16s62 27 86 49
s42.833 50 56.5 84s20.5 74.333 20.5 121zM628.001 345.001c0 -58 -9.5 -108.833 -28.5 -152.5s-45.167 -80 -78.5 -109s-72.666 -50.833 -117.999 -65.5s-94.333 -22 -147 -22c-34 0 -64.5 0.666992 -91.5 2s-52.833 2 -77.5 2v674c26 0.666992 56.667 1.5 92 2.5
s71.333 1.5 108 1.5c52.667 0 100.167 -6.5 142.5 -19.5s78.166 -33.167 107.499 -60.5s51.833 -61.833 67.5 -103.5s23.5 -91.5 23.5 -149.5z" />
    <glyph glyph-name="E" unicode="E" horiz-adv-x="502" 
d="M87 0v675h344v-71h-257v-221h245v-70h-245v-241h257v-72h-344z" />
    <glyph glyph-name="F" unicode="F" horiz-adv-x="469" 
d="M174 604v-225h242v-70h-242v-309h-87v675h342v-71h-255z" />
    <glyph glyph-name="G" unicode="G" horiz-adv-x="683" 
d="M600 30c-34 -12.667 -70.3301 -22.334 -108.997 -29.001s-76.334 -10 -113.001 -10c-50.667 0 -96.5 7.5 -137.5 22.5s-76 36.833 -105 65.5s-51.5 63.667 -67.5 105s-24 88 -24 140s8.33301 100 25 144s40.334 82 71.001 114s68 57 112 75s93.667 27 149 27
c72 0 136.667 -11 194 -33l-21 -79c-26.667 12 -54.834 21.333 -84.501 28s-61.834 10 -96.501 10c-34 0 -66.5 -5.66699 -97.5 -17s-58.333 -28.5 -82 -51.5s-42.5 -51.667 -56.5 -86s-21 -74.5 -21 -120.5c0 -43.333 6 -81.666 18 -114.999s29.167 -61.333 51.5 -84
s49.166 -40 80.499 -52s66.333 -18 105 -18c23.333 0 45 1.66699 65 5s39.667 8 59 14v258h85v-313v0z" />
    <glyph glyph-name="H" unicode="H" horiz-adv-x="700" 
d="M526 0v314h-352v-314h-87v675h87v-288h352v288h86v-675h-86z" />
    <glyph glyph-name="I" unicode="I" horiz-adv-x="261" 
d="M87 0v675h87v-675h-87z" />
    <glyph glyph-name="J" unicode="J" horiz-adv-x="328" 
d="M242 174c0 -56 -12.665 -100.166 -37.998 -132.499s-68.333 -48.5 -129 -48.5c-26.667 0 -51.334 2.66699 -74.001 8v76c9.33301 -3.33301 20.166 -6 32.499 -8s24.833 -3 37.5 -3c13.333 0 25.333 1.66699 36 5s19.5 9.16602 26.5 17.499s12.333 19.833 16 34.5
s5.5 33.667 5.5 57v495h87v-501v0z" />
    <glyph glyph-name="K" unicode="K" horiz-adv-x="582" 
d="M448 0l-274 336v-336h-87v675h87v-320l275 320h106l-290 -326l301 -349h-118z" />
    <glyph glyph-name="L" unicode="L" horiz-adv-x="426" 
d="M87 0v675h87v-601h245v-74h-332z" />
    <glyph glyph-name="M" unicode="M" horiz-adv-x="890" 
d="M748 0l-58 398.999l-13 99c-3.33301 26 -6 48.667 -8 68h-2c-3.33301 -15.333 -7.66602 -33 -12.999 -53s-12 -41.667 -20 -65l-150 -448h-93l-142 418c-8.66699 25.333 -17 51 -25 77s-14 49.667 -18 71h-1c-2 -27.333 -4.66699 -54.833 -8 -82.5l-11 -92.5l-47 -391
h-88l98 675h107l146 -436l22 -70.5c6.66699 -22.333 12 -43.166 16 -62.499h2c5.33301 23.333 10.666 44.333 15.999 63s12 39.667 20 63l151 443h109l102 -675h-92z" />
    <glyph glyph-name="N" unicode="N" horiz-adv-x="708" 
d="M508 0l-265.999 428.999c-30 48.667 -55.667 95 -77 139l2.5 -71c1 -28.667 1.83301 -59.5 2.5 -92.5s1.16699 -66.167 1.5 -99.5s0.5 -64 0.5 -92v-213h-85v675h114l260 -417c15.333 -24 29.833 -48.5 43.5 -73.5l39.5 -72.5c-1.33301 21.333 -2.33301 47.333 -3 78
s-1.33398 63 -2.00098 97s-1.16699 68.333 -1.5 103s-0.5 66.334 -0.5 95.001v190h84v-675h-113z" />
    <glyph glyph-name="O" unicode="O" horiz-adv-x="705" 
d="M570 334c0 88.667 -18.998 156.668 -56.998 204.001s-91.667 71 -161 71c-28.667 0 -56.167 -5.66699 -82.5 -17s-49.5 -28.333 -69.5 -51s-35.833 -50.5 -47.5 -83.5s-17.5 -71.167 -17.5 -114.5c0 -41.333 4.33301 -78.833 13 -112.5s22 -62.667 40 -87
s40.5 -43.166 67.5 -56.499s58.833 -20 95.5 -20c28 0 55.167 5.66699 81.5 17s49.666 28.166 69.999 50.499s36.666 50.166 48.999 83.499s18.5 72 18.5 116zM662.002 345.001c0 -56 -8.33301 -106.001 -25 -150.001s-39.5 -81.167 -68.5 -111.5
s-62.833 -53.5 -101.5 -69.5s-80 -24 -124 -24c-50.667 0 -94.667 8.16699 -132 24.5s-68.5 39.333 -93.5 69s-43.667 65.334 -56 107.001s-18.5 88.167 -18.5 139.5c0 56.667 8.33301 107 25 151s39.5 81.167 68.5 111.5s62.833 53.333 101.5 69s80 23.5 124 23.5
c45.333 0 86.5 -7.33301 123.5 -22s68.5 -36.5 94.5 -65.5s46.167 -64.667 60.5 -107s21.5 -90.833 21.5 -145.5z" />
    <glyph glyph-name="P" unicode="P" horiz-adv-x="523" 
d="M399 473c0 44 -12.833 77.333 -38.5 100s-65.834 34 -120.501 34h-36c-10.667 0 -20.667 -0.333008 -30 -1v-272c8.66699 -1.33301 17.834 -2.33301 27.501 -3s19.5 -1 29.5 -1c52 0 93 13 123 39s45 60.667 45 104zM490 483c0 -33.333 -6.5 -63.667 -19.5 -91
s-31.167 -50.833 -54.5 -70.5s-50.833 -35 -82.5 -46s-66.5 -16.5 -104.5 -16.5h-28c-8.66699 0 -17.667 0.666992 -27 2v-261h-87v675c24.667 1.33301 50.667 2.33301 78 3s56 1 86 1c77.333 0 136.5 -17.833 177.5 -53.5s61.5 -83.167 61.5 -142.5z" />
    <glyph glyph-name="Q" unicode="Q" horiz-adv-x="705" 
d="M570 334c0 88.667 -18.998 156.668 -56.998 204.001s-91.667 71 -161 71c-28.667 0 -56.167 -5.66699 -82.5 -17s-49.5 -28.333 -69.5 -51s-35.833 -50.5 -47.5 -83.5s-17.5 -71.167 -17.5 -114.5c0 -41.333 4.33301 -78.833 13 -112.5s22 -62.667 40 -87
s40.5 -43.166 67.5 -56.499s58.833 -20 95.5 -20c28 0 55.167 5.66699 81.5 17s49.666 28.166 69.999 50.499s36.666 50.166 48.999 83.499s18.5 72 18.5 116zM703.002 -182.999c-42.667 -6 -80 -6.83203 -112 -2.49902s-62 10 -90 17s-56 13 -84 18
s-59.333 5.16699 -94 0.5v77c40 4.66699 75 4.66699 105 0s59 -10.334 87 -17.001s56.667 -12.167 86 -16.5s63.333 -3.83301 102 1.5v-78v0zM662.002 345.002c0 -56 -8.33301 -106.001 -25 -150.001s-39.5 -81.167 -68.5 -111.5s-62.833 -53.5 -101.5 -69.5
s-80 -24 -124 -24c-50.667 0 -94.667 8.16699 -132 24.5s-68.5 39.333 -93.5 69s-43.667 65.334 -56 107.001s-18.5 88.167 -18.5 139.5c0 56.667 8.33301 107 25 151s39.5 81.167 68.5 111.5s62.833 53.333 101.5 69s80 23.5 124 23.5c45.333 0 86.5 -7.33301 123.5 -22
s68.5 -36.5 94.5 -65.5s46.167 -64.667 60.5 -107s21.5 -90.833 21.5 -145.5z" />
    <glyph glyph-name="R" unicode="R" horiz-adv-x="551" 
d="M389 493c0 42 -13 71.832 -39 89.499s-64 26.5 -114 26.5c-23.333 0 -44 -1 -62 -3v-234c5.33301 -0.666992 13 -1.16699 23 -1.5s22 -0.5 36 -0.5c50 0 88.5 11.333 115.5 34s40.5 52.334 40.5 89.001zM412 -0.000976562l-203 304.002h-35v-304h-87v675
c22.667 1.33301 46.667 2.33301 72 3s56.666 1 93.999 1c32.667 0 62.834 -3 90.501 -9s51.5 -16 71.5 -30s35.667 -32 47 -54s17 -49 17 -81c0 -28.667 -5 -54.167 -15 -76.5s-23.167 -41.333 -39.5 -57s-35.333 -28.334 -57 -38.001s-44.167 -15.834 -67.5 -18.501
l223 -315h-111z" />
    <glyph glyph-name="S" unicode="S" horiz-adv-x="503" 
d="M451 193c0 -30 -5.83105 -57.501 -17.498 -82.501s-28 -46.333 -49 -64s-46.167 -31.334 -75.5 -41.001s-62 -14.5 -98 -14.5c-30.667 0 -59.334 1.66699 -86.001 5s-50 8.66602 -70 15.999l17 83c20 -9.33301 42.167 -16.5 66.5 -21.5s51.5 -7.5 81.5 -7.5
c17.333 0 34.5 2 51.5 6s32.167 10.5 45.5 19.5s24 20.833 32 35.5s12 32.667 12 54c0 12.667 -2 24.5 -6 35.5s-10.833 21.5 -20.5 31.5s-22.667 19.833 -39 29.5s-36.833 19.834 -61.5 30.501l-37 16c-50.667 22 -87 46.833 -109 74.5s-33 61.167 -33 100.5
c0 27.333 5.16699 52.333 15.5 75s25.166 42.167 44.499 58.5s43 29 71 38s59.667 13.5 95 13.5c25.333 0 48.5 -1 69.5 -3s42.167 -5.66699 63.5 -11l-16 -77c-17.333 6 -36 10.667 -56 14s-41.667 5 -65 5c-44 0 -77.167 -9 -99.5 -27s-33.5 -43.333 -33.5 -76
c0 -26.667 9 -48.667 27 -66s44.333 -33.666 79 -48.999l39 -17c54 -23.333 94.5 -48.666 121.5 -75.999s40.5 -63.333 40.5 -108z" />
    <glyph glyph-name="T" unicode="T" horiz-adv-x="517" 
d="M302 603v-603h-87v603h-197v72h481v-72h-197z" />
    <glyph glyph-name="U" unicode="U" horiz-adv-x="695" 
d="M607 265c0 -88.667 -23.001 -156.667 -69.001 -204s-112.667 -71 -200 -71c-51.333 0 -93.333 7.5 -126 22.5s-58.167 34.833 -76.5 59.5s-31 52.334 -38 83.001s-10.5 62 -10.5 94v426h87v-419c0 -26 2.5 -50.833 7.5 -74.5s14 -44.334 27 -62.001
s30.5 -31.667 52.5 -42s50 -15.5 84 -15.5c60.667 0 105.334 15.167 134.001 45.5s43 80.5 43 150.5v417h85v-410v0z" />
    <glyph glyph-name="V" unicode="V" horiz-adv-x="616" 
d="M353 0l-97 -0.000976562l-244 675h96l154 -440c7.33301 -19.333 14.833 -41.333 22.5 -66l22.5 -75h1c6.66699 24.667 14 48.834 22 72.501l26 75.5l158 433h88z" />
    <glyph glyph-name="W" unicode="W" horiz-adv-x="952" 
d="M738 0l-107 0.00195312l-133 466c-5.33301 19.333 -10 38.5 -14 57.5s-7.66699 37.5 -11 55.5h-1c-4.66699 -36 -12.667 -73.667 -24 -113l-129 -466h-105l-179 675h93l117 -449c6 -23.333 11.167 -45.333 15.5 -66s8.16602 -41.667 11.499 -63h1
c3.33301 21.333 7.33301 42.333 12 63s9.66699 40.667 15 60l128 455h99l133 -459c5.33301 -17.333 10.333 -36.333 15 -57s8.66699 -41 12 -61h1c3.33301 19.333 6.83301 37.666 10.5 54.999s7.83398 34.666 12.501 51.999l120 470h86z" />
    <glyph glyph-name="X" unicode="X" horiz-adv-x="595" 
d="M469 0l-176 283l-175 -283h-100l223 348l-209 327h100l163 -261l160 261h98l-206 -323l230 -352h-108z" />
    <glyph glyph-name="Y" unicode="Y" horiz-adv-x="533" 
d="M307 244v-244h-86v244l-211 431h95l110 -233l27 -59.5c8.66699 -19.667 16.667 -39.167 24 -58.5h1c8 21.333 17.167 42.833 27.5 64.5l31.5 65.5l106 221h91z" />
    <glyph glyph-name="Z" unicode="Z" horiz-adv-x="539" 
d="M46 0v63l289 453l54 82h-333v77h435v-65l-304 -472l-39 -59h347v-79h-449z" />
    <glyph glyph-name="bracketleft" unicode="[" horiz-adv-x="321" 
d="M88 -198v968h195v-64h-116v-838h116v-66h-195z" />
    <glyph glyph-name="backslash" unicode="\" horiz-adv-x="408" 
d="M293 0l-258 675h77l261 -675h-80z" />
    <glyph glyph-name="bracketright" unicode="]" horiz-adv-x="321" 
d="M38 -198v66h116v838h-116v64h195v-968h-195z" />
    <glyph glyph-name="asciicircum" unicode="^" 
d="M414 344l-144 269l-138 -269l-55 29l162 302h65l169 -301z" />
    <glyph glyph-name="underscore" unicode="_" 
d="M0 -248v67h550v-67h-550z" />
    <glyph glyph-name="grave" unicode="`" horiz-adv-x="368" 
d="M243 576l-146 99l44 60l138 -111z" />
    <glyph glyph-name="a" unicode="a" horiz-adv-x="521" 
d="M348 234c-44 0 -80.167 -3 -108.5 -9s-50.833 -13.667 -67.5 -23s-28.167 -20.333 -34.5 -33s-9.5 -25.334 -9.5 -38.001c0 -21.333 7.5 -38.833 22.5 -52.5s34.5 -20.5 58.5 -20.5c20.667 0 39.5 4.66699 56.5 14s31.667 21.833 44 37.5s21.833 33.334 28.5 53.001
s10 39.5 10 59.5v12zM352 0c0 18 0.167969 35.833 0.500977 53.5s1.83301 33.5 4.5 47.5h-2c-12 -31.333 -32.833 -57.5 -62.5 -78.5s-65.5 -31.5 -107.5 -31.5c-40.667 0 -74.167 11.167 -100.5 33.5s-39.5 53.5 -39.5 93.5c0 54 26 96.833 78 128.5s127 47.5 225 47.5v26
c0 40 -8 69.833 -24 89.5s-46 29.5 -90 29.5c-25.333 0 -50 -3.33301 -74 -10s-46 -15.667 -66 -27l-18 69c21.333 9.33301 46.666 17.666 75.999 24.999s61 11 95 11c36.667 0 67 -4.16699 91 -12.5s43 -20.166 57 -35.499s23.667 -33.833 29 -55.5s8 -45.5 8 -71.5v-187
c0 -24 0.166992 -48.833 0.5 -74.5s0.833008 -49.167 1.5 -70.5h-82z" />
    <glyph glyph-name="b" unicode="b" horiz-adv-x="558" 
d="M426 264c0 54.667 -9.16895 97 -27.502 127s-47.166 45 -86.499 45c-23.333 0 -43.666 -6.16699 -60.999 -18.5s-31.833 -28 -43.5 -47s-20.5 -40 -26.5 -63s-9 -45.167 -9 -66.5v-168c26 -8.66699 56.333 -13 91 -13c24.667 0 47 3.83301 67 11.5s37.167 19.667 51.5 36
s25.333 37.5 33 63.5s11.5 57 11.5 93zM513.998 272c0 -44 -6.00195 -83.166 -18.002 -117.499s-29.167 -63.5 -51.5 -87.5s-49.333 -42.333 -81 -55s-67.5 -19 -107.5 -19c-34 0 -64 1.5 -90 4.5s-52.333 8.16699 -79 15.5v717h85v-245c0 -14.667 -0.666992 -30.5 -2 -47.5
s-3.66602 -31.833 -6.99902 -44.5l2 -1c13.333 36 34.833 64 64.5 84s63.5 30 101.5 30c58.667 0 103.834 -19.833 135.501 -59.5s47.5 -97.834 47.5 -174.501z" />
    <glyph glyph-name="c" unicode="c" horiz-adv-x="447" 
d="M418 30c-22.667 -11.333 -47.667 -20.332 -75 -26.999s-55.666 -10 -84.999 -10s-57 3.83301 -83 11.5s-48.833 20.667 -68.5 39s-35.334 42.833 -47.001 73.5s-17.5 69 -17.5 115c0 40.667 4.83301 77.834 14.5 111.501s24.5 62.5 44.5 86.5s44.833 42.5 74.5 55.5
s64.5 19.5 104.5 19.5c23.333 0 46 -2.33301 68 -7s43.667 -11.334 65 -20.001l-21 -71c-38.667 18.667 -78.334 28 -119.001 28c-48 0 -83.667 -16.667 -107 -50s-35 -80.333 -35 -141c0 -24.667 2.16699 -47.834 6.5 -69.501s11.833 -40.5 22.5 -56.5
s24.834 -28.667 42.501 -38s40.167 -14 67.5 -14c24 0 47.333 2.83301 70 8.5s42.667 13.167 60 22.5l18 -67v0z" />
    <glyph glyph-name="d" unicode="d" horiz-adv-x="557" 
d="M385 426c-15.333 4 -30.665 6.83301 -45.998 8.5s-30.333 2.5 -45 2.5c-24.667 0 -47 -3.83301 -67 -11.5s-37.167 -19.667 -51.5 -36s-25.333 -37.5 -33 -63.5s-11.5 -57 -11.5 -93c0 -54.667 9.16699 -97 27.5 -127s47.166 -45 86.499 -45
c23.333 0 43.666 6.16699 60.999 18.5s31.833 28 43.5 47s20.5 40 26.5 63s9 45.5 9 67.5v169zM387.001 0c0 14.667 0.500977 31.833 1.50098 51.5s3.16699 37.167 6.5 52.5l-2 1c-13.333 -34.667 -34.666 -62.334 -63.999 -83.001s-64 -31 -104 -31
c-61.333 0 -107.166 20.833 -137.499 62.5s-45.5 98.834 -45.5 171.501c0 44 6 83.167 18 117.5s29.167 63.5 51.5 87.5s49.166 42.333 80.499 55s66.666 19 105.999 19c14 0 28.167 -0.5 42.5 -1.5s29.166 -2.16699 44.499 -3.5v231h85v-730h-83z" />
    <glyph glyph-name="e" unicode="e" horiz-adv-x="507" 
d="M373 315c1.33301 39.333 -8.33301 70.5 -29 93.5s-49 34.5 -85 34.5c-34 0 -62 -11.333 -84 -34s-35.667 -54 -41 -94h239v0zM458.001 295l0.000976562 -18.999c0 -6.66699 -0.666992 -14 -2 -22h-326c-2.66699 -68 9.16602 -117.333 35.499 -148s65.5 -46 117.5 -46
c28 0 54.833 2.83301 80.5 8.5s48.167 13.167 67.5 22.5l15 -68c-23.333 -9.33301 -50.333 -17 -81 -23s-63 -9 -97 -9c-73.333 0 -129.666 20.667 -168.999 62s-58.333 105.666 -57 192.999c0 37.333 5 71.833 15 103.5s24.5 59.167 43.5 82.5s42.167 41.5 69.5 54.5
s58.666 19.5 93.999 19.5c34.667 0 64.167 -5.66699 88.5 -17s44.333 -26.833 60 -46.5s27.167 -42.167 34.5 -67.5s11 -52 11 -80z" />
    <glyph glyph-name="f" unicode="f" horiz-adv-x="349" 
d="M375 656c-11.333 4 -23.498 6.83203 -36.498 8.49902s-25.5 2.5 -37.5 2.5c-36.667 0 -63.334 -10.667 -80.001 -32s-25 -54.666 -25 -99.999v-38h141v-66h-141v-431h-85v431h-104v66h104v36c0 69.333 16.333 120.5 49 153.5s79.667 49.5 141 49.5
c14 0 28.667 -0.833008 44 -2.5s29.666 -4.16699 42.999 -7.5z" />
    <glyph glyph-name="g" unicode="g" horiz-adv-x="546" 
d="M421 -86c0 22.667 -7.50098 41.332 -22.501 55.999s-42.167 23 -81.5 25l-124 6c-20 -12 -37.667 -27.333 -53 -46s-23 -37.667 -23 -57c0 -28 12.333 -49.833 37 -65.5s58.334 -23.5 101.001 -23.5c28.667 0 53.5 3 74.5 9s38.333 13.833 52 23.5
s23.667 20.834 30 33.501s9.5 25.667 9.5 39zM379.999 326.998c0 32.667 -9.99902 60.166 -29.999 82.499s-50 33.5 -90 33.5c-18.667 0 -35.334 -3 -50.001 -9s-27.167 -14.333 -37.5 -25s-18.333 -23 -24 -37s-8.5 -29 -8.5 -45c0 -33.333 10.5 -60.666 31.5 -81.999
s49.833 -32 86.5 -32c36 0 65.333 10.5 88 31.5s34 48.5 34 82.5zM427 430.997c11.333 -12 19.999 -26.4941 25.999 -43.4941s9 -35.5 9 -55.5c0 -25.333 -4.83301 -49 -14.5 -71s-23.667 -41.333 -42 -58s-40.666 -29.834 -66.999 -39.501s-56.166 -14.5 -89.499 -14.5
c-10 0 -19.833 0.5 -29.5 1.5s-17.167 2.16699 -22.5 3.5c-20.667 -14.667 -31 -30.334 -31 -47.001c0 -11.333 6.16699 -19.666 18.5 -24.999s32.166 -8.66602 59.499 -9.99902l90 -4c60 -2.66699 103.5 -16.834 130.5 -42.501s40.5 -58.5 40.5 -98.5
c0 -25.333 -5.83301 -49.166 -17.5 -71.499s-28.667 -41.833 -51 -58.5s-49.833 -29.834 -82.5 -39.501s-70.334 -14.5 -113.001 -14.5c-29.333 0 -56.666 3 -81.999 9s-47.333 15 -66 27s-33.334 26.833 -44.001 44.5s-16 38.167 -16 61.5c0 27.333 9 53.166 27 77.499
s40 43.166 66 56.499c-32.667 12.667 -49 35.667 -49 69c0 17.333 5.33301 33.666 16 48.999s24.667 28.666 42 39.999c-25.333 13.333 -44.333 32 -57 56s-19 52 -19 84c0 25.333 4.66699 49.5 14 72.5s22.833 43.167 40.5 60.5s39.5 31 65.5 41s55.667 15 89 15
c13.333 0 25.333 -0.833008 36 -2.5s22.334 -3.83398 35.001 -6.50098h174v-66h-86z" />
    <glyph glyph-name="h" unicode="h" horiz-adv-x="576" 
d="M405 0l-0.000976562 320.997c0 36.667 -6.16699 65.167 -18.5 85.5s-35.5 30.5 -69.5 30.5c-21.333 0 -40.833 -5 -58.5 -15s-33 -23.833 -46 -41.5s-23 -38.667 -30 -63s-10.5 -50.5 -10.5 -78.5v-239h-85v730h85v-238c0 -16 -0.666992 -33.167 -2 -51.5
s-3.66602 -34.166 -6.99902 -47.499l2 -1c14.667 35.333 36.834 63.333 66.501 84s65.5 31 107.5 31c28.667 0 52.667 -4.16699 72 -12.5s34.666 -19.666 45.999 -33.999s19.5 -31.166 24.5 -50.499s7.5 -40 7.5 -62v-348h-84z" />
    <glyph glyph-name="i" unicode="i" horiz-adv-x="259" 
d="M87 0v497h85v-497h-85zM187 654c0 -15.333 -5.66699 -28.5 -17 -39.5s-24.666 -16.5 -39.999 -16.5c-16 0 -29.5 5.5 -40.5 16.5s-16.5 24.167 -16.5 39.5s5.5 28.333 16.5 39s24.5 16 40.5 16c15.333 0 28.666 -5.16699 39.999 -15.5s17 -23.5 17 -39.5z" />
    <glyph glyph-name="j" unicode="j" horiz-adv-x="265" 
d="M178 -58c0 -66 -12.333 -115.167 -37 -147.5s-68.667 -48.5 -132 -48.5c-11.333 0 -23.666 0.833008 -36.999 2.5s-24.666 4.16699 -33.999 7.5l12 71c9.33301 -3.33301 19.333 -5.83301 30 -7.5s21.667 -2.5 33 -2.5c16 0 29.167 1.83301 39.5 5.5s18.666 10 24.999 19
s10.666 21 12.999 36s3.5 34.167 3.5 57.5v562h84v-555v0zM193 654c0 -15.333 -5.66699 -28.5 -17 -39.5s-24.666 -16.5 -39.999 -16.5s-28.666 5.5 -39.999 16.5s-17 24.167 -17 39.5s5.66699 28.333 17 39s24.666 16 39.999 16s28.666 -5.16699 39.999 -15.5
s17 -23.5 17 -39.5z" />
    <glyph glyph-name="k" unicode="k" horiz-adv-x="489" 
d="M360 0l-188 258v-258h-85v730h85v-453l179 220h102l-193 -227l209 -270h-109z" />
    <glyph glyph-name="l" unicode="l" horiz-adv-x="259" 
d="M87 0v730h85v-730h-85z" />
    <glyph glyph-name="m" unicode="m" horiz-adv-x="880" 
d="M708 0l-0.00292969 320.001c0 35.333 -5.66699 63.666 -17 84.999s-33.666 32 -66.999 32c-18 0 -35.667 -4.66699 -53 -14s-32.5 -22.666 -45.5 -39.999s-23.5 -38.333 -31.5 -63s-12 -52.334 -12 -83.001v-237h-84v321c0 16 -1 31 -3 45s-6 26.333 -12 37
s-14.5 19 -25.5 25s-25.5 9 -43.5 9c-19.333 0 -37.666 -5 -54.999 -15s-32.5 -23.833 -45.5 -41.5s-23.167 -38.667 -30.5 -63s-11 -51.166 -11 -80.499v-237h-85v497h83c0 -15.333 -0.666992 -33 -2 -53s-3.66602 -37.667 -6.99902 -53l2 -1
c14.667 36 37.334 64.5 68.001 85.5s66 31.5 106 31.5c26.667 0 48.834 -4.16699 66.501 -12.5s31.667 -18.5 42 -30.5s17.666 -24.5 21.999 -37.5s6.83301 -24.5 7.5 -34.5c4.66699 12 11.667 24.667 21 38s21 25.666 35 36.999s30.5 20.833 49.5 28.5
s40.833 11.5 65.5 11.5c47.333 0 83.666 -13 108.999 -39s38 -67.333 38 -124v-344h-85z" />
    <glyph glyph-name="n" unicode="n" horiz-adv-x="576" 
d="M405 0v320.998c0 36.667 -6.16699 65.167 -18.5 85.5s-35.5 30.5 -69.5 30.5c-21.333 0 -40.833 -5 -58.5 -15s-33 -23.833 -46 -41.5s-23 -38.667 -30 -63s-10.5 -50.5 -10.5 -78.5v-239h-85v497h83c0 -15.333 -0.666992 -33.166 -2 -53.499
s-3.66602 -37.833 -6.99902 -52.5l2 -1c14.667 35.333 37 63.666 67 84.999s66.333 32 109 32c28.667 0 52.667 -4.16699 72 -12.5s34.666 -19.666 45.999 -33.999s19.5 -31.166 24.5 -50.499s7.5 -40 7.5 -62v-348h-84z" />
    <glyph glyph-name="o" unicode="o" horiz-adv-x="544" 
d="M415 252c0 58.667 -11.834 104 -35.501 136s-59.5 48 -107.5 48c-18.667 0 -36.667 -3.66699 -54 -11s-32.666 -18.5 -45.999 -33.5s-24 -34 -32 -57s-12 -50.167 -12 -81.5c0 -62 12.333 -109.333 37 -142s60.667 -49 108 -49c18.667 0 36.667 3.83301 54 11.5
s32.5 19.167 45.5 34.5s23.333 35 31 59s11.5 52.333 11.5 85zM502.999 257c0 -37.333 -5.66895 -72.168 -17.002 -104.501s-27.5 -60.5 -48.5 -84.5s-46.333 -42.833 -76 -56.5s-62.834 -20.5 -99.501 -20.5c-34 0 -64.667 5 -92 15s-50.666 25.5 -69.999 46.5
s-34.166 47.333 -44.499 79s-15.5 69.5 -15.5 113.5c0 36 5.5 69.833 16.5 101.5s26.833 59.334 47.5 83.001s45.834 42.334 75.501 56.001s63.167 20.5 100.5 20.5c31.333 0 60.5 -4.5 87.5 -13.5s50.5 -23.5 70.5 -43.5s35.833 -45.833 47.5 -77.5
s17.5 -69.834 17.5 -114.501z" />
    <glyph glyph-name="p" unicode="p" horiz-adv-x="558" 
d="M426 259c0 56 -9.16895 99.5 -27.502 130.5s-46.5 46.5 -84.5 46.5c-24 0 -44.833 -6.16699 -62.5 -18.5s-32.334 -28.166 -44.001 -47.499s-20.5 -40.833 -26.5 -64.5s-9 -46.834 -9 -69.501v-158c13.333 -6 27.833 -10.5 43.5 -13.5s34.834 -4.5 57.501 -4.5
c22 0 42.333 3.83301 61 11.5s34.834 19.5 48.501 35.5s24.334 36.5 32.001 61.5s11.5 55.167 11.5 90.5zM513.998 267c0 -43.333 -5.83594 -81.834 -17.5029 -115.501s-28.167 -62.167 -49.5 -85.5s-47.166 -41.166 -77.499 -53.499s-64.166 -18.5 -101.499 -18.5
c-20.667 0 -38 0.833008 -52 2.5s-28.667 4.16699 -44 7.5v-252h-85v745h83c0 -14.667 -0.666992 -32 -2 -52s-3.66602 -37.333 -6.99902 -52l2 -1c14 36 35.667 64 65 84s64 30 104 30c58.667 0 103.667 -20.167 135 -60.5s47 -99.833 47 -178.5z" />
    <glyph glyph-name="q" unicode="q" horiz-adv-x="558" 
d="M387 427c-29.333 6.66699 -60.001 10 -92.001 10c-24 0 -46 -3.83301 -66 -11.5s-37.167 -19.667 -51.5 -36s-25.333 -37.5 -33 -63.5s-11.5 -57 -11.5 -93c0 -54.667 9.16699 -97 27.5 -127s46.833 -45 85.5 -45c23.333 0 43.833 6.16699 61.5 18.5s32.334 28 44.001 47
s20.5 40.167 26.5 63.5s9 46 9 68v169zM386.999 -248v263c0 11.333 0.333008 25 1 41s2.66699 31.667 6 47l-2 1c-13.333 -35.333 -34.5 -63 -63.5 -83s-62.5 -30 -100.5 -30c-58.667 0 -104 19.333 -136 58s-48 97 -48 175c0 88.667 23 157.667 69 207s110 74 192 74
c29.333 0 58 -1.33301 86 -4s54.667 -6 80 -10v-739h-84z" />
    <glyph glyph-name="r" unicode="r" horiz-adv-x="368" 
d="M342 421c-15.333 3.33301 -28.667 5.00098 -40 5.00098c-46 0 -79.167 -19.833 -99.5 -59.5s-30.5 -95.167 -30.5 -166.5v-200h-85v497h83c0 -16 -1 -34.833 -3 -56.5s-5 -42.834 -9 -63.501l2 -1c11.333 38 29.666 69.333 54.999 94s59 37 101 37
c5.33301 0 11.333 -0.333008 18 -1s12.334 -1.66699 17.001 -3z" />
    <glyph glyph-name="s" unicode="s" horiz-adv-x="426" 
d="M375 143c0 -23.333 -4.99902 -44.334 -14.999 -63.001s-23.833 -34.5 -41.5 -47.5s-38.834 -23.167 -63.501 -30.5s-51.667 -11 -81 -11c-22.667 0 -44.167 1.66699 -64.5 5s-39.5 8 -57.5 14l12 75c17.333 -7.33301 36 -13.166 56 -17.499s42 -6.5 66 -6.5
c27.333 0 50.833 5.83301 70.5 17.5s29.5 29.5 29.5 53.5c0 19.333 -6.5 35 -19.5 47s-34.5 23.667 -64.5 35l-31 12c-42 16 -71.833 34.5 -89.5 55.5s-26.5 48.833 -26.5 83.5c0 19.333 4 37.666 12 54.999s20 32.333 36 45s35.833 22.667 59.5 30s51.167 11 82.5 11
c16.667 0 33.667 -0.833008 51 -2.5s33.666 -4.16699 48.999 -7.5l-10 -71c-16 5.33301 -31.833 9.33301 -47.5 12s-33.167 4 -52.5 4c-33.333 0 -57 -6.83301 -71 -20.5s-21 -29.5 -21 -47.5c0 -18.667 6.33301 -34.167 19 -46.5s36.334 -25.166 71.001 -38.499l33 -13
c36 -14 63.167 -31 81.5 -51s27.5 -47 27.5 -81z" />
    <glyph glyph-name="t" unicode="t" horiz-adv-x="371" 
d="M339 6c-14.667 -3.33301 -31.168 -6.5 -49.501 -9.5s-35.166 -4.5 -50.499 -4.5c-25.333 0 -46.5 2.83301 -63.5 8.5s-30.5 14.5 -40.5 26.5s-17.167 27.333 -21.5 46s-6.5 41 -6.5 67v291h-104v66h104v162l84 24v-186h142v-66h-142v-259
c0 -21.333 1.16699 -38.833 3.5 -52.5s6 -24.5 11 -32.5s11.667 -13.667 20 -17s18.833 -5 31.5 -5c14 0 27 1 39 3s23.667 4.66699 35 8l8 -70v0z" />
    <glyph glyph-name="u" unicode="u" horiz-adv-x="576" 
d="M406 0c0 15.333 0.667969 33.168 2.00098 53.501s3.33301 37.833 6 52.5l-2 1c-14 -35.333 -36 -63.666 -66 -84.999s-66.667 -32 -110 -32c-28.667 0 -52.5 4.16699 -71.5 12.5s-34.333 19.666 -46 33.999s-19.834 31.166 -24.501 50.499s-7 40 -7 62v348h84v-321
c0 -36.667 6.16699 -65.167 18.5 -85.5s35.5 -30.5 69.5 -30.5c21.333 0 40.833 5 58.5 15s33 23.833 46 41.5s23.167 38.667 30.5 63s11 50.5 11 78.5v239h84v-497h-83z" />
    <glyph glyph-name="v" unicode="v" horiz-adv-x="483" 
d="M284 0h-88l-187 497h95l109 -306l15 -46.5c4.66699 -15 9 -30.167 13 -45.5h2l13 44c4.66699 15.333 9.66699 30.333 15 45l112 309h91z" />
    <glyph glyph-name="w" unicode="w" horiz-adv-x="793" 
d="M614 0h-96.001l-102 303c-5.33301 15.333 -10.166 31.166 -14.499 47.499l-13.5 50.5h-1c-5.33301 -22 -11 -43 -17 -63l-19 -62l-86 -276h-95l-153 497h93l80 -276l18.5 -67l16.5 -60h1l16 63.5c5.33301 21 11.333 41.5 18 61.5l88 278h92l90 -275l13 -41
c4 -12 7.5 -23 10.5 -33s5.66699 -19.5 8 -28.5s4.5 -17.833 6.5 -26.5h1c4.66699 20.667 9.66699 40.334 15 59.001l19 66l83 279h90z" />
    <glyph glyph-name="x" unicode="x" horiz-adv-x="517" 
d="M385 0l-130 194l-130 -194h-103l185 249l-176 248h104l127 -190l129 190h95l-173 -245l182 -252h-110z" />
    <glyph glyph-name="y" unicode="y" horiz-adv-x="477" 
d="M261 -49c-14.667 -38.667 -29.166 -71.165 -43.499 -97.498s-30 -47.5 -47 -63.5s-35.5 -27.5 -55.5 -34.5s-43 -10.5 -69 -10.5c-10 0 -21.333 0.833008 -34 2.5s-24 4.16699 -34 7.5l15 73c8.66699 -4 18.167 -6.66699 28.5 -8s21.166 -2 32.499 -2
c14 0 26.5 1.83301 37.5 5.5s21.167 10.167 30.5 19.5s18.5 22.166 27.5 38.499s18.167 37.166 27.5 62.499l21 56l-188 497h96l98 -268c8 -22.667 15 -43.667 21 -63s11.667 -38.666 17 -57.999h1c4.66699 17.333 11.667 40.166 21 68.499l29 84.5l83 236h92z" />
    <glyph glyph-name="z" unicode="z" horiz-adv-x="447" 
d="M48 0v59l243 363h-238v75h337v-59l-240 -360h245v-78h-347z" />
    <glyph glyph-name="braceleft" unicode="{" horiz-adv-x="338" 
d="M288 -198c-55.333 0 -94.501 16.001 -117.501 48.001s-34.5 79.667 -34.5 143v181c0 38.667 -8 66 -24 82s-43.667 25 -83 27v68c20 0.666992 36.833 3 50.5 7s24.667 10 33 18s14.333 18.833 18 32.5s5.5 30.5 5.5 50.5v121c0 28 2.5 53.5 7.5 76.5s13.333 43 25 60
s27.167 30.167 46.5 39.5s43.666 14 72.999 14h18v-64c-17.333 0 -32 -2 -44 -6s-21.5 -10.833 -28.5 -20.5s-12 -22.334 -15 -38.001s-4.5 -35.167 -4.5 -58.5v-120c0 -44 -7.66699 -77.667 -23 -101s-38.666 -38 -69.999 -44v-1
c30.667 -5.33301 53.834 -20.333 69.501 -45s23.5 -58.667 23.5 -102v-179c0 -23.333 1.5 -43 4.5 -59s8 -28.667 15 -38s16.5 -16 28.5 -20s26.667 -6 44 -6v-66h-18z" />
    <glyph glyph-name="bar" unicode="|" horiz-adv-x="275" 
d="M104 -250v1000h67v-1000h-67z" />
    <glyph glyph-name="braceright" unicode="}" horiz-adv-x="335" 
d="M315 283c-39.333 -2 -67.0029 -10.835 -83.0029 -26.502s-24 -43.167 -24 -82.5v-181c0 -63.333 -11.333 -111 -34 -143s-62 -48 -118 -48h-18v66c17.333 0 32 2 44 6s21.5 10.667 28.5 20s12 22 15 38s4.5 35.667 4.5 59v179c0 43.333 8 77.333 24 102s39 39.667 69 45
v1c-31.333 4.66699 -54.666 18.834 -69.999 42.501s-23 56.5 -23 98.5v124c0 46.667 -6.66699 78.834 -20 96.501s-37.333 26.5 -72 26.5v64h18c28.667 0 52.834 -4.66699 72.501 -14s35.334 -22.5 47.001 -39.5s20 -37 25 -60s7.5 -48.5 7.5 -76.5v-117
c0 -21.333 1.83301 -39 5.5 -53s9.66699 -25.167 18 -33.5s19.333 -14.5 33 -18.5s30.5 -6.33301 50.5 -7v-68v0z" />
    <glyph glyph-name="asciitilde" unicode="~" 
d="M494 564c0 -42.667 -11.5 -77.332 -34.5 -103.999s-54.5 -40 -94.5 -40c-28 0 -50.167 5.83301 -66.5 17.5s-30.166 24.667 -41.499 39s-22.333 27.333 -33 39s-24.667 17.5 -42 17.5c-21.333 0 -36.666 -8.83301 -45.999 -26.5s-14.333 -39.834 -15 -66.501h-63v9
c0 43.333 11.5 78.333 34.5 105s54.5 40 94.5 40c28 0 50.167 -5.83301 66.5 -17.5s30.166 -24.667 41.499 -39s22.333 -27.333 33 -39s24.667 -17.5 42 -17.5c21.333 0 36.666 8.66699 45.999 26s14.333 39.333 15 66h63v-9v0z" />
    <glyph glyph-name="nonbreakingspace" unicode="&#xa0;" horiz-adv-x="225" 
 />
    <glyph glyph-name="exclamdown" unicode="&#xa1;" horiz-adv-x="301" 
d="M100 -208l13 541h70l13 -541h-96zM207 450c0 -16 -5.66699 -29.333 -17 -40s-25.333 -16 -42 -16c-16 0 -29.5 5.33301 -40.5 16s-16.5 24 -16.5 40s5.5 29.5 16.5 40.5s24.5 16.5 40.5 16.5c16.667 0 30.667 -5.5 42 -16.5s17 -24.5 17 -40.5z" />
    <glyph glyph-name="cent" unicode="&#xa2;" 
d="M290 533c-18 -2.66699 -35.001 -8.66699 -51.001 -18s-30.167 -21.833 -42.5 -37.5s-22.166 -34.167 -29.499 -55.5s-11 -45.333 -11 -72c0 -58.667 12 -103 36 -133s56.667 -47.667 98 -53v369zM471.999 122c-19.333 -8 -39.4971 -14.668 -60.4971 -20.001
s-41.167 -8.66602 -60.5 -9.99902v-95h-61v95c-32 1.33301 -61.167 7.33301 -87.5 18s-49.166 26.167 -68.499 46.5s-34.333 45.833 -45 76.5s-16 66.667 -16 108c0 36.667 5.5 70.167 16.5 100.5s26.167 56.833 45.5 79.5s42.166 40.834 68.499 54.501
s55.166 22.167 86.499 25.5v76h61v-74c18.667 -1.33301 38.167 -3.83301 58.5 -7.5s39.5 -9.16699 57.5 -16.5l-13 -68c-16.667 7.33301 -33.834 13 -51.501 17s-34.834 6.33301 -51.501 7v-373c17.333 1.33301 35.333 4.16602 54 8.49902s36.667 10.833 54 19.5l13 -68v0z
" />
    <glyph glyph-name="sterling" unicode="&#xa3;" 
d="M82 0l0.00390625 59.998c20 14.667 37.5 29.334 52.5 44.001s27.5 29.667 37.5 45s17.5 31.666 22.5 48.999s7.5 36.333 7.5 57c0 6.66699 -0.5 17 -1.5 31s-2.5 30.667 -4.5 50h-115v62h108l-8.5 66c-3 23.333 -4.5 43.333 -4.5 60c0 62.667 17 108.834 51 138.501
s79.667 44.5 137 44.5c13.333 0 28.666 -0.666992 45.999 -2s32.666 -3.66602 45.999 -6.99902l-9 -66c-12.667 3.33301 -26.334 5.66602 -41.001 6.99902s-28.667 2 -42 2c-32.667 0 -58.667 -9.66699 -78 -29s-29 -46.333 -29 -81c0 -15.333 1.5 -34.666 4.5 -57.999
s5.5 -48.333 7.5 -75h168v-62h-161c1.33301 -14.667 2.33301 -28.167 3 -40.5s1 -23.5 1 -33.5c0 -21.333 -1.83301 -40.833 -5.5 -58.5s-9.33398 -34 -17.001 -49s-17.5 -29.5 -29.5 -43.5s-26.667 -28.333 -44 -43c10 1.33301 21.333 2.33301 34 3s26 1 40 1h219v-72h-395
z" />
    <glyph glyph-name="currency" unicode="&#xa4;" horiz-adv-x="546" 
d="M491 30l-85.999 103.998c12.667 15.333 22.667 33.333 30 54s11 43.334 11 68.001c0 27.333 -3.16699 50.5 -9.5 69.5s-14.5 35.167 -24.5 48.5l79 98l-61 46l-75 -101c-13.333 7.33301 -27 12.166 -41 14.499s-27.667 3.5 -41 3.5c-31.333 0 -59 -6 -83 -18l-74 101
l-62 -45l78 -97c-30 -32 -45 -74 -45 -126c0 -29.333 3.5 -54.666 10.5 -75.999s16.833 -39.666 29.5 -54.999l-73 -90l63 -46l71 97c19.333 -8.66699 42.666 -13 69.999 -13c34 0 64 8 90 24l81 -108zM369.001 254.998c0 -20 -2.83398 -37.668 -8.50098 -53.001
s-13.167 -28.166 -22.5 -38.499s-20 -18.333 -32 -24s-24.667 -8.5 -38 -8.5c-19.333 0 -35.666 3.16699 -48.999 9.5s-24 15 -32 26s-13.833 23.833 -17.5 38.5s-5.5 30.667 -5.5 48c0 37.333 9.5 66.5 28.5 87.5s42.833 31.5 71.5 31.5c38 0 65 -11 81 -33s24 -50 24 -84z
" />
    <glyph glyph-name="yen" unicode="&#xa5;" 
d="M336 300h138.001v-58h-159v-83h159v-57h-159v-102h-81v102h-159v57h159v83h-159v58h138l-183 375h90l115 -244c8 -16.667 15.167 -33.5 21.5 -50.5s13.166 -34.167 20.499 -51.5h1l22 54.5c8 19 15.667 36.167 23 51.5l112 240h88z" />
    <glyph glyph-name="brokenbar" unicode="&#xa6;" horiz-adv-x="275" 
d="M104 -250v378h67v-378h-67zM104 382v368h67v-368h-67z" />
    <glyph glyph-name="section" unicode="&#xa7;" horiz-adv-x="492" 
d="M336 209c0 18.667 -4.66992 37 -14.0029 55s-21.166 36.333 -35.499 55s-30.666 38.167 -48.999 58.5s-36.5 42.166 -54.5 65.499c-9.33301 -7.33301 -16.833 -17.5 -22.5 -30.5s-8.5 -28.167 -8.5 -45.5c0 -16 3.5 -32 10.5 -48s17.167 -33.167 30.5 -51.5
s29.5 -38.333 48.5 -60l64.5 -72.5c8.66699 7.33301 15.834 17.833 21.501 31.5s8.5 27.834 8.5 42.501zM414.997 219c0 -27.333 -6.16309 -52.6699 -18.4961 -76.0029s-27.833 -42.666 -46.5 -57.999c8 -12 15.167 -26.833 21.5 -44.5s9.5 -35.5 9.5 -53.5
c0 -18.667 -3.5 -37.334 -10.5 -56.001s-17.833 -35.5 -32.5 -50.5s-33.834 -27.167 -57.501 -36.5s-51.834 -14 -84.501 -14c-12 0 -24.667 0.833008 -38 2.5s-25 3.83398 -35 6.50098l7 76c10.667 -3.33301 22 -6.16602 34 -8.49902s24.333 -3.5 37 -3.5
c32.667 0 56 8 70 24s21 35.667 21 59c0 18 -5.33301 36 -16 54s-24.167 36.333 -40.5 55l-53 58c-19 20 -36.667 40.833 -53 62.5s-29.833 44.167 -40.5 67.5s-16 48.333 -16 75c0 28.667 6.16699 54.834 18.5 78.501s27.833 43.167 46.5 58.5
c-8 11.333 -14.667 25.5 -20 42.5s-8 33.167 -8 48.5c0 20.667 3.5 40.5 10.5 59.5s17.667 35.833 32 50.5s32.5 26.167 54.5 34.5s48.333 12.5 79 12.5c11.333 0 23.166 -0.666992 35.499 -2s23.166 -3 32.499 -5l-7 -72c-10.667 3.33301 -21.167 5.66602 -31.5 6.99902
s-21.5 2 -33.5 2c-29.333 0 -50.5 -7.16699 -63.5 -21.5s-19.5 -34.833 -19.5 -61.5c0 -17.333 5.33301 -34.666 16 -51.999s24 -35.333 40 -54l52 -58.5c18.667 -20.333 36 -41.333 52 -63s29.333 -44.5 40 -68.5s16 -49 16 -75z" />
    <glyph glyph-name="dieresis" unicode="&#xa8;" horiz-adv-x="546" 
d="M221 653c0 -14.667 -4.83301 -26.834 -14.5 -36.501s-21.834 -14.5 -36.501 -14.5s-27 4.83301 -37 14.5s-15 21.834 -15 36.501s5 27 15 37s22.333 15 37 15s26.834 -5 36.501 -15s14.5 -22.333 14.5 -37zM411 653c0 -14.667 -4.83301 -26.834 -14.5 -36.501
s-21.834 -14.5 -36.501 -14.5s-27 4.83301 -37 14.5s-15 21.834 -15 36.501s5 27 15 37s22.333 15 37 15s26.834 -5 36.501 -15s14.5 -22.333 14.5 -37z" />
    <glyph glyph-name="copyright" unicode="&#xa9;" horiz-adv-x="755" 
d="M474 175c-30.667 -11.333 -63.334 -16.999 -98.001 -16.999c-28 0 -51.833 4.33301 -71.5 13s-36 20.667 -49 36s-22.5 33.5 -28.5 54.5s-9 43.833 -9 68.5c0 24 3.16699 47 9.5 69s16.333 41.5 30 58.5s31.5 30.5 53.5 40.5s49 15 81 15
c15.333 0 29.333 -1.16699 42 -3.5s24.667 -5.5 36 -9.5l-7 -61c-21.333 10.667 -45.666 16 -72.999 16c-18 0 -33.333 -3.16699 -46 -9.5s-23 -15 -31 -26s-13.667 -23.833 -17 -38.5s-5 -30.667 -5 -48c0 -36.667 7.66699 -64.834 23 -84.501s39.333 -29.5 72 -29.5
c28.667 0 55 5 79 15l9 -59v0zM643 334.001c0 36.667 -7 71.5029 -21 104.503s-33 61.667 -57 86s-52.333 43.666 -85 57.999s-67.334 21.5 -104.001 21.5c-37.333 0 -72.166 -7 -104.499 -21s-60.5 -33 -84.5 -57s-43 -52.333 -57 -85s-21 -67.667 -21 -105
s7 -72.333 21 -105s33 -61.334 57 -86.001s52.167 -44.167 84.5 -58.5s67.166 -21.5 104.499 -21.5c36.667 0 71.334 7 104.001 21s61 33.333 85 58s43 53.167 57 85.5s21 67.166 21 104.499zM711 336.004c0 -46 -8.83398 -89.334 -26.501 -130.001
s-41.667 -76.167 -72 -106.5s-65.833 -54.333 -106.5 -72s-84 -26.5 -130 -26.5c-47.333 0 -91.5 8.66699 -132.5 26s-76.5 41 -106.5 71s-53.667 65.333 -71 106s-26 84 -26 130c0 46.667 8.83301 90.334 26.5 131.001s41.667 76 72 106s65.833 53.667 106.5 71
s84.334 26 131.001 26s90.334 -8.5 131.001 -25.5s76.167 -40.5 106.5 -70.5s54.166 -65.167 71.499 -105.5s26 -83.833 26 -130.5z" />
    <glyph glyph-name="ordfeminine" unicode="&#xaa;" horiz-adv-x="384" 
d="M246 495c-46 0 -78.5 -5.33301 -97.5 -16s-28.5 -25.334 -28.5 -44.001c0 -12 3.83301 -21.5 11.5 -28.5s18.5 -10.5 32.5 -10.5c14.667 0 27.167 3.33301 37.5 10s18.833 14.834 25.5 24.501s11.5 19.5 14.5 29.5s4.5 18.667 4.5 26v9zM246 346
c0 7.33301 0.333008 15.8281 1 25.4951s2 18.834 4 27.501l-2 1c-6 -16 -18.667 -30.167 -38 -42.5s-40.333 -18.5 -63 -18.5c-34 0 -59 7.83301 -75 23.5s-24 35.834 -24 60.501c0 38 17.333 67.667 52 89s83 32 145 32v19c0 6.66699 -0.666992 13.667 -2 21
s-4.33301 14 -9 20s-11.334 11 -20.001 15s-20.334 6 -35.001 6c-19.333 0 -38 -2.5 -56 -7.5s-34.333 -11.167 -49 -18.5l-6 63c16.667 6.66699 35.334 11.834 56.001 15.501s42.334 5.5 65.001 5.5c24.667 0 45 -3.16699 61 -9.5s28.833 -14.666 38.5 -24.999
s16.5 -22.166 20.5 -35.499s6 -27 6 -41v-139v-57c0 -12.667 0.333008 -22.667 1 -30h-71zM59 214.995v68h265v-68h-265z" />
    <glyph glyph-name="guillemotleft" unicode="&#xab;" horiz-adv-x="506" 
d="M139 255l95 -158l-66 -37l-112 194l115 197l64 -37zM328 255l102 -155l-63 -38l-122 192l125 195l61 -37z" />
    <glyph glyph-name="logicalnot" unicode="&#xac;" 
d="M400 71v159h-339v66h409v-225h-70z" />
    <glyph glyph-name="registered" unicode="&#xae;" horiz-adv-x="562" 
d="M313 581c0 9.33301 -2.66797 16.334 -8.00098 21.001s-14.666 7 -27.999 7h-22v-64h15c16 0 27.167 3.66699 33.5 11s9.5 15.666 9.5 24.999zM313.999 418.001l-55 96h-4v-96h-47v228h77c28 0 48 -5.5 60 -16.5s18 -25.167 18 -42.5c0 -19.333 -5 -34.333 -15 -45
s-23.333 -17.667 -40 -21c5.33301 -6.66699 12 -16.667 20 -30l44 -73h-58zM440.999 529.001c0 22 -4.16699 43 -12.5 63s-19.666 37.5 -33.999 52.5s-31.333 27 -51 36s-40.5 13.5 -62.5 13.5s-42.833 -4.33301 -62.5 -13s-36.834 -20.334 -51.501 -35.001
s-26.167 -31.834 -34.5 -51.501s-12.5 -40.5 -12.5 -62.5s4.16699 -43 12.5 -63s19.833 -37.5 34.5 -52.5s31.834 -27 51.501 -36s40.5 -13.5 62.5 -13.5s42.833 4.33301 62.5 13s36.667 20.334 51 35.001s25.666 31.834 33.999 51.501s12.5 40.5 12.5 62.5z
M498.999 531.001c0 -30 -5.83008 -58.1689 -17.4971 -84.502s-27.334 -49.333 -47.001 -69s-42.667 -35.167 -69 -46.5s-54.5 -17 -84.5 -17c-30.667 0 -59.334 5.5 -86.001 16.5s-49.834 26.333 -69.501 46s-35.167 42.667 -46.5 69s-17 54.833 -17 85.5
c0 30 5.66699 58.167 17 84.5s27 49.333 47 69s43.333 35.167 70 46.5s55 17 85 17c30.667 0 59.167 -5.66699 85.5 -17s49.333 -26.666 69 -45.999s35.167 -42.166 46.5 -68.499s17 -54.833 17 -85.5z" />
    <glyph glyph-name="macron" unicode="&#xaf;" horiz-adv-x="391" 
d="M82 619v64h222v-64h-222z" />
    <glyph glyph-name="macron" unicode="&#x2c9;" horiz-adv-x="391" 
d="M82 619v64h222v-64h-222z" />
    <glyph glyph-name="degree" unicode="&#xb0;" horiz-adv-x="374" 
d="M249 611c0 8 -1.00098 15.999 -3.00098 23.999s-5.5 15.5 -10.5 22.5s-11.667 12.667 -20 17s-18.5 6.5 -30.5 6.5c-17.333 0 -32.166 -6.33301 -44.499 -19s-18.5 -29.667 -18.5 -51c0 -22 5.83301 -39 17.5 -51s26.5 -18 44.5 -18c19.333 0 35 6.33301 47 19
s18 29.334 18 50.001zM315.999 611.999c0 -19.333 -3.83301 -36.835 -11.5 -52.502s-17.667 -29 -30 -40s-26.666 -19.333 -42.999 -25s-33.166 -8.5 -50.499 -8.5c-38.667 0 -69.334 11.167 -92.001 33.5s-34 52.5 -34 90.5c0 20 3.83301 37.833 11.5 53.5
s17.667 28.834 30 39.501s26.333 18.834 42 24.501s31.834 8.5 48.501 8.5c22 0 41.167 -3.33301 57.5 -10s29.666 -15.667 39.999 -27s18.166 -24.5 23.499 -39.5s8 -30.833 8 -47.5z" />
    <glyph glyph-name="plusminus" unicode="&#xb1;" 
d="M56 -58v69h440v-69h-440zM314 275v-199h-76v199h-188v67h188v198h76v-198h188v-67h-188z" />
    <glyph glyph-name="twosuperior" unicode="&#xb2;" horiz-adv-x="335" 
d="M30 270l-0.000976562 61l97 93c28 26 47 48.333 57 67s15 36.667 15 54c0 21.333 -5.66699 37.833 -17 49.5s-28.666 17.5 -51.999 17.5c-15.333 0 -30.166 -2 -44.499 -6s-27.166 -9.66699 -38.499 -17l-11 67c15.333 7.33301 32.666 13.333 51.999 18
s39.666 7 60.999 7c46 0 79.833 -11.167 101.5 -33.5s32.5 -50.5 32.5 -84.5c0 -26 -6.16699 -51.667 -18.5 -77s-33.5 -52 -63.5 -80l-69 -66c22.667 1.33301 47.667 2 75 2h93v-72h-270z" />
    <glyph glyph-name="threesuperior" unicode="&#xb3;" horiz-adv-x="311" 
d="M275 394c0 -40 -14.668 -72.1689 -44.001 -96.502s-69 -36.5 -119 -36.5c-12.667 0 -25.667 0.833008 -39 2.5s-26.333 3.83398 -39 6.50098l9 63c10.667 -3.33301 21.5 -6 32.5 -8s23.167 -3 36.5 -3c23.333 0 42.5 6.16699 57.5 18.5s22.5 29.166 22.5 50.499
c0 10 -2.5 19.167 -7.5 27.5s-13 15.166 -24 20.499s-25.333 8.83301 -43 10.5s-39.167 0.833984 -64.5 -2.49902v56c44 0 77.333 5.33301 100 16s34 28.334 34 53.001c0 15.333 -5.16699 27.5 -15.5 36.5s-25.166 13.5 -44.499 13.5c-13.333 0 -26.666 -1.66699 -39.999 -5
s-26 -7.66602 -38 -12.999l-9 59c32.667 12 67.667 18 105 18c39.333 0 69.666 -8.66699 90.999 -26s32 -42 32 -74c0 -23.333 -6.16699 -43 -18.5 -59s-29.833 -28.333 -52.5 -37c24 -3.33301 43 -14 57 -32s21 -37.667 21 -59z" />
    <glyph glyph-name="acute" unicode="&#xb4;" horiz-adv-x="388" 
d="M135 577l-35 47l138 111l43 -59z" />
    <glyph glyph-name="mu" unicode="&#xb5;" horiz-adv-x="618" 
d="M446 0c0 14.667 0.666016 31.833 1.99902 51.5s3 37.834 5 54.501l-1 1c-4 -12 -10.167 -24.667 -18.5 -38s-19.166 -25.833 -32.499 -37.5s-29.833 -21.167 -49.5 -28.5s-43.5 -11 -71.5 -11c-26.667 0 -49.334 4.33301 -68.001 13s-32 18 -40 28l-2 -1
c1.33301 -9.33301 2.16602 -22.833 2.49902 -40.5s0.5 -40.834 0.5 -69.501v-170h-84v745h84v-315c0 -42 10.333 -72.833 31 -92.5s50.667 -29.5 90 -29.5c24 0 45.333 5.16699 64 15.5s34.334 24.333 47.001 42s22.334 38.5 29.001 62.5s10 50 10 78v239h85v-497h-83z" />
    <glyph glyph-name="mu" unicode="&#x3bc;" horiz-adv-x="618" 
d="M446 0c0 14.667 0.666016 31.833 1.99902 51.5s3 37.834 5 54.501l-1 1c-4 -12 -10.167 -24.667 -18.5 -38s-19.166 -25.833 -32.499 -37.5s-29.833 -21.167 -49.5 -28.5s-43.5 -11 -71.5 -11c-26.667 0 -49.334 4.33301 -68.001 13s-32 18 -40 28l-2 -1
c1.33301 -9.33301 2.16602 -22.833 2.49902 -40.5s0.5 -40.834 0.5 -69.501v-170h-84v745h84v-315c0 -42 10.333 -72.833 31 -92.5s50.667 -29.5 90 -29.5c24 0 45.333 5.16699 64 15.5s34.334 24.333 47.001 42s22.334 38.5 29.001 62.5s10 50 10 78v239h85v-497h-83z" />
    <glyph glyph-name="paragraph" unicode="&#xb6;" horiz-adv-x="573" 
d="M288 250c-38 0 -70.833 5.66504 -98.5 16.998s-50.5 26.666 -68.5 45.999s-31.333 42 -40 68s-13 53.667 -13 83c0 30.667 5.33301 58.834 16 84.501s25.5 47.834 44.5 66.501s42 33.334 69 44.001s57.167 16 90.5 16v-425v0zM440 609.998v-706h-150v65h73v706h149v-65
h-72z" />
    <glyph glyph-name="periodcentered" unicode="&#xb7;" horiz-adv-x="229" 
d="M176 288c0 -17.333 -5.83301 -31.833 -17.5 -43.5s-26.167 -17.5 -43.5 -17.5s-32 5.83301 -44 17.5s-18 26.167 -18 43.5s6 32 18 44s26.667 18 44 18s31.833 -6 43.5 -18s17.5 -26.667 17.5 -44z" />
    <glyph glyph-name="periodcentered" unicode="&#x22c5;" horiz-adv-x="229" 
d="M176 288c0 -17.333 -5.83301 -31.833 -17.5 -43.5s-26.167 -17.5 -43.5 -17.5s-32 5.83301 -44 17.5s-18 26.167 -18 43.5s6 32 18 44s26.667 18 44 18s31.833 -6 43.5 -18s17.5 -26.667 17.5 -44z" />
    <glyph glyph-name="cedilla" unicode="&#xb8;" horiz-adv-x="400" 
d="M281 -51c7.33301 -16 12 -32 14 -48s0 -32 -6 -48s-16.667 -31.833 -32 -47.5s-36.333 -31.167 -63 -46.5l-38 35c32.667 24 51.667 48.833 57 74.5s0.333008 52.5 -15 80.5h83v0z" />
    <glyph glyph-name="onesuperior" unicode="&#xb9;" horiz-adv-x="263" 
d="M108 270v329l-89 -36l-13 70l116 42h68v-405h-82z" />
    <glyph glyph-name="ordmasculine" unicode="&#xba;" horiz-adv-x="418" 
d="M289 516c0 13.333 -1.33496 26.332 -4.00195 38.999s-7.16699 23.834 -13.5 33.501s-14.666 17.5 -24.999 23.5s-23.166 9 -38.499 9c-10 0 -20 -2 -30 -6s-19 -10.333 -27 -19s-14.333 -19.834 -19 -33.501s-7 -30.167 -7 -49.5c0 -13.333 1.16699 -26.5 3.5 -39.5
s6.5 -24.667 12.5 -35s14 -18.666 24 -24.999s23 -9.5 39 -9.5c25.333 0 45.833 8.83301 61.5 26.5s23.5 46.167 23.5 85.5zM365.998 515.999c0 -26.667 -4.16895 -50.833 -12.502 -72.5s-19.833 -40.167 -34.5 -55.5s-32.334 -27.166 -53.001 -35.499s-43 -12.5 -67 -12.5
c-22 0 -42.333 3.16699 -61 9.5s-34.667 16.333 -48 30s-23.666 31.334 -30.999 53.001s-11 48.167 -11 79.5c0 25.333 4 48.5 12 69.5s19.333 39.167 34 54.5s32 27.166 52 35.499s41.667 12.5 65 12.5c18.667 0 37.334 -2.5 56.001 -7.5s35.334 -13.833 50.001 -26.5
s26.5 -29.834 35.5 -51.501s13.5 -49.167 13.5 -82.5zM60.9961 215v68h291v-68h-291z" />
    <glyph glyph-name="guillemotright" unicode="&#xbb;" horiz-adv-x="506" 
d="M136 63l-62 37l103 156l-102 155l64 37l122 -191zM334 61l-63 36l96 159l-95 156l65 38l113 -193z" />
    <glyph glyph-name="onequarter" unicode="&#xbc;" horiz-adv-x="927" 
d="M727 344l-120.999 -196c8.66699 0 18.667 0.166992 30 0.5s22.666 0.5 33.999 0.5h32h25v195zM133.001 270v329l-88 -36l-14 70l116 42h69v-405h-83zM233.001 -106h-87l434 845h84zM806.001 85v-85h-78v85h-195l-2 53l163 267h112v-255h65v-65h-65z" />
    <glyph glyph-name="onehalf" unicode="&#xbd;" horiz-adv-x="911" 
d="M133 270v329l-88 -36l-14 70l116 42h69v-405h-83zM233 -106h-87l434 845h84zM584 0l-0.00195312 61.001l95 93c28 26.667 47 49.167 57 67.5s15 36.166 15 53.499c0 21.333 -5.5 37.833 -16.5 49.5s-28.167 17.5 -51.5 17.5c-15.333 0 -30.166 -2 -44.499 -6
s-27.166 -9.66699 -38.499 -17l-12 67c15.333 7.33301 32.833 13.333 52.5 18s40.5 7 62.5 7c44.667 0 78 -11.167 100 -33.5s33 -50.5 33 -84.5c0 -26 -6.5 -51.5 -19.5 -76.5s-34.5 -51.833 -64.5 -80.5l-69 -66c23.333 1.33301 49 2 77 2h92v-72h-268z" />
    <glyph glyph-name="threequarters" unicode="&#xbe;" horiz-adv-x="942" 
d="M778 344l-120.999 -196c8 0 17.667 0.166992 29 0.5s22.666 0.5 33.999 0.5h33h25v195zM275.001 394c0 -40 -14.668 -72.1689 -44.001 -96.502s-69 -36.5 -119 -36.5c-12.667 0 -25.667 0.833008 -39 2.5s-26.333 3.83398 -39 6.50098l9 63
c10.667 -3.33301 21.5 -6 32.5 -8s23.167 -3 36.5 -3c23.333 0 42.5 6.16699 57.5 18.5s22.5 29.166 22.5 50.499c0 10 -2.5 19.167 -7.5 27.5s-13 15.166 -24 20.499s-25.333 8.83301 -43 10.5s-39.167 0.833984 -64.5 -2.49902v56c44 0 77.333 5.33301 100 16
s34 28.334 34 53.001c0 15.333 -5.16699 27.5 -15.5 36.5s-25.166 13.5 -44.499 13.5c-13.333 0 -26.666 -1.66699 -39.999 -5s-26 -7.66602 -38 -12.999l-9 59c32.667 12 67.667 18 105 18c39.333 0 69.666 -8.66699 90.999 -26s32 -42 32 -74
c0 -23.333 -6.16699 -43 -18.5 -59s-29.833 -28.333 -52.5 -37c24 -3.33301 43 -14 57 -32s21 -37.667 21 -59zM261 -106.002h-86l433 845h85zM857 84.998v-85h-78v85h-195l-3 53l164 267h112v-255h65v-65h-65z" />
    <glyph glyph-name="questiondown" unicode="&#xbf;" horiz-adv-x="438" 
d="M357 -212c-50.667 0 -95 4.8291 -133 14.4961s-69.667 22.834 -95 39.501s-44.333 36.334 -57 59.001s-19 47 -19 73c0 26.667 5.5 49.667 16.5 69s24.333 37 40 53s32.167 31.333 49.5 46s32.166 30.834 44.499 48.501s20.5 37.834 24.5 60.501s1 50 -9 82h80
c11.333 -34 15.333 -63.667 12 -89s-10.666 -47.833 -21.999 -67.5s-25.333 -37.167 -42 -52.5l-48 -44.5c-15.333 -14.333 -28.333 -29 -39 -44s-16 -31.833 -16 -50.5c0 -40 19 -70.333 57 -91s92.333 -31 163 -31zM311 449.996c0 -15.333 -5.5 -28.5 -16.5 -39.5
s-24.833 -16.5 -41.5 -16.5c-16 0 -29.5 5.5 -40.5 16.5s-16.5 24.167 -16.5 39.5c0 16 5.5 29.5 16.5 40.5s24.5 16.5 40.5 16.5c16.667 0 30.5 -5.5 41.5 -16.5s16.5 -24.5 16.5 -40.5z" />
    <glyph glyph-name="Agrave" unicode="&#xc0;" horiz-adv-x="614" 
d="M334 480c-6 16.667 -11.5 33.1689 -16.5 49.502s-9.5 33.166 -13.5 50.499h-2c-4 -16.667 -8.66699 -33.334 -14 -50.001l-17 -51l-91 -249h245zM506 0.00195312l-57 161h-292l-57 -161h-89l248 675h95l249 -675h-97zM319 719.002l-184 71l29 59l175 -89z" />
    <glyph glyph-name="Aacute" unicode="&#xc1;" horiz-adv-x="614" 
d="M334 480c-6 16.667 -11.5 33.1689 -16.5 49.502s-9.5 33.166 -13.5 50.499h-2c-4 -16.667 -8.66699 -33.334 -14 -50.001l-17 -51l-91 -249h245zM506 0.00195312l-57 161h-292l-57 -161h-89l248 675h95l249 -675h-97zM272 719.002l-21 39l175 90l29 -58z" />
    <glyph glyph-name="Acircumflex" unicode="&#xc2;" horiz-adv-x="614" 
d="M334 480c-6 16.667 -11.5 33.1689 -16.5 49.502s-9.5 33.166 -13.5 50.499h-2c-4 -16.667 -8.66699 -33.334 -14 -50.001l-17 -51l-91 -249h245zM506 0.00195312l-57 161h-292l-57 -161h-89l248 675h95l249 -675h-97zM433 717.002l-129 64l-125 -64l-21 42l148 83
l152 -80z" />
    <glyph glyph-name="Atilde" unicode="&#xc3;" horiz-adv-x="614" 
d="M334 480c-6 16.667 -11.5 33.1689 -16.5 49.502s-9.5 33.166 -13.5 50.499h-2c-4 -16.667 -8.66699 -33.334 -14 -50.001l-17 -51l-91 -249h245zM506 0.00195312l-57 161h-292l-57 -161h-89l248 675h95l249 -675h-97zM468 788.002
c-11.333 -16 -24.833 -29.166 -40.5 -39.499s-34.5 -15.5 -56.5 -15.5c-14.667 0 -27.334 2 -38.001 6s-20.5 8.5 -29.5 13.5s-17.833 9.5 -26.5 13.5s-19 6 -31 6c-12.667 0 -23.667 -3.33301 -33 -10s-17.666 -15 -24.999 -25l-35 35
c11.333 17.333 24.833 31.166 40.5 41.499s35.167 15.5 58.5 15.5c14 0 26.167 -2 36.5 -6s20.166 -8.33301 29.499 -13s18.5 -9 27.5 -13s19.167 -6 30.5 -6c12.667 0 23.834 3.16699 33.501 9.5s18.167 14.5 25.5 24.5l33 -37v0z" />
    <glyph glyph-name="Adieresis" unicode="&#xc4;" horiz-adv-x="614" 
d="M334 480c-6 16.667 -11.5 33.1689 -16.5 49.502s-9.5 33.166 -13.5 50.499h-2c-4 -16.667 -8.66699 -33.334 -14 -50.001l-17 -51l-91 -249h245zM506 0.00195312l-57 161h-292l-57 -161h-89l248 675h95l249 -675h-97zM247 781.002c0 -13.333 -5 -25 -15 -35
s-21.667 -15 -35 -15s-24.833 5 -34.5 15s-14.5 21.667 -14.5 35s4.83301 24.833 14.5 34.5s21.167 14.5 34.5 14.5s25 -4.83301 35 -14.5s15 -21.167 15 -34.5zM464 781.002c0 -13.333 -4.83301 -25 -14.5 -35s-21.5 -15 -35.5 -15c-13.333 0 -24.833 5 -34.5 15
s-14.5 21.667 -14.5 35s4.83301 24.833 14.5 34.5s21.167 14.5 34.5 14.5c14 0 25.833 -4.83301 35.5 -14.5s14.5 -21.167 14.5 -34.5z" />
    <glyph glyph-name="Aring" unicode="&#xc5;" horiz-adv-x="614" 
d="M417 732c0 31.333 -10.834 57.166 -32.501 77.499s-48.5 30.5 -80.5 30.5c-15.333 0 -29.666 -2.66699 -42.999 -8s-25 -12.833 -35 -22.5s-18 -21.167 -24 -34.5s-9 -27.666 -9 -42.999c0 -31.333 10.667 -57 32 -77c6.66699 -6 13.667 -11.333 21 -16l-235 -639h89
l57 161h292l57 -161h97l-237 643c6 4 11.667 8.33301 17 13c10.667 10 19 21.5 25 34.5s9 26.833 9 41.5zM333.999 480l91 -250.002h-245l91 249l17 51c5.33301 16.667 10 33.334 14 50.001h2c4 -17.333 8.5 -34.166 13.5 -50.499s10.5 -32.833 16.5 -49.5zM360.999 731.998
c0 -15.333 -5.5 -28.666 -16.5 -39.999s-24.5 -17 -40.5 -17c-15.333 0 -28.333 5.66699 -39 17s-16 24.666 -16 39.999s5.33301 28.666 16 39.999s23.667 17 39 17c16 0 29.5 -5.66699 40.5 -17s16.5 -24.666 16.5 -39.999z" />
    <glyph glyph-name="AE" unicode="&#xc6;" horiz-adv-x="780" 
d="M362 603h-2.00098l-27 -59c-9.33301 -20.667 -22.666 -46.667 -39.999 -78l-127 -232h196v369zM361.999 0v165h-228l-87 -165h-91l363 675h380v-71h-252v-221h242v-70h-242v-241h262v-72h-347z" />
    <glyph glyph-name="Ccedilla" unicode="&#xc7;" horiz-adv-x="585" 
d="M540 33c-24.667 -13.333 -53.4961 -23.501 -86.4961 -30.501s-68.5 -10.5 -106.5 -10.5c-52 0 -96.833 8 -134.5 24s-68.834 38.5 -93.501 67.5s-42.834 63.667 -54.501 104s-17.5 84.833 -17.5 133.5c0 51.333 6.16699 99 18.5 143s31.333 82 57 114
s58.167 57.167 97.5 75.5s86 27.5 140 27.5c28.667 0 57.667 -2.66699 87 -8s58 -13.666 86 -24.999l-21 -78c-25.333 11.333 -50.833 20.166 -76.5 26.499s-53.834 9.5 -84.501 9.5c-36.667 0 -68.334 -7.16699 -95.001 -21.5s-48.5 -33.666 -65.5 -57.999
s-29.5 -53 -37.5 -86s-12 -68.167 -12 -105.5c0 -85.333 18.5 -151 55.5 -197s93.5 -69 169.5 -69c30 0 58 3.33301 84 10s49.667 15.667 71 27l19 -73v0zM378.004 -51.001c7.33301 -16 12 -32 14 -48s0 -32 -6 -48s-16.667 -31.833 -32 -47.5s-36.333 -31.167 -63 -46.5
l-38 35c32.667 24 51.667 48.833 57 74.5s0.333008 52.5 -15 80.5h83v0z" />
    <glyph glyph-name="Egrave" unicode="&#xc8;" horiz-adv-x="502" 
d="M87 0v675h344v-71h-257v-221h245v-70h-245v-241h257v-72h-344zM291 719l-184 71l29 59l175 -89z" />
    <glyph glyph-name="Eacute" unicode="&#xc9;" horiz-adv-x="502" 
d="M87 0v675h344v-71h-257v-221h245v-70h-245v-241h257v-72h-344zM224 719l-21 39l175 90l29 -58z" />
    <glyph glyph-name="Ecircumflex" unicode="&#xca;" horiz-adv-x="502" 
d="M87 0v675h344v-71h-257v-221h245v-70h-245v-241h257v-72h-344zM389 717l-129 64l-125 -64l-21 42l148 83l152 -80z" />
    <glyph glyph-name="Edieresis" unicode="&#xcb;" horiz-adv-x="502" 
d="M87 0v675h344v-71h-257v-221h245v-70h-245v-241h257v-72h-344zM201 781c0 -13.333 -5 -25 -15 -35s-21.667 -15 -35 -15s-24.833 5 -34.5 15s-14.5 21.667 -14.5 35s4.83301 24.833 14.5 34.5s21.167 14.5 34.5 14.5s25 -4.83301 35 -14.5s15 -21.167 15 -34.5zM418 781
c0 -13.333 -4.83301 -25 -14.5 -35s-21.5 -15 -35.5 -15c-13.333 0 -24.833 5 -34.5 15s-14.5 21.667 -14.5 35s4.83301 24.833 14.5 34.5s21.167 14.5 34.5 14.5c14 0 25.833 -4.83301 35.5 -14.5s14.5 -21.167 14.5 -34.5z" />
    <glyph glyph-name="Igrave" unicode="&#xcc;" horiz-adv-x="261" 
d="M87 0v675h87v-675h-87zM168 719l-184 71l29 59l175 -89z" />
    <glyph glyph-name="Iacute" unicode="&#xcd;" horiz-adv-x="261" 
d="M87 0v675h87v-675h-87zM106 719l-21 39l175 90l29 -58z" />
    <glyph glyph-name="Icircumflex" unicode="&#xce;" horiz-adv-x="261" 
d="M87 0v675h87v-675h-87zM259 717l-129 64l-125 -64l-21 42l148 83l152 -80z" />
    <glyph glyph-name="Idieresis" unicode="&#xcf;" horiz-adv-x="261" 
d="M87 0v675h87v-675h-87zM71 781c0 -13.333 -5 -25 -15 -35s-21.667 -15 -35 -15s-24.833 5 -34.5 15s-14.5 21.667 -14.5 35s4.83301 24.833 14.5 34.5s21.167 14.5 34.5 14.5s25 -4.83301 35 -14.5s15 -21.167 15 -34.5zM288 781c0 -13.333 -4.83301 -25 -14.5 -35
s-21.5 -15 -35.5 -15c-13.333 0 -24.833 5 -34.5 15s-14.5 21.667 -14.5 35s4.83301 24.833 14.5 34.5s21.167 14.5 34.5 14.5c14 0 25.833 -4.83301 35.5 -14.5s14.5 -21.167 14.5 -34.5z" />
    <glyph glyph-name="Eth" unicode="&#xd0;" horiz-adv-x="689" 
d="M552 338c0 89.333 -21.668 156.667 -65.001 202s-109.666 68 -198.999 68c-18.667 0 -37.5 -0.333008 -56.5 -1s-35.167 -1.33398 -48.5 -2.00098v-225h143v-66h-143v-241c2 0 6.66699 -0.333008 14 -1s15.666 -1.16699 24.999 -1.5l28.5 -1
c9.66699 -0.333008 18.167 -0.5 25.5 -0.5c40.667 0 77.834 5.33301 111.501 16s62.667 27 87 49s43.333 49.833 57 83.5s20.5 73.834 20.5 120.501zM641.999 344.001c0 -58 -9.33496 -108.833 -28.002 -152.5s-44.667 -80 -78 -109s-73 -50.667 -119 -65
s-96.667 -21.5 -152 -21.5c-34 0 -64.333 0.666992 -91 2s-52.334 2 -77.001 2v314h-96v66h96v294c26.667 0.666992 57.5 1.5 92.5 2.5s70.5 1.5 106.5 1.5c54.667 0 103.334 -6.5 146.001 -19.5s78.834 -33.167 108.501 -60.5s52.334 -62 68.001 -104s23.5 -92 23.5 -150z
" />
    <glyph glyph-name="Ntilde" unicode="&#xd1;" horiz-adv-x="708" 
d="M508 0l-265.999 428.999c-30 48.667 -55.667 95 -77 139l2.5 -71c1 -28.667 1.83301 -59.5 2.5 -92.5s1.16699 -66.167 1.5 -99.5s0.5 -64 0.5 -92v-213h-85v675h114l260 -417c15.333 -24 29.833 -48.5 43.5 -73.5l39.5 -72.5c-1.33301 21.333 -2.33301 47.333 -3 78
s-1.33398 63 -2.00098 97s-1.16699 68.333 -1.5 103s-0.5 66.334 -0.5 95.001v190h84v-675h-113zM515.001 787.999c-11.333 -16 -24.833 -29.166 -40.5 -39.499s-34.5 -15.5 -56.5 -15.5c-14.667 0 -27.334 2 -38.001 6s-20.5 8.5 -29.5 13.5s-17.833 9.5 -26.5 13.5
s-19 6 -31 6c-12.667 0 -23.667 -3.33301 -33 -10s-17.666 -15 -24.999 -25l-35 35c11.333 17.333 24.833 31.166 40.5 41.499s35.167 15.5 58.5 15.5c14 0 26.167 -2 36.5 -6s20.166 -8.33301 29.499 -13s18.5 -9 27.5 -13s19.167 -6 30.5 -6
c12.667 0 23.834 3.16699 33.501 9.5s18.167 14.5 25.5 24.5l33 -37v0z" />
    <glyph glyph-name="Ograve" unicode="&#xd2;" horiz-adv-x="705" 
d="M570 334c0 88.667 -18.998 156.668 -56.998 204.001s-91.667 71 -161 71c-28.667 0 -56.167 -5.66699 -82.5 -17s-49.5 -28.333 -69.5 -51s-35.833 -50.5 -47.5 -83.5s-17.5 -71.167 -17.5 -114.5c0 -41.333 4.33301 -78.833 13 -112.5s22 -62.667 40 -87
s40.5 -43.166 67.5 -56.499s58.833 -20 95.5 -20c28 0 55.167 5.66699 81.5 17s49.666 28.166 69.999 50.499s36.666 50.166 48.999 83.499s18.5 72 18.5 116zM662.002 345.001c0 -56 -8.33301 -106.001 -25 -150.001s-39.5 -81.167 -68.5 -111.5
s-62.833 -53.5 -101.5 -69.5s-80 -24 -124 -24c-50.667 0 -94.667 8.16699 -132 24.5s-68.5 39.333 -93.5 69s-43.667 65.334 -56 107.001s-18.5 88.167 -18.5 139.5c0 56.667 8.33301 107 25 151s39.5 81.167 68.5 111.5s62.833 53.333 101.5 69s80 23.5 124 23.5
c45.333 0 86.5 -7.33301 123.5 -22s68.5 -36.5 94.5 -65.5s46.167 -64.667 60.5 -107s21.5 -90.833 21.5 -145.5zM381.002 719l-184 71l29 59l175 -89z" />
    <glyph glyph-name="Oacute" unicode="&#xd3;" horiz-adv-x="705" 
d="M570 334c0 88.667 -18.998 156.668 -56.998 204.001s-91.667 71 -161 71c-28.667 0 -56.167 -5.66699 -82.5 -17s-49.5 -28.333 -69.5 -51s-35.833 -50.5 -47.5 -83.5s-17.5 -71.167 -17.5 -114.5c0 -41.333 4.33301 -78.833 13 -112.5s22 -62.667 40 -87
s40.5 -43.166 67.5 -56.499s58.833 -20 95.5 -20c28 0 55.167 5.66699 81.5 17s49.666 28.166 69.999 50.499s36.666 50.166 48.999 83.499s18.5 72 18.5 116zM662.002 345.001c0 -56 -8.33301 -106.001 -25 -150.001s-39.5 -81.167 -68.5 -111.5
s-62.833 -53.5 -101.5 -69.5s-80 -24 -124 -24c-50.667 0 -94.667 8.16699 -132 24.5s-68.5 39.333 -93.5 69s-43.667 65.334 -56 107.001s-18.5 88.167 -18.5 139.5c0 56.667 8.33301 107 25 151s39.5 81.167 68.5 111.5s62.833 53.333 101.5 69s80 23.5 124 23.5
c45.333 0 86.5 -7.33301 123.5 -22s68.5 -36.5 94.5 -65.5s46.167 -64.667 60.5 -107s21.5 -90.833 21.5 -145.5zM352.002 719l-21 39l175 90l29 -58z" />
    <glyph glyph-name="Ocircumflex" unicode="&#xd4;" horiz-adv-x="705" 
d="M570 334c0 88.667 -18.998 156.668 -56.998 204.001s-91.667 71 -161 71c-28.667 0 -56.167 -5.66699 -82.5 -17s-49.5 -28.333 -69.5 -51s-35.833 -50.5 -47.5 -83.5s-17.5 -71.167 -17.5 -114.5c0 -41.333 4.33301 -78.833 13 -112.5s22 -62.667 40 -87
s40.5 -43.166 67.5 -56.499s58.833 -20 95.5 -20c28 0 55.167 5.66699 81.5 17s49.666 28.166 69.999 50.499s36.666 50.166 48.999 83.499s18.5 72 18.5 116zM662.002 345.001c0 -56 -8.33301 -106.001 -25 -150.001s-39.5 -81.167 -68.5 -111.5
s-62.833 -53.5 -101.5 -69.5s-80 -24 -124 -24c-50.667 0 -94.667 8.16699 -132 24.5s-68.5 39.333 -93.5 69s-43.667 65.334 -56 107.001s-18.5 88.167 -18.5 139.5c0 56.667 8.33301 107 25 151s39.5 81.167 68.5 111.5s62.833 53.333 101.5 69s80 23.5 124 23.5
c45.333 0 86.5 -7.33301 123.5 -22s68.5 -36.5 94.5 -65.5s46.167 -64.667 60.5 -107s21.5 -90.833 21.5 -145.5zM483.002 717l-129 64l-125 -64l-21 42l148 83l152 -80z" />
    <glyph glyph-name="Otilde" unicode="&#xd5;" horiz-adv-x="705" 
d="M570 334c0 88.667 -18.998 156.668 -56.998 204.001s-91.667 71 -161 71c-28.667 0 -56.167 -5.66699 -82.5 -17s-49.5 -28.333 -69.5 -51s-35.833 -50.5 -47.5 -83.5s-17.5 -71.167 -17.5 -114.5c0 -41.333 4.33301 -78.833 13 -112.5s22 -62.667 40 -87
s40.5 -43.166 67.5 -56.499s58.833 -20 95.5 -20c28 0 55.167 5.66699 81.5 17s49.666 28.166 69.999 50.499s36.666 50.166 48.999 83.499s18.5 72 18.5 116zM662.002 345.001c0 -56 -8.33301 -106.001 -25 -150.001s-39.5 -81.167 -68.5 -111.5
s-62.833 -53.5 -101.5 -69.5s-80 -24 -124 -24c-50.667 0 -94.667 8.16699 -132 24.5s-68.5 39.333 -93.5 69s-43.667 65.334 -56 107.001s-18.5 88.167 -18.5 139.5c0 56.667 8.33301 107 25 151s39.5 81.167 68.5 111.5s62.833 53.333 101.5 69s80 23.5 124 23.5
c45.333 0 86.5 -7.33301 123.5 -22s68.5 -36.5 94.5 -65.5s46.167 -64.667 60.5 -107s21.5 -90.833 21.5 -145.5zM517.002 788c-11.333 -16 -24.833 -29.166 -40.5 -39.499s-34.5 -15.5 -56.5 -15.5c-14.667 0 -27.334 2 -38.001 6s-20.5 8.5 -29.5 13.5
s-17.833 9.5 -26.5 13.5s-19 6 -31 6c-12.667 0 -23.667 -3.33301 -33 -10s-17.666 -15 -24.999 -25l-35 35c11.333 17.333 24.833 31.166 40.5 41.499s35.167 15.5 58.5 15.5c14 0 26.167 -2 36.5 -6s20.166 -8.33301 29.499 -13s18.5 -9 27.5 -13s19.167 -6 30.5 -6
c12.667 0 23.834 3.16699 33.501 9.5s18.167 14.5 25.5 24.5l33 -37v0z" />
    <glyph glyph-name="Odieresis" unicode="&#xd6;" horiz-adv-x="705" 
d="M570 334c0 88.667 -18.998 156.668 -56.998 204.001s-91.667 71 -161 71c-28.667 0 -56.167 -5.66699 -82.5 -17s-49.5 -28.333 -69.5 -51s-35.833 -50.5 -47.5 -83.5s-17.5 -71.167 -17.5 -114.5c0 -41.333 4.33301 -78.833 13 -112.5s22 -62.667 40 -87
s40.5 -43.166 67.5 -56.499s58.833 -20 95.5 -20c28 0 55.167 5.66699 81.5 17s49.666 28.166 69.999 50.499s36.666 50.166 48.999 83.499s18.5 72 18.5 116zM662.002 345.001c0 -56 -8.33301 -106.001 -25 -150.001s-39.5 -81.167 -68.5 -111.5
s-62.833 -53.5 -101.5 -69.5s-80 -24 -124 -24c-50.667 0 -94.667 8.16699 -132 24.5s-68.5 39.333 -93.5 69s-43.667 65.334 -56 107.001s-18.5 88.167 -18.5 139.5c0 56.667 8.33301 107 25 151s39.5 81.167 68.5 111.5s62.833 53.333 101.5 69s80 23.5 124 23.5
c45.333 0 86.5 -7.33301 123.5 -22s68.5 -36.5 94.5 -65.5s46.167 -64.667 60.5 -107s21.5 -90.833 21.5 -145.5zM297.002 781c0 -13.333 -5 -25 -15 -35s-21.667 -15 -35 -15s-24.833 5 -34.5 15s-14.5 21.667 -14.5 35s4.83301 24.833 14.5 34.5s21.167 14.5 34.5 14.5
s25 -4.83301 35 -14.5s15 -21.167 15 -34.5zM514.002 781c0 -13.333 -4.83301 -25 -14.5 -35s-21.5 -15 -35.5 -15c-13.333 0 -24.833 5 -34.5 15s-14.5 21.667 -14.5 35s4.83301 24.833 14.5 34.5s21.167 14.5 34.5 14.5c14 0 25.833 -4.83301 35.5 -14.5
s14.5 -21.167 14.5 -34.5z" />
    <glyph glyph-name="multiply" unicode="&#xd7;" 
d="M435 29l-163 172l-162 -171l-44 45l162 173l-162 173l49 49l162 -171l162 171l44 -46l-162 -171l164 -174z" />
    <glyph glyph-name="Oslash" unicode="&#xd8;" horiz-adv-x="705" 
d="M407 601c-11.333 2.66699 -22.5 4.50195 -33.5 5.50195s-23.167 1.16699 -36.5 0.5c-28 -1.33301 -54.333 -8 -79 -20s-46.5 -29.167 -65.5 -51.5s-34 -49.833 -45 -82.5s-16.5 -70.334 -16.5 -113.001c0 -53.333 6.83301 -100.333 20.5 -141s37.5 -72.334 71.5 -95.001
l184 497v0zM570 332.002c0 56.667 -8.33203 106.163 -24.999 148.496s-42.334 73.833 -77.001 94.5l-183 -501c11.333 -3.33301 22.833 -5.66602 34.5 -6.99902s23.167 -2 34.5 -2c30 0.666992 58.167 6.83398 84.5 18.501s49.333 28.834 69 51.501s35 50.334 46 83.001
s16.5 70.667 16.5 114zM659.001 340.998c0 -56 -8.16602 -105.832 -24.499 -149.499s-38.833 -80.334 -67.5 -110.001s-62.5 -52.334 -101.5 -68.001s-81.167 -23.5 -126.5 -23.5c-30.667 0 -57.334 3.33301 -80.001 10l-38 -103l-65 21l38 103
c-53.333 26.667 -92 67.167 -116 121.5s-36 117.5 -36 189.5c0 56 8.16699 106 24.5 150s38.833 81 67.5 111s62.167 52.833 100.5 68.5s79.5 23.5 123.5 23.5c26.667 0 51.667 -3 75 -9l36 98l64 -22l-35 -95c50.667 -23.333 90.167 -61.166 118.5 -113.499
s42.5 -119.833 42.5 -202.5z" />
    <glyph glyph-name="Ugrave" unicode="&#xd9;" horiz-adv-x="695" 
d="M607 265c0 -88.667 -23.001 -156.667 -69.001 -204s-112.667 -71 -200 -71c-51.333 0 -93.333 7.5 -126 22.5s-58.167 34.833 -76.5 59.5s-31 52.334 -38 83.001s-10.5 62 -10.5 94v426h87v-419c0 -26 2.5 -50.833 7.5 -74.5s14 -44.334 27 -62.001
s30.5 -31.667 52.5 -42s50 -15.5 84 -15.5c60.667 0 105.334 15.167 134.001 45.5s43 80.5 43 150.5v417h85v-410v0zM371.999 719l-184 71l29 59l175 -89z" />
    <glyph glyph-name="Uacute" unicode="&#xda;" horiz-adv-x="695" 
d="M607 265c0 -88.667 -23.001 -156.667 -69.001 -204s-112.667 -71 -200 -71c-51.333 0 -93.333 7.5 -126 22.5s-58.167 34.833 -76.5 59.5s-31 52.334 -38 83.001s-10.5 62 -10.5 94v426h87v-419c0 -26 2.5 -50.833 7.5 -74.5s14 -44.334 27 -62.001
s30.5 -31.667 52.5 -42s50 -15.5 84 -15.5c60.667 0 105.334 15.167 134.001 45.5s43 80.5 43 150.5v417h85v-410v0zM327.999 719l-21 39l175 90l29 -58z" />
    <glyph glyph-name="Ucircumflex" unicode="&#xdb;" horiz-adv-x="695" 
d="M607 265c0 -88.667 -23.001 -156.667 -69.001 -204s-112.667 -71 -200 -71c-51.333 0 -93.333 7.5 -126 22.5s-58.167 34.833 -76.5 59.5s-31 52.334 -38 83.001s-10.5 62 -10.5 94v426h87v-419c0 -26 2.5 -50.833 7.5 -74.5s14 -44.334 27 -62.001
s30.5 -31.667 52.5 -42s50 -15.5 84 -15.5c60.667 0 105.334 15.167 134.001 45.5s43 80.5 43 150.5v417h85v-410v0zM472.999 717l-129 64l-125 -64l-21 42l148 83l152 -80z" />
    <glyph glyph-name="Udieresis" unicode="&#xdc;" horiz-adv-x="695" 
d="M607 265c0 -88.667 -23.001 -156.667 -69.001 -204s-112.667 -71 -200 -71c-51.333 0 -93.333 7.5 -126 22.5s-58.167 34.833 -76.5 59.5s-31 52.334 -38 83.001s-10.5 62 -10.5 94v426h87v-419c0 -26 2.5 -50.833 7.5 -74.5s14 -44.334 27 -62.001
s30.5 -31.667 52.5 -42s50 -15.5 84 -15.5c60.667 0 105.334 15.167 134.001 45.5s43 80.5 43 150.5v417h85v-410v0zM283.999 781c0 -13.333 -5 -25 -15 -35s-21.667 -15 -35 -15s-24.833 5 -34.5 15s-14.5 21.667 -14.5 35s4.83301 24.833 14.5 34.5s21.167 14.5 34.5 14.5
s25 -4.83301 35 -14.5s15 -21.167 15 -34.5zM500.999 781c0 -13.333 -4.83301 -25 -14.5 -35s-21.5 -15 -35.5 -15c-13.333 0 -24.833 5 -34.5 15s-14.5 21.667 -14.5 35s4.83301 24.833 14.5 34.5s21.167 14.5 34.5 14.5c14 0 25.833 -4.83301 35.5 -14.5
s14.5 -21.167 14.5 -34.5z" />
    <glyph glyph-name="Yacute" unicode="&#xdd;" horiz-adv-x="533" 
d="M307 244v-244h-86v244l-211 431h95l110 -233l27 -59.5c8.66699 -19.667 16.667 -39.167 24 -58.5h1c8 21.333 17.167 42.833 27.5 64.5l31.5 65.5l106 221h91zM260 719l-21 39l175 90l29 -58z" />
    <glyph glyph-name="Thorn" unicode="&#xde;" horiz-adv-x="523" 
d="M174 558c12.667 0.666992 25.333 0.999023 38 0.999023h39c77.333 0 136.5 -17.833 177.5 -53.5s61.5 -83.167 61.5 -142.5c0 -33.333 -6.5 -63.666 -19.5 -90.999s-31.167 -50.833 -54.5 -70.5s-50.833 -35 -82.5 -46s-66.5 -16.5 -104.5 -16.5h-28
c-8.66699 0 -17.667 0.666992 -27 2v-141h-87v675h87v-117zM398.999 352.999c0 44 -12.833 77.333 -38.5 100s-65.834 34 -120.501 34h-36c-10.667 0 -20.667 -0.333008 -30 -1v-272c8.66699 -1.33301 17.834 -2.33301 27.501 -3s19.5 -1 29.5 -1c52 0 93 13 123 39
s45 60.667 45 104z" />
    <glyph glyph-name="germandbls" unicode="&#xdf;" horiz-adv-x="591" 
d="M549 148c0 -22.667 -4.66797 -43.668 -14.001 -63.001s-22.5 -36 -39.5 -50s-37.667 -25 -62 -33s-51.833 -12 -82.5 -12c-19.333 0 -37.333 1 -54 3s-31.334 4.66699 -44.001 8l3 75c14 -5.33301 29.5 -9.5 46.5 -12.5s33.167 -4.5 48.5 -4.5
c39.333 0 67.666 8 84.999 24s26 34 26 54c0 18 -4.83301 33.167 -14.5 45.5s-22 23.166 -37 32.499s-31 18.5 -48 27.5s-33 19.667 -48 32s-27.333 27.166 -37 44.499s-14.5 39 -14.5 65c0 30 7.33301 53.667 22 71s30.834 32.5 48.501 45.5s33.834 26.5 48.501 40.5
s22 32.667 22 56c0 25.333 -9.16699 44.166 -27.5 56.499s-41.833 18.5 -70.5 18.5c-41.333 0 -74 -13.167 -98 -39.5s-36 -68.5 -36 -126.5v-506h-85v501c0 42.667 5.83301 79.167 17.5 109.5s27.667 54.833 48 73.5s44.166 32.334 71.499 41.001s56.333 13 87 13
c58 0 102.333 -12.5 133 -37.5s46 -56.833 46 -95.5c0 -22.667 -3.5 -41.5 -10.5 -56.5s-15.833 -27.833 -26.5 -38.5s-22 -19.834 -34 -27.501s-23.333 -15.667 -34 -24s-19.5 -17.5 -26.5 -27.5s-10.5 -22.667 -10.5 -38c0 -17.333 5 -32 15 -44s22.333 -22.667 37 -32
s30.834 -18.666 48.501 -27.999s33.834 -20.166 48.501 -32.499s27 -27.166 37 -44.499s15 -38.666 15 -63.999z" />
    <glyph glyph-name="agrave" unicode="&#xe0;" horiz-adv-x="521" 
d="M348 234c-44 0 -80.167 -3 -108.5 -9s-50.833 -13.667 -67.5 -23s-28.167 -20.333 -34.5 -33s-9.5 -25.334 -9.5 -38.001c0 -21.333 7.5 -38.833 22.5 -52.5s34.5 -20.5 58.5 -20.5c20.667 0 39.5 4.66699 56.5 14s31.667 21.833 44 37.5s21.833 33.334 28.5 53.001
s10 39.5 10 59.5v12zM352 0c0 18 0.167969 35.833 0.500977 53.5s1.83301 33.5 4.5 47.5h-2c-12 -31.333 -32.833 -57.5 -62.5 -78.5s-65.5 -31.5 -107.5 -31.5c-40.667 0 -74.167 11.167 -100.5 33.5s-39.5 53.5 -39.5 93.5c0 54 26 96.833 78 128.5s127 47.5 225 47.5v26
c0 40 -8 69.833 -24 89.5s-46 29.5 -90 29.5c-25.333 0 -50 -3.33301 -74 -10s-46 -15.667 -66 -27l-18 69c21.333 9.33301 46.666 17.666 75.999 24.999s61 11 95 11c36.667 0 67 -4.16699 91 -12.5s43 -20.166 57 -35.499s23.667 -33.833 29 -55.5s8 -45.5 8 -71.5v-187
c0 -24 0.166992 -48.833 0.5 -74.5s0.833008 -49.167 1.5 -70.5h-82zM288.001 576l-146 99l44 60l138 -111z" />
    <glyph glyph-name="aacute" unicode="&#xe1;" horiz-adv-x="521" 
d="M348 234c-44 0 -80.167 -3 -108.5 -9s-50.833 -13.667 -67.5 -23s-28.167 -20.333 -34.5 -33s-9.5 -25.334 -9.5 -38.001c0 -21.333 7.5 -38.833 22.5 -52.5s34.5 -20.5 58.5 -20.5c20.667 0 39.5 4.66699 56.5 14s31.667 21.833 44 37.5s21.833 33.334 28.5 53.001
s10 39.5 10 59.5v12zM352 0c0 18 0.167969 35.833 0.500977 53.5s1.83301 33.5 4.5 47.5h-2c-12 -31.333 -32.833 -57.5 -62.5 -78.5s-65.5 -31.5 -107.5 -31.5c-40.667 0 -74.167 11.167 -100.5 33.5s-39.5 53.5 -39.5 93.5c0 54 26 96.833 78 128.5s127 47.5 225 47.5v26
c0 40 -8 69.833 -24 89.5s-46 29.5 -90 29.5c-25.333 0 -50 -3.33301 -74 -10s-46 -15.667 -66 -27l-18 69c21.333 9.33301 46.666 17.666 75.999 24.999s61 11 95 11c36.667 0 67 -4.16699 91 -12.5s43 -20.166 57 -35.499s23.667 -33.833 29 -55.5s8 -45.5 8 -71.5v-187
c0 -24 0.166992 -48.833 0.5 -74.5s0.833008 -49.167 1.5 -70.5h-82zM235.001 577l-35 47l138 111l43 -59z" />
    <glyph glyph-name="acircumflex" unicode="&#xe2;" horiz-adv-x="521" 
d="M348 234c-44 0 -80.167 -3 -108.5 -9s-50.833 -13.667 -67.5 -23s-28.167 -20.333 -34.5 -33s-9.5 -25.334 -9.5 -38.001c0 -21.333 7.5 -38.833 22.5 -52.5s34.5 -20.5 58.5 -20.5c20.667 0 39.5 4.66699 56.5 14s31.667 21.833 44 37.5s21.833 33.334 28.5 53.001
s10 39.5 10 59.5v12zM352 0c0 18 0.167969 35.833 0.500977 53.5s1.83301 33.5 4.5 47.5h-2c-12 -31.333 -32.833 -57.5 -62.5 -78.5s-65.5 -31.5 -107.5 -31.5c-40.667 0 -74.167 11.167 -100.5 33.5s-39.5 53.5 -39.5 93.5c0 54 26 96.833 78 128.5s127 47.5 225 47.5v26
c0 40 -8 69.833 -24 89.5s-46 29.5 -90 29.5c-25.333 0 -50 -3.33301 -74 -10s-46 -15.667 -66 -27l-18 69c21.333 9.33301 46.666 17.666 75.999 24.999s61 11 95 11c36.667 0 67 -4.16699 91 -12.5s43 -20.166 57 -35.499s23.667 -33.833 29 -55.5s8 -45.5 8 -71.5v-187
c0 -24 0.166992 -48.833 0.5 -74.5s0.833008 -49.167 1.5 -70.5h-82zM358.001 581l-105 68l-100 -68l-33 48l134 94l140 -92z" />
    <glyph glyph-name="atilde" unicode="&#xe3;" horiz-adv-x="521" 
d="M348 234c-44 0 -80.167 -3 -108.5 -9s-50.833 -13.667 -67.5 -23s-28.167 -20.333 -34.5 -33s-9.5 -25.334 -9.5 -38.001c0 -21.333 7.5 -38.833 22.5 -52.5s34.5 -20.5 58.5 -20.5c20.667 0 39.5 4.66699 56.5 14s31.667 21.833 44 37.5s21.833 33.334 28.5 53.001
s10 39.5 10 59.5v12zM352 0c0 18 0.167969 35.833 0.500977 53.5s1.83301 33.5 4.5 47.5h-2c-12 -31.333 -32.833 -57.5 -62.5 -78.5s-65.5 -31.5 -107.5 -31.5c-40.667 0 -74.167 11.167 -100.5 33.5s-39.5 53.5 -39.5 93.5c0 54 26 96.833 78 128.5s127 47.5 225 47.5v26
c0 40 -8 69.833 -24 89.5s-46 29.5 -90 29.5c-25.333 0 -50 -3.33301 -74 -10s-46 -15.667 -66 -27l-18 69c21.333 9.33301 46.666 17.666 75.999 24.999s61 11 95 11c36.667 0 67 -4.16699 91 -12.5s43 -20.166 57 -35.499s23.667 -33.833 29 -55.5s8 -45.5 8 -71.5v-187
c0 -24 0.166992 -48.833 0.5 -74.5s0.833008 -49.167 1.5 -70.5h-82zM414.001 636c-10 -10 -23.332 -19 -39.999 -27s-34.667 -12 -54 -12c-18 0 -33 2.5 -45 7.5s-23.333 10.333 -34 16l-31.5 16c-10.333 5 -22.5 7.5 -36.5 7.5c-13.333 0 -25.5 -3 -36.5 -9
s-21.167 -14 -30.5 -24l-21 57c12 12 26.333 21.833 43 29.5s34.334 11.5 53.001 11.5c16.667 0 31 -2.5 43 -7.5s23.333 -10.333 34 -16l31.5 -16c10.333 -5 22.166 -7.5 35.499 -7.5c14 0 26.667 3 38 9s21.666 13.667 30.999 23l20 -58v0z" />
    <glyph glyph-name="adieresis" unicode="&#xe4;" horiz-adv-x="521" 
d="M348 234c-44 0 -80.167 -3 -108.5 -9s-50.833 -13.667 -67.5 -23s-28.167 -20.333 -34.5 -33s-9.5 -25.334 -9.5 -38.001c0 -21.333 7.5 -38.833 22.5 -52.5s34.5 -20.5 58.5 -20.5c20.667 0 39.5 4.66699 56.5 14s31.667 21.833 44 37.5s21.833 33.334 28.5 53.001
s10 39.5 10 59.5v12zM352 0c0 18 0.167969 35.833 0.500977 53.5s1.83301 33.5 4.5 47.5h-2c-12 -31.333 -32.833 -57.5 -62.5 -78.5s-65.5 -31.5 -107.5 -31.5c-40.667 0 -74.167 11.167 -100.5 33.5s-39.5 53.5 -39.5 93.5c0 54 26 96.833 78 128.5s127 47.5 225 47.5v26
c0 40 -8 69.833 -24 89.5s-46 29.5 -90 29.5c-25.333 0 -50 -3.33301 -74 -10s-46 -15.667 -66 -27l-18 69c21.333 9.33301 46.666 17.666 75.999 24.999s61 11 95 11c36.667 0 67 -4.16699 91 -12.5s43 -20.166 57 -35.499s23.667 -33.833 29 -55.5s8 -45.5 8 -71.5v-187
c0 -24 0.166992 -48.833 0.5 -74.5s0.833008 -49.167 1.5 -70.5h-82zM212.001 653c0 -14.667 -4.83301 -26.834 -14.5 -36.501s-21.834 -14.5 -36.501 -14.5s-27 4.83301 -37 14.5s-15 21.834 -15 36.501s5 27 15 37s22.333 15 37 15s26.834 -5 36.501 -15
s14.5 -22.333 14.5 -37zM402.001 653c0 -14.667 -4.83301 -26.834 -14.5 -36.501s-21.834 -14.5 -36.501 -14.5s-27 4.83301 -37 14.5s-15 21.834 -15 36.501s5 27 15 37s22.333 15 37 15s26.834 -5 36.501 -15s14.5 -22.333 14.5 -37z" />
    <glyph glyph-name="aring" unicode="&#xe5;" horiz-adv-x="521" 
d="M348 234c-44 0 -80.167 -3 -108.5 -9s-50.833 -13.667 -67.5 -23s-28.167 -20.333 -34.5 -33s-9.5 -25.334 -9.5 -38.001c0 -21.333 7.5 -38.833 22.5 -52.5s34.5 -20.5 58.5 -20.5c20.667 0 39.5 4.66699 56.5 14s31.667 21.833 44 37.5s21.833 33.334 28.5 53.001
s10 39.5 10 59.5v12zM352 0c0 18 0.167969 35.833 0.500977 53.5s1.83301 33.5 4.5 47.5h-2c-12 -31.333 -32.833 -57.5 -62.5 -78.5s-65.5 -31.5 -107.5 -31.5c-40.667 0 -74.167 11.167 -100.5 33.5s-39.5 53.5 -39.5 93.5c0 54 26 96.833 78 128.5s127 47.5 225 47.5v26
c0 40 -8 69.833 -24 89.5s-46 29.5 -90 29.5c-25.333 0 -50 -3.33301 -74 -10s-46 -15.667 -66 -27l-18 69c21.333 9.33301 46.666 17.666 75.999 24.999s61 11 95 11c36.667 0 67 -4.16699 91 -12.5s43 -20.166 57 -35.499s23.667 -33.833 29 -55.5s8 -45.5 8 -71.5v-187
c0 -24 0.166992 -48.833 0.5 -74.5s0.833008 -49.167 1.5 -70.5h-82zM314.001 662c0 15.333 -5.5 28.666 -16.5 39.999s-24.5 17 -40.5 17c-15.333 0 -28.333 -5.66699 -39 -17s-16 -24.666 -16 -39.999s5.33301 -28.666 16 -39.999s23.667 -17 39 -17
c16 0 29.5 5.66699 40.5 17s16.5 24.666 16.5 39.999zM370.001 662c0 -14.667 -3 -28.499 -9 -41.499s-14.167 -24.333 -24.5 -34s-22.333 -17.334 -36 -23.001s-28.167 -8.5 -43.5 -8.5c-31.333 0 -57.666 10 -78.999 30s-32 45.667 -32 77c0 15.333 3 29.666 9 42.999
s14 24.833 24 34.5s21.667 17.167 35 22.5s27.666 8 42.999 8c32 0 58.833 -10.167 80.5 -30.5s32.5 -46.166 32.5 -77.499z" />
    <glyph glyph-name="ae" unicode="&#xe6;" horiz-adv-x="808" 
d="M348 230c-44.667 0 -81 -3.16797 -109 -9.50098s-50 -14.333 -66 -24s-27 -20.5 -33 -32.5s-9 -23.667 -9 -35c0 -21.333 7 -38.5 21 -51.5s33 -19.5 57 -19.5c20.667 0 39.5 4.66699 56.5 14s31.667 21.833 44 37.5s21.833 33.334 28.5 53.001s10 39.5 10 59.5v8z
M674 318.999c1.33301 37.333 -8.33301 67.333 -29 90s-49 34 -85 34c-33.333 0 -61.333 -11.167 -84 -33.5s-36.667 -52.5 -42 -90.5h240v0zM761.001 298.999c0 -11.333 -0.99707 -24.999 -2.99707 -40.999h-327c-2.66699 -70 9.5 -120.5 36.5 -151.5
s67.5 -46.5 121.5 -46.5c26 0 52 2.83301 78 8.5s48.667 13.167 68 22.5l8 -69c-48.667 -20.667 -104.334 -31 -167.001 -31c-56.667 0 -101.334 11.167 -134.001 33.5s-55.334 49.833 -68.001 82.5l-1 -1c-7.33301 -14 -16.833 -28 -28.5 -42s-25.334 -26.333 -41.001 -37
s-33.5 -19.334 -53.5 -26.001s-42 -10 -66 -10c-40.667 0 -73.667 10.333 -99 31s-38 51 -38 91c0 26.667 6.66699 51 20 73s32.833 40.667 58.5 56s57.167 27.166 94.5 35.499s80 12.5 128 12.5v39c0 34 -8.16699 60.833 -24.5 80.5s-45.166 29.5 -86.499 29.5
c-23.333 0 -48.833 -3.66699 -76.5 -11s-52.167 -17.666 -73.5 -30.999l-9 73c24 10.667 50.5 19.5 79.5 26.5s60.167 10.5 93.5 10.5c36 0 67.333 -6.33301 94 -19s46.667 -33 60 -61h1c14.667 22.667 35.5 41.5 62.5 56.5s58.833 22.5 95.5 22.5
c34.667 0 64.5 -5.5 89.5 -16.5s45.5 -26 61.5 -45s27.667 -41 35 -66s11 -51.5 11 -79.5z" />
    <glyph glyph-name="ccedilla" unicode="&#xe7;" horiz-adv-x="447" 
d="M418 30c-22.667 -11.333 -47.667 -20.332 -75 -26.999s-55.666 -10 -84.999 -10s-57 3.83301 -83 11.5s-48.833 20.667 -68.5 39s-35.334 42.833 -47.001 73.5s-17.5 69 -17.5 115c0 40.667 4.83301 77.834 14.5 111.501s24.5 62.5 44.5 86.5s44.833 42.5 74.5 55.5
s64.5 19.5 104.5 19.5c23.333 0 46 -2.33301 68 -7s43.667 -11.334 65 -20.001l-21 -71c-38.667 18.667 -78.334 28 -119.001 28c-48 0 -83.667 -16.667 -107 -50s-35 -80.333 -35 -141c0 -24.667 2.16699 -47.834 6.5 -69.501s11.833 -40.5 22.5 -56.5
s24.834 -28.667 42.501 -38s40.167 -14 67.5 -14c24 0 47.333 2.83301 70 8.5s42.667 13.167 60 22.5l18 -67v0zM288 -50.999c7.33301 -16 12 -32 14 -48s0 -32 -6 -48s-16.667 -31.833 -32 -47.5s-36.333 -31.167 -63 -46.5l-38 35c32.667 24 51.667 48.833 57 74.5
s0.333008 52.5 -15 80.5h83v0z" />
    <glyph glyph-name="egrave" unicode="&#xe8;" horiz-adv-x="507" 
d="M373 315c1.33301 39.333 -8.33301 70.5 -29 93.5s-49 34.5 -85 34.5c-34 0 -62 -11.333 -84 -34s-35.667 -54 -41 -94h239v0zM458.001 295l0.000976562 -18.999c0 -6.66699 -0.666992 -14 -2 -22h-326c-2.66699 -68 9.16602 -117.333 35.499 -148s65.5 -46 117.5 -46
c28 0 54.833 2.83301 80.5 8.5s48.167 13.167 67.5 22.5l15 -68c-23.333 -9.33301 -50.333 -17 -81 -23s-63 -9 -97 -9c-73.333 0 -129.666 20.667 -168.999 62s-58.333 105.666 -57 192.999c0 37.333 5 71.833 15 103.5s24.5 59.167 43.5 82.5s42.167 41.5 69.5 54.5
s58.666 19.5 93.999 19.5c34.667 0 64.167 -5.66699 88.5 -17s44.333 -26.833 60 -46.5s27.167 -42.167 34.5 -67.5s11 -52 11 -80zM288.002 576.001l-146 99l44 60l138 -111z" />
    <glyph glyph-name="eacute" unicode="&#xe9;" horiz-adv-x="507" 
d="M373 315c1.33301 39.333 -8.33301 70.5 -29 93.5s-49 34.5 -85 34.5c-34 0 -62 -11.333 -84 -34s-35.667 -54 -41 -94h239v0zM458.001 295l0.000976562 -18.999c0 -6.66699 -0.666992 -14 -2 -22h-326c-2.66699 -68 9.16602 -117.333 35.499 -148s65.5 -46 117.5 -46
c28 0 54.833 2.83301 80.5 8.5s48.167 13.167 67.5 22.5l15 -68c-23.333 -9.33301 -50.333 -17 -81 -23s-63 -9 -97 -9c-73.333 0 -129.666 20.667 -168.999 62s-58.333 105.666 -57 192.999c0 37.333 5 71.833 15 103.5s24.5 59.167 43.5 82.5s42.167 41.5 69.5 54.5
s58.666 19.5 93.999 19.5c34.667 0 64.167 -5.66699 88.5 -17s44.333 -26.833 60 -46.5s27.167 -42.167 34.5 -67.5s11 -52 11 -80zM235.002 577.001l-35 47l138 111l43 -59z" />
    <glyph glyph-name="ecircumflex" unicode="&#xea;" horiz-adv-x="507" 
d="M373 315c1.33301 39.333 -8.33301 70.5 -29 93.5s-49 34.5 -85 34.5c-34 0 -62 -11.333 -84 -34s-35.667 -54 -41 -94h239v0zM458.001 295l0.000976562 -18.999c0 -6.66699 -0.666992 -14 -2 -22h-326c-2.66699 -68 9.16602 -117.333 35.499 -148s65.5 -46 117.5 -46
c28 0 54.833 2.83301 80.5 8.5s48.167 13.167 67.5 22.5l15 -68c-23.333 -9.33301 -50.333 -17 -81 -23s-63 -9 -97 -9c-73.333 0 -129.666 20.667 -168.999 62s-58.333 105.666 -57 192.999c0 37.333 5 71.833 15 103.5s24.5 59.167 43.5 82.5s42.167 41.5 69.5 54.5
s58.666 19.5 93.999 19.5c34.667 0 64.167 -5.66699 88.5 -17s44.333 -26.833 60 -46.5s27.167 -42.167 34.5 -67.5s11 -52 11 -80zM365.002 581.001l-105 68l-100 -68l-33 48l134 94l140 -92z" />
    <glyph glyph-name="edieresis" unicode="&#xeb;" horiz-adv-x="507" 
d="M373 315c1.33301 39.333 -8.33301 70.5 -29 93.5s-49 34.5 -85 34.5c-34 0 -62 -11.333 -84 -34s-35.667 -54 -41 -94h239v0zM458.001 295l0.000976562 -18.999c0 -6.66699 -0.666992 -14 -2 -22h-326c-2.66699 -68 9.16602 -117.333 35.499 -148s65.5 -46 117.5 -46
c28 0 54.833 2.83301 80.5 8.5s48.167 13.167 67.5 22.5l15 -68c-23.333 -9.33301 -50.333 -17 -81 -23s-63 -9 -97 -9c-73.333 0 -129.666 20.667 -168.999 62s-58.333 105.666 -57 192.999c0 37.333 5 71.833 15 103.5s24.5 59.167 43.5 82.5s42.167 41.5 69.5 54.5
s58.666 19.5 93.999 19.5c34.667 0 64.167 -5.66699 88.5 -17s44.333 -26.833 60 -46.5s27.167 -42.167 34.5 -67.5s11 -52 11 -80zM221.002 653.001c0 -14.667 -4.83301 -26.834 -14.5 -36.501s-21.834 -14.5 -36.501 -14.5s-27 4.83301 -37 14.5s-15 21.834 -15 36.501
s5 27 15 37s22.333 15 37 15s26.834 -5 36.501 -15s14.5 -22.333 14.5 -37zM411.002 653.001c0 -14.667 -4.83301 -26.834 -14.5 -36.501s-21.834 -14.5 -36.501 -14.5s-27 4.83301 -37 14.5s-15 21.834 -15 36.501s5 27 15 37s22.333 15 37 15s26.834 -5 36.501 -15
s14.5 -22.333 14.5 -37z" />
    <glyph glyph-name="igrave" unicode="&#xec;" horiz-adv-x="259" 
d="M87 0v497h85v-497h-85zM162 576l-146 99l44 60l138 -111z" />
    <glyph glyph-name="iacute" unicode="&#xed;" horiz-adv-x="259" 
d="M87 0v497h85v-497h-85zM96 577l-35 47l138 111l43 -59z" />
    <glyph glyph-name="icircumflex" unicode="&#xee;" horiz-adv-x="259" 
d="M87 0v497h85v-497h-85zM234 581l-105 68l-100 -68l-33 48l134 94l140 -92z" />
    <glyph glyph-name="idieresis" unicode="&#xef;" horiz-adv-x="259" 
d="M87 0v497h85v-497h-85zM87 653c0 -14.667 -4.83301 -26.834 -14.5 -36.501s-21.834 -14.5 -36.501 -14.5s-27 4.83301 -37 14.5s-15 21.834 -15 36.501s5 27 15 37s22.333 15 37 15s26.834 -5 36.501 -15s14.5 -22.333 14.5 -37zM277 653
c0 -14.667 -4.83301 -26.834 -14.5 -36.501s-21.834 -14.5 -36.501 -14.5s-27 4.83301 -37 14.5s-15 21.834 -15 36.501s5 27 15 37s22.333 15 37 15s26.834 -5 36.501 -15s14.5 -22.333 14.5 -37z" />
    <glyph glyph-name="eth" unicode="&#xf0;" horiz-adv-x="574" 
d="M385 426c-15.333 4 -30.665 6.83301 -45.998 8.5s-30.333 2.5 -45 2.5c-24.667 0 -47 -3.83301 -67 -11.5s-37.167 -19.667 -51.5 -36s-25.333 -37.5 -33 -63.5s-11.5 -57 -11.5 -93c0 -54.667 9.16699 -97 27.5 -127s47.166 -45 86.499 -45
c23.333 0 43.666 6.16699 60.999 18.5s31.833 28 43.5 47s20.5 40 26.5 63s9 45.5 9 67.5v169zM470.001 608l0.000976562 -608.001h-83c0 14.667 0.5 31.834 1.5 51.501s3.16699 37.167 6.5 52.5l-2 1c-13.333 -34.667 -34.666 -62.334 -63.999 -83.001s-64 -31 -104 -31
c-61.333 0 -107.166 20.833 -137.499 62.5s-45.5 98.834 -45.5 171.501c0 44 6 83.167 18 117.5s29.167 63.5 51.5 87.5s49.166 42.333 80.499 55s66.666 19 105.999 19c14 0 28.167 -0.5 42.5 -1.5s29.166 -2.16699 44.499 -3.5v88l-102 -34l-13 63l115 39v75h85v-55l89 31
l13 -64z" />
    <glyph glyph-name="ntilde" unicode="&#xf1;" horiz-adv-x="576" 
d="M405 0v320.998c0 36.667 -6.16699 65.167 -18.5 85.5s-35.5 30.5 -69.5 30.5c-21.333 0 -40.833 -5 -58.5 -15s-33 -23.833 -46 -41.5s-23 -38.667 -30 -63s-10.5 -50.5 -10.5 -78.5v-239h-85v497h83c0 -15.333 -0.666992 -33.166 -2 -53.499
s-3.66602 -37.833 -6.99902 -52.5l2 -1c14.667 35.333 37 63.666 67 84.999s66.333 32 109 32c28.667 0 52.667 -4.16699 72 -12.5s34.666 -19.666 45.999 -33.999s19.5 -31.166 24.5 -50.499s7.5 -40 7.5 -62v-348h-84zM448 635.998c-10 -10 -23.332 -19 -39.999 -27
s-34.667 -12 -54 -12c-18 0 -33 2.5 -45 7.5s-23.333 10.333 -34 16l-31.5 16c-10.333 5 -22.5 7.5 -36.5 7.5c-13.333 0 -25.5 -3 -36.5 -9s-21.167 -14 -30.5 -24l-21 57c12 12 26.333 21.833 43 29.5s34.334 11.5 53.001 11.5c16.667 0 31 -2.5 43 -7.5
s23.333 -10.333 34 -16l31.5 -16c10.333 -5 22.166 -7.5 35.499 -7.5c14 0 26.667 3 38 9s21.666 13.667 30.999 23l20 -58v0z" />
    <glyph glyph-name="ograve" unicode="&#xf2;" horiz-adv-x="544" 
d="M415 252c0 58.667 -11.834 104 -35.501 136s-59.5 48 -107.5 48c-18.667 0 -36.667 -3.66699 -54 -11s-32.666 -18.5 -45.999 -33.5s-24 -34 -32 -57s-12 -50.167 -12 -81.5c0 -62 12.333 -109.333 37 -142s60.667 -49 108 -49c18.667 0 36.667 3.83301 54 11.5
s32.5 19.167 45.5 34.5s23.333 35 31 59s11.5 52.333 11.5 85zM502.999 257c0 -37.333 -5.66895 -72.168 -17.002 -104.501s-27.5 -60.5 -48.5 -84.5s-46.333 -42.833 -76 -56.5s-62.834 -20.5 -99.501 -20.5c-34 0 -64.667 5 -92 15s-50.666 25.5 -69.999 46.5
s-34.166 47.333 -44.499 79s-15.5 69.5 -15.5 113.5c0 36 5.5 69.833 16.5 101.5s26.833 59.334 47.5 83.001s45.834 42.334 75.501 56.001s63.167 20.5 100.5 20.5c31.333 0 60.5 -4.5 87.5 -13.5s50.5 -23.5 70.5 -43.5s35.833 -45.833 47.5 -77.5
s17.5 -69.834 17.5 -114.501zM306.997 575.998l-146 99l44 60l138 -111z" />
    <glyph glyph-name="oacute" unicode="&#xf3;" horiz-adv-x="544" 
d="M415 252c0 58.667 -11.834 104 -35.501 136s-59.5 48 -107.5 48c-18.667 0 -36.667 -3.66699 -54 -11s-32.666 -18.5 -45.999 -33.5s-24 -34 -32 -57s-12 -50.167 -12 -81.5c0 -62 12.333 -109.333 37 -142s60.667 -49 108 -49c18.667 0 36.667 3.83301 54 11.5
s32.5 19.167 45.5 34.5s23.333 35 31 59s11.5 52.333 11.5 85zM502.999 257c0 -37.333 -5.66895 -72.168 -17.002 -104.501s-27.5 -60.5 -48.5 -84.5s-46.333 -42.833 -76 -56.5s-62.834 -20.5 -99.501 -20.5c-34 0 -64.667 5 -92 15s-50.666 25.5 -69.999 46.5
s-34.166 47.333 -44.499 79s-15.5 69.5 -15.5 113.5c0 36 5.5 69.833 16.5 101.5s26.833 59.334 47.5 83.001s45.834 42.334 75.501 56.001s63.167 20.5 100.5 20.5c31.333 0 60.5 -4.5 87.5 -13.5s50.5 -23.5 70.5 -43.5s35.833 -45.833 47.5 -77.5
s17.5 -69.834 17.5 -114.501zM247.997 576.998l-35 47l138 111l43 -59z" />
    <glyph glyph-name="ocircumflex" unicode="&#xf4;" horiz-adv-x="544" 
d="M415 252c0 58.667 -11.834 104 -35.501 136s-59.5 48 -107.5 48c-18.667 0 -36.667 -3.66699 -54 -11s-32.666 -18.5 -45.999 -33.5s-24 -34 -32 -57s-12 -50.167 -12 -81.5c0 -62 12.333 -109.333 37 -142s60.667 -49 108 -49c18.667 0 36.667 3.83301 54 11.5
s32.5 19.167 45.5 34.5s23.333 35 31 59s11.5 52.333 11.5 85zM502.999 257c0 -37.333 -5.66895 -72.168 -17.002 -104.501s-27.5 -60.5 -48.5 -84.5s-46.333 -42.833 -76 -56.5s-62.834 -20.5 -99.501 -20.5c-34 0 -64.667 5 -92 15s-50.666 25.5 -69.999 46.5
s-34.166 47.333 -44.499 79s-15.5 69.5 -15.5 113.5c0 36 5.5 69.833 16.5 101.5s26.833 59.334 47.5 83.001s45.834 42.334 75.501 56.001s63.167 20.5 100.5 20.5c31.333 0 60.5 -4.5 87.5 -13.5s50.5 -23.5 70.5 -43.5s35.833 -45.833 47.5 -77.5
s17.5 -69.834 17.5 -114.501zM374.997 580.998l-105 68l-100 -68l-33 48l134 94l140 -92z" />
    <glyph glyph-name="otilde" unicode="&#xf5;" horiz-adv-x="544" 
d="M415 252c0 58.667 -11.834 104 -35.501 136s-59.5 48 -107.5 48c-18.667 0 -36.667 -3.66699 -54 -11s-32.666 -18.5 -45.999 -33.5s-24 -34 -32 -57s-12 -50.167 -12 -81.5c0 -62 12.333 -109.333 37 -142s60.667 -49 108 -49c18.667 0 36.667 3.83301 54 11.5
s32.5 19.167 45.5 34.5s23.333 35 31 59s11.5 52.333 11.5 85zM502.999 257c0 -37.333 -5.66895 -72.168 -17.002 -104.501s-27.5 -60.5 -48.5 -84.5s-46.333 -42.833 -76 -56.5s-62.834 -20.5 -99.501 -20.5c-34 0 -64.667 5 -92 15s-50.666 25.5 -69.999 46.5
s-34.166 47.333 -44.499 79s-15.5 69.5 -15.5 113.5c0 36 5.5 69.833 16.5 101.5s26.833 59.334 47.5 83.001s45.834 42.334 75.501 56.001s63.167 20.5 100.5 20.5c31.333 0 60.5 -4.5 87.5 -13.5s50.5 -23.5 70.5 -43.5s35.833 -45.833 47.5 -77.5
s17.5 -69.834 17.5 -114.501zM438.997 635.998c-10 -10 -23.332 -19 -39.999 -27s-34.667 -12 -54 -12c-18 0 -33 2.5 -45 7.5s-23.333 10.333 -34 16l-31.5 16c-10.333 5 -22.5 7.5 -36.5 7.5c-13.333 0 -25.5 -3 -36.5 -9s-21.167 -14 -30.5 -24l-21 57
c12 12 26.333 21.833 43 29.5s34.334 11.5 53.001 11.5c16.667 0 31 -2.5 43 -7.5s23.333 -10.333 34 -16l31.5 -16c10.333 -5 22.166 -7.5 35.499 -7.5c14 0 26.667 3 38 9s21.666 13.667 30.999 23l20 -58v0z" />
    <glyph glyph-name="odieresis" unicode="&#xf6;" horiz-adv-x="544" 
d="M415 252c0 58.667 -11.834 104 -35.501 136s-59.5 48 -107.5 48c-18.667 0 -36.667 -3.66699 -54 -11s-32.666 -18.5 -45.999 -33.5s-24 -34 -32 -57s-12 -50.167 -12 -81.5c0 -62 12.333 -109.333 37 -142s60.667 -49 108 -49c18.667 0 36.667 3.83301 54 11.5
s32.5 19.167 45.5 34.5s23.333 35 31 59s11.5 52.333 11.5 85zM502.999 257c0 -37.333 -5.66895 -72.168 -17.002 -104.501s-27.5 -60.5 -48.5 -84.5s-46.333 -42.833 -76 -56.5s-62.834 -20.5 -99.501 -20.5c-34 0 -64.667 5 -92 15s-50.666 25.5 -69.999 46.5
s-34.166 47.333 -44.499 79s-15.5 69.5 -15.5 113.5c0 36 5.5 69.833 16.5 101.5s26.833 59.334 47.5 83.001s45.834 42.334 75.501 56.001s63.167 20.5 100.5 20.5c31.333 0 60.5 -4.5 87.5 -13.5s50.5 -23.5 70.5 -43.5s35.833 -45.833 47.5 -77.5
s17.5 -69.834 17.5 -114.501zM226.997 652.998c0 -14.667 -4.83301 -26.834 -14.5 -36.501s-21.834 -14.5 -36.501 -14.5s-27 4.83301 -37 14.5s-15 21.834 -15 36.501s5 27 15 37s22.333 15 37 15s26.834 -5 36.501 -15s14.5 -22.333 14.5 -37zM416.997 652.998
c0 -14.667 -4.83301 -26.834 -14.5 -36.501s-21.834 -14.5 -36.501 -14.5s-27 4.83301 -37 14.5s-15 21.834 -15 36.501s5 27 15 37s22.333 15 37 15s26.834 -5 36.501 -15s14.5 -22.333 14.5 -37z" />
    <glyph glyph-name="divide" unicode="&#xf7;" 
d="M332 56c0 -16 -5.66699 -29.667 -17 -41s-24.666 -17 -39.999 -17c-16 0 -29.5 5.66699 -40.5 17s-16.5 25 -16.5 41c0 15.333 5.5 28.5 16.5 39.5s24.5 16.5 40.5 16.5c15.333 0 28.666 -5.5 39.999 -16.5s17 -24.167 17 -39.5zM49 224v68h452v-68h-452zM332 459
c0 -16 -5.66699 -29.5 -17 -40.5s-24.666 -16.5 -39.999 -16.5c-16 0 -29.5 5.5 -40.5 16.5s-16.5 24.5 -16.5 40.5c0 15.333 5.5 28.666 16.5 39.999s24.5 17 40.5 17c15.333 0 28.666 -5.66699 39.999 -17s17 -24.666 17 -39.999z" />
    <glyph glyph-name="oslash" unicode="&#xf8;" horiz-adv-x="544" 
d="M298 435c-6 1.33301 -12.166 2.33398 -18.499 3.00098s-13.166 0.666992 -20.499 0c-16.667 -0.666992 -33.334 -4.5 -50.001 -11.5s-31.834 -17.833 -45.501 -32.5s-24.667 -33.834 -33 -57.501s-12.5 -52.167 -12.5 -85.5s4.33301 -63.333 13 -90
s21.667 -47.667 39 -63l128 337v0zM416.001 253.001c0 38 -5.33301 70.498 -16 97.498s-26.667 47.5 -48 61.5l-132 -344c16.667 -6 35 -8.66699 55 -8c18 0.666992 35.5 4.83398 52.5 12.501s32 19.334 45 35.001s23.5 35.5 31.5 59.5s12 52.667 12 86zM497.001 256.999
c0 -37.333 -5.66895 -72.3311 -17.002 -104.998s-27.333 -61 -48 -85s-45.667 -42.833 -75 -56.5s-62 -20.5 -98 -20.5c-11.333 0 -22.666 0.833008 -33.999 2.5s-21.666 4.16699 -30.999 7.5l-39 -104l-57 19l41 104c-36 21.333 -62 51.833 -78 91.5s-24 84.5 -24 134.5
c0 36.667 5.33301 71 16 103s26.334 59.667 47.001 83s45.667 41.833 75 55.5s62.666 20.5 99.999 20.5c8 0 16.333 -0.333008 25 -1s16.667 -1.66699 24 -3l36 93l56 -19l-35 -92c16.667 -8 32 -18.333 46 -31s26.167 -28.334 36.5 -47.001s18.5 -40.334 24.5 -65.001
s9 -53 9 -85z" />
    <glyph glyph-name="ugrave" unicode="&#xf9;" horiz-adv-x="576" 
d="M406 0c0 15.333 0.667969 33.168 2.00098 53.501s3.33301 37.833 6 52.5l-2 1c-14 -35.333 -36 -63.666 -66 -84.999s-66.667 -32 -110 -32c-28.667 0 -52.5 4.16699 -71.5 12.5s-34.333 19.666 -46 33.999s-19.834 31.166 -24.501 50.499s-7 40 -7 62v348h84v-321
c0 -36.667 6.16699 -65.167 18.5 -85.5s35.5 -30.5 69.5 -30.5c21.333 0 40.833 5 58.5 15s33 23.833 46 41.5s23.167 38.667 30.5 63s11 50.5 11 78.5v239h84v-497h-83zM320.001 576.002l-146 99l44 60l138 -111z" />
    <glyph glyph-name="uacute" unicode="&#xfa;" horiz-adv-x="576" 
d="M406 0c0 15.333 0.667969 33.168 2.00098 53.501s3.33301 37.833 6 52.5l-2 1c-14 -35.333 -36 -63.666 -66 -84.999s-66.667 -32 -110 -32c-28.667 0 -52.5 4.16699 -71.5 12.5s-34.333 19.666 -46 33.999s-19.834 31.166 -24.501 50.499s-7 40 -7 62v348h84v-321
c0 -36.667 6.16699 -65.167 18.5 -85.5s35.5 -30.5 69.5 -30.5c21.333 0 40.833 5 58.5 15s33 23.833 46 41.5s23.167 38.667 30.5 63s11 50.5 11 78.5v239h84v-497h-83zM255.001 577.002l-35 47l138 111l43 -59z" />
    <glyph glyph-name="ucircumflex" unicode="&#xfb;" horiz-adv-x="576" 
d="M406 0c0 15.333 0.667969 33.168 2.00098 53.501s3.33301 37.833 6 52.5l-2 1c-14 -35.333 -36 -63.666 -66 -84.999s-66.667 -32 -110 -32c-28.667 0 -52.5 4.16699 -71.5 12.5s-34.333 19.666 -46 33.999s-19.834 31.166 -24.501 50.499s-7 40 -7 62v348h84v-321
c0 -36.667 6.16699 -65.167 18.5 -85.5s35.5 -30.5 69.5 -30.5c21.333 0 40.833 5 58.5 15s33 23.833 46 41.5s23.167 38.667 30.5 63s11 50.5 11 78.5v239h84v-497h-83zM388.001 581.002l-105 68l-100 -68l-33 48l134 94l140 -92z" />
    <glyph glyph-name="udieresis" unicode="&#xfc;" horiz-adv-x="576" 
d="M406 0c0 15.333 0.667969 33.168 2.00098 53.501s3.33301 37.833 6 52.5l-2 1c-14 -35.333 -36 -63.666 -66 -84.999s-66.667 -32 -110 -32c-28.667 0 -52.5 4.16699 -71.5 12.5s-34.333 19.666 -46 33.999s-19.834 31.166 -24.501 50.499s-7 40 -7 62v348h84v-321
c0 -36.667 6.16699 -65.167 18.5 -85.5s35.5 -30.5 69.5 -30.5c21.333 0 40.833 5 58.5 15s33 23.833 46 41.5s23.167 38.667 30.5 63s11 50.5 11 78.5v239h84v-497h-83zM239.001 653.002c0 -14.667 -4.83301 -26.834 -14.5 -36.501s-21.834 -14.5 -36.501 -14.5
s-27 4.83301 -37 14.5s-15 21.834 -15 36.501s5 27 15 37s22.333 15 37 15s26.834 -5 36.501 -15s14.5 -22.333 14.5 -37zM429.001 653.002c0 -14.667 -4.83301 -26.834 -14.5 -36.501s-21.834 -14.5 -36.501 -14.5s-27 4.83301 -37 14.5s-15 21.834 -15 36.501s5 27 15 37
s22.333 15 37 15s26.834 -5 36.501 -15s14.5 -22.333 14.5 -37z" />
    <glyph glyph-name="yacute" unicode="&#xfd;" horiz-adv-x="477" 
d="M261 -49c-14.667 -38.667 -29.166 -71.165 -43.499 -97.498s-30 -47.5 -47 -63.5s-35.5 -27.5 -55.5 -34.5s-43 -10.5 -69 -10.5c-10 0 -21.333 0.833008 -34 2.5s-24 4.16699 -34 7.5l15 73c8.66699 -4 18.167 -6.66699 28.5 -8s21.166 -2 32.499 -2
c14 0 26.5 1.83301 37.5 5.5s21.167 10.167 30.5 19.5s18.5 22.166 27.5 38.499s18.167 37.166 27.5 62.499l21 56l-188 497h96l98 -268c8 -22.667 15 -43.667 21 -63s11.667 -38.666 17 -57.999h1c4.66699 17.333 11.667 40.166 21 68.499l29 84.5l83 236h92z
M225.001 577.002l-35 47l138 111l43 -59z" />
    <glyph glyph-name="thorn" unicode="&#xfe;" horiz-adv-x="558" 
d="M426 258c0 58 -9.16602 102.167 -27.499 132.5s-46.5 45.5 -84.5 45.5c-24 0 -44.833 -6.16699 -62.5 -18.5s-32.334 -28.166 -44.001 -47.499s-20.5 -40.833 -26.5 -64.5s-9 -46.834 -9 -69.501v-159c13.333 -5.33301 28.333 -9.5 45 -12.5s35 -4.5 55 -4.5
c22 0 42.333 3.83301 61 11.5s35 19.5 49 35.5s24.833 36.5 32.5 61.5s11.5 54.833 11.5 89.5zM514.001 266c0 -43.333 -5.83301 -81.833 -17.5 -115.5s-28.167 -62 -49.5 -85s-47.166 -40.667 -77.499 -53s-64.5 -18.5 -102.5 -18.5c-20 0 -38 0.666992 -54 2
s-29.667 3 -41 5v-249h-85v978h85v-220c0 -18.667 -0.666992 -38 -2 -58s-3 -36.667 -5 -50l2 -1c13.333 31.333 34.166 56.666 62.499 75.999s62.166 29 101.499 29c58.667 0 103.834 -20.167 135.501 -60.5s47.5 -100.166 47.5 -179.499z" />
    <glyph glyph-name="ydieresis" unicode="&#xff;" horiz-adv-x="477" 
d="M261 -49c-14.667 -38.667 -29.166 -71.165 -43.499 -97.498s-30 -47.5 -47 -63.5s-35.5 -27.5 -55.5 -34.5s-43 -10.5 -69 -10.5c-10 0 -21.333 0.833008 -34 2.5s-24 4.16699 -34 7.5l15 73c8.66699 -4 18.167 -6.66699 28.5 -8s21.166 -2 32.499 -2
c14 0 26.5 1.83301 37.5 5.5s21.167 10.167 30.5 19.5s18.5 22.166 27.5 38.499s18.167 37.166 27.5 62.499l21 56l-188 497h96l98 -268c8 -22.667 15 -43.667 21 -63s11.667 -38.666 17 -57.999h1c4.66699 17.333 11.667 40.166 21 68.499l29 84.5l83 236h92z
M192.001 653.002c0 -14.667 -4.83301 -26.834 -14.5 -36.501s-21.834 -14.5 -36.501 -14.5s-27 4.83301 -37 14.5s-15 21.834 -15 36.501s5 27 15 37s22.333 15 37 15s26.834 -5 36.501 -15s14.5 -22.333 14.5 -37zM382.001 653.002
c0 -14.667 -4.83301 -26.834 -14.5 -36.501s-21.834 -14.5 -36.501 -14.5s-27 4.83301 -37 14.5s-15 21.834 -15 36.501s5 27 15 37s22.333 15 37 15s26.834 -5 36.501 -15s14.5 -22.333 14.5 -37z" />
    <glyph glyph-name="dotlessi" unicode="&#x131;" horiz-adv-x="259" 
d="M87 0v497h85v-497h-85z" />
    <glyph glyph-name="Lslash" unicode="&#x141;" horiz-adv-x="441" 
d="M104 0v285l-94 -32l-16 63l110 38v321h85v-294l120 41l15 -65l-135 -46v-237h246v-74h-331z" />
    <glyph glyph-name="lslash" unicode="&#x142;" horiz-adv-x="294" 
d="M189 312v-312h-85v287l-95 -33l-12 63l107 37v376h85v-349l95 33l13 -65z" />
    <glyph glyph-name="OE" unicode="&#x152;" horiz-adv-x="834" 
d="M420 601c-10.667 2 -21.832 3.5 -33.499 4.5s-23.167 1.5 -34.5 1.5c-30 0 -58.167 -6 -84.5 -18s-49.333 -29.333 -69 -52s-35.334 -50.5 -47.001 -83.5s-17.5 -70.5 -17.5 -112.5c0 -37.333 3.83301 -72.5 11.5 -105.5s20.167 -61.833 37.5 -86.5s40 -44.167 68 -58.5
s62.333 -21.5 103 -21.5c11.333 0 22.833 0.5 34.5 1.5s22.167 2.5 31.5 4.5v526zM488.002 0c-28 0 -53.5 -0.999023 -76.5 -2.99902s-47.167 -3 -72.5 -3c-52 0 -96.667 8.33301 -134 25s-68 40 -92 70s-41.667 65.667 -53 107s-17 86.666 -17 135.999
c0 54.667 8.16699 103.5 24.5 146.5s38.833 79.5 67.5 109.5s62 52.833 100 68.5s78.667 23.5 122 23.5c24.667 0 47.5 -0.833008 68.5 -2.5s41.167 -2.5 60.5 -2.5h277v-71h-259v-221h246v-70h-246v-241h259v-72h-275z" />
    <glyph glyph-name="oe" unicode="&#x153;" horiz-adv-x="874" 
d="M415 252c0 60 -12.002 105.835 -36.002 137.502s-60.333 47.5 -109 47.5c-17.333 0 -34.666 -3.16699 -51.999 -9.5s-33 -16.833 -47 -31.5s-25.333 -33.834 -34 -57.501s-13 -52.834 -13 -87.501c0 -27.333 2.66699 -52.5 8 -75.5s14 -43 26 -60s27.333 -30.333 46 -40
s41 -14.5 67 -14.5c18.667 0 36.834 3.83301 54.501 11.5s33 19.167 46 34.5s23.5 35 31.5 59s12 52.667 12 86zM739.998 319.002c1.33301 37.333 -8.33398 67.333 -29.001 90s-49 34 -85 34c-34 0 -62.167 -11.5 -84.5 -34.5s-36.166 -52.833 -41.499 -89.5h240v0z
M826.998 299.002c0 -11.333 -1.00391 -25.001 -3.00391 -41.001h-328c-2 -70 10.5 -120.5 37.5 -151.5s67.5 -46.5 121.5 -46.5c26 0 52.167 2.83301 78.5 8.5s49.166 13.167 68.499 22.5l7 -69c-49.333 -20.667 -105 -31 -167 -31c-52 0 -93.667 9.16699 -125 27.5
s-55 43.833 -71 76.5c-17.333 -30 -41.166 -54.833 -71.499 -74.5s-68.166 -29.5 -113.499 -29.5c-38.667 0 -71.834 6.33301 -99.501 19s-50.5 30.334 -68.5 53.001s-31.333 49.667 -40 81s-13 65.333 -13 102s5.33301 70.834 16 102.501s26.334 59.167 47.001 82.5
s45.834 41.666 75.501 54.999s63.167 20 100.5 20c36.667 0 71.334 -7.83301 104.001 -23.5s57.667 -40.167 75 -73.5c17.333 29.333 40.333 52.833 69 70.5s63 26.5 103 26.5c34.667 0 64.334 -5.5 89.001 -16.5s45 -26 61 -45s27.833 -41 35.5 -66s11.5 -51.5 11.5 -79.5z
" />
    <glyph glyph-name="Scaron" unicode="&#x160;" horiz-adv-x="503" 
d="M451 193c0 -30 -5.83105 -57.501 -17.498 -82.501s-28 -46.333 -49 -64s-46.167 -31.334 -75.5 -41.001s-62 -14.5 -98 -14.5c-30.667 0 -59.334 1.66699 -86.001 5s-50 8.66602 -70 15.999l17 83c20 -9.33301 42.167 -16.5 66.5 -21.5s51.5 -7.5 81.5 -7.5
c17.333 0 34.5 2 51.5 6s32.167 10.5 45.5 19.5s24 20.833 32 35.5s12 32.667 12 54c0 12.667 -2 24.5 -6 35.5s-10.833 21.5 -20.5 31.5s-22.667 19.833 -39 29.5s-36.833 19.834 -61.5 30.501l-37 16c-50.667 22 -87 46.833 -109 74.5s-33 61.167 -33 100.5
c0 27.333 5.16699 52.333 15.5 75s25.166 42.167 44.499 58.5s43 29 71 38s59.667 13.5 95 13.5c25.333 0 48.5 -1 69.5 -3s42.167 -5.66699 63.5 -11l-16 -77c-17.333 6 -36 10.667 -56 14s-41.667 5 -65 5c-44 0 -77.167 -9 -99.5 -27s-33.5 -43.333 -33.5 -76
c0 -26.667 9 -48.667 27 -66s44.333 -33.666 79 -48.999l39 -17c54 -23.333 94.5 -48.666 121.5 -75.999s40.5 -63.333 40.5 -108zM252.002 719.999l-152 80l25 45l128 -64l126 64l21 -42z" />
    <glyph glyph-name="scaron" unicode="&#x161;" horiz-adv-x="426" 
d="M375 143c0 -23.333 -4.99902 -44.334 -14.999 -63.001s-23.833 -34.5 -41.5 -47.5s-38.834 -23.167 -63.501 -30.5s-51.667 -11 -81 -11c-22.667 0 -44.167 1.66699 -64.5 5s-39.5 8 -57.5 14l12 75c17.333 -7.33301 36 -13.166 56 -17.499s42 -6.5 66 -6.5
c27.333 0 50.833 5.83301 70.5 17.5s29.5 29.5 29.5 53.5c0 19.333 -6.5 35 -19.5 47s-34.5 23.667 -64.5 35l-31 12c-42 16 -71.833 34.5 -89.5 55.5s-26.5 48.833 -26.5 83.5c0 19.333 4 37.666 12 54.999s20 32.333 36 45s35.833 22.667 59.5 30s51.167 11 82.5 11
c16.667 0 33.667 -0.833008 51 -2.5s33.666 -4.16699 48.999 -7.5l-10 -71c-16 5.33301 -31.833 9.33301 -47.5 12s-33.167 4 -52.5 4c-33.333 0 -57 -6.83301 -71 -20.5s-21 -29.5 -21 -47.5c0 -18.667 6.33301 -34.167 19 -46.5s36.334 -25.166 71.001 -38.499l33 -13
c36 -14 63.167 -31 81.5 -51s27.5 -47 27.5 -81zM212.001 579.999l-139 91l35 51l106 -68l100 68l33 -48z" />
    <glyph glyph-name="Ydieresis" unicode="&#x178;" horiz-adv-x="533" 
d="M307 244v-244h-86v244l-211 431h95l110 -233l27 -59.5c8.66699 -19.667 16.667 -39.167 24 -58.5h1c8 21.333 17.167 42.833 27.5 64.5l31.5 65.5l106 221h91zM205 781c0 -13.333 -5 -25 -15 -35s-21.667 -15 -35 -15s-24.833 5 -34.5 15s-14.5 21.667 -14.5 35
s4.83301 24.833 14.5 34.5s21.167 14.5 34.5 14.5s25 -4.83301 35 -14.5s15 -21.167 15 -34.5zM422 781c0 -13.333 -4.83301 -25 -14.5 -35s-21.5 -15 -35.5 -15c-13.333 0 -24.833 5 -34.5 15s-14.5 21.667 -14.5 35s4.83301 24.833 14.5 34.5s21.167 14.5 34.5 14.5
c14 0 25.833 -4.83301 35.5 -14.5s14.5 -21.167 14.5 -34.5z" />
    <glyph glyph-name="Zcaron" unicode="&#x17d;" horiz-adv-x="539" 
d="M46 0v63l289 453l54 82h-333v77h435v-65l-304 -472l-39 -59h347v-79h-449zM280 720l-152 80l25 45l128 -64l126 64l21 -42z" />
    <glyph glyph-name="zcaron" unicode="&#x17e;" horiz-adv-x="445" 
d="M48 0v59l243 363h-238v75h337v-59l-240 -360h245v-78h-347zM223 580l-139 91l35 51l106 -68l100 68l33 -48z" />
    <glyph glyph-name="florin" unicode="&#x192;" 
d="M483 647c-10.667 3.33301 -22.333 5.83301 -35 7.5s-25 2.5 -37 2.5c-29.333 0 -52.5 -10.167 -69.5 -30.5s-27.167 -52.5 -30.5 -96.5l-10 -119h172v-62h-176l-23 -275c-3.33301 -42 -9.66602 -77 -18.999 -105s-21.5 -50.5 -36.5 -67.5s-33.167 -29 -54.5 -36
s-46 -10.5 -74 -10.5c-10.667 0 -22.5 0.666992 -35.5 2s-25.167 3.66602 -36.5 6.99902l11 68c9.33301 -3.33301 20.166 -5.66602 32.499 -6.99902s23.166 -2 32.499 -2c28 0 50.333 10.167 67 30.5s27 54.5 31 102.5l25 293h-151v62h155l10 110
c6.66699 73.333 24.834 125.333 54.501 156s72.5 46 128.5 46c12 0 25.167 -0.666992 39.5 -2s27.833 -3.33301 40.5 -6z" />
    <glyph glyph-name="circumflex" unicode="&#x2c6;" horiz-adv-x="434" 
d="M318 581l-105 68l-100 -68l-33 48l134 94l140 -92z" />
    <glyph glyph-name="caron" unicode="&#x2c7;" horiz-adv-x="434" 
d="M212 580l-139 91l35 51l106 -68l100 68l33 -48z" />
    <glyph glyph-name="breve" unicode="&#x2d8;" horiz-adv-x="404" 
d="M325 718c0 -17.333 -2.5 -33.833 -7.5 -49.5s-12.5 -29.5 -22.5 -41.5s-22.833 -21.667 -38.5 -29s-34.5 -11 -56.5 -11s-40.667 3.66699 -56 11s-27.833 17.166 -37.5 29.499s-16.667 26.333 -21 42s-6.5 31.834 -6.5 48.501h58c0 -18 5.33301 -33.667 16 -47
s26.667 -20 48 -20c20 0 35.667 5.83301 47 17.5s17 28.167 17 49.5h60v0z" />
    <glyph glyph-name="dotaccent" unicode="&#x2d9;" horiz-adv-x="283" 
d="M197 656c0 -15.333 -5.5 -28.333 -16.5 -39s-24.167 -16 -39.5 -16s-28.5 5.33301 -39.5 16s-16.5 23.667 -16.5 39s5.5 28.5 16.5 39.5s24.167 16.5 39.5 16.5s28.5 -5.5 39.5 -16.5s16.5 -24.167 16.5 -39.5z" />
    <glyph glyph-name="ring" unicode="&#x2da;" horiz-adv-x="385" 
d="M249 662c0 15.333 -5.5 28.666 -16.5 39.999s-24.5 17 -40.5 17c-15.333 0 -28.333 -5.66699 -39 -17s-16 -24.666 -16 -39.999s5.33301 -28.666 16 -39.999s23.667 -17 39 -17c16 0 29.5 5.66699 40.5 17s16.5 24.666 16.5 39.999zM305 662
c0 -14.667 -3 -28.499 -9 -41.499s-14.167 -24.333 -24.5 -34s-22.333 -17.334 -36 -23.001s-28.167 -8.5 -43.5 -8.5c-31.333 0 -57.666 10 -78.999 30s-32 45.667 -32 77c0 15.333 3 29.666 9 42.999s14 24.833 24 34.5s21.667 17.167 35 22.5s27.666 8 42.999 8
c32 0 58.833 -10.167 80.5 -30.5s32.5 -46.166 32.5 -77.499z" />
    <glyph glyph-name="ogonek" unicode="&#x2db;" horiz-adv-x="260" 
d="M217 -223c-9.33301 -3.33301 -19.333 -5.66602 -30 -6.99902s-21.334 -2 -32.001 -2c-37.333 0 -63.333 8.5 -78 25.5s-22 38.167 -22 63.5c0 22 5 45.5 15 70.5s21.667 47.833 35 68.5h61c-10 -18 -18.833 -38.5 -26.5 -61.5s-11.5 -42.833 -11.5 -59.5
c0 -9.33301 1.16699 -17.5 3.5 -24.5s6.83301 -12.667 13.5 -17s15.834 -6.83301 27.501 -7.5s26.5 0.666016 44.5 3.99902v-53v0z" />
    <glyph glyph-name="tilde" unicode="&#x2dc;" horiz-adv-x="500" 
d="M423 636c-10 -10 -23.332 -19 -39.999 -27s-34.667 -12 -54 -12c-18 0 -33 2.5 -45 7.5s-23.333 10.333 -34 16l-31.5 16c-10.333 5 -22.5 7.5 -36.5 7.5c-13.333 0 -25.5 -3 -36.5 -9s-21.167 -14 -30.5 -24l-21 57c12 12 26.333 21.833 43 29.5
s34.334 11.5 53.001 11.5c16.667 0 31 -2.5 43 -7.5s23.333 -10.333 34 -16l31.5 -16c10.333 -5 22.166 -7.5 35.499 -7.5c14 0 26.667 3 38 9s21.666 13.667 30.999 23l20 -58v0z" />
    <glyph glyph-name="hungarumlaut" unicode="&#x2dd;" horiz-adv-x="491" 
d="M120 576l-45 41l116 129l55 -50zM288 574l-39 45l135 121l49 -55z" />
    <glyph glyph-name="Delta" unicode="&#x394;" horiz-adv-x="727" 
d="M358 602l-207 -526h418zM122 0h-88l283 700h90l287 -700h-91h-481z" />
    <glyph glyph-name="Delta" unicode="&#x2206;" horiz-adv-x="727" 
d="M358 602l-207 -526h418zM122 0h-88l283 700h90l287 -700h-91h-481z" />
    <glyph glyph-name="Omega" unicode="&#x3a9;" horiz-adv-x="749" 
d="M448 0l0.00195312 65.9971c44 29.333 78.5 66.666 103.5 111.999s37.5 102.333 37.5 171c0 37.333 -4.5 72.333 -13.5 105s-22.333 61.167 -40 85.5s-39.834 43.5 -66.501 57.5s-57.667 21 -93 21c-34 0 -64.667 -6.5 -92 -19.5s-50.5 -31.167 -69.5 -54.5
s-33.667 -51.166 -44 -83.499s-15.5 -68.166 -15.5 -107.499c0 -66 11.167 -121.667 33.5 -167s59.166 -85 110.499 -119v-67h-233v64h147c-46 30 -81.167 69.5 -105.5 118.5s-36.5 104.833 -36.5 167.5c0 48.667 7.5 93.667 22.5 135s36 76.833 63 106.5
s59.5 52.834 97.5 69.501s80.333 25 127 25c43.333 0 83 -7.16699 119 -21.5s67 -35.166 93 -62.499s46.333 -61.5 61 -102.5s22 -87.833 22 -140.5c0 -66.667 -13.5 -125.5 -40.5 -176.5s-62.5 -90.5 -106.5 -118.5h150v-64h-231z" />
    <glyph glyph-name="Omega" unicode="&#x2126;" horiz-adv-x="749" 
d="M448 0l0.00195312 65.9971c44 29.333 78.5 66.666 103.5 111.999s37.5 102.333 37.5 171c0 37.333 -4.5 72.333 -13.5 105s-22.333 61.167 -40 85.5s-39.834 43.5 -66.501 57.5s-57.667 21 -93 21c-34 0 -64.667 -6.5 -92 -19.5s-50.5 -31.167 -69.5 -54.5
s-33.667 -51.166 -44 -83.499s-15.5 -68.166 -15.5 -107.499c0 -66 11.167 -121.667 33.5 -167s59.166 -85 110.499 -119v-67h-233v64h147c-46 30 -81.167 69.5 -105.5 118.5s-36.5 104.833 -36.5 167.5c0 48.667 7.5 93.667 22.5 135s36 76.833 63 106.5
s59.5 52.834 97.5 69.501s80.333 25 127 25c43.333 0 83 -7.16699 119 -21.5s67 -35.166 93 -62.499s46.333 -61.5 61 -102.5s22 -87.833 22 -140.5c0 -66.667 -13.5 -125.5 -40.5 -176.5s-62.5 -90.5 -106.5 -118.5h150v-64h-231z" />
    <glyph glyph-name="pi" unicode="&#x3c0;" horiz-adv-x="672" 
d="M620 1c-12 -3.33301 -26.167 -5.83301 -42.5 -7.5s-32.833 -2.5 -49.5 -2.5c-21.333 0 -39 2.83301 -53 8.5s-25 14.167 -33 25.5s-13.5 25.833 -16.5 43.5s-4.5 38.167 -4.5 61.5v299h-189v-429h-81v429h-111v68h573v-68h-111v-233c0 -30.667 0.666992 -55.167 2 -73.5
s4 -32.5 8 -42.5s9.83301 -16.5 17.5 -19.5s17.834 -4.5 30.501 -4.5c9.33301 0 18.666 0.833008 27.999 2.5s18.333 3.5 27 5.5l5 -63v0z" />
    <glyph glyph-name="endash" unicode="&#x2013;" 
d="M50 252v74h450v-74h-450z" />
    <glyph glyph-name="emdash" unicode="&#x2014;" horiz-adv-x="1000" 
d="M0 252v74h1000v-74h-1000z" />
    <glyph glyph-name="quoteleft" unicode="&#x2018;" horiz-adv-x="240" 
d="M199 716c-31.333 -34 -49.1689 -62.667 -53.502 -86s-0.833008 -42 10.5 -56c6.66699 -8.66699 10.334 -18 11.001 -28s-1 -19.167 -5 -27.5s-10.167 -15.333 -18.5 -21s-18.166 -8.5 -29.499 -8.5c-17.333 0 -31.666 7 -42.999 21s-16.5 33 -15.5 57
s9.66699 51.667 26 83s43.166 64.333 80.499 99l37 -33v0z" />
    <glyph glyph-name="quoteright" unicode="&#x2019;" horiz-adv-x="240" 
d="M125 742c17.333 0 31.667 -7.00195 43 -21.002s16.5 -33 15.5 -57s-9.66699 -51.667 -26 -83s-43.166 -64.333 -80.499 -99l-37 33c16 17.333 28.167 33.166 36.5 47.499s14 27.333 17 39s3.33301 22 1 31s-6.16602 17.167 -11.499 24.5
c-6.66699 8.66699 -10.334 17.834 -11.001 27.501s1 18.834 5 27.501s10.167 15.834 18.5 21.501s18.166 8.5 29.499 8.5z" />
    <glyph glyph-name="quotesinglbase" unicode="&#x201a;" horiz-adv-x="240" 
d="M125 108c17.333 0 31.667 -7.00488 43 -21.0049s16.5 -32.833 15.5 -56.5s-9.66699 -51.167 -26 -82.5s-43.166 -64.333 -80.499 -99l-37 32c16 16.667 28.167 32.334 36.5 47.001s14 27.834 17 39.501s3.33301 22.167 1 31.5s-6.16602 17.333 -11.499 24
c-6.66699 8.66699 -10.334 17.834 -11.001 27.501s1 18.834 5 27.501s10.167 15.834 18.5 21.501s18.166 8.5 29.499 8.5z" />
    <glyph glyph-name="quotedblleft" unicode="&#x201c;" horiz-adv-x="426" 
d="M199 716c-31.333 -34 -49.1689 -62.667 -53.502 -86s-0.833008 -42 10.5 -56c6.66699 -8.66699 10.334 -18 11.001 -28s-1 -19.167 -5 -27.5s-10.167 -15.333 -18.5 -21s-18.166 -8.5 -29.499 -8.5c-17.333 0 -31.666 7 -42.999 21s-16.5 33 -15.5 57
s9.66699 51.667 26 83s43.166 64.333 80.499 99l37 -33v0zM384.997 716c-31.333 -34 -49.1689 -62.667 -53.502 -86s-0.833008 -42 10.5 -56c6.66699 -8.66699 10.334 -18 11.001 -28s-1 -19.167 -5 -27.5s-10.167 -15.333 -18.5 -21s-18.166 -8.5 -29.499 -8.5
c-17.333 0 -31.666 7 -42.999 21s-16.5 33 -15.5 57s9.66699 51.667 26 83s43.166 64.333 80.499 99l37 -33v0z" />
    <glyph glyph-name="quotedblright" unicode="&#x201d;" horiz-adv-x="426" 
d="M125 742c17.333 0 31.667 -7.00195 43 -21.002s16.5 -33 15.5 -57s-9.66699 -51.667 -26 -83s-43.166 -64.333 -80.499 -99l-37 33c16 17.333 28.167 33.166 36.5 47.499s14 27.333 17 39s3.33301 22 1 31s-6.16602 17.167 -11.499 24.5
c-6.66699 8.66699 -10.334 17.834 -11.001 27.501s1 18.834 5 27.501s10.167 15.834 18.5 21.501s18.166 8.5 29.499 8.5zM310.001 741.998c18 0 32.667 -6.99902 44 -20.999s16.5 -33 15.5 -57s-9.66699 -51.667 -26 -83s-43.5 -64.333 -81.5 -99l-36 33
c16 17.333 28.167 33.166 36.5 47.499s14 27.333 17 39s3.33301 22 1 31s-6.16602 17.167 -11.499 24.5c-6.66699 8.66699 -10.5 18 -11.5 28s0.5 19.167 4.5 27.5s10.167 15.333 18.5 21s18.166 8.5 29.499 8.5z" />
    <glyph glyph-name="quotedblbase" unicode="&#x201e;" horiz-adv-x="426" 
d="M125 108c17.333 0 31.667 -7.00488 43 -21.0049s16.5 -32.833 15.5 -56.5s-9.66699 -51.167 -26 -82.5s-43.166 -64.333 -80.499 -99l-37 32c16 16.667 28.167 32.334 36.5 47.001s14 27.834 17 39.501s3.33301 22.167 1 31.5s-6.16602 17.333 -11.499 24
c-6.66699 8.66699 -10.334 17.834 -11.001 27.501s1 18.834 5 27.501s10.167 15.834 18.5 21.501s18.166 8.5 29.499 8.5zM310.001 107.995c18 0 32.667 -7.00488 44 -21.0049s16.5 -32.833 15.5 -56.5s-9.66699 -51.167 -26 -82.5s-43.5 -64.333 -81.5 -99l-36 32
c16 16.667 28.167 32.334 36.5 47.001s14 27.834 17 39.501s3.33301 22.167 1 31.5s-6.16602 17.333 -11.499 24c-6.66699 8.66699 -10.5 17.834 -11.5 27.501s0.5 18.834 4.5 27.501s10.167 15.834 18.5 21.501s18.166 8.5 29.499 8.5z" />
    <glyph glyph-name="dagger" unicode="&#x2020;" horiz-adv-x="468" 
d="M267 486l18 -147l-23 -342h-57l-23 342l19 147h-159v66h159l-19 178h103l-18 -178h158v-66h-158z" />
    <glyph glyph-name="daggerdbl" unicode="&#x2021;" horiz-adv-x="468" 
d="M267 185l18 -185h-104l19 185h-158v66h158l-18 120l18 120h-158v66h158l-18 173h103l-18 -173h158v-66h-158l18 -120l-18 -120h158v-66h-158z" />
    <glyph glyph-name="bullet" unicode="&#x2022;" 
d="M363 292c0 -16 -3 -31.167 -9 -45.5s-14.333 -26.833 -25 -37.5s-23.167 -19 -37.5 -25s-29.5 -9 -45.5 -9s-31 3 -45 9s-26.333 14.333 -37 25s-19 23.167 -25 37.5s-9 29.5 -9 45.5s3 31.167 9 45.5s14.333 26.666 25 36.999s23 18.666 37 24.999s29 9.5 45 9.5
s31.167 -3.16699 45.5 -9.5s26.833 -14.666 37.5 -24.999s19 -22.666 25 -36.999s9 -29.5 9 -45.5z" />
    <glyph glyph-name="ellipsis" unicode="&#x2026;" horiz-adv-x="657" 
d="M169 49c0 -16 -5.66699 -29.667 -17 -41s-25 -17 -41 -17s-29.667 5.66699 -41 17s-17 25 -17 41s5.66699 29.667 17 41s25 17 41 17s29.667 -5.66699 41 -17s17 -25 17 -41zM381 49c0 -16 -5.66699 -29.667 -17 -41s-25 -17 -41 -17s-29.667 5.66699 -41 17
s-17 25 -17 41s5.66699 29.667 17 41s25 17 41 17s29.667 -5.66699 41 -17s17 -25 17 -41zM593 49c0 -16 -5.5 -29.667 -16.5 -41s-24.833 -17 -41.5 -17c-16 0 -29.667 5.66699 -41 17s-17 25 -17 41s5.66699 29.667 17 41s25 17 41 17c16.667 0 30.5 -5.66699 41.5 -17
s16.5 -25 16.5 -41z" />
    <glyph glyph-name="perthousand" unicode="&#x2030;" horiz-adv-x="1043" 
d="M582 151c0 35.333 -5.16797 60.833 -15.501 76.5s-29.166 23.5 -56.499 23.5c-21.333 0 -38.333 -9.16699 -51 -27.5s-19 -42.833 -19 -73.5c0 -34 5 -59.5 15 -76.5s27.667 -25.5 53 -25.5c24.667 0 43.167 9.16699 55.5 27.5s18.5 43.5 18.5 75.5zM258.999 527
c0 34.667 -5.16602 60 -15.499 76s-28.833 24 -55.5 24c-22 0 -39.333 -9.16699 -52 -27.5s-19 -42.833 -19 -73.5c0 -34 5.16699 -59.5 15.5 -76.5s28.166 -25.5 53.499 -25.5c24 0 42.167 9.16699 54.5 27.5s18.5 43.5 18.5 75.5zM914 151
c0 35.333 -5.33105 60.833 -15.998 76.5s-29.334 23.5 -56.001 23.5c-22 0 -39.333 -9.16699 -52 -27.5s-19 -42.833 -19 -73.5c0 -34 5.16699 -59.5 15.5 -76.5s28.166 -25.5 53.499 -25.5c24.667 0 43.167 9.16699 55.5 27.5s18.5 43.5 18.5 75.5zM656.002 158
c0 -26.667 -3.99805 -50.668 -11.998 -72.001s-18.833 -39.333 -32.5 -54s-29.834 -26 -48.501 -34s-38.334 -12 -59.001 -12c-42 0 -75.333 12.333 -100 37s-37 64.667 -37 120c0 26.667 4 50.5 12 71.5s18.667 38.833 32 53.5s28.833 25.834 46.5 33.501
s36.5 11.5 56.5 11.5c20.667 0 39.667 -2.83301 57 -8.5s32.333 -14.667 45 -27s22.5 -28.333 29.5 -48s10.5 -43.5 10.5 -71.5zM145.004 -23.001l-60 44l468 677l60 -44zM333.004 532.999c0 -26.667 -3.99902 -50.5 -11.999 -71.5s-18.833 -38.833 -32.5 -53.5
s-29.834 -26 -48.501 -34s-38.334 -12 -59.001 -12c-41.333 0 -74.5 12.333 -99.5 37s-37.5 64.667 -37.5 120c0 26.667 4 50.5 12 71.5s18.833 38.833 32.5 53.5s29.334 25.834 47.001 33.501s36.5 11.5 56.5 11.5c20.667 0 39.5 -2.83301 56.5 -8.5
s31.833 -14.667 44.5 -27s22.5 -28.333 29.5 -48s10.5 -43.834 10.5 -72.501zM987.005 157.999c0 -26.667 -3.99902 -50.668 -11.999 -72.001s-18.667 -39.333 -32 -54s-29.333 -26 -48 -34s-38.334 -12 -59.001 -12c-41.333 0 -74.666 12.333 -99.999 37
s-38 64.667 -38 120c0 26.667 4 50.5 12 71.5s18.833 38.833 32.5 53.5s29.5 25.834 47.5 33.501s37 11.5 57 11.5s38.667 -2.83301 56 -8.5s32.166 -14.667 44.499 -27s22 -28.333 29 -48s10.5 -43.5 10.5 -71.5z" />
    <glyph glyph-name="guilsinglleft" unicode="&#x2039;" horiz-adv-x="313" 
d="M139 254l99 -155l-65 -38l-118 192l121 195l63 -36z" />
    <glyph glyph-name="guilsinglright" unicode="&#x203a;" horiz-adv-x="313" 
d="M137 61l-63 37l100 157l-99 156l65 37l118 -192z" />
    <glyph glyph-name="fraction" unicode="&#x2044;" horiz-adv-x="416" 
d="M57 -121l-68 33l433 843l67 -33z" />
    <glyph glyph-name="fraction" unicode="&#x2215;" horiz-adv-x="416" 
d="M57 -121l-68 33l433 843l67 -33z" />
    <glyph glyph-name="uni20AC" unicode="&#x20a0;" 
d="M88 287c-0.666992 18.667 -1.00098 32 -1.00098 40c0 19.333 1 40 3 62h-69v62h80c8 34 19.5 65.167 34.5 93.5s34 52.666 57 72.999s50 36 81 47s66.5 16.5 106.5 16.5c17.333 0 34.666 -1.66699 51.999 -5s36 -8.66602 56 -15.999l-17 -75
c-17.333 7.33301 -34 13 -50 17s-32.667 6 -50 6c-50 0 -89.5 -14.5 -118.5 -43.5s-49.167 -66.833 -60.5 -113.5h196v-62h-206c-2 -17.333 -3 -35.333 -3 -54c0 -8.66699 0.166992 -17 0.5 -25s0.833008 -15.667 1.5 -23h207v-62h-199c11.333 -50.667 32 -89.667 62 -117
s71.333 -41 124 -41c18.667 0 35.167 1.5 49.5 4.5s28.833 7.5 43.5 13.5l17 -71c-20 -7.33301 -41.167 -12.833 -63.5 -16.5s-44.166 -5.5 -65.499 -5.5c-40.667 0 -76.167 5.5 -106.5 16.5s-56.166 26.667 -77.499 47s-38.333 44.833 -51 73.5s-21.667 60.667 -27 96h-73
v62h67z" />
    <glyph glyph-name="Euro" unicode="&#x20ac;" 
d="M88 287c-0.666992 18.667 -1.00098 32 -1.00098 40c0 19.333 1 40 3 62h-69v62h80c8 34 19.5 65.167 34.5 93.5s34 52.666 57 72.999s50 36 81 47s66.5 16.5 106.5 16.5c17.333 0 34.666 -1.66699 51.999 -5s36 -8.66602 56 -15.999l-17 -75
c-17.333 7.33301 -34 13 -50 17s-32.667 6 -50 6c-50 0 -89.5 -14.5 -118.5 -43.5s-49.167 -66.833 -60.5 -113.5h196v-62h-206c-2 -17.333 -3 -35.333 -3 -54c0 -8.66699 0.166992 -17 0.5 -25s0.833008 -15.667 1.5 -23h207v-62h-199c11.333 -50.667 32 -89.667 62 -117
s71.333 -41 124 -41c18.667 0 35.167 1.5 49.5 4.5s28.833 7.5 43.5 13.5l17 -71c-20 -7.33301 -41.167 -12.833 -63.5 -16.5s-44.166 -5.5 -65.499 -5.5c-40.667 0 -76.167 5.5 -106.5 16.5s-56.166 26.667 -77.499 47s-38.333 44.833 -51 73.5s-21.667 60.667 -27 96h-73
v62h67z" />
    <glyph glyph-name="trademark" unicode="&#x2122;" horiz-adv-x="700" 
d="M187 623v-229h-66v229h-75v52h215v-52h-74zM581 394l-23 151l-7 55l-12 -47l-47 -159h-67l-46 161l-11 45l-3 -37l-25 -169h-61l44 281h83l46 -158l11 -47l9 42l49 163h82l43 -281h-65z" />
    <glyph glyph-name="partialdiff" unicode="&#x2202;" horiz-adv-x="637" 
d="M444 238c0 37.333 -11.5 68.166 -34.5 92.499s-56.5 36.5 -100.5 36.5c-22 0 -42 -4.16699 -60 -12.5s-33.5 -19.666 -46.5 -33.999s-23.167 -31.166 -30.5 -50.499s-11 -40.333 -11 -63c0 -48 12 -83.667 36 -107s55 -35 93 -35c22 0 42.333 4.5 61 13.5
s35 21.167 49 36.5s24.833 33.666 32.5 54.999s11.5 44 11.5 68zM563 410c0 -28.667 -1.66699 -57.666 -5 -86.999s-8.66602 -58 -15.999 -86s-16.666 -54.667 -27.999 -80s-25.333 -48.666 -42 -69.999c-21.333 -28 -48.833 -50.833 -82.5 -68.5s-70.5 -26.5 -110.5 -26.5
c-66.667 0 -117.167 18.667 -151.5 56s-51.5 87.666 -51.5 150.999c0 34 5.83301 65.667 17.5 95s28 54.666 49 75.999s46.167 38 75.5 50s61.666 18 96.999 18c40 0 73.5 -9 100.5 -27s46.5 -42 58.5 -72c0.666992 32.667 0.666992 61.667 0 87
c-2 40.667 -8.83301 76 -20.5 106s-27.5 55 -47.5 75s-43.333 35 -70 45s-55.334 15 -86.001 15l9 70c46 -1.33301 87.667 -9.5 125 -24.5s69.333 -36.5 96 -64.5s47.167 -62 61.5 -102s21.5 -85.333 21.5 -136z" />
    <glyph glyph-name="product" unicode="&#x220f;" horiz-adv-x="784" 
d="M632 657v-909h-82v909h-316v-909h-81v909h-107v73h692v-73h-106z" />
    <glyph glyph-name="summation" unicode="&#x2211;" horiz-adv-x="609" 
d="M39 -252v65l309 435l-293 416v66h482v-73h-377l287 -406l-307 -428h412v-75h-513z" />
    <glyph glyph-name="minus" unicode="&#x2212;" 
d="M86 225v69h369v-69h-369z" />
    <glyph glyph-name="periodcentered" unicode="&#x2219;" horiz-adv-x="229" 
d="M176 288c0 -17.333 -5.83301 -31.833 -17.5 -43.5s-26.167 -17.5 -43.5 -17.5s-32 5.83301 -44 17.5s-18 26.167 -18 43.5s6 32 18 44s26.667 18 44 18s31.833 -6 43.5 -18s17.5 -26.667 17.5 -44z" />
    <glyph glyph-name="radical" unicode="&#x221a;" 
d="M328 0h-102.999l-133 435h-84v62h149l87 -299l7 -23.5l10 -34.5l9.5 -35c3 -11.333 5.16699 -19.333 6.5 -24l1 1c1.33301 4.66699 3.33301 12.167 6 22.5l8 32l7.5 31.5c2.33301 10 4.16602 17 5.49902 21l143 569h88z" />
    <glyph glyph-name="infinity" unicode="&#x221e;" horiz-adv-x="974" 
d="M420 270c-34 26 -66.001 48 -96.001 66s-59 27 -87 27c-30 0 -53 -9 -69 -27s-24 -39 -24 -63c0 -26.667 8.16699 -48.667 24.5 -66s40.5 -26 72.5 -26c26.667 0 54.834 8.5 84.501 25.5s61.167 38.167 94.5 63.5zM829.999 272c0 26 -8.16797 47.667 -24.501 65
s-40.5 26 -72.5 26c-26 0 -54.167 -8.66699 -84.5 -26s-62.166 -38.333 -95.499 -63c34.667 -26 67 -48 97 -66s59 -27 87 -27c30 0 53 9 69 27s24 39.333 24 64zM914.998 276c0 -23.333 -4.16797 -45.165 -12.501 -65.498s-20.166 -38.333 -35.499 -54s-34.5 -28 -57.5 -37
s-48.833 -13.5 -77.5 -13.5c-40.667 0 -81.334 11.167 -122.001 33.5s-82.667 49.5 -126 81.5l-59 -42c-20 -14 -40.5 -26.333 -61.5 -37s-42.167 -19.334 -63.5 -26.001s-43 -10 -65 -10c-30 0 -56 4.33301 -78 13s-40.167 20.5 -54.5 35.5s-25.166 32.167 -32.499 51.5
s-11 40 -11 62c0 23.333 4.16699 45.333 12.5 66s20.333 38.667 36 54s34.667 27.333 57 36s47.166 13 74.499 13c21.333 0 42.5 -3 63.5 -9s41.833 -14.333 62.5 -25s41.334 -22.834 62.001 -36.501s41.667 -28.5 63 -44.5l58.5 42c20.333 14 41 26.333 62 37
s42.167 19.334 63.5 26.001s42.666 10 63.999 10c28.667 0 54.167 -4.16699 76.5 -12.5s40.833 -19.833 55.5 -34.5s25.834 -31.834 33.501 -51.501s11.5 -40.5 11.5 -62.5z" />
    <glyph glyph-name="integral" unicode="&#x222b;" horiz-adv-x="338" 
d="M318 659c-7.33301 2 -15.3311 3.83301 -23.998 5.5s-17.334 2.5 -26.001 2.5c-13.333 0 -24.5 -2.16699 -33.5 -6.5s-16.5 -12.833 -22.5 -25.5s-10.333 -30 -13 -52s-4 -50.667 -4 -86c0 -40 0.666992 -78.333 2 -115l4 -113.5
c1.33301 -39 2.66602 -80.333 3.99902 -124s2 -92.167 2 -145.5c0 -47.333 -3 -87.5 -9 -120.5s-15.333 -59.833 -28 -80.5s-28.334 -35.5 -47.001 -44.5s-41 -13.5 -67 -13.5c-8.66699 0 -17.667 0.5 -27 1.5s-17.666 2.5 -24.999 4.5v75
c6.66699 -2.66699 14.5 -4.66699 23.5 -6s17.5 -2 25.5 -2c12.667 0 23.667 2.16699 33 6.5s17 12.5 23 24.5s10.333 28.667 13 50s4 49.333 4 84c0 37.333 -0.5 74.333 -1.5 111s-2.33301 75 -4 115s-3 82.333 -4 127s-1.5 93.667 -1.5 147c0 48 3.16699 88.5 9.5 121.5
s16 59.833 29 80.5s29 35.5 48 44.5s41.167 13.5 66.5 13.5c17.333 0 34 -2 50 -6v-73v0z" />
    <glyph glyph-name="approxequal" unicode="&#x2248;" 
d="M487 156c-14.667 -13.333 -32.332 -25.332 -52.999 -35.999s-43.334 -16 -68.001 -16c-22 0 -40.667 3.16699 -56 9.5s-29.5 13.166 -42.5 20.499s-26.167 14.166 -39.5 20.499s-29.333 9.5 -48 9.5c-19.333 0 -36.166 -4.66699 -50.499 -14s-26.5 -18.666 -36.5 -27.999
l-30 55c13.333 13.333 30 26 50 38s42.667 18 68 18c21.333 0 39.666 -3.16699 54.999 -9.5s29.833 -13.5 43.5 -21.5s27.5 -15.167 41.5 -21.5s30.333 -9.5 49 -9.5c15.333 0 30 3.33301 44 10s28.667 16.667 44 30l29 -55v0zM486.002 329.001
c-14 -14.667 -30.9971 -27.8311 -50.9971 -39.498s-42.667 -17.5 -68 -17.5c-22 0 -40.5 3.16699 -55.5 9.5s-29.167 13.166 -42.5 20.499s-26.833 14.166 -40.5 20.499s-29.834 9.5 -48.501 9.5s-35.334 -4.5 -50.001 -13.5s-27 -18.167 -37 -27.5l-30 55
c14 13.333 31.167 25.833 51.5 37.5s43.166 17.5 68.499 17.5c21.333 0 39.833 -3.16699 55.5 -9.5s30.334 -13.5 44.001 -21.5s27.167 -15.167 40.5 -21.5s28.666 -9.5 45.999 -9.5c16 0 31 4 45 12s28 18.667 42 32l30 -54v0z" />
    <glyph glyph-name="notequal" unicode="&#x2260;" 
d="M267 137l-53 -143h-72l54 143h-144v67h168l36 100h-204v66h229l54 147h72l-55 -147h146v-66h-170l-37 -100h207v-67h-231z" />
    <glyph glyph-name="lessequal" unicode="&#x2264;" 
d="M83 -58v69h384v-69h-384zM409 65l-334 246l333 247l47 -57l-266 -189l266 -187z" />
    <glyph glyph-name="greaterequal" unicode="&#x2265;" 
d="M83 -58v69h384v-69h-384zM142 65l-47 56l266 190l-266 187l46 60l334 -246z" />
    <glyph glyph-name="lozenge" unicode="&#x25ca;" horiz-adv-x="618" 
d="M304 591l-175 -248l186 -258l176 245zM339 -9h-54l-249 350l245 343h51l250 -349z" />
    <glyph glyph-name="Circumflex" unicode="&#xe004;" horiz-adv-x="500" 
d="M433 717l-129 64l-125 -64l-21 42l148 83l152 -80z" />
    <glyph glyph-name="Tilde" unicode="&#xe005;" horiz-adv-x="500" 
d="M468 788c-11.333 -16 -24.833 -29.166 -40.5 -39.499s-34.5 -15.5 -56.5 -15.5c-14.667 0 -27.334 2 -38.001 6s-20.5 8.5 -29.5 13.5s-17.833 9.5 -26.5 13.5s-19 6 -31 6c-12.667 0 -23.667 -3.33301 -33 -10s-17.666 -15 -24.999 -25l-35 35
c11.333 17.333 24.833 31.166 40.5 41.499s35.167 15.5 58.5 15.5c14 0 26.167 -2 36.5 -6s20.166 -8.33301 29.499 -13s18.5 -9 27.5 -13s19.167 -6 30.5 -6c12.667 0 23.834 3.16699 33.501 9.5s18.167 14.5 25.5 24.5l33 -37v0z" />
    <glyph glyph-name="apple" unicode="&#xf000;" horiz-adv-x="829" 
d="M509 133l-202 -52l21 -52h173l12 28l-5 12l-63 -16l-10 26l87 22zM508 201l-202 -51l14 -35l202 52zM519 263h-209v-47l12 -32l197 50v29zM451 414c-11.333 2 -23.333 3 -36 3s-25.667 -1 -39 -3l12 -120h52zM574 416c0 22 -4.16602 42.6631 -12.499 61.9961
s-19.833 36.333 -34.5 51s-31.5 26.167 -50.5 34.5s-39.5 12.5 -61.5 12.5s-42.833 -4.16699 -62.5 -12.5s-36.667 -19.833 -51 -34.5s-25.833 -31.667 -34.5 -51s-13 -40 -13 -62c0 -23.333 4.83301 -45.5 14.5 -66.5s23.5 -39.5 41.5 -55.5h51l-13 115
c-7.33301 -1.33301 -13.333 -3 -18 -5s-9 -3.5 -13 -4.5s-7 0.166992 -9 3.5s-3.16699 7.33301 -3.5 12s0 9.16699 1 13.5s2.83301 6.5 5.5 6.5c15.333 5.33301 32 9.33301 50 12s36 4 54 4s35.833 -1.5 53.5 -4.5s34.5 -6.83301 50.5 -11.5
c2 -0.666992 3.66699 -3.16699 5 -7.5s1.66602 -8.66602 0.999023 -12.999s-2 -8.16602 -4 -11.499s-5 -4.66602 -9 -3.99902c-8 4 -18.667 7.33301 -32 10l-13 -115h51c14.667 13.333 27.667 30.333 39 51s17 44.334 17 71.001zM613.001 415.996
c0 -29.333 -5.49902 -55.833 -16.499 -79.5s-24.5 -43.5 -40.5 -59.5v-64l-13 -3l26 -62l-25 -7l25 -58l-25 -6l9 -22l-25 -55h-41c-2 -10 -9.83301 -18.5 -23.5 -25.5s-29.834 -10.5 -48.501 -10.5c-20 0 -36.833 3.5 -50.5 10.5s-21.167 15.5 -22.5 25.5h-41l-42 99l25 8
l-25 61l28 7l-16 38v64c-16 17.333 -29.333 37.833 -40 61.5s-16 49.5 -16 77.5c0 27.333 5.33301 53 16 77s25 45 43 63s39 32.333 63 43s50 16 78 16c26.667 0 52 -5.33301 76 -16s45 -25 63 -43s32.333 -39 43 -63s16 -49.667 16 -77zM726.002 398.996v33.999l100 6
c2 -15.333 2 -30.666 0 -45.999zM642.002 620.995c-3.33301 4 -7 8 -11 12s-8 7.66699 -12 11l66 76l33 -33zM431.002 713.995h-17h-17l-6 101c16 1.33301 31.333 1.33301 46 0zM211.002 642.995l-12.502 -10.5c-4.33301 -3.66699 -8.16602 -7.5 -11.499 -11.5l-76 66
c10.667 12 21.334 23 32.001 33zM2 392.995c-0.666992 6.66699 -1 14.332 -1 22.999s0.333008 16.334 1 23.001l102 -6c-0.666992 -10.667 -0.666992 -22 0 -34zM420 430.993l-0.999023 0.000976562v1c-0.666992 -1.33301 -1.33398 -2 -2.00098 -2s-1 0.666992 -1 2s1 2 3 2
c0 1.33301 -1 1.66602 -3 0.999023v1c2.66699 1.33301 4 1 4 -1v-4zM404.001 435.994l1 0.000976562v-4c0 -1.33301 -0.666992 -2 -2 -2s-2 0.666992 -2 2v4h1v-4l0.5 -1c0.333008 -0.666992 0.833008 -0.333984 1.5 0.999023v4zM426.001 432.995
c0 -1.33301 -1.33301 -2 -4 -2v1c2 0 3 0.333008 3 1c-2 0 -3 0.666992 -3 2s1.33301 2 4 2v-1c-2 0 -3 -0.333008 -3 -1c2 0 3 -0.666992 3 -2zM410.001 431.995v-0.999023c-2 -2 -3 -1.33301 -3 2c0 4 1 5 3 3v-1c-1.33301 1.33301 -2 0.666016 -2 -2.00098
c0 -2 0.666992 -2.33301 2 -1zM429.001 428.996h-1c1.33301 2.66699 1.33301 6 0 10h1c1.33301 -4 1.33301 -7.33301 0 -10zM414.001 428.996h-1c-1.33301 4 -1.33301 7.33301 0 10h1c-1.33301 -2.66699 -1.33301 -6 0 -10zM397.001 431.996h2v-1
c-1.33301 -1.33301 -2.33301 -1.33301 -3 0v7h1v-6zM419.001 432.996h-2c0 -2 0.666992 -2 2 0z" />
    <glyph glyph-name="apple" unicode="&#xf8ff;" horiz-adv-x="829" 
d="M509 133l-202 -52l21 -52h173l12 28l-5 12l-63 -16l-10 26l87 22zM508 201l-202 -51l14 -35l202 52zM519 263h-209v-47l12 -32l197 50v29zM451 414c-11.333 2 -23.333 3 -36 3s-25.667 -1 -39 -3l12 -120h52zM574 416c0 22 -4.16602 42.6631 -12.499 61.9961
s-19.833 36.333 -34.5 51s-31.5 26.167 -50.5 34.5s-39.5 12.5 -61.5 12.5s-42.833 -4.16699 -62.5 -12.5s-36.667 -19.833 -51 -34.5s-25.833 -31.667 -34.5 -51s-13 -40 -13 -62c0 -23.333 4.83301 -45.5 14.5 -66.5s23.5 -39.5 41.5 -55.5h51l-13 115
c-7.33301 -1.33301 -13.333 -3 -18 -5s-9 -3.5 -13 -4.5s-7 0.166992 -9 3.5s-3.16699 7.33301 -3.5 12s0 9.16699 1 13.5s2.83301 6.5 5.5 6.5c15.333 5.33301 32 9.33301 50 12s36 4 54 4s35.833 -1.5 53.5 -4.5s34.5 -6.83301 50.5 -11.5
c2 -0.666992 3.66699 -3.16699 5 -7.5s1.66602 -8.66602 0.999023 -12.999s-2 -8.16602 -4 -11.499s-5 -4.66602 -9 -3.99902c-8 4 -18.667 7.33301 -32 10l-13 -115h51c14.667 13.333 27.667 30.333 39 51s17 44.334 17 71.001zM613.001 415.996
c0 -29.333 -5.49902 -55.833 -16.499 -79.5s-24.5 -43.5 -40.5 -59.5v-64l-13 -3l26 -62l-25 -7l25 -58l-25 -6l9 -22l-25 -55h-41c-2 -10 -9.83301 -18.5 -23.5 -25.5s-29.834 -10.5 -48.501 -10.5c-20 0 -36.833 3.5 -50.5 10.5s-21.167 15.5 -22.5 25.5h-41l-42 99l25 8
l-25 61l28 7l-16 38v64c-16 17.333 -29.333 37.833 -40 61.5s-16 49.5 -16 77.5c0 27.333 5.33301 53 16 77s25 45 43 63s39 32.333 63 43s50 16 78 16c26.667 0 52 -5.33301 76 -16s45 -25 63 -43s32.333 -39 43 -63s16 -49.667 16 -77zM726.002 398.996v33.999l100 6
c2 -15.333 2 -30.666 0 -45.999zM642.002 620.995c-3.33301 4 -7 8 -11 12s-8 7.66699 -12 11l66 76l33 -33zM431.002 713.995h-17h-17l-6 101c16 1.33301 31.333 1.33301 46 0zM211.002 642.995l-12.502 -10.5c-4.33301 -3.66699 -8.16602 -7.5 -11.499 -11.5l-76 66
c10.667 12 21.334 23 32.001 33zM2 392.995c-0.666992 6.66699 -1 14.332 -1 22.999s0.333008 16.334 1 23.001l102 -6c-0.666992 -10.667 -0.666992 -22 0 -34zM420 430.993l-0.999023 0.000976562v1c-0.666992 -1.33301 -1.33398 -2 -2.00098 -2s-1 0.666992 -1 2s1 2 3 2
c0 1.33301 -1 1.66602 -3 0.999023v1c2.66699 1.33301 4 1 4 -1v-4zM404.001 435.994l1 0.000976562v-4c0 -1.33301 -0.666992 -2 -2 -2s-2 0.666992 -2 2v4h1v-4l0.5 -1c0.333008 -0.666992 0.833008 -0.333984 1.5 0.999023v4zM426.001 432.995
c0 -1.33301 -1.33301 -2 -4 -2v1c2 0 3 0.333008 3 1c-2 0 -3 0.666992 -3 2s1.33301 2 4 2v-1c-2 0 -3 -0.333008 -3 -1c2 0 3 -0.666992 3 -2zM410.001 431.995v-0.999023c-2 -2 -3 -1.33301 -3 2c0 4 1 5 3 3v-1c-1.33301 1.33301 -2 0.666016 -2 -2.00098
c0 -2 0.666992 -2.33301 2 -1zM429.001 428.996h-1c1.33301 2.66699 1.33301 6 0 10h1c1.33301 -4 1.33301 -7.33301 0 -10zM414.001 428.996h-1c-1.33301 4 -1.33301 7.33301 0 10h1c-1.33301 -2.66699 -1.33301 -6 0 -10zM397.001 431.996h2v-1
c-1.33301 -1.33301 -2.33301 -1.33301 -3 0v7h1v-6zM419.001 432.996h-2c0 -2 0.666992 -2 2 0z" />
    <glyph glyph-name="fi" unicode="&#xf001;" horiz-adv-x="589" 
d="M418 0v431h-222v-431h-85v431h-104v66h104v23c0 70 18.667 123.667 56 161s95.333 56 174 56c24.667 0 48.5 -1.83301 71.5 -5.5s45.167 -8.16699 66.5 -13.5l-16 -71c-18.667 6 -39 10.833 -61 14.5s-42 5.5 -60 5.5c-52 0 -89.333 -11.833 -112 -35.5
s-34 -57.5 -34 -101.5v-33h306v-497h-84z" />
    <glyph glyph-name="fi" unicode="&#xfb01;" horiz-adv-x="589" 
d="M418 0v431h-222v-431h-85v431h-104v66h104v23c0 70 18.667 123.667 56 161s95.333 56 174 56c24.667 0 48.5 -1.83301 71.5 -5.5s45.167 -8.16699 66.5 -13.5l-16 -71c-18.667 6 -39 10.833 -61 14.5s-42 5.5 -60 5.5c-52 0 -89.333 -11.833 -112 -35.5
s-34 -57.5 -34 -101.5v-33h306v-497h-84z" />
    <glyph glyph-name="fl" unicode="&#xf002;" horiz-adv-x="589" 
d="M418 0v660.001c-15.333 2.66699 -30.166 4.66699 -44.499 6s-29.166 2 -44.499 2c-45.333 0 -78.833 -9.66699 -100.5 -29s-32.5 -50 -32.5 -92v-50h138v-66h-138v-431h-85v431h-104v66h104v58c0 56 18.333 100.333 55 133s94 49 172 49
c25.333 0 52.666 -1.33301 81.999 -4s56.666 -6.33398 81.999 -11.001v-722h-84z" />
    <glyph glyph-name="fl" unicode="&#xfb02;" horiz-adv-x="589" 
d="M418 0v660.001c-15.333 2.66699 -30.166 4.66699 -44.499 6s-29.166 2 -44.499 2c-45.333 0 -78.833 -9.66699 -100.5 -29s-32.5 -50 -32.5 -92v-50h138v-66h-138v-431h-85v431h-104v66h104v58c0 56 18.333 100.333 55 133s94 49 172 49
c25.333 0 52.666 -1.33301 81.999 -4s56.666 -6.33398 81.999 -11.001v-722h-84z" />
    <glyph glyph-name="Acute" unicode="&#xf6c9;" horiz-adv-x="500" 
d="M272 719l-21 39l175 90l29 -58z" />
    <glyph glyph-name="Caron" unicode="&#xf6ca;" horiz-adv-x="500" 
d="M252 720l-152 80l25 45l128 -64l126 64l21 -42z" />
    <glyph glyph-name="Dieresis" unicode="&#xf6cb;" horiz-adv-x="500" 
d="M205 781c0 -13.333 -5 -25 -15 -35s-21.667 -15 -35 -15s-24.833 5 -34.5 15s-14.5 21.667 -14.5 35s4.83301 24.833 14.5 34.5s21.167 14.5 34.5 14.5s25 -4.83301 35 -14.5s15 -21.167 15 -34.5zM422 781c0 -13.333 -4.83301 -25 -14.5 -35s-21.5 -15 -35.5 -15
c-13.333 0 -24.833 5 -34.5 15s-14.5 21.667 -14.5 35s4.83301 24.833 14.5 34.5s21.167 14.5 34.5 14.5c14 0 25.833 -4.83301 35.5 -14.5s14.5 -21.167 14.5 -34.5z" />
    <glyph glyph-name="Grave" unicode="&#xf6ce;" horiz-adv-x="500" 
d="M319 719l-184 71l29 59l175 -89z" />
    <glyph glyph-name="zerooldstyle" unicode="&#xf730;" 
d="M429 296c0 84.667 -14.166 146.503 -42.499 185.503s-65.833 58.5 -112.5 58.5c-20 0 -39.333 -4.66699 -58 -14s-35.167 -23.666 -49.5 -42.999s-25.833 -43.833 -34.5 -73.5s-13 -64.834 -13 -105.501c0 -84.667 14.167 -146.334 42.5 -185.001s66.166 -58 113.499 -58
c20 0 39.333 4.5 58 13.5s35 23.167 49 42.5s25.333 43.666 34 72.999s13 64.666 13 105.999zM515.001 304.003c0 -50.667 -6.66895 -95.4971 -20.002 -134.497s-31.166 -71.833 -53.499 -98.5s-48.5 -46.834 -78.5 -60.501s-62 -20.5 -96 -20.5
c-31.333 0 -61.166 5.16699 -89.499 15.5s-53.166 27.666 -74.499 51.999s-38.333 56.166 -51 95.499s-19 88 -19 146c0 50 6.66699 94.333 20 133s31.166 71.167 53.499 97.5s48.5 46.333 78.5 60s62 20.5 96 20.5c30.667 0 60 -5.16699 88 -15.5s52.833 -27.333 74.5 -51
s39 -55 52 -94s19.5 -87.5 19.5 -145.5z" />
    <glyph glyph-name="oneoldstyle" unicode="&#xf731;" 
d="M89 0v74h175v433l-167 -113l-31 68l212 138h71v-526h149v-74h-409z" />
    <glyph glyph-name="twooldstyle" unicode="&#xf732;" 
d="M69 0l0.00390625 66l142 136c28.667 27.333 52.5 51.166 71.5 71.499s34 38.666 45 54.999s18.833 32 23.5 47s7 30.833 7 47.5c0 34.667 -10 62.334 -30 83.001s-50 31 -90 31c-27.333 0 -52.333 -4.83301 -75 -14.5s-42 -21.167 -58 -34.5l-32 66
c24.667 17.333 51.667 31 81 41s62.666 15 99.999 15c31.333 0 59 -4.5 83 -13.5s44.167 -21.333 60.5 -37s28.666 -34.167 36.999 -55.5s12.5 -44.333 12.5 -69c0 -21.333 -2.83301 -41.666 -8.5 -60.999s-14.334 -38.833 -26.001 -58.5s-26.834 -40 -45.501 -61
s-41 -43.833 -67 -68.5l-117 -110l-3 -2c26.667 1.33301 65 2.33301 115 3s111 1 183 1v-78h-409z" />
    <glyph glyph-name="threeoldstyle" unicode="&#xf733;" 
d="M468 129c0 -32 -6.83398 -61.502 -20.501 -88.502s-32.5 -50.333 -56.5 -70s-52.833 -35.167 -86.5 -46.5s-70.5 -17 -110.5 -17c-19.333 0 -40.5 1.5 -63.5 4.5s-42.833 7.16699 -59.5 12.5l14 74c17.333 -6.66699 36.666 -11.667 57.999 -15s42 -5 62 -5
c26 0 49.667 3.5 71 10.5s39.5 16.833 54.5 29.5s26.667 27.334 35 44.001s12.5 34.667 12.5 54c0 40 -14 71.667 -42 95s-67.667 35 -119 35c-16 0 -31.333 -0.333008 -46 -1l-42 -2v67h24c69.333 0 121.333 11 156 33s52 54 52 96c0 32.667 -11.5 57.834 -34.5 75.501
s-52.5 26.5 -88.5 26.5c-25.333 0 -49 -3.16699 -71 -9.5s-41.667 -14.5 -59 -24.5l-24 66c22.667 10.667 47.667 19.5 75 26.5s57.333 10.5 90 10.5c32 0 60.333 -4.16699 85 -12.5s45.334 -19.666 62.001 -33.999s29.334 -31.166 38.001 -50.499s13 -40 13 -62
c0 -40 -10.5 -73.5 -31.5 -100.5s-48.833 -46.167 -83.5 -57.5l-1 -1c19.333 -2.66699 37.333 -8.83398 54 -18.501s31.167 -21.667 43.5 -36s22 -30.833 29 -49.5s10.5 -38.334 10.5 -59.001z" />
    <glyph glyph-name="fouroldstyle" unicode="&#xf734;" 
d="M332 517h-1.00098l-221 -358c14.667 0.666992 32.334 1.16699 53.001 1.5l63 1c21.333 0.333008 41.333 0.5 60 0.5h46v355zM412.999 87v-170h-82v170h-298l-6 66l273 447h113v-438h116v-75h-116z" />
    <glyph glyph-name="fiveoldstyle" unicode="&#xf735;" 
d="M471 137c0 -35.333 -7.49707 -67.166 -22.4971 -95.499s-35.833 -52.5 -62.5 -72.5s-57.834 -35.333 -93.501 -46s-74.167 -16 -115.5 -16c-21.333 0 -39 0.5 -53 1.5s-27 2.83301 -39 5.5l8 77c10.667 -2.66699 23.167 -5 37.5 -7s32.166 -3 53.499 -3
c64 0 113 13 147 39s51 61 51 105c0 51.333 -18.5 88.833 -55.5 112.5s-90.5 35.5 -160.5 35.5c-10.667 0 -20.834 -0.166992 -30.501 -0.5s-19.5 -0.833008 -29.5 -1.5l22 329h311v-80h-238l-12 -176c90 0 159.5 -17.833 208.5 -53.5s73.5 -86.834 73.5 -153.501z" />
    <glyph glyph-name="sixoldstyle" unicode="&#xf736;" 
d="M408 215c0 41.333 -10.832 75.167 -32.499 101.5s-53.834 39.5 -96.501 39.5c-20 0 -38 -4.33301 -54 -13s-29.5 -19.5 -40.5 -32.5s-19.5 -27.667 -25.5 -44s-9 -31.833 -9 -46.5c0 -21.333 2.66699 -41.666 8 -60.999s13.5 -36.333 24.5 -51s24.667 -26.334 41 -35.001
s35.5 -13 57.5 -13c40 0 71.167 14.333 93.5 43s33.5 66 33.5 112zM491.001 229.001c0 -35.333 -5.33105 -67.668 -15.998 -97.001s-25.5 -54.5 -44.5 -75.5s-41.833 -37.333 -68.5 -49s-56 -17.5 -88 -17.5c-68 0 -120.833 25 -158.5 75s-56.5 120 -56.5 210
c0 72.667 8.16699 135 24.5 187s39.166 94.5 68.499 127.5s64.166 57.167 104.499 72.5s84.5 23 132.5 23c6 0 13.833 -0.166992 23.5 -0.5s17.5 -0.833008 23.5 -1.5l-7 -74c-17.333 2 -33.666 3 -48.999 3c-35.333 0 -66 -5 -92 -15s-48.333 -24.5 -67 -43.5
s-33.834 -42.5 -45.501 -70.5s-20.5 -59.667 -26.5 -95l-4 -27.5c-1.33301 -9 -2.33301 -17.5 -3 -25.5c15.333 28.667 36.333 50.834 63 66.501s56.334 23.5 89.001 23.5c31.333 0 59.166 -5 83.499 -15s45 -23.833 62 -41.5s29.833 -38.5 38.5 -62.5s13 -49.667 13 -77z
" />
    <glyph glyph-name="sevenoldstyle" unicode="&#xf737;" 
d="M492 529c-48.667 -96 -95.001 -196.169 -139.001 -300.502s-84.333 -208.166 -121 -311.499h-94c40 107.333 82.333 212 127 314s90 198.667 136 290c-7.33301 0 -21.166 -0.166992 -41.499 -0.5s-45.5 -0.666016 -75.5 -0.999023s-63.667 -0.5 -101 -0.5h-119v81h428
v-71v0z" />
    <glyph glyph-name="eightoldstyle" unicode="&#xf738;" 
d="M403 157c0 30.667 -10.501 57.666 -31.501 80.999s-55.5 47 -103.5 71c-41.333 -25.333 -71.833 -49.166 -91.5 -71.499s-29.5 -47.5 -29.5 -75.5c0 -31.333 11.333 -56.5 34 -75.5s54.334 -28.5 95.001 -28.5c17.333 0 33.666 2.16699 48.999 6.5
s28.833 10.833 40.5 19.5s20.834 19 27.501 31s10 26 10 42zM383.999 525.999c0 27.333 -9.16699 49.333 -27.5 66s-46.166 25 -83.499 25c-36.667 0 -64.834 -9 -84.501 -27s-29.5 -41 -29.5 -69c0 -24.667 9 -47 27 -67s47.667 -41 89 -63
c41.333 26.667 69.833 50.167 85.5 70.5s23.5 41.833 23.5 64.5zM489.999 168.999c0 -29.333 -5.83691 -55.168 -17.5039 -77.501s-27.667 -41 -48 -56s-44.166 -26.5 -71.499 -34.5s-56.666 -12 -87.999 -12c-66 0 -116.833 15.5 -152.5 46.5s-53.5 70.5 -53.5 118.5
c0 30.667 10.167 61.834 30.5 93.501s57.166 63.834 110.499 96.501c-44 25.333 -75.5 51.166 -94.5 77.499s-28.5 56.833 -28.5 91.5c0 24.667 4.83301 47.667 14.5 69s23.334 39.5 41.001 54.5s38.834 26.833 63.501 35.5s52.334 13 83.001 13
c59.333 0 105.833 -14 139.5 -42s50.5 -65 50.5 -111c0 -32 -9 -62 -27 -90s-50.667 -57.333 -98 -88c53.333 -28 91 -57.167 113 -87.5s33 -62.833 33 -97.5z" />
    <glyph glyph-name="nineoldstyle" unicode="&#xf739;" 
d="M391 381c0 22.667 -2.83301 43.835 -8.5 63.502s-14 36.667 -25 51s-24.5 25.5 -40.5 33.5s-34 12 -54 12c-19.333 0 -36.833 -3.83301 -52.5 -11.5s-29 -18.334 -40 -32.001s-19.5 -29.667 -25.5 -48s-9 -38.5 -9 -60.5c0 -42.667 10.833 -77.334 32.5 -104.001
s52.167 -40 91.5 -40c20.667 0 39 4 55 12s29.667 18.333 41 31s20 27.167 26 43.5s9 32.833 9 49.5zM485 329.001c0 -74.667 -8.66602 -138.668 -25.999 -192.001s-41 -97 -71 -131s-65.167 -59 -105.5 -75s-83.833 -24 -130.5 -24c-13.333 0 -27.666 0.5 -42.999 1.5
s-29.333 2.83301 -42 5.5l11 77c28 -7.33301 56.667 -11 86 -11c60.667 0 110.5 19.5 149.5 58.5s63.833 93.833 74.5 164.5c1.33301 10.667 2.66602 19.667 3.99902 27s2.66602 15.666 3.99902 24.999h-1c-16 -25.333 -37 -45.333 -63 -60s-56 -22 -90 -22
c-30 0 -56.833 5 -80.5 15s-43.5 24 -59.5 42s-28.333 39.333 -37 64s-13 52 -13 82c0 34.667 5.33301 66.334 16 95.001s25.667 53.334 45 74.001s42.333 36.667 69 48s56 17 88 17s61.167 -5.66699 87.5 -17s49 -28.5 68 -51.5s33.667 -52.167 44 -87.5
s15.5 -77 15.5 -125z" />
    <glyph glyph-name=".null" horiz-adv-x="0" 
 />
    <glyph glyph-name="nonmarkingreturn" horiz-adv-x="500" 
 />
    </font>
</defs>
</svg>
