<svg xmlns="http://www.w3.org/2000/svg">
<defs>
<font id="GrundfosTheSans-BoldItalic" horiz-adv-x="550" >
  <font-face 
    font-family="Grundfos TheSans"
    font-weight="700"
    font-style="italic"
    font-stretch="normal"
    units-per-em="1000"
    panose-1="2 11 8 3 4 3 2 13 2 4"
    ascent="740"
    descent="-260"
    x-height="497"
    cap-height="675"
    bbox="-161.002 -253 1054 861.001"
    underline-thickness="20"
    underline-position="-140"
    slope="-11"
    unicode-range="U+0020-U+F6CE"
  />
<missing-glyph horiz-adv-x="829" 
d="M509 133l-202 -52l21 -52h173l12 28l-5 12l-63 -16l-10 26l87 22zM508 201l-202 -51l14 -35l202 52zM519 263h-209v-47l12 -32l197 50v29zM451 414c-6.66699 2 -13 3 -19 3h-17h-19c-6 0 -12.667 -1 -20 -3l12 -120h52zM574 416c0 22 -4.16602 42.6631 -12.499 61.9961
s-19.833 36.333 -34.5 51s-31.5 26.167 -50.5 34.5s-39.5 12.5 -61.5 12.5s-42.833 -4.16699 -62.5 -12.5s-36.667 -19.833 -51 -34.5s-25.833 -31.667 -34.5 -51s-13 -40 -13 -62c0 -23.333 4.83301 -45.5 14.5 -66.5s23.5 -39.5 41.5 -55.5h51l-13 115
c-7.33301 -1.33301 -13.333 -3 -18 -5s-9 -3.5 -13 -4.5s-7 0.166992 -9 3.5s-3.16699 7.33301 -3.5 12s0 9.16699 1 13.5s2.83301 6.5 5.5 6.5c15.333 5.33301 32 9.33301 50 12s36 4 54 4s35.833 -1.5 53.5 -4.5s34.5 -6.83301 50.5 -11.5
c2 -0.666992 3.66699 -3.16699 5 -7.5s1.66602 -8.66602 0.999023 -12.999s-2 -8.16602 -4 -11.499s-5 -4.66602 -9 -3.99902c-8 4 -18.667 7.33301 -32 10l-13 -115h51c14.667 13.333 27.667 30.333 39 51s17 44.334 17 71.001zM613.001 415.996
c0 -29.333 -5.49902 -55.833 -16.499 -79.5s-24.5 -43.5 -40.5 -59.5v-64l-13 -3l26 -62l-25 -7l25 -58l-25 -6l9 -22l-25 -55h-41c-2 -10 -9.83301 -18.5 -23.5 -25.5s-29.834 -10.5 -48.501 -10.5c-20 0 -36.833 3.5 -50.5 10.5s-21.167 15.5 -22.5 25.5h-41l-42 99l25 8
l-25 61l28 7l-16 38v64c-16 17.333 -29.333 37.833 -40 61.5s-16 49.5 -16 77.5c0 27.333 5.33301 53 16 77s25 45 43 63s39 32.333 63 43s50 16 78 16c26.667 0 52 -5.33301 76 -16s45 -25 63 -43s32.333 -39 43 -63s16 -49.667 16 -77zM726.002 398.996v33.999l100 6

<glyph glyph-name=".notdef" horiz-adv-x="829" 
d="M509 133l-202 -52l21 -52h173l12 28l-5 12l-63 -16l-10 26l87 22zM508 201l-202 -51l14 -35l202 52zM519 263h-209v-47l12 -32l197 50v29zM451 414c-6.66699 2 -13 3 -19 3h-17h-19c-6 0 -12.667 -1 -20 -3l12 -120h52zM574 416c0 22 -4.16602 42.6631 -12.499 61.9961
s-19.833 36.333 -34.5 51s-31.5 26.167 -50.5 34.5s-39.5 12.5 -61.5 12.5s-42.833 -4.16699 -62.5 -12.5s-36.667 -19.833 -51 -34.5s-25.833 -31.667 -34.5 -51s-13 -40 -13 -62c0 -23.333 4.83301 -45.5 14.5 -66.5s23.5 -39.5 41.5 -55.5h51l-13 115
c-7.33301 -1.33301 -13.333 -3 -18 -5s-9 -3.5 -13 -4.5s-7 0.166992 -9 3.5s-3.16699 7.33301 -3.5 12s0 9.16699 1 13.5s2.83301 6.5 5.5 6.5c15.333 5.33301 32 9.33301 50 12s36 4 54 4s35.833 -1.5 53.5 -4.5s34.5 -6.83301 50.5 -11.5
c2 -0.666992 3.66699 -3.16699 5 -7.5s1.66602 -8.66602 0.999023 -12.999s-2 -8.16602 -4 -11.499s-5 -4.66602 -9 -3.99902c-8 4 -18.667 7.33301 -32 10l-13 -115h51c14.667 13.333 27.667 30.333 39 51s17 44.334 17 71.001zM613.001 415.996
c0 -29.333 -5.49902 -55.833 -16.499 -79.5s-24.5 -43.5 -40.5 -59.5v-64l-13 -3l26 -62l-25 -7l25 -58l-25 -6l9 -22l-25 -55h-41c-2 -10 -9.83301 -18.5 -23.5 -25.5s-29.834 -10.5 -48.501 -10.5c-20 0 -36.833 3.5 -50.5 10.5s-21.167 15.5 -22.5 25.5h-41l-42 99l25 8
l-25 61l28 7l-16 38v64c-16 17.333 -29.333 37.833 -40 61.5s-16 49.5 -16 77.5c0 27.333 5.33301 53 16 77s25 45 43 63s39 32.333 63 43s50 16 78 16c26.667 0 52 -5.33301 76 -16s45 -25 63 -43s32.333 -39 43 -63s16 -49.667 16 -77zM726.002 398.996v33.999l100 6
c2 -15.333 2 -30.666 0 -45.999zM642.002 620.995c-3.33301 4 -7 8 -11 12s-8 7.66699 -12 11l66 76l33 -33zM431.002 713.995h-17h-17l-6 101c16 1.33301 31.333 1.33301 46 0zM211.002 642.995l-12.502 -10.5c-4.33301 -3.66699 -8.16602 -7.5 -11.499 -11.5l-76 66
c10.667 12 21.334 23 32.001 33zM2 392.995c-0.666992 6.66699 -1 14.332 -1 22.999s0.333008 16.334 1 23.001l102 -6c-0.666992 -10.667 -0.666992 -22 0 -34zM420 430.993l-0.999023 0.000976562v1c-0.666992 -1.33301 -1.33398 -2 -2.00098 -2s-1 0.666992 -1 2s1 2 3 2
c0 1.33301 -1 1.66602 -3 0.999023v1c2.66699 1.33301 4 1 4 -1v-4zM404.001 435.994l1 0.000976562v-4c0 -1.33301 -0.666992 -2 -2 -2s-2 0.666992 -2 2v4h1v-4l0.5 -1c0.333008 -0.666992 0.833008 -0.333984 1.5 0.999023v4zM426.001 432.995
c0 -1.33301 -1.33301 -2 -4 -2v1c2 0 3 0.333008 3 1c-2 0 -3 0.666992 -3 2s1.33301 2 4 2v-1c-2 0 -3 -0.333008 -3 -1c2 0 3 -0.666992 3 -2zM410.001 431.995v-0.999023c-2 -2 -3 -1.33301 -3 2c0 4 1 5 3 3v-1c-1.33301 1.33301 -2 0.666016 -2 -2.00098
c0 -2 0.666992 -2.33301 2 -1zM429.001 428.996h-1c1.33301 2.66699 1.33301 6 0 10h1c1.33301 -4 1.33301 -7.33301 0 -10zM414.001 428.996h-1c-1.33301 4 -1.33301 7.33301 0 10h1c-1.33301 -2.66699 -1.33301 -6 0 -10zM397.001 431.996h2v-1
c-1.33301 -1.33301 -2.33301 -1.33301 -3 0v7h1v-6zM419.001 432.996h-2c0 -2 0.666992 -2 2 0z" />
    <glyph glyph-name="space" unicode=" " horiz-adv-x="225" 
 />
    <glyph glyph-name="exclam" unicode="!" horiz-adv-x="299" 
d="M203 73c0 -12 -2.33203 -23.167 -6.99902 -33.5s-11 -19.333 -19 -27s-17.167 -13.5 -27.5 -17.5s-21.5 -6 -33.5 -6c-23.333 0 -42.166 7.5 -56.499 22.5s-21.5 32.167 -21.5 51.5c0 25.333 8.66699 46 26 62s37.666 24 60.999 24s42.166 -7.66699 56.499 -23
s21.5 -33 21.5 -53zM203.001 193h-116l79 526h158z" />
    <glyph glyph-name="quotedbl" unicode="&#x22;" horiz-adv-x="409" 
d="M209 491h-102l27 260h137zM404 491h-103l27 260h137z" />
    <glyph glyph-name="numbersign" unicode="#" 
d="M256 418l-42 -147h101l42 147h-101zM555 418h-91l-42 -147h79l-18 -96h-90l-49 -175h-108l51 175h-101l-51 -175h-106l50 175h-82l20 96h90l42 147h-78l19 96h89l44 161h107l-45 -161h100l45 161h108l-45 -161h81z" />
    <glyph glyph-name="dollar" unicode="$" 
d="M364 205c0 16 -5.16699 29.334 -15.5 40.001s-23.5 19.334 -39.5 26.001l-34 -158c23.333 5.33301 44 15.666 62 30.999s27 35.666 27 60.999zM288 562.001c-26.667 -5.33301 -47.5 -15.5 -62.5 -30.5s-22.5 -33.167 -22.5 -54.5c0 -14.667 4.83301 -27 14.5 -37
s22.5 -18.667 38.5 -26zM480 544.001c-16 6.66699 -32.833 11.666 -50.5 14.999s-35.167 5.66602 -52.5 6.99902l-38 -175c24 -6.66699 45.833 -14.5 65.5 -23.5s36.667 -19.833 51 -32.5s25.333 -27.5 33 -44.5s11.5 -36.5 11.5 -58.5c0 -29.333 -6 -57.166 -18 -83.499
s-29.167 -49.833 -51.5 -70.5s-49 -38 -80 -52s-65.5 -23.333 -103.5 -28l-30 -127h-88l29 125c-26.667 0.666992 -53.334 3.5 -80.001 8.5s-49.667 11.167 -69 18.5l43 126c37.333 -20 82 -32.667 134 -38l39 179c-22 5.33301 -42.167 12.333 -60.5 21
s-34.166 19.334 -47.499 32.001s-23.833 27.667 -31.5 45s-11.5 38 -11.5 62c0 28 5.16699 54.5 15.5 79.5s25.5 47.333 45.5 67s44.833 36 74.5 49s64.167 21.5 103.5 25.5l23 100h89l-23 -98c20.667 -1.33301 40.667 -3.5 60 -6.5s38 -7.5 56 -13.5z" />
    <glyph glyph-name="percent" unicode="%" horiz-adv-x="810" 
d="M656 181c0 15.333 -3.16895 27.501 -9.50195 36.501s-17.166 13.5 -32.499 13.5c-10.667 0 -20.167 -3 -28.5 -9s-15.5 -14 -21.5 -24s-10.5 -21.5 -13.5 -34.5s-4.5 -26.167 -4.5 -39.5c0 -34.667 13.667 -52 41 -52c10.667 0 20.334 3.16699 29.001 9.5
s16 14.666 22 24.999s10.5 22 13.5 35s4.5 26.167 4.5 39.5zM304.998 553.001c0 15.333 -3.33398 27.668 -10.001 37.001s-17.667 14 -33 14c-10.667 0 -20.167 -3 -28.5 -9s-15.5 -14 -21.5 -24s-10.5 -21.5 -13.5 -34.5s-4.5 -26.167 -4.5 -39.5c0 -35.333 14 -53 42 -53
c10.667 0 20.334 3.16699 29.001 9.5s16 14.666 22 24.999s10.5 22 13.5 35s4.5 26.167 4.5 39.5zM770.997 191.003c0 -28.667 -5.16797 -55.833 -15.501 -81.5s-24.5 -48.334 -42.5 -68.001s-39.333 -35.334 -64 -47.001s-51 -17.5 -79 -17.5
c-41.333 0 -74.666 10.833 -99.999 32.5s-38 57.167 -38 106.5c0 30.667 5.16699 58.834 15.5 84.501s24.5 47.834 42.5 66.501s39 33.167 63 43.5s49.333 15.5 76 15.5c48 0 83.667 -12 107 -36s35 -57 35 -99zM186.996 -26.9961l-89 75l560 655l90 -74zM418.996 563.004
c0 -28 -5.16699 -55.001 -15.5 -81.001s-24.5 -48.667 -42.5 -68s-39.333 -34.833 -64 -46.5s-51 -17.5 -79 -17.5c-20.667 0 -39.5 2.66699 -56.5 8s-31.5 13.5 -43.5 24.5s-21.333 25.167 -28 42.5s-10 38.333 -10 63c0 30.667 5.16699 58.834 15.5 84.501
s24.5 47.834 42.5 66.501s39 33.167 63 43.5s49.333 15.5 76 15.5c48 0 83.667 -11.833 107 -35.5s35 -56.834 35 -99.501z" />
    <glyph glyph-name="ampersand" unicode="&#x26;" horiz-adv-x="781" 
d="M414 153l-75.998 79.999c-25.333 27.333 -47 53.333 -65 78c-25.333 -19.333 -46.833 -38.666 -64.5 -57.999s-26.5 -41.333 -26.5 -66c0 -22 7.16699 -41 21.5 -57s36.833 -24 67.5 -24c23.333 0 47.166 3.83301 71.499 11.5s48.166 19.5 71.499 35.5zM404.002 589.999
c0 14 -3.83301 25.332 -11.5 33.999s-19.834 13 -36.501 13c-19.333 0 -35.666 -6.66699 -48.999 -20s-20 -30.666 -20 -51.999c0 -12.667 2.83301 -26.667 8.5 -42s12.834 -30.666 21.501 -45.999c11.333 8 22.166 16.333 32.499 25s19.5 17.5 27.5 26.5
s14.5 18.667 19.5 29s7.5 21.166 7.5 32.499zM753.002 461.998c-7.33301 -57.333 -24 -111.837 -50 -163.504s-57 -97.5 -93 -137.5c17.333 -15.333 35.666 -30.666 54.999 -45.999l58 -45l-94 -94c-22 15.333 -42.833 31 -62.5 47l-58.5 49
c-38 -26 -79.167 -46.5 -123.5 -61.5s-91.5 -22.5 -141.5 -22.5c-36 0 -66.833 4.5 -92.5 13.5s-46.667 21.167 -63 36.5s-28.5 33.666 -36.5 54.999s-12 44 -12 68c0 27.333 5 52.5 15 75.5s23 44.333 39 64s34 37.834 54 54.501s40 32.334 60 47.001
c-7.33301 10.667 -14.166 22.167 -20.499 34.5s-12.166 25.166 -17.499 38.499s-9.5 26.5 -12.5 39.5s-4.5 25.5 -4.5 37.5c0 24 5.33301 47.333 16 70s25.5 42.834 44.5 60.501s41.833 31.834 68.5 42.501s56 16 88 16c30 0 55.667 -3.33301 77 -10s39 -15.834 53 -27.501
s24.333 -25.667 31 -42s10 -34.166 10 -53.499c0 -22 -4.16699 -43 -12.5 -63s-19.833 -39 -34.5 -57s-31.5 -35.167 -50.5 -51.5s-39.167 -32.166 -60.5 -47.499c18.667 -24 39.5 -48.333 62.5 -73l72.5 -75c25.333 30 47.166 64.167 65.499 102.5
s30.833 77.833 37.5 118.5h133z" />
    <glyph glyph-name="quotesingle" unicode="'" horiz-adv-x="215" 
d="M209 491h-102l27 260h137z" />
    <glyph glyph-name="parenleft" unicode="(" horiz-adv-x="301" 
d="M390 739c-34.667 -47.333 -65.501 -97.001 -92.501 -149.001s-49.667 -104.167 -68 -156.5s-32.166 -103.666 -41.499 -153.999s-14 -97.5 -14 -141.5c0 -50.667 2.83301 -101.167 8.5 -151.5s16.5 -100.5 32.5 -150.5l-106 -48c-20 46.667 -36.333 98.334 -49 155.001
s-19 118.667 -19 186c0 55.333 5.66699 111.666 17 168.999s28 114.333 50 171s49 112 81 166s68.667 105.667 110 155z" />
    <glyph glyph-name="parenright" unicode=")" horiz-adv-x="301" 
d="M277 447c0 -55.333 -5.66602 -111.665 -16.999 -168.998s-28 -114.333 -50 -171s-49 -112.167 -81 -166.5s-68.667 -105.833 -110 -154.5l-91 51c34.667 47.333 65.5 97 92.5 149s49.667 104.167 68 156.5s32.166 103.666 41.499 153.999s14 97.5 14 141.5
c0 50.667 -2.83301 101.167 -8.5 151.5s-16.5 100.5 -32.5 150.5l106 48c20 -46.667 36.333 -98.334 49 -155.001s19 -118.667 19 -186z" />
    <glyph glyph-name="asterisk" unicode="*" horiz-adv-x="380" 
d="M316 569l88 -38l-54 -85l-73 70l-3 -107l-96 2l37 104l-89 -64l-39 82l107 38l-88 39l55 85l71 -71l5 108l95 -3l-37 -105l90 67l38 -84z" />
    <glyph glyph-name="plus" unicode="+" 
d="M500 203h-179l-39 -197h-124l39 197h-179l22 110h178l39 195h123l-37 -195h180z" />
    <glyph glyph-name="comma" unicode="," horiz-adv-x="260" 
d="M106 158c16.667 0 31.665 -4.33594 44.998 -13.0029s23.5 -20.667 30.5 -36s10 -33.666 9 -54.999s-7.5 -44.333 -19.5 -69s-30.5 -50.834 -55.5 -78.501s-57.833 -55.5 -98.5 -83.5l-49 57c20.667 16.667 37.167 32.167 49.5 46.5s21 27.5 26 39.5s6.5 23.333 4.5 34
s-6.33301 21.334 -13 32.001c-8 12 -12.167 25.333 -12.5 40s2.83398 28.334 9.50098 41.001s16.334 23.334 29.001 32.001s27.667 13 45 13z" />
    <glyph glyph-name="hyphen" unicode="-" horiz-adv-x="335" 
d="M43 200v110h249v-110h-249z" />
    <glyph glyph-name="hyphen" unicode="&#xad;" horiz-adv-x="335" 
d="M43 200v110h249v-110h-249z" />
    <glyph glyph-name="period" unicode="." horiz-adv-x="260" 
d="M192 77c0 -12.667 -2.5 -24.334 -7.5 -35.001s-11.5 -20 -19.5 -28s-17.333 -14.333 -28 -19s-22 -7 -34 -7s-23 2.33301 -33 7s-18.833 10.834 -26.5 18.501s-13.667 16.5 -18 26.5s-6.5 20.667 -6.5 32c0 12.667 2.5 24.5 7.5 35.5s11.5 20.5 19.5 28.5
s17.333 14.333 28 19s22 7 34 7c24 0 44 -8.5 60 -25.5s24 -36.833 24 -59.5z" />
    <glyph glyph-name="slash" unicode="/" horiz-adv-x="418" 
d="M117 0h-140l381 675h139z" />
    <glyph glyph-name="zero" unicode="0" 
d="M395 386c0 41.333 -6.66797 70.8311 -20.001 88.498s-32 26.5 -56 26.5c-23.333 0 -44.666 -8.66699 -63.999 -26s-36 -39.666 -50 -66.999s-24.833 -57.666 -32.5 -90.999s-11.5 -66.333 -11.5 -99c0 -42.667 6.66699 -73 20 -91s32.333 -27 57 -27
c23.333 0 44.666 8.5 63.999 25.5s35.833 39.167 49.5 66.5s24.334 58 32.001 92s11.5 68 11.5 102zM533.999 398.998c0 -53.333 -7.5 -104.666 -22.5 -153.999s-36.333 -93 -64 -131s-61 -68.5 -100 -91.5s-82.5 -34.5 -130.5 -34.5c-62 0 -110 17.667 -144 53
s-51 89.666 -51 162.999c0 50.667 7.5 100.5 22.5 149.5s36.167 92.667 63.5 131s60.5 69.166 99.5 92.499s82.5 35 130.5 35c61.333 0 109.333 -17.167 144 -51.5s52 -88.166 52 -161.499z" />
    <glyph glyph-name="one" unicode="1" 
d="M452 0h-427l22 117h161l66 341l-163 -98l-23 110l236 130h113l-94 -483h132z" />
    <glyph glyph-name="two" unicode="2" 
d="M491 454c0 -18 -3.00098 -36.502 -9.00098 -55.502s-16 -39.167 -30 -60.5s-32.833 -44 -56.5 -68s-53.167 -50.333 -88.5 -79l-86 -69l-2 -2c28 1.33301 61.333 2.33301 100 3s82.334 1 131.001 1l-24 -124h-418l20 108l102 83
c44.667 36.667 80.834 67.334 108.501 92.001s49 45.5 64 62.5s25 31.333 30 43s7.5 23.167 7.5 34.5c0 21.333 -6.16699 38 -18.5 50s-30.833 18 -55.5 18c-25.333 0 -49.5 -3.83301 -72.5 -11.5s-43.833 -17.167 -62.5 -28.5l-13 114c26 14 54.833 25.333 86.5 34
s63.5 13 95.5 13c35.333 0 65.166 -4.33301 89.499 -13s44 -20.167 59 -34.5s25.833 -31.166 32.5 -50.499s10 -39.333 10 -60z" />
    <glyph glyph-name="three" unicode="3" 
d="M491 462c0 -16 -2.82617 -32.3252 -8.49316 -48.9922s-14 -32.667 -25 -48s-25 -29.333 -42 -42s-36.833 -23 -59.5 -31l-2 -2c30 -5.33301 53.333 -19.833 70 -43.5s25 -51.834 25 -84.501c0 -30.667 -7.16699 -61.334 -21.5 -92.001s-35.5 -58.167 -63.5 -82.5
s-62.333 -44.166 -103 -59.499s-87.334 -23 -140.001 -23c-24.667 0 -47.834 1.66699 -69.501 5s-39.167 7.33301 -52.5 12l39 115c31.333 -12.667 66.333 -19 105 -19c22.667 0 43.667 3.16699 63 9.5s36.166 15.166 50.499 26.499s25.5 24.666 33.5 39.999s12 32 12 50
c0 25.333 -8.5 44.666 -25.5 57.999s-42.833 20 -77.5 20c-36.667 0 -66.334 -2 -89.001 -6l20 104h26c28 0 53.667 2.83301 77 8.5s43.333 13.667 60 24s29.667 22.666 39 36.999s14 30.5 14 48.5c0 19.333 -6.33301 34.666 -19 45.999s-33.334 17 -62.001 17
c-22 0 -43.5 -2.83301 -64.5 -8.5s-41.167 -13.834 -60.5 -24.501l-8 108c25.333 11.333 52.666 20.166 81.999 26.499s57.666 9.5 84.999 9.5c68 0 117 -13.5 147 -40.5s45 -63.5 45 -109.5z" />
    <glyph glyph-name="four" unicode="4" 
d="M340 468l-197.002 -273c8.66699 0.666992 19.834 1.16699 33.501 1.5s27.834 0.5 42.501 0.5h70l52 270zM479.998 80h-87l-32 -163h-129l32 163h-262l8 112l298 408h186l-79 -403h88z" />
    <glyph glyph-name="five" unicode="5" 
d="M488 475l-222.003 0.999023l-29 -127c8.66699 0.666992 16.667 1 24 1c34.667 0 64.5 -4.33301 89.5 -13s45.5 -20.5 61.5 -35.5s27.833 -32.5 35.5 -52.5s11.5 -41.333 11.5 -64c0 -40 -9.16699 -77.167 -27.5 -111.5s-42.666 -64 -72.999 -89
s-65.166 -44.5 -104.499 -58.5s-80 -21 -122 -21c-20 0 -40.667 1.16699 -62 3.5s-40.666 5.83301 -57.999 10.5l33 117c31.333 -10.667 65.333 -16 102 -16c24 0 46 3.66699 66 11s37.167 17.333 51.5 30s25.333 27.334 33 44.001s11.5 34.667 11.5 54
c0 28 -10.667 49.333 -32 64s-52 22 -92 22c-18 0 -35.667 -0.666992 -53 -2s-32.333 -3.33301 -45 -6l80 363h346z" />
    <glyph glyph-name="six" unicode="6" 
d="M359 246c0 23.333 -5.99902 41.835 -17.999 55.502s-29.667 20.5 -53 20.5c-16 0 -31 -3.66699 -45 -11s-26.5 -17.333 -37.5 -30s-19.667 -27 -26 -43s-9.5 -32.333 -9.5 -49c0 -26 5.66699 -47.167 17 -63.5s28.666 -24.5 51.999 -24.5c16 0 31.333 4 46 12
s27.5 18.667 38.5 32s19.667 28.666 26 45.999s9.5 35.666 9.5 54.999zM496.001 563.002c-13.333 3.33301 -25.8301 5.49902 -37.4971 6.49902s-23.834 1.5 -36.501 1.5c-46 0 -85.5 -13.333 -118.5 -40s-60.167 -63 -81.5 -109l-11 -25
c-4 -9.33301 -7.66699 -16.666 -11 -21.999h1c17.333 17.333 37.166 31.166 59.499 41.499s46.166 15.5 71.499 15.5c26.667 0 50.334 -4.16699 71.001 -12.5s38 -19.666 52 -33.999s24.667 -31.5 32 -51.5s11 -41.667 11 -65c0 -38 -7.33301 -74 -22 -108
s-34.5 -63.833 -59.5 -89.5s-54.333 -46 -88 -61s-69.5 -22.5 -107.5 -22.5c-58.667 0 -103.834 17.5 -135.501 52.5s-47.5 84.833 -47.5 149.5c0 56.667 8.83301 114.167 26.5 172.5s43.5 111.333 77.5 159s76 86.5 126 116.5s107.667 45 173 45
c15.333 0 29.833 -0.333008 43.5 -1s25.5 -1.66699 35.5 -3z" />
    <glyph glyph-name="seven" unicode="7" 
d="M528 488c-60 -87.333 -117.167 -180.334 -171.5 -279.001s-102.5 -196 -144.5 -292h-151c48.667 104.667 99.5 204.667 152.5 300s105.167 181 156.5 257c-8 0 -21 -0.166992 -39 -0.5s-39.167 -0.666016 -63.5 -0.999023s-50.833 -0.5 -79.5 -0.5h-87l26 128h423z" />
    <glyph glyph-name="eight" unicode="8" 
d="M344 190c0 18 -5.83398 34.168 -17.501 48.501s-30.167 29.5 -55.5 45.5c-32 -18.667 -58 -38.167 -78 -58.5s-30 -44.5 -30 -72.5c0 -16.667 5.83301 -31.334 17.5 -44.001s29.834 -19 54.501 -19c16 0 30.667 2.83301 44 8.5s24.833 13 34.5 22s17.167 19.5 22.5 31.5
s8 24.667 8 38zM397.999 531.001c0 15.333 -5.16699 28.668 -15.5 40.001s-26.5 17 -48.5 17c-28.667 0 -51.667 -9.33301 -69 -28s-26 -41.334 -26 -68.001c0 -15.333 5.16699 -29.5 15.5 -42.5s24.5 -25.833 42.5 -38.5c67.333 39.333 101 79.333 101 120z
M530.999 547.003c0 -22.667 -3.49707 -43.5039 -10.4971 -62.5039s-16.833 -36.333 -29.5 -52s-27.334 -30.167 -44.001 -43.5s-34.334 -25.666 -53.001 -36.999c28 -20.667 49.667 -42.667 65 -66s23 -49.666 23 -78.999c0 -32 -7 -61.5 -21 -88.5s-33.333 -50.333 -58 -70
s-53.334 -35 -86.001 -46s-67.667 -16.5 -105 -16.5c-32.667 0 -60.667 3.83301 -84 11.5s-42.5 18.167 -57.5 31.5s-26.167 29 -33.5 47s-11 37.333 -11 58c0 42 11.833 79.333 35.5 112s61.5 65 113.5 97c-23.333 18.667 -40.666 38.834 -51.999 60.501
s-17 43.834 -17 66.501c0 33.333 6.66699 63.666 20 90.999s31.166 50.5 53.499 69.5s48.333 33.667 78 44s61.167 15.5 94.5 15.5c31.333 0 58.333 -3.83301 81 -11.5s41.167 -18.167 55.5 -31.5s25 -28.666 32 -45.999s10.5 -35.333 10.5 -54z" />
    <glyph glyph-name="nine" unicode="9" 
d="M379 417c0 25.333 -5.83496 45.332 -17.502 59.999s-29.167 22 -52.5 22c-17.333 0 -33.166 -4 -47.499 -12s-26.666 -18.667 -36.999 -32s-18.5 -28.833 -24.5 -46.5s-9 -36.167 -9 -55.5c0 -23.333 6 -41.666 18 -54.999s29.667 -20 53 -20c14 0 28 3.33301 42 10
s26.5 16 37.5 28s20 26.5 27 43.5s10.5 36.167 10.5 57.5zM517.998 408.999c0 -28.667 -3.16602 -60.999 -9.49902 -96.999s-16.333 -72.5 -30 -109.5s-31.334 -73.167 -53.001 -108.5s-48.167 -66.833 -79.5 -94.5s-67.833 -49.834 -109.5 -66.501s-89.167 -25 -142.5 -25
c-14 0 -29.5 0.666992 -46.5 2s-32.167 3.33301 -45.5 6l32 117c11.333 -4 25 -7 41 -9s31.333 -3 46 -3c22.667 0 44.834 4.16699 66.501 12.5s41.834 19.666 60.501 33.999s35.167 31.333 49.5 51s26.166 40.834 35.499 63.501c2 5.33301 3.83301 11 5.5 17s3.5 11 5.5 15
h-1c-16.667 -16 -35.834 -28 -57.501 -36s-44.167 -12 -67.5 -12c-54 0 -94.667 14.833 -122 44.5s-41 69.5 -41 119.5c0 36 6.66699 70.833 20 104.5s32 63.667 56 90s52.667 47.5 86 63.5s70 24 110 24c62.667 0 110.167 -18.167 142.5 -54.5s48.5 -85.833 48.5 -148.5z
" />
    <glyph glyph-name="colon" unicode=":" horiz-adv-x="274" 
d="M196 78c0 -12.667 -2.5 -24.499 -7.5 -35.499s-11.5 -20.5 -19.5 -28.5s-17.333 -14.333 -28 -19s-22 -7 -34 -7s-23.167 2.33301 -33.5 7s-19.333 10.667 -27 18s-13.667 16 -18 26s-6.5 20.667 -6.5 32c0 12.667 2.5 24.5 7.5 35.5s11.5 20.667 19.5 29
s17.5 14.833 28.5 19.5s22.5 7 34.5 7s23 -2.33301 33 -7s18.833 -10.834 26.5 -18.501s13.667 -16.667 18 -27s6.5 -20.833 6.5 -31.5zM249 359.001c0 -26 -8.83301 -47.668 -26.5 -65.001s-38.5 -26 -62.5 -26c-12 0 -23.167 2.33301 -33.5 7s-19.333 10.667 -27 18
s-13.667 16 -18 26s-6.5 20.667 -6.5 32c0 12.667 2.5 24.667 7.5 36s11.667 21 20 29s17.833 14.333 28.5 19s22 7 34 7s23 -2.33301 33 -7s18.833 -10.667 26.5 -18s13.667 -16.166 18 -26.499s6.5 -20.833 6.5 -31.5z" />
    <glyph glyph-name="semicolon" unicode=";" horiz-adv-x="274" 
d="M111 158c16 0 30.667 -4.33594 44 -13.0029s23.5 -20.667 30.5 -36s10 -33.666 9 -54.999s-7.5 -44.333 -19.5 -69s-30.5 -50.834 -55.5 -78.501s-57.833 -55.5 -98.5 -83.5l-49 57c20.667 16.667 37 32.167 49 46.5s20.5 27.5 25.5 39.5s6.66699 23.333 5 34
s-5.83398 21.334 -12.501 32.001c-8 12 -12 25.333 -12 40s3.33301 28.334 10 41.001s16.334 23.334 29.001 32.001s27.667 13 45 13zM249 358.997c0 -26 -8.83301 -47.668 -26.5 -65.001s-38.5 -26 -62.5 -26c-12 0 -23.167 2.33301 -33.5 7s-19.333 10.667 -27 18
s-13.667 16 -18 26s-6.5 20.667 -6.5 32c0 12.667 2.5 24.667 7.5 36s11.667 21 20 29s17.833 14.333 28.5 19s22 7 34 7s23 -2.33301 33 -7s18.833 -10.667 26.5 -18s13.667 -16.166 18 -26.499s6.5 -20.833 6.5 -31.5z" />
    <glyph glyph-name="semicolon" unicode="&#x37e;" horiz-adv-x="274" 
d="M111 158c16 0 30.667 -4.33594 44 -13.0029s23.5 -20.667 30.5 -36s10 -33.666 9 -54.999s-7.5 -44.333 -19.5 -69s-30.5 -50.834 -55.5 -78.501s-57.833 -55.5 -98.5 -83.5l-49 57c20.667 16.667 37 32.167 49 46.5s20.5 27.5 25.5 39.5s6.66699 23.333 5 34
s-5.83398 21.334 -12.501 32.001c-8 12 -12 25.333 -12 40s3.33301 28.334 10 41.001s16.334 23.334 29.001 32.001s27.667 13 45 13zM249 358.997c0 -26 -8.83301 -47.668 -26.5 -65.001s-38.5 -26 -62.5 -26c-12 0 -23.167 2.33301 -33.5 7s-19.333 10.667 -27 18
s-13.667 16 -18 26s-6.5 20.667 -6.5 32c0 12.667 2.5 24.667 7.5 36s11.667 21 20 29s17.833 14.333 28.5 19s22 7 34 7s23 -2.33301 33 -7s18.833 -10.667 26.5 -18s13.667 -16.166 18 -26.499s6.5 -20.833 6.5 -31.5z" />
    <glyph glyph-name="less" unicode="&#x3c;" 
d="M210 246l218 -210l-95 -82l-290 301l382 291l75 -90z" />
    <glyph glyph-name="equal" unicode="=" 
d="M450 105h-417l20 104h417zM487 296h-417l21 106h417z" />
    <glyph glyph-name="greater" unicode="&#x3e;" 
d="M100 -45l-77 93l274 211l-199 207l94 82l276 -301z" />
    <glyph glyph-name="question" unicode="?" horiz-adv-x="430" 
d="M228 73c0 -24.667 -8.66797 -44.833 -26.001 -60.5s-37.666 -23.5 -60.999 -23.5s-42.166 7.5 -56.499 22.5s-21.5 32.167 -21.5 51.5c0 12.667 2.33301 24.167 7 34.5s11 19.333 19 27s17.167 13.667 27.5 18s21.5 6.5 33.5 6.5c23.333 0 42.166 -7.66699 56.499 -23
s21.5 -33 21.5 -53zM441.999 541.001c0 -30 -5.83301 -55.668 -17.5 -77.001s-26 -40.333 -43 -57s-35.333 -32.167 -55 -46.5s-37.5 -29.5 -53.5 -45.5s-28.833 -33.667 -38.5 -53s-12.834 -42.333 -9.50098 -69h-129c-4.66699 33.333 -3.16699 62 4.5 86
s18.834 45 33.501 63s31.167 34 49.5 48l52 40c16.333 12.667 30 25.667 41 39s16.5 28.666 16.5 45.999c0 28 -16.333 49.333 -49 64s-76 22.667 -130 24l37 120c50 -1.33301 93.333 -7.16602 130 -17.499s67 -23.833 91 -40.5s41.667 -35.667 53 -57
s17 -43.666 17 -66.999z" />
    <glyph glyph-name="at" unicode="@" horiz-adv-x="805" 
d="M444 424c-9.33301 3.33301 -21.001 5 -35.001 5s-26.167 -4.33301 -36.5 -13s-19 -19.5 -26 -32.5s-12.333 -27.167 -16 -42.5s-5.5 -30 -5.5 -44c0 -18 1.83301 -31 5.5 -39s10.167 -12 19.5 -12c16.667 0 32.834 12 48.501 36s28.5 60 38.5 108zM756.999 406
c0 -38.667 -5.33301 -73.6611 -16 -104.994s-25.667 -58 -45 -80s-42.5 -38.833 -69.5 -50.5s-56.5 -17.5 -88.5 -17.5c-28.667 0 -51.334 7.33301 -68.001 22s-24.667 34 -24 58h-3c-5.33301 -9.33301 -12 -18.833 -20 -28.5s-17.333 -18.334 -28 -26.001
s-22.334 -13.834 -35.001 -18.501s-26 -7 -40 -7c-30 0 -53 10.333 -69 31s-24 52.334 -24 95.001c0 31.333 4 60.833 12 88.5s20.5 52 37.5 73s38.667 37.667 65 50s57.833 18.5 94.5 18.5c19.333 0 39.5 -1.33301 60.5 -4s39.167 -6.33398 54.5 -11.001l-30 -166
c-5.33301 -30.667 -5.33301 -51.834 0 -63.501s16 -17.5 32 -17.5c24.667 0 45.834 12.5 63.501 37.5s26.5 62.5 26.5 112.5c0 24.667 -4 48.667 -12 72s-20.5 43.666 -37.5 60.999s-39 31.333 -66 42s-59.5 16 -97.5 16c-37.333 0 -72.5 -7.16699 -105.5 -21.5
s-61.667 -34.166 -86 -59.499s-43.5 -55.5 -57.5 -90.5s-21 -73.167 -21 -114.5c0 -35.333 4.83301 -68.333 14.5 -99s24.5 -57.334 44.5 -80.001s45.167 -40.667 75.5 -54s66.5 -20 108.5 -20c26.667 0 53.167 2 79.5 6s50.5 10 72.5 18l16 -98
c-25.333 -8.66699 -54.833 -15.334 -88.5 -20.001s-65.5 -7 -95.5 -7c-56 0 -105.5 9 -148.5 27s-79 42.5 -108 73.5s-50.833 67.333 -65.5 109s-22 86.167 -22 133.5c0 57.333 10.167 110.333 30.5 159s48.333 90.667 84 126s77.334 63 125.001 83s98.834 30 153.501 30
c50.667 0 96 -7.5 136 -22.5s73.667 -35.167 101 -60.5s48.166 -55.333 62.499 -90s21.5 -71.334 21.5 -110.001z" />
    <glyph glyph-name="A" unicode="A" horiz-adv-x="617" 
d="M370 404c-3.33301 18 -5.66699 36 -7 54l-4 56h-1c-7.33301 -18 -15.5 -36.833 -24.5 -56.5s-18.833 -39.5 -29.5 -59.5l-82 -154h173zM427.999 0l-19 133h-241l-69 -133h-143l358 675h156l106 -675h-148z" />
    <glyph glyph-name="B" unicode="B" horiz-adv-x="570" 
d="M385 226c0 45.333 -34 68.001 -102 68.001h-37c-12.667 0 -22.667 -0.333008 -30 -1l-33 -177c6.66699 -1.33301 15.5 -2.33301 26.5 -3s22.167 -1 33.5 -1c23.333 0 43.833 3.16699 61.5 9.5s32.5 14.666 44.5 24.999s21 22.333 27 36s9 28.167 9 43.5zM429 508.001
c0 18 -6.66602 32.167 -19.999 42.5s-36.333 15.5 -69 15.5c-14 0 -26.833 -0.166992 -38.5 -0.5s-22.834 -0.833008 -33.501 -1.5l-32 -165c7.33301 -0.666992 14.333 -1 21 -1h22c44 0 80 9.83301 108 29.5s42 46.5 42 80.5zM578.001 540.001
c0 -46 -12.667 -83.9961 -38 -113.996s-56 -53 -92 -69v-1c26.667 -6.66699 47.334 -21.334 62.001 -44.001s22 -48.334 22 -77.001c0 -32 -7 -62.333 -21 -91s-34 -53.834 -60 -75.501s-57.833 -38.834 -95.5 -51.501s-80.167 -19 -127.5 -19
c-23.333 0 -52.166 0.333008 -86.499 1s-73.833 1 -118.5 1l128 674c29.333 1.33301 64.666 2.5 105.999 3.5s80.666 1.5 117.999 1.5c64.667 0 114.667 -11.167 150 -33.5s53 -57.5 53 -105.5z" />
    <glyph glyph-name="C" unicode="C" horiz-adv-x="545" 
d="M543 533c-17.333 7.33301 -35.667 12.6699 -55 16.0029s-38 5 -56 5c-43.333 0 -79.666 -9.66699 -108.999 -29s-53 -43.833 -71 -73.5s-30.833 -62 -38.5 -97s-11.5 -68.167 -11.5 -99.5c0 -41.333 9.83301 -74.333 29.5 -99s54.834 -37 105.501 -37
c25.333 0 48.666 2 69.999 6s41.666 9.66699 60.999 17l6 -124c-25.333 -8 -53.5 -14.5 -84.5 -19.5s-61.5 -7.5 -91.5 -7.5c-49.333 0 -90.333 6.66699 -123 20s-58.667 31.166 -78 53.499s-32.833 47.666 -40.5 75.999s-11.5 57.5 -11.5 87.5
c0 56.667 8.5 112.167 25.5 166.5s42.167 102.666 75.5 144.999s75 76.333 125 102s108 38.5 174 38.5c27.333 0 53.833 -1.83301 79.5 -5.5s48.167 -8.5 67.5 -14.5z" />
    <glyph glyph-name="D" unicode="D" horiz-adv-x="649" 
d="M501 422c0 21.333 -2.66699 40.498 -8 57.498s-14 31.5 -26 43.5s-28 21.333 -48 28s-44.667 10 -74 10h-45c-12.667 0 -24 -0.666992 -34 -2l-83 -439c8 -1.33301 17.167 -2.33301 27.5 -3s19.833 -1 28.5 -1c48.667 0 89.667 10.167 123 30.5s60.333 45.833 81 76.5
s35.5 63.834 44.5 99.501s13.5 68.834 13.5 99.501zM648 434.998c0 -56.667 -8.83008 -111.331 -26.4971 -163.998s-44.334 -99.334 -80.001 -140.001s-80.334 -73.334 -134.001 -98.001s-116.5 -37 -188.5 -37c-40 0 -75.5 0.5 -106.5 1.5s-60.833 2.16699 -89.5 3.5
l128 673c26 1.33301 58.167 2.5 96.5 3.5s76.833 1.5 115.5 1.5c93.333 0 164.166 -20.5 212.499 -61.5s72.5 -101.833 72.5 -182.5z" />
    <glyph glyph-name="E" unicode="E" horiz-adv-x="480" 
d="M493 557h-227l-29 -153h216l-23 -114h-215l-32 -170h227l-23 -120h-364l128 675h364z" />
    <glyph glyph-name="F" unicode="F" horiz-adv-x="455" 
d="M486 556h-220l-31 -162h209l-23 -116h-208l-53 -278h-137l128 675h358z" />
    <glyph glyph-name="G" unicode="G" horiz-adv-x="656" 
d="M635 526c-25.333 10.667 -52.832 19 -82.499 25s-58.5 9 -86.5 9c-42 0 -79.833 -8.16699 -113.5 -24.5s-62.334 -38 -86.001 -65s-41.667 -58.167 -54 -93.5s-18.5 -72.333 -18.5 -111c0 -20 2.83301 -39 8.5 -57s14.667 -33.833 27 -47.5s28.5 -24.667 48.5 -33
s44.667 -12.5 74 -12.5c31.333 0 60.666 4 87.999 12l43 228h138l-62 -325c-35.333 -13.333 -73.333 -23.5 -114 -30.5s-80 -10.5 -118 -10.5c-49.333 0 -91.666 6.33301 -126.999 19s-64.5 30.334 -87.5 53.001s-40 49.667 -51 81s-16.5 66 -16.5 104
c0 62 10.667 119.667 32 173s51.333 99.666 90 138.999s84.5 70.166 137.5 92.499s111.5 33.5 175.5 33.5c34 0 67.667 -2.16699 101 -6.5s65 -11.166 95 -20.499z" />
    <glyph glyph-name="H" unicode="H" horiz-adv-x="670" 
d="M563 0h-137l55 288h-266l-55 -288h-137l128 675h137l-50 -266h265l51 266h138z" />
    <glyph glyph-name="I" unicode="I" horiz-adv-x="267" 
d="M160 0h-137l128 675h137z" />
    <glyph glyph-name="J" unicode="J" horiz-adv-x="329" 
d="M258 179c-4.66699 -25.333 -12.1689 -49.333 -22.502 -72s-24.166 -42.667 -41.499 -60s-38.666 -31 -63.999 -41s-55.666 -15 -90.999 -15c-18 0 -33.333 0.666992 -46 2s-24.667 3.33301 -36 6l24 120c15.333 -6.66699 32.666 -10 51.999 -10
c23.333 0 42.833 6.16699 58.5 18.5s26.5 34.833 32.5 67.5l91 480h137z" />
    <glyph glyph-name="K" unicode="K" horiz-adv-x="578" 
d="M359 339l162 -339h-171l-129 321l-61 -321h-137l128 675h137l-57 -303l241 303h175z" />
    <glyph glyph-name="L" unicode="L" horiz-adv-x="420" 
d="M369 0h-346l128 675h137l-105 -551h209z" />
    <glyph glyph-name="M" unicode="M" horiz-adv-x="860" 
d="M795 0l-149.002 -0.000976562l16 303c1.33301 30 2.83301 58.167 4.5 84.5s3.83398 51.833 6.50098 76.5h-2l-29.5 -72c-10.333 -24.667 -22.166 -50.667 -35.499 -78l-156 -314h-134l-36 289c-3.33301 28 -6 57.667 -8 89s-3 60 -3 86h-1
c-7.33301 -30 -15 -58.833 -23 -86.5s-16.667 -56.167 -26 -85.5l-92 -292h-143l232 675h159l41 -327c6 -47.333 9 -95.333 9 -144h2c10 26.667 19.833 50.834 29.5 72.501s21.167 45.5 34.5 71.5l167 327h158z" />
    <glyph glyph-name="N" unicode="N" horiz-adv-x="670" 
d="M563 0l-161.001 0.000976562l-118 317c-9.33301 25.333 -17.833 50.666 -25.5 75.999s-14.167 49.333 -19.5 72c-3.33301 -30 -7.33301 -59.167 -12 -87.5s-10 -58.166 -16 -89.499l-55 -288h-133l128 675h162l115 -297c10.667 -27.333 19.834 -54.833 27.501 -82.5
l22.5 -79.5c3.33301 29.333 7.83301 60.666 13.5 93.999l16.5 95l50 270h134z" />
    <glyph glyph-name="O" unicode="O" horiz-adv-x="689" 
d="M543 422c0 41.333 -10.166 74.667 -30.499 100s-52.166 38 -95.499 38c-34.667 0 -66 -8.5 -94 -25.5s-51.833 -39.5 -71.5 -67.5s-34.834 -60.167 -45.501 -96.5s-16 -73.5 -16 -111.5c0 -46 10.5 -81.333 31.5 -106s51.833 -37 92.5 -37c33.333 0 64 8.16699 92 24.5
s52.167 38.5 72.5 66.5s36.166 60.5 47.499 97.5s17 76.167 17 117.5zM690.001 439.001c0 -65.333 -10.499 -125.5 -31.499 -180.5s-49.5 -102.5 -85.5 -142.5s-78 -71.333 -126 -94s-99 -34 -153 -34c-86 0 -149.5 22 -190.5 66s-61.5 104.333 -61.5 181
c0 60.667 10.167 118.334 30.5 173.001s48.166 102.667 83.499 144s77.333 74.166 126 98.499s101 36.5 157 36.5c83.333 0 146 -21.667 188 -65s63 -104.333 63 -183z" />
    <glyph glyph-name="P" unicode="P" horiz-adv-x="522" 
d="M408 487c0 23.333 -6.99902 42.165 -20.999 56.498s-38 21.5 -72 21.5c-24.667 0 -40.667 -0.333008 -48 -1l-40 -213c5.33301 -1.33301 10.666 -2.16602 15.999 -2.49902s10.666 -0.5 15.999 -0.5c20.667 0 40 3.66699 58 11s33.833 17.333 47.5 30
s24.334 27.334 32.001 44.001s11.5 34.667 11.5 54zM552.001 504.999c0 -38 -7.83203 -73.668 -23.499 -107.001s-37.334 -62.333 -65.001 -87s-60.167 -44.167 -97.5 -58.5s-77.333 -21.5 -120 -21.5c-20.667 0 -34.667 0.333008 -42 1l-44 -232h-137l128 675
c28 1.33301 57.333 2.33301 88 3s63.667 1 99 1c66 0 118.167 -14.667 156.5 -44s57.5 -72.666 57.5 -129.999z" />
    <glyph glyph-name="Q" unicode="Q" horiz-adv-x="689" 
d="M543 422c0 41.333 -10.166 74.667 -30.499 100s-52.166 38 -95.499 38c-34.667 0 -66 -8.5 -94 -25.5s-51.833 -39.5 -71.5 -67.5s-34.834 -60.167 -45.501 -96.5s-16 -73.5 -16 -111.5c0 -46 10.5 -81.333 31.5 -106s51.833 -37 92.5 -37c33.333 0 64 8.16699 92 24.5
s52.167 38.5 72.5 66.5s36.166 60.5 47.499 97.5s17 76.167 17 117.5zM605.001 -203.999c-31.333 -5.33301 -59.166 -7.83398 -83.499 -7.50098s-46.5 2 -66.5 5s-38.833 6.66699 -56.5 11s-35.667 8.33301 -54 12s-37.833 6.16699 -58.5 7.5s-44 0.333008 -70 -3l22 119
c30 4 56.5 5.5 79.5 4.5s44.167 -3.16699 63.5 -6.5s37.666 -7.16602 54.999 -11.499s35.5 -8 54.5 -11s39.5 -4.83301 61.5 -5.5s47.333 1 76 5zM690.001 439c0 -65.333 -10.498 -125.5 -31.498 -180.5s-49.5 -102.5 -85.5 -142.5s-78 -71.333 -126 -94s-99 -34 -153 -34
c-86 0 -149.5 22 -190.5 66s-61.5 104.333 -61.5 181c0 61.333 10 119.333 30 174s47.5 102.667 82.5 144s76.667 74 125 98s101.166 36 158.499 36c83.333 0 146.166 -21.667 188.499 -65s63.5 -104.333 63.5 -183z" />
    <glyph glyph-name="R" unicode="R" horiz-adv-x="559" 
d="M413 497c0 22 -7.16797 38.832 -21.501 50.499s-37.833 17.5 -70.5 17.5c-11.333 0 -21.666 -0.166992 -30.999 -0.5s-17 -1.16602 -23 -2.49902l-35 -186c4.66699 -0.666992 10.167 -1.16699 16.5 -1.5s14.5 -0.5 24.5 -0.5c20.667 0 39.5 3 56.5 9s31.667 14.5 44 25.5
s22 24 29 39s10.5 31.5 10.5 49.5zM559.999 522.999c0 -29.333 -4.83301 -56.5 -14.5 -81.5s-23.167 -47.333 -40.5 -67s-38 -36.5 -62 -50.5s-50.333 -24.667 -79 -32l37 -74l100 -218h-163l-112 273h-14l-52 -273h-137l128 675c27.333 1.33301 57.166 2.33301 89.499 3
s66.833 1 103.5 1c74.667 0 129.334 -13.5 164.001 -40.5s52 -65.5 52 -115.5z" />
    <glyph glyph-name="S" unicode="S" horiz-adv-x="462" 
d="M440 555c-14 5.33301 -29.166 9.16602 -45.499 11.499s-31.5 3.5 -45.5 3.5c-41.333 0 -71 -8.33301 -89 -25s-27 -35.667 -27 -57c0 -16 4.66699 -29.833 14 -41.5s21.166 -22.667 35.499 -33s29.833 -20.833 46.5 -31.5s32.167 -23 46.5 -37s26.166 -30.5 35.499 -49.5
s14 -42.167 14 -69.5c0 -33.333 -7 -64.333 -21 -93s-33.667 -53.834 -59 -75.501s-55.333 -38.667 -90 -51s-73 -18.5 -115 -18.5c-22.667 0 -45.667 1.33301 -69 4s-44.333 6 -63 10l34 130c16.667 -6 34.167 -10.833 52.5 -14.5s36.5 -5.5 54.5 -5.5
c41.333 0 72.5 7.83301 93.5 23.5s31.5 37.834 31.5 66.501c0 15.333 -4.66699 28.666 -14 39.999s-21 21.833 -35 31.5s-29.333 19.667 -46 30s-32 22.333 -46 36s-25.667 29.834 -35 48.501s-14 41.334 -14 68.001c0 31.333 5.66699 61 17 89s28.166 52.5 50.499 73.5
s50.333 37.667 84 50s73.167 18.5 118.5 18.5c20.667 0 40.834 -0.833008 60.501 -2.5s38.834 -4.5 57.501 -8.5z" />
    <glyph glyph-name="T" unicode="T" horiz-adv-x="498" 
d="M548 555h-166l-106 -555h-137l106 554l-166 1l23 120h468z" />
    <glyph glyph-name="U" unicode="U" horiz-adv-x="664" 
d="M604 248c-17.333 -89.333 -53.333 -155.003 -108 -197.003s-125 -63 -211 -63c-51.333 0 -92.666 6.83301 -123.999 20.5s-54.833 32.334 -70.5 56.001s-24.834 51.334 -27.501 83.001s-0.333984 65.834 6.99902 102.501l80 425h138l-84 -436
c-8.66699 -44 -5.5 -77.333 9.5 -100s45.5 -34 91.5 -34c48 0 84.833 12 110.5 36s43.834 63.333 54.501 118l80 416h136z" />
    <glyph glyph-name="V" unicode="V" horiz-adv-x="619" 
d="M346 0l-159 0.000976562l-100 675h145l52 -385c2.66699 -18.667 5 -38.834 7 -60.501s3.66699 -44.5 5 -68.5h2l13.5 32.5c4.33301 10.333 9 20.833 14 31.5l16.5 34l20 40l196 376h146z" />
    <glyph glyph-name="W" unicode="W" horiz-adv-x="933" 
d="M702 0l-167.999 -0.00195312l-20 311v184c-24.667 -70.667 -42 -117.667 -52 -141l-157 -354h-160l-37 675h140l19 -356c1.33301 -22 1.5 -44.667 0.5 -68s-2.5 -46.666 -4.5 -69.999h1l24 68c8 22.667 17 45 27 67l163 359h145l29 -355
c1.33301 -19.333 2.16602 -40.666 2.49902 -63.999s-0.5 -47.333 -2.5 -72h1c8 24.667 16 48 24 70s16.667 43.667 26 65l151 356h144z" />
    <glyph glyph-name="X" unicode="X" horiz-adv-x="623" 
d="M420 341l150 -341h-166l-91 240l-181 -240h-167l277 348l-133 327h153l86 -227l169 227h162z" />
    <glyph glyph-name="Y" unicode="Y" horiz-adv-x="556" 
d="M348 238l-45 -238h-137l45 237l-124 438h145l47 -185c5.33301 -20 9.83301 -39.167 13.5 -57.5l10.5 -53.5h2c10 19.333 21.667 39.5 35 60.5l40 63.5l110 172h152z" />
    <glyph glyph-name="Z" unicode="Z" horiz-adv-x="520" 
d="M538 562l-304.001 -391c-11.333 -14 -23.666 -28.333 -36.999 -43c51.333 1.33301 97 2 137 2h126l-24 -130h-435l21 109l291 383c8 10.667 16.167 20.667 24.5 30l26.5 29c-18 -0.666992 -37.167 -1.16699 -57.5 -1.5s-38.5 -0.5 -54.5 -0.5h-138l23 126h422z" />
    <glyph glyph-name="bracketleft" unicode="[" horiz-adv-x="323" 
d="M373 669h-94l-146 -764h94l-20 -111h-222l188 985h221z" />
    <glyph glyph-name="backslash" unicode="\" horiz-adv-x="407" 
d="M229 0l-130 675h123l131 -675h-124z" />
    <glyph glyph-name="bracketright" unicode="]" horiz-adv-x="323" 
d="M176 -206h-222l20 111h95l146 764h-95l21 110h222z" />
    <glyph glyph-name="asciicircum" unicode="^" 
d="M408 334l-85 245l-165 -245l-82 47l213 294h101l118 -292z" />
    <glyph glyph-name="underscore" unicode="_" 
d="M-90 -252l22 111h550l-22 -111h-550z" />
    <glyph glyph-name="grave" unicode="`" horiz-adv-x="367" 
d="M318 559l-188 94l58 96l179 -110z" />
    <glyph glyph-name="a" unicode="a" horiz-adv-x="543" 
d="M377 392c-7.33301 2 -15.166 3.66504 -23.499 4.99805s-17.833 2 -28.5 2c-26.667 0 -49.834 -7.16699 -69.501 -21.5s-36 -32.666 -49 -54.999s-22.667 -47 -29 -74s-9.5 -52.833 -9.5 -77.5c0 -22.667 2.83301 -39 8.5 -49s14.167 -15 25.5 -15
c16 0 33.167 8.5 51.5 25.5s35.5 38.333 51.5 64s30.167 53.334 42.5 83.001s20.5 57.167 24.5 82.5zM531 490.998l-29 -148.998l-24.5 -128c-7.66699 -40 -14.5 -77.5 -20.5 -112.5l-17 -101.5h-133c4.66699 19.333 10.5 40.666 17.5 63.999s15.833 50.666 26.5 81.999h-2
c-10 -18 -21.833 -36.333 -35.5 -55s-29 -35.5 -46 -50.5s-35.5 -27.333 -55.5 -37s-41.667 -14.5 -65 -14.5c-38.667 0 -68.167 12.5 -88.5 37.5s-30.5 64.5 -30.5 118.5c0 47.333 6.5 92.833 19.5 136.5s32.667 82.167 59 115.5s59.666 60 99.999 80s87.833 30 142.5 30
c30.667 0 61.334 -1.33301 92.001 -4s60.667 -6.66699 90 -12z" />
    <glyph glyph-name="b" unicode="b" horiz-adv-x="543" 
d="M387 326c0 22.667 -3 39.0029 -9 49.0029s-14.667 15 -26 15c-16 0 -33 -8.5 -51 -25.5s-35 -38.333 -51 -64s-30 -53.334 -42 -83.001s-20.333 -56.834 -25 -81.501l-6 -31c7.33301 -2 15.166 -3.66699 23.499 -5s17.833 -2 28.5 -2
c26.667 0 49.834 7.16699 69.501 21.5s36 32.666 49 54.999s22.833 47 29.5 74s10 52.833 10 77.5zM526 352.003c0 -47.333 -6.5 -92.833 -19.5 -136.5s-32.833 -82.167 -59.5 -115.5s-60 -60 -100 -80s-87.333 -30 -142 -30c-34 0 -65.667 1.66699 -95 5s-58 8 -86 14
l137 721h135l-39 -204c-4.66699 -23.333 -11 -48.5 -19 -75.5s-19.667 -60.5 -35 -100.5h2c25.333 47.333 54.833 85.5 88.5 114.5s71.5 43.5 113.5 43.5c39.333 0 69 -12.5 89 -37.5s30 -64.5 30 -118.5z" />
    <glyph glyph-name="c" unicode="c" horiz-adv-x="412" 
d="M394 373c-25.333 12 -51.001 17.998 -77.001 17.998c-24.667 0 -46 -6.16699 -64 -18.5s-33 -28 -45 -47s-20.833 -40.167 -26.5 -63.5s-8.5 -46 -8.5 -68c0 -23.333 6 -43.166 18 -59.499s34 -24.5 66 -24.5c16 0 32.333 2 49 6s32.334 9.66699 47.001 17l7 -116
c-19.333 -7.33301 -41.666 -13.833 -66.999 -19.5s-50.666 -8.5 -75.999 -8.5c-33.333 0 -61.833 4.16699 -85.5 12.5s-43 20 -58 35s-26 33.333 -33 55s-10.5 45.834 -10.5 72.501c0 47.333 6.83301 91.833 20.5 133.5s33.167 78 58.5 109s56.166 55.5 92.499 73.5
s77.166 27 122.499 27c18 0 37 -1.66699 57 -5s38.667 -8.33301 56 -15z" />
    <glyph glyph-name="d" unicode="d" horiz-adv-x="543" 
d="M377 392c-7.33301 2 -15.166 3.66504 -23.499 4.99805s-17.833 2 -28.5 2c-26.667 0 -49.834 -7.16699 -69.501 -21.5s-36 -32.666 -49 -54.999s-22.667 -47 -29 -74s-9.5 -52.833 -9.5 -77.5c0 -22.667 2.83301 -39 8.5 -49s14.167 -15 25.5 -15
c16 0 33.167 8.5 51.5 25.5s35.5 38.333 51.5 64s30.167 53.334 42.5 83.001s20.5 57.167 24.5 82.5zM472 178.998c-2.66699 -12.667 -5.33105 -26.999 -7.99805 -42.999s-5.5 -32 -8.5 -48l-8.5 -47l-7 -41h-132c3.33301 19.333 8.66602 40.666 15.999 63.999l27 82h-2
c-10 -18 -21.833 -36.333 -35.5 -55s-29 -35.5 -46 -50.5s-35.5 -27.333 -55.5 -37s-41.667 -14.5 -65 -14.5c-38.667 0 -68.167 12.5 -88.5 37.5s-30.5 64.5 -30.5 118.5c0 47.333 6.5 92.833 19.5 136.5s32.667 82.167 59 115.5s59.666 60 99.999 80s87.833 30 142.5 30
c7.33301 0 14.833 -0.333008 22.5 -1s16.5 -1.66699 26.5 -3l43 227h136z" />
    <glyph glyph-name="e" unicode="e" horiz-adv-x="487" 
d="M346 366c0 12.667 -4.16797 22.501 -12.501 29.501s-19.833 10.5 -34.5 10.5c-15.333 0 -29.166 -3.33301 -41.499 -10s-23.333 -15.334 -33 -26.001s-18 -23.167 -25 -37.5s-12.5 -28.833 -16.5 -43.5c52.667 1.33301 93 8 121 20s42 31 42 57zM477.999 384.001
c0 -30.667 -7.16699 -57.3311 -21.5 -79.998s-35 -41.5 -62 -56.5s-59.5 -26.5 -97.5 -34.5s-81 -12.667 -129 -14c-0.666992 -5.33301 -1.16699 -11.166 -1.5 -17.499s-0.5 -11.833 -0.5 -16.5c0 -26 6.16699 -43.833 18.5 -53.5s35.166 -14.5 68.499 -14.5
c23.333 0 47.5 2.66699 72.5 8s49.167 12.666 72.5 21.999v-105c-28 -10.667 -58.167 -18.667 -90.5 -24s-65.166 -8 -98.499 -8c-32.667 0 -60.334 3.66699 -83.001 11s-41.167 18.166 -55.5 32.499s-24.666 32.166 -30.999 53.499s-9.5 45.666 -9.5 72.999
c0 52.667 7.66699 100.5 23 143.5s36 79.5 62 109.5s56 53.167 90 69.5s70 24.5 108 24.5c32 0 58.667 -3.66699 80 -11s38.333 -16.666 51 -27.999s21.5 -24.5 26.5 -39.5s7.5 -29.833 7.5 -44.5z" />
    <glyph glyph-name="f" unicode="f" horiz-adv-x="349" 
d="M434 619c-9.33301 2 -19.001 3.83301 -29.001 5.5s-19.333 2.5 -28 2.5c-27.333 0 -48 -7.16699 -62 -21.5s-24.333 -39.5 -31 -75.5l-6 -33h107l-21 -106h-108l-76 -407c-15.333 -80 -42.833 -138.5 -82.5 -175.5s-90.834 -55.5 -153.501 -55.5c-30 0 -59 3 -87 9
l32 113c8.66699 -2 18 -3.66699 28 -5s19 -2 27 -2c12.667 0 24.334 1.66699 35.001 5s20 9.33301 28 18s15 20.667 21 36s11.333 34.666 16 57.999l77 406h-81l22 106h81l6 37c11.333 66.667 35.333 117.334 72 152.001s91 52 163 52c13.333 0 26.833 -0.5 40.5 -1.5
s26.834 -3.16699 39.501 -6.5z" />
    <glyph glyph-name="g" unicode="g" horiz-adv-x="540" 
d="M377 392c-7.33301 2 -15.166 3.66504 -23.499 4.99805s-17.833 2 -28.5 2c-26.667 0 -49.834 -7.16699 -69.501 -21.5s-36 -32.666 -49 -54.999s-22.667 -47 -29 -74s-9.5 -52.833 -9.5 -77.5c0 -22.667 2.83301 -39 8.5 -49s14.167 -15 25.5 -15
c16 0 33.167 8.5 51.5 25.5s35.5 38.333 51.5 64s30.167 53.334 42.5 83.001s20.5 57.167 24.5 82.5zM431 -27.002c-6.66699 -35.333 -17.499 -66.833 -32.499 -94.5s-35 -51 -60 -70s-55.5 -33.333 -91.5 -43s-78.333 -14.5 -127 -14.5c-28.667 0 -55.334 2 -80.001 6
s-47 9.33301 -67 16l31 125c20.667 -10 43 -17.5 67 -22.5s47.667 -7.5 71 -7.5c46 0 82.167 9.16699 108.5 27.5s43.5 48.5 51.5 90.5l8 36.5c2.66699 11.667 6 23.5 10 35.5l13 38.5l17 47.5l-2 1c-10 -18 -21.667 -36.167 -35 -54.5s-28.5 -35 -45.5 -50
s-35.5 -27.333 -55.5 -37s-41.667 -14.5 -65 -14.5c-38.667 0 -68.167 12.5 -88.5 37.5s-30.5 64.5 -30.5 118.5c0 47.333 6.5 92.833 19.5 136.5s32.667 82.167 59 115.5s59.666 60 99.999 80s87.833 30 142.5 30c30.667 0 61.334 -1.33301 92.001 -4
s60.667 -6.66699 90 -12z" />
    <glyph glyph-name="h" unicode="h" horiz-adv-x="558" 
d="M452 0h-135.001l60 310c5.33301 28.667 5.83301 49.167 1.5 61.5s-13.833 18.5 -28.5 18.5c-15.333 0 -31.666 -8.16699 -48.999 -24.5s-34 -37.166 -50 -62.499s-30.333 -53.333 -43 -84s-21.667 -60.334 -27 -89.001l-24 -130h-135l139 730h135l-38 -204
c-4 -22.667 -10.333 -47.5 -19 -74.5s-20.334 -59.5 -35.001 -97.5l2 -1c11.333 20.667 24 40.5 38 59.5s29.5 35.5 46.5 49.5s35.333 25.167 55 33.5s41.167 12.5 64.5 12.5c24 0 44 -4 60 -12s28.333 -19.333 37 -34s13.834 -32 15.501 -52s0.166992 -42 -4.5 -66z" />
    <glyph glyph-name="i" unicode="i" horiz-adv-x="264" 
d="M157 0h-135l91 476l4 21h135zM297 654c0 -13.333 -2.5 -25.502 -7.5 -36.502s-11.833 -20.5 -20.5 -28.5s-18.334 -14.167 -29.001 -18.5s-22 -6.5 -34 -6.5c-23.333 0 -42.333 7.83301 -57 23.5s-22 33.5 -22 53.5c0 12.667 2.5 24.334 7.5 35.001s11.833 20 20.5 28
s18.334 14.167 29.001 18.5s22 6.5 34 6.5c22.667 0 41.5 -7.66699 56.5 -23s22.5 -32.666 22.5 -51.999z" />
    <glyph glyph-name="j" unicode="j" horiz-adv-x="267" 
d="M154 -36c-6 -32.667 -14.832 -62.001 -26.499 -88.001s-26.834 -48.167 -45.501 -66.5s-41.334 -32.333 -68.001 -42s-58 -14.5 -94 -14.5c-12 0 -24 0.833008 -36 2.5s-22.667 3.83398 -32 6.50098l28 117c8.66699 -3.33301 17.834 -5.83301 27.501 -7.5
s18.167 -2.5 25.5 -2.5c25.333 0 44.333 7.83301 57 23.5s23 43.5 31 83.5l98 500l3 21h134zM299.001 653.999c0 -13.333 -2.50098 -25.502 -7.50098 -36.502s-11.667 -20.5 -20 -28.5s-18 -14.167 -29 -18.5s-22.167 -6.5 -33.5 -6.5c-24 0 -43.333 7.83301 -58 23.5
s-22 33.5 -22 53.5c0 12.667 2.5 24.334 7.5 35.001s11.833 20 20.5 28s18.334 14.167 29.001 18.5s22 6.5 34 6.5c22.667 0 41.5 -7.66699 56.5 -23s22.5 -32.666 22.5 -51.999z" />
    <glyph glyph-name="k" unicode="k" horiz-adv-x="511" 
d="M336 267l128 -267h-163l-97 246l-47 -246h-135l139 730h135l-83 -434l211 231l107 -69z" />
    <glyph glyph-name="l" unicode="l" horiz-adv-x="263" 
d="M157 0h-135l139 730h135z" />
    <glyph glyph-name="m" unicode="m" horiz-adv-x="847" 
d="M741 0l-135.005 0.00195312l60 310c5.33301 28.667 5.83301 49.167 1.5 61.5s-13.166 18.5 -26.499 18.5c-14.667 0 -30.667 -7.83301 -48 -23.5s-34 -36 -50 -61s-30.333 -52.833 -43 -83.5s-21.667 -61 -27 -91l-24 -131h-135l60 310
c5.33301 28.667 5.83301 49.167 1.5 61.5s-13.166 18.5 -26.499 18.5c-14.667 0 -30.667 -7.83301 -48 -23.5s-34 -36 -50 -61s-30.333 -53 -43 -84s-21.667 -61.5 -27 -91.5l-24 -130h-135l50 260l10 53.5l12 64.5l11.5 64.5c3.66699 21 6.5 39.167 8.5 54.5h132
c-2.66699 -15.333 -7.33398 -34.5 -14.001 -57.5s-16 -51.5 -28 -85.5l2 -1c11.333 20.667 23.833 40.5 37.5 59.5s28.834 35.5 45.501 49.5s34.834 25.167 54.501 33.5s40.834 12.5 63.501 12.5c30 0 54.5 -8 73.5 -24s28.5 -40.333 28.5 -73
c0 -8.66699 -1.16699 -17.5 -3.5 -26.5s-5.5 -20.5 -9.5 -34.5l2 -1c11.333 22 24 42.667 38 62s29.333 36.166 46 50.499s34.834 25.666 54.501 33.999s41.167 12.5 64.5 12.5c24 0 43.833 -4 59.5 -12s27.667 -19.333 36 -34s13.333 -32 15 -52s0.166992 -42 -4.5 -66z
" />
    <glyph glyph-name="n" unicode="n" horiz-adv-x="558" 
d="M452 0l-135.002 0.000976562l60 310c5.33301 28.667 5.83301 49.167 1.5 61.5s-13.833 18.5 -28.5 18.5c-15.333 0 -31.666 -8.16699 -48.999 -24.5s-34 -37.166 -50 -62.499s-30.333 -53.333 -43 -84s-21.667 -60.334 -27 -89.001l-24 -130h-135l50 260l11 58.5l11.5 63
l10.5 61.5l9 54h132c-2.66699 -14.667 -7.16699 -33.334 -13.5 -56.001s-15.833 -51.667 -28.5 -87l2 -1c11.333 20.667 24 40.5 38 59.5s29.5 35.5 46.5 49.5s35.333 25.167 55 33.5s41.167 12.5 64.5 12.5c24 0 44 -4 60 -12s28.333 -19.333 37 -34s13.834 -32 15.501 -52
s0.166992 -42 -4.5 -66z" />
    <glyph glyph-name="o" unicode="o" horiz-adv-x="547" 
d="M387 308c0 26.667 -5.83398 47 -17.501 61s-31.167 21 -58.5 21c-22 0 -41.667 -6.16699 -59 -18.5s-32 -28.166 -44 -47.499s-21.167 -40.833 -27.5 -64.5s-9.5 -46.834 -9.5 -69.501c0 -25.333 5.33301 -45.333 16 -60s29.667 -22 57 -22c22 0 41.667 5.66699 59 17
s32.333 26.333 45 45s22.334 40 29.001 64s10 48.667 10 74zM528.999 326c0 -51.333 -8.33691 -97.668 -25.0039 -139.001s-39 -76.666 -67 -105.999s-60.167 -51.833 -96.5 -67.5s-74.166 -23.5 -113.499 -23.5c-71.333 0 -122.166 15.667 -152.499 47s-45.5 75 -45.5 131
c0 52.667 8.33301 100 25 142s38.834 77.5 66.501 106.5s59.834 51.333 96.501 67s75 23.5 115 23.5c36 0 66.5 -4.5 91.5 -13.5s45.333 -21.5 61 -37.5s27 -35.167 34 -57.5s10.5 -46.5 10.5 -72.5z" />
    <glyph glyph-name="p" unicode="p" horiz-adv-x="543" 
d="M387 326c0 22.667 -2.99805 39.002 -8.99805 49.002s-14.667 15 -26 15c-10.667 0 -22 -4 -34 -12s-23.667 -18.667 -35 -32s-22.5 -28.5 -33.5 -45.5s-20.833 -35 -29.5 -54s-16.334 -38 -23.001 -57s-11.334 -36.833 -14.001 -53.5l-5 -29
c7.33301 -2.66699 15.5 -4.83398 24.5 -6.50098s18.167 -2.5 27.5 -2.5c26 0 48.833 7.16699 68.5 21.5s36 32.666 49 54.999s22.833 47 29.5 74s10 52.833 10 77.5zM526.002 352.002c0 -47.333 -6.50098 -92.668 -19.501 -136.001s-32.833 -81.666 -59.5 -114.999
s-60 -60 -100 -80s-87.333 -30 -142 -30c-8 0 -15.833 0.166992 -23.5 0.5s-16.5 1.16602 -26.5 2.49902l-43 -233h-135l95 498l11 60.5l12 64c4 21 7.66699 41.333 11 61s6 37.167 8 52.5h133c-4 -19.333 -9.33301 -39.666 -16 -60.999l-27 -84h2
c24.667 46 53.834 83.5 87.501 112.5s71.5 43.5 113.5 43.5c39.333 0 69 -12.5 89 -37.5s30 -64.5 30 -118.5z" />
    <glyph glyph-name="q" unicode="q" horiz-adv-x="543" 
d="M377 392c-7.33301 2 -15.166 3.66504 -23.499 4.99805s-17.833 2 -28.5 2c-26.667 0 -49.834 -7.16699 -69.501 -21.5s-36 -32.666 -49 -54.999s-22.667 -47 -29 -74s-9.5 -52.833 -9.5 -77.5c0 -22.667 2.83301 -39 8.5 -49s14.167 -15 25.5 -15
c16 0 33.167 8.5 51.5 25.5s35.5 38.333 51.5 64s30.167 53.334 42.5 83.001s20.5 57.167 24.5 82.5zM392 -239.002h-135l38 198c6 30.667 13 60 21 88s19.667 61 35 99h-2c-10 -18 -21.833 -36.333 -35.5 -55s-29 -35.5 -46 -50.5s-35.5 -27.333 -55.5 -37
s-41.667 -14.5 -65 -14.5c-38.667 0 -68.167 12.5 -88.5 37.5s-30.5 64.5 -30.5 118.5c0 47.333 6.5 92.833 19.5 136.5s32.667 82.167 59 115.5s59.666 60 99.999 80s87.833 30 142.5 30c30.667 0 61.334 -1.5 92.001 -4.5s60.667 -7.16699 90 -12.5z" />
    <glyph glyph-name="r" unicode="r" horiz-adv-x="365" 
d="M377 375c-20.667 6 -41.3359 3.50195 -62.0029 -7.49805s-39.667 -28.5 -57 -52.5s-33.166 -53.667 -47.499 -89s-25.5 -75 -33.5 -119l-20 -107h-135l50 260l11 56.5c4 21 7.83301 42.167 11.5 63.5l11 63c3.66699 20.667 6.5 38.667 8.5 54h131
c-3.33301 -18.667 -8.16602 -39 -14.499 -61s-15.166 -48.667 -26.499 -80h2c12.667 25.333 25.834 48.166 39.501 68.499s28.667 37.166 45 50.499s33.666 23 51.999 29s39.5 7 63.5 3z" />
    <glyph glyph-name="s" unicode="s" horiz-adv-x="376" 
d="M338 396c-20 6.66699 -41.665 9.99902 -64.998 9.99902c-24 0 -41.833 -4.33301 -53.5 -13s-17.5 -20.667 -17.5 -36c0 -14 6.5 -27 19.5 -39l42.5 -39c15.333 -14 29.5 -30.333 42.5 -49s19.5 -41.667 19.5 -69c0 -20.667 -4.66699 -41.167 -14 -61.5
s-23.5 -38.666 -42.5 -54.999s-43 -29.5 -72 -39.5s-63.167 -15 -102.5 -15c-16.667 0 -32.334 0.666992 -47.001 2s-28.667 3 -42 5l26 115c11.333 -4 23.666 -7.33301 36.999 -10s26 -4 38 -4c23.333 0 41.833 4.33301 55.5 13s20.5 21 20.5 37s-6.33301 29.667 -19 41
l-42 37c-15.333 13.333 -29.333 29 -42 47s-19 41.667 -19 71c0 22.667 4.5 44 13.5 64s22.5 37.333 40.5 52s40.667 26.167 68 34.5s59.333 12.5 96 12.5c30.667 0 58.667 -2 84 -6z" />
    <glyph glyph-name="t" unicode="t" horiz-adv-x="368" 
d="M366 391h-112l-41 -215c-5.33301 -28 -5.33301 -46.833 0 -56.5s17.666 -14.5 36.999 -14.5c12 0 22.667 0.666992 32 2s18.666 3 27.999 5l-14 -109c-17.333 -4 -35.166 -7.16699 -53.499 -9.5s-35.166 -3.5 -50.499 -3.5c-54 0 -89.667 13.5 -107 40.5
s-20.333 70.833 -9 131.5l43 229h-81l22 106h79l29 151l140 27l-34 -178h113z" />
    <glyph glyph-name="u" unicode="u" horiz-adv-x="557" 
d="M497 237c-3.33301 -16 -7.00098 -34.665 -11.001 -55.998l-12 -64.5c-4 -21.667 -7.66699 -42.834 -11 -63.501s-6.33301 -38.334 -9 -53.001h-132c3.33301 14.667 8 33.334 14 56.001s15.333 51.667 28 87l-2 1c-11.333 -21.333 -24 -41.333 -38 -60
s-29.333 -35 -46 -49s-35 -25.167 -55 -33.5s-41.667 -12.5 -65 -12.5c-24 0 -44 4.16699 -60 12.5s-28.167 19.666 -36.5 33.999s-13.333 31.5 -15 51.5s-0.166992 42 4.5 66l65 344h135l-59 -310c-5.33301 -28.667 -5.83301 -49.167 -1.5 -61.5s13.5 -18.5 27.5 -18.5
c14.667 0 30.834 8.16699 48.501 24.5s34.5 37.166 50.5 62.499s30.333 53.333 43 84s21.667 60.334 27 89.001l25 130h135z" />
    <glyph glyph-name="v" unicode="v" horiz-adv-x="497" 
d="M282 0h-142l-79 459l-6 38h143l30 -196c3.33301 -20.667 5.83301 -41.5 7.5 -62.5s3.16699 -41.5 4.5 -61.5h2l166 342l132 -39z" />
    <glyph glyph-name="w" unicode="w" horiz-adv-x="783" 
d="M584 0h-152.001l-24 196c-2 17.333 -3.66699 35.5 -5 54.5s-2 39.167 -2 60.5h-1l-17 -36.5l-27 -57.5l-32 -67l-31.5 -66l-25.5 -54c-7.33301 -15.333 -12.333 -25.333 -15 -30h-137l-48 458l-4 39h141l14 -168c2 -24.667 3.83301 -49.667 5.5 -75
s2.83398 -51 3.50098 -77h1l15 33.5l26 56.5l32 68.5l32.5 69.5l27 57.5l16.5 34.5h129l20 -168c3.33301 -28 5.66602 -54.667 6.99902 -80l4 -73h1l17 39.5l28 62.5l33.5 74l32.5 73l26.5 59.5c7.66699 17 12.834 28.167 15.501 33.5l131 -37z" />
    <glyph glyph-name="x" unicode="x" horiz-adv-x="526" 
d="M356 241l97 -203l17 -38h-158l-64 158l-161 -189l-113 66l211 225l-94 202l-17 35h150l65 -157l159 187l110 -64z" />
    <glyph glyph-name="y" unicode="y" horiz-adv-x="522" 
d="M556 482c-36.667 -84.667 -71.167 -160.001 -103.5 -226.001s-63.5 -124.5 -93.5 -175.5s-59.5 -95.667 -88.5 -134s-57.833 -71.833 -86.5 -100.5c-34 -33.333 -67.167 -57.166 -99.5 -71.499s-65.166 -21.5 -98.499 -21.5c-12.667 0 -25.834 0.666992 -39.501 2
s-25.834 3.33301 -36.501 6l23 117c9.33301 -3.33301 19.166 -5.83301 29.499 -7.5s20.5 -2.5 30.5 -2.5c33.333 0 63 12.333 89 37c14 13.333 24.667 29.333 32 48s11 42.667 11 72c0 67.333 -6.66699 137.666 -20 210.999s-29.666 148.333 -48.999 225l-9 36h151
c6.66699 -26 12.834 -53.667 18.501 -83s10.667 -59.166 15 -89.499s7.83301 -60.333 10.5 -90s4 -57.5 4 -83.5c0 -5.33301 -0.333008 -11.333 -1 -18s-1.66699 -13 -3 -19h2c32 59.333 62.5 121.5 91.5 186.5s58.833 137.5 89.5 217.5z" />
    <glyph glyph-name="z" unicode="z" horiz-adv-x="439" 
d="M423 399l-222 -274c4.66699 0 11 0.166992 19 0.5s16.667 0.5 26 0.5h129l-24 -126h-349l19 98l226 278c-10 -0.666992 -18.333 -1.16699 -25 -1.5s-17.667 -0.5 -33 -0.5h-111l24 123h341z" />
    <glyph glyph-name="braceleft" unicode="{" horiz-adv-x="360" 
d="M415 669c-16 0 -29.501 -1.5 -40.501 -4.5s-20.5 -8.83301 -28.5 -17.5s-14.833 -20.667 -20.5 -36s-10.5 -35 -14.5 -59l-14 -78c-5.33301 -28.667 -12 -52.834 -20 -72.501s-17.333 -35.834 -28 -48.501s-22.167 -22.167 -34.5 -28.5s-25.166 -10.5 -38.499 -12.5v-2
c12.667 -2 23.667 -6.33301 33 -13s16.833 -16.5 22.5 -29.5s8.83398 -29.5 9.50098 -49.5s-1.66602 -43.667 -6.99902 -71l-24 -124c-4.66699 -24 -7.33398 -43.667 -8.00098 -59s1.33301 -27.333 6 -36s11.834 -14.667 21.501 -18s22.5 -5 38.5 -5l-21 -111h-21
c-66.667 0 -110.667 18.5 -132 55.5s-24.333 95.167 -9 174.5l24 124c4 21.333 5.16699 39 3.5 53s-5.83398 25.333 -12.501 34s-15.667 14.834 -27 18.501s-24.666 6.16699 -39.999 7.5l20 103c16 0.666992 30.5 2.66699 43.5 6s24.167 9 33.5 17s17.5 18.833 24.5 32.5
s12.5 31.167 16.5 52.5l15 78c7.33301 38.667 17.166 72.334 29.499 101.001s27.5 52.5 45.5 71.5s39.667 33.167 65 42.5s54.666 14 87.999 14h22z" />
    <glyph glyph-name="bar" unicode="|" horiz-adv-x="275" 
d="M93 -250h-109l195 1000h109z" />
    <glyph glyph-name="braceright" unicode="}" horiz-adv-x="360" 
d="M345 261c-16 -1.33301 -30.5029 -3.83301 -43.5029 -7.5s-24.5 -9.83398 -34.5 -18.501s-18.333 -20 -25 -34s-12 -31.667 -16 -53l-23 -123c-15.333 -81.333 -41 -140.166 -77 -176.499s-86.667 -54.5 -152 -54.5h-21l20 111c16 0 29.5 1.66699 40.5 5
s20.333 9.33301 28 18s14.334 20.667 20.001 36s10.834 35.333 15.501 60l24 123c11.333 56.667 27.5 97.5 48.5 122.5s45.5 39.167 73.5 42.5v2c-12.667 2 -24 6.33301 -34 13s-17.833 16.334 -23.5 29.001s-9 28.667 -10 48s1.5 42.666 7.5 69.999l16 78
c4.66699 24.667 7.33398 44.5 8.00098 59.5s-1.33301 26.833 -6 35.5s-12 14.5 -22 17.5s-23 4.5 -39 4.5l21 110h21c66.667 0 111 -18.667 133 -56s25 -95 9 -173l-16 -78c-4 -21.333 -5.16699 -38.833 -3.5 -52.5s5.83398 -24.5 12.501 -32.5s15.667 -13.667 27 -17
s24.666 -5.33301 39.999 -6z" />
    <glyph glyph-name="asciitilde" unicode="~" 
d="M559 581c0 -26.667 -4.66895 -50.832 -14.002 -72.499s-21.666 -40.334 -36.999 -56.001s-33.5 -27.834 -54.5 -36.501s-42.833 -13 -65.5 -13c-28.667 0 -51 5.66699 -67 17s-29 23.833 -39 37.5l-26.5 37.5c-7.66699 11.333 -17.5 17 -29.5 17
c-13.333 0 -24.833 -7.5 -34.5 -22.5s-15.834 -35.833 -18.501 -62.5h-102v5c0 26.667 4.16699 51 12.5 73s19.833 40.833 34.5 56.5s32 27.834 52 36.501s42 13 66 13c30 0 53.333 -5.66699 70 -17s30.334 -24 41.001 -38s19.834 -26.667 27.501 -38s17.5 -17 29.5 -17
c14 0 25.833 7.66699 35.5 23s15.5 36 17.5 62h102v-5z" />
    <glyph glyph-name="nonbreakingspace" unicode="&#xa0;" horiz-adv-x="225" 
 />
    <glyph glyph-name="exclamdown" unicode="&#xa1;" horiz-adv-x="299" 
d="M133 -222h-147l114 526h117zM264 433c0 -12 -2.33105 -23.334 -6.99805 -34.001s-11 -19.667 -19 -27s-17.167 -13.166 -27.5 -17.499s-21.5 -6.5 -33.5 -6.5c-23.333 0 -42 7.5 -56 22.5s-21 32.167 -21 51.5c0 12.667 2.33301 24.334 7 35.001s11 19.667 19 27
s17.167 13.166 27.5 17.499s21.166 6.5 32.499 6.5c23.333 0 42.166 -7.5 56.499 -22.5s21.5 -32.5 21.5 -52.5z" />
    <glyph glyph-name="cent" unicode="&#xa2;" 
d="M330 491c-15.333 -2.66699 -30.833 -8.83008 -46.5 -18.4971s-30 -22.834 -43 -39.501s-23.5 -36.5 -31.5 -59.5s-12 -49.167 -12 -78.5c0 -28.667 6.83301 -50.834 20.5 -66.501s32.5 -24.834 56.5 -27.501zM498 472.004c-25.333 12 -50.333 18.998 -75 20.998l-57 -292
c30.667 3.33301 60 10.666 88 21.999l6 -105c-16.667 -6.66699 -35.334 -12.667 -56.001 -18s-40.667 -9 -60 -11l-18 -97h-93l19 94c-27.333 0.666992 -52.833 5.16699 -76.5 13.5s-44 20.333 -61 36s-30.333 35.334 -40 59.001s-14.5 51.167 -14.5 82.5
c0 36 6 72.667 18 110s30.167 71.333 54.5 102s54.833 56.5 91.5 77.5s79.334 33.5 128.001 37.5l14 76h93l-15 -76c17.333 -1.33301 35 -4.16602 53 -8.49902s32.667 -9.16602 44 -14.499z" />
    <glyph glyph-name="sterling" unicode="&#xa3;" 
d="M513 591c-14.667 3.33301 -28.333 5.66602 -41 6.99902s-25.667 2 -39 2c-25.333 0 -47.333 -7 -66 -21s-30.667 -34.333 -36 -61c-2.66699 -12 -4.5 -27.667 -5.5 -47s-2.5 -38.666 -4.5 -57.999h152l-20 -100h-141c-1.33301 -22 -3.83301 -42.167 -7.5 -60.5
s-9.33398 -35.5 -17.001 -51.5s-17.667 -31.333 -30 -46s-28.166 -29 -47.499 -43c10 0.666992 19.5 1.16699 28.5 1.5s19.167 0.5 30.5 0.5h188l-23 -114h-419l18 101c28.667 14 52.5 28 71.5 42s34 29.333 45 46s18.833 35 23.5 55s7.66699 43 9 69h-107l19 100h97
c1.33301 16 2.5 34 3.5 54s3.16699 38.667 6.5 56c12.667 62.667 40 109.167 82 139.5s94 45.5 156 45.5c17.333 0 35 -0.833008 53 -2.5s36 -4.16699 54 -7.5z" />
    <glyph glyph-name="currency" unicode="&#xa4;" horiz-adv-x="536" 
d="M550 461l-87.999 76.999l-86 -95c-8.66699 3.33301 -17.834 5.66602 -27.501 6.99902s-19.167 2 -28.5 2c-25.333 0 -49 -4 -71 -12l-50 97l-118 -75l52 -91c-30 -33.333 -50 -74 -60 -122c-10 -50.667 -7 -91 9 -121l-82 -84l91 -76l85 94c7.33301 -2 15 -3.66699 23 -5
s16.667 -2 26 -2c25.333 0 49.333 4.66699 72 14l55 -102l118 77l-57 97c30 32.667 49.333 72.334 58 119.001c4.66699 24.667 6.5 46.334 5.5 65.001s-4.16699 35 -9.5 49zM353.001 256.999c-7.33301 -36 -20.668 -62.167 -40.001 -78.5s-39.333 -24.5 -60 -24.5
c-28 0 -46.5 9.5 -55.5 28.5s-10.833 42.833 -5.5 71.5c6.66699 32.667 19.334 57.167 38.001 73.5s38.667 24.5 60 24.5c29.333 0 48.5 -8.16699 57.5 -24.5s10.833 -39.833 5.5 -70.5z" />
    <glyph glyph-name="yen" unicode="&#xa5;" 
d="M377 322l117 0.00195312l-17 -82h-145l-13 -69h146l-17 -84h-146l-16 -87h-133l17 87h-146l17 84h146l12 69h-145l16 82h118l-97 353h138l45 -194l3.5 -17.5l5.5 -27c2 -9.66699 4 -18.834 6 -27.501s3.33301 -15.334 4 -20.001l1 1l51 85l122 200h146z" />
    <glyph glyph-name="brokenbar" unicode="&#xa6;" horiz-adv-x="275" 
d="M93 -250h-109l74 378h109zM216 382h-109l72 368h109z" />
    <glyph glyph-name="section" unicode="&#xa7;" horiz-adv-x="504" 
d="M329 247c0 12 -2.16797 23.667 -6.50098 35s-10.666 23.166 -18.999 35.499s-18.333 25.5 -30 39.5l-38.5 48c-11.333 -8 -20 -18.667 -26 -32s-9 -27.333 -9 -42c0 -20 7.5 -41.5 22.5 -64.5s39.5 -54.167 73.5 -93.5c10 7.33301 18 17.833 24 31.5s9 27.834 9 42.501z
M460.999 625c-21.333 6 -43.6729 8.99609 -67.0059 8.99609c-34.667 0 -58.5 -7.16699 -71.5 -21.5s-19.5 -31.166 -19.5 -50.499c0 -18.667 7.83301 -37 23.5 -55l52 -60c19 -22 36.333 -47 52 -75s23.5 -61 23.5 -99c0 -36 -9.16699 -69.167 -27.5 -99.5
s-41.166 -54.5 -68.499 -72.5c5.33301 -7.33301 9.5 -17.333 12.5 -30s4.5 -25.667 4.5 -39c0 -26 -5.5 -51 -16.5 -75s-27.167 -45.5 -48.5 -64.5s-48.166 -34.167 -80.499 -45.5s-69.5 -17 -111.5 -17c-17.333 0 -34 0.833008 -50 2.5s-29.333 3.83398 -40 6.50098l29 120
c10.667 -4 22.334 -7.33301 35.001 -10s25 -4 37 -4c18.667 0 34.334 2.33301 47.001 7s22.834 10.5 30.501 17.5s13.167 15 16.5 24s5 17.833 5 26.5c0 20 -8 39.333 -24 58l-52.5 60c-19 21.333 -36.5 45 -52.5 71s-24 56.333 -24 91c0 37.333 8.83301 71.5 26.5 102.5
s41.5 56.833 71.5 77.5c-6 10 -10.5 20.833 -13.5 32.5s-4.5 25.834 -4.5 42.501c0 20.667 4.33301 42.334 13 65.001s22.834 43.5 42.501 62.5s45 34.667 76 47s68.833 18.5 113.5 18.5c16.667 0 32.167 -0.666992 46.5 -2s27.833 -3 40.5 -5z" />
    <glyph glyph-name="dieresis" unicode="&#xa8;" horiz-adv-x="535" 
d="M292 649c0 -21.333 -7.5 -39.166 -22.5 -53.499s-32.833 -21.5 -53.5 -21.5c-20 0 -36.667 7 -50 21s-20 30.667 -20 50c0 21.333 7.5 39.166 22.5 53.499s32.5 21.5 52.5 21.5c20.667 0 37.667 -7 51 -21s20 -30.667 20 -50zM501 649
c0 -21.333 -7.5 -39.166 -22.5 -53.499s-32.833 -21.5 -53.5 -21.5c-20 0 -36.667 7 -50 21s-20 30.667 -20 50c0 21.333 7.5 39.166 22.5 53.499s32.833 21.5 53.5 21.5c20 0 36.667 -7 50 -21s20 -30.667 20 -50z" />
    <glyph glyph-name="copyright" unicode="&#xa9;" horiz-adv-x="748" 
d="M494 177c-13.333 -6 -28.1689 -10.834 -44.502 -14.501s-36.166 -5.5 -59.499 -5.5c-50 0 -88.667 15.333 -116 46s-41 71.334 -41 122.001c0 26 3.66699 50.333 11 73s18.333 42.5 33 59.5s33.167 30.333 55.5 40s48.833 14.5 79.5 14.5c17.333 0 32.5 -1.33301 45.5 -4
s25.167 -6.66699 36.5 -12l-17 -90c-7.33301 5.33301 -16.166 9.5 -26.499 12.5s-21.5 4.5 -33.5 4.5c-24.667 0 -42.667 -8.16699 -54 -24.5s-17 -38.5 -17 -66.5c0 -54 21 -81 63 -81c24 0 47 4.66699 69 14zM636.997 332.999
c1.33301 33.333 -3.83496 64.666 -15.502 93.999s-28 54.833 -49 76.5s-45.833 38.834 -74.5 51.501s-59.667 19 -93 19s-64.833 -6.33301 -94.5 -19s-55.667 -29.834 -78 -51.501s-40.333 -47 -54 -76s-21.167 -60.167 -22.5 -93.5s3.66699 -64.666 15 -93.999
s27.5 -55 48.5 -77s45.833 -39.333 74.5 -52s59.667 -19 93 -19s64.833 6.33301 94.5 19s55.834 29.834 78.501 51.501s40.834 47.167 54.501 76.5s21.167 60.666 22.5 93.999zM739.996 333.999c-2 -47.333 -12.833 -92 -32.5 -134s-45.667 -78.5 -78 -109.5
s-69.833 -55.5 -112.5 -73.5s-87.667 -27 -135 -27c-48 0 -92.5 9 -133.5 27s-76.333 42.5 -106 73.5s-52.667 67.333 -69 109s-23.5 86.167 -21.5 133.5s12.833 92 32.5 134s45.667 78.5 78 109.5s69.833 55.5 112.5 73.5s87.667 27 135 27s91.5 -9 132.5 -27
s76.5 -42.5 106.5 -73.5s53.167 -67.333 69.5 -109s23.5 -86.167 21.5 -133.5z" />
    <glyph glyph-name="ordfeminine" unicode="&#xaa;" horiz-adv-x="399" 
d="M313 592c-6.66699 1.33301 -12.833 2.50098 -18.5 3.50098s-11.5 1.5 -17.5 1.5c-16 0 -30.5 -4.5 -43.5 -13.5s-23.833 -20.5 -32.5 -34.5s-15.334 -29.667 -20.001 -47s-7 -34.333 -7 -51c0 -15.333 1.83301 -26.166 5.5 -32.499s9.5 -9.5 17.5 -9.5
c10.667 0 21.834 4.66699 33.501 14s22.667 21.666 33 36.999s19.5 32.666 27.5 51.999s14 39 18 59zM435.001 673.001l-17.5 -91.998l-18.5 -94.5c-6 -31 -11.5 -60.833 -16.5 -89.5s-9.16699 -54.334 -12.5 -77.001h-105l11.5 39.5l14.5 46.5h-1
c-17.333 -30 -37.333 -53.167 -60 -69.5s-48 -24.5 -76 -24.5c-60.667 0 -91 38 -91 114c0 34.667 5 67.667 15 99s24.833 58.833 44.5 82.5s44.167 42.5 73.5 56.5s63 21 101 21c21.333 0 43.833 -0.833008 67.5 -2.5s47.167 -4.83398 70.5 -9.50098zM350.001 166.003h-306
l20 107h306z" />
    <glyph glyph-name="guillemotleft" unicode="&#xab;" horiz-adv-x="532" 
d="M185 248l70 -148l-116 -49l-85 197l130 200l102 -48zM409 248l78 -141l-113 -51l-96 192l140 196l98 -51z" />
    <glyph glyph-name="logicalnot" unicode="&#xac;" 
d="M446 60h-115l28 149h-330l20 106h447z" />
    <glyph glyph-name="registered" unicode="&#xae;" horiz-adv-x="553" 
d="M355 573c0 15.333 -9.33301 23 -28 23h-15v-49h11c10.667 0 18.667 2.5 24 7.5s8 11.167 8 18.5zM354 422l-34 82.001h-8v-82h-63v222h96c28 0 48.333 -5.83301 61 -17.5s19 -26.834 19 -45.501c0 -17.333 -3.83301 -31 -11.5 -41s-18.167 -17 -31.5 -21
c8 -9.33301 14.333 -19.333 19 -30l28 -67h-75zM488 531.001c0.666992 21.333 -2.83008 41.668 -10.4971 61.001s-18.334 36.166 -32.001 50.499s-29.834 25.666 -48.501 33.999s-38.667 12.5 -60 12.5s-41.5 -4.16699 -60.5 -12.5s-35.833 -19.5 -50.5 -33.5
s-26.334 -30.5 -35.001 -49.5s-13.334 -39.167 -14.001 -60.5s2.83301 -41.5 10.5 -60.5s18.334 -35.667 32.001 -50s29.834 -25.666 48.501 -33.999s38.667 -12.5 60 -12.5s41.666 4 60.999 12s36.166 19 50.499 33s25.833 30.5 34.5 49.5s13.334 39.167 14.001 60.5z
M571.003 540.003c0 -34.667 -6.66699 -66.6641 -20 -95.9971s-31.333 -54.833 -54 -76.5s-48.667 -38.667 -78 -51s-60.333 -18.5 -93 -18.5c-33.333 0 -64 6 -92 18s-52.333 28.167 -73 48.5s-36.834 44.166 -48.501 71.499s-17.5 56.666 -17.5 87.999
c0 34.667 6.66699 66.834 20 96.501s31.166 55.167 53.499 76.5s48.333 38.166 78 50.499s60.834 18.5 93.501 18.5s63.167 -6 91.5 -18s52.833 -28.167 73.5 -48.5s36.834 -44.333 48.501 -72s17.5 -56.834 17.5 -87.501z" />
    <glyph glyph-name="macron" unicode="&#xaf;" horiz-adv-x="327" 
d="M113 596v99h254v-99h-254z" />
    <glyph glyph-name="macron" unicode="&#x2c9;" horiz-adv-x="327" 
d="M113 596v99h254v-99h-254z" />
    <glyph glyph-name="degree" unicode="&#xb0;" horiz-adv-x="383" 
d="M316 604c0 12.667 -3.66797 24.834 -11.001 36.501s-19.666 17.5 -36.999 17.5c-15.333 0 -28.5 -5.5 -39.5 -16.5s-16.833 -25.833 -17.5 -44.5c-0.666992 -16.667 3.5 -29.834 12.5 -39.501s21.167 -14.5 36.5 -14.5c16 0 29.167 5.66699 39.5 17s15.833 26 16.5 44z
M416.999 611c0 -26 -4.99805 -48.668 -14.998 -68.001s-23 -35.5 -39 -48.5s-34 -22.667 -54 -29s-40 -9.5 -60 -9.5c-46 0 -80.833 12.333 -104.5 37s-35.5 56.667 -35.5 96c0 25.333 5.16699 47.5 15.5 66.5s23.333 35 39 48s33.167 22.833 52.5 29.5s38.666 10 57.999 10
c26.667 0 49.167 -3.66699 67.5 -11s33.166 -17.166 44.499 -29.499s19.333 -26.5 24 -42.5s7 -32.333 7 -49z" />
    <glyph glyph-name="plusminus" unicode="&#xb1;" 
d="M432 -80h-449l21 109h450zM506 265h-169l-35 -180h-125l36 180h-169l21 108h169l34 179h125l-35 -179h168z" />
    <glyph glyph-name="twosuperior" unicode="&#xb2;" horiz-adv-x="348" 
d="M350 576c0 -28 -8.16895 -54.167 -24.502 -78.5s-42.166 -51.166 -77.499 -80.499l-45 -37c16 1.33301 33.833 2.16602 53.5 2.49902s42.5 0.166016 68.5 -0.500977l-21 -112h-287l19 101l78 61c33.333 26.667 56.666 47.334 69.999 62.001s20 28.667 20 42
c0 11.333 -3 19.833 -9 25.5s-16 8.5 -30 8.5c-12 0 -24.5 -1.83301 -37.5 -5.5s-25.5 -8.16699 -37.5 -13.5v108c18.667 7.33301 38.834 13 60.501 17s43.834 6 66.501 6c46.667 0 80.5 -10 101.5 -30s31.5 -45.333 31.5 -76z" />
    <glyph glyph-name="threesuperior" unicode="&#xb3;" horiz-adv-x="327" 
d="M336 590c0 -22 -6.5 -42.002 -19.5 -60.002s-33.167 -33.333 -60.5 -46c16 -4 28.667 -12.667 38 -26s14 -29.666 14 -48.999s-4.5 -38 -13.5 -56s-22.167 -33.833 -39.5 -47.5s-39 -24.5 -65 -32.5s-56 -12 -90 -12c-15.333 0 -30.833 0.833008 -46.5 2.5
s-29.5 3.83398 -41.5 6.50098l28 90c9.33301 -3.33301 19.5 -5.83301 30.5 -7.5s22.167 -2.5 33.5 -2.5c20.667 0 37.5 4.83301 50.5 14.5s19.5 21.5 19.5 35.5c0 13.333 -8.66699 23.333 -26 30s-46 6.66699 -86 0l15 81c45.333 0 77.5 5.66699 96.5 17s28.5 24 28.5 38
c0 18.667 -12.333 28 -37 28c-11.333 0 -23.833 -1.33301 -37.5 -4s-27.167 -6.66699 -40.5 -12v88c19.333 5.33301 39.5 9.33301 60.5 12s40.167 4 57.5 4c48 0 81.833 -8.16699 101.5 -24.5s29.5 -38.833 29.5 -67.5z" />
    <glyph glyph-name="acute" unicode="&#xb4;" horiz-adv-x="386" 
d="M193 560l-45 79l187 109l54 -94z" />
    <glyph glyph-name="mu" unicode="&#xb5;" horiz-adv-x="588" 
d="M477 0h-128.001c2 13.333 5.83301 30.833 11.5 52.5s15.167 51.5 28.5 89.5h-1c-10 -20.667 -21.333 -40 -34 -58s-26.334 -33.833 -41.001 -47.5s-30.167 -24.5 -46.5 -32.5s-33.166 -12 -50.499 -12c-16 0 -28.667 2.5 -38 7.5s-16 10.5 -20 16.5l-2 -1
c-0.666992 -10 -2.5 -23.167 -5.5 -39.5l-10.5 -56.5l-30 -158h-134l140 736h134l-57 -300c-3.33301 -18 -4.66602 -32.833 -3.99902 -44.5s3.16699 -21 7.5 -28s10 -11.833 17 -14.5s15.167 -4 24.5 -4c18 0 36.333 8.66699 55 26s36 39 52 65s30 54 42 84
s20.333 57.667 25 83l25 133h135z" />
    <glyph glyph-name="mu" unicode="&#x3bc;" horiz-adv-x="588" 
d="M477 0h-128.001c2 13.333 5.83301 30.833 11.5 52.5s15.167 51.5 28.5 89.5h-1c-10 -20.667 -21.333 -40 -34 -58s-26.334 -33.833 -41.001 -47.5s-30.167 -24.5 -46.5 -32.5s-33.166 -12 -50.499 -12c-16 0 -28.667 2.5 -38 7.5s-16 10.5 -20 16.5l-2 -1
c-0.666992 -10 -2.5 -23.167 -5.5 -39.5l-10.5 -56.5l-30 -158h-134l140 736h134l-57 -300c-3.33301 -18 -4.66602 -32.833 -3.99902 -44.5s3.16699 -21 7.5 -28s10 -11.833 17 -14.5s15.167 -4 24.5 -4c18 0 36.333 8.66699 55 26s36 39 52 65s30 54 42 84
s20.333 57.667 25 83l25 133h135z" />
    <glyph glyph-name="paragraph" unicode="&#xb6;" horiz-adv-x="588" 
d="M289 226c-68.667 0 -119.165 16.667 -151.498 50s-48.5 77 -48.5 131c0 34.667 6.33301 68 19 100s31.167 60.5 55.5 85.5s54.166 45 89.499 60s75.666 22.5 120.999 22.5zM606.002 565h-62l-126 -661h-182l21 110h68l126 661h175z" />
    <glyph glyph-name="periodcentered" unicode="&#xb7;" horiz-adv-x="273" 
d="M236 291c0 -13.333 -2.66699 -25.6641 -8 -36.9971s-12.333 -21 -21 -29s-18.667 -14.333 -30 -19s-23 -7 -35 -7s-23 2.33301 -33 7s-18.667 10.667 -26 18s-12.833 16 -16.5 26s-5.5 20.333 -5.5 31c0 13.333 2.66699 25.666 8 36.999s12.333 21.166 21 29.499
s18.667 14.833 30 19.5s23 7 35 7s23 -2.33301 33 -7s18.5 -10.834 25.5 -18.501s12.5 -16.5 16.5 -26.5s6 -20.333 6 -31z" />
    <glyph glyph-name="periodcentered" unicode="&#x22c5;" horiz-adv-x="273" 
d="M236 291c0 -13.333 -2.66699 -25.6641 -8 -36.9971s-12.333 -21 -21 -29s-18.667 -14.333 -30 -19s-23 -7 -35 -7s-23 2.33301 -33 7s-18.667 10.667 -26 18s-12.833 16 -16.5 26s-5.5 20.333 -5.5 31c0 13.333 2.66699 25.666 8 36.999s12.333 21.166 21 29.499
s18.667 14.833 30 19.5s23 7 35 7s23 -2.33301 33 -7s18.5 -10.834 25.5 -18.501s12.5 -16.5 16.5 -26.5s6 -20.333 6 -31z" />
    <glyph glyph-name="cedilla" unicode="&#xb8;" horiz-adv-x="392" 
d="M227 -51c6 -18 8.66699 -36.167 8 -54.5s-6 -36 -16 -53s-25.167 -33.5 -45.5 -49.5s-47.166 -30.333 -80.499 -43l-56 55c65.333 40 87.666 88.333 66.999 145h123z" />
    <glyph glyph-name="onesuperior" unicode="&#xb9;" horiz-adv-x="291" 
d="M220 270h-133l55 286l-83 -33v110l126 42h114z" />
    <glyph glyph-name="ordmasculine" unicode="&#xba;" horiz-adv-x="430" 
d="M339 540c0 15.333 -3.33105 27.668 -9.99805 37.001s-19.667 14 -39 14c-16.667 0 -30.834 -4.5 -42.501 -13.5s-21.334 -20.167 -29.001 -33.5s-13.167 -27.833 -16.5 -43.5s-5 -29.834 -5 -42.501c0 -15.333 3.5 -27.5 10.5 -36.5s18.833 -13.5 35.5 -13.5
c16 0 30 4 42 12s22 18.167 30 30.5s14 26.333 18 42s6 31.5 6 47.5zM456.002 554.002c0 -38 -6.33203 -71.999 -18.999 -101.999s-29.5 -55.333 -50.5 -76s-45.167 -36.5 -72.5 -47.5s-55.333 -16.5 -84 -16.5c-53.333 0 -91.5 11.167 -114.5 33.5
s-34.5 54.166 -34.5 95.499c0 34 5.5 65.833 16.5 95.5s26.333 55.5 46 77.5s43.167 39.333 70.5 52s57.666 19 90.999 19c28 0 51.5 -3.16699 70.5 -9.5s34.5 -15.333 46.5 -27s20.667 -25.5 26 -41.5s8 -33.667 8 -53zM377.003 166.003h-333l20 107h333z" />
    <glyph glyph-name="guillemotright" unicode="&#xbb;" horiz-adv-x="532" 
d="M143 56l-98 50l107 145l-78 141l113 51l96 -193zM377 51l-102 49l101 151l-70 148l116 49l85 -198z" />
    <glyph glyph-name="onequarter" unicode="&#xbc;" horiz-adv-x="933" 
d="M636 165h82l29 152zM220 270h-133l55 286l-83 -33v110l126 42h114zM172 -145l-96 67l582 852l96 -66zM878 66h-54l-13 -66h-123l13 66h-195l16 92l180 247h187l-46 -238h54z" />
    <glyph glyph-name="onehalf" unicode="&#xbd;" horiz-adv-x="913" 
d="M220 270h-133l55 286l-83 -33v110l126 42h114zM172 -145l-96 67l582 852l96 -66zM873 306c0 -28 -7.66699 -54.166 -23 -78.499s-41.333 -51.166 -78 -80.499l-46 -37c16.667 1.33301 34.834 2.16602 54.501 2.49902s42.5 0.166016 68.5 -0.500977l-21 -112h-287l20 101
l77 61c32.667 26.667 55.834 47.334 69.501 62.001s20.5 29 20.5 43c0 11.333 -3 19.666 -9 24.999s-16 8 -30 8c-12.667 0 -25.334 -1.83301 -38.001 -5.5s-25.334 -8.16699 -38.001 -13.5v108c19.333 7.33301 39.833 13 61.5 17s43.5 6 65.5 6
c47.333 0 81.333 -10 102 -30s31 -45.333 31 -76z" />
    <glyph glyph-name="threequarters" unicode="&#xbe;" horiz-adv-x="958" 
d="M676 165h83l29 152zM337 590c0 -22 -6.49902 -42.002 -19.499 -60.002s-33.167 -33.333 -60.5 -46c15.333 -4 27.833 -12.667 37.5 -26s14.5 -29.666 14.5 -48.999s-4.5 -38 -13.5 -56s-22.167 -33.833 -39.5 -47.5s-39 -24.5 -65 -32.5s-56 -12 -90 -12
c-15.333 0 -30.833 0.833008 -46.5 2.5s-29.5 3.83398 -41.5 6.50098l28 90c9.33301 -3.33301 19.5 -5.83301 30.5 -7.5s22.167 -2.5 33.5 -2.5c20.667 0 37.5 4.83301 50.5 14.5s19.5 21.5 19.5 35.5c0 13.333 -8.66699 23.333 -26 30s-46.333 6.66699 -87 0l16 81
c45.333 0 77.5 5.66699 96.5 17s28.5 24 28.5 38c0 18.667 -12.333 28 -37 28c-11.333 0 -23.833 -1.33301 -37.5 -4s-27.167 -6.66699 -40.5 -12v88c18.667 5.33301 38.667 9.33301 60 12s40.666 4 57.999 4c48 0 81.833 -8.16699 101.5 -24.5s29.5 -38.833 29.5 -67.5z
M205.001 -145.002l-96 67l582 852l95 -66zM918.001 65.998h-53l-13 -66h-123l13 66h-195l16 91l180 248h187l-46 -238h54z" />
    <glyph glyph-name="questiondown" unicode="&#xbf;" horiz-adv-x="430" 
d="M336 304c5.33301 -32 4.49805 -59.498 -2.50195 -82.498s-17.167 -43.333 -30.5 -61s-28.5 -33.334 -45.5 -47.001l-49 -39c-15.667 -12.333 -29.167 -24.833 -40.5 -37.5s-17.666 -27 -18.999 -43c-3.33301 -28 9.83398 -50.333 39.501 -67
s72.834 -26.334 129.501 -29.001l-40 -125c-54 2 -99.667 9.33301 -137 22s-67 28.667 -89 48s-37.167 40.833 -45.5 64.5s-10.833 48.167 -7.5 73.5c3.33301 28 11.166 51.833 23.499 71.5s26.666 37.167 42.999 52.5s33.333 29.5 51 42.5s33.5 26.833 47.5 41.5
s24.833 31 32.5 49s9.83398 40 6.50098 66h133zM368.998 433.002c0 -12 -2.33105 -23.334 -6.99805 -34.001s-11 -19.667 -19 -27s-17.167 -13.166 -27.5 -17.499s-21.5 -6.5 -33.5 -6.5c-23.333 0 -42 7.5 -56 22.5s-21 32.167 -21 51.5c0 12.667 2.33301 24.334 7 35.001
s11 19.667 19 27s17.167 13.166 27.5 17.499s21.166 6.5 32.499 6.5c23.333 0 42.166 -7.5 56.499 -22.5s21.5 -32.5 21.5 -52.5z" />
    <glyph glyph-name="Agrave" unicode="&#xc0;" horiz-adv-x="617" 
d="M370 404c-3.33301 18 -5.66699 36 -7 54l-4 56h-1c-7.33301 -18 -15.5 -36.833 -24.5 -56.5s-18.833 -39.5 -29.5 -59.5l-82 -154h173zM427.999 0l-19 133h-241l-69 -133h-143l358 675h156l106 -675h-148zM443.999 713l-207 60l49 88l194 -80z" />
    <glyph glyph-name="Aacute" unicode="&#xc1;" horiz-adv-x="617" 
d="M370 404c-3.33301 18 -5.66699 36 -7 54l-4 56h-1c-7.33301 -18 -15.5 -36.833 -24.5 -56.5s-18.833 -39.5 -29.5 -59.5l-82 -154h173zM427.999 0l-19 133h-241l-69 -133h-143l358 675h156l106 -675h-148zM330.999 713l-21 67l215 81l25 -87z" />
    <glyph glyph-name="Acircumflex" unicode="&#xc2;" horiz-adv-x="617" 
d="M370 404c-3.33301 18 -5.66699 36 -7 54l-4 56h-1c-7.33301 -18 -15.5 -36.833 -24.5 -56.5s-18.833 -39.5 -29.5 -59.5l-82 -154h173zM427.999 0l-19 133h-241l-69 -133h-143l358 675h156l106 -675h-148zM517.999 717l-113 57l-134 -57l-22 63l168 81l141 -79z" />
    <glyph glyph-name="Atilde" unicode="&#xc3;" horiz-adv-x="617" 
d="M370 404c-3.33301 18 -5.66699 36 -7 54l-4 56h-1c-7.33301 -18 -15.5 -36.833 -24.5 -56.5s-18.833 -39.5 -29.5 -59.5l-82 -154h173zM427.999 0l-19 133h-241l-69 -133h-143l358 675h156l106 -675h-148zM596.999 779c-15.333 -15.333 -33.1689 -28.335 -53.502 -39.002
s-43.166 -16 -68.499 -16c-16.667 0 -30.667 1.83301 -42 5.5s-21.666 7.83398 -30.999 12.501s-18.5 8.83398 -27.5 12.501s-19.833 5.5 -32.5 5.5c-17.333 0 -33 -3.83301 -47 -11.5s-26.333 -16.167 -37 -25.5l-35 68c16.667 17.333 35.667 32 57 44s46 18 74 18
c15.333 0 28.5 -2 39.5 -6s21.167 -8.16699 30.5 -12.5l28 -12.5c9.33301 -4 20.333 -6 33 -6c16.667 0 32 3.5 46 10.5s25.333 14.833 34 23.5z" />
    <glyph glyph-name="Adieresis" unicode="&#xc4;" horiz-adv-x="617" 
d="M370 404c-3.33301 18 -5.66699 36 -7 54l-4 56h-1c-7.33301 -18 -15.5 -36.833 -24.5 -56.5s-18.833 -39.5 -29.5 -59.5l-82 -154h173zM427.999 0l-19 133h-241l-69 -133h-143l358 675h156l106 -675h-148zM356.999 787c0 -20 -7.00098 -36.5 -21.001 -49.5
s-30 -19.5 -48 -19.5c-18.667 0 -34 6.16699 -46 18.5s-18 27.166 -18 44.499c0 20 6.83301 36.5 20.5 49.5s29.834 19.5 48.501 19.5s34 -6.16699 46 -18.5s18 -27.166 18 -44.499zM581.998 787c0 -20 -7.00098 -36.5 -21.001 -49.5s-30 -19.5 -48 -19.5
c-18.667 0 -34 6.16699 -46 18.5s-18 27.166 -18 44.499c0 20 6.83301 36.5 20.5 49.5s29.834 19.5 48.501 19.5s34 -6.16699 46 -18.5s18 -27.166 18 -44.499z" />
    <glyph glyph-name="Aring" unicode="&#xc5;" horiz-adv-x="617" 
d="M370 404c-3.33301 18 -5.66699 36 -7 54l-4 56h-1c-7.33301 -18 -15.5 -36.833 -24.5 -56.5s-18.833 -39.5 -29.5 -59.5l-82 -154h173zM441.999 736c0 14.667 -4.83301 27 -14.5 37s-21.834 15 -36.501 15c-14 0 -26.167 -5 -36.5 -15s-15.5 -22.333 -15.5 -37
c0 -14 5.16699 -26.167 15.5 -36.5s22.5 -15.5 36.5 -15.5c14.667 0 26.834 5.16699 36.501 15.5s14.5 22.5 14.5 36.5zM427.999 0l-19 133h-241l-69 -133h-143l343 647c-25.333 23.333 -38 53 -38 89c0 18 3.33301 34.667 10 50s16 28.5 28 39.5s25.833 19.667 41.5 26
s32.5 9.5 50.5 9.5s35 -3.16699 51 -9.5s30 -15 42 -26s21.333 -24.167 28 -39.5s10 -32 10 -50c0 -19.333 -4.16699 -37.333 -12.5 -54s-19.833 -30.667 -34.5 -42l101 -640h-148z" />
    <glyph glyph-name="AE" unicode="&#xc6;" horiz-adv-x="765" 
d="M421 559l-41.5 -72.5c-14.333 -25 -30.5 -50.833 -48.5 -77.5l-106 -158h139l59 308h-2zM777 557h-223l-29 -153h215l-22 -114h-215l-33 -170h231l-23 -120h-363l28 141h-185l-91 -141h-148l440 675h441z" />
    <glyph glyph-name="Ccedilla" unicode="&#xc7;" horiz-adv-x="545" 
d="M543 533c-17.333 7.33301 -35.667 12.6699 -55 16.0029s-38 5 -56 5c-43.333 0 -79.666 -9.66699 -108.999 -29s-53 -43.833 -71 -73.5s-30.833 -62 -38.5 -97s-11.5 -68.167 -11.5 -99.5c0 -41.333 9.83301 -74.333 29.5 -99s54.834 -37 105.501 -37
c25.333 0 48.666 2 69.999 6s41.666 9.66699 60.999 17l6 -124c-25.333 -8 -53.5 -14.5 -84.5 -19.5s-61.5 -7.5 -91.5 -7.5c-49.333 0 -90.333 6.66699 -123 20s-58.667 31.166 -78 53.499s-32.833 47.666 -40.5 75.999s-11.5 57.5 -11.5 87.5
c0 56.667 8.5 112.167 25.5 166.5s42.167 102.666 75.5 144.999s75 76.333 125 102s108 38.5 174 38.5c27.333 0 53.833 -1.83301 79.5 -5.5s48.167 -8.5 67.5 -14.5zM331.999 -50.9961c6 -18 8.66699 -36.167 8 -54.5s-6 -36 -16 -53s-25.167 -33.5 -45.5 -49.5
s-47.166 -30.333 -80.499 -43l-56 55c65.333 40 87.666 88.333 66.999 145h123z" />
    <glyph glyph-name="Egrave" unicode="&#xc8;" horiz-adv-x="480" 
d="M493 557h-227l-29 -153h216l-23 -114h-215l-32 -170h227l-23 -120h-364l128 675h364zM384 713l-207 60l49 88l194 -80z" />
    <glyph glyph-name="Eacute" unicode="&#xc9;" horiz-adv-x="480" 
d="M493 557h-227l-29 -153h216l-23 -114h-215l-32 -170h227l-23 -120h-364l128 675h364zM298 713l-21 67l215 81l25 -87z" />
    <glyph glyph-name="Ecircumflex" unicode="&#xca;" horiz-adv-x="480" 
d="M493 557h-227l-29 -153h216l-23 -114h-215l-32 -170h227l-23 -120h-364l128 675h364zM463 717l-113 57l-134 -57l-22 63l168 81l141 -79z" />
    <glyph glyph-name="Edieresis" unicode="&#xcb;" horiz-adv-x="480" 
d="M493 557h-227l-29 -153h216l-23 -114h-215l-32 -170h227l-23 -120h-364l128 675h364zM307 787c0 -20 -7.00098 -36.5 -21.001 -49.5s-30 -19.5 -48 -19.5c-18.667 0 -34 6.16699 -46 18.5s-18 27.166 -18 44.499c0 20 6.83301 36.5 20.5 49.5s29.834 19.5 48.501 19.5
s34 -6.16699 46 -18.5s18 -27.166 18 -44.499zM531.999 787c0 -20 -7.00098 -36.5 -21.001 -49.5s-30 -19.5 -48 -19.5c-18.667 0 -34 6.16699 -46 18.5s-18 27.166 -18 44.499c0 20 6.83301 36.5 20.5 49.5s29.834 19.5 48.501 19.5s34 -6.16699 46 -18.5
s18 -27.166 18 -44.499z" />
    <glyph glyph-name="Igrave" unicode="&#xcc;" horiz-adv-x="267" 
d="M160 0h-137l128 675h137zM281 713l-207 60l49 88l194 -80z" />
    <glyph glyph-name="Iacute" unicode="&#xcd;" horiz-adv-x="267" 
d="M160 0h-137l128 675h137zM167 713l-21 67l215 81l25 -87z" />
    <glyph glyph-name="Icircumflex" unicode="&#xce;" horiz-adv-x="267" 
d="M160 0h-137l128 675h137zM359 717l-113 57l-134 -57l-22 63l168 81l141 -79z" />
    <glyph glyph-name="Idieresis" unicode="&#xcf;" horiz-adv-x="267" 
d="M160 0h-137l128 675h137zM195 787c0 -20 -7.00098 -36.5 -21.001 -49.5s-30 -19.5 -48 -19.5c-18.667 0 -34 6.16699 -46 18.5s-18 27.166 -18 44.499c0 20 6.83301 36.5 20.5 49.5s29.834 19.5 48.501 19.5s34 -6.16699 46 -18.5s18 -27.166 18 -44.499zM419.999 787
c0 -20 -7.00098 -36.5 -21.001 -49.5s-30 -19.5 -48 -19.5c-18.667 0 -34 6.16699 -46 18.5s-18 27.166 -18 44.499c0 20 6.83301 36.5 20.5 49.5s29.834 19.5 48.501 19.5s34 -6.16699 46 -18.5s18 -27.166 18 -44.499z" />
    <glyph glyph-name="Eth" unicode="&#xd0;" horiz-adv-x="666" 
d="M510 422c0 21.333 -2.66504 40.498 -7.99805 57.498s-14 31.5 -26 43.5s-28 21.333 -48 28s-44.667 10 -74 10h-45c-12 0 -23 -0.666992 -33 -2l-31 -164h111l-18 -106h-113l-33 -169c8 -1.33301 17.167 -2.33301 27.5 -3s20.166 -1 29.499 -1
c48.667 0 89.667 10.167 123 30.5s60.166 45.833 80.499 76.5s35 63.834 44 99.501s13.5 68.834 13.5 99.501zM657.002 434.998c0 -56.667 -8.83008 -111.331 -26.4971 -163.998s-44.334 -99.334 -80.001 -140.001s-80.334 -73.334 -134.001 -98.001
s-116.167 -37 -187.5 -37c-40 0 -75.667 0.5 -107 1.5s-61.333 2.16699 -90 3.5l55 288h-73l18 106h75l53 279c26 1.33301 58.167 2.5 96.5 3.5s76.833 1.5 115.5 1.5c93.333 0 164.166 -20.5 212.499 -61.5s72.5 -101.833 72.5 -182.5z" />
    <glyph glyph-name="Ntilde" unicode="&#xd1;" horiz-adv-x="670" 
d="M563 0l-161.001 0.000976562l-118 317c-9.33301 25.333 -17.833 50.666 -25.5 75.999s-14.167 49.333 -19.5 72c-3.33301 -30 -7.33301 -59.167 -12 -87.5s-10 -58.166 -16 -89.499l-55 -288h-133l128 675h162l115 -297c10.667 -27.333 19.834 -54.833 27.501 -82.5
l22.5 -79.5c3.33301 29.333 7.83301 60.666 13.5 93.999l16.5 95l50 270h134zM619.999 779.001c-15.333 -15.333 -33.1689 -28.335 -53.502 -39.002s-43.166 -16 -68.499 -16c-16.667 0 -30.667 1.83301 -42 5.5s-21.666 7.83398 -30.999 12.501s-18.5 8.83398 -27.5 12.501
s-19.833 5.5 -32.5 5.5c-17.333 0 -33 -3.83301 -47 -11.5s-26.333 -16.167 -37 -25.5l-35 68c16.667 17.333 35.667 32 57 44s46 18 74 18c15.333 0 28.5 -2 39.5 -6s21.167 -8.16699 30.5 -12.5l28 -12.5c9.33301 -4 20.333 -6 33 -6c16.667 0 32 3.5 46 10.5
s25.333 14.833 34 23.5z" />
    <glyph glyph-name="Ograve" unicode="&#xd2;" horiz-adv-x="689" 
d="M543 422c0 41.333 -10.166 74.667 -30.499 100s-52.166 38 -95.499 38c-34.667 0 -66 -8.5 -94 -25.5s-51.833 -39.5 -71.5 -67.5s-34.834 -60.167 -45.501 -96.5s-16 -73.5 -16 -111.5c0 -46 10.5 -81.333 31.5 -106s51.833 -37 92.5 -37c33.333 0 64 8.16699 92 24.5
s52.167 38.5 72.5 66.5s36.166 60.5 47.499 97.5s17 76.167 17 117.5zM690.001 439.001c0 -65.333 -10.499 -125.5 -31.499 -180.5s-49.5 -102.5 -85.5 -142.5s-78 -71.333 -126 -94s-99 -34 -153 -34c-86 0 -149.5 22 -190.5 66s-61.5 104.333 -61.5 181
c0 60.667 10.167 118.334 30.5 173.001s48.166 102.667 83.499 144s77.333 74.166 126 98.499s101 36.5 157 36.5c83.333 0 146 -21.667 188 -65s63 -104.333 63 -183zM502.002 713.001l-207 60l49 88l194 -80z" />
    <glyph glyph-name="Oacute" unicode="&#xd3;" horiz-adv-x="689" 
d="M543 422c0 41.333 -10.166 74.667 -30.499 100s-52.166 38 -95.499 38c-34.667 0 -66 -8.5 -94 -25.5s-51.833 -39.5 -71.5 -67.5s-34.834 -60.167 -45.501 -96.5s-16 -73.5 -16 -111.5c0 -46 10.5 -81.333 31.5 -106s51.833 -37 92.5 -37c33.333 0 64 8.16699 92 24.5
s52.167 38.5 72.5 66.5s36.166 60.5 47.499 97.5s17 76.167 17 117.5zM690.001 439.001c0 -65.333 -10.499 -125.5 -31.499 -180.5s-49.5 -102.5 -85.5 -142.5s-78 -71.333 -126 -94s-99 -34 -153 -34c-86 0 -149.5 22 -190.5 66s-61.5 104.333 -61.5 181
c0 60.667 10.167 118.334 30.5 173.001s48.166 102.667 83.499 144s77.333 74.166 126 98.499s101 36.5 157 36.5c83.333 0 146 -21.667 188 -65s63 -104.333 63 -183zM412.002 713.001l-21 67l215 81l25 -87z" />
    <glyph glyph-name="Ocircumflex" unicode="&#xd4;" horiz-adv-x="689" 
d="M543 422c0 41.333 -10.166 74.667 -30.499 100s-52.166 38 -95.499 38c-34.667 0 -66 -8.5 -94 -25.5s-51.833 -39.5 -71.5 -67.5s-34.834 -60.167 -45.501 -96.5s-16 -73.5 -16 -111.5c0 -46 10.5 -81.333 31.5 -106s51.833 -37 92.5 -37c33.333 0 64 8.16699 92 24.5
s52.167 38.5 72.5 66.5s36.166 60.5 47.499 97.5s17 76.167 17 117.5zM690.001 439.001c0 -65.333 -10.499 -125.5 -31.499 -180.5s-49.5 -102.5 -85.5 -142.5s-78 -71.333 -126 -94s-99 -34 -153 -34c-86 0 -149.5 22 -190.5 66s-61.5 104.333 -61.5 181
c0 60.667 10.167 118.334 30.5 173.001s48.166 102.667 83.499 144s77.333 74.166 126 98.499s101 36.5 157 36.5c83.333 0 146 -21.667 188 -65s63 -104.333 63 -183zM582.002 717.001l-113 57l-134 -57l-22 63l168 81l141 -79z" />
    <glyph glyph-name="Otilde" unicode="&#xd5;" horiz-adv-x="689" 
d="M543 422c0 41.333 -10.166 74.667 -30.499 100s-52.166 38 -95.499 38c-34.667 0 -66 -8.5 -94 -25.5s-51.833 -39.5 -71.5 -67.5s-34.834 -60.167 -45.501 -96.5s-16 -73.5 -16 -111.5c0 -46 10.5 -81.333 31.5 -106s51.833 -37 92.5 -37c33.333 0 64 8.16699 92 24.5
s52.167 38.5 72.5 66.5s36.166 60.5 47.499 97.5s17 76.167 17 117.5zM690.001 439.001c0 -65.333 -10.499 -125.5 -31.499 -180.5s-49.5 -102.5 -85.5 -142.5s-78 -71.333 -126 -94s-99 -34 -153 -34c-86 0 -149.5 22 -190.5 66s-61.5 104.333 -61.5 181
c0 60.667 10.167 118.334 30.5 173.001s48.166 102.667 83.499 144s77.333 74.166 126 98.499s101 36.5 157 36.5c83.333 0 146 -21.667 188 -65s63 -104.333 63 -183zM655.002 779.001c-15.333 -15.333 -33.1689 -28.335 -53.502 -39.002s-43.166 -16 -68.499 -16
c-16.667 0 -30.667 1.83301 -42 5.5s-21.666 7.83398 -30.999 12.501s-18.5 8.83398 -27.5 12.501s-19.833 5.5 -32.5 5.5c-17.333 0 -33 -3.83301 -47 -11.5s-26.333 -16.167 -37 -25.5l-35 68c16.667 17.333 35.667 32 57 44s46 18 74 18c15.333 0 28.5 -2 39.5 -6
s21.167 -8.16699 30.5 -12.5l28 -12.5c9.33301 -4 20.333 -6 33 -6c16.667 0 32 3.5 46 10.5s25.333 14.833 34 23.5z" />
    <glyph glyph-name="Odieresis" unicode="&#xd6;" horiz-adv-x="689" 
d="M543 422c0 41.333 -10.166 74.667 -30.499 100s-52.166 38 -95.499 38c-34.667 0 -66 -8.5 -94 -25.5s-51.833 -39.5 -71.5 -67.5s-34.834 -60.167 -45.501 -96.5s-16 -73.5 -16 -111.5c0 -46 10.5 -81.333 31.5 -106s51.833 -37 92.5 -37c33.333 0 64 8.16699 92 24.5
s52.167 38.5 72.5 66.5s36.166 60.5 47.499 97.5s17 76.167 17 117.5zM690.001 439.001c0 -65.333 -10.499 -125.5 -31.499 -180.5s-49.5 -102.5 -85.5 -142.5s-78 -71.333 -126 -94s-99 -34 -153 -34c-86 0 -149.5 22 -190.5 66s-61.5 104.333 -61.5 181
c0 60.667 10.167 118.334 30.5 173.001s48.166 102.667 83.499 144s77.333 74.166 126 98.499s101 36.5 157 36.5c83.333 0 146 -21.667 188 -65s63 -104.333 63 -183zM420.002 787.001c0 -20 -7.00098 -36.5 -21.001 -49.5s-30 -19.5 -48 -19.5
c-18.667 0 -34 6.16699 -46 18.5s-18 27.166 -18 44.499c0 20 6.83301 36.5 20.5 49.5s29.834 19.5 48.501 19.5s34 -6.16699 46 -18.5s18 -27.166 18 -44.499zM645.001 787.001c0 -20 -7.00098 -36.5 -21.001 -49.5s-30 -19.5 -48 -19.5c-18.667 0 -34 6.16699 -46 18.5
s-18 27.166 -18 44.499c0 20 6.83301 36.5 20.5 49.5s29.834 19.5 48.501 19.5s34 -6.16699 46 -18.5s18 -27.166 18 -44.499z" />
    <glyph glyph-name="multiply" unicode="&#xd7;" 
d="M339 248l123 -162l-90 -73l-120 160l-182 -160l-63 78l185 162l-121 160l89 73l119 -158l182 158l63 -78z" />
    <glyph glyph-name="Oslash" unicode="&#xd8;" horiz-adv-x="689" 
d="M425 562c-14.667 0.666992 -29.332 -0.333008 -43.999 -3c-30 -6 -57 -18.333 -81 -37s-44.5 -41.667 -61.5 -69s-30 -57.833 -39 -91.5s-13.5 -68.5 -13.5 -104.5c0 -19.333 2.16699 -36.5 6.5 -51.5s11.166 -27.833 20.499 -38.5zM548.002 425
c0 40 -10.666 70.667 -31.999 92l-216 -402c9.33301 -1.33301 18.5 -1.33301 27.5 0s18.167 3 27.5 5c28 6.66699 53.667 19.167 77 37.5s43.666 41 60.999 68s30.833 57.5 40.5 91.5s14.5 70 14.5 108zM690.003 439c0 -65.333 -10.4971 -125.5 -31.4971 -180.5
s-49.5 -102.5 -85.5 -142.5s-78 -71.333 -126 -94s-99 -34 -153 -34c-21.333 0 -41 2 -59 6l-50 -99l-98 34l51 97c-32.667 21.333 -56.834 49.5 -72.501 84.5s-23.5 76.5 -23.5 124.5c0 61.333 10 119.333 30 174s47.5 102.667 82.5 144s76.667 74 125 98
s101.166 36 158.499 36c9.33301 0 18.166 -0.333008 26.499 -1s16.5 -2 24.5 -4l48 93l97 -33l-48 -90c69.333 -40 104 -111 104 -213z" />
    <glyph glyph-name="Ugrave" unicode="&#xd9;" horiz-adv-x="664" 
d="M604 248c-17.333 -89.333 -53.333 -155.003 -108 -197.003s-125 -63 -211 -63c-51.333 0 -92.666 6.83301 -123.999 20.5s-54.833 32.334 -70.5 56.001s-24.834 51.334 -27.501 83.001s-0.333984 65.834 6.99902 102.501l80 425h138l-84 -436
c-8.66699 -44 -5.5 -77.333 9.5 -100s45.5 -34 91.5 -34c48 0 84.833 12 110.5 36s43.834 63.333 54.501 118l80 416h136zM460 712.997l-207 60l49 88l194 -80z" />
    <glyph glyph-name="Uacute" unicode="&#xda;" horiz-adv-x="664" 
d="M604 248c-17.333 -89.333 -53.333 -155.003 -108 -197.003s-125 -63 -211 -63c-51.333 0 -92.666 6.83301 -123.999 20.5s-54.833 32.334 -70.5 56.001s-24.834 51.334 -27.501 83.001s-0.333984 65.834 6.99902 102.501l80 425h138l-84 -436
c-8.66699 -44 -5.5 -77.333 9.5 -100s45.5 -34 91.5 -34c48 0 84.833 12 110.5 36s43.834 63.333 54.501 118l80 416h136zM389 712.997l-21 67l215 81l25 -87z" />
    <glyph glyph-name="Ucircumflex" unicode="&#xdb;" horiz-adv-x="664" 
d="M604 248c-17.333 -89.333 -53.333 -155.003 -108 -197.003s-125 -63 -211 -63c-51.333 0 -92.666 6.83301 -123.999 20.5s-54.833 32.334 -70.5 56.001s-24.834 51.334 -27.501 83.001s-0.333984 65.834 6.99902 102.501l80 425h138l-84 -436
c-8.66699 -44 -5.5 -77.333 9.5 -100s45.5 -34 91.5 -34c48 0 84.833 12 110.5 36s43.834 63.333 54.501 118l80 416h136zM550 716.997l-113 57l-134 -57l-22 63l168 81l141 -79z" />
    <glyph glyph-name="Udieresis" unicode="&#xdc;" horiz-adv-x="664" 
d="M604 248c-17.333 -89.333 -53.333 -155.003 -108 -197.003s-125 -63 -211 -63c-51.333 0 -92.666 6.83301 -123.999 20.5s-54.833 32.334 -70.5 56.001s-24.834 51.334 -27.501 83.001s-0.333984 65.834 6.99902 102.501l80 425h138l-84 -436
c-8.66699 -44 -5.5 -77.333 9.5 -100s45.5 -34 91.5 -34c48 0 84.833 12 110.5 36s43.834 63.333 54.501 118l80 416h136zM379 786.997c0 -20 -7.00098 -36.5 -21.001 -49.5s-30 -19.5 -48 -19.5c-18.667 0 -34 6.16699 -46 18.5s-18 27.166 -18 44.499
c0 20 6.83301 36.5 20.5 49.5s29.834 19.5 48.501 19.5s34 -6.16699 46 -18.5s18 -27.166 18 -44.499zM603.999 786.997c0 -20 -7.00098 -36.5 -21.001 -49.5s-30 -19.5 -48 -19.5c-18.667 0 -34 6.16699 -46 18.5s-18 27.166 -18 44.499c0 20 6.83301 36.5 20.5 49.5
s29.834 19.5 48.501 19.5s34 -6.16699 46 -18.5s18 -27.166 18 -44.499z" />
    <glyph glyph-name="Yacute" unicode="&#xdd;" horiz-adv-x="556" 
d="M348 238l-45 -238h-137l45 237l-124 438h145l47 -185c5.33301 -20 9.83301 -39.167 13.5 -57.5l10.5 -53.5h2c10 19.333 21.667 39.5 35 60.5l40 63.5l110 172h152zM340 713l-21 67l215 81l25 -87z" />
    <glyph glyph-name="Thorn" unicode="&#xde;" horiz-adv-x="529" 
d="M397 384c0 23.333 -7.33203 42.5 -21.999 57.5s-39 22.5 -73 22.5h-28c-8.66699 0 -16.667 -0.666992 -24 -2l-42 -218c12 -2 23 -3 33 -3c24.667 0 46.667 4 66 12s35.666 18.833 48.999 32.5s23.5 29 30.5 46s10.5 34.5 10.5 52.5zM541.001 401
c0 -36 -7.33496 -70.667 -22.002 -104s-35.5 -62.833 -62.5 -88.5s-59.833 -46.167 -98.5 -61.5s-82 -23 -130 -23c-12.667 0 -27 1 -43 3l-24 -127h-138l130 675h138l-19 -98c8.66699 0.666992 17.334 1 26.001 1h27c66.667 0 119.334 -15 158.001 -45s58 -74 58 -132z" />
    <glyph glyph-name="germandbls" unicode="&#xdf;" horiz-adv-x="595" 
d="M577 602c0 -22.667 -3.49707 -42.3301 -10.4971 -58.9971s-15.833 -31.167 -26.5 -43.5s-22.334 -23.5 -35.001 -33.5s-24.334 -19.833 -35.001 -29.5s-19.5 -19.667 -26.5 -30s-10.5 -22.5 -10.5 -36.5c0 -15.333 5.33301 -29.833 16 -43.5l35.5 -43.5
c13 -15.333 25 -32.5 36 -51.5s16.5 -41.5 16.5 -67.5c0 -22 -4.66699 -43.5 -14 -64.5s-23.333 -39.667 -42 -56s-42.334 -29.333 -71.001 -39s-62 -14.5 -100 -14.5c-17.333 0 -33 0.666992 -47 2s-27.333 3 -40 5l24 114c24 -9.33301 48.333 -14 73 -14
c23.333 0 41.5 5 54.5 15s19.5 23.667 19.5 41c0 16.667 -5.33301 31.834 -16 45.501l-34.5 42.5c-12.333 14.667 -23.833 31 -34.5 49s-16 40 -16 66c0 21.333 3.5 39.833 10.5 55.5s15.667 29.667 26 42s21.666 23.5 33.999 33.5s23.666 20.167 33.999 30.5
s19 21.166 26 32.499s10.5 24.333 10.5 39c0 13.333 -4.83301 23.833 -14.5 31.5s-24.167 11.5 -43.5 11.5c-30 0 -56 -10.833 -78 -32.5s-37.333 -55.167 -46 -100.5l-98 -516c-15.333 -81.333 -43 -140 -83 -176s-93 -54 -159 -54c-11.333 0 -23.5 0.666992 -36.5 2
s-25.167 3.33301 -36.5 6l31 110c8 -2.66699 16.333 -4.33398 25 -5.00098s17 -1 25 -1c14 0 26.167 1.83301 36.5 5.5s19.333 10.167 27 19.5s14.334 21.666 20.001 36.999s10.834 34.666 15.501 57.999l96 507c8 42.667 20.5 79.5 37.5 110.5s37.5 56.667 61.5 77
s51.167 35.333 81.5 45s62.833 14.5 97.5 14.5c56.667 0 101.5 -12 134.5 -36s49.5 -57.667 49.5 -101z" />
    <glyph glyph-name="agrave" unicode="&#xe0;" horiz-adv-x="543" 
d="M377 392c-7.33301 2 -15.166 3.66504 -23.499 4.99805s-17.833 2 -28.5 2c-26.667 0 -49.834 -7.16699 -69.501 -21.5s-36 -32.666 -49 -54.999s-22.667 -47 -29 -74s-9.5 -52.833 -9.5 -77.5c0 -22.667 2.83301 -39 8.5 -49s14.167 -15 25.5 -15
c16 0 33.167 8.5 51.5 25.5s35.5 38.333 51.5 64s30.167 53.334 42.5 83.001s20.5 57.167 24.5 82.5zM531 490.998l-29 -148.998l-24.5 -128c-7.66699 -40 -14.5 -77.5 -20.5 -112.5l-17 -101.5h-133c4.66699 19.333 10.5 40.666 17.5 63.999s15.833 50.666 26.5 81.999h-2
c-10 -18 -21.833 -36.333 -35.5 -55s-29 -35.5 -46 -50.5s-35.5 -27.333 -55.5 -37s-41.667 -14.5 -65 -14.5c-38.667 0 -68.167 12.5 -88.5 37.5s-30.5 64.5 -30.5 118.5c0 47.333 6.5 92.833 19.5 136.5s32.667 82.167 59 115.5s59.666 60 99.999 80s87.833 30 142.5 30
c30.667 0 61.334 -1.33301 92.001 -4s60.667 -6.66699 90 -12zM418 559l-188 94l58 96l179 -110z" />
    <glyph glyph-name="aacute" unicode="&#xe1;" horiz-adv-x="543" 
d="M377 392c-7.33301 2 -15.166 3.66504 -23.499 4.99805s-17.833 2 -28.5 2c-26.667 0 -49.834 -7.16699 -69.501 -21.5s-36 -32.666 -49 -54.999s-22.667 -47 -29 -74s-9.5 -52.833 -9.5 -77.5c0 -22.667 2.83301 -39 8.5 -49s14.167 -15 25.5 -15
c16 0 33.167 8.5 51.5 25.5s35.5 38.333 51.5 64s30.167 53.334 42.5 83.001s20.5 57.167 24.5 82.5zM531 490.998l-29 -148.998l-24.5 -128c-7.66699 -40 -14.5 -77.5 -20.5 -112.5l-17 -101.5h-133c4.66699 19.333 10.5 40.666 17.5 63.999s15.833 50.666 26.5 81.999h-2
c-10 -18 -21.833 -36.333 -35.5 -55s-29 -35.5 -46 -50.5s-35.5 -27.333 -55.5 -37s-41.667 -14.5 -65 -14.5c-38.667 0 -68.167 12.5 -88.5 37.5s-30.5 64.5 -30.5 118.5c0 47.333 6.5 92.833 19.5 136.5s32.667 82.167 59 115.5s59.666 60 99.999 80s87.833 30 142.5 30
c30.667 0 61.334 -1.33301 92.001 -4s60.667 -6.66699 90 -12zM354 560l-45 79l187 109l54 -94z" />
    <glyph glyph-name="acircumflex" unicode="&#xe2;" horiz-adv-x="543" 
d="M377 392c-7.33301 2 -15.166 3.66504 -23.499 4.99805s-17.833 2 -28.5 2c-26.667 0 -49.834 -7.16699 -69.501 -21.5s-36 -32.666 -49 -54.999s-22.667 -47 -29 -74s-9.5 -52.833 -9.5 -77.5c0 -22.667 2.83301 -39 8.5 -49s14.167 -15 25.5 -15
c16 0 33.167 8.5 51.5 25.5s35.5 38.333 51.5 64s30.167 53.334 42.5 83.001s20.5 57.167 24.5 82.5zM531 490.998l-29 -148.998l-24.5 -128c-7.66699 -40 -14.5 -77.5 -20.5 -112.5l-17 -101.5h-133c4.66699 19.333 10.5 40.666 17.5 63.999s15.833 50.666 26.5 81.999h-2
c-10 -18 -21.833 -36.333 -35.5 -55s-29 -35.5 -46 -50.5s-35.5 -27.333 -55.5 -37s-41.667 -14.5 -65 -14.5c-38.667 0 -68.167 12.5 -88.5 37.5s-30.5 64.5 -30.5 118.5c0 47.333 6.5 92.833 19.5 136.5s32.667 82.167 59 115.5s59.666 60 99.999 80s87.833 30 142.5 30
c30.667 0 61.334 -1.33301 92.001 -4s60.667 -6.66699 90 -12zM489 566l-111 62l-117 -62l-37 80l159 87l151 -86z" />
    <glyph glyph-name="atilde" unicode="&#xe3;" horiz-adv-x="543" 
d="M377 392c-7.33301 2 -15.166 3.66504 -23.499 4.99805s-17.833 2 -28.5 2c-26.667 0 -49.834 -7.16699 -69.501 -21.5s-36 -32.666 -49 -54.999s-22.667 -47 -29 -74s-9.5 -52.833 -9.5 -77.5c0 -22.667 2.83301 -39 8.5 -49s14.167 -15 25.5 -15
c16 0 33.167 8.5 51.5 25.5s35.5 38.333 51.5 64s30.167 53.334 42.5 83.001s20.5 57.167 24.5 82.5zM531 490.998l-29 -148.998l-24.5 -128c-7.66699 -40 -14.5 -77.5 -20.5 -112.5l-17 -101.5h-133c4.66699 19.333 10.5 40.666 17.5 63.999s15.833 50.666 26.5 81.999h-2
c-10 -18 -21.833 -36.333 -35.5 -55s-29 -35.5 -46 -50.5s-35.5 -27.333 -55.5 -37s-41.667 -14.5 -65 -14.5c-38.667 0 -68.167 12.5 -88.5 37.5s-30.5 64.5 -30.5 118.5c0 47.333 6.5 92.833 19.5 136.5s32.667 82.167 59 115.5s59.666 60 99.999 80s87.833 30 142.5 30
c30.667 0 61.334 -1.33301 92.001 -4s60.667 -6.66699 90 -12zM559 606c-12.667 -9.33301 -28.3301 -17.5 -46.9971 -24.5s-36.667 -10.5 -54 -10.5c-19.333 0 -35.333 2.5 -48 7.5s-24.167 10.667 -34.5 17s-20.833 12 -31.5 17s-23.667 7.5 -39 7.5
c-13.333 0 -26.5 -3 -39.5 -9s-24.5 -13.333 -34.5 -22l-5 95c13.333 11.333 28.166 20.666 44.499 27.999s34.166 11 53.499 11c18 0 33.167 -2.66699 45.5 -8s24 -11 35 -17s22.167 -11.667 33.5 -17s24.666 -8 39.999 -8c13.333 0 26.333 2.83301 39 8.5
s24.667 12.834 36 21.501z" />
    <glyph glyph-name="adieresis" unicode="&#xe4;" horiz-adv-x="543" 
d="M377 392c-7.33301 2 -15.166 3.66504 -23.499 4.99805s-17.833 2 -28.5 2c-26.667 0 -49.834 -7.16699 -69.501 -21.5s-36 -32.666 -49 -54.999s-22.667 -47 -29 -74s-9.5 -52.833 -9.5 -77.5c0 -22.667 2.83301 -39 8.5 -49s14.167 -15 25.5 -15
c16 0 33.167 8.5 51.5 25.5s35.5 38.333 51.5 64s30.167 53.334 42.5 83.001s20.5 57.167 24.5 82.5zM531 490.998l-29 -148.998l-24.5 -128c-7.66699 -40 -14.5 -77.5 -20.5 -112.5l-17 -101.5h-133c4.66699 19.333 10.5 40.666 17.5 63.999s15.833 50.666 26.5 81.999h-2
c-10 -18 -21.833 -36.333 -35.5 -55s-29 -35.5 -46 -50.5s-35.5 -27.333 -55.5 -37s-41.667 -14.5 -65 -14.5c-38.667 0 -68.167 12.5 -88.5 37.5s-30.5 64.5 -30.5 118.5c0 47.333 6.5 92.833 19.5 136.5s32.667 82.167 59 115.5s59.666 60 99.999 80s87.833 30 142.5 30
c30.667 0 61.334 -1.33301 92.001 -4s60.667 -6.66699 90 -12zM355 649c0 -21.333 -7.5 -39.166 -22.5 -53.499s-32.833 -21.5 -53.5 -21.5c-20 0 -36.667 7 -50 21s-20 30.667 -20 50c0 21.333 7.5 39.166 22.5 53.499s32.5 21.5 52.5 21.5c20.667 0 37.667 -7 51 -21
s20 -30.667 20 -50zM564 649c0 -21.333 -7.5 -39.166 -22.5 -53.499s-32.833 -21.5 -53.5 -21.5c-20 0 -36.667 7 -50 21s-20 30.667 -20 50c0 21.333 7.5 39.166 22.5 53.499s32.833 21.5 53.5 21.5c20 0 36.667 -7 50 -21s20 -30.667 20 -50z" />
    <glyph glyph-name="aring" unicode="&#xe5;" horiz-adv-x="543" 
d="M377 392c-7.33301 2 -15.166 3.66504 -23.499 4.99805s-17.833 2 -28.5 2c-26.667 0 -49.834 -7.16699 -69.501 -21.5s-36 -32.666 -49 -54.999s-22.667 -47 -29 -74s-9.5 -52.833 -9.5 -77.5c0 -22.667 2.83301 -39 8.5 -49s14.167 -15 25.5 -15
c16 0 33.167 8.5 51.5 25.5s35.5 38.333 51.5 64s30.167 53.334 42.5 83.001s20.5 57.167 24.5 82.5zM531 490.998l-29 -148.998l-24.5 -128c-7.66699 -40 -14.5 -77.5 -20.5 -112.5l-17 -101.5h-133c4.66699 19.333 10.5 40.666 17.5 63.999s15.833 50.666 26.5 81.999h-2
c-10 -18 -21.833 -36.333 -35.5 -55s-29 -35.5 -46 -50.5s-35.5 -27.333 -55.5 -37s-41.667 -14.5 -65 -14.5c-38.667 0 -68.167 12.5 -88.5 37.5s-30.5 64.5 -30.5 118.5c0 47.333 6.5 92.833 19.5 136.5s32.667 82.167 59 115.5s59.666 60 99.999 80s87.833 30 142.5 30
c30.667 0 61.334 -1.33301 92.001 -4s60.667 -6.66699 90 -12zM451 680c0 13.333 -4.33203 25.001 -12.999 35.001s-20.334 15 -35.001 15c-15.333 0 -28 -5.33301 -38 -16s-15 -23 -15 -37c-0.666992 -14 3.66602 -26 12.999 -36s21 -15 35 -15
c15.333 0 27.833 5.16699 37.5 15.5s14.834 23.166 15.501 38.499zM531.001 682.001c0 -18.667 -3.83301 -35.832 -11.5 -51.499s-17.834 -29.334 -30.501 -41.001s-27 -20.667 -43 -27s-33 -9.5 -51 -9.5s-34.667 3.16699 -50 9.5s-28.666 14.833 -39.999 25.5
s-20 23.334 -26 38.001s-9 30.667 -9 48c0.666992 18.667 4.66699 36 12 52s17.333 29.667 30 41s27 20.166 43 26.499s33 9.5 51 9.5s34.833 -3.16699 50.5 -9.5s29 -14.833 40 -25.5s19.5 -23.5 25.5 -38.5s9 -30.833 9 -47.5z" />
    <glyph glyph-name="ae" unicode="&#xe6;" horiz-adv-x="771" 
d="M316 207c-48.667 -2 -87.665 -8 -116.998 -18s-44 -28.667 -44 -56c0 -11.333 3.83301 -20.666 11.5 -27.999s18.5 -11 32.5 -11c15.333 0 29.666 3 42.999 9s25.166 14.333 35.499 25s18.833 22.667 25.5 36s11 27.666 13 42.999zM629.002 366
c0 12.667 -4.33203 22.4971 -12.999 29.4971s-20.334 10.5 -35.001 10.5s-28.167 -3.16699 -40.5 -9.5s-23.333 -14.666 -33 -24.999s-18 -22.166 -25 -35.499s-12.5 -27 -16.5 -41c24 0.666992 46 2.33398 66 5.00098s37.167 6.66699 51.5 12s25.5 12.333 33.5 21
s12 19.667 12 33zM762.003 383.997c0 -26 -5.66797 -49.665 -17.001 -70.998s-29.333 -39.833 -54 -55.5s-56.667 -28 -96 -37s-87.333 -14.167 -144 -15.5c-2 -12 -3 -25.333 -3 -40c0 -26 6.33301 -43.833 19 -53.5s35.667 -14.5 69 -14.5c24 0 48.5 2.66699 73.5 8
s49.167 12.666 72.5 21.999v-105c-28.667 -10.667 -59 -18.667 -91 -24s-64.667 -8 -98 -8c-50 0 -87.167 8.5 -111.5 25.5s-40.833 39.833 -49.5 68.5c-18 -27.333 -42.833 -49.833 -74.5 -67.5s-67.5 -26.5 -107.5 -26.5c-23.333 0 -43.166 3 -59.499 9
s-29.5 14.333 -39.5 25s-17.333 22.667 -22 36s-7 27.666 -7 42.999c0 32 7.5 59.833 22.5 83.5s36 43.5 63 59.5s59.667 28 98 36s80.833 12.667 127.5 14l6 24c6 25.333 3.66699 45.166 -7 59.499s-33.334 21.5 -68.001 21.5c-21.333 0 -44.833 -2.83301 -70.5 -8.5
s-50.167 -14.5 -73.5 -26.5v114c27.333 9.33301 56 16.5 86 21.5s59.667 7.5 89 7.5c20.667 0 38.834 -1.5 54.501 -4.5s29 -7 40 -12s20.333 -11 28 -18s14.167 -14.833 19.5 -23.5c17.333 14.667 40.333 27.667 69 39s58.667 17 90 17c32.667 0 59.667 -3.66699 81 -11
s38.333 -16.666 51 -27.999s21.5 -24.5 26.5 -39.5s7.5 -29.833 7.5 -44.5z" />
    <glyph glyph-name="ccedilla" unicode="&#xe7;" horiz-adv-x="412" 
d="M394 373c-25.333 12 -51.001 17.998 -77.001 17.998c-24.667 0 -46 -6.16699 -64 -18.5s-33 -28 -45 -47s-20.833 -40.167 -26.5 -63.5s-8.5 -46 -8.5 -68c0 -23.333 6 -43.166 18 -59.499s34 -24.5 66 -24.5c16 0 32.333 2 49 6s32.334 9.66699 47.001 17l7 -116
c-19.333 -7.33301 -41.666 -13.833 -66.999 -19.5s-50.666 -8.5 -75.999 -8.5c-33.333 0 -61.833 4.16699 -85.5 12.5s-43 20 -58 35s-26 33.333 -33 55s-10.5 45.834 -10.5 72.501c0 47.333 6.83301 91.833 20.5 133.5s33.167 78 58.5 109s56.166 55.5 92.499 73.5
s77.166 27 122.499 27c18 0 37 -1.66699 57 -5s38.667 -8.33301 56 -15zM245.999 -51.002c6 -18 8.66699 -36.167 8 -54.5s-6 -36 -16 -53s-25.167 -33.5 -45.5 -49.5s-47.166 -30.333 -80.499 -43l-56 55c65.333 40 87.666 88.333 66.999 145h123z" />
    <glyph glyph-name="egrave" unicode="&#xe8;" horiz-adv-x="487" 
d="M346 366c0 12.667 -4.16797 22.501 -12.501 29.501s-19.833 10.5 -34.5 10.5c-15.333 0 -29.166 -3.33301 -41.499 -10s-23.333 -15.334 -33 -26.001s-18 -23.167 -25 -37.5s-12.5 -28.833 -16.5 -43.5c52.667 1.33301 93 8 121 20s42 31 42 57zM477.999 384.001
c0 -30.667 -7.16699 -57.3311 -21.5 -79.998s-35 -41.5 -62 -56.5s-59.5 -26.5 -97.5 -34.5s-81 -12.667 -129 -14c-0.666992 -5.33301 -1.16699 -11.166 -1.5 -17.499s-0.5 -11.833 -0.5 -16.5c0 -26 6.16699 -43.833 18.5 -53.5s35.166 -14.5 68.499 -14.5
c23.333 0 47.5 2.66699 72.5 8s49.167 12.666 72.5 21.999v-105c-28 -10.667 -58.167 -18.667 -90.5 -24s-65.166 -8 -98.499 -8c-32.667 0 -60.334 3.66699 -83.001 11s-41.167 18.166 -55.5 32.499s-24.666 32.166 -30.999 53.499s-9.5 45.666 -9.5 72.999
c0 52.667 7.66699 100.5 23 143.5s36 79.5 62 109.5s56 53.167 90 69.5s70 24.5 108 24.5c32 0 58.667 -3.66699 80 -11s38.333 -16.666 51 -27.999s21.5 -24.5 26.5 -39.5s7.5 -29.833 7.5 -44.5zM377.999 559.004l-188 94l58 96l179 -110z" />
    <glyph glyph-name="eacute" unicode="&#xe9;" horiz-adv-x="487" 
d="M346 366c0 12.667 -4.16797 22.501 -12.501 29.501s-19.833 10.5 -34.5 10.5c-15.333 0 -29.166 -3.33301 -41.499 -10s-23.333 -15.334 -33 -26.001s-18 -23.167 -25 -37.5s-12.5 -28.833 -16.5 -43.5c52.667 1.33301 93 8 121 20s42 31 42 57zM477.999 384.001
c0 -30.667 -7.16699 -57.3311 -21.5 -79.998s-35 -41.5 -62 -56.5s-59.5 -26.5 -97.5 -34.5s-81 -12.667 -129 -14c-0.666992 -5.33301 -1.16699 -11.166 -1.5 -17.499s-0.5 -11.833 -0.5 -16.5c0 -26 6.16699 -43.833 18.5 -53.5s35.166 -14.5 68.499 -14.5
c23.333 0 47.5 2.66699 72.5 8s49.167 12.666 72.5 21.999v-105c-28 -10.667 -58.167 -18.667 -90.5 -24s-65.166 -8 -98.499 -8c-32.667 0 -60.334 3.66699 -83.001 11s-41.167 18.166 -55.5 32.499s-24.666 32.166 -30.999 53.499s-9.5 45.666 -9.5 72.999
c0 52.667 7.66699 100.5 23 143.5s36 79.5 62 109.5s56 53.167 90 69.5s70 24.5 108 24.5c32 0 58.667 -3.66699 80 -11s38.333 -16.666 51 -27.999s21.5 -24.5 26.5 -39.5s7.5 -29.833 7.5 -44.5zM288.999 560.004l-45 79l187 109l54 -94z" />
    <glyph glyph-name="ecircumflex" unicode="&#xea;" horiz-adv-x="487" 
d="M346 366c0 12.667 -4.16797 22.501 -12.501 29.501s-19.833 10.5 -34.5 10.5c-15.333 0 -29.166 -3.33301 -41.499 -10s-23.333 -15.334 -33 -26.001s-18 -23.167 -25 -37.5s-12.5 -28.833 -16.5 -43.5c52.667 1.33301 93 8 121 20s42 31 42 57zM477.999 384.001
c0 -30.667 -7.16699 -57.3311 -21.5 -79.998s-35 -41.5 -62 -56.5s-59.5 -26.5 -97.5 -34.5s-81 -12.667 -129 -14c-0.666992 -5.33301 -1.16699 -11.166 -1.5 -17.499s-0.5 -11.833 -0.5 -16.5c0 -26 6.16699 -43.833 18.5 -53.5s35.166 -14.5 68.499 -14.5
c23.333 0 47.5 2.66699 72.5 8s49.167 12.666 72.5 21.999v-105c-28 -10.667 -58.167 -18.667 -90.5 -24s-65.166 -8 -98.499 -8c-32.667 0 -60.334 3.66699 -83.001 11s-41.167 18.166 -55.5 32.499s-24.666 32.166 -30.999 53.499s-9.5 45.666 -9.5 72.999
c0 52.667 7.66699 100.5 23 143.5s36 79.5 62 109.5s56 53.167 90 69.5s70 24.5 108 24.5c32 0 58.667 -3.66699 80 -11s38.333 -16.666 51 -27.999s21.5 -24.5 26.5 -39.5s7.5 -29.833 7.5 -44.5zM438.999 566.004l-111 62l-117 -62l-37 80l159 87l151 -86z" />
    <glyph glyph-name="edieresis" unicode="&#xeb;" horiz-adv-x="487" 
d="M346 366c0 12.667 -4.16797 22.501 -12.501 29.501s-19.833 10.5 -34.5 10.5c-15.333 0 -29.166 -3.33301 -41.499 -10s-23.333 -15.334 -33 -26.001s-18 -23.167 -25 -37.5s-12.5 -28.833 -16.5 -43.5c52.667 1.33301 93 8 121 20s42 31 42 57zM477.999 384.001
c0 -30.667 -7.16699 -57.3311 -21.5 -79.998s-35 -41.5 -62 -56.5s-59.5 -26.5 -97.5 -34.5s-81 -12.667 -129 -14c-0.666992 -5.33301 -1.16699 -11.166 -1.5 -17.499s-0.5 -11.833 -0.5 -16.5c0 -26 6.16699 -43.833 18.5 -53.5s35.166 -14.5 68.499 -14.5
c23.333 0 47.5 2.66699 72.5 8s49.167 12.666 72.5 21.999v-105c-28 -10.667 -58.167 -18.667 -90.5 -24s-65.166 -8 -98.499 -8c-32.667 0 -60.334 3.66699 -83.001 11s-41.167 18.166 -55.5 32.499s-24.666 32.166 -30.999 53.499s-9.5 45.666 -9.5 72.999
c0 52.667 7.66699 100.5 23 143.5s36 79.5 62 109.5s56 53.167 90 69.5s70 24.5 108 24.5c32 0 58.667 -3.66699 80 -11s38.333 -16.666 51 -27.999s21.5 -24.5 26.5 -39.5s7.5 -29.833 7.5 -44.5zM308.999 649.004c0 -21.333 -7.5 -39.166 -22.5 -53.499
s-32.833 -21.5 -53.5 -21.5c-20 0 -36.667 7 -50 21s-20 30.667 -20 50c0 21.333 7.5 39.166 22.5 53.499s32.5 21.5 52.5 21.5c20.667 0 37.667 -7 51 -21s20 -30.667 20 -50zM517.999 649.004c0 -21.333 -7.5 -39.166 -22.5 -53.499s-32.833 -21.5 -53.5 -21.5
c-20 0 -36.667 7 -50 21s-20 30.667 -20 50c0 21.333 7.5 39.166 22.5 53.499s32.833 21.5 53.5 21.5c20 0 36.667 -7 50 -21s20 -30.667 20 -50z" />
    <glyph glyph-name="igrave" unicode="&#xec;" horiz-adv-x="264" 
d="M256 559l-188 94l58 96l179 -110zM157 0h-135l91 476l4 21h135z" />
    <glyph glyph-name="iacute" unicode="&#xed;" horiz-adv-x="264" 
d="M157 0h-135l91 476l4 21h135zM135 560l-45 79l187 109l54 -94z" />
    <glyph glyph-name="icircumflex" unicode="&#xee;" horiz-adv-x="264" 
d="M157 0h-135l91 476l4 21h135zM324 566l-111 62l-117 -62l-37 80l159 87l151 -86z" />
    <glyph glyph-name="idieresis" unicode="&#xef;" horiz-adv-x="264" 
d="M157 0h-135l91 476l4 21h135zM183 649c0 -21.333 -7.5 -39.166 -22.5 -53.499s-32.833 -21.5 -53.5 -21.5c-20 0 -36.667 7 -50 21s-20 30.667 -20 50c0 21.333 7.5 39.166 22.5 53.499s32.5 21.5 52.5 21.5c20.667 0 37.667 -7 51 -21s20 -30.667 20 -50zM392 649
c0 -21.333 -7.5 -39.166 -22.5 -53.499s-32.833 -21.5 -53.5 -21.5c-20 0 -36.667 7 -50 21s-20 30.667 -20 50c0 21.333 7.5 39.166 22.5 53.499s32.833 21.5 53.5 21.5c20 0 36.667 -7 50 -21s20 -30.667 20 -50z" />
    <glyph glyph-name="eth" unicode="&#xf0;" horiz-adv-x="558" 
d="M377 392c-7.33301 2 -15.166 3.66504 -23.499 4.99805s-17.833 2 -28.5 2c-26.667 0 -49.834 -7.16699 -69.501 -21.5s-36 -32.666 -49 -54.999s-22.667 -47 -29 -74s-9.5 -52.833 -9.5 -77.5c0 -22.667 2.83301 -39 8.5 -49s14.167 -15 25.5 -15
c16 0 33.167 8.5 51.5 25.5s35.5 38.333 51.5 64s30.167 53.334 42.5 83.001s20.5 57.167 24.5 82.5zM549 589.998l-108.998 -589.999h-132c3.33301 19.333 8.66602 40.666 15.999 63.999l27 82h-2c-10 -18 -21.833 -36.333 -35.5 -55s-29 -35.5 -46 -50.5
s-35.5 -27.333 -55.5 -37s-41.667 -14.5 -65 -14.5c-38.667 0 -68.167 12.5 -88.5 37.5s-30.5 64.5 -30.5 118.5c0 47.333 6.5 92.833 19.5 136.5s32.667 82.167 59 115.5s59.666 60 99.999 80s87.833 30 142.5 30c7.33301 0 14.833 -0.333008 22.5 -1
s16.5 -1.66699 26.5 -3l12 62l-73 -17l-1 93l92 21l13 68h136l-9 -43l65 15l-2 -94z" />
    <glyph glyph-name="ntilde" unicode="&#xf1;" horiz-adv-x="558" 
d="M452 0l-135.002 0.000976562l60 310c5.33301 28.667 5.83301 49.167 1.5 61.5s-13.833 18.5 -28.5 18.5c-15.333 0 -31.666 -8.16699 -48.999 -24.5s-34 -37.166 -50 -62.499s-30.333 -53.333 -43 -84s-21.667 -60.334 -27 -89.001l-24 -130h-135l50 260l11 58.5l11.5 63
l10.5 61.5l9 54h132c-2.66699 -14.667 -7.16699 -33.334 -13.5 -56.001s-15.833 -51.667 -28.5 -87l2 -1c11.333 20.667 24 40.5 38 59.5s29.5 35.5 46.5 49.5s35.333 25.167 55 33.5s41.167 12.5 64.5 12.5c24 0 44 -4 60 -12s28.333 -19.333 37 -34s13.834 -32 15.501 -52
s0.166992 -42 -4.5 -66zM513.998 606.001c-12.667 -9.33301 -28.3301 -17.5 -46.9971 -24.5s-36.667 -10.5 -54 -10.5c-19.333 0 -35.333 2.5 -48 7.5s-24.167 10.667 -34.5 17s-20.833 12 -31.5 17s-23.667 7.5 -39 7.5c-13.333 0 -26.5 -3 -39.5 -9
s-24.5 -13.333 -34.5 -22l-5 95c13.333 11.333 28.166 20.666 44.499 27.999s34.166 11 53.499 11c18 0 33.167 -2.66699 45.5 -8s24 -11 35 -17s22.167 -11.667 33.5 -17s24.666 -8 39.999 -8c13.333 0 26.333 2.83301 39 8.5s24.667 12.834 36 21.501z" />
    <glyph glyph-name="ograve" unicode="&#xf2;" horiz-adv-x="547" 
d="M387 308c0 26.667 -5.83398 47 -17.501 61s-31.167 21 -58.5 21c-22 0 -41.667 -6.16699 -59 -18.5s-32 -28.166 -44 -47.499s-21.167 -40.833 -27.5 -64.5s-9.5 -46.834 -9.5 -69.501c0 -25.333 5.33301 -45.333 16 -60s29.667 -22 57 -22c22 0 41.667 5.66699 59 17
s32.333 26.333 45 45s22.334 40 29.001 64s10 48.667 10 74zM528.999 326c0 -51.333 -8.33691 -97.668 -25.0039 -139.001s-39 -76.666 -67 -105.999s-60.167 -51.833 -96.5 -67.5s-74.166 -23.5 -113.499 -23.5c-71.333 0 -122.166 15.667 -152.499 47s-45.5 75 -45.5 131
c0 52.667 8.33301 100 25 142s38.834 77.5 66.501 106.5s59.834 51.333 96.501 67s75 23.5 115 23.5c36 0 66.5 -4.5 91.5 -13.5s45.333 -21.5 61 -37.5s27 -35.167 34 -57.5s10.5 -46.5 10.5 -72.5zM384.995 558.998l-188 94l58 96l179 -110z" />
    <glyph glyph-name="oacute" unicode="&#xf3;" horiz-adv-x="547" 
d="M387 308c0 26.667 -5.83398 47 -17.501 61s-31.167 21 -58.5 21c-22 0 -41.667 -6.16699 -59 -18.5s-32 -28.166 -44 -47.499s-21.167 -40.833 -27.5 -64.5s-9.5 -46.834 -9.5 -69.501c0 -25.333 5.33301 -45.333 16 -60s29.667 -22 57 -22c22 0 41.667 5.66699 59 17
s32.333 26.333 45 45s22.334 40 29.001 64s10 48.667 10 74zM528.999 326c0 -51.333 -8.33691 -97.668 -25.0039 -139.001s-39 -76.666 -67 -105.999s-60.167 -51.833 -96.5 -67.5s-74.166 -23.5 -113.499 -23.5c-71.333 0 -122.166 15.667 -152.499 47s-45.5 75 -45.5 131
c0 52.667 8.33301 100 25 142s38.834 77.5 66.501 106.5s59.834 51.333 96.501 67s75 23.5 115 23.5c36 0 66.5 -4.5 91.5 -13.5s45.333 -21.5 61 -37.5s27 -35.167 34 -57.5s10.5 -46.5 10.5 -72.5zM314.995 559.998l-45 79l187 109l54 -94z" />
    <glyph glyph-name="ocircumflex" unicode="&#xf4;" horiz-adv-x="547" 
d="M387 308c0 26.667 -5.83398 47 -17.501 61s-31.167 21 -58.5 21c-22 0 -41.667 -6.16699 -59 -18.5s-32 -28.166 -44 -47.499s-21.167 -40.833 -27.5 -64.5s-9.5 -46.834 -9.5 -69.501c0 -25.333 5.33301 -45.333 16 -60s29.667 -22 57 -22c22 0 41.667 5.66699 59 17
s32.333 26.333 45 45s22.334 40 29.001 64s10 48.667 10 74zM528.999 326c0 -51.333 -8.33691 -97.668 -25.0039 -139.001s-39 -76.666 -67 -105.999s-60.167 -51.833 -96.5 -67.5s-74.166 -23.5 -113.499 -23.5c-71.333 0 -122.166 15.667 -152.499 47s-45.5 75 -45.5 131
c0 52.667 8.33301 100 25 142s38.834 77.5 66.501 106.5s59.834 51.333 96.501 67s75 23.5 115 23.5c36 0 66.5 -4.5 91.5 -13.5s45.333 -21.5 61 -37.5s27 -35.167 34 -57.5s10.5 -46.5 10.5 -72.5zM467.995 565.998l-111 62l-117 -62l-37 80l159 87l151 -86z" />
    <glyph glyph-name="otilde" unicode="&#xf5;" horiz-adv-x="547" 
d="M387 308c0 26.667 -5.83398 47 -17.501 61s-31.167 21 -58.5 21c-22 0 -41.667 -6.16699 -59 -18.5s-32 -28.166 -44 -47.499s-21.167 -40.833 -27.5 -64.5s-9.5 -46.834 -9.5 -69.501c0 -25.333 5.33301 -45.333 16 -60s29.667 -22 57 -22c22 0 41.667 5.66699 59 17
s32.333 26.333 45 45s22.334 40 29.001 64s10 48.667 10 74zM528.999 326c0 -51.333 -8.33691 -97.668 -25.0039 -139.001s-39 -76.666 -67 -105.999s-60.167 -51.833 -96.5 -67.5s-74.166 -23.5 -113.499 -23.5c-71.333 0 -122.166 15.667 -152.499 47s-45.5 75 -45.5 131
c0 52.667 8.33301 100 25 142s38.834 77.5 66.501 106.5s59.834 51.333 96.501 67s75 23.5 115 23.5c36 0 66.5 -4.5 91.5 -13.5s45.333 -21.5 61 -37.5s27 -35.167 34 -57.5s10.5 -46.5 10.5 -72.5zM530.995 605.998c-12.667 -9.33301 -28.3301 -17.5 -46.9971 -24.5
s-36.667 -10.5 -54 -10.5c-19.333 0 -35.333 2.5 -48 7.5s-24.167 10.667 -34.5 17s-20.833 12 -31.5 17s-23.667 7.5 -39 7.5c-13.333 0 -26.5 -3 -39.5 -9s-24.5 -13.333 -34.5 -22l-5 95c13.333 11.333 28.166 20.666 44.499 27.999s34.166 11 53.499 11
c18 0 33.167 -2.66699 45.5 -8s24 -11 35 -17s22.167 -11.667 33.5 -17s24.666 -8 39.999 -8c13.333 0 26.333 2.83301 39 8.5s24.667 12.834 36 21.501z" />
    <glyph glyph-name="odieresis" unicode="&#xf6;" horiz-adv-x="547" 
d="M387 308c0 26.667 -5.83398 47 -17.501 61s-31.167 21 -58.5 21c-22 0 -41.667 -6.16699 -59 -18.5s-32 -28.166 -44 -47.499s-21.167 -40.833 -27.5 -64.5s-9.5 -46.834 -9.5 -69.501c0 -25.333 5.33301 -45.333 16 -60s29.667 -22 57 -22c22 0 41.667 5.66699 59 17
s32.333 26.333 45 45s22.334 40 29.001 64s10 48.667 10 74zM528.999 326c0 -51.333 -8.33691 -97.668 -25.0039 -139.001s-39 -76.666 -67 -105.999s-60.167 -51.833 -96.5 -67.5s-74.166 -23.5 -113.499 -23.5c-71.333 0 -122.166 15.667 -152.499 47s-45.5 75 -45.5 131
c0 52.667 8.33301 100 25 142s38.834 77.5 66.501 106.5s59.834 51.333 96.501 67s75 23.5 115 23.5c36 0 66.5 -4.5 91.5 -13.5s45.333 -21.5 61 -37.5s27 -35.167 34 -57.5s10.5 -46.5 10.5 -72.5zM328.995 648.998c0 -21.333 -7.5 -39.166 -22.5 -53.499
s-32.833 -21.5 -53.5 -21.5c-20 0 -36.667 7 -50 21s-20 30.667 -20 50c0 21.333 7.5 39.166 22.5 53.499s32.5 21.5 52.5 21.5c20.667 0 37.667 -7 51 -21s20 -30.667 20 -50zM537.995 648.998c0 -21.333 -7.5 -39.166 -22.5 -53.499s-32.833 -21.5 -53.5 -21.5
c-20 0 -36.667 7 -50 21s-20 30.667 -20 50c0 21.333 7.5 39.166 22.5 53.499s32.833 21.5 53.5 21.5c20 0 36.667 -7 50 -21s20 -30.667 20 -50z" />
    <glyph glyph-name="divide" unicode="&#xf7;" 
d="M310 60c0 -23.333 -8 -43.167 -24 -59.5s-35 -24.5 -57 -24.5c-22.667 0 -41.5 7.66699 -56.5 23s-22.5 33.333 -22.5 54c0 12 2.33301 23 7 33s10.667 18.833 18 26.5s16 13.667 26 18s20.667 6.5 32 6.5c22.667 0 41.167 -7.66699 55.5 -23s21.5 -33.333 21.5 -54z
M492 201.999h-466l21 111h467zM390 461.999c0 -12 -2.33398 -23.001 -7.00098 -33.001s-10.667 -18.667 -18 -26s-16.166 -13.166 -26.499 -17.499s-20.833 -6.5 -31.5 -6.5c-22 0 -40.667 7.66699 -56 23s-23 33 -23 53c0 24 8.5 44 25.5 60s36.5 24 58.5 24
s40.5 -7.66699 55.5 -23s22.5 -33.333 22.5 -54z" />
    <glyph glyph-name="oslash" unicode="&#xf8;" horiz-adv-x="547" 
d="M317 396c-10 1.33301 -18.9971 1.00098 -26.9971 -0.999023c-18.667 -2 -35.834 -8.83301 -51.501 -20.5s-29.334 -26.334 -41.001 -44.001s-20.834 -38 -27.501 -61s-10 -47.167 -10 -72.5c0 -22.667 4.66699 -40 14 -52zM399.003 308.001
c0 21.333 -5.99805 38.666 -17.998 51.999l-145 -257c4.66699 -1.33301 9.5 -2.16602 14.5 -2.49902s10.5 0.166992 16.5 1.5c21.333 3.33301 40.166 11.833 56.499 25.5s30.166 30.167 41.499 49.5s19.833 40.5 25.5 63.5s8.5 45.5 8.5 67.5zM530.005 326.001
c0 -51.333 -8.33398 -97.6689 -25.001 -139.002s-39 -76.666 -67 -105.999s-60.167 -51.833 -96.5 -67.5s-73.833 -23.5 -112.5 -23.5c-21.333 0 -38.666 1.33301 -51.999 4l-57 -101l-72 35l51 92c-24 14.667 -41.5 34.5 -52.5 59.5s-16.5 54.5 -16.5 88.5
c0 48.667 7.5 93.834 22.5 135.501s35.833 77.5 62.5 107.5s58.5 53.5 95.5 70.5s77.5 25.5 121.5 25.5c15.333 0 30 -1 44 -3l59 105l71 -34l-53 -94c27.333 -15.333 47 -36.5 59 -63.5s18 -57.5 18 -91.5z" />
    <glyph glyph-name="ugrave" unicode="&#xf9;" horiz-adv-x="557" 
d="M497 237c-3.33301 -16 -7.00098 -34.665 -11.001 -55.998l-12 -64.5c-4 -21.667 -7.66699 -42.834 -11 -63.501s-6.33301 -38.334 -9 -53.001h-132c3.33301 14.667 8 33.334 14 56.001s15.333 51.667 28 87l-2 1c-11.333 -21.333 -24 -41.333 -38 -60
s-29.333 -35 -46 -49s-35 -25.167 -55 -33.5s-41.667 -12.5 -65 -12.5c-24 0 -44 4.16699 -60 12.5s-28.167 19.666 -36.5 33.999s-13.333 31.5 -15 51.5s-0.166992 42 4.5 66l65 344h135l-59 -310c-5.33301 -28.667 -5.83301 -49.167 -1.5 -61.5s13.5 -18.5 27.5 -18.5
c14.667 0 30.834 8.16699 48.501 24.5s34.5 37.166 50.5 62.499s30.333 53.333 43 84s21.667 60.334 27 89.001l25 130h135zM390.999 559.002l-188 94l58 96l179 -110z" />
    <glyph glyph-name="uacute" unicode="&#xfa;" horiz-adv-x="557" 
d="M497 237c-3.33301 -16 -7.00098 -34.665 -11.001 -55.998l-12 -64.5c-4 -21.667 -7.66699 -42.834 -11 -63.501s-6.33301 -38.334 -9 -53.001h-132c3.33301 14.667 8 33.334 14 56.001s15.333 51.667 28 87l-2 1c-11.333 -21.333 -24 -41.333 -38 -60
s-29.333 -35 -46 -49s-35 -25.167 -55 -33.5s-41.667 -12.5 -65 -12.5c-24 0 -44 4.16699 -60 12.5s-28.167 19.666 -36.5 33.999s-13.333 31.5 -15 51.5s-0.166992 42 4.5 66l65 344h135l-59 -310c-5.33301 -28.667 -5.83301 -49.167 -1.5 -61.5s13.5 -18.5 27.5 -18.5
c14.667 0 30.834 8.16699 48.501 24.5s34.5 37.166 50.5 62.499s30.333 53.333 43 84s21.667 60.334 27 89.001l25 130h135zM306.999 560.002l-45 79l187 109l54 -94z" />
    <glyph glyph-name="ucircumflex" unicode="&#xfb;" horiz-adv-x="557" 
d="M497 237c-3.33301 -16 -7.00098 -34.665 -11.001 -55.998l-12 -64.5c-4 -21.667 -7.66699 -42.834 -11 -63.501s-6.33301 -38.334 -9 -53.001h-132c3.33301 14.667 8 33.334 14 56.001s15.333 51.667 28 87l-2 1c-11.333 -21.333 -24 -41.333 -38 -60
s-29.333 -35 -46 -49s-35 -25.167 -55 -33.5s-41.667 -12.5 -65 -12.5c-24 0 -44 4.16699 -60 12.5s-28.167 19.666 -36.5 33.999s-13.333 31.5 -15 51.5s-0.166992 42 4.5 66l65 344h135l-59 -310c-5.33301 -28.667 -5.83301 -49.167 -1.5 -61.5s13.5 -18.5 27.5 -18.5
c14.667 0 30.834 8.16699 48.501 24.5s34.5 37.166 50.5 62.499s30.333 53.333 43 84s21.667 60.334 27 89.001l25 130h135zM456.999 566.002l-111 62l-117 -62l-37 80l159 87l151 -86z" />
    <glyph glyph-name="udieresis" unicode="&#xfc;" horiz-adv-x="557" 
d="M497 237c-3.33301 -16 -7.00098 -34.665 -11.001 -55.998l-12 -64.5c-4 -21.667 -7.66699 -42.834 -11 -63.501s-6.33301 -38.334 -9 -53.001h-132c3.33301 14.667 8 33.334 14 56.001s15.333 51.667 28 87l-2 1c-11.333 -21.333 -24 -41.333 -38 -60
s-29.333 -35 -46 -49s-35 -25.167 -55 -33.5s-41.667 -12.5 -65 -12.5c-24 0 -44 4.16699 -60 12.5s-28.167 19.666 -36.5 33.999s-13.333 31.5 -15 51.5s-0.166992 42 4.5 66l65 344h135l-59 -310c-5.33301 -28.667 -5.83301 -49.167 -1.5 -61.5s13.5 -18.5 27.5 -18.5
c14.667 0 30.834 8.16699 48.501 24.5s34.5 37.166 50.5 62.499s30.333 53.333 43 84s21.667 60.334 27 89.001l25 130h135zM319.999 649.002c0 -21.333 -7.5 -39.166 -22.5 -53.499s-32.833 -21.5 -53.5 -21.5c-20 0 -36.667 7 -50 21s-20 30.667 -20 50
c0 21.333 7.5 39.166 22.5 53.499s32.5 21.5 52.5 21.5c20.667 0 37.667 -7 51 -21s20 -30.667 20 -50zM528.999 649.002c0 -21.333 -7.5 -39.166 -22.5 -53.499s-32.833 -21.5 -53.5 -21.5c-20 0 -36.667 7 -50 21s-20 30.667 -20 50c0 21.333 7.5 39.166 22.5 53.499
s32.833 21.5 53.5 21.5c20 0 36.667 -7 50 -21s20 -30.667 20 -50z" />
    <glyph glyph-name="yacute" unicode="&#xfd;" horiz-adv-x="522" 
d="M556 482c-36.667 -84.667 -71.167 -160.001 -103.5 -226.001s-63.5 -124.5 -93.5 -175.5s-59.5 -95.667 -88.5 -134s-57.833 -71.833 -86.5 -100.5c-34 -33.333 -67.167 -57.166 -99.5 -71.499s-65.166 -21.5 -98.499 -21.5c-12.667 0 -25.834 0.666992 -39.501 2
s-25.834 3.33301 -36.501 6l23 117c9.33301 -3.33301 19.166 -5.83301 29.499 -7.5s20.5 -2.5 30.5 -2.5c33.333 0 63 12.333 89 37c14 13.333 24.667 29.333 32 48s11 42.667 11 72c0 67.333 -6.66699 137.666 -20 210.999s-29.666 148.333 -48.999 225l-9 36h151
c6.66699 -26 12.834 -53.667 18.501 -83s10.667 -59.166 15 -89.499s7.83301 -60.333 10.5 -90s4 -57.5 4 -83.5c0 -5.33301 -0.333008 -11.333 -1 -18s-1.66699 -13 -3 -19h2c32 59.333 62.5 121.5 91.5 186.5s58.833 137.5 89.5 217.5zM276 559.999l-45 79l187 109l54 -94
z" />
    <glyph glyph-name="thorn" unicode="&#xfe;" horiz-adv-x="548" 
d="M387 326c0 22.667 -2.99805 39.002 -8.99805 49.002s-14.667 15 -26 15c-10.667 0 -22 -4 -34 -12s-23.667 -18.667 -35 -32s-22.5 -28.5 -33.5 -45.5s-20.833 -35 -29.5 -54s-16.334 -38 -23.001 -57s-11.334 -36.833 -14.001 -53.5l-5 -29
c7.33301 -2.66699 15.5 -4.83398 24.5 -6.50098s18.167 -2.5 27.5 -2.5c26 0 48.833 7.16699 68.5 21.5s36 32.666 49 54.999s22.833 47 29.5 74s10 52.833 10 77.5zM526.002 352.002c0 -47.333 -6.5 -92.667 -19.5 -136s-32.833 -81.666 -59.5 -114.999s-60 -60 -100 -80
s-87.333 -30 -142 -30c-8 0 -15.833 0.166992 -23.5 0.5s-16.5 1.16602 -26.5 2.49902l-43 -233h-135l184 969h137l-30 -156l-11.5 -54.5c-3.66699 -17 -8 -34 -13 -51s-10.667 -34.5 -17 -52.5s-13.833 -37.667 -22.5 -59l4 -1c24.667 44 53.834 80.333 87.501 109
s71.5 43 113.5 43c39.333 0 68.666 -12.5 87.999 -37.5s29 -64.5 29 -118.5z" />
    <glyph glyph-name="ydieresis" unicode="&#xff;" horiz-adv-x="522" 
d="M556 482c-36.667 -84.667 -71.167 -160.001 -103.5 -226.001s-63.5 -124.5 -93.5 -175.5s-59.5 -95.667 -88.5 -134s-57.833 -71.833 -86.5 -100.5c-34 -33.333 -67.167 -57.166 -99.5 -71.499s-65.166 -21.5 -98.499 -21.5c-12.667 0 -25.834 0.666992 -39.501 2
s-25.834 3.33301 -36.501 6l23 117c9.33301 -3.33301 19.166 -5.83301 29.499 -7.5s20.5 -2.5 30.5 -2.5c33.333 0 63 12.333 89 37c14 13.333 24.667 29.333 32 48s11 42.667 11 72c0 67.333 -6.66699 137.666 -20 210.999s-29.666 148.333 -48.999 225l-9 36h151
c6.66699 -26 12.834 -53.667 18.501 -83s10.667 -59.166 15 -89.499s7.83301 -60.333 10.5 -90s4 -57.5 4 -83.5c0 -5.33301 -0.333008 -11.333 -1 -18s-1.66699 -13 -3 -19h2c32 59.333 62.5 121.5 91.5 186.5s58.833 137.5 89.5 217.5zM289 648.999
c0 -21.333 -7.5 -39.166 -22.5 -53.499s-32.833 -21.5 -53.5 -21.5c-20 0 -36.667 7 -50 21s-20 30.667 -20 50c0 21.333 7.5 39.166 22.5 53.499s32.5 21.5 52.5 21.5c20.667 0 37.667 -7 51 -21s20 -30.667 20 -50zM498 648.999c0 -21.333 -7.5 -39.166 -22.5 -53.499
s-32.833 -21.5 -53.5 -21.5c-20 0 -36.667 7 -50 21s-20 30.667 -20 50c0 21.333 7.5 39.166 22.5 53.499s32.833 21.5 53.5 21.5c20 0 36.667 -7 50 -21s20 -30.667 20 -50z" />
    <glyph glyph-name="dotlessi" unicode="&#x131;" horiz-adv-x="264" 
d="M157 0h-135l91 476l4 21h135z" />
    <glyph glyph-name="Lslash" unicode="&#x141;" horiz-adv-x="431" 
d="M377 0h-349l50 257l-67 -21v104l89 27l59 308h138l-52 -269l97 28v-105l-118 -34l-32 -171h209z" />
    <glyph glyph-name="lslash" unicode="&#x142;" horiz-adv-x="294" 
d="M314 326l-86 -26l-57 -300h-136l50 263l-74 -22l7 104l89 27l68 358h136l-62 -320l72 21z" />
    <glyph glyph-name="OE" unicode="&#x152;" horiz-adv-x="800" 
d="M453 553c-8 1.33301 -16 2.33105 -24 2.99805s-15.667 1 -23 1c-31.333 0 -60.333 -8.5 -87 -25.5s-49.667 -39.667 -69 -68s-34.333 -60.666 -45 -96.999s-16 -73.5 -16 -111.5c0 -41.333 9.66699 -74.666 29 -99.999s51.666 -38 96.999 -38
c22.667 0 41.334 1.66699 56.001 5zM812 556.998l-226.003 0.000976562l-30 -153h216l-22 -114h-215l-32 -170h226l-23 -120h-268c-28.667 0 -54.5 -1.33301 -77.5 -4s-47.167 -4 -72.5 -4c-45.333 0 -83.666 6.16699 -114.999 18.5s-56.666 29.166 -75.999 50.499
s-33.333 46.833 -42 76.5s-13 62.167 -13 97.5c0 58.667 9 114.834 27 168.501s43.833 101 77.5 142s74.5 73.833 122.5 98.5s102 37 162 37c14 0 26.667 -0.333008 38 -1s22 -1.33398 32 -2.00098l29.5 -2c9.66699 -0.666992 19.834 -1 30.501 -1h274z" />
    <glyph glyph-name="oe" unicode="&#x153;" horiz-adv-x="826" 
d="M387 308c0 26.667 -5.83398 47 -17.501 61s-31.167 21 -58.5 21c-22 0 -41.667 -6.16699 -59 -18.5s-32 -28.166 -44 -47.499s-21.167 -40.833 -27.5 -64.5s-9.5 -46.834 -9.5 -69.501c0 -25.333 5.33301 -45.333 16 -60s29.667 -22 57 -22c22 0 41.667 5.66699 59 17
s32.333 26.333 45 45s22.334 40 29.001 64s10 48.667 10 74zM684.999 366c0 12.667 -4.16895 22.501 -12.502 29.501s-20.166 10.5 -35.499 10.5s-29.166 -3.33301 -41.499 -10s-23.333 -15.334 -33 -26.001s-18 -23.167 -25 -37.5s-12.5 -28.833 -16.5 -43.5
c52.667 1.33301 93.167 8 121.5 20s42.5 31 42.5 57zM817.997 384.001c0 -30.667 -7.33691 -57.332 -22.0039 -79.999s-35.5 -41.5 -62.5 -56.5s-59.667 -26.5 -98 -34.5s-81.166 -12.667 -128.499 -14c-1.33301 -5.33301 -2.16602 -11.166 -2.49902 -17.499
s-0.5 -11.833 -0.5 -16.5c0 -26 6.33301 -43.833 19 -53.5s35.667 -14.5 69 -14.5c24 0 48.5 2.66699 73.5 8s49.167 12.666 72.5 21.999v-105c-28.667 -10.667 -59 -18.667 -91 -24s-64.667 -8 -98 -8c-40 0 -71.5 5.83301 -94.5 17.5s-39.833 29.5 -50.5 53.5
c-23.333 -23.333 -50.166 -41 -80.499 -53s-62.166 -18 -95.499 -18c-71.333 0 -122.333 15.667 -153 47s-46 75 -46 131c0 49.333 7.5 94.666 22.5 135.999s35.833 77 62.5 107s58.5 53.5 95.5 70.5s77.5 25.5 121.5 25.5c38.667 0 70.167 -6 94.5 -18s43.5 -29 57.5 -51
c21.333 21.333 46 38.166 74 50.499s59.667 18.5 95 18.5c32.667 0 59.667 -3.66699 81 -11s38.333 -16.666 51 -27.999s21.5 -24.5 26.5 -39.5s7.5 -29.833 7.5 -44.5z" />
    <glyph glyph-name="Scaron" unicode="&#x160;" horiz-adv-x="462" 
d="M440 555c-14 5.33301 -29.166 9.16602 -45.499 11.499s-31.5 3.5 -45.5 3.5c-41.333 0 -71 -8.33301 -89 -25s-27 -35.667 -27 -57c0 -16 4.66699 -29.833 14 -41.5s21.166 -22.667 35.499 -33s29.833 -20.833 46.5 -31.5s32.167 -23 46.5 -37s26.166 -30.5 35.499 -49.5
s14 -42.167 14 -69.5c0 -33.333 -7 -64.333 -21 -93s-33.667 -53.834 -59 -75.501s-55.333 -38.667 -90 -51s-73 -18.5 -115 -18.5c-22.667 0 -45.667 1.33301 -69 4s-44.333 6 -63 10l34 130c16.667 -6 34.167 -10.833 52.5 -14.5s36.5 -5.5 54.5 -5.5
c41.333 0 72.5 7.83301 93.5 23.5s31.5 37.834 31.5 66.501c0 15.333 -4.66699 28.666 -14 39.999s-21 21.833 -35 31.5s-29.333 19.667 -46 30s-32 22.333 -46 36s-25.667 29.834 -35 48.501s-14 41.334 -14 68.001c0 31.333 5.66699 61 17 89s28.166 52.5 50.499 73.5
s50.333 37.667 84 50s73.167 18.5 118.5 18.5c20.667 0 40.834 -0.833008 60.501 -2.5s38.834 -4.5 57.501 -8.5zM325.001 717l-141 79l40 65l113 -57l133 57l24 -63z" />
    <glyph glyph-name="scaron" unicode="&#x161;" horiz-adv-x="376" 
d="M338 396c-20 6.66699 -41.665 9.99902 -64.998 9.99902c-24 0 -41.833 -4.33301 -53.5 -13s-17.5 -20.667 -17.5 -36c0 -14 6.5 -27 19.5 -39l42.5 -39c15.333 -14 29.5 -30.333 42.5 -49s19.5 -41.667 19.5 -69c0 -20.667 -4.66699 -41.167 -14 -61.5
s-23.5 -38.666 -42.5 -54.999s-43 -29.5 -72 -39.5s-63.167 -15 -102.5 -15c-16.667 0 -32.334 0.666992 -47.001 2s-28.667 3 -42 5l26 115c11.333 -4 23.666 -7.33301 36.999 -10s26 -4 38 -4c23.333 0 41.833 4.33301 55.5 13s20.5 21 20.5 37s-6.33301 29.667 -19 41
l-42 37c-15.333 13.333 -29.333 29 -42 47s-19 41.667 -19 71c0 22.667 4.5 44 13.5 64s22.5 37.333 40.5 52s40.667 26.167 68 34.5s59.333 12.5 96 12.5c30.667 0 58.667 -2 84 -6zM270.002 565.999l-151 85l44 82l112 -63l117 63l37 -80z" />
    <glyph glyph-name="Ydieresis" unicode="&#x178;" horiz-adv-x="556" 
d="M348 238l-45 -238h-137l45 237l-124 438h145l47 -185c5.33301 -20 9.83301 -39.167 13.5 -57.5l10.5 -53.5h2c10 19.333 21.667 39.5 35 60.5l40 63.5l110 172h152zM329 787c0 -20 -7.00098 -36.5 -21.001 -49.5s-30 -19.5 -48 -19.5c-18.667 0 -34 6.16699 -46 18.5
s-18 27.166 -18 44.499c0 20 6.83301 36.5 20.5 49.5s29.834 19.5 48.501 19.5s34 -6.16699 46 -18.5s18 -27.166 18 -44.499zM553.999 787c0 -20 -7.00098 -36.5 -21.001 -49.5s-30 -19.5 -48 -19.5c-18.667 0 -34 6.16699 -46 18.5s-18 27.166 -18 44.499
c0 20 6.83301 36.5 20.5 49.5s29.834 19.5 48.501 19.5s34 -6.16699 46 -18.5s18 -27.166 18 -44.499z" />
    <glyph glyph-name="Zcaron" unicode="&#x17d;" horiz-adv-x="520" 
d="M538 562l-304.001 -391c-11.333 -14 -23.666 -28.333 -36.999 -43c51.333 1.33301 97 2 137 2h126l-24 -130h-435l21 109l291 383c8 10.667 16.167 20.667 24.5 30l26.5 29c-18 -0.666992 -37.167 -1.16699 -57.5 -1.5s-38.5 -0.5 -54.5 -0.5h-138l23 126h422z
M376.999 717l-141 79l40 65l113 -57l133 57l24 -63z" />
    <glyph glyph-name="zcaron" unicode="&#x17e;" horiz-adv-x="439" 
d="M423 399l-222 -274c4.66699 0 11 0.166992 19 0.5s16.667 0.5 26 0.5h129l-24 -126h-349l19 98l226 278c-10 -0.666992 -18.333 -1.16699 -25 -1.5s-17.667 -0.5 -33 -0.5h-111l24 123h341zM293 566l-151 85l44 82l112 -63l117 63l37 -80z" />
    <glyph glyph-name="florin" unicode="&#x192;" 
d="M553 607c-11.333 3.33301 -22.833 5.66699 -34.5 7s-23.167 2 -34.5 2c-26.667 0 -48.667 -8.83301 -66 -26.5s-30.333 -43.167 -39 -76.5l-24 -91h153l-20 -101h-158l-60 -221c-13.333 -48 -27.833 -88.167 -43.5 -120.5s-33.667 -58.166 -54 -77.499
s-43.166 -33.166 -68.499 -41.499s-54.333 -12.5 -87 -12.5c-14 0 -28.333 0.833008 -43 2.5s-27.667 4.16699 -39 7.5l36 108c7.33301 -2.66699 17 -4.83398 29 -6.50098s22.667 -2.5 32 -2.5c22.667 0 42.334 9.5 59.001 28.5s30.667 49.5 42 91.5l66 244h-135l19 101h142
l22 84c19.333 74.667 49.666 129.667 90.999 165s94.666 53 159.999 53c14 0 29.333 -0.833008 46 -2.5s32 -3.83398 46 -6.50098z" />
    <glyph glyph-name="circumflex" unicode="&#x2c6;" horiz-adv-x="416" 
d="M382 566l-111 62l-117 -62l-37 80l159 87l151 -86z" />
    <glyph glyph-name="caron" unicode="&#x2c7;" horiz-adv-x="416" 
d="M266 566l-151 85l44 82l112 -63l117 63l37 -80z" />
    <glyph glyph-name="breve" unicode="&#x2d8;" horiz-adv-x="358" 
d="M415 725c-2 -21.333 -6.66797 -41.499 -14.001 -60.499s-17.333 -35.667 -30 -50s-28.5 -25.833 -47.5 -34.5s-40.833 -13 -65.5 -13s-45.167 4.33301 -61.5 13s-29.333 20.334 -39 35.001s-16 31.5 -19 50.5s-3.5 38.833 -1.5 59.5h89
c-1.33301 -16.667 1.16699 -30.334 7.5 -41.001s17.5 -16 33.5 -16c15.333 0 27.833 4.66699 37.5 14s15.834 23.666 18.501 42.999h92z" />
    <glyph glyph-name="dotaccent" unicode="&#x2d9;" horiz-adv-x="282" 
d="M241 655c-0.666992 -11.333 -3.33203 -21.833 -7.99902 -31.5s-11 -18.167 -19 -25.5s-17.167 -13.166 -27.5 -17.499s-21.5 -6.5 -33.5 -6.5c-10.667 0 -20.834 2.16699 -30.501 6.5s-18.167 10.166 -25.5 17.499s-13 15.833 -17 25.5s-5.66699 20.167 -5 31.5
c0 10.667 2.5 20.834 7.5 30.501s11.5 18.167 19.5 25.5s17 13.166 27 17.499s20.333 6.5 31 6.5c22.667 0 42 -7.83301 58 -23.5s23.667 -34.5 23 -56.5z" />
    <glyph glyph-name="ring" unicode="&#x2da;" horiz-adv-x="354" 
d="M311 654c0 13.333 -4.33203 25.001 -12.999 35.001s-20.334 15 -35.001 15c-15.333 0 -28 -5.33301 -38 -16s-15 -23 -15 -37c-0.666992 -14 3.66602 -26 12.999 -36s21 -15 35 -15c15.333 0 27.833 5.16699 37.5 15.5s14.834 23.166 15.501 38.499zM391.001 656.001
c0 -18.667 -3.83301 -35.832 -11.5 -51.499s-17.834 -29.334 -30.501 -41.001s-27 -20.667 -43 -27s-33 -9.5 -51 -9.5s-34.667 3.16699 -50 9.5s-28.666 14.833 -39.999 25.5s-20 23.334 -26 38.001s-9 30.667 -9 48c0.666992 18.667 4.66699 36 12 52s17.333 29.667 30 41
s27 20.166 43 26.499s33 9.5 51 9.5s34.833 -3.16699 50.5 -9.5s29 -14.833 40 -25.5s19.5 -23.5 25.5 -38.5s9 -30.833 9 -47.5z" />
    <glyph glyph-name="ogonek" unicode="&#x2db;" horiz-adv-x="250" 
d="M152 -239c-17.333 -5.33301 -34.498 -9 -51.498 -11s-32.167 -3 -45.5 -3c-17.333 0 -31.833 2.16699 -43.5 6.5s-21 10.333 -28 18s-12 16.5 -15 26.5s-4.5 21 -4.5 33c0 22.667 6.66699 48.5 20 77.5s32.666 58.167 57.999 87.5h100
c-17.333 -23.333 -31.5 -46.5 -42.5 -69.5s-16.5 -43.167 -16.5 -60.5c0 -16.667 6.16699 -26.5 18.5 -29.5s29.166 -1.83301 50.499 3.5v-79z" />
    <glyph glyph-name="tilde" unicode="&#x2dc;" horiz-adv-x="450" 
d="M462 606c-12.667 -9.33301 -28.3301 -17.5 -46.9971 -24.5s-36.667 -10.5 -54 -10.5c-19.333 0 -35.333 2.5 -48 7.5s-24.167 10.667 -34.5 17s-20.833 12 -31.5 17s-23.667 7.5 -39 7.5c-13.333 0 -26.5 -3 -39.5 -9s-24.5 -13.333 -34.5 -22l-5 95
c13.333 11.333 28.166 20.666 44.499 27.999s34.166 11 53.499 11c18 0 33.167 -2.66699 45.5 -8s24 -11 35 -17s22.167 -11.667 33.5 -17s24.666 -8 39.999 -8c13.333 0 26.333 2.83301 39 8.5s24.667 12.834 36 21.501z" />
    <glyph glyph-name="hungarumlaut" unicode="&#x2dd;" horiz-adv-x="497" 
d="M188 559l-69 60l145 160l82 -72zM386 554l-56 72l173 136l67 -86z" />
    <glyph glyph-name="Delta" unicode="&#x394;" horiz-adv-x="758" 
d="M373 520l-156 -394h312zM24 0l287 700h136l287 -700h-710z" />
    <glyph glyph-name="Delta" unicode="&#x2206;" horiz-adv-x="758" 
d="M373 520l-156 -394h312zM24 0l287 700h136l287 -700h-710z" />
    <glyph glyph-name="Omega" unicode="&#x3a9;" horiz-adv-x="749" 
d="M425 0l-0.000976562 96.999c38 23.333 67.667 56.5 89 99.5s32 94.5 32 154.5c0 32 -3.83301 61.667 -11.5 89s-18.667 51 -33 71s-32.166 35.667 -53.499 47s-45.666 17 -72.999 17c-26.667 0 -51 -5.5 -73 -16.5s-40.667 -26.167 -56 -45.5s-27.333 -42.5 -36 -69.5
s-13 -56.833 -13 -89.5c0 -62 9.83301 -113.167 29.5 -153.5s51.167 -74.5 94.5 -102.5v-98h-264v103h124c-38 26.667 -67.333 61.334 -88 104.001s-31 91.334 -31 146.001c0 47.333 7.5 91.333 22.5 132s36.5 76 64.5 106s61.833 53.5 101.5 70.5s83.834 25.5 132.501 25.5
c44 0 84.333 -7 121 -21s68.5 -34.833 95.5 -62.5s48 -61.5 63 -101.5s22.5 -86 22.5 -138c0 -27.333 -3 -54 -9 -80s-14.333 -50.167 -25 -72.5s-23.834 -42.833 -39.501 -61.5s-32.834 -34.334 -51.501 -47.001h128v-103h-263z" />
    <glyph glyph-name="Omega" unicode="&#x2126;" horiz-adv-x="749" 
d="M425 0l-0.000976562 96.999c38 23.333 67.667 56.5 89 99.5s32 94.5 32 154.5c0 32 -3.83301 61.667 -11.5 89s-18.667 51 -33 71s-32.166 35.667 -53.499 47s-45.666 17 -72.999 17c-26.667 0 -51 -5.5 -73 -16.5s-40.667 -26.167 -56 -45.5s-27.333 -42.5 -36 -69.5
s-13 -56.833 -13 -89.5c0 -62 9.83301 -113.167 29.5 -153.5s51.167 -74.5 94.5 -102.5v-98h-264v103h124c-38 26.667 -67.333 61.334 -88 104.001s-31 91.334 -31 146.001c0 47.333 7.5 91.333 22.5 132s36.5 76 64.5 106s61.833 53.5 101.5 70.5s83.834 25.5 132.501 25.5
c44 0 84.333 -7 121 -21s68.5 -34.833 95.5 -62.5s48 -61.5 63 -101.5s22.5 -86 22.5 -138c0 -27.333 -3 -54 -9 -80s-14.333 -50.167 -25 -72.5s-23.834 -42.833 -39.501 -61.5s-32.834 -34.334 -51.501 -47.001h128v-103h-263z" />
    <glyph glyph-name="pi" unicode="&#x3c0;" horiz-adv-x="648" 
d="M629 385l-93.001 -0.000976562l-37 -191c-4.66699 -23.333 -7.5 -42 -8.5 -56s-0.5 -24.667 1.5 -32s6 -12.166 12 -14.499s13.667 -3.5 23 -3.5c8 0 16 0.5 24 1.5s15 2.5 21 4.5l-8 -94c-15.333 -3.33301 -32.666 -6 -51.999 -8s-39 -3 -59 -3
c-43.333 0 -71.833 10.833 -85.5 32.5s-16.167 54.5 -7.5 98.5l51 265h-131l-74 -385h-125l74 385h-93l22 112h566z" />
    <glyph glyph-name="endash" unicode="&#x2013;" 
d="M50 229v120h450v-120h-450z" />
    <glyph glyph-name="emdash" unicode="&#x2014;" horiz-adv-x="1000" 
d="M0 229v120h1000v-120h-1000z" />
    <glyph glyph-name="quoteleft" unicode="&#x2018;" horiz-adv-x="267" 
d="M322 697c-20.667 -17.333 -36.999 -32.9961 -48.999 -46.9961s-20.5 -27 -25.5 -39s-6.66699 -23.333 -5 -34s5.83398 -21.334 12.501 -32.001c8 -12 12 -25.667 12 -41c0 -14.667 -3.16699 -28.334 -9.5 -41.001s-15.833 -23.334 -28.5 -32.001s-28 -13 -46 -13
c-24.667 0 -45.334 9.5 -62.001 28.5s-24 44.167 -22 75.5s16.167 67.166 42.5 107.499s70.166 81.833 131.499 124.5z" />
    <glyph glyph-name="quoteright" unicode="&#x2019;" horiz-adv-x="267" 
d="M217 743c16.667 0 31.666 -4.33398 44.999 -13.001s23.5 -20.834 30.5 -36.501s10 -34 9 -55s-7.5 -44 -19.5 -69s-30.5 -51.333 -55.5 -79s-57.833 -55.5 -98.5 -83.5l-49 57c20.667 17.333 37 33 49 47s20.5 27 25.5 39s6.66699 23.5 5 34.5
s-5.83398 21.833 -12.501 32.5c-8 12 -12.167 25.333 -12.5 40s2.83398 28.334 9.50098 41.001s16.334 23.334 29.001 32.001s27.667 13 45 13z" />
    <glyph glyph-name="quotesinglbase" unicode="&#x201a;" horiz-adv-x="267" 
d="M107 158c24.667 0 45.333 -9.50391 62 -28.5039s24 -44.167 22 -75.5s-16.167 -67.166 -42.5 -107.499s-69.833 -81.5 -130.5 -123.5l-50 57c20.667 16.667 37 32.167 49 46.5s20.5 27.5 25.5 39.5s6.66699 23.333 5 34s-5.83398 21.334 -12.501 32.001
c-8 12 -12 25.333 -12 40s3.33301 28.334 10 41.001s16.334 23.334 29.001 32.001s27.667 13 45 13z" />
    <glyph glyph-name="quotedblleft" unicode="&#x201c;" horiz-adv-x="489" 
d="M322 697c-20.667 -17.333 -36.999 -32.9961 -48.999 -46.9961s-20.5 -27 -25.5 -39s-6.66699 -23.333 -5 -34s5.83398 -21.334 12.501 -32.001c8 -12 12 -25.667 12 -41c0 -14.667 -3.16699 -28.334 -9.5 -41.001s-15.833 -23.334 -28.5 -32.001s-28 -13 -46 -13
c-24.667 0 -45.334 9.5 -62.001 28.5s-24 44.167 -22 75.5s16.167 67.166 42.5 107.499s70.166 81.833 131.499 124.5zM551.001 697.004c-20.667 -17.333 -37.001 -32.9961 -49.001 -46.9961s-20.333 -27 -25 -39s-6.16699 -23.333 -4.5 -34s5.83398 -21.334 12.501 -32.001
c8 -12 12 -25.667 12 -41c0 -14.667 -3.33301 -28.334 -10 -41.001s-16.334 -23.334 -29.001 -32.001s-27.667 -13 -45 -13c-16.667 0 -31.667 4.33301 -45 13s-23.5 20.667 -30.5 36s-10 33.666 -9 54.999s7.66699 44.5 20 69.5s30.833 51.167 55.5 78.5
s57.334 55.333 98.001 84z" />
    <glyph glyph-name="quotedblright" unicode="&#x201d;" horiz-adv-x="489" 
d="M217 743c16.667 0 31.666 -4.33398 44.999 -13.001s23.5 -20.834 30.5 -36.501s10 -34 9 -55s-7.5 -44 -19.5 -69s-30.5 -51.333 -55.5 -79s-57.833 -55.5 -98.5 -83.5l-49 57c20.667 17.333 37 33 49 47s20.5 27 25.5 39s6.66699 23.5 5 34.5
s-5.83398 21.833 -12.501 32.5c-8 12 -12.167 25.333 -12.5 40s2.83398 28.334 9.50098 41.001s16.334 23.334 29.001 32.001s27.667 13 45 13zM445.999 742.999c16.667 0 31.668 -4.33398 45.001 -13.001s23.5 -20.834 30.5 -36.501s10 -34 9 -55s-7.5 -44 -19.5 -69
s-30.5 -51.333 -55.5 -79s-57.833 -55.5 -98.5 -83.5l-49 57c20.667 17.333 37 33 49 47s20.5 27 25.5 39s6.66699 23.5 5 34.5s-5.83398 21.833 -12.501 32.5c-8 12 -12 25.333 -12 40s3.16699 28.334 9.5 41.001s15.833 23.334 28.5 32.001s27.667 13 45 13z" />
    <glyph glyph-name="quotedblbase" unicode="&#x201e;" horiz-adv-x="489" 
d="M107 158c24.667 0 45.333 -9.50391 62 -28.5039s24 -44.167 22 -75.5s-16.167 -67.166 -42.5 -107.499s-69.833 -81.5 -130.5 -123.5l-50 57c20.667 16.667 37 32.167 49 46.5s20.5 27.5 25.5 39.5s6.66699 23.333 5 34s-5.83398 21.334 -12.501 32.001
c-8 12 -12 25.333 -12 40s3.33301 28.334 10 41.001s16.334 23.334 29.001 32.001s27.667 13 45 13zM335.999 157.996c16.667 0 31.666 -4.33594 44.999 -13.0029s23.5 -20.667 30.5 -36s10 -33.666 9 -54.999s-7.5 -44.333 -19.5 -69s-30.5 -50.834 -55.5 -78.501
s-57.833 -55.5 -98.5 -83.5l-49 57c20.667 16.667 37 32.167 49 46.5s20.5 27.5 25.5 39.5s6.66699 23.333 5 34s-5.83398 21.334 -12.501 32.001c-8 12 -12.167 25.333 -12.5 40s2.83398 28.334 9.50098 41.001s16.334 23.334 29.001 32.001s27.667 13 45 13z" />
    <glyph glyph-name="dagger" unicode="&#x2020;" horiz-adv-x="470" 
d="M477 446h-145v-131l-88 -321h-104l34 321l50 131h-145l20 106h145l8 178h160l-60 -178h145z" />
    <glyph glyph-name="daggerdbl" unicode="&#x2021;" horiz-adv-x="470" 
d="M480 459h-144l6 -91l-41 -91h143l-20 -107h-142l-8 -170h-162l59 170h-144l19 107h144l-6 91l41 91h-144l20 106h144l7 165h160l-56 -165h143z" />
    <glyph glyph-name="bullet" unicode="&#x2022;" 
d="M404 296c0 -21.333 -4.33398 -41.5 -13.001 -60.5s-20 -35.5 -34 -49.5s-30.5 -25.167 -49.5 -33.5s-39.167 -12.5 -60.5 -12.5s-41.333 4.16699 -60 12.5s-35 19.5 -49 33.5s-24.833 30.5 -32.5 49.5s-11.167 39.167 -10.5 60.5c0 21.333 4.16699 41.333 12.5 60
s19.666 35 33.999 49s31 25.167 50 33.5s39.167 12.5 60.5 12.5s41.333 -4.16699 60 -12.5s34.834 -19.5 48.501 -33.5s24.334 -30.333 32.001 -49s11.5 -38.667 11.5 -60z" />
    <glyph glyph-name="ellipsis" unicode="&#x2026;" horiz-adv-x="765" 
d="M193 77c0 -12.667 -2.5 -24.333 -7.5 -35s-11.667 -20 -20 -28s-18 -14.333 -29 -19s-22.5 -7 -34.5 -7c-23.333 0 -42.833 8.33301 -58.5 25s-23.5 36 -23.5 58c0.666992 25.333 9.83398 46.833 27.501 64.5s38.5 26.5 62.5 26.5c12 0 23 -2.33301 33 -7
s18.667 -10.834 26 -18.501s13.166 -16.667 17.499 -27s6.5 -21.166 6.5 -32.499zM443 77.001c0 -12.667 -2.50195 -24.333 -7.50195 -35s-11.667 -20 -20 -28s-17.833 -14.333 -28.5 -19s-22 -7 -34 -7s-23.167 2.33301 -33.5 7s-19.166 10.667 -26.499 18s-13 16 -17 26
s-6 20.667 -6 32c0.666992 25.333 9.83398 46.833 27.501 64.5s38.5 26.5 62.5 26.5s44 -8.5 60 -25.5s23.667 -36.833 23 -59.5zM692.998 77.002c0 -12.667 -2.50195 -24.333 -7.50195 -35s-11.667 -20 -20 -28s-17.833 -14.333 -28.5 -19s-22 -7 -34 -7
s-23.167 2.33301 -33.5 7s-19.166 10.667 -26.499 18s-13 16 -17 26s-6 20.667 -6 32c0.666992 25.333 9.83398 46.833 27.501 64.5s38.5 26.5 62.5 26.5c12 0 23 -2.33301 33 -7s18.833 -10.834 26.5 -18.501s13.5 -16.667 17.5 -27s6 -21.166 6 -32.499z" />
    <glyph glyph-name="perthousand" unicode="&#x2030;" horiz-adv-x="1094" 
d="M608 189c0 11.333 -2.5 21.1689 -7.5 29.502s-14.167 12.5 -27.5 12.5c-10 0 -19.167 -3.16699 -27.5 -9.5s-15.333 -14.833 -21 -25.5s-10 -22.834 -13 -36.501s-4.5 -27.5 -4.5 -41.5c0 -13.333 2.33301 -24.333 7 -33s13.667 -13 27 -13c10 0 19.167 3.16699 27.5 9.5
s15.5 14.833 21.5 25.5s10.5 23.167 13.5 37.5s4.5 29.166 4.5 44.499zM298 561.003c0 11.333 -2.16699 21.335 -6.5 30.002s-13.166 13 -26.499 13c-10.667 0 -20 -3.33301 -28 -10s-14.833 -15.334 -20.5 -26.001s-10 -22.834 -13 -36.501s-4.5 -27.5 -4.5 -41.5
c0 -13.333 2.16699 -24.333 6.5 -33s13.166 -13 26.499 -13c10.667 0 20 3.16699 28 9.5s14.833 15 20.5 26s10 23.5 13 37.5s4.5 28.667 4.5 44zM947 189.005c0 11.333 -2.5 21.1689 -7.5 29.502s-14.167 12.5 -27.5 12.5c-10.667 0 -20 -3.16699 -28 -9.5
s-14.833 -14.833 -20.5 -25.5s-10 -22.834 -13 -36.501s-4.5 -27.5 -4.5 -41.5c0 -13.333 2.33301 -24.333 7 -33s13.667 -13 27 -13c10 0 19.167 3.16699 27.5 9.5s15.5 14.833 21.5 25.5s10.5 23.167 13.5 37.5s4.5 29.166 4.5 44.499zM715 198.008
c0 -31.333 -5 -60.499 -15 -87.499s-23.667 -50.333 -41 -70s-37.5 -35.167 -60.5 -46.5s-47.833 -17 -74.5 -17c-36.667 0 -66.667 10.167 -90 30.5s-35 54.166 -35 101.499c0 31.333 4.83301 60.333 14.5 87s23 49.667 40 69s37 34.333 60 45s47.833 16 74.5 16
c44 0 76.167 -11.667 96.5 -35s30.5 -54.333 30.5 -93zM159 -30.9912l-82 75l564 660l85 -76zM407 570.009c0 -31.333 -5.00098 -60.334 -15.001 -87.001s-23.667 -49.834 -41 -69.501s-37.666 -35.167 -60.999 -46.5s-48 -17 -74 -17c-18.667 0 -35.667 2.33301 -51 7
s-28.5 12.334 -39.5 23.001s-19.667 24.334 -26 41.001s-9.5 36.667 -9.5 60c0 31.333 4.83301 60.333 14.5 87s23 49.667 40 69s37 34.333 60 45s47.833 16 74.5 16c44 0 76.333 -11.5 97 -34.5s31 -54.167 31 -93.5zM1054 198.008
c0 -31.333 -5.00098 -60.499 -15.001 -87.499s-23.667 -50.333 -41 -70s-37.666 -35.167 -60.999 -46.5s-48 -17 -74 -17c-36.667 0 -66.667 10.167 -90 30.5s-35 54.166 -35 101.499c0 31.333 4.83301 60.333 14.5 87s23 49.667 40 69s37 34.333 60 45s47.833 16 74.5 16
c44 0 76.167 -11.667 96.5 -35s30.5 -54.333 30.5 -93z" />
    <glyph glyph-name="guilsinglleft" unicode="&#x2039;" horiz-adv-x="319" 
d="M184 250l75 -148l-115 -50l-91 198l136 202l100 -51z" />
    <glyph glyph-name="guilsinglright" unicode="&#x203a;" horiz-adv-x="319" 
d="M154 52l-100 49l105 152l-76 147l116 51l91 -199z" />
    <glyph glyph-name="fraction" unicode="&#x2044;" horiz-adv-x="431" 
d="M26 -133l-109 55l575 844l108 -55z" />
    <glyph glyph-name="fraction" unicode="&#x2215;" horiz-adv-x="431" 
d="M26 -133l-109 55l575 844l108 -55z" />
    <glyph glyph-name="uni20AC" unicode="&#x20a0;" 
d="M88 293c2.66699 15.333 5.66504 30.165 8.99805 44.498s7 28.833 11 43.5h-55l19 97h73c30.667 62.667 71.667 112 123 148s114.333 54 189 54c23.333 0 46.333 -2 69 -6s44.667 -9.66699 66 -17l-51 -110c-9.33301 4 -17.833 7.33301 -25.5 10
s-15.167 4.83398 -22.5 6.50098s-15.166 3 -23.499 4s-18.166 1.5 -29.499 1.5c-30 0 -57.333 -8.16699 -82 -24.5s-46.667 -38.5 -66 -66.5h174l-19 -97h-201c-4 -14.667 -7.5 -29.167 -10.5 -43.5s-5.16699 -29.166 -6.5 -44.499h201l-19 -97h-181
c5.33301 -30 17.333 -52.833 36 -68.5s44 -23.5 76 -23.5c22 0 42.333 2.33301 61 7s37 11 55 19l7 -108c-26.667 -10 -52 -17.667 -76 -23s-51 -8 -81 -8c-39.333 0 -72.833 5.33301 -100.5 16s-50.5 25.167 -68.5 43.5s-31.333 40 -40 65s-14 51.833 -16 80.5h-66l19 97
h52z" />
    <glyph glyph-name="uni20AC" unicode="&#x20ac;" 
d="M88 293c2.66699 15.333 5.66504 30.165 8.99805 44.498s7 28.833 11 43.5h-55l19 97h73c30.667 62.667 71.667 112 123 148s114.333 54 189 54c23.333 0 46.333 -2 69 -6s44.667 -9.66699 66 -17l-51 -110c-9.33301 4 -17.833 7.33301 -25.5 10
s-15.167 4.83398 -22.5 6.50098s-15.166 3 -23.499 4s-18.166 1.5 -29.499 1.5c-30 0 -57.333 -8.16699 -82 -24.5s-46.667 -38.5 -66 -66.5h174l-19 -97h-201c-4 -14.667 -7.5 -29.167 -10.5 -43.5s-5.16699 -29.166 -6.5 -44.499h201l-19 -97h-181
c5.33301 -30 17.333 -52.833 36 -68.5s44 -23.5 76 -23.5c22 0 42.333 2.33301 61 7s37 11 55 19l7 -108c-26.667 -10 -52 -17.667 -76 -23s-51 -8 -81 -8c-39.333 0 -72.833 5.33301 -100.5 16s-50.5 25.167 -68.5 43.5s-31.333 40 -40 65s-14 51.833 -16 80.5h-66l19 97
h52z" />
    <glyph glyph-name="trademark" unicode="&#x2122;" horiz-adv-x="673" 
d="M317 592h-62l-38 -198h-95l38 198h-65l16 83h222zM675 394h-99l6 114l3 46l-16 -43l-52 -117h-86l-8 120l1 40l-10 -36l-39 -124h-90l97 281h113l9 -115v-39l13 37l53 117h113z" />
    <glyph glyph-name="partialdiff" unicode="&#x2202;" horiz-adv-x="620" 
d="M400 257c0 22 -6.66797 40.667 -20.001 56s-35.333 23 -66 23c-19.333 0 -36.833 -4 -52.5 -12s-29.167 -18.5 -40.5 -31.5s-20 -28.167 -26 -45.5s-9 -35 -9 -53c0 -25.333 6.83301 -45.333 20.5 -60s33.834 -22 60.501 -22c20.667 0 39.167 4.33301 55.5 13
s30.333 19.834 42 33.501s20.5 29.167 26.5 46.5s9 34.666 9 51.999zM590.999 456c0 -34.667 -3.50195 -69.834 -10.502 -105.501s-17 -70.167 -30 -103.5s-29 -64.666 -48 -93.999s-40.5 -55 -64.5 -77c-27.333 -25.333 -57.833 -45.5 -91.5 -60.5
s-69.5 -22.5 -107.5 -22.5c-31.333 0 -58.666 4.5 -81.999 13.5s-42.666 21.5 -57.999 37.5s-27 34.667 -35 56s-12 44.333 -12 69c0 40 7.16699 77.167 21.5 111.5s33.833 64.333 58.5 90s53.667 45.834 87 60.501s69 22 107 22c26.667 0 51 -4.83301 73 -14.5
s38 -22.834 48 -39.501c0 8.66699 1.16699 20 3.5 34s2.5 29.667 0.5 47c-5.33301 42.667 -23.5 77.167 -54.5 103.5s-71.5 39.5 -121.5 39.5l39 115c44 -0.666992 83.167 -8.16699 117.5 -22.5s63.333 -34 87 -59s41.667 -54.5 54 -88.5s18.5 -71.333 18.5 -112z" />
    <glyph glyph-name="product" unicode="&#x220f;" horiz-adv-x="811" 
d="M810 614h-92l-169 -866h-126l167 866h-253l-168 -866h-127l168 866h-94l23 116h693z" />
    <glyph glyph-name="summation" unicode="&#x2211;" horiz-adv-x="635" 
d="M614 614h-328l194 -371l-338 -375h343l-24 -120h-509l20 110l354 396l-194 370l20 106h484z" />
    <glyph glyph-name="minus" unicode="&#x2212;" 
d="M446 217h-370l21 114h370z" />
    <glyph glyph-name="periodcentered" unicode="&#x2219;" horiz-adv-x="273" 
d="M236 291c0 -13.333 -2.66699 -25.6641 -8 -36.9971s-12.333 -21 -21 -29s-18.667 -14.333 -30 -19s-23 -7 -35 -7s-23 2.33301 -33 7s-18.667 10.667 -26 18s-12.833 16 -16.5 26s-5.5 20.333 -5.5 31c0 13.333 2.66699 25.666 8 36.999s12.333 21.166 21 29.499
s18.667 14.833 30 19.5s23 7 35 7s23 -2.33301 33 -7s18.5 -10.834 25.5 -18.501s12.5 -16.5 16.5 -26.5s6 -20.333 6 -31z" />
    <glyph glyph-name="radical" unicode="&#x221a;" 
d="M317 0l-175.998 -0.00195312l-35 399h-78l21 98h181l16 -268c0 -3.33301 0.333008 -9.33301 1 -18s1.33398 -18 2.00098 -28s1.16699 -19.5 1.5 -28.5s0.5 -15.833 0.5 -20.5l1 1c1.33301 4.66699 3.66602 11.334 6.99902 20.001s6.66602 17.834 9.99902 27.501
s6.66602 18.5 9.99902 26.5l7 17l211 532h144z" />
    <glyph glyph-name="infinity" unicode="&#x221e;" horiz-adv-x="987" 
d="M386 270c-30.667 23.333 -57.167 41.001 -79.5 53.001s-42.5 18 -60.5 18c-24.667 0 -43.167 -6.83301 -55.5 -20.5s-18.5 -29.834 -18.5 -48.501c0 -19.333 6.5 -35.5 19.5 -48.5s31.167 -19.5 54.5 -19.5c19.333 0 40.5 6 63.5 18s48.5 28 76.5 48zM815 274.001
c0 19.333 -6.49902 35.333 -19.499 48s-31.167 19 -54.5 19c-20 0 -41.667 -6.16699 -65 -18.5s-49 -28.5 -77 -48.5c31.333 -23.333 58.166 -40.833 80.499 -52.5s42.833 -17.5 61.5 -17.5c24.667 0 43.167 6.83301 55.5 20.5s18.5 30.167 18.5 49.5zM946.001 278.001
c0 -26 -4.5 -50.833 -13.5 -74.5s-22.5 -44.334 -40.5 -62.001s-40.167 -31.667 -66.5 -42s-56.833 -15.5 -91.5 -15.5c-36.667 0 -75 9 -115 27s-83.333 44.333 -130 79c-18 -13.333 -36.833 -26.333 -56.5 -39s-40 -24 -61 -34s-42.667 -18 -65 -24s-45.166 -9 -68.499 -9
c-33.333 0 -62.333 4.83301 -87 14.5s-45.167 22.834 -61.5 39.501s-28.666 36.167 -36.999 58.5s-12.5 45.833 -12.5 70.5c0 28 5 54 15 78s24.167 44.5 42.5 61.5s40.166 30.333 65.499 40s53.333 14.5 84 14.5c40 0 80.167 -9.33301 120.5 -28
s83.166 -45.334 128.499 -80.001c17.333 12.667 35.833 25.5 55.5 38.5s40 24.667 61 35s42.667 18.666 65 24.999s44.833 9.5 67.5 9.5c32 0 60.333 -4.66699 85 -14s45.667 -22.166 63 -38.499s30.5 -35.666 39.5 -57.999s13.5 -46.5 13.5 -72.5z" />
    <glyph glyph-name="integral" unicode="&#x222b;" horiz-adv-x="346" 
d="M389 613c-12 4 -25.667 6 -41 6c-9.33301 0 -17.666 -1.83301 -24.999 -5.5s-14 -10 -20 -19s-11.5 -21.333 -16.5 -37s-9.83301 -35.167 -14.5 -58.5c-8 -40 -14.833 -78.667 -20.5 -116l-17 -112l-18.5 -118c-6.66699 -41.333 -14.667 -86 -24 -134
c-8.66699 -48 -19.667 -89 -33 -123s-28.666 -61.833 -45.999 -83.5s-37.333 -37.5 -60 -47.5s-48.334 -15 -77.001 -15c-9.33301 0 -18.666 0.666992 -27.999 2s-17.666 3 -24.999 5l23 118l18.5 -4c6.33301 -1.33301 12.833 -2 19.5 -2c10 0 18.667 1.83301 26 5.5
s14.166 10 20.499 19s12 21.5 17 37.5s9.83301 36.333 14.5 61c7.33301 38 13.833 75.333 19.5 112l16.5 110.5c5.33301 37 11.333 76.333 18 118s15 87.167 25 136.5c9.33301 47.333 21 88.333 35 123s30.333 62.667 49 84s39.5 37 62.5 47s48.5 15 76.5 15
c7.33301 0 15.166 -0.5 23.499 -1.5s16.166 -2.5 23.499 -4.5z" />
    <glyph glyph-name="approxequal" unicode="&#x2248;" 
d="M467 125c-20.667 -18 -43.167 -32.333 -67.5 -43s-50.166 -16 -77.499 -16c-20.667 0 -37.667 3 -51 9s-25.666 12.667 -36.999 20s-23 14 -35 20s-27 9 -45 9c-17.333 0 -34 -4 -50 -12s-31.333 -18.667 -46 -32l-31 90c18 16 39.167 30.5 63.5 43.5
s48.166 19.5 71.499 19.5c20.667 0 38 -3 52 -9s27 -12.833 39 -20.5s24.333 -14.5 37 -20.5s28 -9 46 -9c19.333 0 37.166 3.66699 53.499 11s31.833 17 46.5 29zM505 324c-20 -18 -42.168 -32.5 -66.501 -43.5s-50.166 -16.5 -77.499 -16.5c-20.667 0 -37.667 3 -51 9
s-25.666 12.667 -36.999 20s-23 14 -35 20s-27 9 -45 9c-17.333 0 -34 -3.83301 -50 -11.5s-31.333 -18.167 -46 -31.5l-31 90c18 16 39 30.5 63 43.5s47.667 19.5 71 19.5c21.333 0 39 -3 53 -9s27 -12.833 39 -20.5s24.167 -14.5 36.5 -20.5s27.5 -9 45.5 -9
c19.333 0 37.166 3.66699 53.499 11s31.833 17 46.5 29z" />
    <glyph glyph-name="notequal" unicode="&#x2260;" 
d="M503 296h-151l-49 -87h184l-20 -105h-222l-66 -120h-120l68 120h-113l20 105h152l48 87h-183l20 106h222l67 119h118l-67 -119h114z" />
    <glyph glyph-name="lessequal" unicode="&#x2264;" 
d="M405 -80h-402l21 109h403zM247 319l186 -171l-95 -82l-261 263l345 252l73 -93z" />
    <glyph glyph-name="greaterequal" unicode="&#x2265;" 
d="M405 -80h-400l20 109h402zM145 66l-77 93l249 171l-181 169l95 82l260 -260z" />
    <glyph glyph-name="lozenge" unicode="&#x25ca;" horiz-adv-x="628" 
d="M309 534l-138 -192l147 -203l140 192zM359 -9h-86l-254 348l252 345h85l253 -348z" />
    <glyph glyph-name="Circumflex" unicode="&#xe001;" horiz-adv-x="267" 
d="M248 717l-113 57l-134 -57l-22 63l168 81l141 -79z" />
    <glyph glyph-name="Tilde" unicode="&#xe002;" horiz-adv-x="267" 
d="M321 779c-15.333 -15.333 -33.1689 -28.335 -53.502 -39.002s-43.166 -16 -68.499 -16c-16.667 0 -30.667 1.83301 -42 5.5s-21.666 7.83398 -30.999 12.501s-18.5 8.83398 -27.5 12.501s-19.833 5.5 -32.5 5.5c-17.333 0 -33 -3.83301 -47 -11.5
s-26.333 -16.167 -37 -25.5l-35 68c16.667 17.333 35.667 32 57 44s46 18 74 18c15.333 0 28.5 -2 39.5 -6s21.167 -8.16699 30.5 -12.5l28 -12.5c9.33301 -4 20.333 -6 33 -6c16.667 0 32 3.5 46 10.5s25.333 14.833 34 23.5z" />
    <glyph glyph-name="zero.alt1" unicode="&#xe003;" 
d="M405 453c0 32 -4.66699 55.333 -14 70s-26.666 22 -51.999 22c-18.667 0 -35.5 -6.66699 -50.5 -20s-28.333 -30.5 -40 -51.5s-21.667 -44.5 -30 -70.5s-15.166 -51.833 -20.499 -77.5s-9.16602 -49.667 -11.499 -72s-3.5 -40.5 -3.5 -54.5
c0 -32 4.83301 -55.333 14.5 -70s27.167 -22 52.5 -22c18.667 0 35.5 6.66699 50.5 20s28.167 30.5 39.5 51.5s21.166 44.5 29.499 70.5s15.166 51.833 20.499 77.5s9.16602 49.667 11.499 72s3.5 40.5 3.5 54.5zM550 458c0 -32 -2.49902 -66 -7.49902 -102
s-12.833 -71.333 -23.5 -106s-24.167 -67.834 -40.5 -99.501s-36.333 -59.5 -60 -83.5s-50.834 -43.167 -81.501 -57.5s-65.334 -21.5 -104.001 -21.5c-62.667 0 -110.834 15.5 -144.501 46.5s-50.5 83.5 -50.5 157.5c0 32 2.5 66 7.5 102s12.833 71.333 23.5 106
s24.334 67.834 41.001 99.501s36.834 59.5 60.501 83.5s51 43.167 82 57.5s65.833 21.5 104.5 21.5c62.667 0 110.5 -16 143.5 -48s49.5 -84 49.5 -156z" />
    <glyph glyph-name="one.alt1" unicode="&#xe004;" 
d="M464 0h-443l23 124h161l72 381l-150 -54v131l212 68h109l-101 -526h140z" />
    <glyph glyph-name="two.alt1" unicode="&#xe005;" 
d="M521 498c0 -22 -2.83008 -43.6641 -8.49707 -64.9971s-16.167 -43.833 -31.5 -67.5s-36.833 -49.334 -64.5 -77.001s-63.834 -58.5 -108.501 -92.5l-80 -64v-2c23.333 1.33301 50.333 2.16602 81 2.49902s62.667 0.5 96 0.5h73l-26 -133h-446l22 115l110 90
c46.667 37.333 84.667 69 114 95s52.166 48.833 68.499 68.5s27.333 37.167 33 52.5s8.5 30.666 8.5 45.999c0 19.333 -6.83301 35.333 -20.5 48s-35.5 19 -65.5 19c-26 0 -51.667 -4.33301 -77 -13s-47.666 -19 -66.999 -31l-7 125c27.333 13.333 57.666 24.333 90.999 33
s69.666 13 108.999 13c34 0 63.333 -4.16699 88 -12.5s45 -19.833 61 -34.5s27.833 -32 35.5 -52s11.5 -41.333 11.5 -64z" />
    <glyph glyph-name="three.alt1" unicode="&#xe006;" 
d="M525 518c0 -36 -11.833 -69.0029 -35.5 -99.0029s-58.167 -51.333 -103.5 -64l-1 -2c32.667 -6 57.5 -20.167 74.5 -42.5s25.5 -49.5 25.5 -81.5c0 -24.667 -5.66699 -51 -17 -79s-30.333 -54 -57 -78s-61.5 -44 -104.5 -60s-96.167 -24 -159.5 -24
c-27.333 0 -51.833 1.5 -73.5 4.5s-38.834 6.5 -51.501 10.5l33 118c14 -5.33301 30.833 -9.66602 50.5 -12.999s40.167 -5 61.5 -5c28 0 52.5 3.16699 73.5 9.5s38.5 14.5 52.5 24.5s24.333 21.5 31 34.5s10 26.167 10 39.5c0 20.667 -9.16699 37.334 -27.5 50.001
s-47.5 19 -87.5 19c-22 0 -41.667 -0.5 -59 -1.5s-35 -2.5 -53 -4.5l20 106h31c70 0 123.667 10.333 161 31s56 47.334 56 80.001c0 16.667 -7 30.167 -21 40.5s-36.667 15.5 -68 15.5c-25.333 0 -50 -3 -74 -9s-46.667 -13.667 -68 -23l-1 115
c26.667 9.33301 55.834 17 87.501 23s62.5 9 92.5 9c70.667 0 122 -13 154 -39s48 -61 48 -105z" />
    <glyph glyph-name="four.alt1" unicode="&#xe007;" 
d="M365 511l-201.001 -250c10 0 22.333 0.166992 37 0.5s29.334 0.5 44.001 0.5h42h31l48 249h-1zM450.999 262h86l-24 -123h-86l-26 -139h-136l26 139h-278l10 117l313 394h189z" />
    <glyph glyph-name="five.alt1" unicode="&#xe008;" 
d="M520 521l-248.004 -0.00195312l-22 -117c5.33301 0.666992 11 1 17 1h16c36.667 0 68.334 -4 95.001 -12s48.334 -19 65.001 -33s29 -30.5 37 -49.5s12 -39.5 12 -61.5c0 -40 -8.66699 -76 -26 -108s-40.666 -59.167 -69.999 -81.5s-64 -39.666 -104 -51.999
s-82.333 -18.5 -127 -18.5c-29.333 0 -53.833 0.833008 -73.5 2.5s-38.834 4.5 -57.501 8.5l24 125c18.667 -5.33301 38.334 -9.66602 59.001 -12.999s40.667 -5 60 -5c48 0 86.667 10.667 116 32s44 50.333 44 87c0 24 -10.667 41.833 -32 53.5s-55.666 17.5 -102.999 17.5
c-18.667 0 -37.5 -0.666992 -56.5 -2s-35.167 -3.33301 -48.5 -6l69 361h379z" />
    <glyph glyph-name="six.alt1" unicode="&#xe009;" 
d="M377 230c0 23.333 -6.50098 41.332 -19.501 53.999s-32.833 19 -59.5 19c-18 0 -34.5 -3.33301 -49.5 -10s-27.833 -15.5 -38.5 -26.5s-19 -23.833 -25 -38.5s-9 -30 -9 -46c0 -24 6.66699 -43.667 20 -59s33.666 -23 60.999 -23c16.667 0 32.334 3.33301 47.001 10
s27.334 15.834 38.001 27.501s19.167 25.5 25.5 41.5s9.5 33 9.5 51zM518.999 536.999c-12.667 2 -25.6621 3.66602 -38.9951 4.99902s-27 2 -41 2c-51.333 0 -94.5 -12.167 -129.5 -36.5s-63.167 -58.5 -84.5 -102.5c-4.66699 -7.33301 -8.83398 -15 -12.501 -23
s-6.83398 -15.667 -9.50098 -23h1c16 17.333 36.5 31 61.5 41s51.833 15 80.5 15c57.333 0 100.666 -14.333 129.999 -43s44 -66.667 44 -114c0 -39.333 -7.16699 -75.5 -21.5 -108.5s-34 -61.5 -59 -85.5s-54.833 -42.667 -89.5 -56s-72.334 -20 -113.001 -20
c-64.667 0 -114 16.833 -148 50.5s-51 83.834 -51 150.501c0 32.667 3.5 67 10.5 103s17.667 71.5 32 106.5s32.666 68.333 54.999 100s48.833 59.5 79.5 83.5s66 43 106 57s84.667 21 134 21c18 0 34.5 -0.5 49.5 -1.5s27.167 -2.16699 36.5 -3.5z" />
    <glyph glyph-name="seven.alt1" unicode="&#xe00a;" 
d="M559 531l-89 -133.002l-84 -138l-75.5 -135.5c-23.667 -44.333 -44.834 -85.833 -63.501 -124.5h-163l71.5 135l79 138l81 131l76.5 114c-7.33301 0 -18.5 -0.166992 -33.5 -0.5s-31.667 -0.666016 -50 -0.999023s-37.666 -0.666016 -57.999 -0.999023
s-39.5 -0.5 -57.5 -0.5h-89l26 135h451z" />
    <glyph glyph-name="eight.alt1" unicode="&#xe00b;" 
d="M251 98c30 0 55.999 7.83203 77.999 23.499s33 38.167 33 67.5c0 19.333 -8.16699 35.333 -24.5 48s-35.5 24.334 -57.5 35.001c-22 -10.667 -40.333 -21 -55 -31s-26.167 -19.833 -34.5 -29.5s-14.166 -19 -17.499 -28s-5 -18.167 -5 -27.5
c0 -16.667 6.83301 -30.5 20.5 -41.5s34.5 -16.5 62.5 -16.5zM409.999 501.999c0 15.333 -5.83203 28 -17.499 38s-29.5 15 -53.5 15c-32 0 -56.5 -8.33301 -73.5 -25s-25.5 -36.667 -25.5 -60c0 -16.667 6.66699 -30.667 20 -42s29.666 -22.333 48.999 -33
c36.667 18 62.667 35 78 51s23 34.667 23 56zM552 521.999c0 -40 -11.665 -74.668 -34.998 -104.001s-56.333 -55.666 -99 -78.999c24 -14.667 44.667 -32.167 62 -52.5s26 -46.5 26 -78.5c0 -34 -7.66699 -64.667 -23 -92s-35.833 -50.5 -61.5 -69.5
s-54.834 -33.5 -87.501 -43.5s-66 -15 -100 -15c-68.667 0 -121 12.833 -157 38.5s-54 61.5 -54 107.5c0 25.333 4 47.833 12 67.5s18.833 37.334 32.5 53.001s29.5 29.5 47.5 41.5s36.667 23 56 33c-20 13.333 -37.167 29.5 -51.5 48.5s-21.5 42.833 -21.5 71.5
c0 29.333 6.66699 56.833 20 82.5s31.5 48.167 54.5 67.5s50 34.666 81 45.999s64.5 17 100.5 17c65.333 0 114.666 -12.833 147.999 -38.5s50 -59.5 50 -101.5z" />
    <glyph glyph-name="nine.alt1" unicode="&#xe00c;" 
d="M407 471c0 24 -6.83105 43.168 -20.498 57.501s-33.167 21.5 -58.5 21.5c-18 0 -34.5 -3.66699 -49.5 -11s-27.667 -17 -38 -29s-18.333 -25.833 -24 -41.5s-8.5 -31.834 -8.5 -48.501c0 -24 6.66699 -42.167 20 -54.5s32.666 -18.5 57.999 -18.5c16 0 31.167 3 45.5 9
s27.166 14.333 38.499 25s20.333 23.667 27 39s10 32.333 10 51zM547.002 461.001c0 -27.333 -2.49707 -57.998 -7.49707 -91.998s-13.667 -68.333 -26 -103s-28.833 -68.667 -49.5 -102s-46.334 -62.833 -77.001 -88.5s-66.834 -46.334 -108.501 -62.001
s-89.834 -23.5 -144.501 -23.5c-21.333 0 -40.166 0.5 -56.499 1.5s-31.5 2.83301 -45.5 5.5l23 122c12 -4 26.833 -7.16699 44.5 -9.5s34.167 -3.5 49.5 -3.5c25.333 0 49.166 3.5 71.499 10.5s42.833 16.833 61.5 29.5s35 27.667 49 45s25.333 36.666 34 57.999
c2.66699 6 5 11.5 7 16.5l6 15.5h-1c-37.333 -32 -82 -48 -134 -48c-52.667 0 -95 13.5 -127 40.5s-48 66.833 -48 119.5c0 34 6.33301 67.167 19 99.5s31 61 55 86s53.167 45.167 87.5 60.5s73.5 23 117.5 23c30.667 0 58.334 -3.83301 83.001 -11.5s45.667 -19.5 63 -35.5
s30.666 -36.667 39.999 -62s14 -56 14 -92z" />
    <glyph glyph-name="apple" unicode="&#xf000;" horiz-adv-x="1000" 
d="M449 163c-1.33301 -4.66699 -0.666992 -8.00195 2 -10.002s4.33398 -4.66699 5.00098 -8c4.66699 -9.33301 6 -19 4 -29s-6.33301 -18.667 -13 -26c-1.33301 -2.66699 -3.16602 -4.16699 -5.49902 -4.5s-4.5 -1.16602 -6.5 -2.49902
c-8.66699 1.33301 -13.5 5.66602 -14.5 12.999s-2.16699 14 -3.5 20c1.33301 5.33301 2.16602 10.833 2.49902 16.5s2.16602 10.834 5.49902 15.501c4.66699 2.66699 8 6.33398 10 11.001s5.66699 7 11 7zM320.999 109.998c0 -5.33301 -1.49805 -9.66699 -4.49805 -13
s-6.16699 -6.66602 -9.5 -9.99902c-2.66699 -0.666992 -5.33398 -2 -8.00098 -4s-5.66699 -2 -9 0c-4.66699 1.33301 -6.33398 3.83301 -5.00098 7.5s2.33301 7.16699 3 10.5c0 4 3 7.33301 9 10c4 0 7.33301 1.33301 10 4c2 -0.666992 4.5 -0.833984 7.5 -0.500977
s5.16699 -1.16699 6.5 -4.5zM434.001 579.997c4 4 8.50195 7.66797 13.502 11.001s6.16699 8.66602 3.5 15.999c-1.33301 7.33301 -3.83301 14.5 -7.5 21.5s-9.83398 11.167 -18.501 12.5c-1.33301 -3.33301 -3.5 -4.5 -6.5 -3.5s-5.5 1.16699 -7.5 0.5
c-4.66699 2 -9.33398 2.33301 -14.001 1s-8.66699 -3.66602 -12 -6.99902c-7.33301 -10 -8.5 -19.667 -3.5 -29s10.167 -18.333 15.5 -27c1.33301 -2.66699 3 -3.66699 5 -3s4.33301 0.666992 7 0c4.66699 -1.33301 9 -0.833008 13 1.5s8 4.16602 12 5.49902z
M473.003 626.998c2 -12.667 -0.333008 -22.999 -7 -30.999c-7.33301 -4.66699 -14 -9.83398 -20 -15.501s-13.333 -9.16699 -22 -10.5c-4 1.33301 -6.33301 0.166016 -7 -3.50098s-2.66699 -4.16699 -6 -1.5s-7.33301 3.33398 -12 2.00098s-9 -1.66602 -13 -0.999023
c-4 0 -7.66699 0.166992 -11 0.5s-6.66602 1.16602 -9.99902 2.49902c-5.33301 4.66699 -10.5 9.83398 -15.5 15.501s-5.83301 12.5 -2.5 20.5c2 6 4.83301 11.667 8.5 17s8.83398 9.66602 15.501 12.999l22 10.5c7.33301 3.66699 15.666 4.5 24.999 2.5
c10.667 -0.666992 21.167 -2 31.5 -4s18.166 -7.66699 23.499 -17zM762.003 675.999c3.33301 -5.33301 4.33398 -11.167 3.00098 -17.5s-0.666016 -12.5 2.00098 -18.5c2.66699 -4 6.16699 -5.33301 10.5 -4s8.16602 1.33301 11.499 0
c15.333 1.33301 31.666 1.83301 48.999 1.5s38.666 1.16699 63.999 4.5c5.33301 -2 6 -4.33301 2 -7c-7.33301 1.33301 -14.333 1.5 -21 0.5s-13.667 -1.83301 -21 -2.5c-22.667 -1.33301 -40.5 -2.33301 -53.5 -3s-25.167 -2 -36.5 -4
c-5.33301 -4.66699 -7.66602 -10 -6.99902 -16s-0.333008 -11.667 -3 -17c0 -3.33301 0.5 -6 1.5 -8s1.83301 -4.33301 2.5 -7c2.66699 -3.33301 7.33398 -5.66602 14.001 -6.99902c4.66699 0.666992 9.16699 2 13.5 4s7.5 5 9.5 9c0 4.66699 -2.33301 8.66699 -7 12
c-3.33301 2.66699 -6.83301 3.66699 -10.5 3s-6.83398 0.666016 -9.50098 3.99902c2 3.33301 5.16699 4.66602 9.5 3.99902s8.5 -1 12.5 -1c6.66699 -2 11.667 -7.33301 15 -16c-0.666992 -10 -6.66699 -19 -18 -27c-3.33301 -1.33301 -6.83301 -2.16602 -10.5 -2.49902
s-7.16699 -1.16602 -10.5 -2.49902c-8 2 -16.167 4.66699 -24.5 8s-15.166 8.66602 -20.499 15.999c-2.66699 8 -3 15.5 -1 22.5s3.33301 14.167 4 21.5c-1.33301 3.33301 -3.33301 4.66602 -6 3.99902s-5.66699 -0.666992 -9 0l-33 -1c0 1.33301 -0.333008 2 -1 2
s-1 0.666992 -1 2c2 1.33301 4.33301 2 7 2s5 0.333008 7 1c6 -1.33301 12.333 -1.66602 19 -0.999023s13 1 19 1c2.66699 2 4.16699 4.5 4.5 7.5s0.5 6.16699 0.5 9.5c2 4.66699 3.16699 10 3.5 16s2.16602 10.667 5.49902 14c3.33301 2 6 1.66699 8 -1s4 -4.66699 6 -6z
M641.004 633.998c1.33301 -7.33301 1.8291 -14.4932 1.49609 -21.4932s-0.166016 -14.167 0.500977 -21.5c1.33301 -2 1.83301 -4.16699 1.5 -6.5s0.5 -4.16602 2.5 -5.49902c6 -1.33301 10.333 -1.33301 13 0c2.66699 0 5.33398 -0.333008 8.00098 -1s5.66699 -1 9 -1
c2 -2 1 -4.33301 -3 -7c-8 0 -16.5 -0.166992 -25.5 -0.5s-17.5 -1.83301 -25.5 -4.5c-2.66699 1.33301 -5.16699 2.16602 -7.5 2.49902s-4.16602 2.16602 -5.49902 5.49902c1.33301 9.33301 2.5 18.666 3.5 27.999s0.166992 18.666 -2.5 27.999
c-1.33301 2 -3.5 2.16699 -6.5 0.5s-5.5 -3.16699 -7.5 -4.5c-9.33301 -5.33301 -18.166 -11.833 -26.499 -19.5s-13.166 -17.167 -14.499 -28.5c-2.66699 -2.66699 -5.66699 -4.5 -9 -5.5s-6.66602 -0.833008 -9.99902 0.5c-3.33301 4.66699 -4.33301 9.66699 -3 15
s1.33301 10.666 0 15.999l-1 31c-2 2 -4.66699 2.5 -8 1.5s-6.66602 -0.833008 -9.99902 0.5c-1.33301 1.33301 -3.5 1.66602 -6.5 0.999023s-4.5 0.666016 -4.5 3.99902c8.66699 -0.666992 17.167 -0.333984 25.5 0.999023s17.166 1.33301 26.499 0c2 -2 3 -4.33301 3 -7
v-8c0 -2.66699 0.166992 -5.16699 0.5 -7.5s2.16602 -3.83301 5.49902 -4.5c9.33301 4 18 8.83301 26 14.5s16.667 10.167 26 13.5c4 -2.66699 8.66699 -3.16699 14 -1.5s8.66602 -0.833008 9.99902 -7.5zM396 780.005c3.33301 -1.33301 6.67383 -1.99512 10.0068 -1.99512
s6.66602 -0.666992 9.99902 -2c11.333 -2.66699 22.666 -6.66699 33.999 -12s20.666 -13 27.999 -23c1.33301 -1.33301 1.33301 -4.33301 0 -9c-8 -8.66699 -17.667 -11.334 -29 -8.00098c-3.33301 4 -6.33301 7.83301 -9 11.5s-4.33398 7.83398 -5.00098 12.501
c-8.66699 13.333 -20.334 21.666 -35.001 24.999s-29 7 -43 11l-31 2c-1.33301 -1.33301 -3.33301 -1.66602 -6 -0.999023s-5 0.333984 -7 -0.999023c-22 -6.66699 -40.333 -13.667 -55 -21c-4 -5.33301 -9.16699 -9.83301 -15.5 -13.5s-10.166 -9.16699 -11.499 -16.5
c-4 -10 -6.66699 -21.333 -8 -34s-2.33301 -24.667 -3 -36c3.33301 -2.66699 7 -3.5 11 -2.5s7.66699 1.16699 11 0.5c14 1.33301 28 2 42 2h44c2.66699 -1.33301 3 -3.66602 1 -6.99902c-5.33301 -4 -10.5 -4.16699 -15.5 -0.5s-10.167 4.5 -15.5 2.5
c-6.66699 0.666992 -13.5 0.5 -20.5 -0.5s-13.833 -1.16699 -20.5 -0.5c-6 -1.33301 -12.333 -2 -19 -2c-6 0 -11.667 -1.66699 -17 -5l-3 -4c-1.33301 -12.667 -1.83301 -23 -1.5 -31s1.16602 -18.667 2.49902 -32c1.33301 -4.66699 1.5 -9.33398 0.5 -14.001
s0.166992 -9.33398 3.5 -14.001c8.66699 -0.666992 15.5 -0.833984 20.5 -0.500977s9.66699 0.666016 14 0.999023s9 0.833008 14 1.5s11.833 1 20.5 1c2 1.33301 4.16699 1.66602 6.5 0.999023s4.5 -1.33398 6.5 -2.00098c1.33301 -3.33301 0.333008 -5.33301 -3 -6
c-8 1.33301 -15 1.83301 -21 1.5s-12 -0.833008 -18 -1.5s-12.667 -1.33398 -20 -2.00098s-16 -0.666992 -26 0l-23 -2c-8 -0.666992 -15.667 -0.666992 -23 0c-10.667 -0.666992 -21.667 -1 -33 -1s-21.666 1.33301 -30.999 4l-2 3c2 2 5 3.66699 9 5
c5.33301 -2.66699 11.333 -4.16699 18 -4.5s13.667 -1.16602 21 -2.49902c4.66699 0.666992 9.33398 0.833984 14.001 0.500977s8.66699 0.833984 12 3.50098c-0.666992 17.333 0.666016 32.666 3.99902 45.999s5.66602 29 6.99902 47
c-0.666992 1.33301 -1.66699 2.66602 -3 3.99902c-10 0.666992 -19.5 0.666992 -28.5 0s-18.167 1 -27.5 5c-1.33301 3.33301 -0.333008 5 3 5c9.33301 -2.66699 18.666 -4 27.999 -4s18.666 0.333008 27.999 1l2 3c1.33301 11.333 3.16602 22.833 5.49902 34.5
s5.5 22.167 9.5 31.5v3c15.333 17.333 32.833 31.333 52.5 42s41.834 17.334 66.501 20.001c12 1.33301 24 0.666016 36 -2.00098s23.333 -6.33398 34 -11.001zM759.008 52.0098c4 0 6.00195 2.00195 6.00195 6.00195l-8 16.5c-2.66699 5.66699 -6 10.834 -10 15.501
c-4 7.33301 -8.33301 14.166 -13 20.499s-7.66699 13.833 -9 22.5c-1.33301 3.33301 -3 6.16602 -5 8.49902s-2.33301 5.16602 -1 8.49902c4.66699 5.33301 10.167 9.66602 16.5 12.999s11.833 7.66602 16.5 12.999l-9 17c-6 -0.666992 -11.333 -2.16699 -16 -4.5
s-9.66699 -4.16602 -15 -5.49902c-2.66699 -1.33301 -5.66699 -3.33301 -9 -6s-6.66602 -2.33398 -9.99902 0.999023c0.666992 13.333 1.16699 26.5 1.5 39.5s0.166016 25.833 -0.500977 38.5l-2 3c-5.33301 0 -10 0.833008 -14 2.5s-8.33301 3.16699 -13 4.5
c-1.33301 -7.33301 -2.5 -15.166 -3.5 -23.499s-0.833008 -16.5 0.5 -24.5c-2 -5.33301 -2.16699 -11.833 -0.5 -19.5s1.16699 -14.167 -1.5 -19.5c0.666992 -20.667 0.166992 -38 -1.5 -52s-1.5 -31 0.5 -51l-1 -7h24c2 0.666992 4.16699 0.333984 6.5 -0.999023
s4.16602 -1 5.49902 1v13c0 4.66699 -0.333008 9.66699 -1 15c0 2.66699 -0.333008 5.33398 -1 8.00098s-1.16699 5.33398 -1.5 8.00098s0 5 1 7s3.16699 3.66699 6.5 5c3.33301 -1.33301 5.16602 -3.5 5.49902 -6.5s1.5 -5.83301 3.5 -8.5
c-0.666992 -4.66699 0.5 -8.66699 3.5 -12s5.16699 -7 6.5 -11c6.66699 -4 11.667 -9.33301 15 -16s8 -12.334 14 -17.001c2 0.666992 3.83301 0.166992 5.5 -1.5s4.16699 -1.83398 7.5 -0.500977zM634.01 70.0117c1.33301 2 1.99902 4.00195 1.99902 6.00195v7
c0 13.333 -0.333008 26.333 -1 39s-1 25 -1 37c0 4.66699 0.333008 9.16699 1 13.5s0.333984 8.5 -0.999023 12.5c-4.66699 3.33301 -9.16699 4 -13.5 2s-9.16602 -2.66699 -14.499 -2c-4.66699 -7.33301 -6.33398 -15.333 -5.00098 -24s1.33301 -17.334 0 -26.001
c-1.33301 -3.33301 -2 -7.33301 -2 -12s-0.333008 -9.33398 -1 -14.001c1.33301 -6.66699 1.5 -14 0.5 -22s0.833008 -15.333 5.5 -22c10 0 20 1.66699 30 5zM583.009 159.014c0.666992 5.33301 1.6709 10.667 3.00391 16s1.33301 10.666 0 15.999
c-5.33301 -0.666992 -10.833 -1.5 -16.5 -2.5s-10.167 -4.5 -13.5 -10.5c-2.66699 -2.66699 -4.33398 -6.5 -5.00098 -11.5s-4 -6.83301 -10 -5.5c-1.33301 5.33301 -2 10 -2 14v15c-2.66699 1.33301 -5.16699 1.33301 -7.5 0s-4.83301 -1.33301 -7.5 0
c-4.66699 -2.66699 -8.33398 -7 -11.001 -13c0 -19.333 0.166992 -37.833 0.5 -55.5s1.5 -36.167 3.5 -55.5c3.33301 -5.33301 7.66602 -7.16602 12.999 -5.49902s9.66602 1.83398 12.999 0.500977c-2 7.33301 -2.16699 14.166 -0.5 20.499s1.16699 13.166 -1.5 20.499
c1.33301 7.33301 3 14.833 5 22.5s5.66699 14.834 11 21.501c4 3.33301 8.33301 5.5 13 6.5s9 3.16699 13 6.5zM484.013 98.0146c6 11.333 8.16504 22.999 6.49805 34.999s-3.83398 24.667 -6.50098 38c0.666992 2 -0.166016 4 -2.49902 6s-5 3.66699 -8 5l-9 4
c-3 1.33301 -4.83301 2.66602 -5.5 3.99902c-1.33301 1.33301 -3 2 -5 2c-1.33301 0 -2.33301 -1 -3 -3c-7.33301 0.666992 -13.666 -0.666016 -18.999 -3.99902c-3.33301 -2 -5.83301 -4.66699 -7.5 -8s-3.83398 -5.66602 -6.50098 -6.99902c-3.33301 -2 -6.33301 -1 -9 3
c2.66699 12 3.33398 24.167 2.00098 36.5s-3 24.833 -5 37.5l-2 7h-8c-6 -2 -8.66699 -5.66699 -8 -11s0.333984 -10 -0.999023 -14c-2 -11.333 -2.66699 -22.666 -2 -33.999s0 -22.666 -2 -33.999c1.33301 -11.333 1.33301 -22.333 0 -33s-1.33301 -21 0 -31
c0 -6 -0.5 -11.833 -1.5 -17.5s-1.16699 -11.834 -0.5 -18.501c4.66699 -2.66699 9.83398 -3 15.501 -1s10.834 4 15.501 6c6.66699 2.66699 11.334 1.66699 14.001 -3s6 -8.33398 10 -11.001c5.33301 0 9.66602 0.333008 12.999 1c7.33301 4 15.166 10.5 23.499 19.5
s12.166 17.5 11.499 25.5zM612.011 262.014c-3.33301 -4 -5.66699 -9 -7 -15s-0.333008 -11 3 -15c1.33301 -3.33301 4 -5.16602 8 -5.49902s7.66699 0.166992 11 1.5c6 4 8.33301 10.333 7 19c-2.66699 7.33301 -6.66699 12.333 -12 15
c-1.33301 1.33301 -3 2.16602 -5 2.49902s-3.66699 -0.5 -5 -2.5zM359.01 102.014c-2 7.33301 -2.99805 14.6689 -2.99805 22.002s0.166992 14.666 0.5 21.999s0.166016 14.5 -0.500977 21.5s-3 13.5 -7 19.5c-4.66699 3.33301 -9.66699 6 -15 8s-10.666 5 -15.999 9
c-5.33301 -1.33301 -10.833 -1.5 -16.5 -0.5s-11.167 -0.5 -16.5 -4.5c-4.66699 -2.66699 -7 -6.33398 -7 -11.001s-0.333008 -9.66699 -1 -15c3.33301 -1.33301 7.16602 -1.83301 11.499 -1.5l12.5 1c4 0.333008 7.83301 0 11.5 -1s6.83398 -3.5 9.50098 -7.5
c-0.666992 -2.66699 -0.166992 -4.66699 1.5 -6s1.5 -3.33301 -0.5 -6c-0.666992 -1.33301 -1 -2.66602 -1 -3.99902s0.666992 -2.66602 2 -3.99902s1.66602 -3 0.999023 -5s-2 -3.33301 -4 -4c-4.66699 -1.33301 -9.16699 -1.83301 -13.5 -1.5
s-9.16602 -0.166992 -14.499 -1.5c-7.33301 -3.33301 -13 -8.5 -17 -15.5s-6.66699 -14.167 -8 -21.5c-2 -3.33301 -2.16699 -6.83301 -0.5 -10.5s1.16699 -7.16699 -1.5 -10.5c0 -4.66699 1.66699 -8.33398 5 -11.001s6.66602 -4.66699 9.99902 -6c3.33301 3.33301 6 4 8 2
c5.33301 -1.33301 10.166 0.166992 14.499 4.5s9.16602 8.16602 14.499 11.499c3.33301 0.666992 5.33301 0.333984 6 -0.999023s1 -3.33301 1 -6c0 -2 -0.166992 -4.33301 -0.5 -7s0.5 -4.66699 2.5 -6c3.33301 -1.33301 6 -1.33301 8 0s4.66699 2 8 2
c2.66699 1.33301 5.33398 2.16602 8.00098 2.49902s5 1.5 7 3.5zM226.012 205.017c6.66699 2 13.168 3.5 19.501 4.5s12.833 2.16699 19.5 3.5l6 4c-1.33301 6 -1.16602 11.5 0.500977 16.5s2.5 10.167 2.5 15.5c-8 1.33301 -16.5 1.83301 -25.5 1.5
s-17.833 -0.833008 -26.5 -1.5c-5.33301 -0.666992 -10.333 -1.5 -15 -2.5s-8.66699 -2.83301 -12 -5.5c-0.666992 -10.667 -1.66699 -21.5 -3 -32.5l-4 -32.5c1.33301 -17.333 1.66602 -35.5 0.999023 -54.5s-0.333984 -37.5 0.999023 -55.5c2.66699 0 5.16699 0.5 7.5 1.5
s4.5 0.833008 6.5 -0.5c4 1.33301 7.83301 1.16602 11.5 -0.500977s7.5 -1.5 11.5 0.5c0.666992 10.667 1 21 1 31c0 10.667 0.333008 21.334 1 32.001c1.33301 3.33301 3.5 5.83301 6.5 7.5s6.16699 3.16699 9.5 4.5c2.66699 1.33301 5.33398 1.33301 8.00098 0
s5 -0.333008 7 3l-1 28c-2.66699 3.33301 -5.83398 4.83301 -9.50098 4.5s-7.5 -0.5 -11.5 -0.5c-2.66699 -2.66699 -5 -4 -7 -4c-5.33301 1.33301 -7.83301 4.5 -7.5 9.5s-0.166992 9.16699 -1.5 12.5c-1.33301 2.66699 0 6 4 10zM796.013 19.0166
c0 -2 0.501953 -3.83496 1.50195 -5.50195s-0.5 -4.16699 -4.5 -7.5c-14.667 1.33301 -31 0.5 -49 -2.5s-34 -3.5 -48 -1.5c-37.333 1.33301 -73.666 0 -108.999 -4s-71.333 -4 -108 0c-16.667 -2.66699 -32.834 -3.16699 -48.501 -1.5s-31.5 3.16699 -47.5 4.5
c-19.333 1.33301 -39.166 1.83301 -59.499 1.5s-40.833 -0.5 -61.5 -0.5c-14 0 -30.667 -0.5 -50 -1.5s-36 -3.16699 -50 -6.5c-2.66699 -0.666992 -5.66699 -1 -9 -1c-2.66699 0 -4.66699 1.66699 -6 5c0 10.667 -0.333008 21.5 -1 32.5s0.666016 21.833 3.99902 32.5
c1.33301 13.333 1.66602 26.666 0.999023 39.999s0 26.666 2 39.999c-2.66699 15.333 -2.83398 30.166 -0.500977 44.499s2.16602 29.166 -0.500977 44.499c0 21.333 0.833008 42.833 2.5 64.5s3.16699 43.834 4.5 66.501c1.33301 24 1.5 47.833 0.5 71.5
s-0.833008 47.5 0.5 71.5c2.66699 5.33301 6.5 7.5 11.5 6.5s9.83301 -0.833008 14.5 0.5c5.33301 -3.33301 11.5 -4.16602 18.5 -2.49902s13.167 2.16699 18.5 1.5c2 2 4.5 3.83301 7.5 5.5s4.83301 0.166992 5.5 -4.5c1.33301 -1.33301 1.5 -3.33301 0.5 -6
s-0.166992 -4.66699 2.5 -6c-1.33301 -9.33301 -1.83301 -22 -1.5 -38s1 -33.333 2 -52s2.16699 -37.834 3.5 -57.501s2.33301 -37.5 3 -53.5c21.333 6.66699 40.833 15.834 58.5 27.501s36.834 21.167 57.501 28.5c3.33301 1.33301 6.5 3.33301 9.5 6
s6.83301 4.66699 11.5 6c1.33301 0.666992 2.66602 1.66699 3.99902 3s3.33301 1.33301 6 0c3.33301 -1.33301 4.66602 -3.66602 3.99902 -6.99902s-1 -6.66602 -1 -9.99902c-6.66699 -19.333 -8.33398 -39.666 -5.00098 -60.999c1.33301 -3.33301 3.5 -4.33301 6.5 -3
s5.5 2 7.5 2c5.33301 4.66699 11 8.5 17 11.5s11.667 6.5 17 10.5l20 11.5c6.66699 3.66699 13.667 6.83398 21 9.50098l23.5 16c7.66699 5.33301 15.834 9.66602 24.501 12.999l20 16c1.33301 2.66699 2.83301 4.83398 4.5 6.50098s5.83398 -0.166016 12.501 -5.49902
c0 -9.33301 1 -18.833 3 -28.5s3 -19.167 3 -28.5c0.666992 -2 1.66699 -2.83301 3 -2.5s2.33301 -0.166992 3 -1.5c2.66699 -3.33301 3.33398 -6.66602 2.00098 -9.99902l-4 -10l2 -2c11.333 2.66699 21.833 7 31.5 13s19.334 12.333 29.001 19s19.334 13 29.001 19
s20.167 10.333 31.5 13c3.33301 3.33301 7 5.5 11 6.5s7.66699 3.16699 11 6.5c3.33301 0.666992 6.33301 2.16699 9 4.5s5.5 4.5 8.5 6.5s6.16699 3.33301 9.5 4s7 -0.333008 11 -3c1.33301 0 2.66602 -0.333008 3.99902 -1s2.33301 -1.66699 3 -3
c-0.666992 -2.66699 -0.5 -4.83398 0.5 -6.50098s2.16699 -3.5 3.5 -5.5c-1.33301 -5.33301 -1.33301 -10.166 0 -14.499s0.666016 -8.5 -2.00098 -12.5c0.666992 -8.66699 0.666992 -17 0 -25s1 -15.667 5 -23c-1.33301 -4.66699 -0.5 -8.83398 2.5 -12.501
s2.83301 -7.16699 -0.5 -10.5c0.666992 -5.33301 0.666992 -10.166 0 -14.499s0.666016 -8.5 3.99902 -12.5c0.666992 -3.33301 1.16699 -6.5 1.5 -9.5s-0.5 -5.83301 -2.5 -8.5c1.33301 -7.33301 2.16602 -15 2.49902 -23s1.83301 -15.667 4.5 -23
c-1.33301 -2.66699 -1.66602 -5.33398 -0.999023 -8.00098s1 -5.33398 1 -8.00098c0 -25.333 1.83301 -49.833 5.5 -73.5s5.83398 -48.167 6.50098 -73.5z" />
    <glyph glyph-name="apple" unicode="&#xf8ff;" horiz-adv-x="1000" 
d="M449 163c-1.33301 -4.66699 -0.666992 -8.00195 2 -10.002s4.33398 -4.66699 5.00098 -8c4.66699 -9.33301 6 -19 4 -29s-6.33301 -18.667 -13 -26c-1.33301 -2.66699 -3.16602 -4.16699 -5.49902 -4.5s-4.5 -1.16602 -6.5 -2.49902
c-8.66699 1.33301 -13.5 5.66602 -14.5 12.999s-2.16699 14 -3.5 20c1.33301 5.33301 2.16602 10.833 2.49902 16.5s2.16602 10.834 5.49902 15.501c4.66699 2.66699 8 6.33398 10 11.001s5.66699 7 11 7zM320.999 109.998c0 -5.33301 -1.49805 -9.66699 -4.49805 -13
s-6.16699 -6.66602 -9.5 -9.99902c-2.66699 -0.666992 -5.33398 -2 -8.00098 -4s-5.66699 -2 -9 0c-4.66699 1.33301 -6.33398 3.83301 -5.00098 7.5s2.33301 7.16699 3 10.5c0 4 3 7.33301 9 10c4 0 7.33301 1.33301 10 4c2 -0.666992 4.5 -0.833984 7.5 -0.500977
s5.16699 -1.16699 6.5 -4.5zM434.001 579.997c4 4 8.50195 7.66797 13.502 11.001s6.16699 8.66602 3.5 15.999c-1.33301 7.33301 -3.83301 14.5 -7.5 21.5s-9.83398 11.167 -18.501 12.5c-1.33301 -3.33301 -3.5 -4.5 -6.5 -3.5s-5.5 1.16699 -7.5 0.5
c-4.66699 2 -9.33398 2.33301 -14.001 1s-8.66699 -3.66602 -12 -6.99902c-7.33301 -10 -8.5 -19.667 -3.5 -29s10.167 -18.333 15.5 -27c1.33301 -2.66699 3 -3.66699 5 -3s4.33301 0.666992 7 0c4.66699 -1.33301 9 -0.833008 13 1.5s8 4.16602 12 5.49902z
M473.003 626.998c2 -12.667 -0.333008 -22.999 -7 -30.999c-7.33301 -4.66699 -14 -9.83398 -20 -15.501s-13.333 -9.16699 -22 -10.5c-4 1.33301 -6.33301 0.166016 -7 -3.50098s-2.66699 -4.16699 -6 -1.5s-7.33301 3.33398 -12 2.00098s-9 -1.66602 -13 -0.999023
c-4 0 -7.66699 0.166992 -11 0.5s-6.66602 1.16602 -9.99902 2.49902c-5.33301 4.66699 -10.5 9.83398 -15.5 15.501s-5.83301 12.5 -2.5 20.5c2 6 4.83301 11.667 8.5 17s8.83398 9.66602 15.501 12.999l22 10.5c7.33301 3.66699 15.666 4.5 24.999 2.5
c10.667 -0.666992 21.167 -2 31.5 -4s18.166 -7.66699 23.499 -17zM762.003 675.999c3.33301 -5.33301 4.33398 -11.167 3.00098 -17.5s-0.666016 -12.5 2.00098 -18.5c2.66699 -4 6.16699 -5.33301 10.5 -4s8.16602 1.33301 11.499 0
c15.333 1.33301 31.666 1.83301 48.999 1.5s38.666 1.16699 63.999 4.5c5.33301 -2 6 -4.33301 2 -7c-7.33301 1.33301 -14.333 1.5 -21 0.5s-13.667 -1.83301 -21 -2.5c-22.667 -1.33301 -40.5 -2.33301 -53.5 -3s-25.167 -2 -36.5 -4
c-5.33301 -4.66699 -7.66602 -10 -6.99902 -16s-0.333008 -11.667 -3 -17c0 -3.33301 0.5 -6 1.5 -8s1.83301 -4.33301 2.5 -7c2.66699 -3.33301 7.33398 -5.66602 14.001 -6.99902c4.66699 0.666992 9.16699 2 13.5 4s7.5 5 9.5 9c0 4.66699 -2.33301 8.66699 -7 12
c-3.33301 2.66699 -6.83301 3.66699 -10.5 3s-6.83398 0.666016 -9.50098 3.99902c2 3.33301 5.16699 4.66602 9.5 3.99902s8.5 -1 12.5 -1c6.66699 -2 11.667 -7.33301 15 -16c-0.666992 -10 -6.66699 -19 -18 -27c-3.33301 -1.33301 -6.83301 -2.16602 -10.5 -2.49902
s-7.16699 -1.16602 -10.5 -2.49902c-8 2 -16.167 4.66699 -24.5 8s-15.166 8.66602 -20.499 15.999c-2.66699 8 -3 15.5 -1 22.5s3.33301 14.167 4 21.5c-1.33301 3.33301 -3.33301 4.66602 -6 3.99902s-5.66699 -0.666992 -9 0l-33 -1c0 1.33301 -0.333008 2 -1 2
s-1 0.666992 -1 2c2 1.33301 4.33301 2 7 2s5 0.333008 7 1c6 -1.33301 12.333 -1.66602 19 -0.999023s13 1 19 1c2.66699 2 4.16699 4.5 4.5 7.5s0.5 6.16699 0.5 9.5c2 4.66699 3.16699 10 3.5 16s2.16602 10.667 5.49902 14c3.33301 2 6 1.66699 8 -1s4 -4.66699 6 -6z
M641.004 633.998c1.33301 -7.33301 1.8291 -14.4932 1.49609 -21.4932s-0.166016 -14.167 0.500977 -21.5c1.33301 -2 1.83301 -4.16699 1.5 -6.5s0.5 -4.16602 2.5 -5.49902c6 -1.33301 10.333 -1.33301 13 0c2.66699 0 5.33398 -0.333008 8.00098 -1s5.66699 -1 9 -1
c2 -2 1 -4.33301 -3 -7c-8 0 -16.5 -0.166992 -25.5 -0.5s-17.5 -1.83301 -25.5 -4.5c-2.66699 1.33301 -5.16699 2.16602 -7.5 2.49902s-4.16602 2.16602 -5.49902 5.49902c1.33301 9.33301 2.5 18.666 3.5 27.999s0.166992 18.666 -2.5 27.999
c-1.33301 2 -3.5 2.16699 -6.5 0.5s-5.5 -3.16699 -7.5 -4.5c-9.33301 -5.33301 -18.166 -11.833 -26.499 -19.5s-13.166 -17.167 -14.499 -28.5c-2.66699 -2.66699 -5.66699 -4.5 -9 -5.5s-6.66602 -0.833008 -9.99902 0.5c-3.33301 4.66699 -4.33301 9.66699 -3 15
s1.33301 10.666 0 15.999l-1 31c-2 2 -4.66699 2.5 -8 1.5s-6.66602 -0.833008 -9.99902 0.5c-1.33301 1.33301 -3.5 1.66602 -6.5 0.999023s-4.5 0.666016 -4.5 3.99902c8.66699 -0.666992 17.167 -0.333984 25.5 0.999023s17.166 1.33301 26.499 0c2 -2 3 -4.33301 3 -7
v-8c0 -2.66699 0.166992 -5.16699 0.5 -7.5s2.16602 -3.83301 5.49902 -4.5c9.33301 4 18 8.83301 26 14.5s16.667 10.167 26 13.5c4 -2.66699 8.66699 -3.16699 14 -1.5s8.66602 -0.833008 9.99902 -7.5zM396 780.005c3.33301 -1.33301 6.67383 -1.99512 10.0068 -1.99512
s6.66602 -0.666992 9.99902 -2c11.333 -2.66699 22.666 -6.66699 33.999 -12s20.666 -13 27.999 -23c1.33301 -1.33301 1.33301 -4.33301 0 -9c-8 -8.66699 -17.667 -11.334 -29 -8.00098c-3.33301 4 -6.33301 7.83301 -9 11.5s-4.33398 7.83398 -5.00098 12.501
c-8.66699 13.333 -20.334 21.666 -35.001 24.999s-29 7 -43 11l-31 2c-1.33301 -1.33301 -3.33301 -1.66602 -6 -0.999023s-5 0.333984 -7 -0.999023c-22 -6.66699 -40.333 -13.667 -55 -21c-4 -5.33301 -9.16699 -9.83301 -15.5 -13.5s-10.166 -9.16699 -11.499 -16.5
c-4 -10 -6.66699 -21.333 -8 -34s-2.33301 -24.667 -3 -36c3.33301 -2.66699 7 -3.5 11 -2.5s7.66699 1.16699 11 0.5c14 1.33301 28 2 42 2h44c2.66699 -1.33301 3 -3.66602 1 -6.99902c-5.33301 -4 -10.5 -4.16699 -15.5 -0.5s-10.167 4.5 -15.5 2.5
c-6.66699 0.666992 -13.5 0.5 -20.5 -0.5s-13.833 -1.16699 -20.5 -0.5c-6 -1.33301 -12.333 -2 -19 -2c-6 0 -11.667 -1.66699 -17 -5l-3 -4c-1.33301 -12.667 -1.83301 -23 -1.5 -31s1.16602 -18.667 2.49902 -32c1.33301 -4.66699 1.5 -9.33398 0.5 -14.001
s0.166992 -9.33398 3.5 -14.001c8.66699 -0.666992 15.5 -0.833984 20.5 -0.500977s9.66699 0.666016 14 0.999023s9 0.833008 14 1.5s11.833 1 20.5 1c2 1.33301 4.16699 1.66602 6.5 0.999023s4.5 -1.33398 6.5 -2.00098c1.33301 -3.33301 0.333008 -5.33301 -3 -6
c-8 1.33301 -15 1.83301 -21 1.5s-12 -0.833008 -18 -1.5s-12.667 -1.33398 -20 -2.00098s-16 -0.666992 -26 0l-23 -2c-8 -0.666992 -15.667 -0.666992 -23 0c-10.667 -0.666992 -21.667 -1 -33 -1s-21.666 1.33301 -30.999 4l-2 3c2 2 5 3.66699 9 5
c5.33301 -2.66699 11.333 -4.16699 18 -4.5s13.667 -1.16602 21 -2.49902c4.66699 0.666992 9.33398 0.833984 14.001 0.500977s8.66699 0.833984 12 3.50098c-0.666992 17.333 0.666016 32.666 3.99902 45.999s5.66602 29 6.99902 47
c-0.666992 1.33301 -1.66699 2.66602 -3 3.99902c-10 0.666992 -19.5 0.666992 -28.5 0s-18.167 1 -27.5 5c-1.33301 3.33301 -0.333008 5 3 5c9.33301 -2.66699 18.666 -4 27.999 -4s18.666 0.333008 27.999 1l2 3c1.33301 11.333 3.16602 22.833 5.49902 34.5
s5.5 22.167 9.5 31.5v3c15.333 17.333 32.833 31.333 52.5 42s41.834 17.334 66.501 20.001c12 1.33301 24 0.666016 36 -2.00098s23.333 -6.33398 34 -11.001zM759.008 52.0098c4 0 6.00195 2.00195 6.00195 6.00195l-8 16.5c-2.66699 5.66699 -6 10.834 -10 15.501
c-4 7.33301 -8.33301 14.166 -13 20.499s-7.66699 13.833 -9 22.5c-1.33301 3.33301 -3 6.16602 -5 8.49902s-2.33301 5.16602 -1 8.49902c4.66699 5.33301 10.167 9.66602 16.5 12.999s11.833 7.66602 16.5 12.999l-9 17c-6 -0.666992 -11.333 -2.16699 -16 -4.5
s-9.66699 -4.16602 -15 -5.49902c-2.66699 -1.33301 -5.66699 -3.33301 -9 -6s-6.66602 -2.33398 -9.99902 0.999023c0.666992 13.333 1.16699 26.5 1.5 39.5s0.166016 25.833 -0.500977 38.5l-2 3c-5.33301 0 -10 0.833008 -14 2.5s-8.33301 3.16699 -13 4.5
c-1.33301 -7.33301 -2.5 -15.166 -3.5 -23.499s-0.833008 -16.5 0.5 -24.5c-2 -5.33301 -2.16699 -11.833 -0.5 -19.5s1.16699 -14.167 -1.5 -19.5c0.666992 -20.667 0.166992 -38 -1.5 -52s-1.5 -31 0.5 -51l-1 -7h24c2 0.666992 4.16699 0.333984 6.5 -0.999023
s4.16602 -1 5.49902 1v13c0 4.66699 -0.333008 9.66699 -1 15c0 2.66699 -0.333008 5.33398 -1 8.00098s-1.16699 5.33398 -1.5 8.00098s0 5 1 7s3.16699 3.66699 6.5 5c3.33301 -1.33301 5.16602 -3.5 5.49902 -6.5s1.5 -5.83301 3.5 -8.5
c-0.666992 -4.66699 0.5 -8.66699 3.5 -12s5.16699 -7 6.5 -11c6.66699 -4 11.667 -9.33301 15 -16s8 -12.334 14 -17.001c2 0.666992 3.83301 0.166992 5.5 -1.5s4.16699 -1.83398 7.5 -0.500977zM634.01 70.0117c1.33301 2 1.99902 4.00195 1.99902 6.00195v7
c0 13.333 -0.333008 26.333 -1 39s-1 25 -1 37c0 4.66699 0.333008 9.16699 1 13.5s0.333984 8.5 -0.999023 12.5c-4.66699 3.33301 -9.16699 4 -13.5 2s-9.16602 -2.66699 -14.499 -2c-4.66699 -7.33301 -6.33398 -15.333 -5.00098 -24s1.33301 -17.334 0 -26.001
c-1.33301 -3.33301 -2 -7.33301 -2 -12s-0.333008 -9.33398 -1 -14.001c1.33301 -6.66699 1.5 -14 0.5 -22s0.833008 -15.333 5.5 -22c10 0 20 1.66699 30 5zM583.009 159.014c0.666992 5.33301 1.6709 10.667 3.00391 16s1.33301 10.666 0 15.999
c-5.33301 -0.666992 -10.833 -1.5 -16.5 -2.5s-10.167 -4.5 -13.5 -10.5c-2.66699 -2.66699 -4.33398 -6.5 -5.00098 -11.5s-4 -6.83301 -10 -5.5c-1.33301 5.33301 -2 10 -2 14v15c-2.66699 1.33301 -5.16699 1.33301 -7.5 0s-4.83301 -1.33301 -7.5 0
c-4.66699 -2.66699 -8.33398 -7 -11.001 -13c0 -19.333 0.166992 -37.833 0.5 -55.5s1.5 -36.167 3.5 -55.5c3.33301 -5.33301 7.66602 -7.16602 12.999 -5.49902s9.66602 1.83398 12.999 0.500977c-2 7.33301 -2.16699 14.166 -0.5 20.499s1.16699 13.166 -1.5 20.499
c1.33301 7.33301 3 14.833 5 22.5s5.66699 14.834 11 21.501c4 3.33301 8.33301 5.5 13 6.5s9 3.16699 13 6.5zM484.013 98.0146c6 11.333 8.16504 22.999 6.49805 34.999s-3.83398 24.667 -6.50098 38c0.666992 2 -0.166016 4 -2.49902 6s-5 3.66699 -8 5l-9 4
c-3 1.33301 -4.83301 2.66602 -5.5 3.99902c-1.33301 1.33301 -3 2 -5 2c-1.33301 0 -2.33301 -1 -3 -3c-7.33301 0.666992 -13.666 -0.666016 -18.999 -3.99902c-3.33301 -2 -5.83301 -4.66699 -7.5 -8s-3.83398 -5.66602 -6.50098 -6.99902c-3.33301 -2 -6.33301 -1 -9 3
c2.66699 12 3.33398 24.167 2.00098 36.5s-3 24.833 -5 37.5l-2 7h-8c-6 -2 -8.66699 -5.66699 -8 -11s0.333984 -10 -0.999023 -14c-2 -11.333 -2.66699 -22.666 -2 -33.999s0 -22.666 -2 -33.999c1.33301 -11.333 1.33301 -22.333 0 -33s-1.33301 -21 0 -31
c0 -6 -0.5 -11.833 -1.5 -17.5s-1.16699 -11.834 -0.5 -18.501c4.66699 -2.66699 9.83398 -3 15.501 -1s10.834 4 15.501 6c6.66699 2.66699 11.334 1.66699 14.001 -3s6 -8.33398 10 -11.001c5.33301 0 9.66602 0.333008 12.999 1c7.33301 4 15.166 10.5 23.499 19.5
s12.166 17.5 11.499 25.5zM612.011 262.014c-3.33301 -4 -5.66699 -9 -7 -15s-0.333008 -11 3 -15c1.33301 -3.33301 4 -5.16602 8 -5.49902s7.66699 0.166992 11 1.5c6 4 8.33301 10.333 7 19c-2.66699 7.33301 -6.66699 12.333 -12 15
c-1.33301 1.33301 -3 2.16602 -5 2.49902s-3.66699 -0.5 -5 -2.5zM359.01 102.014c-2 7.33301 -2.99805 14.6689 -2.99805 22.002s0.166992 14.666 0.5 21.999s0.166016 14.5 -0.500977 21.5s-3 13.5 -7 19.5c-4.66699 3.33301 -9.66699 6 -15 8s-10.666 5 -15.999 9
c-5.33301 -1.33301 -10.833 -1.5 -16.5 -0.5s-11.167 -0.5 -16.5 -4.5c-4.66699 -2.66699 -7 -6.33398 -7 -11.001s-0.333008 -9.66699 -1 -15c3.33301 -1.33301 7.16602 -1.83301 11.499 -1.5l12.5 1c4 0.333008 7.83301 0 11.5 -1s6.83398 -3.5 9.50098 -7.5
c-0.666992 -2.66699 -0.166992 -4.66699 1.5 -6s1.5 -3.33301 -0.5 -6c-0.666992 -1.33301 -1 -2.66602 -1 -3.99902s0.666992 -2.66602 2 -3.99902s1.66602 -3 0.999023 -5s-2 -3.33301 -4 -4c-4.66699 -1.33301 -9.16699 -1.83301 -13.5 -1.5
s-9.16602 -0.166992 -14.499 -1.5c-7.33301 -3.33301 -13 -8.5 -17 -15.5s-6.66699 -14.167 -8 -21.5c-2 -3.33301 -2.16699 -6.83301 -0.5 -10.5s1.16699 -7.16699 -1.5 -10.5c0 -4.66699 1.66699 -8.33398 5 -11.001s6.66602 -4.66699 9.99902 -6c3.33301 3.33301 6 4 8 2
c5.33301 -1.33301 10.166 0.166992 14.499 4.5s9.16602 8.16602 14.499 11.499c3.33301 0.666992 5.33301 0.333984 6 -0.999023s1 -3.33301 1 -6c0 -2 -0.166992 -4.33301 -0.5 -7s0.5 -4.66699 2.5 -6c3.33301 -1.33301 6 -1.33301 8 0s4.66699 2 8 2
c2.66699 1.33301 5.33398 2.16602 8.00098 2.49902s5 1.5 7 3.5zM226.012 205.017c6.66699 2 13.168 3.5 19.501 4.5s12.833 2.16699 19.5 3.5l6 4c-1.33301 6 -1.16602 11.5 0.500977 16.5s2.5 10.167 2.5 15.5c-8 1.33301 -16.5 1.83301 -25.5 1.5
s-17.833 -0.833008 -26.5 -1.5c-5.33301 -0.666992 -10.333 -1.5 -15 -2.5s-8.66699 -2.83301 -12 -5.5c-0.666992 -10.667 -1.66699 -21.5 -3 -32.5l-4 -32.5c1.33301 -17.333 1.66602 -35.5 0.999023 -54.5s-0.333984 -37.5 0.999023 -55.5c2.66699 0 5.16699 0.5 7.5 1.5
s4.5 0.833008 6.5 -0.5c4 1.33301 7.83301 1.16602 11.5 -0.500977s7.5 -1.5 11.5 0.5c0.666992 10.667 1 21 1 31c0 10.667 0.333008 21.334 1 32.001c1.33301 3.33301 3.5 5.83301 6.5 7.5s6.16699 3.16699 9.5 4.5c2.66699 1.33301 5.33398 1.33301 8.00098 0
s5 -0.333008 7 3l-1 28c-2.66699 3.33301 -5.83398 4.83301 -9.50098 4.5s-7.5 -0.5 -11.5 -0.5c-2.66699 -2.66699 -5 -4 -7 -4c-5.33301 1.33301 -7.83301 4.5 -7.5 9.5s-0.166992 9.16699 -1.5 12.5c-1.33301 2.66699 0 6 4 10zM796.013 19.0166
c0 -2 0.501953 -3.83496 1.50195 -5.50195s-0.5 -4.16699 -4.5 -7.5c-14.667 1.33301 -31 0.5 -49 -2.5s-34 -3.5 -48 -1.5c-37.333 1.33301 -73.666 0 -108.999 -4s-71.333 -4 -108 0c-16.667 -2.66699 -32.834 -3.16699 -48.501 -1.5s-31.5 3.16699 -47.5 4.5
c-19.333 1.33301 -39.166 1.83301 -59.499 1.5s-40.833 -0.5 -61.5 -0.5c-14 0 -30.667 -0.5 -50 -1.5s-36 -3.16699 -50 -6.5c-2.66699 -0.666992 -5.66699 -1 -9 -1c-2.66699 0 -4.66699 1.66699 -6 5c0 10.667 -0.333008 21.5 -1 32.5s0.666016 21.833 3.99902 32.5
c1.33301 13.333 1.66602 26.666 0.999023 39.999s0 26.666 2 39.999c-2.66699 15.333 -2.83398 30.166 -0.500977 44.499s2.16602 29.166 -0.500977 44.499c0 21.333 0.833008 42.833 2.5 64.5s3.16699 43.834 4.5 66.501c1.33301 24 1.5 47.833 0.5 71.5
s-0.833008 47.5 0.5 71.5c2.66699 5.33301 6.5 7.5 11.5 6.5s9.83301 -0.833008 14.5 0.5c5.33301 -3.33301 11.5 -4.16602 18.5 -2.49902s13.167 2.16699 18.5 1.5c2 2 4.5 3.83301 7.5 5.5s4.83301 0.166992 5.5 -4.5c1.33301 -1.33301 1.5 -3.33301 0.5 -6
s-0.166992 -4.66699 2.5 -6c-1.33301 -9.33301 -1.83301 -22 -1.5 -38s1 -33.333 2 -52s2.16699 -37.834 3.5 -57.501s2.33301 -37.5 3 -53.5c21.333 6.66699 40.833 15.834 58.5 27.501s36.834 21.167 57.501 28.5c3.33301 1.33301 6.5 3.33301 9.5 6
s6.83301 4.66699 11.5 6c1.33301 0.666992 2.66602 1.66699 3.99902 3s3.33301 1.33301 6 0c3.33301 -1.33301 4.66602 -3.66602 3.99902 -6.99902s-1 -6.66602 -1 -9.99902c-6.66699 -19.333 -8.33398 -39.666 -5.00098 -60.999c1.33301 -3.33301 3.5 -4.33301 6.5 -3
s5.5 2 7.5 2c5.33301 4.66699 11 8.5 17 11.5s11.667 6.5 17 10.5l20 11.5c6.66699 3.66699 13.667 6.83398 21 9.50098l23.5 16c7.66699 5.33301 15.834 9.66602 24.501 12.999l20 16c1.33301 2.66699 2.83301 4.83398 4.5 6.50098s5.83398 -0.166016 12.501 -5.49902
c0 -9.33301 1 -18.833 3 -28.5s3 -19.167 3 -28.5c0.666992 -2 1.66699 -2.83301 3 -2.5s2.33301 -0.166992 3 -1.5c2.66699 -3.33301 3.33398 -6.66602 2.00098 -9.99902l-4 -10l2 -2c11.333 2.66699 21.833 7 31.5 13s19.334 12.333 29.001 19s19.334 13 29.001 19
s20.167 10.333 31.5 13c3.33301 3.33301 7 5.5 11 6.5s7.66699 3.16699 11 6.5c3.33301 0.666992 6.33301 2.16699 9 4.5s5.5 4.5 8.5 6.5s6.16699 3.33301 9.5 4s7 -0.333008 11 -3c1.33301 0 2.66602 -0.333008 3.99902 -1s2.33301 -1.66699 3 -3
c-0.666992 -2.66699 -0.5 -4.83398 0.5 -6.50098s2.16699 -3.5 3.5 -5.5c-1.33301 -5.33301 -1.33301 -10.166 0 -14.499s0.666016 -8.5 -2.00098 -12.5c0.666992 -8.66699 0.666992 -17 0 -25s1 -15.667 5 -23c-1.33301 -4.66699 -0.5 -8.83398 2.5 -12.501
s2.83301 -7.16699 -0.5 -10.5c0.666992 -5.33301 0.666992 -10.166 0 -14.499s0.666016 -8.5 3.99902 -12.5c0.666992 -3.33301 1.16699 -6.5 1.5 -9.5s-0.5 -5.83301 -2.5 -8.5c1.33301 -7.33301 2.16602 -15 2.49902 -23s1.83301 -15.667 4.5 -23
c-1.33301 -2.66699 -1.66602 -5.33398 -0.999023 -8.00098s1 -5.33398 1 -8.00098c0 -25.333 1.83301 -49.833 5.5 -73.5s5.83398 -48.167 6.50098 -73.5z" />
    <glyph glyph-name="fi" unicode="&#xf001;" horiz-adv-x="586" 
d="M539 607c-17.333 5.33301 -36.333 9.83398 -57 13.501s-40 5.5 -58 5.5c-44 0 -77.333 -8.66699 -100 -26s-37 -43.666 -43 -78.999l-4 -24h296l-95 -497h-134l74 391h-162l-76 -407c-15.333 -80 -42.833 -138.5 -82.5 -175.5s-90.834 -55.5 -153.501 -55.5
c-14 0 -28.5 0.666992 -43.5 2s-29.5 3.66602 -43.5 6.99902l32 113c8.66699 -2 18 -3.66699 28 -5s19.333 -2 28 -2c12.667 0 24.334 1.66699 35.001 5s20 9.33301 28 18s15 20.667 21 36s11.333 34.666 16 57.999l77 406h-81l22 106h80l2 17
c9.33301 76.667 38 133.5 86 170.5s114.333 55.5 199 55.5c30 0 56.833 -1.66699 80.5 -5s48.167 -8 73.5 -14z" />
    <glyph glyph-name="fi" unicode="&#xfb01;" horiz-adv-x="586" 
d="M539 607c-17.333 5.33301 -36.333 9.83398 -57 13.501s-40 5.5 -58 5.5c-44 0 -77.333 -8.66699 -100 -26s-37 -43.666 -43 -78.999l-4 -24h296l-95 -497h-134l74 391h-162l-76 -407c-15.333 -80 -42.833 -138.5 -82.5 -175.5s-90.834 -55.5 -153.501 -55.5
c-14 0 -28.5 0.666992 -43.5 2s-29.5 3.66602 -43.5 6.99902l32 113c8.66699 -2 18 -3.66699 28 -5s19.333 -2 28 -2c12.667 0 24.334 1.66699 35.001 5s20 9.33301 28 18s15 20.667 21 36s11.333 34.666 16 57.999l77 406h-81l22 106h80l2 17
c9.33301 76.667 38 133.5 86 170.5s114.333 55.5 199 55.5c30 0 56.833 -1.66699 80.5 -5s48.167 -8 73.5 -14z" />
    <glyph glyph-name="fl" unicode="&#xf002;" horiz-adv-x="584" 
d="M480 0l-135.002 0.00195312l119 622c-11.333 1.33301 -22.5 2.5 -33.5 3.5s-21.167 1.5 -30.5 1.5c-64.667 0 -103 -29.667 -115 -89l-8 -41h100l-22 -106h-99l-76 -407c-15.333 -80 -42.833 -138.5 -82.5 -175.5s-90.834 -55.5 -153.501 -55.5
c-14 0 -28.5 0.666992 -43.5 2s-29.5 3.66602 -43.5 6.99902l32 113c8.66699 -2 18 -3.66699 28 -5s19.333 -2 28 -2c12.667 0 24.334 1.66699 35.001 5s20 9.33301 28 18s15 20.667 21 36s11.333 34.666 16 57.999l77 406h-81l22 106h79l10 51
c12.667 63.333 41.334 111.166 86.001 143.499s105.334 48.5 182.001 48.5c32 0 64.833 -1.66699 98.5 -5s66.5 -7.66602 98.5 -12.999z" />
    <glyph glyph-name="fl" unicode="&#xfb02;" horiz-adv-x="584" 
d="M480 0l-135.002 0.00195312l119 622c-11.333 1.33301 -22.5 2.5 -33.5 3.5s-21.167 1.5 -30.5 1.5c-64.667 0 -103 -29.667 -115 -89l-8 -41h100l-22 -106h-99l-76 -407c-15.333 -80 -42.833 -138.5 -82.5 -175.5s-90.834 -55.5 -153.501 -55.5
c-14 0 -28.5 0.666992 -43.5 2s-29.5 3.66602 -43.5 6.99902l32 113c8.66699 -2 18 -3.66699 28 -5s19.333 -2 28 -2c12.667 0 24.334 1.66699 35.001 5s20 9.33301 28 18s15 20.667 21 36s11.333 34.666 16 57.999l77 406h-81l22 106h79l10 51
c12.667 63.333 41.334 111.166 86.001 143.499s105.334 48.5 182.001 48.5c32 0 64.833 -1.66699 98.5 -5s66.5 -7.66602 98.5 -12.999z" />
    <glyph glyph-name="Acute" unicode="&#xf6c9;" horiz-adv-x="267" 
d="M34 713l-21 67l215 81l25 -87z" />
    <glyph glyph-name="Caron" unicode="&#xf6ca;" horiz-adv-x="267" 
d="M120 717l-141 79l40 65l113 -57l133 57l24 -63z" />
    <glyph glyph-name="Dieresis" unicode="&#xf6cb;" horiz-adv-x="267" 
d="M88 787c0 -20 -7.00098 -36.5 -21.001 -49.5s-30 -19.5 -48 -19.5c-18.667 0 -34 6.16699 -46 18.5s-18 27.166 -18 44.499c0 20 6.83301 36.5 20.5 49.5s29.834 19.5 48.501 19.5s34 -6.16699 46 -18.5s18 -27.166 18 -44.499zM312.999 787
c0 -20 -7.00098 -36.5 -21.001 -49.5s-30 -19.5 -48 -19.5c-18.667 0 -34 6.16699 -46 18.5s-18 27.166 -18 44.499c0 20 6.83301 36.5 20.5 49.5s29.834 19.5 48.501 19.5s34 -6.16699 46 -18.5s18 -27.166 18 -44.499z" />
    <glyph glyph-name="Grave" unicode="&#xf6ce;" horiz-adv-x="267" 
d="M219 713l-207 60l49 88l194 -80z" />
    <glyph glyph-name=".null" horiz-adv-x="0" 
 />
    <glyph glyph-name="nonmarkingreturn" horiz-adv-x="500" 
 />
    <glyph glyph-name="Euro" 
d="M88 293c2.66699 15.333 5.66504 30.165 8.99805 44.498s7 28.833 11 43.5h-55l19 97h73c30.667 62.667 71.667 112 123 148s114.333 54 189 54c23.333 0 46.333 -2 69 -6s44.667 -9.66699 66 -17l-51 -110c-9.33301 4 -17.833 7.33301 -25.5 10
s-15.167 4.83398 -22.5 6.50098s-15.166 3 -23.499 4s-18.166 1.5 -29.499 1.5c-30 0 -57.333 -8.16699 -82 -24.5s-46.667 -38.5 -66 -66.5h174l-19 -97h-201c-4 -14.667 -7.5 -29.167 -10.5 -43.5s-5.16699 -29.166 -6.5 -44.499h201l-19 -97h-181
c5.33301 -30 17.333 -52.833 36 -68.5s44 -23.5 76 -23.5c22 0 42.333 2.33301 61 7s37 11 55 19l7 -108c-26.667 -10 -52 -17.667 -76 -23s-51 -8 -81 -8c-39.333 0 -72.833 5.33301 -100.5 16s-50.5 25.167 -68.5 43.5s-31.333 40 -40 65s-14 51.833 -16 80.5h-66l19 97
h52z" />
    </font>
</defs>
</svg>
